<svg fill="none" height="42" viewBox="0 0 141 42" width="141" xmlns="http://www.w3.org/2000/svg">
  <rect fill="#22333B" height="40" rx="4" stroke="white" width="139" x="1" y="1"/>
  <path
    d="M45.9603 27C45.875 27 45.8003 26.968 45.7363 26.904C45.6723 26.84 45.6403 26.7653 45.6403 26.68C45.6403 26.6267 45.6456 26.568 45.6563 26.504L49.6243 16.152C49.667 16.0453 49.7256 15.96 49.8003 15.896C49.875 15.832 49.987 15.8 50.1363 15.8H51.2243C51.363 15.8 51.4696 15.832 51.5443 15.896C51.6296 15.96 51.6936 16.0453 51.7363 16.152L55.6883 26.504C55.7096 26.568 55.7203 26.6267 55.7203 26.68C55.7203 26.7653 55.6883 26.84 55.6243 26.904C55.5603 26.968 55.4856 27 55.4003 27H54.5843C54.4563 27 54.3603 26.968 54.2963 26.904C54.243 26.84 54.2056 26.7813 54.1843 26.728L53.3043 24.456H48.0563L47.1763 26.728C47.1656 26.7813 47.1283 26.84 47.0643 26.904C47.0003 26.968 46.9043 27 46.7763 27H45.9603ZM48.5203 23.08H52.8403L50.6803 17.4L48.5203 23.08ZM57.7991 27C57.6817 27 57.5911 26.968 57.5271 26.904C57.4631 26.8293 57.4311 26.7387 57.4311 26.632V16.184C57.4311 16.0667 57.4631 15.976 57.5271 15.912C57.5911 15.8373 57.6817 15.8 57.7991 15.8H58.5351C58.6631 15.8 58.7591 15.832 58.8231 15.896C58.8871 15.9493 58.9244 15.992 58.9351 16.024L64.2471 24.184V16.184C64.2471 16.0667 64.2791 15.976 64.3431 15.912C64.4071 15.8373 64.4977 15.8 64.6151 15.8H65.3831C65.5004 15.8 65.5911 15.8373 65.6551 15.912C65.7297 15.976 65.7671 16.0667 65.7671 16.184V26.616C65.7671 26.7227 65.7297 26.8133 65.6551 26.888C65.5911 26.9627 65.5057 27 65.3991 27H64.6311C64.5137 27 64.4231 26.968 64.3591 26.904C64.3057 26.84 64.2684 26.7973 64.2471 26.776L58.9511 18.696V26.632C58.9511 26.7387 58.9137 26.8293 58.8391 26.904C58.7751 26.968 58.6844 27 58.5671 27H57.7991ZM68.9084 27C68.7911 27 68.7004 26.968 68.6364 26.904C68.5724 26.8293 68.5404 26.7387 68.5404 26.632V16.184C68.5404 16.0667 68.5724 15.976 68.6364 15.912C68.7004 15.8373 68.7911 15.8 68.9084 15.8H69.6444C69.7724 15.8 69.8684 15.832 69.9324 15.896C69.9964 15.9493 70.0338 15.992 70.0444 16.024L75.3564 24.184V16.184C75.3564 16.0667 75.3884 15.976 75.4524 15.912C75.5164 15.8373 75.6071 15.8 75.7244 15.8H76.4924C76.6098 15.8 76.7004 15.8373 76.7644 15.912C76.8391 15.976 76.8764 16.0667 76.8764 16.184V26.616C76.8764 26.7227 76.8391 26.8133 76.7644 26.888C76.7004 26.9627 76.6151 27 76.5084 27H75.7404C75.6231 27 75.5324 26.968 75.4684 26.904C75.4151 26.84 75.3778 26.7973 75.3564 26.776L70.0604 18.696V26.632C70.0604 26.7387 70.0231 26.8293 69.9484 26.904C69.8844 26.968 69.7938 27 69.6764 27H68.9084ZM83.8738 27.16C82.9778 27.16 82.2045 27 81.5538 26.68C80.9138 26.36 80.4178 25.8747 80.0658 25.224C79.7245 24.5627 79.5538 23.7147 79.5538 22.68V16.184C79.5538 16.0667 79.5858 15.976 79.6498 15.912C79.7138 15.8373 79.8045 15.8 79.9218 15.8H80.7378C80.8551 15.8 80.9458 15.8373 81.0098 15.912C81.0845 15.976 81.1218 16.0667 81.1218 16.184V22.712C81.1218 23.7573 81.3671 24.5307 81.8578 25.032C82.3485 25.5333 83.0205 25.784 83.8738 25.784C84.7165 25.784 85.3831 25.5333 85.8738 25.032C86.3751 24.5307 86.6258 23.7573 86.6258 22.712V16.184C86.6258 16.0667 86.6578 15.976 86.7218 15.912C86.7965 15.8373 86.8871 15.8 86.9938 15.8H87.8258C87.9325 15.8 88.0178 15.8373 88.0818 15.912C88.1565 15.976 88.1938 16.0667 88.1938 16.184V22.68C88.1938 23.7147 88.0178 24.5627 87.6658 25.224C87.3245 25.8747 86.8338 26.36 86.1938 26.68C85.5538 27 84.7805 27.16 83.8738 27.16ZM91.2366 27C91.1192 27 91.0286 26.968 90.9646 26.904C90.9006 26.8293 90.8686 26.7387 90.8686 26.632V16.168C90.8686 16.0613 90.9006 15.976 90.9646 15.912C91.0286 15.8373 91.1192 15.8 91.2366 15.8H92.0846C92.1912 15.8 92.2766 15.8373 92.3406 15.912C92.4046 15.976 92.4366 16.0613 92.4366 16.168V25.608H97.7646C97.8819 25.608 97.9726 25.6453 98.0366 25.72C98.1006 25.784 98.1326 25.8747 98.1326 25.992V26.632C98.1326 26.7387 98.1006 26.8293 98.0366 26.904C97.9726 26.968 97.8819 27 97.7646 27H91.2366ZM100.252 27C100.135 27 100.044 26.968 99.9802 26.904C99.9162 26.8293 99.8842 26.7387 99.8842 26.632V16.184C99.8842 16.0667 99.9162 15.976 99.9802 15.912C100.044 15.8373 100.135 15.8 100.252 15.8H106.86C106.978 15.8 107.068 15.8373 107.132 15.912C107.196 15.976 107.228 16.0667 107.228 16.184V16.792C107.228 16.9093 107.196 17 107.132 17.064C107.068 17.128 106.978 17.16 106.86 17.16H101.42V20.664H106.508C106.626 20.664 106.716 20.7013 106.78 20.776C106.844 20.84 106.876 20.9307 106.876 21.048V21.64C106.876 21.7467 106.844 21.8373 106.78 21.912C106.716 21.976 106.626 22.008 106.508 22.008H101.42V25.64H106.988C107.106 25.64 107.196 25.672 107.26 25.736C107.324 25.8 107.356 25.8907 107.356 26.008V26.632C107.356 26.7387 107.324 26.8293 107.26 26.904C107.196 26.968 107.106 27 106.988 27H100.252ZM109.955 27C109.838 27 109.747 26.968 109.683 26.904C109.619 26.8293 109.587 26.7387 109.587 26.632V16.184C109.587 16.0667 109.619 15.976 109.683 15.912C109.747 15.8373 109.838 15.8 109.955 15.8H113.859C115.065 15.8 116.019 16.0827 116.723 16.648C117.427 17.2133 117.779 18.0507 117.779 19.16C117.779 19.9813 117.571 20.6533 117.155 21.176C116.75 21.688 116.195 22.0453 115.491 22.248L117.955 26.504C117.987 26.568 118.003 26.6267 118.003 26.68C118.003 26.7653 117.966 26.84 117.891 26.904C117.827 26.968 117.753 27 117.667 27H116.899C116.718 27 116.585 26.952 116.499 26.856C116.414 26.76 116.339 26.664 116.275 26.568L113.955 22.504H111.155V26.632C111.155 26.7387 111.118 26.8293 111.043 26.904C110.979 26.968 110.889 27 110.771 27H109.955ZM111.155 21.144H113.795C114.595 21.144 115.193 20.9787 115.587 20.648C115.982 20.3067 116.179 19.8053 116.179 19.144C116.179 18.4933 115.982 17.9973 115.587 17.656C115.203 17.3147 114.606 17.144 113.795 17.144H111.155V21.144Z"
    fill="white"/>
  <g clip-path="url(#clip0)">
    <path
      d="M29.5961 20.7064L35.9219 14.0644C36.3719 13.5919 36.3719 12.826 35.9219 12.3544C35.4719 11.8828 34.7424 11.8819 34.2933 12.3544L27.9676 18.9964L21.6419 12.3544C21.1919 11.8819 20.4624 11.8819 20.0133 12.3544C19.5641 12.8269 19.5633 13.5928 20.0133 14.0644L26.339 20.7064L20.0133 27.3484C19.5633 27.8209 19.5633 28.5868 20.0133 29.0584C20.2379 29.2942 20.5327 29.413 20.8276 29.413C21.1224 29.413 21.4173 29.2951 21.6419 29.0584L27.9676 22.4164L34.2933 29.0584C34.5179 29.2942 34.8127 29.413 35.1076 29.413C35.4024 29.413 35.6973 29.2951 35.9219 29.0584C36.3719 28.5859 36.3719 27.82 35.9219 27.3484L29.5961 20.7064Z"
      fill="white"/>
  </g>
  <defs>
    <clipPath id="clip0">
      <rect fill="white" height="18" transform="translate(19 11)" width="18"/>
    </clipPath>
  </defs>
</svg>
