<?xml version="1.0" encoding="UTF-8"?>
<svg height="27px" version="1.1" viewBox="0 0 31 27" width="31px" xmlns="http://www.w3.org/2000/svg">
  <title>building (1)</title>
  <g fill="none" fill-rule="evenodd" id="Symbols" stroke="none" stroke-width="1">
    <g fill="#22333B" fill-rule="nonzero" id="Navbar" transform="translate(-1057.000000, -25.000000)">
      <g id="building-(1)" transform="translate(1057.000000, 25.000000)">
        <path
          d="M30.4833333,26 L27.3833333,26 L27.3833333,7.5 C27.3833333,7.223875 27.1519958,7 26.8666667,7 L18.0833333,7 L18.0833333,0.5 C18.0833333,0.223875 17.8519958,0 17.5666667,0 L4.13333333,0 C3.84800417,0 3.61666667,0.223875 3.61666667,0.5 L3.61666667,26 L0.516666667,26 C0.2313375,26 0,26.223875 0,26.5 C0,26.776125 0.2313375,27 0.516666667,27 L30.4833333,27 C30.7686625,27 31,26.776125 31,26.5 C31,26.223875 30.7686625,26 30.4833333,26 Z M17.05,26 L4.65,26 L4.65,1 L17.05,1 L17.05,26 Z M26.35,26 L18.0833333,26 L18.0833333,8 L26.35,8 L26.35,26 Z"
          id="Shape"></path>
        <path
          d="M20.7163462,12.9130435 L23.3990385,12.9130435 C23.6459579,12.9130435 23.8461538,12.7159361 23.8461538,12.4728261 L23.8461538,9.83152174 C23.8461538,9.58841168 23.6459579,9.39130435 23.3990385,9.39130435 L20.7163462,9.39130435 C20.4694267,9.39130435 20.2692308,9.58841168 20.2692308,9.83152174 L20.2692308,12.4728261 C20.2692308,12.7159361 20.4694267,12.9130435 20.7163462,12.9130435 Z M21.1634615,10.2717391 L22.9519231,10.2717391 L22.9519231,12.0326087 L21.1634615,12.0326087 L21.1634615,10.2717391 Z"
          id="Shape"></path>
        <path
          d="M20.7163462,17.6086957 L23.3990385,17.6086957 C23.6459579,17.6086957 23.8461538,17.4115883 23.8461538,17.1684783 L23.8461538,14.5271739 C23.8461538,14.2840639 23.6459579,14.0869565 23.3990385,14.0869565 L20.7163462,14.0869565 C20.4694267,14.0869565 20.2692308,14.2840639 20.2692308,14.5271739 L20.2692308,17.1684783 C20.2692308,17.4115883 20.4694267,17.6086957 20.7163462,17.6086957 Z M21.1634615,14.9673913 L22.9519231,14.9673913 L22.9519231,16.7282609 L21.1634615,16.7282609 L21.1634615,14.9673913 Z"
          id="Shape"></path>
        <path
          d="M20.7163462,22.3043478 L23.3990385,22.3043478 C23.6459579,22.3043478 23.8461538,22.1072405 23.8461538,21.8641304 L23.8461538,19.2228261 C23.8461538,18.979716 23.6459579,18.7826087 23.3990385,18.7826087 L20.7163462,18.7826087 C20.4694267,18.7826087 20.2692308,18.979716 20.2692308,19.2228261 L20.2692308,21.8641304 C20.2692308,22.1072405 20.4694267,22.3043478 20.7163462,22.3043478 Z M21.1634615,19.6630435 L22.9519231,19.6630435 L22.9519231,21.423913 L21.1634615,21.423913 L21.1634615,19.6630435 Z"
          id="Shape"></path>
        <path
          d="M12.3701923,12.9130435 L15.0528846,12.9130435 C15.2998041,12.9130435 15.5,12.7159361 15.5,12.4728261 L15.5,9.83152174 C15.5,9.58841168 15.2998041,9.39130435 15.0528846,9.39130435 L12.3701923,9.39130435 C12.1232728,9.39130435 11.9230769,9.58841168 11.9230769,9.83152174 L11.9230769,12.4728261 C11.9230769,12.7159361 12.1232728,12.9130435 12.3701923,12.9130435 Z M12.8173077,10.2717391 L14.6057692,10.2717391 L14.6057692,12.0326087 L12.8173077,12.0326087 L12.8173077,10.2717391 Z"
          id="Shape"></path>
        <path
          d="M12.3701923,8.2173913 L15.0528846,8.2173913 C15.2998041,8.2173913 15.5,8.02028397 15.5,7.77717391 L15.5,5.13586957 C15.5,4.89275951 15.2998041,4.69565217 15.0528846,4.69565217 L12.3701923,4.69565217 C12.1232728,4.69565217 11.9230769,4.89275951 11.9230769,5.13586957 L11.9230769,7.77717391 C11.9230769,8.02028397 12.1232728,8.2173913 12.3701923,8.2173913 Z M12.8173077,5.57608696 L14.6057692,5.57608696 L14.6057692,7.33695652 L12.8173077,7.33695652 L12.8173077,5.57608696 Z"
          id="Shape"></path>
        <path
          d="M12.3701923,17.6086957 L15.0528846,17.6086957 C15.2998041,17.6086957 15.5,17.4115883 15.5,17.1684783 L15.5,14.5271739 C15.5,14.2840639 15.2998041,14.0869565 15.0528846,14.0869565 L12.3701923,14.0869565 C12.1232728,14.0869565 11.9230769,14.2840639 11.9230769,14.5271739 L11.9230769,17.1684783 C11.9230769,17.4115883 12.1232728,17.6086957 12.3701923,17.6086957 Z M12.8173077,14.9673913 L14.6057692,14.9673913 L14.6057692,16.7282609 L12.8173077,16.7282609 L12.8173077,14.9673913 Z"
          id="Shape"></path>
        <path
          d="M12.3701923,22.3043478 L15.0528846,22.3043478 C15.2998041,22.3043478 15.5,22.1072405 15.5,21.8641304 L15.5,19.2228261 C15.5,18.979716 15.2998041,18.7826087 15.0528846,18.7826087 L12.3701923,18.7826087 C12.1232728,18.7826087 11.9230769,18.979716 11.9230769,19.2228261 L11.9230769,21.8641304 C11.9230769,22.1072405 12.1232728,22.3043478 12.3701923,22.3043478 Z M12.8173077,19.6630435 L14.6057692,19.6630435 L14.6057692,21.423913 L12.8173077,21.423913 L12.8173077,19.6630435 Z"
          id="Shape"></path>
        <path
          d="M6.40865385,12.9130435 L9.09134615,12.9130435 C9.33826563,12.9130435 9.53846154,12.7159361 9.53846154,12.4728261 L9.53846154,9.83152174 C9.53846154,9.58841168 9.33826563,9.39130435 9.09134615,9.39130435 L6.40865385,9.39130435 C6.16173437,9.39130435 5.96153846,9.58841168 5.96153846,9.83152174 L5.96153846,12.4728261 C5.96153846,12.7159361 6.16173437,12.9130435 6.40865385,12.9130435 Z M6.85576923,10.2717391 L8.64423077,10.2717391 L8.64423077,12.0326087 L6.85576923,12.0326087 L6.85576923,10.2717391 Z"
          id="Shape"></path>
        <path
          d="M6.40865385,8.2173913 L9.09134615,8.2173913 C9.33826563,8.2173913 9.53846154,8.02028397 9.53846154,7.77717391 L9.53846154,5.13586957 C9.53846154,4.89275951 9.33826563,4.69565217 9.09134615,4.69565217 L6.40865385,4.69565217 C6.16173437,4.69565217 5.96153846,4.89275951 5.96153846,5.13586957 L5.96153846,7.77717391 C5.96153846,8.02028397 6.16173437,8.2173913 6.40865385,8.2173913 Z M6.85576923,5.57608696 L8.64423077,5.57608696 L8.64423077,7.33695652 L6.85576923,7.33695652 L6.85576923,5.57608696 Z"
          id="Shape"></path>
        <path
          d="M6.40865385,17.6086957 L9.09134615,17.6086957 C9.33826563,17.6086957 9.53846154,17.4115883 9.53846154,17.1684783 L9.53846154,14.5271739 C9.53846154,14.2840639 9.33826563,14.0869565 9.09134615,14.0869565 L6.40865385,14.0869565 C6.16173437,14.0869565 5.96153846,14.2840639 5.96153846,14.5271739 L5.96153846,17.1684783 C5.96153846,17.4115883 6.16173437,17.6086957 6.40865385,17.6086957 Z M6.85576923,14.9673913 L8.64423077,14.9673913 L8.64423077,16.7282609 L6.85576923,16.7282609 L6.85576923,14.9673913 Z"
          id="Shape"></path>
        <path
          d="M6.40865385,22.3043478 L9.09134615,22.3043478 C9.33826563,22.3043478 9.53846154,22.1072405 9.53846154,21.8641304 L9.53846154,19.2228261 C9.53846154,18.979716 9.33826563,18.7826087 9.09134615,18.7826087 L6.40865385,18.7826087 C6.16173437,18.7826087 5.96153846,18.979716 5.96153846,19.2228261 L5.96153846,21.8641304 C5.96153846,22.1072405 6.16173437,22.3043478 6.40865385,22.3043478 Z M6.85576923,19.6630435 L8.64423077,19.6630435 L8.64423077,21.423913 L6.85576923,21.423913 L6.85576923,19.6630435 Z"
          id="Shape"></path>
      </g>
    </g>
  </g>
</svg>
