<?xml version="1.0" encoding="UTF-8"?>
<svg height="32px" version="1.1" viewBox="0 0 32 32" width="32px" xmlns="http://www.w3.org/2000/svg">
  <title>circle-arrow-left</title>
  <g fill="none" fill-rule="evenodd" id="Prototype_CDE" stroke="none" stroke-width="1">
    <g fill="#FFFFFF" fill-rule="nonzero" id="Listedesinscrits" transform="translate(-160.000000, -94.000000)">
      <g id="circle-arrow-left" transform="translate(160.650000, 94.650000)">
        <path
          d="M15.35,30.7 C6.886,30.7 0,23.814 0,15.35 C0,6.886 6.886,0 15.35,0 C23.814,0 30.7,6.886 30.7,15.35 C30.7,23.814 23.814,30.7 15.35,30.7 Z M15.35,1.825 C7.892,1.825 1.825,7.892 1.825,15.35 C1.825,22.808 7.892,28.875 15.35,28.875 C22.808,28.875 28.875,22.808 28.875,15.35 C28.875,7.892 22.808,1.825 15.35,1.825 Z"
          id="Shape"></path>
        <path
          d="M12.725,20.2 C12.481,20.2 12.252,20.105 12.08,19.933 L8.141,15.994 C7.786,15.639 7.786,15.06 8.141,14.704 L12.079,10.766 C12.251,10.594 12.48,10.499 12.724,10.499 C12.968,10.499 13.197,10.594 13.369,10.766 C13.541,10.939 13.637,11.168 13.637,11.412 C13.637,11.656 13.542,11.885 13.369,12.058 L10.359,15.068 C10.203,15.224 10.203,15.477 10.359,15.633 L13.368,18.643 C13.724,18.998 13.723,19.578 13.368,19.934 C13.197,20.104 12.968,20.199 12.725,20.2 L12.725,20.2 L12.725,20.2 Z"
          id="Shape"></path>
        <path
          d="M8.788,16.262 C8.285,16.262 7.875,15.853 7.875,15.35 C7.875,14.847 8.285,14.437 8.788,14.437 L21.913,14.437 C22.416,14.437 22.825,14.847 22.825,15.35 C22.825,15.853 22.416,16.262 21.913,16.262 L8.788,16.262 Z"
          id="Shape"></path>
      </g>
    </g>
  </g>
</svg>
