<svg width="32" height="31" viewBox="0 0 32 31" fill="none" xmlns="http://www.w3.org/2000/svg"
    style="transform: rotate(180deg); transform-origin: 50% 50%;">
    <g id="circle-arrow-left">
        <path id="Shape" fill-rule="evenodd" clip-rule="evenodd"
            d="M31.3496 15.35C31.3496 23.814 24.4636 30.7 15.9996 30.7C7.53561 30.7 0.649609 23.814 0.649609 15.35C0.649609 6.886 7.53561 0 15.9996 0C24.4636 0 31.3496 6.886 31.3496 15.35ZM29.5246 15.35C29.5246 7.892 23.4576 1.825 15.9996 1.825C8.54161 1.825 2.47461 7.892 2.47461 15.35C2.47461 22.808 8.54161 28.875 15.9996 28.875C23.4576 28.875 29.5246 22.808 29.5246 15.35Z"
            fill="#1B2B67" />
        <path id="Shape_2"
            d="M18.6244 20.2C18.8684 20.2 19.0974 20.105 19.2694 19.933L23.2084 15.994C23.5634 15.639 23.5634 15.06 23.2084 14.704L19.2704 10.766C19.0984 10.594 18.8694 10.499 18.6254 10.499C18.3814 10.499 18.1524 10.594 17.9804 10.766C17.8084 10.939 17.7124 11.168 17.7124 11.412C17.7124 11.656 17.8074 11.885 17.9804 12.058L20.9904 15.068C21.1464 15.224 21.1464 15.477 20.9904 15.633L17.9814 18.643C17.6254 18.998 17.6264 19.578 17.9814 19.934C18.1524 20.104 18.3814 20.199 18.6244 20.2Z"
            fill="#1B2B67" />
        <path id="Shape_3"
            d="M22.5616 16.2615C23.0646 16.2615 23.4746 15.8525 23.4746 15.3495C23.4746 14.8465 23.0646 14.4365 22.5616 14.4365H9.43661C8.93361 14.4365 8.52461 14.8465 8.52461 15.3495C8.52461 15.8525 8.93361 16.2615 9.43661 16.2615H22.5616Z"
            fill="#1B2B67" />
    </g>
</svg>