<svg width="12" height="12" viewBox="0 0 12 12" fill="none" xmlns="http://www.w3.org/2000/svg">
<path d="M11.6267 9.82635C12.1244 10.3244 12.1244 11.129 11.6267 11.627C11.3784 11.8753 11.0524 12 10.7263 12C10.4003 12 10.0744 11.8753 9.82611 11.627L6 7.80052L2.17389 11.627C1.92559 11.8753 1.59965 12 1.27372 12C0.947552 12 0.621618 11.8753 0.373321 11.627C-0.12444 11.129 -0.12444 10.3244 0.373321 9.82635L4.19967 6.00015L0.373321 2.17394C-0.12444 1.67593 -0.12444 0.871336 0.373321 0.37333C0.871315 -0.124443 1.67589 -0.124443 2.17389 0.37333L6 4.19977L9.82611 0.37333C10.3241 -0.124443 11.1287 -0.124443 11.6267 0.37333C12.1244 0.871336 12.1244 1.67593 11.6267 2.17394L7.80033 6.00015L11.6267 9.82635Z" fill="#FAFAFA"/>
</svg>
