<svg fill="none" height="48" viewBox="0 0 179 48" width="179" xmlns="http://www.w3.org/2000/svg">
  <g filter="url(#filter0_d)">
    <rect fill="#4833E3" height="40" rx="4" width="171" x="4" y="2"/>
  </g>
  <path
    d="M51.7991 27C51.6817 27 51.5911 26.968 51.5271 26.904C51.4631 26.8293 51.4311 26.7387 51.4311 26.632V16.184C51.4311 16.0667 51.4631 15.976 51.5271 15.912C51.5911 15.8373 51.6817 15.8 51.7991 15.8H58.4071C58.5244 15.8 58.6151 15.8373 58.6791 15.912C58.7431 15.976 58.7751 16.0667 58.7751 16.184V16.792C58.7751 16.9093 58.7431 17 58.6791 17.064C58.6151 17.128 58.5244 17.16 58.4071 17.16H52.9671V20.664H58.0551C58.1724 20.664 58.2631 20.7013 58.3271 20.776C58.3911 20.84 58.4231 20.9307 58.4231 21.048V21.64C58.4231 21.7467 58.3911 21.8373 58.3271 21.912C58.2631 21.976 58.1724 22.008 58.0551 22.008H52.9671V25.64H58.5351C58.6524 25.64 58.7431 25.672 58.8071 25.736C58.8711 25.8 58.9031 25.8907 58.9031 26.008V26.632C58.9031 26.7387 58.8711 26.8293 58.8071 26.904C58.7431 26.968 58.6524 27 58.5351 27H51.7991ZM61.5022 27C61.3849 27 61.2942 26.968 61.2302 26.904C61.1662 26.8293 61.1342 26.7387 61.1342 26.632V16.184C61.1342 16.0667 61.1662 15.976 61.2302 15.912C61.2942 15.8373 61.3849 15.8 61.5022 15.8H62.2382C62.3662 15.8 62.4622 15.832 62.5262 15.896C62.5902 15.9493 62.6275 15.992 62.6382 16.024L67.9502 24.184V16.184C67.9502 16.0667 67.9822 15.976 68.0462 15.912C68.1102 15.8373 68.2009 15.8 68.3182 15.8H69.0862C69.2035 15.8 69.2942 15.8373 69.3582 15.912C69.4329 15.976 69.4702 16.0667 69.4702 16.184V26.616C69.4702 26.7227 69.4329 26.8133 69.3582 26.888C69.2942 26.9627 69.2089 27 69.1022 27H68.3342C68.2169 27 68.1262 26.968 68.0622 26.904C68.0089 26.84 67.9715 26.7973 67.9502 26.776L62.6542 18.696V26.632C62.6542 26.7387 62.6169 26.8293 62.5422 26.904C62.4782 26.968 62.3875 27 62.2702 27H61.5022ZM72.6116 27C72.4942 27 72.4036 26.968 72.3396 26.904C72.2756 26.8293 72.2436 26.7387 72.2436 26.632V16.184C72.2436 16.0667 72.2756 15.976 72.3396 15.912C72.4036 15.8373 72.4942 15.8 72.6116 15.8H76.5156C77.7209 15.8 78.6756 16.0827 79.3796 16.648C80.0836 17.2133 80.4356 18.0507 80.4356 19.16C80.4356 19.9813 80.2276 20.6533 79.8116 21.176C79.4062 21.688 78.8516 22.0453 78.1476 22.248L80.6116 26.504C80.6436 26.568 80.6596 26.6267 80.6596 26.68C80.6596 26.7653 80.6222 26.84 80.5476 26.904C80.4836 26.968 80.4089 27 80.3236 27H79.5556C79.3742 27 79.2409 26.952 79.1556 26.856C79.0702 26.76 78.9956 26.664 78.9316 26.568L76.6116 22.504H73.8116V26.632C73.8116 26.7387 73.7742 26.8293 73.6996 26.904C73.6356 26.968 73.5449 27 73.4276 27H72.6116ZM73.8116 21.144H76.4516C77.2516 21.144 77.8489 20.9787 78.2436 20.648C78.6382 20.3067 78.8356 19.8053 78.8356 19.144C78.8356 18.4933 78.6382 17.9973 78.2436 17.656C77.8596 17.3147 77.2622 17.144 76.4516 17.144H73.8116V21.144ZM83.0959 27C82.9786 27 82.8879 26.968 82.8239 26.904C82.7599 26.8293 82.7279 26.7387 82.7279 26.632V16.184C82.7279 16.0667 82.7599 15.976 82.8239 15.912C82.8879 15.8373 82.9786 15.8 83.0959 15.8H89.7039C89.8213 15.8 89.9119 15.8373 89.9759 15.912C90.0399 15.976 90.0719 16.0667 90.0719 16.184V16.792C90.0719 16.9093 90.0399 17 89.9759 17.064C89.9119 17.128 89.8213 17.16 89.7039 17.16H84.2639V20.664H89.3519C89.4693 20.664 89.5599 20.7013 89.6239 20.776C89.6879 20.84 89.7199 20.9307 89.7199 21.048V21.64C89.7199 21.7467 89.6879 21.8373 89.6239 21.912C89.5599 21.976 89.4693 22.008 89.3519 22.008H84.2639V25.64H89.8319C89.9493 25.64 90.0399 25.672 90.1039 25.736C90.1679 25.8 90.1999 25.8907 90.1999 26.008V26.632C90.1999 26.7387 90.1679 26.8293 90.1039 26.904C90.0399 26.968 89.9493 27 89.8319 27H83.0959ZM96.3857 27.16C95.447 27.16 94.647 26.984 93.9857 26.632C93.335 26.28 92.8337 25.784 92.4817 25.144C92.1404 24.504 91.9484 23.752 91.9057 22.888C91.895 22.4187 91.8897 21.9227 91.8897 21.4C91.8897 20.8667 91.895 20.36 91.9057 19.88C91.9484 19.016 92.1404 18.2693 92.4817 17.64C92.8337 17.0107 93.3404 16.52 94.0017 16.168C94.663 15.816 95.4577 15.64 96.3857 15.64C97.143 15.64 97.799 15.7467 98.3537 15.96C98.9084 16.1733 99.3617 16.4453 99.7137 16.776C100.076 17.096 100.343 17.432 100.514 17.784C100.695 18.136 100.791 18.4453 100.802 18.712C100.812 18.808 100.786 18.888 100.722 18.952C100.658 19.0053 100.572 19.032 100.466 19.032H99.5217C99.415 19.032 99.335 19.0107 99.2817 18.968C99.239 18.9253 99.1964 18.8507 99.1537 18.744C99.0577 18.4667 98.8977 18.1947 98.6737 17.928C98.4604 17.6613 98.167 17.4427 97.7937 17.272C97.431 17.0907 96.9617 17 96.3857 17C95.543 17 94.8604 17.2293 94.3377 17.688C93.8257 18.1467 93.5484 18.904 93.5057 19.96C93.4737 20.9093 93.4737 21.8587 93.5057 22.808C93.5484 23.8747 93.831 24.6427 94.3537 25.112C94.8764 25.5707 95.559 25.8 96.4017 25.8C96.967 25.8 97.4684 25.6987 97.9057 25.496C98.3537 25.2827 98.7057 24.9573 98.9617 24.52C99.2177 24.0827 99.3457 23.528 99.3457 22.856V22.184H96.9457C96.839 22.184 96.7484 22.152 96.6737 22.088C96.6097 22.0133 96.5777 21.9173 96.5777 21.8V21.288C96.5777 21.1707 96.6097 21.08 96.6737 21.016C96.7484 20.9413 96.839 20.904 96.9457 20.904H100.562C100.679 20.904 100.77 20.9413 100.834 21.016C100.898 21.08 100.93 21.1707 100.93 21.288V22.824C100.93 23.6987 100.748 24.4613 100.386 25.112C100.034 25.7627 99.5164 26.2693 98.8337 26.632C98.151 26.984 97.335 27.16 96.3857 27.16ZM103.58 27C103.463 27 103.372 26.968 103.308 26.904C103.244 26.8293 103.212 26.7387 103.212 26.632V16.168C103.212 16.0613 103.244 15.976 103.308 15.912C103.372 15.8373 103.463 15.8 103.58 15.8H104.428C104.535 15.8 104.62 15.8373 104.684 15.912C104.759 15.976 104.796 16.0613 104.796 16.168V26.632C104.796 26.7387 104.759 26.8293 104.684 26.904C104.62 26.968 104.535 27 104.428 27H103.58ZM111.187 27.16C110.259 27.16 109.481 27.0213 108.851 26.744C108.222 26.456 107.737 26.088 107.395 25.64C107.065 25.1813 106.889 24.696 106.867 24.184C106.867 24.0987 106.899 24.024 106.963 23.96C107.038 23.8853 107.123 23.848 107.219 23.848H108.035C108.163 23.848 108.259 23.88 108.323 23.944C108.387 24.008 108.43 24.0827 108.451 24.168C108.505 24.424 108.633 24.68 108.835 24.936C109.049 25.1813 109.342 25.3893 109.715 25.56C110.099 25.72 110.59 25.8 111.187 25.8C112.105 25.8 112.777 25.64 113.203 25.32C113.641 24.9893 113.859 24.552 113.859 24.008C113.859 23.6347 113.742 23.336 113.507 23.112C113.283 22.8773 112.937 22.6693 112.467 22.488C111.998 22.3067 111.39 22.1093 110.643 21.896C109.865 21.672 109.219 21.4267 108.707 21.16C108.195 20.8933 107.811 20.5627 107.555 20.168C107.31 19.7733 107.187 19.272 107.187 18.664C107.187 18.088 107.342 17.576 107.651 17.128C107.961 16.6693 108.403 16.3067 108.979 16.04C109.566 15.7733 110.275 15.64 111.107 15.64C111.769 15.64 112.345 15.7307 112.835 15.912C113.337 16.0827 113.753 16.3173 114.083 16.616C114.414 16.904 114.665 17.2187 114.835 17.56C115.006 17.8907 115.097 18.216 115.107 18.536C115.107 18.6107 115.081 18.6853 115.027 18.76C114.974 18.824 114.889 18.856 114.771 18.856H113.923C113.849 18.856 113.769 18.8347 113.683 18.792C113.609 18.7493 113.55 18.6693 113.507 18.552C113.443 18.1147 113.198 17.7467 112.771 17.448C112.345 17.1493 111.79 17 111.107 17C110.414 17 109.849 17.1333 109.411 17.4C108.985 17.6667 108.771 18.0827 108.771 18.648C108.771 19.0107 108.873 19.3147 109.075 19.56C109.278 19.7947 109.598 20.0027 110.035 20.184C110.473 20.3653 111.043 20.5573 111.747 20.76C112.601 20.9947 113.299 21.2453 113.843 21.512C114.387 21.768 114.787 22.0933 115.043 22.488C115.31 22.872 115.443 23.368 115.443 23.976C115.443 24.648 115.267 25.224 114.915 25.704C114.563 26.1733 114.067 26.536 113.427 26.792C112.798 27.0373 112.051 27.16 111.187 27.16ZM120.231 27C120.125 27 120.034 26.968 119.959 26.904C119.895 26.8293 119.863 26.7387 119.863 26.632V17.224H116.791C116.685 17.224 116.594 17.192 116.519 17.128C116.455 17.0533 116.423 16.9627 116.423 16.856V16.184C116.423 16.0667 116.455 15.976 116.519 15.912C116.594 15.8373 116.685 15.8 116.791 15.8H124.503C124.621 15.8 124.711 15.8373 124.775 15.912C124.85 15.976 124.887 16.0667 124.887 16.184V16.856C124.887 16.9627 124.85 17.0533 124.775 17.128C124.711 17.192 124.621 17.224 124.503 17.224H121.447V26.632C121.447 26.7387 121.41 26.8293 121.335 26.904C121.271 26.968 121.181 27 121.063 27H120.231ZM127.049 27C126.932 27 126.841 26.968 126.777 26.904C126.713 26.8293 126.681 26.7387 126.681 26.632V16.184C126.681 16.0667 126.713 15.976 126.777 15.912C126.841 15.8373 126.932 15.8 127.049 15.8H130.953C132.158 15.8 133.113 16.0827 133.817 16.648C134.521 17.2133 134.873 18.0507 134.873 19.16C134.873 19.9813 134.665 20.6533 134.249 21.176C133.844 21.688 133.289 22.0453 132.585 22.248L135.049 26.504C135.081 26.568 135.097 26.6267 135.097 26.68C135.097 26.7653 135.06 26.84 134.985 26.904C134.921 26.968 134.846 27 134.761 27H133.993C133.812 27 133.678 26.952 133.593 26.856C133.508 26.76 133.433 26.664 133.369 26.568L131.049 22.504H128.249V26.632C128.249 26.7387 128.212 26.8293 128.137 26.904C128.073 26.968 127.982 27 127.865 27H127.049ZM128.249 21.144H130.889C131.689 21.144 132.286 20.9787 132.681 20.648C133.076 20.3067 133.273 19.8053 133.273 19.144C133.273 18.4933 133.076 17.9973 132.681 17.656C132.297 17.3147 131.7 17.144 130.889 17.144H128.249V21.144ZM137.533 27C137.416 27 137.325 26.968 137.261 26.904C137.197 26.8293 137.165 26.7387 137.165 26.632V16.184C137.165 16.0667 137.197 15.976 137.261 15.912C137.325 15.8373 137.416 15.8 137.533 15.8H144.141C144.259 15.8 144.349 15.8373 144.413 15.912C144.477 15.976 144.509 16.0667 144.509 16.184V16.792C144.509 16.9093 144.477 17 144.413 17.064C144.349 17.128 144.259 17.16 144.141 17.16H138.701V20.664H143.789C143.907 20.664 143.997 20.7013 144.061 20.776C144.125 20.84 144.157 20.9307 144.157 21.048V21.64C144.157 21.7467 144.125 21.8373 144.061 21.912C143.997 21.976 143.907 22.008 143.789 22.008H138.701V25.64H144.269C144.387 25.64 144.477 25.672 144.541 25.736C144.605 25.8 144.637 25.8907 144.637 26.008V26.632C144.637 26.7387 144.605 26.8293 144.541 26.904C144.477 26.968 144.387 27 144.269 27H137.533ZM147.237 27C147.119 27 147.029 26.968 146.965 26.904C146.901 26.8293 146.869 26.7387 146.869 26.632V16.184C146.869 16.0667 146.901 15.976 146.965 15.912C147.029 15.8373 147.119 15.8 147.237 15.8H151.141C152.346 15.8 153.301 16.0827 154.005 16.648C154.709 17.2133 155.061 18.0507 155.061 19.16C155.061 19.9813 154.853 20.6533 154.437 21.176C154.031 21.688 153.477 22.0453 152.773 22.248L155.237 26.504C155.269 26.568 155.285 26.6267 155.285 26.68C155.285 26.7653 155.247 26.84 155.173 26.904C155.109 26.968 155.034 27 154.949 27H154.181C153.999 27 153.866 26.952 153.781 26.856C153.695 26.76 153.621 26.664 153.557 26.568L151.237 22.504H148.437V26.632C148.437 26.7387 148.399 26.8293 148.325 26.904C148.261 26.968 148.17 27 148.053 27H147.237ZM148.437 21.144H151.077C151.877 21.144 152.474 20.9787 152.869 20.648C153.263 20.3067 153.461 19.8053 153.461 19.144C153.461 18.4933 153.263 17.9973 152.869 17.656C152.485 17.3147 151.887 17.144 151.077 17.144H148.437V21.144Z"
    fill="white"/>
  <path
    d="M22.4468 29.0079C21.6487 29.0079 21 28.3599 21 27.5625V17.2896C21 16.4922 21.6487 15.8435 22.4468 15.8435H26.7237C27.0501 15.8435 27.3157 16.1084 27.3157 16.4348C27.3157 16.7611 27.0501 17.0267 26.7237 17.0267H22.4468C22.3008 17.0267 22.1825 17.145 22.1825 17.291V27.5638C22.1825 27.7098 22.3008 27.828 22.4468 27.828H39.5545C39.7005 27.828 39.8188 27.7091 39.8188 27.5638V17.291C39.8188 17.145 39.6999 17.0267 39.5545 17.0267H35.2776C34.9519 17.0267 34.6863 16.7611 34.6863 16.4348C34.6863 16.1084 34.9512 15.8435 35.2776 15.8435H39.5545C40.3519 15.8435 41 16.4922 41 17.2896V27.5625C41 28.3599 40.3519 29.0079 39.5545 29.0079H22.4468Z"
    fill="white"/>
  <path
    d="M30.9346 23.8642C30.9346 23.8642 30.8328 23.8438 30.8216 23.8405C30.8084 23.8352 30.7701 23.8206 30.7615 23.818C30.7423 23.8028 30.7238 23.7975 30.7014 23.7883C30.7007 23.7876 30.6274 23.7374 30.6129 23.7295C30.6135 23.7301 30.6142 23.7301 30.6148 23.7301C30.6201 23.7301 30.599 23.711 30.5792 23.6905L27.1611 20.2724C27.0494 20.1607 26.9873 20.0121 26.9873 19.8542C26.9873 19.697 27.0487 19.5483 27.1611 19.4367C27.1663 19.4307 27.1723 19.4248 27.1769 19.4195C27.2866 19.3184 27.4273 19.2636 27.5766 19.2636C27.7345 19.2636 27.8825 19.325 27.9948 19.4373L29.9562 21.3988C30.0071 21.449 30.0744 21.4761 30.1431 21.4761C30.1775 21.4761 30.2119 21.4688 30.2442 21.4556C30.3427 21.4146 30.4074 21.3188 30.4074 21.2118V9.59127C30.4074 9.26491 30.6723 9 30.9987 9C31.325 9 31.5899 9.26491 31.5899 9.59127V21.2118C31.5899 21.3188 31.6547 21.4153 31.7531 21.4556C31.7861 21.4694 31.8205 21.4761 31.8542 21.4761C31.9229 21.4761 31.9903 21.449 32.0411 21.3988L34.0026 19.4373C34.1142 19.3257 34.2629 19.2636 34.4207 19.2636C34.578 19.2636 34.7266 19.325 34.8383 19.4373C34.9506 19.549 35.0127 19.6976 35.0127 19.8549C35.0127 20.0121 34.9506 20.1614 34.8389 20.273L31.4208 23.6905L31.368 23.7387C31.364 23.7414 31.3171 23.7751 31.3131 23.7777L31.2444 23.816C31.2305 23.8193 31.1903 23.8358 31.177 23.8418C31.1559 23.8418 31.1255 23.8543 31.105 23.859C31.0971 23.859 31 23.8689 31 23.8689L30.9346 23.8642Z"
    fill="white"/>
  <defs>
    <filter color-interpolation-filters="sRGB" filterUnits="userSpaceOnUse" height="48" id="filter0_d" width="179" x="0"
            y="0">
      <feFlood flood-opacity="0" result="BackgroundImageFix"/>
      <feColorMatrix in="SourceAlpha" result="hardAlpha" type="matrix"
                     values="0 0 0 0 0 0 0 0 0 0 0 0 0 0 0 0 0 0 127 0"/>
      <feOffset dy="2"/>
      <feGaussianBlur stdDeviation="2"/>
      <feColorMatrix type="matrix" values="0 0 0 0 0.305882 0 0 0 0 0.141176 0 0 0 0 0.737255 0 0 0 0.4 0"/>
      <feBlend in2="BackgroundImageFix" mode="normal" result="effect1_dropShadow"/>
      <feBlend in="SourceGraphic" in2="effect1_dropShadow" mode="normal" result="shape"/>
    </filter>
  </defs>
</svg>
