<?xml version="1.0" encoding="UTF-8"?>
<svg height="23px" version="1.1" viewBox="0 0 22 23" width="22px" xmlns="http://www.w3.org/2000/svg">
  <title>deconnexion</title>
  <g fill="none" fill-rule="evenodd" id="Symbols" stroke="none" stroke-width="1">
    <g fill="#22333B" fill-rule="nonzero" id="Navbar" transform="translate(-1235.000000, -26.000000)">
      <g id="deconnexion" transform="translate(1235.000000, 26.000000)">
        <path
          d="M11.5,14 C10.6715729,14 10,13.3731986 10,12.6 L10,1.4 C10,0.62680135 10.6715729,0 11.5,0 C12.3284271,0 13,0.62680135 13,1.4 L13,12.6 C13,13.3731986 12.3284271,14 11.5,14 Z"
          id="Path"></path>
        <path
          d="M11,23 C6.19336666,22.9947387 1.9455958,19.9228675 0.506158453,15.4111422 C-0.933278895,10.8994169 0.768263516,5.99047289 4.70970828,3.28391545 C5.11186119,2.9772218 5.65319472,2.9138149 6.1173011,3.11904278 C6.58140749,3.32427067 6.89256723,3.76465018 6.92638865,4.26413174 C6.96021008,4.76361328 6.71117519,5.24070587 6.27884013,5.50468322 C3.31855453,7.53381397 2.03982904,11.2186113 3.12075676,14.6050703 C4.2016845,17.9915295 7.39203386,20.295695 11,20.295695 C14.6079661,20.295695 17.7983155,17.9915295 18.8792433,14.6050703 C19.960171,11.2186113 18.6814455,7.53381397 15.7211599,5.50468322 C15.1423241,5.06324595 15.016227,4.25318831 15.4342521,3.66156387 C15.8522774,3.06993944 16.6680134,2.90396158 17.2902917,3.28391545 C21.2317365,5.99047289 22.9332789,10.8994169 21.4938416,15.4111422 C20.0544042,19.9228675 15.8066334,22.9947387 11,23 Z"
          id="Path"></path>
      </g>
    </g>
  </g>
</svg>
