<?xml version="1.0" encoding="UTF-8"?>
<svg height="19px" version="1.1" viewBox="0 0 18 19" width="18px" xmlns="http://www.w3.org/2000/svg">
  <title>delete</title>
  <g fill="none" fill-rule="evenodd" id="Prototype_CDE" stroke="none" stroke-width="1">
    <g fill="#4833E3" fill-rule="nonzero" id="Liste_des_événements" transform="translate(-1046.000000, -822.000000)">
      <g id="more_actions" transform="translate(1016.000000, 651.000000)">
        <g id="delete" transform="translate(30.000000, 171.000000)">
          <path
            d="M14.3983346,3 L13.1340821,17.3936462 L3.86560806,17.3936462 L2.60162665,3 L1,3.14027009 L2.28706429,17.7949541 C2.35480248,18.4704175 2.94140201,19 3.6228505,19 L13.3768784,19 C14.0580558,19 14.6448877,18.4706884 14.713749,17.785319 L16,3.14027009 L14.3983346,3 Z"
            id="Path"></path>
          <path
            d="M12.4375621,0 L5.56252823,0 C4.70093585,0 4,0.464061799 4,1.03448791 L4,3 L5.87498871,3 L5.87498871,1.24135559 L12.1250113,1.24135559 L12.1250113,3 L14,3 L14,1.03445801 C14,0.464061799 13.2991545,0 12.4375621,0 Z"
            id="Path"></path>
          <path
            d="M17.2285263,3 L0.771436535,3 C0.345338358,3 0,3.22382811 0,3.5 C0,3.77617189 0.345338358,4 0.771436535,4 L17.2285635,4 C17.6546616,4 18,3.77617189 18,3.5 C18,3.22382811 17.6546245,3 17.2285263,3 Z"
            id="Path"></path>
        </g>
      </g>
    </g>
  </g>
</svg>
