<?xml version="1.0" encoding="UTF-8"?>
<svg height="22px" version="1.1" viewBox="0 0 26 22" width="26px" xmlns="http://www.w3.org/2000/svg">
  <title>desktop-screen</title>
  <g fill="none" fill-rule="evenodd" id="Prototype_CDE" stroke="none" stroke-width="1">
    <g fill="#4833E3" fill-rule="nonzero" id="Listedesinscrits" transform="translate(-859.000000, -202.000000)">
      <g id="desktop-screen" transform="translate(859.000000, 202.000000)">
        <path
          d="M25.448,0.976 C25.768,1.296 25.928,1.675 25.928,2.112 L25.928,15.848 C25.928,16.286 25.768,16.664 25.448,16.984 C25.128,17.304 24.749,17.464 24.312,17.464 L13.808,17.464 L13.808,19.888 L17.848,19.888 C18.084,19.888 18.277,19.964 18.429,20.115 C18.581,20.266 18.656,20.46 18.656,20.696 C18.656,20.932 18.58,21.125 18.429,21.277 C18.278,21.428 18.084,21.504 17.848,21.504 L8.152,21.504 C7.916,21.504 7.723,21.428 7.571,21.277 C7.419,21.126 7.344,20.932 7.344,20.696 C7.344,20.46 7.42,20.267 7.571,20.115 C7.723,19.964 7.916,19.888 8.152,19.888 L12.192,19.888 L12.192,17.464 L1.688,17.464 C1.25,17.464 0.872,17.304 0.552,16.984 C0.232,16.664 0.072,16.285 0.072,15.848 L0.072,2.112 C0.072,1.674 0.232,1.296 0.552,0.976 C0.872,0.656 1.251,0.496 1.688,0.496 L24.312,0.496 C24.75,0.496 25.128,0.656 25.448,0.976 Z M24.312,2.112 L1.688,2.112 L1.688,15.848 L24.312,15.848 L24.312,2.112 Z"
          id="Shape"></path>
      </g>
    </g>
  </g>
</svg>
