<?xml version="1.0" encoding="UTF-8"?>
<svg height="20px" version="1.1" viewBox="0 0 20 20" width="20px" xmlns="http://www.w3.org/2000/svg">
  <title>Editer</title>
  <g fill="none" fill-rule="evenodd" id="Prototype_CDE" stroke="none" stroke-width="1">
    <g fill="#4833E3" fill-rule="nonzero" id="Liste_des_événements" transform="translate(-1046.000000, -775.000000)">
      <g id="more_actions" transform="translate(1016.000000, 651.000000)">
        <g id="Editer" transform="translate(30.000000, 124.000000)">
          <path
            d="M0.568473229,19.13 C0.415973229,19.13 0.273473229,19.07125 0.167223229,18.964375 C0.00347322858,18.800625 -0.0446517714,18.55875 0.0434732286,18.345625 C0.0434732286,18.345625 1.86659823,13.955625 1.87659823,13.9275 L1.87222323,13.945 C1.89909823,13.895 1.93284823,13.85 1.97659823,13.806875 L15.0909732,0.69125 C15.5384732,0.245625 16.1328482,0 16.7665982,0 C17.4003482,0 17.9940982,0.245625 18.4409732,0.69125 C19.3634732,1.613125 19.3634732,3.115 18.4403482,4.03875 C18.4347232,4.044375 5.32909823,17.14875 5.32909823,17.14875 C5.29972323,17.179375 5.27222323,17.203125 5.24222323,17.22375 C5.23597323,17.2275 5.13597323,17.2825 5.13472323,17.283125 L0.785973229,19.0875 C0.716598229,19.115 0.642848229,19.13 0.568473229,19.13 Z M2.61159823,15.41125 C2.52972323,15.4275 2.46097323,15.48375 2.42909823,15.560625 L1.85159823,16.9525 C1.81284823,17.045625 1.83409823,17.153125 1.90597323,17.225625 C1.95347323,17.273125 2.01784823,17.29875 2.08284823,17.29875 C2.11534823,17.29875 2.14784823,17.291875 2.17847323,17.279375 L3.57034823,16.701875 C3.64784823,16.67 3.70347323,16.601875 3.71972323,16.52 C3.73597323,16.438125 3.71034823,16.353125 3.65159823,16.294375 L2.83722323,15.48 C2.78972323,15.433125 2.72597323,15.406875 2.66034823,15.406875 C2.64347323,15.406875 2.62722323,15.408125 2.61159823,15.41125 L2.61159823,15.41125 Z M14.2222232,3.273125 C14.1559732,3.273125 14.0922232,3.299375 14.0453482,3.34625 L3.35347323,14.035625 C3.30659823,14.0825 3.28034823,14.14625 3.28034823,14.2125 C3.28034823,14.27875 3.30659823,14.3425 3.35347323,14.389375 L4.74159823,15.778125 C4.78847323,15.824375 4.85222323,15.85125 4.91847323,15.85125 L4.91847323,15.85125 C4.98472323,15.85125 5.04847323,15.824375 5.09534823,15.778125 L15.7859732,5.088125 C15.8834732,4.990625 15.8834732,4.8325 15.7859732,4.735 L14.3984732,3.346875 C14.3515982,3.299375 14.2884732,3.273125 14.2222232,3.273125 L14.2222232,3.273125 L14.2222232,3.273125 Z M16.7653482,1.135 C16.4365982,1.135 16.1272232,1.263125 15.8940982,1.495625 C15.8878482,1.501875 15.2009732,2.19 15.2009732,2.19 C15.1034732,2.2875 15.1034732,2.445625 15.2009732,2.543125 L16.5890982,3.93125 C16.6359732,3.978125 16.6997232,4.004375 16.7659732,4.004375 C16.8322232,4.004375 16.8959732,3.978125 16.9428482,3.93125 C16.9428482,3.93125 17.6072232,3.270625 17.6172232,3.25875 C18.1172232,2.75625 18.1172232,1.974375 17.6372232,1.49375 C17.6303482,1.488125 17.6234732,1.48125 17.6159732,1.475 C17.3853482,1.255625 17.0840982,1.135 16.7653482,1.135 L16.7653482,1.135 Z"
            id="Shape"></path>
        </g>
      </g>
    </g>
  </g>
</svg>
