<?xml version="1.0" encoding="UTF-8"?>
<svg height="21px" version="1.1" viewBox="0 0 20 21" width="20px" xmlns="http://www.w3.org/2000/svg">
  <title>Exporter</title>
  <g fill="none" fill-rule="evenodd" id="Prototype_CDE" stroke="none" stroke-width="1">
    <g fill="#4833E3" fill-rule="nonzero" id="Liste_des_événements" transform="translate(-1046.000000, -729.000000)">
      <g id="more_actions" transform="translate(1016.000000, 651.000000)">
        <g id="Exporter" transform="translate(30.000000, 78.000000)">
          <path
            d="M1.44678602,20.0079276 C0.648741494,20.0079276 0,19.3598467 0,18.5624628 L0,8.28962146 C0,7.49223756 0.648741494,6.84349607 1.44678602,6.84349607 L5.72372333,6.84349607 C6.05007597,6.84349607 6.31565039,7.10840986 6.31565039,7.4347625 C6.31565039,7.76111515 6.05007597,8.02668957 5.72372333,8.02668957 L1.44678602,8.02668957 C1.30078615,8.02668957 1.18253287,8.14494286 1.18253287,8.29094272 L1.18253287,18.5637841 C1.18253287,18.709784 1.30078615,18.8280373 1.44678602,18.8280373 L18.5545352,18.8280373 C18.7005351,18.8280373 18.8187884,18.7091233 18.8187884,18.5637841 L18.8187884,8.29094272 C18.8187884,8.14494286 18.6998745,8.02668957 18.5545352,8.02668957 L14.2775979,8.02668957 C13.9519059,8.02668957 13.6863315,7.76111515 13.6863315,7.4347625 C13.6863315,7.10840986 13.9512453,6.84349607 14.2775979,6.84349607 L18.5545352,6.84349607 C19.3519191,6.84349607 20,7.49223756 20,8.28962146 L20,18.5624628 C20,19.3598467 19.3519191,20.0079276 18.5545352,20.0079276 L1.44678602,20.0079276 Z"
            id="Shape"></path>
          <path
            d="M9.93459734,14.8642399 C9.93459734,14.8642399 9.83285988,14.8437603 9.82162912,14.8404572 C9.80841646,14.8351721 9.77009976,14.8206382 9.76151153,14.8179956 C9.74235317,14.8028011 9.72385545,14.797516 9.70139394,14.7882672 C9.7007333,14.7876065 9.62740305,14.7373984 9.61286913,14.7294708 C9.61352976,14.7301315 9.61419039,14.7301315 9.61485103,14.7301315 C9.62013609,14.7301315 9.59899584,14.7109731 9.57917685,14.6904935 L6.1610623,11.2723789 C6.04941534,11.160732 5.98731585,11.0120896 5.98731585,10.8541983 C5.98731585,10.6969677 6.04875471,10.5483253 6.1610623,10.4366783 C6.16634736,10.4307326 6.17229306,10.4247869 6.17691749,10.4195019 C6.28658255,10.3184251 6.42729735,10.2635925 6.57660038,10.2635925 C6.73449164,10.2635925 6.88247341,10.3250314 6.994781,10.437339 L8.95620004,12.398758 C9.00706877,12.4489661 9.07445333,12.4760521 9.14315915,12.4760521 C9.17751206,12.4760521 9.21186497,12.4687851 9.24423598,12.4555724 C9.34267028,12.4146132 9.4074123,12.3188214 9.4074123,12.2117989 L9.4074123,0.591266433 C9.4074123,0.264913787 9.67232609,0 9.99867873,0 C10.3250314,0 10.5899452,0.264913787 10.5899452,0.591266433 L10.5899452,12.2117989 C10.5899452,12.3188214 10.6546872,12.4152738 10.7531215,12.4555724 C10.7861531,12.4694457 10.820506,12.4760521 10.8541983,12.4760521 C10.9229041,12.4760521 10.9902887,12.4489661 11.0411574,12.398758 L13.0025765,10.437339 C13.1142234,10.325692 13.2628658,10.2635925 13.4207571,10.2635925 C13.5779877,10.2635925 13.7266301,10.3250314 13.8382771,10.437339 C13.9505847,10.5489859 14.0126842,10.6976283 14.0126842,10.854859 C14.0126842,11.0120896 13.9505847,11.1613926 13.8389377,11.2730396 L10.4208231,14.6904935 L10.3679725,14.7387197 C10.3640087,14.7413622 10.3171038,14.7750545 10.31314,14.777697 L10.2444342,14.8160137 C10.2305609,14.8193169 10.1902623,14.8358327 10.1770496,14.8417784 C10.1559094,14.8417784 10.1255202,14.8543304 10.1050406,14.8589549 C10.097113,14.8589549 10,14.8688644 10,14.8688644 L9.93459734,14.8642399 L9.93459734,14.8642399 Z"
            id="Shape"></path>
        </g>
      </g>
    </g>
  </g>
</svg>
