<?xml version="1.0" encoding="UTF-8"?>
<svg height="46px" version="1.1" viewBox="0 0 116 46" width="116px" xmlns="http://www.w3.org/2000/svg">
  <title>header-logo2021-pe-fr</title>
  <g fill="none" fill-rule="evenodd" id="Prototype-DE" stroke="none" stroke-width="1">
    <g fill-rule="nonzero" id="Liste_des_événements_test" transform="translate(-291.000000, -12.000000)">
      <g id="header-logo2021-pe-fr" transform="translate(291.000000, 12.000000)">
        <path
          d="M8.24315068,0 C8.24315068,0 0,0 0,8.3 L0,37.7 C0,37.7 0,46 8.24315068,46 L37.4417808,46 C37.4417808,46 45.6849315,46 45.6849315,37.7 L45.6849315,8.3 C45.6849315,8.3 45.6849315,0 37.4417808,0 L8.24315068,0 Z"
          fill="#003D7C" id="Path"></path>
        <path
          d="M23.9349315,17.3 C24.0342466,16.4 24.3321918,15.6 24.8287671,15.1 C25.3253425,14.6 25.9212329,14.3 26.7157534,14.3 C27.510274,14.3 28.2054795,14.6 28.6027397,15.1 C29.0993151,15.6 29.2979452,16.3 29.3972603,17.3 C29.3972603,17.5 29.1986301,17.6 29.0993151,17.6 L24.2328767,17.6 C24.1335616,17.7 23.9349315,17.5 23.9349315,17.3 M31.5821918,21.3 C31.6815068,20.6 31.2842466,20.5 31.0856164,20.5 C31.0856164,20.5 30.9863014,20.5 30.9863014,20.5 C30.7876712,20.5 30.489726,20.6 30.390411,20.7 C30.1917808,20.8 29.7945205,21.3 29.5958904,21.5 C29.3972603,21.7 29.0993151,21.8 28.8013699,22 C28.5034247,22.2 28.2054795,22.3 27.9075342,22.4 C27.609589,22.5 27.3116438,22.5 26.9143836,22.5 C26.4178082,22.5 25.8219178,22.4 25.4246575,22.1 C24.9280822,21.8 24.630137,21.4 24.3321918,20.9 C24.1335616,20.4 23.9349315,19.9 23.9349315,19.2 C23.9349315,19 24.1335616,18.9 24.2328767,18.9 L29.6952055,18.9 C30.390411,18.9 30.9863014,18.8 31.3835616,18.6 C31.6815068,18.4 31.880137,18 31.880137,17.3 C31.880137,16.5 31.6815068,15.8 31.2842466,15.1 C30.8869863,14.4 30.2910959,13.8 29.5958904,13.3 C28.8013699,13 27.9075342,12.7 26.8150685,12.7 C26.0205479,12.7 25.2260274,12.8 24.5308219,13.1 C23.8356164,13.4 23.239726,13.8 22.8424658,14.3 C22.3458904,14.8 22.0479452,15.4 21.75,16.1 C21.5513699,16.8 21.3527397,17.6 21.3527397,18.4 C21.3527397,20.2 21.8493151,21.6 22.8424658,22.6 C23.8356164,23.6 25.2260274,24.1 27.0136986,24.1 C27.8082192,24.1 28.5034247,24 29.0993151,23.8 C30.0924658,23.4 31.3835616,22.4 31.5821918,21.3"
          fill="#FFFFFF" id="Shape"></path>
        <path
          d="M22.3458904,9.8 L22.3458904,9.8 C17.5787671,9.8 13.8047945,13.7 13.8047945,18.4 L13.8047945,18.4 C13.8047945,23.2 17.6780822,27 22.3458904,27 C27.0136986,27 30.8869863,23.1 30.8869863,18.4 C30.8869863,13.7 27.0136986,9.8 22.3458904,9.8 Z"
          fill="#FFFFFF" id="Path_1_"></path>
        <path
          d="M23.9349315,17.3 C24.0342466,16.4 24.3321918,15.6 24.8287671,15.1 C25.3253425,14.6 25.9212329,14.3 26.7157534,14.3 C27.510274,14.3 28.2054795,14.6 28.6027397,15.1 C29.0993151,15.6 29.2979452,16.3 29.3972603,17.3 C29.3972603,17.5 29.1986301,17.6 29.0993151,17.6 L24.2328767,17.6 C24.1335616,17.7 23.9349315,17.5 23.9349315,17.3 M30.6883562,20.5 C30.5890411,20.5 30.489726,20.6 30.390411,20.7 C30.1917808,20.8 29.7945205,21.3 29.5958904,21.5 C29.3972603,21.7 29.0993151,21.8 28.8013699,22 C28.5034247,22.2 28.2054795,22.3 27.9075342,22.4 C27.609589,22.5 27.3116438,22.5 26.9143836,22.5 C26.4178082,22.5 25.9212329,22.4 25.4246575,22.1 C24.9280822,21.8 24.630137,21.4 24.3321918,20.9 C24.1335616,20.4 23.9349315,19.9 23.9349315,19.3 C23.9349315,19.1 24.1335616,19 24.2328767,19 L29.6952055,19 C30.1917808,19 30.5890411,19 30.6883562,18.9 C30.6883562,18.9 30.8869863,18.9 30.8869863,18.8 C30.8869863,18.7 30.8869863,18.6 30.8869863,18.4 C30.8869863,16.4 30.1917808,14.6 29.6952055,13.9 C29.6952055,13.9 29.0993151,13.2 28.8013699,13 C28.5034247,12.8 27.7089041,12.7 26.8150685,12.7 C26.0205479,12.7 25.2260274,12.8 24.5308219,13.1 C23.8356164,13.4 23.239726,13.8 22.8424658,14.3 C22.3458904,14.8 22.0479452,15.4 21.75,16.1 C21.5513699,16.8 21.3527397,17.6 21.3527397,18 C21.3527397,18 21.3527397,18.4 21.3527397,19.3 C21.3527397,20.2 21.8493151,21.6 22.8424658,22.6 C23.8356164,23.6 25.2260274,24.1 27.0136986,24.1 C27.7089041,24.1 28.4041096,24 28.7020548,23.9 C28.7020548,23.9 29,23.8 29.3972603,23.3 C29.7945205,22.9 30.2910959,21.8 30.6883562,20.5"
          fill="#003D7C" id="Shape_1_"></path>
        <path
          d="M8.8390411,33 C8.8390411,32.6 8.73972603,32.4 8.64041096,32.2 C8.54109589,32 8.24315068,31.8 7.94520548,31.8 C7.64726027,31.8 7.34931507,32 7.25,32.2 C7.15068493,32.4 7.05136986,32.6 7.05136986,33 L7.05136986,34.1 L7.94520548,34.1 C8.24315068,34.1 8.54109589,34 8.64041096,33.8 C8.73972603,33.6 8.8390411,33.3 8.8390411,33 M9.43493151,33 C9.43493151,34.2 8.93835616,34.8 7.94520548,34.8 L7.05136986,34.8 L7.05136986,36.2 L6.45547945,36.2 L6.45547945,33 C6.45547945,31.8 6.95205479,31.2 7.94520548,31.2 C8.93835616,31.1 9.43493151,31.7 9.43493151,33"
          fill="#FFFFFF" id="Shape_2_"></path>
        <path
          d="M12.2157534,33 C12.2157534,32.6 12.1164384,32.4 12.0171233,32.2 C11.9178082,32 11.619863,31.9 11.3219178,31.9 C11.0239726,31.9 10.7260274,32 10.6267123,32.2 C10.5273973,32.4 10.4280822,32.6 10.4280822,33 C10.4280822,33.4 10.5273973,33.6 10.6267123,33.8 C10.7260274,34 11.0239726,34.1 11.3219178,34.1 C11.619863,34.1 11.9178082,34 12.0171233,33.8 C12.2157534,33.6 12.2157534,33.3 12.2157534,33 M12.6130137,30.4 L12.3150685,30.8 L11.3219178,30.2 L10.3287671,30.8 L10.0308219,30.4 L11.3219178,29.7 L12.6130137,30.4 Z M12.9109589,33 C12.9109589,34.2 12.4143836,34.8 11.4212329,34.8 C10.4280822,34.8 9.83219178,34.2 9.83219178,33 C9.83219178,31.8 10.3287671,31.2 11.3219178,31.2 C12.4143836,31.1 12.9109589,31.7 12.9109589,33"
          fill="#FFFFFF" id="Shape_3_"></path>
        <path
          d="M14.9965753,34.8 C13.9041096,34.8 13.4075342,34.4 13.4075342,33.5 L13.4075342,29.7 L14.0034247,29.7 L14.0034247,33.5 C14.0034247,33.7 14.1027397,33.8 14.2020548,33.9 C14.4006849,34 14.5993151,34.1 14.9965753,34.1 L14.9965753,34.8 L14.9965753,34.8 Z"
          fill="#FFFFFF" id="Path_2_"></path>
        <path
          d="M29.3972603,34.8 L28.8013699,34.8 L28.8013699,33 C28.8013699,32.6 28.7020548,32.4 28.6027397,32.2 C28.5034247,32 28.2054795,31.9 27.9075342,31.9 C27.609589,31.9 27.3116438,32 27.2123288,32.2 C27.1130137,32.4 27.0136986,32.6 27.0136986,33 L27.0136986,34.8 L26.4178082,34.8 L26.4178082,33 C26.4178082,32.6 26.3184932,32.4 26.2191781,32.2 C26.119863,32 25.8219178,31.9 25.5239726,31.9 C25.2260274,31.9 24.9280822,32 24.8287671,32.2 C24.7294521,32.4 24.630137,32.6 24.630137,33 L24.630137,34.8 L24.0342466,34.8 L24.0342466,33 C24.0342466,31.8 24.5308219,31.2 25.5239726,31.2 C26.0205479,31.2 26.4178082,31.4 26.7157534,31.8 C27.0136986,31.4 27.3116438,31.2 27.9075342,31.2 C28.9006849,31.2 29.3972603,31.8 29.3972603,33 L29.3972603,34.8 Z"
          fill="#FFFFFF" id="Path_3_"></path>
        <path
          d="M32.2773973,33 C32.2773973,32.6 32.1780822,32.4 32.0787671,32.2 C31.9794521,32 31.6815068,31.9 31.3835616,31.9 C31.0856164,31.9 30.7876712,32 30.6883562,32.2 C30.5890411,32.4 30.489726,32.6 30.489726,33 L30.489726,34.1 L31.3835616,34.1 C31.6815068,34.1 31.9794521,34 32.0787671,33.8 C32.1780822,33.6 32.2773973,33.3 32.2773973,33 M32.8732877,33 C32.8732877,34.2 32.3767123,34.8 31.3835616,34.8 L30.489726,34.8 L30.489726,36.2 L29.8938356,36.2 L29.8938356,33 C29.8938356,31.8 30.390411,31.2 31.3835616,31.2 C32.3767123,31.1 32.8732877,31.7 32.8732877,33"
          fill="#FFFFFF" id="Shape_4_"></path>
        <path
          d="M34.9589041,34.8 C33.8664384,34.8 33.369863,34.4 33.369863,33.5 L33.369863,29.7 L33.9657534,29.7 L33.9657534,33.5 C33.9657534,33.7 34.0650685,33.8 34.1643836,33.9 C34.3630137,34 34.5616438,34.1 34.9589041,34.1 L34.9589041,34.8 L34.9589041,34.8 Z"
          fill="#FFFFFF" id="Path_4_"></path>
        <path
          d="M37.5410959,33 C37.5410959,32.6 37.4417808,32.4 37.3424658,32.2 C37.2431507,32 36.9452055,31.9 36.6472603,31.9 C36.3493151,31.9 36.0513699,32 35.9520548,32.2 C35.8527397,32.3 35.7534247,32.6 35.7534247,33 C35.7534247,33.4 35.8527397,33.6 35.9520548,33.8 C36.0513699,34 36.3493151,34.1 36.6472603,34.1 C36.9452055,34.1 37.2431507,34 37.3424658,33.8 C37.4417808,33.6 37.5410959,33.3 37.5410959,33 M38.1369863,33 C38.1369863,34.2 37.640411,34.8 36.6472603,34.8 C35.6541096,34.8 35.1575342,34.2 35.1575342,33 C35.1575342,31.8 35.6541096,31.2 36.6472603,31.2 C37.640411,31.1 38.1369863,31.7 38.1369863,33"
          fill="#FFFFFF" id="Shape_5_"></path>
        <path
          d="M38.6335616,34.8 L39.6335616,34.8 L39.6335616,31.2 L38.6335616,31.2 L38.6335616,34.8 Z M38.6335616,30.4 L39.6335616,30.4 L39.6335616,29.7 L38.6335616,29.7 L38.6335616,30.4 Z"
          fill="#FFFFFF" id="Shape_6_"></path>
        <path
          d="M17.4794521,32.2 C17.380137,31.9 17.0821918,31.7 16.7842466,31.7 C16.4863014,31.7 16.1883562,31.9 16.0890411,32.2 C15.989726,32.4 15.989726,32.5 15.989726,32.7 L17.5787671,32.7 C17.5787671,32.5 17.4794521,32.4 17.4794521,32.2 M15.989726,33.2 C15.989726,33.8 16.2876712,34.2 16.8835616,34.2 C17.2808219,34.2 17.4794521,34.1 17.7773973,33.8 L18.2739726,34.2 C17.8767123,34.6 17.5787671,34.8 16.9828767,34.8 C16.0890411,34.8 15.3938356,34.3 15.3938356,33 C15.3938356,31.8 15.989726,31.2 16.8835616,31.2 C17.8767123,31.2 18.3732877,31.9 18.3732877,32.9 L18.3732877,33.2 L15.989726,33.2 Z"
          fill="#FFFFFF" id="Shape_7_"></path>
        <path
          d="M22.6438356,32.2 C22.5445205,31.9 22.2465753,31.7 21.9486301,31.7 C21.6506849,31.7 21.3527397,31.9 21.2534247,32.2 C21.1541096,32.4 21.1541096,32.5 21.1541096,32.7 L22.7431507,32.7 C22.7431507,32.5 22.7431507,32.4 22.6438356,32.2 M21.1541096,33.2 C21.1541096,33.8 21.4520548,34.2 22.0479452,34.2 C22.4452055,34.2 22.6438356,34.1 22.9417808,33.8 L23.4383562,34.2 C23.0410959,34.6 22.7431507,34.8 22.1472603,34.8 C21.2534247,34.8 20.5582192,34.3 20.5582192,33 C20.5582192,31.8 21.1541096,31.2 22.0479452,31.2 C23.0410959,31.2 23.5376712,31.9 23.5376712,32.9 L23.5376712,33.2 L21.1541096,33.2 Z"
          fill="#FFFFFF" id="Shape_8_"></path>
        <path
          d="M17.4794521,32.2 C17.380137,31.9 17.0821918,31.7 16.7842466,31.7 C16.4863014,31.7 16.1883562,31.9 16.0890411,32.2 C15.989726,32.4 15.989726,32.5 15.989726,32.7 L17.5787671,32.7 C17.5787671,32.5 17.4794521,32.4 17.4794521,32.2 M15.989726,33.2 C15.989726,33.8 16.2876712,34.2 16.8835616,34.2 C17.2808219,34.2 17.4794521,34.1 17.7773973,33.8 L18.2739726,34.2 C17.8767123,34.6 17.5787671,34.8 16.9828767,34.8 C16.0890411,34.8 15.3938356,34.3 15.3938356,33 C15.3938356,31.8 15.989726,31.2 16.8835616,31.2 C17.8767123,31.2 18.3732877,31.9 18.3732877,32.9 L18.3732877,33.2 L15.989726,33.2 Z"
          fill="#FFFFFF" id="Shape_9_"></path>
        <path
          d="M22.6438356,32.2 C22.5445205,31.9 22.2465753,31.7 21.9486301,31.7 C21.6506849,31.7 21.3527397,31.9 21.2534247,32.2 C21.1541096,32.4 21.1541096,32.5 21.1541096,32.7 L22.7431507,32.7 C22.7431507,32.5 22.7431507,32.4 22.6438356,32.2 M21.1541096,33.2 C21.1541096,33.8 21.4520548,34.2 22.0479452,34.2 C22.4452055,34.2 22.6438356,34.1 22.9417808,33.8 L23.4383562,34.2 C23.0410959,34.6 22.7431507,34.8 22.1472603,34.8 C21.2534247,34.8 20.5582192,34.3 20.5582192,33 C20.5582192,31.8 21.1541096,31.2 22.0479452,31.2 C23.0410959,31.2 23.5376712,31.9 23.5376712,32.9 L23.5376712,33.2 L21.1541096,33.2 Z"
          fill="#FFFFFF" id="Shape_10_"></path>
        <path
          d="M102.294521,32.6 C101.69863,32.6 101.202055,33.1 101.202055,33.8 C101.202055,34.5 101.69863,35 102.294521,35 C102.989726,35 103.486301,34.5 103.486301,33.8 C103.386986,33.1 102.890411,32.6 102.294521,32.6 Z"
          fill="#DA0719" id="Path_5_"></path>
        <path
          d="M108.054795,35 L108.054795,27.5 L109.842466,27.5 L109.842466,26 L108.054795,26 L108.054795,25.2 C108.054795,24.2 108.55137,23.7 109.445205,23.7 C109.743151,23.7 110.041096,23.7 110.239726,23.8 L110.239726,23.8 L110.239726,22.2 C109.842466,22.1 109.445205,22.1 109.14726,22.1 C108.15411,22.1 107.359589,22.4 106.863014,22.9 C106.366438,23.4 106.068493,24.2 106.068493,25.2 L106.068493,25.2 L106.068493,26 L104.678082,26 L104.678082,27.5 L106.068493,27.5 L106.068493,35 L108.054795,35 Z M113.318493,35 L113.318493,28.9 C113.616438,28.2 114.212329,27.8 115.205479,27.8 C115.503425,27.8 115.80137,27.8 116,27.9 L116,27.9 L116,26 C115.80137,25.9 115.60274,25.9 115.304795,25.9 C114.410959,25.9 113.815068,26.3 113.318493,27.1 L113.318493,27.1 L113.318493,26.1 L111.431507,26.1 L111.431507,35.1 L113.318493,35.1 L113.318493,35 Z"
          fill="#DA0719" id="fr"></path>
        <path
          d="M99.1164384,26.3 L97.2294521,26.3 L97.2294521,34.7 L99.1164384,34.7 L99.1164384,26.3 Z M98.2226027,22.5 C97.5273973,22.5 97.0308219,23 97.0308219,23.7 C97.0308219,24.3 97.5273973,24.9 98.2226027,24.9 C98.9178082,24.9 99.4143836,24.4 99.4143836,23.7 C99.4143836,23 98.8184932,22.5 98.2226027,22.5 M91.369863,27.6 C92.760274,27.6 93.5547945,28.8 93.5547945,30.5 C93.5547945,32.2 92.760274,33.4 91.369863,33.4 C89.9794521,33.4 89.1849315,32.2 89.1849315,30.5 C89.2842466,28.8 89.9794521,27.6 91.369863,27.6 M91.4691781,26.1 C90.2773973,26.1 89.2842466,26.5 88.5890411,27.3 C87.7945205,28 87.3972603,29.2 87.3972603,30.5 C87.3972603,31.9 87.7945205,33.1 88.6883562,33.8 C89.3835616,34.5 90.3767123,34.8 91.4691781,34.8 C92.6609589,34.8 93.6541096,34.4 94.3493151,33.6 C95.1438356,32.8 95.5410959,31.7 95.5410959,30.3 C95.5410959,29 95.1438356,27.9 94.3493151,27.1 C93.6541096,26.5 92.6609589,26.1 91.4691781,26.1 M86.7020548,34.5 L86.4041096,33.2 C86.2054795,33.3 86.0068493,33.3 85.8082192,33.3 C85.3116438,33.3 85.2123288,33.1 85.2123288,32.4 L85.2123288,22.1 L83.4246575,22.1 L83.4246575,33.2 C83.4246575,34.2 83.9212329,35 85.2123288,35 C85.7089041,34.9 86.1061644,34.8 86.7020548,34.5 M79.8493151,30.5 C79.8493151,32.3 78.8561644,33.4 77.2671233,33.4 C76.7705479,33.4 76.3732877,33.3 76.0753425,33.2 L76.0753425,27.9 C76.3732877,27.8 76.6712329,27.8 77.1678082,27.8 C78.7568493,27.7 79.8493151,28.5 79.8493151,30.5 M81.7363014,30.4 C81.7363014,27.8 80.1472603,26.1 77.3664384,26.1 C76.0753425,26.1 75.0821918,26.4 74.2876712,26.7 L74.2876712,39 L76.1746575,39 L76.1746575,34.7 C76.5719178,34.9 76.9691781,34.9 77.4657534,34.9 C79.8493151,34.9 81.7363014,33.2 81.7363014,30.4 M72.2020548,34.7 L72.2020548,28.9 C72.2020548,26.7 70.9109589,26.1 69.5205479,26.1 C68.6267123,26.1 67.4349315,26.6 66.5410959,27.4 C66.2431507,26.6 65.4486301,26.1 64.3561644,26.1 C63.4623288,26.1 62.4691781,26.5 61.4760274,27.3 L61.2773973,26.4 L59.7876712,26.4 L59.7876712,34.8 L61.5753425,34.8 L61.5753425,28.8 C62.1712329,28.3 62.9657534,27.8 63.859589,27.8 C64.9520548,27.8 65.1506849,28.6 65.1506849,29.6 L65.1506849,34.8 L67.0376712,34.8 L67.0376712,29.1 L67.0376712,28.7 C67.6335616,28.2 68.4280822,27.7 69.3219178,27.7 C70.4143836,27.7 70.5136986,28.4 70.5136986,29.5 L70.5136986,34.8 L72.2020548,34.7 L72.2020548,34.7 Z M56.1130137,29.6 L52.6369863,29.6 C52.6369863,28.6 53.3321918,27.5 54.4246575,27.5 C55.5171233,27.5 56.1130137,28.6 56.1130137,29.6 M58,30.9 L58,30.4 C58,27.8 56.609589,26 54.4246575,26 C52.140411,26 50.75,28 50.75,30.4 C50.75,32.7 52.0410959,34.9 54.8219178,34.9 C55.8150685,34.9 56.9075342,34.6 57.7020548,34 L57.2054795,32.8 C56.510274,33.2 55.8150685,33.4 55.119863,33.4 C53.630137,33.4 52.6369863,32.4 52.6369863,31 L58,31 L58,30.9 Z"
          fill="#003D7C" id="Shape_11_"></path>
        <path
          d="M80.2465753,12.7 L77.4657534,12.7 C77.4657534,12.1 77.9623288,11.2 78.8561644,11.2 C79.75,11.3 80.1472603,12 80.2465753,12.7 M82.9280822,14.5 L82.9280822,13.7 C82.9280822,11.1 81.239726,9.3 78.9554795,9.3 C76.2739726,9.3 74.8835616,11.4 74.8835616,13.8 C74.8835616,16 76.0753425,18.1 79.2534247,18.1 C80.2465753,18.1 81.4383562,17.9 82.630137,17.1 L82.0342466,15.4 C81.0410959,15.9 80.4452055,16 79.5513699,16 C78.6575342,16 77.4657534,15.5 77.4657534,14.5 L82.9280822,14.5 L82.9280822,14.5 Z M74.1883562,17.6 L73.890411,15.6 C73.5924658,15.7 73.2945205,15.7 73.1952055,15.7 C72.7979452,15.7 72.6986301,15.4 72.6986301,14.9 L72.6986301,5.3 L70.0171233,5.3 L70.0171233,16 C70.0171233,17.2 70.6130137,18.1 72.2020548,18.1 C72.6986301,18.1 73.3938356,18.1 74.1883562,17.6 M65.7465753,13.8 C65.7465753,15.1 65.25,16.2 64.0582192,16.2 C62.9657534,16.2 62.2705479,15.2 62.2705479,13.8 C62.2705479,12.5 62.7671233,11.4 63.9589041,11.4 C65.0513699,11.4 65.7465753,12.4 65.7465753,13.8 M68.4280822,13.7 C68.4280822,12.5 68.0308219,11.4 67.3356164,10.6 C66.5410959,9.8 65.4486301,9.3 63.9589041,9.3 C62.6678082,9.3 61.5753425,9.8 60.7808219,10.6 C59.9863014,11.4 59.489726,12.5 59.489726,13.8 C59.489726,15.1 59.9863014,16.3 60.880137,17.1 C61.6746575,17.8 62.6678082,18.1 63.9589041,18.1 C65.3493151,18.1 66.4417808,17.6 67.2363014,16.8 C68.0308219,16 68.4280822,14.9 68.4280822,13.7 M66.640411,8.5 L64.8527397,5.9 L62.7671233,5.9 L60.9794521,8.5 L62.9657534,8.5 L63.760274,7.4 L64.5547945,8.5 L66.640411,8.5 Z M56.2123288,10.1 C56.2123288,11.2 55.6164384,11.9 54.2260274,11.9 L53.8287671,11.9 L53.8287671,8.4 L54.2260274,8.4 C55.5171233,8.4 56.2123288,9.2 56.2123288,10.1 M58.8938356,10.1 C58.8938356,7.5 57.1061644,6.2 54.5239726,6.2 L51.1472603,6.2 L51.1472603,18 L53.8287671,18 L53.8287671,14.1 L54.1267123,14.1 C57.7020548,14.1 58.8938356,12 58.8938356,10.1"
          fill="#003D7C" id="Shape_12_"></path>
      </g>
    </g>
  </g>
</svg>
