<?xml version="1.0" encoding="UTF-8"?>
<svg height="451px" version="1.1" viewBox="0 0 497 451" width="497px" xmlns="http://www.w3.org/2000/svg">
  <title>Happy Bunch - Plants (2)</title>
  <g fill="none" fill-rule="evenodd" id="Prototype_CDE" stroke="none" stroke-width="1">
    <g fill-rule="nonzero" id="Page_login" transform="translate(-165.000000, -254.000000)">
      <g id="Happy-Bunch---Plants-(2)" transform="translate(165.000000, 254.000000)">
        <path
          d="M392.746888,366.492754 C374.82712,368.338259 360.992488,384.1246 352.937759,397.600892 C368.031693,389.434576 381.372088,378.661083 392.746888,366.492754 M369.92946,313.511706 C337.210226,321.337655 304.064617,349.058034 286.427386,375.241917 C317.879943,359.00019 343.843118,335.964406 369.92946,313.511706 M165.559717,20.4147157 C127.723372,24.4679842 89.6309066,74.4083141 86.8962656,103.045708 C110.981061,92.1081103 132.411903,77.7554049 150.693956,59.9437565 C158.073268,53.5273919 180.052511,27.0605281 165.559717,20.4147157 M239.3361,37.8672246 C207.199562,30.2454026 127.766122,123.766908 113.59751,149.707915 C163.986051,124.675675 214.212261,85.8426756 239.3361,37.8672246 M211.178423,351.730723 C212.10731,352.276717 213.036198,352.82271 213.965085,353.369008 C214.170612,352.364927 214.019982,350.776527 214.6456,350.461707 C226.51996,345.757343 237.11664,338.673116 248.749991,333.368919 C268.877223,321.045589 287.88845,307.177052 306.220168,292.72967 C326.678117,274.890134 354.229082,260.698563 367.016597,237.199554 C308.059867,246.173313 236.354785,303.440875 211.178423,351.730723 M364.103734,139.500557 C294.400963,155.740029 212.194529,225.207948 170.39834,277.542921 C205.072418,259.60274 236.464138,238.965377 268.810769,217.965992 C288.75764,206.982843 305.709732,192.946584 323.671033,179.372907 C336.603383,166.151196 356.030735,155.410918 364.103734,139.500557 M337.40249,54.5905111 C319.670865,52.8099046 304.138325,67.1929914 289.093799,74.3941045 C232.155919,109.846137 183.85864,156.846138 146.124481,209.007804 C192.624097,185.009257 233.280633,152.415432 272.473464,119.52175 C283.649119,111.547147 293.007644,101.788898 303.740933,93.3467372 C316.575299,81.4001744 331.283183,71.01882 337.40249,54.5905111 M258.704086,407.424564 C258.815233,405.604357 260.002365,401.671622 259.752954,398.829972 C249.310815,401.456581 238.989532,405.72043 228.562124,408.794531 C216.016894,412.75323 199.633405,412.294131 189.609408,403.401109 C181.349033,393.80218 186.362037,381.829865 188.065735,371.08884 C170.688618,372.889803 151.607468,379.963534 133.56146,373.131724 C106.643768,360.531087 126.820654,322.362021 135.589226,303.768354 C122.715576,302.518737 101.527987,309.406751 95.8025711,294.971551 C90.2863925,271.615838 106.216588,250.29293 117.808363,230.748381 C64.4071901,238.853023 76.2995979,199.040302 91.7634442,169.39374 C100.027501,156.933002 84.960035,162.019441 77.8754097,157.21005 C60.0021483,146.916211 74.4435749,124.458842 70.9996879,110.792472 C59.892675,109.841896 49.6132397,104.29147 50.0682063,93.0614105 C48.6423762,60.37557 69.7302002,28.5792143 98.4208893,9.98310407 C105.135247,6.50946796 116.853234,-5.37212708 123.467158,2.83300956 C93.022219,4.36303451 47.0330863,71.8383858 60.9991246,99.1723466 C73.1141617,117.386333 76.0521953,97.4080379 80.0685568,87.7715382 C89.4591501,58.2532674 139.816164,-4.11701179 177.268729,20.3884343 C191.425257,44.0844242 138.666193,85.2539765 116.695553,96.5634543 C106.637742,103.033605 95.2254096,107.611462 83.4836528,110.657766 C79.99524,114.840364 80.4960718,121.882938 79.7294242,127.043298 C78.8737256,138.200048 77.7635932,159.457589 96.6114008,156.285742 C107.319355,145.877969 113.478647,130.998637 123.268633,119.589886 C145.928586,92.267838 172.037449,67.2620564 201.547011,46.0723261 C208.599497,41.7110375 215.973038,37.6991891 223.11491,33.4555005 C233.856343,27.4997361 256.061329,34.1846223 247.999145,48.1387304 C236.114772,72.2461687 215.696509,91.5106149 195.015778,109.579815 C176.857618,124.186986 157.63017,138.034491 136.455637,148.830804 C126.414231,155.232533 109.758566,155.224286 104.510212,166.275959 C98.7774306,180.269471 74.1928245,226.751195 104.929692,226.903617 C126.804585,222.457106 128.762381,216.141515 139.908898,199.79722 C153.971353,180.450912 169.328739,161.93147 186.033617,144.420337 C213.335972,115.081368 291.65218,50.0472142 332.363498,45.8682825 C382.153728,56.3835764 294.38131,117.879948 279.547521,131.585111 C233.956107,167.151394 186.943885,201.653471 133.405452,226.630845 C116.887717,248.73633 78.5580275,323.459216 142.488717,292.188854 C194.462721,228.826457 274.860593,148.749553 363.023701,132.327061 C418.170754,141.883837 268.59049,233.427528 252.953562,242.802863 C229.946776,258.36275 205.316305,271.826297 180.478604,284.804476 C170.607601,290.835688 156.563224,292.580142 151.379148,303.352935 C123.846799,348.390161 117.58406,390.758319 189.900667,360.404935 C197.837308,353.38924 200.368583,342.306105 207.022346,334.217958 C224.479475,309.59094 245.351031,286.304261 270.761206,268.179773 C291.827939,253.202695 315.105228,239.711046 341.181281,233.637987 C353.691359,227.831284 375.742347,223.753763 377.594687,241.414264 C367.720671,269.066815 309.706892,306.303937 283.255884,324.040192 C262.790752,337.369644 240.936615,348.827267 218.350983,358.886823 C212.843175,362.306699 203.022724,362.162218 201.207543,368.831526 C198.334457,380.23936 187.216396,407.492986 209.782277,405.307455 C290.429226,385.761684 256.452688,377.25262 310.042008,334.001696 C325.867416,321.962791 343.586679,312.179673 362.922262,305.619107 C369.913483,302.53401 375.022904,305.383296 379.835708,309.643479 C389.674572,318.407904 358.579155,339.026128 352.197569,345.858243 C329.340095,363.028794 304.716319,378.861147 278.146799,390.837433 C269.003274,394.784524 267.327698,413.679065 271.107034,421.18593 C281.005155,432.576048 321.139646,410.356018 334.398963,406.743094 C345.858165,402.463667 346.481861,387.751419 355.49683,380.26624 C365.130139,370.299543 377.065399,358.259112 393.227932,360.042665 C399.12576,360.937954 402.888024,368.450318 400.015942,373.229775 C388.894199,391.413826 367.17364,399.411254 349.299374,410.781211 C343.325215,417.173166 346.269275,427.905639 344.898349,435.824258 C336.679823,437.985964 339.859233,419.575877 338.897074,415.146471 C318.721192,424.547465 260.896229,448.455746 258.704086,407.424564"
          fill="#FFFFFF" id="Fill-1"></path>
        <g id="Hands---Tiny-Unlock" transform="translate(304.000000, 70.000000)">
          <path
            d="M137.624297,15.9972801 C137.484591,15.6213832 137.201722,15.3163165 136.837729,15.1489861 L129.47122,11.6800695 C120.135019,7.15021502 110.279983,3.78246359 100.126192,1.65202223 L99.8690449,1.65202223 C90.793263,-0.135454468 79.4334095,-2.36222628 69.0416393,6.27219504 C59.4666895,14.2098034 57.5153964,29.4790959 57.2128703,37.8711475 C56.7742075,49.8078563 57.3036281,62.577711 61.2818458,92.570964 L62.3558133,100.660053 C62.4120259,101.05856 62.6242836,101.418283 62.9457392,101.659829 C63.2075697,101.856484 63.5260292,101.962791 63.8533173,101.962791 L64.0650856,101.962791 L80.2653561,99.751167 C81.0917278,99.6412341 81.6735133,98.882468 81.5662182,98.0545789 L80.4922507,89.9654895 C76.2871384,58.3513889 76.2417595,47.5507882 76.5745382,38.5376642 C76.8921906,29.8577986 79.2670201,24.1166658 81.4905867,22.2837448 C84.7881207,19.5419373 88.645328,19.1026422 96.2236058,20.5871567 L96.480753,20.5871567 C105.083014,22.4196434 113.429159,25.2989663 121.333269,29.1609856 L128.714905,32.6147541 C129.083172,32.7662625 129.496237,32.7662625 129.864504,32.6147541 C130.245552,32.4782615 130.556094,32.1945509 130.726703,31.8270525 L137.639424,17.0576476 C137.762126,16.7139122 137.756754,16.3373651 137.624297,15.9972801 Z"
            fill="#EAF3F3" id="Path"></path>
          <path
            d="M160.886805,145.648059 C160.432261,142.126332 159.977717,138.332541 159.523173,134.402718 C157.901965,120.708795 156.068637,105.185993 153.250463,93.1244586 C151.15956,84.0556356 148.492901,78.8108329 139.780804,74.8054361 C132.205068,71.2988245 122.189945,71.9638715 113.447546,73.0823597 C104.830797,74.3348184 96.2880932,76.0503134 87.8567087,78.2213594 L84.144598,79.0980123 C80.1900637,80.035124 73.0688717,82.3779033 62.9325367,86.0507766 C53.6981875,89.3915419 47.680418,98.2955264 48.0386394,108.088017 C48.4477291,119.937945 48.7507586,127.933624 48.9325763,131.863448 C49.3871204,141.748465 51.4780236,171.841842 52.5537781,185.52065 C52.9028758,189.999283 56.4860666,193.548063 60.9779968,193.863968 C62.2507204,193.954656 63.5234441,194 64.8719252,194 C65.7507106,194 66.6901018,194 67.690099,194 C70.9022112,193.863968 74.1446262,193.773279 77.4021928,193.667476 C84.1597495,193.455871 91.1445782,193.244265 97.9172864,192.700135 C103.977875,192.23158 110.114222,191.536303 116.099053,190.856141 C121.296008,190.281783 126.705084,189.677194 131.947493,189.208639 C138.08384,188.679624 150.629259,187.258842 157.553482,186.457762 C161.464528,186.021367 164.3143,182.554959 163.977706,178.64346 C163.189829,169.65021 161.8565,153.326329 160.886805,145.648059 Z"
            fill="#EBEDF8" id="Path"></path>
          <path
            d="M110.637748,117.706434 C109.718909,109.996136 104.383712,105.150949 97.4183169,105.600966 C94.9271345,105.73046 92.6018575,106.904548 91.0012611,108.841091 C88.4966827,111.841207 87.4889233,116.611392 88.037263,122.641625 C88.9412824,131.83698 91.4606808,162.543166 91.4903207,162.858179 C91.5595346,163.633505 92.2032139,164.22639 92.9723198,164.223256 L93.0908797,164.223256 L112.816287,162.423162 C113.623877,162.351551 114.224747,161.636423 114.164906,160.8181 C114.209366,160.443085 111.986367,128.941868 110.637748,117.706434 Z"
            fill="#3B3B3B" id="Path"></path>
          <path
            d="M163.344567,18.9488372 C162.250123,18.94681 161.245493,18.3506462 160.730138,17.397362 C160.214782,16.4440778 160.272237,15.2881957 160.879656,14.3893151 L164.903698,8.52501525 C165.492551,7.65292452 166.507899,7.15724932 167.567268,7.22470573 C168.626638,7.29216214 169.569088,7.91250191 170.039604,8.85204905 C170.510121,9.79159618 170.437222,10.9076111 169.848368,11.7797017 L165.824327,17.6440015 C165.271612,18.4619421 164.340454,18.951902 163.344567,18.9488372 Z"
            fill="#EAF3F3" id="Path"></path>
          <path
            d="M180.02198,38.7907234 C178.32327,38.9169546 176.836025,37.7401527 176.700128,36.162263 C176.56423,34.5843732 177.831143,33.2029103 179.529854,33.076679 L188.357369,31.648168 C189.46682,31.4215134 190.620438,31.7813202 191.357803,32.5839859 C192.095169,33.3866514 192.296216,34.5014794 191.880706,35.4835302 C191.465196,36.4655812 190.500785,37.1549497 189.37238,37.2765016 L180.529486,38.7050127 C180.363479,38.7478752 180.193605,38.7765647 180.02198,38.7907234 Z"
            fill="#EAF3F3" id="Path"></path>
          <path
            d="M189.880914,71.2837209 C189.414696,71.2858195 188.953866,71.1823195 188.53194,70.9806827 L181.128267,67.392849 C179.60932,66.6104122 178.981703,64.7390265 179.714132,63.1762776 C180.446563,61.6135287 182.271574,60.9300913 183.826215,61.6363691 L191.229888,65.2242029 C192.54295,65.8706312 193.244351,67.3519385 192.922316,68.7984846 C192.600282,70.2450308 191.339819,71.2749723 189.880914,71.2837209 Z"
            fill="#EAF3F3" id="Path"></path>
          <path
            d="M110.192264,117.433611 C110.146857,117.033568 109.944663,116.668125 109.630336,116.417993 C109.316009,116.16786 108.915411,116.053617 108.517015,116.100495 C101.438711,116.918543 94.4509611,117.524505 87.3877494,118.115317 C82.2261717,118.55464 77.0495016,119.221197 72.4916171,119.827159 C67.9337326,120.433121 62.8627088,121.069381 58.063347,121.463256 C56.3428211,121.599597 52.8866769,121.948025 47.7854685,122.50854 C46.6686358,115.191552 42.5333367,105.844593 35.5455867,100.633323 C31.0383205,97.2081612 25.3010742,95.8495895 19.7439143,96.8915095 C8.98308112,98.7699908 0.984144792,109.828791 0.274805156,123.781059 C-0.223241823,134.021812 -1.00804312,149.534431 7.70023284,160.684125 C11.3619044,165.584221 16.8558738,168.773725 22.9133042,169.516017 C23.6452217,169.594559 24.3806997,169.635011 25.1167848,169.637209 C25.7657551,169.637209 26.4298177,169.637209 27.078788,169.546315 C31.5291632,169.081462 35.7367012,167.281261 39.1526542,164.380492 C45.9743885,158.684452 49.2343324,149.958604 49.0985014,137.703029 C54.1544329,137.157663 57.655854,136.809235 59.285826,136.672894 C64.4323114,136.248721 69.5033352,135.582163 74.5139897,134.930754 C79.1473358,134.324792 83.9466976,133.703682 88.6555054,133.309807 C95.8394558,132.718994 102.902667,132.113032 110.116802,131.279835 C110.927402,131.184622 111.515749,130.459846 111.444928,129.643738 C110.901604,124.159785 110.509203,120.145289 110.192264,117.433611 Z M29.4180996,152.639984 C28.0823358,153.865392 26.3027661,154.484554 24.4979991,154.351826 C22.5253285,154.051502 20.7596709,152.957494 19.6080833,151.322018 C14.7634445,145.095761 14.8389062,135.097394 15.3671378,124.523362 C15.6840768,118.145615 18.8081897,112.404129 22.3247032,111.828465 L22.7925655,111.828465 L23.3207972,111.828465 C24.472887,111.850766 25.5839678,112.26165 26.4750947,112.994941 C29.7954079,115.449086 32.3158275,121.220871 32.8289668,125.371709 L32.8289668,125.583795 C33.9457994,134.218749 35.5908637,147.48931 29.4180996,152.639984 Z"
            fill="#34D1A1" id="Shape"></path>
          <path
            d="M112.703397,163.32093 C111.926728,163.322887 111.281385,162.703461 111.227021,161.903837 C111.227021,161.583851 108.997692,129.585184 107.668953,118.263751 C106.930764,112.046868 102.988838,108.283215 97.6295904,108.648914 C97.2354002,108.678139 96.8463133,108.543032 96.5494067,108.27383 C96.2525001,108.004627 96.0725639,107.623806 96.0498672,107.216593 C95.9992604,106.3801 96.6127133,105.658461 97.4228977,105.601422 C104.391396,105.144298 109.676825,110.065998 110.592179,117.898052 C111.935682,129.295673 114.150247,161.370526 114.16501,161.690513 C114.224346,162.527229 113.617183,163.256043 112.806744,163.32093 L112.703397,163.32093 Z"
            fill="#3B3B3B" id="Path"></path>
        </g>
        <g id="Character" transform="translate(60.000000, 42.000000)">
          <g id="Legs/Pants-Stride" transform="translate(0.000000, 124.033904)">
            <g id="Right-leg" transform="translate(154.846797, 0.000000)">
              <path
                d="M165.967,264.29332 L137.957577,278.929507 C136.450566,279.716581 134.614177,279.118502 133.855709,277.593423 C116.183182,242.233367 93.8280043,198.191197 75.8605959,162.697046 C73.6102396,158.254932 75.1262295,152.862985 79.2503074,150.653832 L97.6085273,140.816857 C101.73166,138.607703 106.901526,140.417975 109.153299,144.862518 C118.804975,163.917011 138.223159,202.270866 147.851206,221.347709 C154.346144,234.223668 160.827851,247.069503 167.2916,260.044088 C168.06708,261.604148 167.474011,263.506245 165.967,264.29332"
                fill="#8C6345" id="SKIN-DARKER"></path>
              <path
                d="M40.352113,0.262264621 L1.1836209,21.2823109 C-0.0767033403,21.9583545 -0.37817782,23.9218456 0.510154363,25.6680889 C21.8121424,67.8476673 98.9938687,220.796814 118.747783,260.310127 L163.844011,236.360883 C144.753151,198.68324 65.560491,43.8974507 44.8302159,3.34552876 C44.1510701,1.45299557 42.0416952,-0.770512222 40.352113,0.262264621"
                fill="#051026" id="Fill-3"></path>
              <polygon fill="#FFFFFF" id="Fill-5"
                       points="165.738162 256.306576 132.210195 274.060571 125.961003 261.556345 159.445322 243.714764"></polygon>
              <path
                d="M162.248956,249.404603 C159.938022,250.635557 151.605588,255.072375 143.836323,259.210142 C147.800765,265.878339 133.355417,273.545004 130.406004,266.362401 C129.38908,266.904216 128.802228,267.216971 128.802228,267.216971 L136.437451,282.59533 L185.153203,257.088888 L182.629128,251.985935 C180.605225,247.887324 166.845247,253.93882 162.248956,249.404603"
                fill="#0A1B45" id="Fill-7"></path>
            </g>
            <path
              d="M107.966574,0 C107.966574,26.1867602 130.015615,47.4153238 157.214485,47.4153238 C184.413355,47.4153238 206.462396,26.1867602 206.462396,0"
              fill="#0A1B45" id="Path"></path>
            <g id="Left-Leg" transform="translate(0.000000, 0.000000)">
              <path
                d="M14.3195532,264.179924 L3.07023371,232.852526 C2.46917918,231.165235 3.09198706,229.321022 4.46197522,228.736727 C8.41730177,227.177093 12.1418536,225.171417 15.9543647,223.341332 C28.0946257,216.907527 39.5108785,208.76978 49.688136,199.234872 C64.2416002,185.286972 76.0721124,168.834878 85.3201237,150.092529 C86.3368563,148.098458 88.0686122,146.690196 90.0666104,145.999436 C94.9407794,143.205113 110.649063,154.755284 115.128361,156.077264 C117.225668,157.15049 118.681724,159.101673 119.3173,161.433303 C120.114608,178.284009 87.0651207,217.586682 74.6240959,229.216575 C67.2057306,236.161008 58.7540812,242.9465 50.4386269,248.614364 C44.6900674,252.401181 38.582105,256.064378 32.5531167,259.299698 C28.5878593,260.427418 16.3577475,269.894713 14.3195532,264.179924"
                fill="#B18058" id="SKIN"></path>
              <path
                d="M155.126013,0 L110.932987,1.18498394 C108.520056,1.26479104 108.211872,4.6808381 108.426796,6.88058452 C109.282707,84.9632474 88.0241153,175.324587 18.9415042,214.636151 L43.2554324,262.20674 C107.495141,225.778334 143.360552,151.160714 153.365904,76.5456187 C154.775695,66.989981 162.256867,0.480357939 155.126013,0"
                fill="#0A1B45" id="Fill-12"></path>
              <path
                d="M21.2549677,264.577507 L6.62952646,227.222564 C10.4089317,225.524079 14.5886491,223.47937 18.2124037,221.429562 L35.5153203,257.447031 C31.0471495,259.96238 25.9092528,262.484867 21.2549677,264.577507"
                fill="#FFFFFF" id="Fill-14"></path>
              <path
                d="M29.8328691,260.486136 C28.7136368,257.984814 24.6787855,248.963306 20.9161285,240.551236 C14.9640209,244.261345 7.87126726,229.322531 14.4120186,226.010978 C13.9194994,224.909145 13.6349326,224.274481 13.6349326,224.274481 C9.8589514,226.252634 3.96727859,228.772118 0,230.417805 L19.0564518,284.966096 L24.9343245,282.484954 C29.8371518,279.493761 25.0556699,264.294118 29.8328691,260.486136"
                fill="#0A1B45" id="Fill-16"></path>
              <path
                d="M133.362406,0.948306474 L132.416406,0.973007241 C134.986691,90.0132108 109.559128,192.851563 30.7799443,237.613884 L31.2326058,238.499079 C110.336268,193.552259 135.945935,90.3756568 133.362406,0.948306474"
                fill="#FFFFFF" id="Fill-18"></path>
            </g>
          </g>
          <g id="Group-33" transform="translate(98.151501, 35.741134)">
            <path
              d="M110.43925,90.2206207 L8.82421757,90.2206207 L8.82421757,39.6140925 C8.82421757,28.521137 17.8377246,19.5278452 28.9566731,19.5278452 L90.3067946,19.5278452 C101.425743,19.5278452 110.43925,28.521137 110.43925,39.6140925 L110.43925,90.2206207 Z"
              fill="#D7DBE2" id="Fill-1"></path>
            <path
              d="M77.9946993,19.5280343 C77.9946993,27.3537958 74.2045256,37.2801664 61.649575,37.2801664 C46.7257658,37.2801664 40.5667334,28.8101362 40.5667334,19.5280343 L77.9946993,19.5280343 Z"
              fill="#B18058" id="SKIN"></path>
            <path
              d="M81.3749658,119.720943 C93.6290714,119.999827 104.052049,119.054458 115.160101,115.346723 C116.185343,115.004027 117.057083,114.352668 116.962802,113.277311 L115.467579,96.2195519 C104.058682,96.7144524 92.1442708,98.9251969 79.6040071,100.886364 C79.3680688,106.993445 79.1273928,112.630679 78.9061414,117.521543 C78.8454986,118.868694 80.0232951,119.690219 81.3749658,119.720943"
              fill="#CC2935" id="Fill-5"></path>
            <path
              d="M2.92642292,96.7638951 L1.57048826,112.231544 C1.41082719,114.049488 2.5147153,115.753988 4.25250997,116.323572 C15.9011353,120.141916 32.5845327,122.101665 43.5362398,122.867414 C45.270718,122.988421 46.7967368,121.758496 47.0582587,120.043125 C47.800659,115.180621 48.3360211,109.780203 48.7031942,104.036616 C36.9977162,103.581894 15.7613726,101.545097 2.92642292,96.7638951"
              fill="#CC2935" id="Fill-7"></path>
            <path
              d="M22.2617575,20.3801423 C13.9745426,22.8678798 7.93679576,30.5357648 7.93679576,39.6141398 L2.92618604,96.7640369 C15.7611357,101.545239 36.9979531,103.582036 48.703431,104.036285 C50.1493823,81.392343 51.9373968,35.8619717 38.1980169,28.7717069 C38.1980169,28.7717069 28.2488108,18.372652 22.2617575,20.3801423"
              fill="#FA3239" id="Fill-9"></path>
            <path
              d="M79.603865,100.886506 C92.6818596,101.565281 103.578609,100.619912 115.467437,96.2196937 L110.505152,39.6143288 C110.505152,29.5012479 103.012926,21.1375716 93.2650726,19.7374807 C92.0015234,24.6368536 87.4206246,26.1735503 80.8375666,29.2445803 C81.1469395,50.2322366 80.4211212,79.7636619 79.603865,100.886506"
              fill="#FA3239" id="Fill-11"></path>
            <path
              d="M142.104257,127.723347 C142.791226,131.97467 141.657964,136.110658 139.134656,139.322547 C136.625087,142.544364 132.717418,144.789142 128.151206,145.249536 C118.143252,146.25399 107.99364,146.687914 97.6630481,146.349472 C91.8702413,146.135819 86.0163179,145.659826 80.0993828,144.803795 C74.1833954,143.933583 68.2029749,142.731074 62.1851265,140.84979 C56.1781749,138.974652 50.1247936,136.485496 44.2831883,133.033955 L43.1883018,132.394886 C42.8234976,132.182651 42.4582196,131.972306 42.1033646,131.719893 L39.9638115,130.261189 C39.255049,129.765343 38.5387061,129.291714 37.8427355,128.770343 C37.1538714,128.232901 36.4593221,127.700185 35.7818285,127.149981 C33.0808559,124.9364 30.5750773,122.516257 28.2957615,119.954308 C23.7295497,114.827574 20.0762959,109.173324 17.181077,103.402321 C14.2825416,97.6218644 12.1155097,91.7137832 10.448307,85.8217732 C8.78442075,79.925509 7.61846854,74.0353898 6.80121232,68.1840306 C5.98679873,62.3312534 5.51729096,56.5144002 5.32446587,50.732053 C5.14206375,45.3869388 6.974139,40.5665041 9.92810568,37.2837116 C12.8858625,33.9820116 16.9399272,32.2198445 21.2427219,32.5143268 C25.5535708,32.8088091 29.309633,34.9997009 32.0229237,38.10051 C34.7390569,41.2192812 36.4247367,45.2550599 36.5758699,49.6812758 C36.9018249,59.283385 38.115628,68.738962 40.5437081,77.354579 C42.9604176,85.9616877 46.6743141,93.6513162 51.6688156,99.2308819 C52.9143615,100.631445 54.2390272,101.903912 55.6409177,103.052535 L56.7078517,103.890604 C57.0731297,104.162397 57.4739405,104.408193 57.8515366,104.672896 L58.9928527,105.465588 C59.1738335,105.605975 59.3870307,105.72131 59.5983329,105.838536 L60.2256067,106.195885 C63.5202152,108.147599 67.3307612,109.767488 71.4525752,111.054135 C75.5710727,112.351653 80.0330548,113.261098 84.6158487,113.933727 C89.208118,114.597849 93.9510467,114.993958 98.7688313,115.17216 C107.380106,115.452935 116.207421,115.097476 125.052739,114.205521 C129.076956,113.799012 132.929194,115.084241 136.017238,117.483114 C139.095333,119.895222 141.417288,123.469661 142.104257,127.723347"
              fill="#B18058" id="SKIN"></path>
            <path
              d="M153.164789,137.279511 C153.627191,139.584793 151.993152,141.850841 149.524801,142.28902 C138.80619,144.184956 128.048729,145.504218 117.083283,146.112563 C114.560448,146.25106 112.441267,144.413263 112.365464,142.071112 C112.287765,139.716672 114.190432,137.750305 116.60809,137.618426 C127.183148,137.03277 137.640711,135.75085 148.02484,133.913054 C150.400805,133.491419 152.700967,134.978011 153.164789,137.279511"
              fill="#B18058" id="SKIN"></path>
            <path
              d="M156.907302,128.766561 C157.441716,131.054353 155.886797,133.363416 153.486196,133.844136 C148.831389,134.77107 144.186531,135.571325 139.516563,136.245373 C138.315078,136.413648 137.160496,136.094114 136.275017,135.440391 C135.387643,134.779578 134.768423,133.78316 134.618237,132.618938 C134.468052,131.453299 134.809641,130.339655 135.474817,129.477479 C136.139044,128.606794 137.125437,127.988523 138.289494,127.82592 C142.814014,127.173142 147.321005,126.395577 151.802411,125.503149 C154.095466,125.044172 156.370045,126.478297 156.907302,128.766561"
              fill="#B18058" id="SKIN"></path>
            <path
              d="M156.090709,121.191606 C156.694768,123.46569 155.236972,125.766245 152.919755,126.239402 C148.423661,127.162082 143.90151,127.943902 139.364672,128.622676 C137.023766,128.963009 134.87758,127.333666 134.573892,125.001442 C134.270678,122.673944 135.854023,120.535048 138.107282,120.207005 C142.497724,119.550446 146.885324,118.791788 151.196173,117.906923 C153.407266,117.455509 155.567665,118.902869 156.090709,121.191606"
              fill="#B18058" id="SKIN"></path>
            <path
              d="M138.312709,112.524514 C138.678461,114.842558 137.165234,117.015015 134.924294,117.318478 C130.580281,117.915951 126.224424,118.401398 121.874252,118.769619 C120.754255,118.854229 119.320148,117.917369 118.189729,116.919533 C117.057888,115.923114 116.221208,114.909679 116.221208,114.909679 C118.868644,114.745657 117.700797,110.575636 122.45936,110.182363 C126.220634,109.843448 129.99233,109.404325 133.756447,108.890044 C135.910213,108.59887 137.946484,110.20127 138.312709,112.524514"
              fill="#B18058" id="SKIN"></path>
            <path
              d="M150.963883,114.575869 L150.963883,114.575869 C151.455184,116.873588 150.044766,119.117893 147.788191,119.539527 C140.25143,120.941981 132.616599,122.042391 124.981294,122.760398 C122.696293,122.995795 120.699819,121.209994 120.52405,118.877296 C120.34828,116.524274 121.976634,114.517729 124.168302,114.29084 C131.533083,113.599303 138.940504,112.531037 146.207688,111.178687 C148.36714,110.775487 150.474477,112.278151 150.963883,114.575869"
              fill="#B18058" id="SKIN"></path>
            <path
              d="M114.164754,149.092601 C108.971268,149.310982 103.739407,149.389447 98.4355329,149.207936 C98.279662,149.31429 98.105314,149.418754 97.914384,149.520853 C97.7239278,149.622953 97.522101,149.72269 97.2553675,149.818644 C96.7455892,150.015281 96.1495843,150.171267 95.4834613,150.33198 C94.8168645,150.487965 94.0754117,150.632607 93.2638408,150.765904 C92.4527436,150.899674 91.5715282,151.02588 90.6111929,151.100564 C88.6938388,151.260804 86.5220692,151.413954 84.0665104,151.372358 C83.4548711,151.365268 82.8285448,151.35865 82.1884792,151.351087 C81.5488874,151.343524 80.8927136,151.326035 80.2137987,151.277821 C78.8611805,151.196992 77.4526571,151.097256 75.9920189,150.98003 C70.1177233,150.392011 63.2906728,149.223535 55.7619664,146.782593 C52.0059042,145.58292 48.0674399,143.974848 44.0583836,141.997137 C43.5585544,141.769303 43.0558826,141.494674 42.5527371,141.211536 C42.050539,140.930761 41.5464459,140.649041 41.0414053,140.366849 C40.0327453,139.790647 39.0202951,139.23477 38.0121089,138.610827 C37.0058177,137.948123 36,137.27313 34.9951306,136.585374 C34.4948276,136.239369 33.9926296,135.892892 33.4899578,135.545469 C32.9882335,135.195682 32.4988274,134.796264 32.0037359,134.419062 C30.0172111,132.898437 28.1439177,131.230806 26.3208441,129.506927 C24.5399362,127.754686 22.801194,125.941942 21.2206915,124.038915 C18.0080455,120.251768 15.2682236,116.202281 12.9358455,112.0904 C10.5902017,107.975683 8.7131181,103.7929 7.13356318,99.6578576 C5.56774764,95.5204518 4.35536581,91.4288963 3.38176492,87.4418041 C1.46441077,79.4671471 0.543872313,71.920742 0.18522712,65.0630379 C-0.175786931,58.2010797 0.0250922785,52.0141147 0.493178739,46.6940527 C0.403162112,39.4052606 3.08328874,32.9138869 7.22831753,28.6072601 C11.3709775,24.2817259 17.6797569,19.7374807 26.3208441,20.1228523 C34.9619313,20.5082239 35.2487759,21.1698922 38.6912012,25.3347137 C42.128415,29.5146611 42.1116556,40.4881803 42.1822476,46.2005703 C42.9279643,51.7522476 43.8162862,57.4584926 44.978922,63.0096972 C46.1316086,68.5613745 47.5747173,73.9542299 49.3433071,78.7878997 C50.2169422,81.2141883 51.1971759,83.4679471 52.2157851,85.5638294 C53.2462386,87.6474218 54.3444414,89.5339049 55.4748608,91.2327324 C56.6209145,92.9098163 57.7972897,94.3992446 59.0144093,95.7180338 C59.6359978,96.355685 60.2428994,96.9938088 60.8881764,97.5581939 L61.3647908,97.9930634 L61.8968364,98.4000446 C62.2474275,98.6746742 62.5913858,98.9559214 62.9301326,99.2452042 C63.0883723,99.3964632 63.2873564,99.5240879 63.4868143,99.6531308 L64.0709749,100.048768 C64.4580464,100.314889 64.838485,100.5881 65.2170287,100.865093 C66.0849784,101.347704 66.8941805,101.876165 67.7559713,102.372011 C68.2112659,102.606462 68.6622966,102.839496 69.1095371,103.070166 C69.3326836,103.189755 69.5548825,103.308399 69.7756602,103.42657 C69.9950165,103.54805 70.213899,103.669529 70.458839,103.769266 C71.4139628,104.204608 72.3510832,104.631915 73.2687791,105.05024 C77.0542151,106.6966 81.0130516,107.948268 84.5687084,109.032133 C88.1253127,110.134433 91.3796506,110.949813 93.9569688,111.738251 C95.2541558,112.118289 96.4025784,112.452949 97.3510694,112.804154 C97.82721,112.973847 98.2512357,113.156776 98.6359383,113.308035 C99.0196934,113.464966 99.2774252,113.619534 99.5327882,113.773629 C103.844111,113.924888 108.232658,113.859658 112.641104,113.673893 L114.164754,149.092601 Z"
              fill="#FA3239" id="Fill-28"></path>
            <path
              d="M98.6088386,149.211103 L99.6961447,113.067297 C103.942087,113.212884 108.265254,113.149544 112.610688,112.964252 L114.164185,149.091514 C109.0285,149.309894 103.853018,149.385997 98.6088386,149.211103"
              fill="#CC2935" id="Fill-31"></path>
            <path
              d="M35.3552444,0.410600728 C15.9306039,2.77402231 14.0843155,19.2064199 22.2616154,20.8527793 C28.7224403,22.1540792 32.8651003,29.7208098 38.5314101,32.6273456 C39.795433,33.2758685 41.2840238,32.2827588 41.1850055,30.8680146 C41.1570529,30.4671783 41.1291004,30.0687054 41.1011479,29.6735413 C40.7898799,25.291285 41.4465275,19.6861944 45.8497618,19.719755 C53.74422,19.7783679 65.5652982,19.7693869 73.1603327,19.7027384 C77.2802516,19.6663417 80.6738784,23.4029112 80.7738443,27.5124286 C80.7904263,28.1869492 80.8060607,28.8695053 80.8198001,29.5586791 C80.8472789,30.9478983 82.3571894,31.8015661 83.565781,31.1109743 C88.6867796,28.1845857 92.1817935,24.4092561 93.2648357,20.2104013 C93.4998265,19.300484 93.6291661,18.372132 93.6291661,17.4272361 C93.6291661,6.4628507 55.0963645,-1.99110828 35.3552444,0.410600728"
              fill="#CC2935" id="Fill-13"></path>
          </g>
          <g id="Group-29" transform="translate(119.541076, 0.000000)">
            <path
              d="M26.8194796,59.7306589 L21.4911848,59.7306589 C9.62178498,59.7306589 0,50.1216077 0,38.2679162 C0,36.2451327 1.64192177,34.6058579 3.66691115,34.6058579 L26.8194796,34.6058579 C27.2125155,34.6058579 27.5315012,34.9239474 27.5315012,35.3169372 L27.5315012,59.0195797 C27.5315012,59.4125695 27.2125155,59.7306589 26.8194796,59.7306589"
              fill="#000000" id="Fill-1"></path>
            <path
              d="M26.107458,46.4571792 L23.3410168,46.4571792 C13.5958148,46.4571792 5.69617266,38.5675176 5.69617266,28.8356867 C5.69617266,26.9698147 7.2108799,25.456638 9.07969922,25.456638 L26.107458,25.456638 L26.107458,46.4571792 Z"
              fill="#000000" id="Fill-3"></path>
            <path
              d="M47.705446,59.7306589 L53.0337409,59.7306589 C64.9031406,59.7306589 74.5249256,50.1216077 74.5249256,38.2679162 C74.5249256,36.2451327 72.8830038,34.6058579 70.8580145,34.6058579 L47.705446,34.6058579 C47.3124101,34.6058579 46.9934244,34.9239474 46.9934244,35.3169372 L46.9934244,59.0195797 C46.9934244,59.4125695 47.3124101,59.7306589 47.705446,59.7306589"
              fill="#000000" id="Fill-5"></path>
            <path
              d="M50.3161918,46.4571792 L53.082633,46.4571792 C62.8278351,46.4571792 70.7274772,38.5675176 70.7274772,28.8356867 C70.7274772,26.9698147 69.2127699,25.456638 67.3439506,25.456638 L50.3161918,25.456638 L50.3161918,46.4571792 Z"
              fill="#000000" id="Fill-7"></path>
            <path
              d="M36.9305658,49.7755491 L38.9237516,49.7755491 L38.9237516,0 L36.9305658,0 C23.6129141,0 12.8162935,10.781858 12.8162935,24.0823588 L12.8162935,25.6931903 C12.8162935,38.9936911 23.6129141,49.7755491 36.9305658,49.7755491"
              fill="#000000" id="Fill-9"></path>
            <path
              d="M41.6905725,49.7755491 L38.8624228,49.7755491 C34.9638673,49.7755491 31.8034408,46.6193052 31.8034408,42.7263832 L31.8034408,7.04916586 C31.8034408,3.15624387 34.9638673,0 38.8624228,0 L41.6905725,0 C54.5810112,0 65.0311146,10.4362735 65.0311146,23.3096526 L65.0311146,26.4658965 C65.0311146,39.3392756 54.5810112,49.7755491 41.6905725,49.7755491"
              fill="#000000" id="Fill-12"></path>
            <path
              d="M42.3411703,35.5539636 L37.9745793,35.5539636 L37.9745793,0 L42.3411703,0 C55.658822,0 66.4554426,6.0413295 66.4554426,19.3418303 L66.4554426,25.6931903 C66.4554426,35.5539636 55.658822,35.5539636 42.3411703,35.5539636"
              fill="#000000" id="Fill-15"></path>
            <path
              d="M26.5821391,34.6058579 L47.9427865,34.6058579 L47.9427865,59.0826287 C47.9427865,65.6743335 43.1613243,71.0178572 37.2624628,71.0178572 C31.3636013,71.0178572 26.5821391,65.6743335 26.5821391,59.0826287 L26.5821391,34.6058579 Z"
              fill="#B18058" id="SKIN"></path>
            <path
              d="M48.9170694,49.7755491 L46.549835,49.7755491 C35.5220447,49.7755491 26.5823764,40.8477118 26.5823764,29.834516 L26.5823764,20.4805052 C26.5823764,12.0494753 33.4258532,5.21458133 41.8685304,5.21458133 L44.5234216,5.21458133 C52.9660988,5.21458133 59.8100503,12.0494753 59.8100503,20.4805052 L59.8100503,38.8969843 C59.8100503,44.9051301 54.9331771,49.7755491 48.9170694,49.7755491"
              fill="#B18058" id="SKIN"></path>
            <path
              d="M36.9068081,50.8809342 C32.4946677,49.3221977 30.2934719,45.3852386 29.4217866,40.0897943 C32.8731878,45.826818 39.1330017,49.6870558 46.3022616,49.7740478 L46.549835,49.7755491 L47.9427865,49.7755491 C44.175343,51.7807163 40.4966835,52.1491782 36.9068081,50.8809342 Z"
              fill="#000000" id="SHADOW" opacity="0.12"></path>
            <path
              d="M32.2783117,32.946673 C32.2783117,36.2190598 29.6219965,38.8723336 26.3447985,38.8723336 C23.0676005,38.8723336 20.4112854,36.2190598 20.4112854,32.946673 C20.4112854,29.6742862 23.0676005,27.0210124 26.3447985,27.0210124 C29.6219965,27.0210124 32.2783117,29.6742862 32.2783117,32.946673"
              fill="#B18058" id="SKIN"></path>
            <path
              d="M25.1898521,30.4192602 C25.6193582,30.4192602 26.2137332,30.5181916 26.823619,30.822731 C27.8425596,31.331527 28.4870021,32.2618221 28.5302349,33.6113446 L28.5325561,33.7575404 L27.1085129,33.7575404 C27.1085129,32.8874706 26.7756127,32.3887812 26.1867675,32.0947482 C25.9680984,31.9855584 25.7265655,31.9131944 25.4838406,31.8727938 C25.3644066,31.8529144 25.2712946,31.8443791 25.2173882,31.8420862 L25.1898521,31.8414188 L25.1898521,30.4192602 Z"
              fill="#000000" id="Stroke-24"></path>
            <path
              d="M25.632777,27.0210124 L24.9036669,27.0210124 C22.124884,24.3227036 21.0573263,18.8236905 20.7354925,13.4863295 C20.2945138,6.17216809 33.0102699,0 40.347415,0 L40.347415,0 C45.9918474,0 51.2774209,2.76420216 54.4919611,7.3975947 L57.9110887,12.3253741 L38.3053371,12.3253741 C38.3053371,20.3842725 31.3289496,27.0210124 25.632777,27.0210124"
              fill="#000000" id="Fill-26"></path>
          </g>
          <g fill="#000000" id="Expression/Happy" transform="translate(156.176758, 20.538200)">
            <path
              d="M5.52825395,6.20878703 C5.52825395,5.41740548 4.8860376,4.77599002 4.0936679,4.77599002 C3.3012982,4.77599002 2.65908184,5.41740548 2.65908184,6.20878703 C2.65908184,7.00016858 3.3012982,7.64158404 4.0936679,7.64158404 C4.8860376,7.64158404 5.52825395,7.00016858 5.52825395,6.20878703"
              id="Fill-1"></path>
            <path
              d="M17.9613331,6.20878703 C17.9613331,5.41740548 17.3191167,4.77599002 16.526747,4.77599002 C15.7343773,4.77599002 15.092161,5.41740548 15.092161,6.20878703 C15.092161,7.00016858 15.7343773,7.64158404 16.526747,7.64158404 C17.3191167,7.64158404 17.9613331,7.00016858 17.9613331,6.20878703"
              id="Fill-3"></path>
            <polygon id="Stroke-5"
                     points="11.5712483 4.96548507 12.9818453 4.70455745 15.0320619 15.760576 10.3102075 15.760576 10.3102075 14.327779 13.3072012 14.3274925"></polygon>
            <path
              d="M6.17917346,15.5630411 C6.17917346,17.3178652 7.96861954,18.9407136 9.88979891,19.00368 L10.0052145,19.0055747 L10.0052145,20.4383717 C7.32843446,20.4383717 4.82788995,18.2576624 4.74662424,15.6916543 L4.74458741,15.5630411 L6.17917346,15.5630411 Z"
              id="Stroke-7"></path>
            <path
              d="M6.72374233,0 L6.72374233,1.43279701 C5.18088022,1.43279701 3.77360883,1.84618421 2.52923478,2.53664097 C2.15590987,2.74378506 1.8212701,2.96321277 1.52813162,3.18343438 L1.38503381,3.29355811 C1.21874406,3.42467585 1.10228254,3.5268209 1.03850491,3.58752249 L1.01440554,3.61096377 L0,2.59782326 C0.342939255,2.2553117 0.962037506,1.76715944 1.8325382,1.28415105 C3.21516628,0.516982246 4.77689185,0.0425274736 6.4893007,0.00272075734 L6.72374233,0 Z"
              id="Stroke-9"></path>
            <path
              d="M13.4184773,0 C15.2229826,0 16.8642066,0.482110928 18.3096814,1.28415105 C19.1257758,1.73697141 19.720911,2.19431276 20.0746883,2.53193246 L20.1422196,2.59782326 L19.127814,3.61096377 L19.0362126,3.52563397 C18.9826985,3.47799653 18.912248,3.41798999 18.8253938,3.34794126 L18.7571858,3.29355811 C18.4314215,3.03669653 18.0485305,2.77830907 17.6129848,2.53664097 C16.4308295,1.88070702 15.1016592,1.47482839 13.6488862,1.43588039 L13.4184773,1.43279701 L13.4184773,0 Z"
              id="Stroke-11"></path>
          </g>
        </g>
        <g id="Plants/Small/Plant" transform="translate(0.000000, 311.000000)">
          <path
            d="M90.2252444,140 L59.5210245,140 C53.7213385,140 48.8797479,137.334709 48.3567182,133.855222 L43.6268657,102.352941 L106.119403,102.352941 L101.38955,133.855222 C100.866521,137.334709 96.0249304,140 90.2252444,140"
            fill="#000000" id="Fill-60"></path>
          <g id="Group" transform="translate(71.925373, 61.176471)">
            <path
              d="M43.4619054,54.1176471 C43.4018515,53.7708539 37.2344056,19.4050688 15.7684529,17.8573259 C4.48688838,17.0202715 1.37552155,34.724779 1.34501795,34.9043514 L0,34.6782233 C0.0324100712,34.4862993 0.824550337,29.9048281 3.12757187,25.3537606 C6.2484711,19.1855915 10.653381,16.1309606 15.8675896,16.5005567 C25.2274274,17.176091 33.2050711,23.8848774 38.938794,35.9010257 C43.2264558,44.886296 44.7916716,53.7984073 44.8059701,53.8877184 L43.4619054,54.1176471 Z"
              fill="#000000" id="Fill-72"
              transform="translate(22.402985, 35.294118) scale(-1, 1) translate(-22.402985, -35.294118) "></path>
            <path
              d="M29.0231707,68.2352942 C29.0231707,68.2352942 28.6887361,61.1980889 32.7877283,56.8935473 C36.8867205,52.5890057 44.2481365,52.9190237 46.924577,50.7681836 C49.6019813,48.615436 50.7729842,45.1378471 53.6171239,43.7309783 C56.4612635,42.3231557 59.9752359,45.1378471 65.9979501,42.1571929 C72.0206642,39.1765387 73.1087814,18.8947368 74.4465196,16.162073 C75.7852218,13.4303631 86.0746269,5.06831653 86.0746269,5.06831653 C86.0746269,5.06831653 82.8122028,6.68788483 78.7132106,6.58201195 C74.6142189,6.47613912 65.1613819,-0.395103389 62.6516769,0.017896057 C60.1419713,0.432803121 52.9453633,6.14421347 51.6924384,8.04897071 C50.4385497,9.95372801 49.3504325,15.0852222 43.7460028,20.1356427 C38.141573,25.1860632 34.8791492,28.083736 33.7071825,31.1464178 C32.5371433,34.2100534 29.9435887,37.6876423 30.1941737,40.0874266 C30.4457224,42.4891186 30.5498116,50.5516689 30.0708087,52.2427729 C29.5927697,53.9348307 27.0859559,63.9297989 29.0231707,68.2352942"
              fill="#BE6FFB" id="Fill-74"
              transform="translate(57.186567, 34.117647) scale(-1, 1) translate(-57.186567, -34.117647) "></path>
            <path
              d="M8.25373135,34.1176471 C8.25373135,34.1176471 8.54794699,32.9847006 9.11625265,30.9645294 C10.5307876,25.9300454 14.1418769,16.9311864 22.76709,17.5417395 C32.0219437,18.1963725 38.2541395,23.7185488 42.65779,30.917636 C42.65779,30.917636 39.6571741,25.0278148 40.137311,21.8559398 C40.6174479,18.6831269 44.158577,14.9832312 43.5586455,11.6931847 C42.958714,8.40313806 37.9762159,8.22775642 34.674676,6.58273312 C31.3731361,4.93770983 29.8129308,2.35294118 26.1510486,2.35294118 C22.4891665,2.35294118 14.5654707,12.4566105 12.1647864,14.6305922 C9.76410199,16.8036362 8.25373135,34.1176471 8.25373135,34.1176471"
              fill="#870CF7" id="Fill-75"
              transform="translate(25.940299, 18.235294) scale(-1, 1) translate(-25.940299, -18.235294) "></path>
          </g>
          <g id="Group"
             transform="translate(37.731343, 102.352941) scale(-1, 1) translate(-37.731343, -102.352941) translate(3.537313, 75.294118)">
            <path
              d="M34.3120306,42.3529412 C34.2646196,42.082009 29.3955833,15.2337395 12.4487786,14.0245652 C3.5422803,13.3706165 1.08593807,27.202263 1.06185628,27.342554 L0,27.1658913 C0.0255868983,27.0159507 0.650960796,23.4366763 2.46913568,19.8811549 C4.93300348,15.0622728 8.41056397,12.6758424 12.5270444,12.9645894 C19.9163901,13.4923505 26.2145298,18.7335899 30.7411532,28.1212057 C34.1261493,35.1409482 35.361846,42.1035351 35.3731343,42.1733094 L34.3120306,42.3529412 Z"
              fill="#000000" id="Fill-72"
              transform="translate(17.686567, 27.647059) scale(-1, 1) translate(-17.686567, -27.647059) "></path>
            <path
              d="M22.9797578,54.1176471 C22.9797578,54.1176471 22.7135752,48.5364153 25.9760384,45.1224685 C29.2385016,41.7085217 35.0975878,41.9702602 37.2278159,40.2644215 C39.3588111,38.5570699 40.2908339,35.7989821 42.5545369,34.6831897 C44.8182399,33.5666407 47.6150753,35.7989821 52.4086638,33.435015 C57.2022525,31.0710479 58.0683049,14.9854809 59.1330352,12.8181958 C60.198533,10.6516672 68.3880597,4.01969932 68.3880597,4.01969932 C68.3880597,4.01969932 65.7914364,5.3041845 62.5289734,5.22021639 C59.2665104,5.13624827 51.7428237,-0.31335786 49.7453034,0.0141934245 C47.747783,0.343257648 42.0198704,4.87299689 41.0226443,6.38366642 C40.0246513,7.894336 39.1585988,11.9641418 34.6979303,15.9696477 C30.2372617,19.9751536 27.6406387,22.2733079 26.7078488,24.7023314 C25.7765932,27.1321113 23.7123354,29.8901991 23.9117806,31.7934763 C24.1119929,33.6982664 24.1948394,40.0927029 23.8135922,41.4339233 C23.4331121,42.7759002 21.4378931,50.7029439 22.9797578,54.1176471"
              fill="#870CF7" id="Fill-74"
              transform="translate(45.395522, 27.058824) scale(-1, 1) translate(-45.395522, -27.058824) "></path>
            <path
              d="M5.89552237,27.0588235 C5.89552237,27.0588235 6.13089485,26.177643 6.58553944,24.6063987 C7.71716739,20.6906889 10.6060388,13.6915764 17.5062093,14.166451 C24.9100923,14.67561 29.8958488,18.970636 33.4187692,24.569926 C33.4187692,24.569926 31.0182766,19.988954 31.4023861,17.5219401 C31.7864956,15.0541967 34.6193989,12.1765001 34.1394537,9.61757501 C33.6595085,7.05864983 29.67351,6.92224195 27.032278,5.64277936 C24.3910461,4.3633168 23.142882,2.35294118 20.2133762,2.35294118 C17.2838705,2.35294118 10.9449138,10.2113507 9.02436636,11.9022254 C7.10381888,13.5923706 5.89552237,27.0588235 5.89552237,27.0588235"
              fill="#BE6FFB" id="Fill-75"
              transform="translate(20.044776, 14.705882) scale(-1, 1) translate(-20.044776, -14.705882) "></path>
          </g>
          <path
            d="M65.5301003,48.2360752 C74.7838979,69.798567 76.1389779,93.1166453 75.2178113,115.425605 L75.1729859,116.470588 L73.531021,116.392299 C74.5366804,93.7830841 73.2596295,70.0758211 63.6716418,48.2352941 L65.5301003,48.2360752 Z"
            fill="#000000" id="Path"></path>
          <path
            d="M61.8796994,33.2085123 C29.808184,44.6347258 11.3453818,59.184497 0.60636255,77.6470588 L0,76.4808782 C-0.0159565426,53.5499211 3.69788319,31.6496788 15.3533175,9.81618757 C15.3533175,9.81618757 43.4239235,-6.38469091 73.1045291,2.83971874 C73.1045291,2.83971874 68.7141684,6.86834227 68.0145615,10.9725517 C67.314954,15.0757793 69.5924414,26.8259317 61.8796994,33.2085123"
            fill="#BE6FFB" id="Fill-66"
            transform="translate(36.552265, 38.823529) scale(-1, 1) translate(-36.552265, -38.823529) "></path>
        </g>
      </g>
    </g>
  </g>
</svg>
