<?xml version="1.0" encoding="UTF-8"?>
<svg height="80px" version="1.1" viewBox="0 0 178 80" width="178px" xmlns="http://www.w3.org/2000/svg">
  <title>PEACTIONS</title>
  <g fill="none" fill-rule="evenodd" id="Prototype_CDE" stroke="none" stroke-width="1">
    <g id="Page_login" transform="translate(-71.000000, -52.000000)">
      <g id="PEACTIONS" transform="translate(71.000000, 52.000000)">
        <g fill="#23333B" fill-rule="nonzero" id="Group" transform="translate(78.918919, 6.486486)">
          <path
            d="M5.97405809,0.390642744 C6.87465531,0.390642744 7.65362847,0.499659323 8.31097756,0.720720721 C8.96832666,0.941782118 9.51273913,1.25066243 9.93842334,1.64433341 C10.3670034,2.04103263 10.6855426,2.51343781 10.8911452,3.06457718 C11.0996436,3.61571656 11.2038928,4.21833598 11.2038928,4.8754637 C11.2038928,5.55681732 11.0938519,6.18063442 10.8795619,6.74994322 C10.6623761,7.31925203 10.3351495,7.8067984 9.90367361,8.21561057 C9.46930196,8.62442274 8.9248895,8.94238777 8.27043621,9.16950564 C7.61598292,9.39662351 6.85148882,9.50866833 5.9769539,9.50866833 L4.10626,9.50866833 L4.10626,14.4628662 L1.60138348,14.4628662 L1.60138348,0.390642744 L5.97405809,0.390642744 Z M5.97405809,7.46460746 C6.43449204,7.46460746 6.83411396,7.4040427 7.17581965,7.2859414 C7.51752535,7.16481187 7.80131483,6.99523052 8.02718809,6.77114089 C8.25306134,6.54705125 8.42391419,6.2745098 8.53395501,5.95351654 C8.64689164,5.63252328 8.70191205,5.27519116 8.70191205,4.87849194 C8.70191205,4.50299039 8.64689164,4.16079945 8.53395501,3.85797562 C8.42391419,3.55212355 8.25595716,3.29472329 8.0300839,3.07971837 C7.80710645,2.86471345 7.52331697,2.70118858 7.18450709,2.58914377 C6.84280139,2.47709895 6.44028366,2.41956242 5.97405809,2.41956242 L4.10336418,2.41956242 L4.10336418,7.47066394 L5.97405809,7.47066394 L5.97405809,7.46460746 Z"
            id="Shape"></path>
          <path
            d="M16.5437682,4.32129609 C17.2503461,4.32129609 17.896112,4.44242562 18.4752742,4.68165645 C19.0544364,4.92088727 19.5525159,5.2630782 19.963721,5.70217276 C20.3749262,6.14429556 20.6934654,6.68332198 20.9164428,7.31622379 C21.1394203,7.95215383 21.2523569,8.66378984 21.2523569,9.44810357 C21.2523569,10.2384738 21.1394203,10.953138 20.9164428,11.5890681 C20.6934654,12.2249981 20.3749262,12.7670528 19.963721,13.215232 C19.54962,13.6634113 19.0544364,14.0056022 18.4752742,14.2478613 C17.896112,14.4870921 17.2503461,14.6082217 16.5437682,14.6082217 C15.8313987,14.6082217 15.1827371,14.4870921 14.5977832,14.2478613 C14.0157252,14.0086305 13.5176457,13.6634113 13.1035448,13.215232 C12.6894438,12.7670528 12.3709046,12.2249981 12.1450313,11.5890681 C11.9191581,10.953138 11.8062214,10.2384738 11.8062214,9.44810357 C11.8062214,8.66378984 11.9191581,7.95215383 12.1450313,7.31622379 C12.3709046,6.68029374 12.6894438,6.14126732 13.1035448,5.70217276 C13.5147499,5.26004997 14.0128294,4.92088727 14.5977832,4.68165645 C15.1827371,4.44242562 15.8313987,4.32129609 16.5437682,4.32129609 Z M19.7552226,3.09485957 L18.2204428,3.09485957 C18.1335685,3.09485957 18.0437983,3.07669014 17.9540282,3.04035128 C17.864258,3.00401242 17.7744879,2.94041941 17.6876136,2.84957226 L16.7754331,1.83814066 C16.7059336,1.77454766 16.6422258,1.69581346 16.5814138,1.60496631 C16.5119143,1.69581346 16.4482065,1.77454766 16.3873944,1.83814066 L15.4578391,2.84957226 C15.382548,2.93436293 15.2985695,2.9949277 15.2059035,3.0342948 C15.1132376,3.0736619 15.0205716,3.09183133 14.9279057,3.09183133 L13.3352096,3.09183133 L15.4665265,0.387614505 L17.6268015,0.387614505 L19.7552226,3.09485957 Z M16.5437682,12.7609963 C17.3372204,12.7609963 17.9250701,12.4823984 18.3073171,11.9252025 C18.6895642,11.3680067 18.8806877,10.5503823 18.8806877,9.47232947 C18.8806877,8.39427663 18.6895642,7.57362404 18.3073171,7.01037172 C17.9250701,6.44711939 17.3372204,6.16246499 16.5437682,6.16246499 C15.735837,6.16246499 15.1392999,6.44711939 14.7512612,7.01339995 C14.3632225,7.58270876 14.1692032,8.40033311 14.1692032,9.46930123 C14.1692032,10.5382694 14.3632225,11.3558937 14.7512612,11.9161178 C15.1421957,12.4793701 15.7387328,12.7609963 16.5437682,12.7609963 Z"
            id="Shape"></path>
          <polygon id="Path"
                   points="25.3383462 2.35092355e-15 25.3383462 14.4628662 23.0390723 14.4628662 23.0390723 2.35092355e-15"></polygon>
          <path
            d="M29.4069607,9.77212507 C29.4446062,10.2838973 29.5314806,10.7260201 29.6675837,11.1015217 C29.8036868,11.473995 29.9832271,11.7828753 30.2062045,12.0251344 C30.429182,12.2673934 30.6955966,12.4490877 31.0025525,12.5702173 C31.3095085,12.6913468 31.6483184,12.7488833 32.021878,12.7488833 C32.3954376,12.7488833 32.7139768,12.7034598 32.9861831,12.6126126 C33.2554935,12.5217655 33.49295,12.4218336 33.692761,12.3097888 C33.8954677,12.2007722 34.0721122,12.0978121 34.2226944,12.0069649 C34.3732765,11.9161178 34.5209629,11.8706942 34.6657535,11.8706942 C34.856877,11.8706942 35.0016675,11.9464002 35.0943335,12.0947839 L35.7545784,12.9699447 C35.499747,13.2818533 35.2159575,13.5422818 34.8974183,13.7542585 C34.5817749,13.9662351 34.2516525,14.1327883 33.907051,14.2599743 C33.5624495,14.3871603 33.2120563,14.4749792 32.8558716,14.5264592 C32.4996868,14.5779393 32.1521895,14.6051934 31.8191712,14.6051934 C31.1560305,14.6051934 30.5392228,14.4901204 29.9658522,14.2599743 C29.3953774,14.0298281 28.8972979,13.6876372 28.4774054,13.2394579 C28.0546169,12.7882504 27.7244945,12.2310546 27.4812464,11.5648422 C27.2408941,10.8986297 27.11927,10.1294572 27.11927,9.25429631 C27.11927,8.57294269 27.2235192,7.93095617 27.4349134,7.33136498 C27.6463076,6.73177379 27.9474719,6.20788856 28.3413022,5.76576577 C28.7351325,5.32061473 29.2158372,4.96933909 29.7834161,4.70891059 C30.3509951,4.4484821 30.9909693,4.31826785 31.7062346,4.31826785 C32.3085633,4.31826785 32.864559,4.41819971 33.3713259,4.62109168 C33.8809887,4.82095541 34.3182561,5.11469453 34.6831283,5.50230903 C35.0480005,5.8868953 35.3346858,6.36232872 35.5431842,6.9225528 C35.7516826,7.48277689 35.8559318,8.12476342 35.8559318,8.84548414 C35.8559318,9.20887274 35.8182862,9.45416004 35.7429951,9.58134605 C35.6677041,9.70853206 35.5258093,9.77212507 35.3144151,9.77212507 L29.4069607,9.77212507 L29.4069607,9.77212507 Z M33.7912185,8.32159891 C33.7912185,8.00969036 33.7506772,7.71595125 33.6666987,7.44038156 C33.5827201,7.16481187 33.4582003,6.9225528 33.2902432,6.7166326 C33.1222862,6.50768415 32.910892,6.34415929 32.6531648,6.22605799 C32.3954376,6.10492846 32.0971691,6.04739193 31.7554634,6.04739193 C31.0923227,6.04739193 30.5681809,6.24422742 30.1859338,6.64092664 C29.8036868,7.03762586 29.5604387,7.59784995 29.4561895,8.32462715 L33.7912185,8.32462715 L33.7912185,8.32159891 Z"
            id="Shape"></path>
          <path
            d="M43.8686408,9.77212507 C43.9062864,10.2838973 43.9931607,10.7260201 44.1292638,11.1015217 C44.2653669,11.473995 44.4449072,11.7828753 44.6678846,12.0251344 C44.8908621,12.2673934 45.1572767,12.4490877 45.4642327,12.5702173 C45.7711886,12.6913468 46.1099985,12.7488833 46.4835581,12.7488833 C46.8571178,12.7488833 47.175657,12.7034598 47.4478632,12.6126126 C47.7171736,12.5217655 47.9546301,12.4218336 48.1544411,12.3097888 C48.3571479,12.2007722 48.5337923,12.0978121 48.6843745,12.0069649 C48.8349567,11.9161178 48.982643,11.8706942 49.1274336,11.8706942 C49.3185571,11.8706942 49.4633477,11.9464002 49.5560136,12.0947839 L50.2162585,12.9699447 C49.9614271,13.2818533 49.6776377,13.5422818 49.3590985,13.7542585 C49.0434551,13.9662351 48.7133326,14.1327883 48.3687311,14.2599743 C48.0241296,14.3871603 47.6737365,14.4749792 47.3175517,14.5264592 C46.961367,14.5779393 46.6138696,14.6051934 46.2808514,14.6051934 C45.6177106,14.6051934 45.0009029,14.4901204 44.4275323,14.2599743 C43.8570576,14.0298281 43.3589781,13.6876372 42.9390855,13.2394579 C42.5162971,12.7882504 42.1861746,12.2310546 41.9429265,11.5648422 C41.7025742,10.8986297 41.5809501,10.1294572 41.5809501,9.25429631 C41.5809501,8.57294269 41.6851993,7.93095617 41.8965935,7.33136498 C42.1079877,6.73177379 42.4091521,6.20788856 42.8029824,5.76576577 C43.1968127,5.32061473 43.6775173,4.96933909 44.2450962,4.70891059 C44.8126752,4.4484821 45.4526494,4.31826785 46.1679147,4.31826785 C46.7702434,4.31826785 47.3262391,4.41819971 47.8330061,4.62109168 C48.3426688,4.82095541 48.7799363,5.11469453 49.1448084,5.50230903 C49.5096806,5.8868953 49.7963659,6.36232872 50.0048643,6.9225528 C50.2133627,7.48277689 50.3176119,8.12476342 50.3176119,8.84548414 C50.3176119,9.20887274 50.2799664,9.45416004 50.2046753,9.58134605 C50.1293842,9.70853206 49.9874894,9.77212507 49.7760952,9.77212507 L43.8686408,9.77212507 L43.8686408,9.77212507 Z M48.2528987,8.32159891 C48.2528987,8.00969036 48.2123573,7.71595125 48.1283788,7.44038156 C48.0444003,7.16481187 47.9198804,6.9225528 47.7519234,6.7166326 C47.5839663,6.50768415 47.3725721,6.34415929 47.1148449,6.22605799 C46.8571178,6.10492846 46.5588492,6.04739193 46.2171435,6.04739193 C45.5540028,6.04739193 45.029861,6.24422742 44.647614,6.64092664 C44.2653669,7.03762586 44.0221188,7.59784995 43.9178696,8.32462715 L48.2528987,8.32462715 L48.2528987,8.32159891 Z"
            id="Shape"></path>
          <path
            d="M52.0406194,14.4628662 L52.0406194,4.47876448 L53.4450878,4.47876448 C53.7433563,4.47876448 53.9373756,4.62411992 54.0300416,4.91785904 L54.177728,5.65674919 C54.345685,5.46294193 54.5194337,5.28427587 54.7047656,5.120751 C54.8872017,4.95722613 55.0841168,4.81792717 55.2926152,4.70285411 C55.5011136,4.58475282 55.724091,4.49390567 55.9615475,4.42425619 C56.199004,4.35460671 56.4625228,4.32129609 56.7492081,4.32129609 C57.3515368,4.32129609 57.8467205,4.49087743 58.2347592,4.83306836 C58.6227978,5.17223105 58.9123789,5.6264668 59.1035025,6.18971913 C59.2511888,5.85964115 59.4394165,5.57498675 59.662394,5.33878416 C59.8853714,5.10258157 60.1315154,4.90877432 60.39793,4.76039064 C60.6643446,4.61200696 60.9481341,4.49996215 61.2492984,4.43031267 C61.5504628,4.35763495 61.8516271,4.32432432 62.1556873,4.32432432 C62.6827249,4.32432432 63.1518462,4.409115 63.5601556,4.57869634 C63.9684649,4.74827769 64.3130665,4.99356499 64.5939601,5.31758649 C64.871958,5.64160799 65.086248,6.03830721 65.2310385,6.50465592 C65.3758291,6.97100462 65.4511202,7.5070028 65.4511202,8.10962223 L65.4511202,14.4628662 L63.1518462,14.4628662 L63.1518462,8.10659399 C63.1518462,7.47066394 63.0186389,6.99220229 62.7522243,6.67120902 C62.4858097,6.35021576 62.0948752,6.18971913 61.5794209,6.18971913 C61.3448602,6.18971913 61.1247785,6.23211447 60.9220718,6.31690514 C60.719365,6.40169581 60.5427205,6.52282535 60.3921384,6.68332198 C60.2386604,6.84079037 60.1199321,7.0406541 60.0330578,7.28291317 C59.9461835,7.52214399 59.9027463,7.79771368 59.9027463,8.10962223 L59.9027463,14.4628662 L57.5947849,14.4628662 L57.5947849,8.10659399 C57.5947849,7.43735332 57.4673693,6.95283519 57.2096421,6.64698312 C56.9519149,6.34113105 56.5754595,6.18971913 56.07738,6.18971913 C55.7414659,6.18971913 55.4316141,6.2745098 55.142033,6.44711939 C54.8524519,6.61972897 54.5860373,6.85290332 54.3369976,7.15269892 L54.3369976,14.4628662 L52.0406194,14.4628662 Z"
            id="Path"></path>
          <path
            d="M69.8064199,5.84147172 C70.1973544,5.3811795 70.6404135,5.00870619 71.138493,4.72102354 C71.6336767,4.43636914 72.2186305,4.29404194 72.8875628,4.29404194 C73.4088088,4.29404194 73.8837218,4.409115 74.3151976,4.63320463 C74.7466735,4.86032251 75.1173373,5.19040048 75.4329807,5.62041033 C75.7486241,6.05042017 75.9889764,6.58339011 76.1598292,7.21629192 C76.3306821,7.84919373 76.4146606,8.57294269 76.4146606,9.39056704 C76.4146606,10.1355137 76.3190988,10.8289802 76.1250795,11.4649103 C75.9310602,12.1008403 75.6588539,12.6519797 75.3026692,13.1183284 C74.9464844,13.5846771 74.5150086,13.951094 74.0082417,14.2145507 C73.5014747,14.4780074 72.9367916,14.6082217 72.3084006,14.6082217 C71.7755714,14.6082217 71.3180333,14.523431 70.9415778,14.3508214 C70.5651224,14.1782118 70.2263125,13.9420092 69.928044,13.6361572 L69.928044,17.7242789 L67.62877,17.7242789 L67.62877,4.47876448 L69.0332384,4.47876448 C69.3315069,4.47876448 69.5255262,4.62411992 69.6181922,4.91785904 L69.8064199,5.84147172 Z M69.9251482,11.8737225 C70.1857712,12.2038004 70.4695606,12.4369748 70.7765166,12.5732455 C71.0834726,12.7095162 71.4164908,12.7791657 71.7755714,12.7791657 C72.1230687,12.7791657 72.4358163,12.7095162 72.71671,12.5732455 C72.9947078,12.4369748 73.2321643,12.2280263 73.4290795,11.9494284 C73.6230988,11.6708305 73.773681,11.3195548 73.880826,10.8925732 C73.9850752,10.4686199 74.0400956,9.96593232 74.0400956,9.3875388 C74.0400956,8.8030888 73.9937626,8.30948596 73.9039925,7.90370202 C73.8142223,7.49791809 73.6868067,7.16784011 73.5188496,6.91649633 C73.3508926,6.66212431 73.1481858,6.47740177 72.9107293,6.36232872 C72.670377,6.24422742 72.4010666,6.18669089 72.0970064,6.18669089 C71.6191976,6.18669089 71.2137841,6.29267923 70.87787,6.50162768 C70.5419559,6.71360436 70.2263125,7.01037172 69.928044,7.39192974 L69.928044,11.8737225 L69.9251482,11.8737225 Z"
            id="Shape"></path>
          <polygon id="Path"
                   points="80.5267122 2.35092355e-15 80.5267122 14.4628662 78.2274383 14.4628662 78.2274383 2.35092355e-15"></polygon>
          <path
            d="M87.0480786,4.32129609 C87.7546565,4.32129609 88.4004223,4.44242562 88.9795845,4.68165645 C89.5587467,4.92088727 90.0568262,5.2630782 90.4680314,5.70217276 C90.8792365,6.14429556 91.1977758,6.68332198 91.4207532,7.31622379 C91.6437307,7.95215383 91.7566673,8.66378984 91.7566673,9.44810357 C91.7566673,10.2384738 91.6437307,10.953138 91.4207532,11.5890681 C91.1977758,12.2249981 90.8792365,12.7670528 90.4680314,13.215232 C90.0539304,13.6634113 89.5587467,14.0056022 88.9795845,14.2478613 C88.4004223,14.4870921 87.7546565,14.6082217 87.0480786,14.6082217 C86.3357091,14.6082217 85.6870474,14.4870921 85.1020936,14.2478613 C84.5200356,14.0086305 84.0219561,13.6634113 83.6078551,13.215232 C83.1937542,12.7670528 82.8752149,12.2249981 82.6493417,11.5890681 C82.4234684,10.953138 82.3105318,10.2384738 82.3105318,9.44810357 C82.3105318,8.66378984 82.4234684,7.95215383 82.6493417,7.31622379 C82.8752149,6.68029374 83.1937542,6.14126732 83.6078551,5.70217276 C84.0190603,5.26004997 84.5171398,4.92088727 85.1020936,4.68165645 C85.6870474,4.44242562 86.3357091,4.32129609 87.0480786,4.32129609 Z M87.0480786,12.7609963 C87.8415308,12.7609963 88.4293804,12.4823984 88.8116275,11.9252025 C89.1938745,11.3680067 89.3849981,10.5503823 89.3849981,9.47232947 C89.3849981,8.39427663 89.1938745,7.57362404 88.8116275,7.01037172 C88.4293804,6.44711939 87.8415308,6.16246499 87.0480786,6.16246499 C86.2401473,6.16246499 85.6436103,6.44711939 85.2555716,7.01339995 C84.8675329,7.58270876 84.6735136,8.40033311 84.6735136,9.46930123 C84.6735136,10.5382694 84.8675329,11.3558937 85.2555716,11.9161178 C85.6465061,12.4793701 86.2430431,12.7609963 87.0480786,12.7609963 Z"
            id="Shape"></path>
          <path
            d="M96.2162162,1.56862745 C96.2162162,1.7775759 96.1756749,1.97138315 96.0945922,2.15307745 C96.0135094,2.33477175 95.9063644,2.49224014 95.7731571,2.62851086 C95.6399498,2.76478159 95.483576,2.87379817 95.3040358,2.9555606 C95.1244955,3.03732304 94.9304761,3.07669014 94.7277694,3.07669014 C94.5279584,3.07669014 94.3426265,3.03732304 94.165982,2.9555606 C93.9893376,2.87379817 93.8358596,2.76478159 93.7055481,2.62851086 C93.5752366,2.49224014 93.4709874,2.33477175 93.3928005,2.15307745 C93.3146136,1.97138315 93.2769681,1.7775759 93.2769681,1.56862745 C93.2769681,1.35362253 93.3146136,1.1537588 93.3928005,0.966008025 C93.4709874,0.778257249 93.5752366,0.614732379 93.7055481,0.478461655 C93.8358596,0.34219093 93.9893376,0.233174351 94.165982,0.151411916 C94.3426265,0.0696494814 94.5308542,0.0302823832 94.7277694,0.0302823832 C94.9333719,0.0302823832 95.1244955,0.0696494814 95.3040358,0.151411916 C95.483576,0.233174351 95.6399498,0.34219093 95.7731571,0.478461655 C95.9063644,0.614732379 96.0135094,0.778257249 96.0945922,0.966008025 C96.1756749,1.1537588 96.2162162,1.35362253 96.2162162,1.56862745 Z M95.9005728,4.47876448 L95.9005728,14.4628662 L93.5926115,14.4628662 L93.5926115,4.47876448 L95.9005728,4.47876448 Z"
            id="Shape"></path>
          <path
            d="M13.1296071,35.515179 L11.1952053,35.515179 C10.9780195,35.515179 10.801375,35.4576425 10.6652719,35.3455977 C10.5291688,35.2335529 10.4249196,35.0912257 10.3583159,34.9216443 L9.35346952,32.0508744 L3.77903335,32.0508744 L2.77418694,34.9216443 C2.72495815,35.070028 2.62939639,35.2062987 2.48460584,35.3304565 C2.3427111,35.4546143 2.16606663,35.515179 1.95467242,35.515179 L0,35.515179 L5.29643832,21.4429556 L7.8476478,21.4429556 L13.1296071,35.515179 Z M8.71059948,30.203649 L7.07157046,25.5219926 C6.99048775,25.3130441 6.90650923,25.0677568 6.8196349,24.7831024 C6.73276057,24.498448 6.64588624,24.1895677 6.55901191,23.8594897 C6.4779292,24.1895677 6.39395068,24.5014763 6.30707635,24.7891589 C6.22020202,25.0768415 6.1362235,25.3281853 6.0551408,25.5431902 L4.42769502,30.203649 L8.71059948,30.203649 L8.71059948,30.203649 Z"
            id="Shape"></path>
          <path
            d="M20.7513816,27.6417594 C20.6818821,27.7326066 20.6152785,27.8052843 20.5515707,27.8567643 C20.4878628,27.9082444 20.392301,27.9354985 20.2677812,27.9354985 C20.1490529,27.9354985 20.0361163,27.8991597 19.9231797,27.8234537 C19.810243,27.7477477 19.6770357,27.6659853 19.5235577,27.5690817 C19.367184,27.4752063 19.1847479,27.3904156 18.9704578,27.3147097 C18.7561678,27.2390037 18.4897532,27.2026648 18.1741098,27.2026648 C17.7715921,27.2026648 17.4183032,27.2783708 17.114243,27.4297827 C16.8101828,27.5811946 16.5582473,27.802256 16.3555405,28.0869104 C16.1528337,28.3715648 16.0022516,28.716784 15.903794,29.1225679 C15.8053364,29.5283519 15.7561076,29.9856159 15.7561076,30.5004164 C15.7561076,31.0333863 15.811128,31.5057915 15.9182731,31.9206602 C16.0254181,32.3355288 16.1846877,32.6837762 16.3873944,32.9684306 C16.592997,33.2500568 16.839141,33.4650617 17.1316179,33.6104171 C17.4240948,33.7557726 17.7513214,33.8284503 18.1190894,33.8284503 C18.4839616,33.8284503 18.7822301,33.7799985 19.0081034,33.6861231 C19.2339766,33.5922477 19.4251002,33.4892876 19.581474,33.3742146 C19.7378478,33.2621697 19.8710551,33.1561814 19.9868875,33.062306 C20.1027199,32.9684306 20.2301356,32.9199788 20.3720304,32.9199788 C20.5573623,32.9199788 20.6963612,32.9956848 20.791923,33.1440684 L21.4521679,34.0192293 C21.1973365,34.3311379 20.9222345,34.5915664 20.6239659,34.803543 C20.3256974,35.0155197 20.0187414,35.1820728 19.6973064,35.3092588 C19.3787672,35.4364448 19.0486447,35.5242638 18.7098349,35.5757438 C18.371025,35.6272239 18.0351109,35.654478 17.6991968,35.654478 C17.1084514,35.654478 16.5553515,35.539405 16.0341055,35.3092588 C15.5128595,35.0791127 15.0582172,34.7429783 14.6672827,34.3008555 C14.2763482,33.8587327 13.9664964,33.3197063 13.7406232,32.680748 C13.5147499,32.0417897 13.4018133,31.3119843 13.4018133,30.4973881 C13.4018133,29.7645545 13.5031667,29.0832008 13.7029776,28.4593838 C13.9056844,27.8325384 14.2010571,27.2904838 14.5919916,26.8332198 C14.9829261,26.3759558 15.4665265,26.0186237 16.0427929,25.7581952 C16.6190593,25.4977667 17.2850958,25.3675524 18.0351109,25.3675524 C18.7474804,25.3675524 19.3729756,25.488682 19.9115964,25.7279128 C20.4473215,25.9671436 20.9309219,26.3123628 21.3595019,26.7605421 L20.7513816,27.6417594 Z"
            id="Path"></path>
          <path
            d="M32.5170617,35.515179 L30.2177878,35.515179 L30.2177878,27.3298509 L25.7871969,27.3298509 L25.7871969,32.7413127 C25.7871969,33.0532213 25.8595922,33.2954804 26.0072786,33.4711182 C26.1520691,33.646756 26.3518801,33.7345749 26.6067114,33.7345749 C26.7486062,33.7345749 26.8702302,33.7164055 26.965792,33.6800666 C27.0613538,33.6437278 27.1453323,33.6073889 27.2177276,33.5680218 C27.2901228,33.5286547 27.3538307,33.4923158 27.4088511,33.455977 C27.4638715,33.4196381 27.5188919,33.4014687 27.5768081,33.4014687 C27.6463076,33.4014687 27.701328,33.4196381 27.7447652,33.455977 C27.7882023,33.4923158 27.8345353,33.5437959 27.8837641,33.6164736 L28.5729671,34.7853736 C28.237053,35.0760845 27.8519102,35.2971459 27.4175385,35.4485578 C26.9831669,35.5969415 26.5343162,35.6726474 26.0680906,35.6726474 C25.2369928,35.6726474 24.5999144,35.4273601 24.1568553,34.9367855 C23.7137963,34.4462109 23.4908188,33.7709138 23.4908188,32.9078658 L23.4908188,27.3298509 L22.5149305,27.3298509 C22.3904106,27.3298509 22.2861614,27.2874555 22.1992871,27.2026648 C22.1124128,27.1178742 22.0689756,26.9906882 22.0689756,26.8241351 L22.0689756,25.87024 L23.6037554,25.5976985 L24.0873559,22.8813688 C24.1192098,22.7511545 24.177126,22.6512227 24.2640004,22.5785449 C24.3508747,22.5058672 24.4638113,22.4725566 24.5999144,22.4725566 L25.7900927,22.4725566 L25.7900927,25.615868 L32.5199575,25.615868 L32.5199575,35.515179 L32.5170617,35.515179 Z M32.9166836,22.5815732 C32.9166836,22.7905216 32.8761423,22.9843289 32.7950596,23.1690514 C32.7139768,23.3537739 32.6068318,23.5142706 32.4736245,23.6505413 C32.3404172,23.786812 32.1811476,23.8958286 31.9987115,23.977591 C31.8162754,24.0593535 31.6222561,24.0987206 31.4166535,24.0987206 C31.2168426,24.0987206 31.0315107,24.0593535 30.857762,23.977591 C30.6840133,23.8958286 30.5334312,23.786812 30.4002239,23.6505413 C30.2699124,23.5142706 30.1656632,23.3537739 30.0874763,23.1690514 C30.0092894,22.9843289 29.9716438,22.7874934 29.9716438,22.5815732 C29.9716438,22.3665682 30.0092894,22.1667045 30.0874763,21.981982 C30.1656632,21.7972594 30.2699124,21.6337346 30.4002239,21.4944356 C30.5305354,21.3551366 30.6811175,21.2461201 30.857762,21.1643576 C31.0315107,21.0825952 31.2168426,21.0432281 31.4166535,21.0432281 C31.6222561,21.0432281 31.8162754,21.0825952 31.9987115,21.1643576 C32.1811476,21.2461201 32.3404172,21.3551366 32.4736245,21.4944356 C32.6068318,21.6337346 32.7139768,21.7972594 32.7950596,21.981982 C32.8761423,22.1697328 32.9166836,22.3665682 32.9166836,22.5815732 Z"
            id="Shape"></path>
          <path
            d="M39.084761,25.3766371 C39.7913389,25.3766371 40.4371048,25.4977667 41.016267,25.7369975 C41.5954292,25.9762283 42.0935087,26.3184193 42.5047138,26.7575138 C42.915919,27.1996366 43.2344582,27.738663 43.4574356,28.3715648 C43.6804131,29.0074949 43.7933497,29.7191309 43.7933497,30.5034446 C43.7933497,31.2938148 43.6804131,32.0084791 43.4574356,32.6444091 C43.2344582,33.2803392 42.915919,33.8223938 42.5047138,34.2705731 C42.0906129,34.7187524 41.5954292,35.0609433 41.016267,35.3032024 C40.4371048,35.5424332 39.7913389,35.6635627 39.084761,35.6635627 C38.3723915,35.6635627 37.7237299,35.5424332 37.138776,35.3032024 C36.556718,35.0639715 36.0586385,34.7187524 35.6445376,34.2705731 C35.2304366,33.8223938 34.9118974,33.2803392 34.6860241,32.6444091 C34.4601509,32.0084791 34.3472142,31.2938148 34.3472142,30.5034446 C34.3472142,29.7191309 34.4601509,29.0074949 34.6860241,28.3715648 C34.9118974,27.7356348 35.2304366,27.1966084 35.6445376,26.7575138 C36.0557427,26.315391 36.5538222,25.9762283 37.138776,25.7369975 C37.7237299,25.4947384 38.3723915,25.3766371 39.084761,25.3766371 Z M39.084761,33.8133091 C39.8782133,33.8133091 40.4660629,33.5347112 40.8483099,32.9775153 C41.230557,32.4203195 41.4216805,31.6026951 41.4216805,30.5246423 C41.4216805,29.4465894 41.230557,28.6259369 40.8483099,28.0626845 C40.4660629,27.4994322 39.8782133,27.2147778 39.084761,27.2147778 C38.2768298,27.2147778 37.6802927,27.4994322 37.292254,28.0657128 C36.9042154,28.6350216 36.710196,29.4526459 36.710196,30.5216141 C36.710196,31.5905822 36.9042154,32.4082065 37.292254,32.9684306 C37.6802927,33.5316829 38.2797256,33.8133091 39.084761,33.8133091 Z"
            id="Shape"></path>
          <path
            d="M47.7026946,26.7575138 C47.8938181,26.5576501 48.0994207,26.3698993 48.3108149,26.1972897 C48.5222091,26.0246801 48.7509781,25.8793247 48.9913305,25.7581952 C49.228787,25.6370656 49.4865141,25.5431902 49.7587204,25.476569 C50.0309266,25.4069195 50.3291951,25.3736089 50.6506302,25.3736089 C51.1718761,25.3736089 51.6352059,25.4674843 52.0377236,25.6522068 C52.4402414,25.8369294 52.7790512,26.0973579 53.0483617,26.4304641 C53.3176721,26.7635703 53.5232747,27.1632978 53.6622736,27.6266182 C53.8012725,28.0899387 53.870772,28.601711 53.870772,29.1589068 L53.870772,35.515179 L51.5714981,35.515179 L51.5714981,29.1589068 C51.5714981,28.5502309 51.4382908,28.0778257 51.1718761,27.7416913 C50.9054615,27.4085851 50.4971522,27.2390037 49.9527397,27.2390037 C49.5560136,27.2390037 49.182454,27.3328791 48.8349567,27.5206299 C48.4874593,27.7083806 48.1573369,27.9657809 47.8474851,28.2898024 L47.8474851,35.5121508 L45.5482112,35.5121508 L45.5482112,25.5280491 L46.9526795,25.5280491 C47.2509481,25.5280491 47.4449674,25.6734045 47.5376333,25.9671436 L47.7026946,26.7575138 Z"
            id="Path"></path>
          <path
            d="M57.3457452,20.4981452 C57.6440137,21.0099175 57.8438247,21.5459157 57.9509697,22.1000833 C58.0552189,22.6542509 58.0668021,23.202362 57.9799278,23.7444167 C57.8930535,24.2864713 57.7106174,24.8043001 57.4355153,25.3009312 C57.1604133,25.7975623 56.7897495,26.2427133 56.3235239,26.6394125 L55.5966753,26.1821485 C55.5358633,26.1427814 55.4895303,26.0973579 55.4663639,26.0398213 C55.4403016,25.985313 55.4316141,25.9308048 55.4345099,25.8732682 C55.4374057,25.8187599 55.448989,25.7642516 55.4721555,25.7127716 C55.495322,25.6612915 55.5242801,25.615868 55.5619256,25.5765009 C55.6922371,25.412976 55.816757,25.2009993 55.9354852,24.9345143 C56.0542135,24.6680294 56.1352962,24.371262 56.1816292,24.0381558 C56.2279621,23.7080778 56.2221705,23.3537739 56.1642543,22.9782724 C56.1063381,22.6027708 55.9644433,22.224241 55.7414659,21.8487395 C55.6372167,21.6609887 55.6053628,21.4974639 55.6545916,21.3581649 C55.7009245,21.2188659 55.8022779,21.1189341 55.9557559,21.0613975 L57.3457452,20.4981452 Z"
            id="Path"></path>
          <path
            d="M65.2831631,27.4782345 C65.2223511,27.5811946 65.1557475,27.6538724 65.0891438,27.6962677 C65.0196443,27.738663 64.93277,27.7598607 64.8285208,27.7598607 C64.7155842,27.7598607 64.5968559,27.7265501 64.4694402,27.6629571 C64.3420246,27.5993641 64.1943382,27.5236581 64.0263812,27.4449239 C63.8584241,27.3631615 63.6673006,27.2904838 63.4530106,27.2268908 C63.2387206,27.1632978 62.986785,27.1299871 62.6943081,27.1299871 C62.2425616,27.1299871 61.8863768,27.229919 61.6286497,27.432811 C61.3709225,27.6326747 61.2435068,27.8961314 61.2435068,28.2201529 C61.2435068,28.4351578 61.3101104,28.6138239 61.4433178,28.7591793 C61.5765251,28.9045348 61.7531695,29.034749 61.9732512,29.1437656 C62.1933328,29.2527822 62.4423725,29.3527141 62.7232662,29.440533 C63.0012641,29.5283519 63.2850535,29.6252555 63.5746346,29.7282156 C63.8642157,29.8311757 64.1480052,29.949277 64.4260031,30.0825195 C64.7040009,30.215762 64.9559365,30.3853433 65.1760181,30.5882353 C65.3960998,30.7941555 65.5727442,31.0364146 65.7059515,31.3240972 C65.8391588,31.6117798 65.9057625,31.9539708 65.9057625,32.3567265 C65.9057625,32.8382164 65.8246798,33.2803392 65.6596186,33.6861231 C65.4945573,34.091907 65.2513092,34.4431827 64.9298742,34.7369218 C64.6084392,35.0336892 64.2088173,35.2638353 63.7339043,35.4273601 C63.2589912,35.5939132 62.711683,35.6756757 62.0919794,35.6756757 C61.761857,35.6756757 61.4433178,35.6453933 61.1276744,35.5818003 C60.8149268,35.5212355 60.5137624,35.4334166 60.2241813,35.3244 C59.9346002,35.2153835 59.6681856,35.0851692 59.4249375,34.9337573 C59.1787936,34.7853736 58.9645035,34.6218487 58.7791716,34.4462109 L59.309105,33.5316829 C59.3786045,33.4226664 59.4567914,33.3378757 59.5523532,33.2773109 C59.6479149,33.2167462 59.7637474,33.189492 59.9056421,33.189492 C60.0475369,33.189492 60.18364,33.2318873 60.3110557,33.316678 C60.4384713,33.4014687 60.5861577,33.4923158 60.7541147,33.5892195 C60.9220718,33.6861231 61.1189869,33.7769702 61.3448602,33.8617609 C61.5707334,33.9465516 61.8574187,33.9889469 62.204916,33.9889469 C62.4771223,33.9889469 62.711683,33.9556363 62.9085981,33.8859868 C63.1026175,33.8163373 63.2647829,33.7285184 63.3921986,33.6195019 C63.5196142,33.5104853 63.6122802,33.380271 63.6701964,33.2349156 C63.7281126,33.0895601 63.7599666,32.9381482 63.7599666,32.7837081 C63.7599666,32.5505337 63.6933629,32.3597547 63.5601556,32.2083428 C63.4269483,32.0599591 63.2503038,31.9297449 63.0302222,31.8177001 C62.8101405,31.7086835 62.558205,31.6087516 62.2773113,31.5209327 C61.9935218,31.4331138 61.7068366,31.3392384 61.4114638,31.2332501 C61.1160911,31.13029 60.8294058,31.0091604 60.5456163,30.8668332 C60.2618269,30.7275343 60.0127871,30.5518964 59.7927055,30.3368915 C59.5726238,30.1218866 59.3959794,29.8614581 59.2627721,29.5495495 C59.1295648,29.237641 59.0629611,28.8621395 59.0629611,28.4200167 C59.0629611,28.0112045 59.141148,27.6205617 59.294626,27.2511167 C59.4509998,26.8816716 59.676873,26.5576501 59.9780374,26.2820804 C60.2792017,26.0065107 60.6527614,25.7854493 61.1045079,25.6188962 C61.5562544,25.4523431 62.0746046,25.3705807 62.6624542,25.3705807 C63.3198033,25.3705807 63.9192362,25.4856537 64.457857,25.7097434 C64.9964778,25.933833 65.4482244,26.2366568 65.8073049,26.6061019 L65.2831631,27.4782345 Z"
            id="Path"></path>
        </g>
        <g fill="#7540EE" fill-rule="nonzero" id="Group" transform="translate(80.000000, 50.810811)">
          <polygon id="Path"
                   points="4.18713832 5.32305018 4.18713832 6.21849449 0 6.21849449 0 0.39219988 1.33095325 0.39219988 1.33095325 5.32305018"></polygon>
          <path
            d="M5.62827942,4.27403363 C5.64857718,4.48667212 5.69497206,4.66859616 5.76746407,4.82453106 C5.83995608,4.98046595 5.93564553,5.10568639 6.05453242,5.20728034 C6.17341931,5.30887428 6.31550364,5.38211643 6.47788574,5.43409473 C6.64026784,5.48371037 6.82004801,5.50969952 7.02012595,5.50969952 C7.21730421,5.50969952 7.38838535,5.49079832 7.53046968,5.45299592 C7.67545369,5.41519353 7.80013995,5.37502848 7.90742812,5.32777548 C8.01471629,5.28052248 8.10750606,5.24035744 8.1886971,5.20255504 C8.26988815,5.16475264 8.34817952,5.14585144 8.42357121,5.14585144 C8.52506002,5.14585144 8.6004517,5.17656589 8.64974627,5.23799479 L9.00060758,5.59948022 C8.86432261,5.72942596 8.71353923,5.83574521 8.54535778,5.92316325 C8.37717632,6.0105813 8.20029582,6.08146079 8.01761597,6.13343909 C7.83493611,6.18541739 7.64935657,6.22321979 7.45797767,6.24448363 C7.26949846,6.26574748 7.08391892,6.27756073 6.90703842,6.27756073 C6.55327743,6.27756073 6.22561356,6.23030774 5.92404681,6.13343909 C5.62248006,6.03657044 5.35570947,5.8971741 5.13243409,5.71052476 C4.90915871,5.52387542 4.73227821,5.29233573 4.6017926,5.01826835 C4.47420667,4.74183831 4.40751402,4.42288058 4.40751402,4.06139514 C4.40751402,3.78023981 4.46260795,3.51326037 4.57569548,3.26518213 C4.68878301,3.0171039 4.84826542,2.79974011 5.0570424,2.61545342 C5.26581938,2.43116673 5.52099125,2.28468243 5.822558,2.17836319 C6.12412475,2.07204395 6.46338734,2.017703 6.84324545,2.017703 C7.16221029,2.017703 7.45797767,2.0602307 7.72764794,2.14292344 C7.99731821,2.22561619 8.22929263,2.34847398 8.42357121,2.50677152 C8.61784978,2.66743172 8.77153284,2.86353166 8.88172069,3.09507134 C8.99190854,3.32661103 9.04700247,3.59359047 9.04700247,3.89128435 C9.04700247,4.04249395 9.0267047,4.14408789 8.98900886,4.19606619 C8.94841334,4.24804449 8.87302165,4.27403363 8.75993412,4.27403363 L5.62827942,4.27403363 L5.62827942,4.27403363 Z M7.95672268,3.67392056 C7.95672268,3.54397482 7.93352524,3.42347968 7.89003004,3.31007248 C7.84653483,3.19666529 7.77984218,3.09507134 7.6899521,3.01001595 C7.60006201,2.92496055 7.48697448,2.85644371 7.3506895,2.80682806 C7.21440453,2.75721241 7.05492212,2.73122326 6.87224226,2.73122326 C6.51848126,2.73122326 6.24301164,2.81391601 6.04003402,2.97693885 C5.8370564,3.13996169 5.70657079,3.37386403 5.65147686,3.67392056 L7.95672268,3.67392056 L7.95672268,3.67392056 Z"
            id="Shape"></path>
          <path
            d="M12.3700361,6.21613184 L12.3700361,2.08149454 L13.1181536,2.08149454 C13.277636,2.08149454 13.3791248,2.14292344 13.4284194,2.26341859 L13.5067107,2.57056307 C13.5966008,2.49023297 13.6893906,2.41699083 13.78508,2.34847398 C13.8807695,2.27995713 13.985158,2.22325354 14.0953458,2.17600054 C14.2055337,2.12638489 14.3244206,2.08858249 14.4520065,2.0602307 C14.5795924,2.0318789 14.7187771,2.017703 14.8695605,2.017703 C15.1885253,2.017703 15.4523962,2.08858249 15.6582735,2.23034149 C15.8641508,2.37210048 16.0178339,2.55874982 16.1193227,2.79265216 C16.197614,2.65561847 16.2962032,2.53748597 16.4150901,2.44061733 C16.5339769,2.34374868 16.6644626,2.26341859 16.8065469,2.20198969 C16.9486312,2.14056079 17.0994146,2.09330779 17.258897,2.064956 C17.4183794,2.0366042 17.5807615,2.02006565 17.7402439,2.02006565 C18.0215129,2.02006565 18.2708854,2.0555054 18.4883614,2.12402224 C18.7058375,2.19253909 18.8885173,2.29649568 19.036401,2.43116673 C19.1842847,2.56583777 19.2973722,2.72886061 19.3756636,2.9225979 C19.453955,3.11633519 19.4916508,3.33842428 19.4916508,3.58650252 L19.4916508,6.21849449 L18.2708854,6.21849449 L18.2708854,3.58650252 C18.2708854,3.32424838 18.1983934,3.12578579 18.0592088,2.9934774 C17.9171244,2.86116901 17.7083475,2.79501481 17.4357775,2.79501481 C17.3110913,2.79501481 17.195104,2.81155336 17.0878159,2.84699311 C16.9805277,2.88243285 16.8877379,2.9320485 16.8065469,2.9982027 C16.7253558,3.0643569 16.6615629,3.14704964 16.615168,3.24628094 C16.5687731,3.34551223 16.5455757,3.45891943 16.5455757,3.58886517 L16.5455757,6.22085714 L15.3190109,6.22085714 L15.3190109,3.58650252 C15.3190109,3.31007248 15.2494186,3.10924724 15.1131336,2.98166415 C14.9768486,2.85408106 14.7767707,2.79265216 14.5128998,2.79265216 C14.3360193,2.79265216 14.1678378,2.82809191 14.0170545,2.8989714 C13.8633714,2.9698509 13.7212871,3.06671955 13.5879018,3.19193999 L13.5879018,6.21849449 L12.3700361,6.21849449 L12.3700361,6.21613184 Z"
            id="Path"></path>
          <path
            d="M21.593919,4.27403363 C21.6142168,4.48667212 21.6606117,4.66859616 21.7331037,4.82453106 C21.8055957,4.98046595 21.9012851,5.10568639 22.020172,5.20728034 C22.1390589,5.30887428 22.2811433,5.38211643 22.4435253,5.43409473 C22.6059074,5.48371037 22.7856876,5.50969952 22.9857656,5.50969952 C23.1829438,5.50969952 23.354025,5.49079832 23.4961093,5.45299592 C23.6410933,5.41519353 23.7657796,5.37502848 23.8730677,5.32777548 C23.9803559,5.28052248 24.0731457,5.24035744 24.1543367,5.20255504 C24.2355278,5.16475264 24.3138191,5.14585144 24.3892108,5.14585144 C24.4906996,5.14585144 24.5660913,5.17656589 24.6153859,5.23799479 L24.9662472,5.59948022 C24.8299622,5.72942596 24.6791788,5.83574521 24.5109974,5.92316325 C24.3428159,6.0105813 24.1659354,6.08146079 23.9832556,6.13343909 C23.8005757,6.18541739 23.6149962,6.22321979 23.4236173,6.24448363 C23.2351381,6.26574748 23.0495585,6.27756073 22.872678,6.27756073 C22.518917,6.27756073 22.1912532,6.23030774 21.8896864,6.13343909 C21.5881197,6.03657044 21.3213491,5.8971741 21.0980737,5.71052476 C20.8747983,5.52387542 20.6979178,5.29233573 20.5674322,5.01826835 C20.4398463,4.74183831 20.3731536,4.42288058 20.3731536,4.06139514 C20.3731536,3.78023981 20.4282476,3.51326037 20.5413351,3.26518213 C20.6544226,3.0171039 20.813905,2.79974011 21.022682,2.61545342 C21.231459,2.43116673 21.4866309,2.28468243 21.7881976,2.17836319 C22.0897644,2.07204395 22.4290269,2.017703 22.8088851,2.017703 C23.1278499,2.017703 23.4236173,2.0602307 23.6932875,2.14292344 C23.9629578,2.22561619 24.1949322,2.34847398 24.3892108,2.50677152 C24.5834894,2.66743172 24.7371724,2.86353166 24.8473603,3.09507134 C24.9575481,3.32661103 25.0126421,3.59359047 25.0126421,3.89128435 C25.0126421,4.04249395 24.9923443,4.14408789 24.9546485,4.19606619 C24.9140529,4.24804449 24.8386613,4.27403363 24.7255737,4.27403363 L21.593919,4.27403363 L21.593919,4.27403363 Z M23.9223623,3.67392056 C23.9223623,3.54397482 23.8991648,3.42347968 23.8556696,3.31007248 C23.8121744,3.19666529 23.7454818,3.09507134 23.6555917,3.01001595 C23.5657016,2.92496055 23.4526141,2.85644371 23.3163291,2.80682806 C23.1800441,2.75721241 23.0205617,2.73122326 22.8378819,2.73122326 C22.4841209,2.73122326 22.2086512,2.81391601 22.0056736,2.97693885 C21.802696,3.13996169 21.6722104,3.37386403 21.6171165,3.67392056 L23.9223623,3.67392056 L23.9223623,3.67392056 Z"
            id="Shape"></path>
          <path
            d="M26.8742368,4.27403363 C26.8945346,4.48667212 26.9409295,4.66859616 27.0134215,4.82453106 C27.0859135,4.98046595 27.1816029,5.10568639 27.3004898,5.20728034 C27.4193767,5.30887428 27.561461,5.38211643 27.7238431,5.43409473 C27.8862252,5.48371037 28.0660054,5.50969952 28.2660833,5.50969952 C28.4632616,5.50969952 28.6343427,5.49079832 28.7764271,5.45299592 C28.9214111,5.41519353 29.0460973,5.37502848 29.1533855,5.32777548 C29.2606737,5.28052248 29.3534634,5.24035744 29.4346545,5.20255504 C29.5158455,5.16475264 29.5941369,5.14585144 29.6695286,5.14585144 C29.7710174,5.14585144 29.8464091,5.17656589 29.8957037,5.23799479 L30.246565,5.59948022 C30.11028,5.72942596 29.9594966,5.83574521 29.7913152,5.92316325 C29.6231337,6.0105813 29.4462532,6.08146079 29.2635734,6.13343909 C29.0808935,6.18541739 28.895314,6.22321979 28.7039351,6.24448363 C28.5154558,6.26574748 28.3298763,6.27756073 28.1529958,6.27756073 C27.7992348,6.27756073 27.4715709,6.23030774 27.1700042,6.13343909 C26.8684375,6.03657044 26.6016669,5.8971741 26.3783915,5.71052476 C26.1551161,5.52387542 25.9782356,5.29233573 25.84775,5.01826835 C25.7201641,4.74183831 25.6534714,4.42288058 25.6534714,4.06139514 C25.6534714,3.78023981 25.7085653,3.51326037 25.8216529,3.26518213 C25.9347404,3.0171039 26.0942228,2.79974011 26.3029998,2.61545342 C26.5117768,2.43116673 26.7669486,2.28468243 27.0685154,2.17836319 C27.3700821,2.07204395 27.7093447,2.017703 28.0892028,2.017703 C28.4081677,2.017703 28.7039351,2.0602307 28.9736053,2.14292344 C29.2432756,2.22561619 29.47525,2.34847398 29.6695286,2.50677152 C29.8638072,2.66743172 30.0174902,2.86353166 30.1276781,3.09507134 C30.2378659,3.32661103 30.2929599,3.59359047 30.2929599,3.89128435 C30.2929599,4.04249395 30.2726621,4.14408789 30.2349663,4.19606619 C30.1943707,4.24804449 30.118979,4.27403363 30.0058915,4.27403363 L26.8742368,4.27403363 L26.8742368,4.27403363 Z M29.2026801,3.67392056 C29.2026801,3.54397482 29.1794826,3.42347968 29.1359874,3.31007248 C29.0924922,3.19666529 29.0257996,3.09507134 28.9359095,3.01001595 C28.8460194,2.92496055 28.7329319,2.85644371 28.5966469,2.80682806 C28.4603619,2.75721241 28.3008795,2.73122326 28.1181997,2.73122326 C27.7644387,2.73122326 27.488969,2.81391601 27.2859914,2.97693885 C27.0830138,3.13996169 26.9525282,3.37386403 26.8974343,3.67392056 L29.2026801,3.67392056 L29.2026801,3.67392056 Z"
            id="Shape"></path>
          <path
            d="M32.8562772,6.27992338 C32.4155258,6.27992338 32.0762632,6.17832944 31.8413891,5.97514155 C31.606515,5.77195366 31.4876281,5.49316097 31.4876281,5.13403819 L31.4876281,2.82572926 L30.9685854,2.82572926 C30.9018927,2.82572926 30.8467988,2.80919071 30.8004039,2.77375096 C30.754009,2.73831121 30.7308116,2.68633291 30.7308116,2.61545342 L30.7308116,2.22089089 L31.5456217,2.11220899 L31.8036933,0.985225 C31.8210914,0.930884053 31.8529878,0.890719005 31.8964831,0.860004557 C31.9399783,0.829290108 32.0008715,0.815114209 32.0733635,0.815114209 L32.7054938,0.815114209 L32.7054938,2.11693429 L34.0596445,2.11693429 L34.0596445,2.82572926 L32.7054938,2.82572926 L32.7054938,5.06552134 C32.7054938,5.19546709 32.7431897,5.29469838 32.8214811,5.36794053 C32.8997724,5.44118268 33.0041609,5.47662242 33.1404459,5.47662242 C33.2158376,5.47662242 33.2796305,5.46953447 33.3318248,5.45535857 C33.384019,5.44118268 33.4275142,5.42464413 33.4652101,5.40810558 C33.5029059,5.39156703 33.5377021,5.37739113 33.5666989,5.36085258 C33.5956957,5.34431403 33.6246925,5.33958873 33.656589,5.33958873 C33.6913851,5.33958873 33.7232816,5.34667668 33.7464791,5.36085258 C33.7696765,5.37502848 33.7957736,5.39865498 33.8218708,5.42700678 L34.1872305,5.91135 C34.01035,6.03184515 33.8044727,6.12398849 33.5724983,6.18541739 C33.3434235,6.24920893 33.10275,6.27992338 32.8562772,6.27992338 Z"
            id="Path"></path>
          <path
            d="M41.619111,2.08385719 L41.619111,6.21849449 L40.8709935,6.21849449 C40.7086114,6.21849449 40.6071226,6.15706559 40.5636274,6.03657044 L40.4795367,5.70579946 C40.2707597,5.8782729 40.041685,6.01766925 39.7923124,6.12398849 C39.5429399,6.23030774 39.2471726,6.28228603 38.90791,6.28228603 C38.6295407,6.28228603 38.3859675,6.24448363 38.1742909,6.16651619 C37.9626142,6.09091139 37.782834,5.9822295 37.63785,5.84283315 C37.492866,5.70343681 37.3826781,5.53805132 37.3101861,5.34431403 C37.2347944,5.15293939 37.1999983,4.9403009 37.1999983,4.70876121 L37.1999983,2.08149454 L38.4207637,2.08149454 L38.4207637,4.70876121 C38.4207637,4.96156475 38.4932557,5.15766469 38.63534,5.29469838 C38.780324,5.43409473 38.9949004,5.50261157 39.2819687,5.50261157 C39.4936454,5.50261157 39.6908236,5.46480917 39.8764032,5.38684173 C40.0619827,5.31123693 40.2359635,5.20491769 40.4012453,5.07024664 L40.4012453,2.08149454 L41.619111,2.08149454 L41.619111,2.08385719 Z"
            id="Path"></path>
          <path
            d="M43.9823504,2.64616787 C44.1911274,2.45479323 44.4260015,2.30122098 44.6898724,2.18308849 C44.9537433,2.064956 45.2640091,2.00588975 45.6206698,2.00588975 C45.8990391,2.00588975 46.1513113,2.05314275 46.380386,2.14764874 C46.6094608,2.24215474 46.806639,2.37682578 46.9748205,2.55638717 C47.143002,2.73594856 47.2705879,2.955675 47.360478,3.21792914 C47.4503681,3.48018327 47.4967629,3.78023981 47.4967629,4.11809874 C47.4967629,4.42760588 47.4445687,4.71348651 47.3430799,4.97574065 C47.2415911,5.23799479 47.0937074,5.46717182 46.9052282,5.66090911 C46.716749,5.8546464 46.4876742,6.005856 46.2180039,6.11453789 C45.9483337,6.22321979 45.6496666,6.27756073 45.3162034,6.27756073 C45.0320347,6.27756073 44.7913612,6.24212098 44.5883836,6.17124149 C44.385406,6.10036199 44.2085255,6.0011307 44.0490431,5.87591025 L44.0490431,7.56756757 L42.8282777,7.56756757 L42.8282777,2.08385719 L43.5763952,2.08385719 C43.7358776,2.08385719 43.8373664,2.14528609 43.886661,2.26578124 L43.9823504,2.64616787 Z M44.0461434,5.14585144 C44.1853281,5.28288513 44.3361114,5.37975378 44.4984935,5.43645738 C44.6608756,5.49316097 44.8377561,5.52151277 45.029135,5.52151277 C45.2147146,5.52151277 45.3799963,5.49316097 45.52788,5.43645738 C45.6757637,5.37975378 45.8033497,5.29469838 45.9048385,5.17892854 C46.0063273,5.06315869 46.0875183,4.9166744 46.1455119,4.74183831 C46.2006059,4.56700222 46.2296027,4.35908903 46.2296027,4.12046139 C46.2296027,3.8794711 46.2064052,3.67392056 46.1571107,3.50617242 C46.1078161,3.33842428 46.0411234,3.20139059 45.9512334,3.09743399 C45.8613433,2.9934774 45.7540551,2.91550995 45.6264692,2.86825696 C45.4988832,2.81864131 45.3538992,2.79501481 45.1944168,2.79501481 C44.9392449,2.79501481 44.7246686,2.83990516 44.5477881,2.92496055 C44.3709076,3.0123786 44.2027261,3.13523639 44.0432437,3.29353393 L44.0432437,5.14585144 L44.0461434,5.14585144 Z"
            id="Shape"></path>
          <path
            d="M55.250508,0.229177038 L55.250508,6.21613184 L54.5023905,6.21613184 C54.3400084,6.21613184 54.2385196,6.15470294 54.1950244,6.0342078 L54.0906359,5.63491997 C53.8847586,5.82629461 53.6498845,5.97986685 53.3860136,6.09799934 C53.119243,6.21613184 52.8118769,6.27519808 52.4581159,6.27519808 C52.1826463,6.27519808 51.9274744,6.22794509 51.6955,6.13343909 C51.4635256,6.03893309 51.2663473,5.90426205 51.1010655,5.72470066 C50.9357838,5.54513927 50.8052981,5.32541283 50.7154081,5.06315869 C50.625518,4.80090456 50.5791231,4.49848537 50.5791231,4.16062644 C50.5791231,3.85348196 50.6313173,3.56996397 50.7328061,3.30770983 C50.8342949,3.0454557 50.9821786,2.81627866 51.1735575,2.62254137 C51.3649364,2.42880408 51.5940112,2.27759448 51.8607818,2.16891259 C52.1275523,2.0602307 52.4291191,2.00588975 52.7596826,2.00588975 C53.0438513,2.00588975 53.2845248,2.0413295 53.4875024,2.11457164 C53.69048,2.18781379 53.8673605,2.28468243 54.0268429,2.40990288 L54.0268429,0.229177038 L55.250508,0.229177038 L55.250508,0.229177038 Z M54.0297426,3.13759904 C53.890558,3.00056535 53.7397746,2.9036967 53.5773925,2.84699311 C53.4150104,2.79028951 53.2381299,2.76193771 53.0496507,2.76193771 C52.8640711,2.76193771 52.6987894,2.79028951 52.5509057,2.84699311 C52.403022,2.9036967 52.275436,2.9887521 52.1710476,3.10215929 C52.0666591,3.21556649 51.985468,3.36205078 51.9274744,3.53688687 C51.8723805,3.71172296 51.8433837,3.91963615 51.8433837,4.15826379 C51.8433837,4.39925408 51.8665811,4.60480462 51.9158757,4.77255276 C51.9622706,4.9403009 52.0318629,5.07733459 52.121753,5.18365384 C52.2116431,5.28997308 52.3189312,5.36557788 52.4465172,5.41283088 C52.5741031,5.46008387 52.7190871,5.48371037 52.8756699,5.48371037 C53.1308417,5.48371037 53.3454181,5.44118268 53.5222986,5.35612728 C53.6991791,5.27107188 53.8673605,5.14821409 54.0268429,4.98991655 L54.0268429,3.13759904 L54.0297426,3.13759904 Z"
            id="Shape"></path>
          <path
            d="M57.3962714,4.27403363 C57.4165692,4.48667212 57.4629641,4.66859616 57.5354561,4.82453106 C57.6079481,4.98046595 57.7036375,5.10568639 57.8225244,5.20728034 C57.9414113,5.30887428 58.0834956,5.38211643 58.2458777,5.43409473 C58.4082598,5.48371037 58.58804,5.50969952 58.7881179,5.50969952 C58.9852962,5.50969952 59.1563773,5.49079832 59.2984617,5.45299592 C59.4434457,5.41519353 59.5681319,5.37502848 59.6754201,5.32777548 C59.7827083,5.28052248 59.875498,5.24035744 59.9566891,5.20255504 C60.0378801,5.16475264 60.1161715,5.14585144 60.1915632,5.14585144 C60.293052,5.14585144 60.3684437,5.17656589 60.4177383,5.23799479 L60.7685996,5.59948022 C60.6323146,5.72942596 60.4815312,5.83574521 60.3133498,5.92316325 C60.1451683,6.0105813 59.9682878,6.08146079 59.785608,6.13343909 C59.6029281,6.18541739 59.4173486,6.22321979 59.2259697,6.24448363 C59.0374904,6.26574748 58.8519109,6.27756073 58.6750304,6.27756073 C58.3212694,6.27756073 57.9936055,6.23030774 57.6920388,6.13343909 C57.3904721,6.03657044 57.1237015,5.8971741 56.9004261,5.71052476 C56.6771507,5.52387542 56.5002702,5.29233573 56.3697846,5.01826835 C56.2421987,4.74183831 56.175506,4.42288058 56.175506,4.06139514 C56.175506,3.78023981 56.2305999,3.51326037 56.3436875,3.26518213 C56.456775,3.0171039 56.6162574,2.79974011 56.8250344,2.61545342 C57.0338114,2.43116673 57.2889832,2.28468243 57.59055,2.17836319 C57.8921167,2.07204395 58.2313793,2.017703 58.6112374,2.017703 C58.9302023,2.017703 59.2259697,2.0602307 59.4956399,2.14292344 C59.7653102,2.22561619 59.9972846,2.34847398 60.1915632,2.50677152 C60.3858418,2.66743172 60.5395248,2.86353166 60.6497127,3.09507134 C60.7599005,3.32661103 60.8149945,3.59359047 60.8149945,3.89128435 C60.8149945,4.04249395 60.7946967,4.14408789 60.7570009,4.19606619 C60.7164053,4.24804449 60.6410136,4.27403363 60.5279261,4.27403363 L57.3962714,4.27403363 L57.3962714,4.27403363 Z M59.7247147,3.67392056 C59.7247147,3.54397482 59.7015172,3.42347968 59.658022,3.31007248 C59.6145268,3.19666529 59.5478342,3.09507134 59.4579441,3.01001595 C59.368054,2.92496055 59.2549665,2.85644371 59.1186815,2.80682806 C58.9823965,2.75721241 58.8229141,2.73122326 58.6402343,2.73122326 C58.2864733,2.73122326 58.0110036,2.81391601 57.808026,2.97693885 C57.6050484,3.13996169 57.4745628,3.37386403 57.4194689,3.67392056 L59.7247147,3.67392056 L59.7247147,3.67392056 Z"
            id="Shape"></path>
          <polygon id="Path"
                   points="65.3761915 0.229177038 65.3761915 6.21613184 64.1554261 6.21613184 64.1554261 0.229177038"></polygon>
          <path
            d="M67.4291652,0 C67.5886476,0.212638489 67.6959358,0.432364928 67.7510297,0.663904616 C67.8061236,0.895444305 67.811923,1.11989604 67.7655281,1.34434778 C67.7191332,1.56879952 67.6234438,1.78380066 67.4755601,1.9893512 C67.3276764,2.19490174 67.1304981,2.37918843 66.8840253,2.54221127 L66.4983678,2.35319928 C66.4664713,2.33666073 66.4432739,2.31775953 66.4287755,2.29413303 C66.4142771,2.27050654 66.4084777,2.24924269 66.4113774,2.22561619 C66.4113774,2.20198969 66.4200764,2.18072584 66.4316752,2.15946199 C66.4432739,2.13819814 66.4577723,2.11929694 66.47807,2.10275839 C66.5476624,2.0366042 66.614355,1.9468235 66.6752483,1.83814161 C66.7390413,1.72709706 66.7825365,1.60423927 66.8057339,1.46720558 C66.831831,1.33017188 66.8260317,1.18368759 66.7970349,1.0277527 C66.7651384,0.871817806 66.6897467,0.715882914 66.5708598,0.559948022 C66.5157659,0.481980576 66.4983678,0.413463729 66.5244649,0.356760132 C66.550562,0.300056535 66.6027563,0.257528837 66.6839473,0.233902338 L67.4291652,0 Z"
            id="Path"></path>
          <path
            d="M69.3922487,4.27403363 C69.4125465,4.48667212 69.4589414,4.66859616 69.5314334,4.82453106 C69.6039254,4.98046595 69.6996148,5.10568639 69.8185017,5.20728034 C69.9373886,5.30887428 70.0794729,5.38211643 70.241855,5.43409473 C70.4042371,5.48371037 70.5840173,5.50969952 70.7840953,5.50969952 C70.9812735,5.50969952 71.1523546,5.49079832 71.294439,5.45299592 C71.439423,5.41519353 71.5641092,5.37502848 71.6713974,5.32777548 C71.7786856,5.28052248 71.8714754,5.24035744 71.9526664,5.20255504 C72.0338575,5.16475264 72.1121488,5.14585144 72.1875405,5.14585144 C72.2890293,5.14585144 72.364421,5.17656589 72.4137156,5.23799479 L72.7645769,5.59948022 C72.6282919,5.72942596 72.4775085,5.83574521 72.3093271,5.92316325 C72.1411456,6.0105813 71.9642651,6.08146079 71.7815853,6.13343909 C71.5989054,6.18541739 71.4133259,6.22321979 71.221947,6.24448363 C71.0334678,6.26574748 70.8478882,6.27756073 70.6710077,6.27756073 C70.3172467,6.27756073 69.9895829,6.23030774 69.6880161,6.13343909 C69.3864494,6.03657044 69.1196788,5.8971741 68.8964034,5.71052476 C68.673128,5.52387542 68.4962475,5.29233573 68.3657619,5.01826835 C68.238176,4.74183831 68.1714833,4.42288058 68.1714833,4.06139514 C68.1714833,3.78023981 68.2265772,3.51326037 68.3396648,3.26518213 C68.4527523,3.0171039 68.6122347,2.79974011 68.8210117,2.61545342 C69.0297887,2.43116673 69.2849606,2.28468243 69.5865273,2.17836319 C69.888094,2.07204395 70.2273566,2.017703 70.6072148,2.017703 C70.9261796,2.017703 71.221947,2.0602307 71.4916172,2.14292344 C71.7612875,2.22561619 71.9932619,2.34847398 72.1875405,2.50677152 C72.3818191,2.66743172 72.5355021,2.86353166 72.64569,3.09507134 C72.7558778,3.32661103 72.8109718,3.59359047 72.8109718,3.89128435 C72.8109718,4.04249395 72.790674,4.14408789 72.7529782,4.19606619 C72.7123826,4.24804449 72.636991,4.27403363 72.5239034,4.27403363 L69.3922487,4.27403363 L69.3922487,4.27403363 Z M71.720692,3.67392056 C71.720692,3.54397482 71.6974945,3.42347968 71.6539993,3.31007248 C71.6105041,3.19666529 71.5438115,3.09507134 71.4539214,3.01001595 C71.3640313,2.92496055 71.2509438,2.85644371 71.1146588,2.80682806 C70.9783738,2.75721241 70.8188914,2.73122326 70.6362116,2.73122326 C70.2824506,2.73122326 70.0069809,2.81391601 69.8040033,2.97693885 C69.6010257,3.13996169 69.4705401,3.37386403 69.4154462,3.67392056 L71.720692,3.67392056 L71.720692,3.67392056 Z"
            id="Shape"></path>
          <path
            d="M73.7330701,6.21613184 L73.7330701,2.08149454 L74.4811876,2.08149454 C74.64067,2.08149454 74.7421588,2.14292344 74.7914534,2.26341859 L74.8697448,2.57056307 C74.9596349,2.49023297 75.0524246,2.41699083 75.1481141,2.34847398 C75.2438035,2.27995713 75.348192,2.22325354 75.4583799,2.17600054 C75.5685677,2.12638489 75.6874546,2.08858249 75.8150405,2.0602307 C75.9426265,2.0318789 76.0818111,2.017703 76.2325945,2.017703 C76.5515593,2.017703 76.8154302,2.08858249 77.0213075,2.23034149 C77.2271848,2.37210048 77.3808679,2.55874982 77.4823567,2.79265216 C77.5606481,2.65561847 77.6592372,2.53748597 77.7781241,2.44061733 C77.897011,2.34374868 78.0274966,2.26341859 78.1695809,2.20198969 C78.3116653,2.14056079 78.4624486,2.09330779 78.621931,2.064956 C78.7814135,2.0366042 78.9437956,2.02006565 79.103278,2.02006565 C79.384547,2.02006565 79.6339195,2.0555054 79.8513955,2.12402224 C80.0688715,2.19253909 80.2515514,2.29649568 80.3994351,2.43116673 C80.5473187,2.56583777 80.6604063,2.72886061 80.7386976,2.9225979 C80.816989,3.11633519 80.8546849,3.33842428 80.8546849,3.58650252 L80.8546849,6.21849449 L79.6339195,6.21849449 L79.6339195,3.58650252 C79.6339195,3.32424838 79.5614275,3.12578579 79.4222428,2.9934774 C79.2801585,2.86116901 79.0713815,2.79501481 78.7988115,2.79501481 C78.6741253,2.79501481 78.5581381,2.81155336 78.4508499,2.84699311 C78.3435617,2.88243285 78.250772,2.9320485 78.1695809,2.9982027 C78.0883899,3.0643569 78.0245969,3.14704964 77.978202,3.24628094 C77.9318071,3.34551223 77.9086097,3.45891943 77.9086097,3.58886517 L77.9086097,6.22085714 L76.6820449,6.22085714 L76.6820449,3.58650252 C76.6820449,3.31007248 76.6124526,3.10924724 76.4761676,2.98166415 C76.3398827,2.85408106 76.1398047,2.79265216 75.8759338,2.79265216 C75.6990533,2.79265216 75.5308719,2.82809191 75.3800885,2.8989714 C75.2264054,2.9698509 75.0843211,3.06671955 74.9509358,3.19193999 L74.9509358,6.21849449 L73.7330701,6.21849449 L73.7330701,6.21613184 Z"
            id="Path"></path>
          <path
            d="M83.1715294,2.64616787 C83.3803064,2.45479323 83.6151805,2.30122098 83.8790514,2.18308849 C84.1429223,2.064956 84.4531881,2.00588975 84.8098488,2.00588975 C85.0882181,2.00588975 85.3404902,2.05314275 85.569565,2.14764874 C85.7986397,2.24215474 85.995818,2.37682578 86.1639994,2.55638717 C86.3321809,2.73594856 86.4597668,2.955675 86.5496569,3.21792914 C86.639547,3.48018327 86.6859419,3.78023981 86.6859419,4.11809874 C86.6859419,4.42760588 86.6337477,4.71348651 86.5322588,4.97574065 C86.43077,5.23799479 86.2828863,5.46717182 86.0944071,5.66090911 C85.9059279,5.8546464 85.6768532,6.005856 85.4071829,6.11453789 C85.1375126,6.22321979 84.8388456,6.27756073 84.5053823,6.27756073 C84.2212137,6.27756073 83.9805402,6.24212098 83.7775626,6.17124149 C83.574585,6.10036199 83.3977045,6.0011307 83.238222,5.87591025 L83.238222,7.56756757 L82.0174566,7.56756757 L82.0174566,2.08385719 L82.7655742,2.08385719 C82.9250566,2.08385719 83.0265454,2.14528609 83.0758399,2.26578124 L83.1715294,2.64616787 Z M83.238222,5.14585144 C83.3774067,5.28288513 83.5281901,5.37975378 83.6905722,5.43645738 C83.8529543,5.49316097 84.0298348,5.52151277 84.2212137,5.52151277 C84.4067932,5.52151277 84.572075,5.49316097 84.7199587,5.43645738 C84.8678424,5.37975378 84.9954283,5.29469838 85.0969171,5.17892854 C85.1984059,5.06315869 85.279597,4.9166744 85.3375906,4.74183831 C85.3926845,4.56700222 85.4216813,4.35908903 85.4216813,4.12046139 C85.4216813,3.8794711 85.3984839,3.67392056 85.3491893,3.50617242 C85.2998947,3.33842428 85.2332021,3.20139059 85.143312,3.09743399 C85.0534219,2.9934774 84.9461337,2.91550995 84.8185478,2.86825696 C84.6909619,2.81864131 84.5459779,2.79501481 84.3864954,2.79501481 C84.1313236,2.79501481 83.9167472,2.83990516 83.7398667,2.92496055 C83.5629862,3.0123786 83.3948048,3.13523639 83.2353224,3.29353393 L83.2353224,5.14585144 L83.238222,5.14585144 Z"
            id="Shape"></path>
          <polygon id="Path"
                   points="88.8694011 0.229177038 88.8694011 6.21613184 87.6486357 6.21613184 87.6486357 0.229177038"></polygon>
          <path
            d="M92.3345191,2.017703 C92.7114775,2.017703 93.0536398,2.06731865 93.3610059,2.16654994 C93.668372,2.26578124 93.9322429,2.40754023 94.1526186,2.58946427 C94.3729943,2.77138831 94.5411758,2.99584005 94.6600627,3.25809419 C94.7789495,3.52034832 94.8369432,3.81567956 94.8369432,4.13936259 C94.8369432,4.46777092 94.7760499,4.76310216 94.6600627,5.0253563 C94.5440754,5.28761043 94.3729943,5.51206217 94.1526186,5.69871151 C93.9322429,5.88536085 93.668372,6.02711985 93.3610059,6.12635114 C93.0536398,6.22558244 92.7114775,6.27519808 92.3345191,6.27519808 C91.954661,6.27519808 91.609599,6.22558244 91.3022329,6.12635114 C90.9919671,6.02711985 90.7280962,5.88536085 90.5077205,5.69871151 C90.2873448,5.51206217 90.1191633,5.28997308 89.9973768,5.0253563 C89.8755902,4.76073951 89.8175966,4.46777092 89.8175966,4.13936259 C89.8175966,3.81331691 89.8784899,3.52034832 89.9973768,3.25809419 C90.1162637,2.99584005 90.2873448,2.77138831 90.5077205,2.58946427 C90.7280962,2.40754023 90.9919671,2.26578124 91.3022329,2.16654994 C91.6124987,2.06731865 91.954661,2.017703 92.3345191,2.017703 Z M92.3345191,5.51206217 C92.7578724,5.51206217 93.0681382,5.39629233 93.2711158,5.16475264 C93.4740934,4.93321295 93.5755822,4.59535402 93.5755822,4.14881319 C93.5755822,3.70227236 93.4740934,3.36205078 93.2711158,3.13051109 C93.0681382,2.8989714 92.7549727,2.78083891 92.3345191,2.78083891 C91.9053664,2.78083891 91.5893012,2.8989714 91.3834239,3.13287374 C91.1775466,3.36913873 91.0731582,3.70699766 91.0731582,4.15117584 C91.0731582,4.59535402 91.1775466,4.93321295 91.3834239,5.16475264 C91.5893012,5.39629233 91.9053664,5.51206217 92.3345191,5.51206217 Z"
            id="Shape"></path>
          <path
            d="M97.2972973,0.878905756 C97.2972973,0.963961151 97.2758114,1.0466539 97.2297702,1.11989604 C97.1837291,1.19313819 97.1254103,1.26165504 97.048675,1.31599598 C96.9719397,1.37269958 96.8859962,1.41758993 96.7847056,1.45066703 C96.683415,1.48374413 96.5759856,1.50028267 96.459348,1.50028267 C96.3488492,1.50028267 96.2414198,1.48374413 96.1431986,1.45066703 C96.0449774,1.41758993 95.9559645,1.37269958 95.885368,1.31599598 C95.8117022,1.25929239 95.7533834,1.19313819 95.7104116,1.11989604 C95.6674398,1.04429125 95.645954,0.963961151 95.645954,0.878905756 C95.645954,0.78912506 95.6674398,0.706432314 95.7104116,0.628464868 C95.7533834,0.550497422 95.8117022,0.484343226 95.885368,0.427639628 C95.9590339,0.370936031 96.0449774,0.326045684 96.1431986,0.292968585 C96.2414198,0.259891487 96.3488492,0.243352938 96.459348,0.243352938 C96.5759856,0.243352938 96.683415,0.259891487 96.7847056,0.292968585 C96.8859962,0.326045684 96.9750091,0.370936031 97.048675,0.427639628 C97.1223408,0.484343226 97.1837291,0.550497422 97.2297702,0.628464868 C97.272742,0.706432314 97.2972973,0.78912506 97.2972973,0.878905756 Z M97.1192714,2.08385719 L97.1192714,6.21849449 L95.8209104,6.21849449 L95.8209104,2.08385719 L97.1192714,2.08385719 Z"
            id="Shape"></path>
        </g>
        <g id="Group" transform="translate(78.918919, 63.783784)">
          <polygon fill="#7540EE" fill-rule="nonzero" id="Path"
                   points="0 0 52.972973 0 52.972973 12.972973 0 12.972973"></polygon>
          <g transform="translate(4.520470, 2.287869)">
            <g fill="#000000" fill-rule="nonzero" id="a_3_">
              <path
                d="M3.48881534,2.29101194 C3.48881534,3.30923947 2.85395088,4.4123193 1.26972892,4.4123193 L0.793580575,4.4123193 L0.793580575,6.86989315 L0,6.86989315 L0,0 L1.34908698,0 C2.6188159,0 3.48881534,0.848522942 3.48881534,2.20615965 L3.48881534,2.29101194 Z M2.61587671,2.29101194 C2.61587671,1.442489 2.13972837,0.933375236 1.26678973,0.933375236 L0.790641388,0.933375236 L0.790641388,3.64551838 L1.26678973,3.64551838 C2.21908642,3.64864865 2.61587671,3.05468259 2.61587671,2.29101194 Z"></path>
            </g>
            <g fill="#FFFFFF" id="a_2_">
              <path
                d="M3.48881534,2.29101194 C3.48881534,3.30923947 2.85395088,4.4123193 1.26972892,4.4123193 L0.793580575,4.4123193 L0.793580575,6.86989315 L0,6.86989315 L0,0 L1.34908698,0 C2.6188159,0 3.48881534,0.848522942 3.48881534,2.20615965 L3.48881534,2.29101194 Z M2.61587671,2.29101194 C2.61587671,1.442489 2.13972837,0.933375236 1.26678973,0.933375236 L0.790641388,0.933375236 L0.790641388,3.64551838 L1.26678973,3.64551838 C2.21908642,3.64864865 2.61587671,3.05468259 2.61587671,2.29101194 Z"></path>
            </g>
          </g>
          <g transform="translate(8.561853, 2.203017)">
            <g fill="#000000" fill-rule="nonzero" id="b_3_">
              <path
                d="M3.65047064,1.52734129 L2.85689007,1.52734129 L2.22202561,0.678818353 L1.66651921,1.52734129 L0.872938632,1.52734129 L1.90459338,0 L2.6188159,0 L3.65047064,1.52734129 Z M2.14266755,2.03645506 C2.77753201,2.03645506 3.25368036,2.20615965 3.65047064,2.63042112 C4.04726093,3.13953488 4.2853351,3.73350094 4.2853351,4.49717159 C4.2853351,5.34569453 4.04726093,5.93966059 3.65047064,6.44877436 C3.25368036,6.78818353 2.77753201,7.04274041 2.06330949,7.04274041 C1.50780309,7.04274041 1.03165475,6.87303583 0.63486446,6.44877436 C0.238074172,6.02451288 0,5.34569453 0,4.49717159 C0,3.73350094 0.238074172,3.13953488 0.63486446,2.63042112 C1.03165475,2.20615965 1.50780309,2.03645506 2.14266755,2.03645506 Z M2.14266755,2.71527341 C1.34908698,2.71527341 0.872938632,3.47894406 0.872938632,4.49717159 C0.872938632,5.60025141 1.34908698,6.27906977 2.14266755,6.27906977 C2.93624813,6.27906977 3.41239647,5.60025141 3.41239647,4.58202388 C3.49175453,3.47894406 2.93624813,2.63042112 2.14266755,2.63042112 L2.14266755,2.71527341 Z"></path>
            </g>
            <g fill="#FFFFFF" id="b_2_">
              <path
                d="M3.65047064,1.52734129 L2.85689007,1.52734129 L2.22202561,0.678818353 L1.66651921,1.52734129 L0.872938632,1.52734129 L1.90459338,0 L2.6188159,0 L3.65047064,1.52734129 Z M2.14266755,2.03645506 C2.77753201,2.03645506 3.25368036,2.20615965 3.65047064,2.63042112 C4.04726093,3.13953488 4.2853351,3.73350094 4.2853351,4.49717159 C4.2853351,5.34569453 4.04726093,5.93966059 3.65047064,6.44877436 C3.25368036,6.78818353 2.77753201,7.04274041 2.06330949,7.04274041 C1.50780309,7.04274041 1.03165475,6.87303583 0.63486446,6.44877436 C0.238074172,6.02451288 0,5.34569453 0,4.49717159 C0,3.73350094 0.238074172,3.13953488 0.63486446,2.63042112 C1.03165475,2.20615965 1.50780309,2.03645506 2.14266755,2.03645506 Z M2.14266755,2.71527341 C1.34908698,2.71527341 0.872938632,3.47894406 0.872938632,4.49717159 C0.872938632,5.60025141 1.34908698,6.27906977 2.14266755,6.27906977 C2.93624813,6.27906977 3.41239647,5.60025141 3.41239647,4.58202388 C3.49175453,3.47894406 2.93624813,2.63042112 2.14266755,2.63042112 L2.14266755,2.71527341 Z"></path>
            </g>
          </g>
          <g transform="translate(14.034619, 1.948460)">
            <g fill="#000000" fill-rule="nonzero" id="c_3_">
              <path
                d="M1.42844503,7.12445003 L0.793580575,7.29415462 C0.158716115,7.29415462 0,6.86989315 0,6.36077938 L0,0 L0.793580575,0 L0.793580575,5.93651791 C0.793580575,6.36077938 0.872938632,6.44563168 1.1110128,6.44563168 L1.42844503,6.44563168 L1.42844503,7.12445003 L1.42844503,7.12445003 Z"></path>
            </g>
            <g fill="#FFFFFF" id="c_2_">
              <path
                d="M1.42844503,7.12445003 L0.793580575,7.29415462 C0.158716115,7.29415462 0,6.86989315 0,6.36077938 L0,0 L0.793580575,0 L0.793580575,5.93651791 C0.793580575,6.36077938 0.872938632,6.44563168 1.1110128,6.44563168 L1.42844503,6.44563168 L1.42844503,7.12445003 L1.42844503,7.12445003 Z"></path>
            </g>
          </g>
          <g transform="translate(16.021510, 4.157762)">
            <g fill="#000000" fill-rule="nonzero" id="d_3_">
              <path
                d="M3.80330839,2.79384035 L0.869999445,2.79384035 C0.869999445,3.64236329 1.42550585,4.32118165 2.29844448,4.32118165 C2.69523477,4.32118165 3.09202506,4.15147706 3.40945729,3.98177247 L3.64753146,4.57573853 C3.25074117,4.91514771 2.69523477,5.08485229 2.13972837,5.08485229 C0.71128333,5.08485229 0,3.81206788 0,2.54242615 C0,1.09993715 0.793580575,0 1.90459338,0 C3.09496424,0 3.80918676,1.01822753 3.80918676,2.54242615 L3.80918676,2.79384035 L3.80330839,2.79384035 Z M2.93036975,2.03331238 C2.93036975,1.43934632 2.53357947,0.76052797 1.89871501,0.76052797 C1.26385055,0.76052797 0.867060258,1.35449403 0.867060258,2.03331238 L2.93036975,2.03331238 Z"></path>
            </g>
            <g fill="#FFFFFF" id="d_2_">
              <path
                d="M3.80330839,2.79384035 L0.869999445,2.79384035 C0.869999445,3.64236329 1.42550585,4.32118165 2.29844448,4.32118165 C2.69523477,4.32118165 3.09202506,4.15147706 3.40945729,3.98177247 L3.64753146,4.57573853 C3.25074117,4.91514771 2.69523477,5.08485229 2.13972837,5.08485229 C0.71128333,5.08485229 0,3.81206788 0,2.54242615 C0,1.09993715 0.793580575,0 1.90459338,0 C3.09496424,0 3.80918676,1.01822753 3.80918676,2.54242615 L3.80918676,2.79384035 L3.80330839,2.79384035 Z M2.93036975,2.03331238 C2.93036975,1.43934632 2.53357947,0.76052797 1.89871501,0.76052797 C1.26385055,0.76052797 0.867060258,1.35449403 0.867060258,2.03331238 L2.93036975,2.03331238 Z"></path>
            </g>
          </g>
          <g transform="translate(22.919783, 4.157762)">
            <g fill="#000000" fill-rule="nonzero" id="e_3_">
              <path
                d="M3.80330839,2.79384035 L0.949357503,2.79384035 C0.949357503,3.64236329 1.42550585,4.32118165 2.29844448,4.32118165 C2.69523477,4.32118165 3.09202506,4.15147706 3.40945729,3.98177247 L3.64753146,4.57573853 C3.25074117,4.91514771 2.69523477,5.08485229 2.13972837,5.08485229 C0.71128333,5.08485229 0,3.81206788 0,2.54242615 C0,1.09993715 0.793580575,0 1.90459338,0 C3.09496424,0 3.80918676,1.01822753 3.80918676,2.54242615 C3.80330839,2.53928347 3.80330839,2.79384035 3.80330839,2.79384035 Z M2.8510117,2.03331238 C2.8510117,1.43934632 2.53357947,0.76052797 1.81935695,0.76052797 C1.18449249,0.76052797 0.7877022,1.35449403 0.7877022,2.03331238 L2.8510117,2.03331238 Z"></path>
            </g>
            <g fill="#FFFFFF" id="e_2_">
              <path
                d="M3.80330839,2.79384035 L0.949357503,2.79384035 C0.949357503,3.64236329 1.42550585,4.32118165 2.29844448,4.32118165 C2.69523477,4.32118165 3.09202506,4.15147706 3.40945729,3.98177247 L3.64753146,4.57573853 C3.25074117,4.91514771 2.69523477,5.08485229 2.13972837,5.08485229 C0.71128333,5.08485229 0,3.81206788 0,2.54242615 C0,1.09993715 0.793580575,0 1.90459338,0 C3.09496424,0 3.80918676,1.01822753 3.80918676,2.54242615 C3.80330839,2.53928347 3.80330839,2.79384035 3.80330839,2.79384035 Z M2.8510117,2.03331238 C2.8510117,1.43934632 2.53357947,0.76052797 1.81935695,0.76052797 C1.18449249,0.76052797 0.7877022,1.35449403 0.7877022,2.03331238 L2.8510117,2.03331238 Z"></path>
            </g>
          </g>
          <g transform="translate(27.828225, 4.239472)">
            <g fill="#000000" fill-rule="nonzero" id="f_3_" transform="translate(0.000000, -0.000000)">
              <path
                d="M6.50736071,4.83343809 L5.71378014,4.83343809 L5.71378014,1.86675047 C5.71378014,1.27278441 5.55506402,0.848522942 4.92019956,0.848522942 C4.44405122,0.848522942 3.96790287,1.18793212 3.65047064,1.52734129 L3.65047064,4.83343809 L2.85689007,4.83343809 L2.85689007,1.86675047 C2.85689007,1.18793212 2.69817395,0.763670647 2.06330949,0.763670647 C1.58716115,0.763670647 1.1110128,1.10307982 0.793580575,1.442489 L0.793580575,4.83343809 L0,4.83343809 L0,0.169704588 L0.63486446,0.169704588 L0.714222517,0.763670647 C1.34908698,0.254556882 1.82523532,0.0848522942 2.30138367,0.0848522942 C2.85689007,0.0848522942 3.33303841,0.339409177 3.49175453,0.848522942 C3.96790287,0.339409177 4.60276733,-9.37862819e-15 5.07891568,-9.37862819e-15 C5.87249625,-9.37862819e-15 6.50736071,0.424261471 6.50736071,1.61219359 L6.50736071,5.00314268 L6.50736071,4.83343809 L6.50736071,4.83343809 Z"></path>
            </g>
            <g fill="#FFFFFF" id="f_2_" transform="translate(0.000000, -0.000000)">
              <path
                d="M6.50736071,4.83343809 L5.71378014,4.83343809 L5.71378014,1.86675047 C5.71378014,1.27278441 5.55506402,0.848522942 4.92019956,0.848522942 C4.44405122,0.848522942 3.96790287,1.18793212 3.65047064,1.52734129 L3.65047064,4.83343809 L2.85689007,4.83343809 L2.85689007,1.86675047 C2.85689007,1.18793212 2.69817395,0.763670647 2.06330949,0.763670647 C1.58716115,0.763670647 1.1110128,1.10307982 0.793580575,1.442489 L0.793580575,4.83343809 L0,4.83343809 L0,0.169704588 L0.63486446,0.169704588 L0.714222517,0.763670647 C1.34908698,0.254556882 1.82523532,0.0848522942 2.30138367,0.0848522942 C2.85689007,0.0848522942 3.33303841,0.339409177 3.49175453,0.848522942 C3.96790287,0.339409177 4.60276733,-9.37862819e-15 5.07891568,-9.37862819e-15 C5.87249625,-9.37862819e-15 6.50736071,0.424261471 6.50736071,1.61219359 L6.50736071,5.00314268 L6.50736071,4.83343809 L6.50736071,4.83343809 Z"></path>
            </g>
          </g>
          <g transform="translate(35.684673, 4.151477)">
            <g fill="#000000" fill-rule="nonzero" id="g_3_">
              <path
                d="M3.80624757,2.54556882 C3.80624757,4.15776241 2.69523477,5.08799497 1.50780309,5.08799497 C1.19037086,5.08799497 1.03165475,5.08799497 0.793580575,4.91829038 L0.793580575,7.46071653 L0,7.46071653 L0,0.254556882 C0.31743223,0.169704588 0.793580575,0 1.58716115,0 C2.93624813,0 3.80624757,0.848522942 3.80624757,2.45757385 L3.80624757,2.54556882 Z M3.012667,2.54556882 C3.012667,1.35763671 2.21908642,0.848522942 1.42550585,0.848522942 L0.790641388,0.933375236 L0.790641388,4.15461974 L1.50486391,4.32432432 C2.37780254,4.32432432 2.93330894,3.64550597 2.93330894,2.54242615 L3.012667,2.54242615 L3.012667,2.54556882 Z"></path>
            </g>
            <g fill="#FFFFFF" id="g_2_">
              <path
                d="M3.80624757,2.54556882 C3.80624757,4.15776241 2.69523477,5.08799497 1.50780309,5.08799497 C1.19037086,5.08799497 1.03165475,5.08799497 0.793580575,4.91829038 L0.793580575,7.46071653 L0,7.46071653 L0,0.254556882 C0.31743223,0.169704588 0.793580575,0 1.58716115,0 C2.93624813,0 3.80624757,0.848522942 3.80624757,2.45757385 L3.80624757,2.54556882 Z M3.012667,2.54556882 C3.012667,1.35763671 2.21908642,0.848522942 1.42550585,0.848522942 L0.790641388,0.933375236 L0.790641388,4.15461974 L1.50486391,4.32432432 C2.37780254,4.32432432 2.93330894,3.64550597 2.93330894,2.54242615 L3.012667,2.54242615 L3.012667,2.54556882 Z"></path>
            </g>
          </g>
          <g transform="translate(40.601934, 1.948460)">
            <g fill="#000000" fill-rule="nonzero" id="h_3_">
              <path
                d="M1.50780309,7.12445003 L0.793580575,7.29415462 C0.238074172,7.29415462 0,6.86989315 0,6.36077938 L0,0 L0.793580575,0 L0.793580575,5.93651791 C0.793580575,6.36077938 0.872938632,6.44563168 1.1110128,6.44563168 L1.42844503,6.44563168 L1.50780309,7.12445003 Z"></path>
            </g>
            <g fill="#FFFFFF" id="h_2_">
              <path
                d="M1.50780309,7.12445003 L0.793580575,7.29415462 C0.238074172,7.29415462 0,6.86989315 0,6.36077938 L0,0 L0.793580575,0 L0.793580575,5.93651791 C0.793580575,6.36077938 0.872938632,6.44563168 1.1110128,6.44563168 L1.42844503,6.44563168 L1.50780309,7.12445003 Z"></path>
            </g>
          </g>
          <g transform="translate(42.662304, 4.239472)">
            <g fill="#000000" fill-rule="nonzero" id="i_3_" transform="translate(0.000000, -0.000000)">
              <path
                d="M2.14266755,-9.37862819e-15 C2.69817395,-9.37862819e-15 3.25368036,0.169704588 3.57111259,0.593966059 C3.96790287,1.10307982 4.20597705,1.69704588 4.20597705,2.46071653 C4.20597705,3.30923947 3.96790287,3.90320553 3.57111259,4.4123193 C3.1743223,4.75172847 2.69817395,5.00628536 2.06330949,5.00628536 C1.50780309,5.00628536 0.95229669,4.83658077 0.63486446,4.4123193 C0.158716115,3.98805783 0,3.30923947 0,2.46071653 C0,1.69704588 0.158716115,1.10307982 0.63486446,0.593966059 C0.95229669,0.169704588 1.42844503,-9.37862819e-15 2.06330949,-9.37862819e-15 L2.14266755,-9.37862819e-15 Z M2.14266755,0.678818353 C1.26972892,0.678818353 0.793580575,1.442489 0.793580575,2.46071653 C0.793580575,3.56379635 1.26972892,4.24261471 2.06330949,4.24261471 C2.85689007,4.24261471 3.33303841,3.56379635 3.33303841,2.54556882 C3.33303841,1.442489 2.93624813,0.593966059 2.14266755,0.593966059 L2.14266755,0.678818353 Z"></path>
            </g>
            <g fill="#FFFFFF" id="i_2_" transform="translate(0.000000, -0.000000)">
              <path
                d="M2.14266755,-9.37862819e-15 C2.69817395,-9.37862819e-15 3.25368036,0.169704588 3.57111259,0.593966059 C3.96790287,1.10307982 4.20597705,1.69704588 4.20597705,2.46071653 C4.20597705,3.30923947 3.96790287,3.90320553 3.57111259,4.4123193 C3.1743223,4.75172847 2.69817395,5.00628536 2.06330949,5.00628536 C1.50780309,5.00628536 0.95229669,4.83658077 0.63486446,4.4123193 C0.158716115,3.98805783 0,3.30923947 0,2.46071653 C0,1.69704588 0.158716115,1.10307982 0.63486446,0.593966059 C0.95229669,0.169704588 1.42844503,-9.37862819e-15 2.06330949,-9.37862819e-15 L2.14266755,-9.37862819e-15 Z M2.14266755,0.678818353 C1.26972892,0.678818353 0.793580575,1.442489 0.793580575,2.46071653 C0.793580575,3.56379635 1.26972892,4.24261471 2.06330949,4.24261471 C2.85689007,4.24261471 3.33303841,3.56379635 3.33303841,2.54556882 C3.33303841,1.442489 2.93624813,0.593966059 2.14266755,0.593966059 L2.14266755,0.678818353 Z"></path>
            </g>
          </g>
          <g transform="translate(47.817638, 2.203017)">
            <g fill="#000000" fill-rule="nonzero" id="j_3_">
              <path
                d="M0.831238912,0.0848522942 C1.30623258,0.0848522942 1.66247782,0.254556882 1.66247782,0.593966059 C1.66247782,0.933375236 1.30623258,1.18793212 0.831238912,1.18793212 C0.373837606,1.18793212 0,0.920804525 0,0.593966059 C0,0.267127593 0.373837606,0 0.831238912,0 L0.831238912,0.0848522942 Z M1.54372941,6.86989315 L0.237496832,6.86989315 L0.237496832,2.20615965 L1.42498099,2.20615965 L1.42498099,7.03959774 L1.54372941,6.86989315 Z"></path>
            </g>
            <g fill="#FFFFFF" id="j_2_">
              <path
                d="M0.831238912,0.0848522942 C1.30623258,0.0848522942 1.66247782,0.254556882 1.66247782,0.593966059 C1.66247782,0.933375236 1.30623258,1.18793212 0.831238912,1.18793212 C0.373837606,1.18793212 0,0.920804525 0,0.593966059 C0,0.267127593 0.373837606,0 0.831238912,0 L0.831238912,0.0848522942 Z M1.54372941,6.86989315 L0.237496832,6.86989315 L0.237496832,2.20615965 L1.42498099,2.20615965 L1.42498099,7.03959774 L1.54372941,6.86989315 Z"></path>
            </g>
          </g>
        </g>
        <path
          d="M64.8648649,46.4864865 C64.8648649,64.995345 50.344231,80 32.4324324,80 C14.5206338,80 0,64.995345 0,46.4864865 C0,27.9776279 14.5206338,12.972973 32.4324324,12.972973 C50.344231,12.972973 64.8648649,27.9776279 64.8648649,46.4864865"
          fill="#23333B" fill-rule="nonzero" id="Path"></path>
        <g fill="#7540EE" fill-rule="nonzero" id="Group" transform="translate(4.324324, 0.000000)">
          <path
            d="M63.4079117,15.8870135 C62.41137,13.6290348 59.7459212,12.5916649 57.449673,13.5728808 C55.1564265,14.5540968 54.1028538,17.1785537 55.0993955,19.439488 C55.1594281,19.5724841 55.2224624,19.7025248 55.2945015,19.8266545 L41.276882,32.9755387 L42.8857565,34.6365126 L56.9153826,21.4758065 C58.1280417,22.1969411 59.6618755,22.3506255 61.0576342,21.7536207 C63.3508807,20.7724048 64.4044534,18.1449923 63.4079117,15.8870135 Z"
            id="Path"></path>
          <path
            d="M37.3627544,8.50720597 L41.300895,28.087192 L43.5881383,27.6409161 L39.6590026,8.10821758 C41.333913,7.31615173 42.360471,5.51331528 42.0603078,3.60999286 C41.6941088,1.28403829 39.4789047,-0.311915286 37.1166206,0.0516074738 C34.7543365,0.412174764 33.1334555,2.59331132 33.5026562,4.91926589 C33.8118242,6.88760864 35.4417102,8.32692233 37.3627544,8.50720597 Z"
            id="Path"></path>
          <path
            d="M50.0476495,49.2897308 C49.9155777,49.3074637 49.7835059,49.3340629 49.6574374,49.366573 L41.5320207,36.9270015 L42.0362948,37.2639251 L43.2579588,35.4935988 L38.5243858,32.3253354 L38.0411231,31.586468 L37.7229502,31.7874399 L25.731432,23.7603845 C26.4878431,21.3162112 25.1791317,18.6887987 22.7087889,17.8110242 C20.1604037,16.9036951 17.3478749,18.2041017 16.426374,20.7132954 C15.5048731,23.2224891 16.825591,25.9917641 19.3739762,26.8990932 C21.2890172,27.5788512 23.3541397,27.0143565 24.6538462,25.6282413 L36.9185129,33.8385358 L38.2422324,35.8630325 L26.3677779,56.1139101 C25.5153145,55.8420069 24.5818071,55.7799421 23.645298,55.9927359 C20.8898002,56.61634 19.1698653,59.3205946 19.8032096,62.0337157 C20.4365538,64.7468368 23.1830467,66.4403209 25.9385445,65.8167168 C28.6940423,65.1931127 30.4139772,62.488858 29.780633,59.7757369 C29.5405025,58.7442781 28.9912039,57.8605927 28.2558041,57.195612 L39.5689536,37.899351 L47.7844193,50.4778296 C47.0790359,51.2551181 46.7098352,52.3220426 46.8689216,53.4362547 C47.1540766,55.445974 49.0421029,56.8468666 51.0832124,56.5631415 C53.1243219,56.2823719 54.5470953,54.4233815 54.2589386,52.4136622 C53.970782,50.4039429 52.088759,49.0060058 50.0476495,49.2897308 Z"
            id="Path"></path>
          <path
            d="M35.5557722,38.0146144 L34.6943039,36.0374052 L9.50461157,46.6889176 C8.97932604,45.8259205 8.18989693,45.1077414 7.18435034,44.6703319 C4.59694391,43.5472534 1.57730253,44.6998866 0.436682523,47.2475014 C-0.703937483,49.7951161 0.466698839,52.7683185 3.05410527,53.891397 C5.64151171,55.0144754 8.66115309,53.8618423 9.80177309,51.3142275 C10.1799787,50.4719187 10.2970423,49.5852778 10.2039917,48.7341026 L35.5557722,38.0146144 Z"
            id="Path"></path>
        </g>
        <g fill="#7540EE" fill-rule="nonzero" id="g4588_1_" transform="translate(34.594595, 22.702703)">
          <g id="g110_1_" transform="translate(10.409001, 4.036155)">
            <path
              d="M4.00795161,8.60390192 L11.4596286,8.60390192 C12.4713446,8.60390192 13.2301315,8.44639341 13.7359895,8.1904421 C14.2029353,7.95417934 14.4558643,7.42258815 14.4558643,6.45784858 C14.4558643,5.41435475 14.2029353,4.41023805 13.6581652,3.38643279 C13.1328512,2.38231609 12.3351521,1.57508502 11.284524,0.945051011 C10.2338959,0.315017004 8.94979487,0 7.45167703,0 C6.30376856,0 5.25314046,0.196885627 4.31924883,0.551279757 L4.31924883,0.551279757 C3.38535719,0.925362449 2.58765808,1.45695364 1.96506366,2.14605334 C1.32301315,2.83515303 0.836611259,3.66207267 0.505857971,4.64650081 C0.175104682,5.63092894 0,6.69411133 0,7.83604797 C0,10.2774297 0.680962653,12.1872203 2.04288796,13.6047968 C3.38535719,15.0026848 5.27259654,15.7114731 7.76297424,15.7114731 C8.81360233,15.7114731 9.74749397,15.5736531 10.5646492,15.2980132 C12.0433109,14.7664221 13.6970774,13.2897798 13.9889185,11.8722033 C14.1640232,10.9468409 13.6192531,10.7499553 13.3274119,10.7105781 C13.2690437,10.7105781 13.2106755,10.6908896 13.1523072,10.6908896 C12.8020979,10.6908896 12.5491689,10.8090209 12.3740642,10.9665294 C12.1600474,11.1634151 11.556909,11.7343834 11.2456118,12.0100233 C10.9343146,12.2856631 10.5841052,12.5416145 10.2144398,12.7975658 C9.82531828,13.0535171 9.43619676,13.2307142 9.02761917,13.3488455 C8.61904158,13.4669769 8.17155183,13.5260426 7.68514994,13.5260426 C6.94581906,13.5260426 6.26485641,13.3488455 5.64226198,12.9747628 C5.01966755,12.6006802 4.53326566,12.0494004 4.16360022,11.3209236 C3.81339086,10.6515124 3.63828617,9.88365849 3.59937402,9.05673886 C3.56046187,8.78109898 3.7744787,8.60390192 4.00795161,8.60390192 Z M3.57991795,6.37909433 C3.73556655,5.09933775 4.12468807,4.09522105 4.76673857,3.38643279 C5.42824515,2.65795597 6.32322463,2.28387328 7.33494057,2.28387328 C8.40502474,2.28387328 9.31946031,2.63826741 9.98096688,3.36674423 C10.6230174,4.07553249 10.9926828,5.07964919 11.1094193,6.39878289 C11.1288754,6.61535708 10.8954024,6.81224271 10.6619295,6.81224271 L4.02740769,6.81224271 C3.79393478,6.81224271 3.54100579,6.61535708 3.57991795,6.37909433 Z"
              id="Shape"></path>
          </g>
          <g id="g130_1_" transform="translate(0.000000, -0.000000)">
            <g id="Group" transform="translate(0.000000, -0.000000)">
              <g id="g132_1_" transform="translate(0.000000, -0.000000)">
                <g id="g138_1_" transform="translate(0.000000, -0.000000)">
                  <g id="g140_1_" transform="translate(0.000000, -0.000000)">
                    <g id="g142_1_" transform="translate(0.000000, -0.000000)">
                      <path
                        d="M0,11.8918919 C0,18.4678718 5.25314046,23.7837838 11.7514698,23.7837838 L11.7514698,23.7837838 C18.230343,23.7837838 23.5029396,18.4678718 23.5029396,11.8918919 L23.5029396,11.8918919 C23.5029396,5.31591194 18.2497991,-4.77653077e-15 11.7514698,-4.77653077e-15 L11.7514698,-4.77653077e-15 C5.25314046,-4.77653077e-15 0,5.31591194 0,11.8918919"
                        id="path158_1_"></path>
                    </g>
                  </g>
                </g>
              </g>
            </g>
          </g>
        </g>
        <g fill="#FFFFFF" fill-rule="nonzero" id="g198_1_" transform="translate(44.324324, 28.108108)">
          <g id="path214_1_">
            <path
              d="M1.9502457,1.7776151 C1.31756757,2.34862227 0.832309582,3.03589788 0.500614251,3.84202565 C0.168918919,4.64815343 0,5.52662601 0,6.47485964 L0,6.47485964 C0.00307125307,8.49793031 0.678746929,10.068846 2.01781327,11.2289465 L2.01781327,11.2289465 C3.35687961,12.3864633 5.23034398,12.9703892 7.69041769,12.972973 L7.69041769,12.972973 C8.7039312,12.972973 9.59459459,12.8670395 10.3746929,12.6603401 L10.3746929,12.6603401 C11.4219902,11.5751681 12.1959459,10.2962154 12.6167076,8.89841046 L12.6167076,8.89841046 C12.4600737,8.9371666 12.3310811,8.99917643 12.1805897,9.11544486 C12.0300983,9.23171329 11.4312039,9.70453824 11.1210074,9.93449135 C10.8108108,10.1618607 10.4699017,10.3788951 10.0952088,10.5830108 C9.72051597,10.7871265 9.32739558,10.9395673 8.91891892,11.0377496 C8.51044226,11.1359318 8.06511057,11.1824392 7.45700246,11.1824392 C6.84889435,11.1824392 6.17014742,11.0274146 5.55589681,10.7225329 C4.94164619,10.4176513 4.4502457,9.9551613 4.10012285,9.38415412 C3.75,8.8105632 3.56879607,8.18271368 3.53501229,7.48510311 L3.53501229,7.48510311 C3.52579853,7.25256625 3.73464373,7.11304413 3.85749386,7.11304413 L11.3728501,7.11304413 C11.9963145,7.11304413 12.52457,7.06653676 12.9576167,6.97610576 L12.9576167,6.97610576 C12.9668305,6.81332996 12.972973,6.6531379 12.972973,6.48777836 L12.972973,6.48777836 C12.972973,4.23475457 12.0700246,2.16000904 10.5558968,0.503829861 L10.5558968,0.503829861 C9.6468059,0.167943287 8.5995086,0 7.43243243,0 C6.26228501,0 5.22727273,0.155024572 4.29361179,0.459906232 C3.35995086,0.767371634 2.58292383,1.20660792 1.9502457,1.7776151 L1.9502457,1.7776151 Z M11.0288698,5.29408915 L11.0288698,5.29408915 C11.044226,5.47495115 10.8169533,5.63255947 10.5866093,5.63255947 L10.5866093,5.63255947 L3.99262899,5.63255947 C3.75307125,5.62997572 3.51351351,5.46978367 3.55036855,5.27083546 L3.55036855,5.27083546 C3.70085995,4.21666837 4.08169533,3.38728691 4.73280098,2.79560979 C5.38390663,2.20393267 6.25614251,1.89905101 7.30036855,1.89905101 C8.34459459,1.89905101 9.24140049,2.19876519 9.90479115,2.79560979 C10.5528256,3.37178445 10.9152334,4.21408463 11.0288698,5.29408915 Z"
              id="Shape"></path>
          </g>
        </g>
      </g>
    </g>
  </g>
</svg>
