<?xml version="1.0" encoding="UTF-8"?>
<svg height="28px" version="1.1" viewBox="0 0 21 28" width="21px" xmlns="http://www.w3.org/2000/svg">
  <title>pinmap-location</title>
  <g fill="none" fill-rule="evenodd" id="Prototype_CDE" stroke="none" stroke-width="1">
    <g fill="#4833E3" fill-rule="nonzero" id="Listedesinscrits" transform="translate(-656.000000, -198.000000)">
      <g id="pinmap-location" transform="translate(656.000000, 198.000000)">
        <path
          d="M10.5,15 C8.0194898,15 6,12.9823469 6,10.5018367 C6,8.0194898 8.0194898,6 10.5,6 C12.9805102,6 15,8.0194898 15,10.5018367 C15,12.9823469 12.9805102,15 10.5,15 L10.5,15 Z M10.5,7.86336735 C9.04622449,7.86336735 7.86244898,9.04714286 7.86244898,10.5009184 C7.86244898,11.9546939 9.04622449,13.1384694 10.5,13.1384694 C11.9556122,13.1384694 13.1412245,11.9556122 13.1412245,10.5018367 C13.1412245,9.04622449 11.9556122,7.86244898 10.5,7.86244898 L10.5,7.86336735 Z"
          id="Shape"></path>
        <path
          d="M10.5018458,28 C10.2757317,28 10.0643843,27.9220388 9.89179924,27.7771226 C8.88028479,26.9048742 0,18.9996069 0,10.4880765 C0.0018458293,4.70427149 4.71332513,0 10.5018458,0 C16.2903665,0 21,4.70427149 21,10.4880765 C21,19.25 11.5124374,27.4313417 11.1100466,27.7771226 C10.9411532,27.9202044 10.7261141,28 10.5018458,28 Z M10.5018458,1.86098008 C5.74329788,1.86098008 1.870748,5.73152516 1.870748,10.4917453 C1.870748,16.9120807 7.7792476,23.2278564 10.3209546,25.6446541 L10.5018458,25.817086 L10.6827371,25.6446541 C13.2225982,23.2241876 19.1347895,16.8983229 19.1347895,10.4917453 C19.1310978,5.73152516 15.257625,1.86098008 10.5027687,1.86098008 L10.5018458,1.86098008 Z"
          id="Shape"></path>
      </g>
    </g>
  </g>
</svg>
