<?xml version="1.0" encoding="UTF-8"?>
<svg height="26px" version="1.1" viewBox="0 0 32 26" width="32px" xmlns="http://www.w3.org/2000/svg">
  <title>profil-multi</title>
  <g fill="none" fill-rule="evenodd" id="Prototype_CDE" stroke="none" stroke-width="1">
    <g fill="#4833E3" fill-rule="nonzero" id="Listedesinscrits" transform="translate(-1102.000000, -200.000000)">
      <g id="profil-multi" transform="translate(1102.000000, 200.000000)">
        <polygon id="Shape"
                 points="26.191 21.492 25.992 19.714 29.035 19.714 28.71 13.073 26.861 12.334 27.525 10.68 30.339 11.815 31.061 21.492"></polygon>
        <path
          d="M15.969,14.711 C13.157,14.711 10.869,12.423 10.869,9.611 C10.869,6.799 13.157,4.511 15.969,4.511 C18.779,4.511 21.065,6.799 21.065,9.611 C21.065,12.423 18.779,14.711 15.969,14.711 Z M15.967,6.284 C14.137,6.284 12.647,7.774 12.647,9.606 C12.647,11.435 14.136,12.923 15.967,12.923 C17.798,12.923 19.287,11.434 19.287,9.603 C19.287,7.773 17.798,6.284 15.967,6.284 L15.967,6.284 Z"
          id="Shape"></path>
        <polygon id="Shape"
                 points="8.759 25.148 9.474 15.472 12.305 14.338 12.965 15.99 11.105 16.729 10.784 23.368 21.375 23.368 21.049 16.729 19.2 15.99 19.863 14.338 22.677 15.472 23.399 25.149"></polygon>
        <path
          d="M23.725,11.051 C23.824,10.546 23.873,10.072 23.873,9.611 C23.873,9.488 23.862,9.372 23.848,9.26 C25.575,9.146 26.946,7.704 26.946,5.948 C26.946,4.118 25.457,2.628 23.626,2.628 C22.697,2.628 21.83,3.014 21.198,3.698 C20.764,3.316 20.273,2.975 19.731,2.682 C20.162,2.169 20.691,1.741 21.277,1.431 C22.007,1.046 22.796,0.851 23.624,0.851 C26.434,0.851 28.72,3.139 28.72,5.951 C28.72,8.729 26.489,10.996 23.726,11.05 L23.725,11.051 Z"
          id="Shape"></path>
        <polygon id="Shape"
                 points="0.941 21.492 1.663 11.815 4.477 10.68 5.14 12.332 3.291 13.073 2.966 19.713 6.009 19.713 5.81 21.491"></polygon>
        <path
          d="M8.274,11.053 C5.51,10.999 3.278,8.733 3.278,5.954 C3.278,3.142 5.564,0.854 8.374,0.854 C9.202,0.854 9.991,1.049 10.721,1.434 C11.308,1.743 11.837,2.172 12.268,2.685 C11.73,2.976 11.239,3.316 10.801,3.701 C10.173,3.016 9.306,2.629 8.374,2.629 C6.544,2.629 5.054,4.118 5.054,5.949 C5.054,7.704 6.423,9.146 8.15,9.261 C8.136,9.373 8.125,9.49 8.125,9.612 C8.125,10.074 8.174,10.549 8.274,11.055 L8.274,11.053 Z"
          id="Shape"></path>
      </g>
    </g>
  </g>
</svg>
