<?xml version="1.0" encoding="UTF-8"?>
<svg width="20px" height="19px" viewBox="0 0 20 19" version="1.1" xmlns="http://www.w3.org/2000/svg" xmlns:xlink="http://www.w3.org/1999/xlink">
    <title>E4F42A46-56FB-4CD1-9817-DC2C7A08553D</title>
    <g id="Prototype_CDE" stroke="none" stroke-width="1" fill="none" fill-rule="evenodd">
        <g id="Creation_evenement_1" transform="translate(-620.000000, -102.000000)" fill="#FFFFFF" fill-rule="nonzero">
            <g id="Sous_header" transform="translate(0.000000, 70.000000)">
                <g id="wa-redaction" transform="translate(620.000000, 32.000000)">
                    <polygon id="Shape" points="19.9630769 18.5761538 0 18.5761538 0 1.84384615 9.98153846 1.84384615 9.98153846 3.19769231 1.35384615 3.19769231 1.35384615 17.2223077 18.6092308 17.2223077 18.6092308 8.67153846 19.9630769 8.67153846"></polygon>
                    <polygon id="Shape" points="10.6615385 12.7915385 9.46769231 10.4192308 7.06461538 9.23153846 14.32 2.04076923 15.2738462 3.00076923 9.36307692 8.85923077 10.4707692 9.40692308 11.0307692 10.5176923 16.9507692 4.65 17.9046154 5.61307692"></polygon>
                    <path d="M18.7415385,4.77923077 L15.1507692,1.21615385 L15.6369231,0.736153846 C16.6246154,-0.245384615 18.2338462,-0.245384615 19.2215385,0.736153846 C19.7015385,1.21307692 19.9661538,1.84692308 19.9661538,2.52076923 C19.9661538,3.19461538 19.7015385,3.83153846 19.2215385,4.30538462 L18.7415385,4.77923077 L18.7415385,4.77923077 Z M17.2276923,1.36692308 L18.5938462,2.72076923 C18.6061538,2.65307692 18.6123077,2.58538462 18.6123077,2.51769231 C18.6123077,2.20692308 18.4892308,1.91461538 18.2676923,1.69307692 C17.9846154,1.41615385 17.5938462,1.30538462 17.2276923,1.36692308 L17.2276923,1.36692308 Z" id="Shape"></path>
                    <polygon id="Shape" points="4.42461538 15.4161538 6.17230769 10.2161538 7.45538462 10.6469231 6.56923077 13.2807692 9.23384615 12.4007692 9.65846154 13.6869231"></polygon>
                </g>
            </g>
        </g>
    </g>
</svg>