<?xml version="1.0" encoding="UTF-8"?>
<svg height="32px" version="1.1" viewBox="0 0 32 32" width="32px" xmlns="http://www.w3.org/2000/svg">
    <title>ant-design_twitter-circle-filled</title>
    <g fill="none" fill-rule="evenodd" id="Prototype-DE" stroke="none" stroke-width="1">
        <g fill="#1B2B67" fill-rule="nonzero" id="Confirmation_sur_place"
           transform="translate(-766.000000, -701.000000)">
            <g id="Group-6" transform="translate(561.000000, 701.000000)">
                <g id="ant-design_twitter-circle-filled" transform="translate(205.000000, 0.000000)">
                    <path d="M15.75,0 C7.05234,0 0,7.05234 0,15.75 C0,24.4477 7.05234,31.5 15.75,31.5 C24.4477,31.5 31.5,24.4477 31.5,15.75 C31.5,7.05234 24.4477,0 15.75,0 Z M23.3191,11.8723 C23.3297,12.0375 23.3297,12.2098 23.3297,12.3785 C23.3297,17.5395 19.3992,23.4844 12.2168,23.4844 C10.002,23.4844 7.9488,22.841 6.21914,21.7336 C6.53555,21.7688 6.83789,21.7828 7.16133,21.7828 C8.9895,21.7828 10.6699,21.1641 12.0094,20.1164 C10.2937,20.0813 8.8523,18.9563 8.3602,17.4094 C8.9613,17.4973 9.5027,17.4973 10.1215,17.3391 C9.2381,17.1596 8.4441,16.6798 7.8744,15.9813 C7.30462,15.2827 6.99429,14.4085 6.99609,13.507 L6.99609,13.4578 C7.51289,13.7496 8.1211,13.9289 8.7574,13.9535 C8.2225,13.597 7.7838,13.114 7.48023,12.5474 C7.17667,11.9807 7.01762,11.3479 7.01719,10.7051 C7.01719,9.9773 7.20703,9.3129 7.54805,8.7363 C8.5286,9.9434 9.7521,10.9306 11.1391,11.6338 C12.5262,12.337 14.0457,12.7405 15.5988,12.818 C15.0469,10.1637 17.0297,8.0156 19.4133,8.0156 C20.5383,8.0156 21.5508,8.4867 22.2645,9.2461 C23.1469,9.0809 23.9906,8.7504 24.743,8.3074 C24.4512,9.2109 23.8395,9.9738 23.0273,10.4555 C23.8148,10.3711 24.5742,10.1531 25.2773,9.8473 C24.7465,10.6277 24.082,11.3203 23.3191,11.8723 Z"
                          id="Shape"></path>
                </g>
            </g>
        </g>
    </g>
</svg>