<?xml version="1.0" encoding="UTF-8"?>
<svg width="1453px" height="639px" viewBox="0 0 1453 639" version="1.1" xmlns="http://www.w3.org/2000/svg" xmlns:xlink="http://www.w3.org/1999/xlink">
    <title>background</title>
    <g id="background" stroke="none" stroke-width="1" fill="none" fill-rule="evenodd">
        <g id="Group-13" transform="translate(749.500000, 319.500000) scale(-1, 1) translate(-749.500000, -319.500000) translate(-1.000000, 0.000000)">
            <g id="Background" opacity="0.4">
                <g id="Background/Abstract">
                    <path d="M871.88901,197.041651 C920.806441,209.366317 961.125205,237.696423 1005.6365,258.05479 C1092.61806,297.607606 1169.85904,265.147317 1250.71565,233.160752 C1218.61125,316.184018 1185.00163,398.660619 1155.4677,482.393687 C1153.66307,494.697962 1129.00536,488.330139 1118.65868,489.553664 C1071.46098,488.154453 1024.59463,479.569382 980.866527,464.21649 C939.19315,450.506729 900.068337,430.359342 855.837269,423.189953 C845.509749,419.688003 825.18241,424.257401 819.73294,415.43939 C810.354741,367.751698 771.778521,318.505579 709.37708,321.652235 C639.348208,325.255362 612.528057,397.148467 600.710833,447.229877 C597.315184,455.070636 602.714448,468.621966 592.009939,472.11921 C583.028812,475.727042 572.438403,461.154539 561.182557,459.356113 C552.415941,458.854154 561.038333,427.544449 558.837551,420.424471 C559.882717,381.053616 529.961755,346.731372 488.941036,331.054559 L487.733864,330.532326 C483.355317,328.607413 483.238362,328.050573 483.826568,323.320466 C485.609284,308.981688 482.906456,295.180163 477.310938,281.704127 L477.216808,281.470237 C476.409568,279.537317 474.73628,277.073077 477.898787,276.119831 C520.551607,261.229682 558.051623,237.396032 601.117946,223.247057 C685.834826,193.938131 782.093264,172.265258 871.88901,197.041651 Z M802.309437,388.112264 C805.925969,397.680685 809.386301,407.403842 811.991928,417.220467 C812.123136,422.247383 802.118521,418.892702 798.31015,419.814041 C757.880615,420.649766 717.786333,428.064467 680.295516,441.132879 C672.634932,441.925404 599.305814,474.008912 605.893951,463.522293 C613.317025,415.94253 636.04391,343.602847 697.008851,329.843235 C743.920559,321.467922 788.757716,350.140195 802.309437,388.112264 Z M1064.39364,367.437767 C1068.2276,369.780378 1070.13701,367.496725 1071.79959,364.757833 C1070.69498,356.689667 1059.70192,363.798101 1064.39364,367.437767 Z M1096.21552,356.156284 C1099.72236,356.142218 1100.23923,355.36388 1102.25339,353.62278 C1099.30389,348.631576 1088.97192,352.530295 1096.21552,356.156284 Z M987.099963,343.967709 C987.351359,350.050153 1006.10171,342.731257 992.81163,341.464203 C990.583839,341.340338 987.761438,342.108294 987.099963,343.967709 Z M1116.56617,334.915847 C1111.52429,335.306868 1113.99272,338.530211 1117.03382,340.634426 C1120.7984,338.438206 1122.20586,335.190275 1116.56617,334.915847 Z M1061.3311,336.376243 C1062.82431,339.687706 1065.29175,337.636378 1068.94455,336.586772 C1066.12141,333.901576 1062.01999,332.777487 1061.3311,336.376243 Z M1025.16721,333.298082 L1025.40356,333.542448 C1027.79276,335.942781 1030.91917,337.006003 1031.82414,333.375038 C1031.99053,328.921014 1027.82162,331.256392 1025.16721,333.298082 Z M1086.07705,324.265067 C1085.91268,328.319199 1094.82697,326.824578 1094.63694,323.919167 C1093.92053,321.050008 1086.04665,321.149699 1086.07705,324.265067 Z M1127.9733,312.85847 C1123.19496,312.864161 1121.44045,316.654986 1125.3023,318.481281 C1131.44967,319.385484 1132.59817,313.608178 1127.9733,312.85847 Z M1054.66933,311.791444 C1055.68627,315.94719 1059.45362,314.800695 1062.28278,311.761168 L1061.91569,311.421892 C1058.93733,308.742586 1055.02119,306.979703 1054.66933,311.791444 Z M964.410389,305.506011 C958.986625,305.962234 959.560098,309.612022 963.577897,312.04153 L963.919017,311.908985 C968.347532,310.130538 970.24942,307.061826 964.410389,305.506011 Z M1092.76789,303.872131 C1085.58509,305.386905 1093.59473,313.283623 1097.51048,310.714704 C1100.55816,307.57917 1095.41527,305.435822 1092.76789,303.872131 Z M988.532272,305.506165 C985.717008,307.392617 987.287796,311.544741 991.188576,311.204928 C995.988817,309.9639 993.478368,305.475679 988.532272,305.506165 Z M1026.66612,303.900875 C1023.17367,305.920366 1026.42505,310.0957 1029.88857,309.540319 C1033.76059,307.584846 1031.39898,303.490159 1026.66612,303.900875 Z M1156.36364,300.605108 C1152.71406,302.264394 1155.57529,303.970823 1157.29085,306.322951 C1160.1758,303.935465 1160.18595,300.547021 1156.36364,300.605108 Z M1121.30161,298.118494 C1124.68771,296.759384 1125.84522,292.877903 1120.23535,292.438092 C1114.87714,292.273479 1115.41027,298.681553 1121.30161,298.118494 Z M1048.94573,286.721873 L1048.77724,286.735927 C1043.64097,287.057452 1046.82057,293.696333 1050.67581,293.228291 C1054.50033,292.396173 1052.57046,286.511995 1048.94573,286.721873 L1048.94573,286.721873 Z M1075.0217,285.863176 C1080.4746,286.388844 1080.83086,281.027632 1076.19282,281.049441 C1071.2942,280.504972 1072.30519,284.414017 1075.0217,285.863176 Z M1100.39732,284.485265 C1103.02806,287.145735 1104.90938,285.626859 1107.96347,283.422426 C1104.63491,281.17599 1099.82116,281.067981 1100.39732,284.485265 Z M992.884062,281.364497 C992.152895,285.326314 997.021116,286.233543 999.456163,283.546345 C999.790736,279.262875 994.671586,277.815807 992.884062,281.364497 Z M963.307933,281.715673 C964.059009,286.041291 968.399209,284.08646 971.873064,281.555496 L971.149158,281.232643 C967.611359,279.620598 964.428052,277.780148 963.307933,281.715673 Z M1143.17894,279.238687 C1143.04333,282.114738 1147.16522,282.64619 1148.88577,280.511295 C1148.67601,276.184728 1143.96644,275.759263 1143.17894,279.238687 Z M1025.97251,274.462295 C1022.61364,277.015264 1022.18577,278.583691 1025.78126,280.165147 C1030.78399,280.456683 1029.16771,276.625193 1025.97251,274.462295 Z M991.858369,262.700088 C992.11853,265.941848 996.676341,266.294871 998.520137,264.017384 C998.373283,260.106352 992.859128,259.334932 991.858369,262.700088 Z M957.146121,248.398407 C954.589829,250.114843 955.533155,253.481913 959.006962,253.20587 C963.206341,252.957111 961.446197,247.616021 957.146121,248.398407 Z" id="Shape" fill="#4833E3" fill-rule="nonzero"></path>
                    <path d="M1303.36022,217.632787 C1283.83847,269.564765 1260.83069,319.065193 1239.43083,370.254243 C1222.7149,409.239319 1207.34992,448.612079 1193.83094,488.495806 C1190.69162,500.057423 1175.14148,496.519593 1164.95171,499.503471 C1161.71319,499.975506 1160.75147,499.205002 1161.66691,496.367114 C1180.17119,441.62158 1201.5805,387.657904 1223.00021,333.716938 C1235.59808,301.968924 1248.00324,270.164136 1260.27519,238.32204 C1264.63036,227.407645 1291.06466,222.572935 1303.36022,217.632787 Z M1352.74911,205.006379 C1346.7544,223.627948 1341.1951,242.364846 1334.53831,260.809361 C1309.27969,330.810801 1282.96511,400.527979 1256.33887,470.151758 C1249.3156,483.26109 1215.75959,487.442983 1199.07792,492.632787 C1228.40608,400.083407 1274.70836,312.637957 1308.10451,221.256497 L1309.27779,218.02962 C1312.06689,209.945221 1324.83457,210.551917 1332.28946,206.679462 C1337.01761,206.240075 1355.4532,196.725434 1352.74911,205.006379 Z M1390.53575,197.787767 C1385.215,214.211028 1380.29273,230.743902 1374.31384,246.989347 C1349.88656,311.949201 1331.62984,378.302357 1312.97747,444.596242 C1311.25991,452.838321 1271.52852,469.962292 1262.64046,472.632787 C1295.46602,385.36911 1330.61347,298.626801 1357.92026,209.920885 L1359.23541,205.62712 C1360.5035,201.372516 1362.62236,199.153464 1368.06586,198.672791 C1372.95793,199.479054 1393.0899,189.855854 1390.53575,197.787767 Z M1472.78248,195.634031 C1482.69113,200.427858 1502.63263,200.563524 1500.89319,213.500603 C1500.41828,265.557621 1492.71544,317.175956 1491.52011,369.189918 C1489.0356,376.112169 1495.55069,405.097724 1482.39254,401.399791 L1479.11424,400.964335 C1461.26063,398.612041 1441.91099,396.49092 1424.32812,400.78204 L1423.51787,400.984667 C1385.70893,410.413909 1353.17235,427.578589 1319.25085,444.632787 C1339.94216,361.096221 1369.31077,279.619027 1396.70202,197.603229 C1397.88218,193.901234 1399.68608,192.37803 1404.32807,191.64608 C1427.13988,188.46238 1450.96124,188.545242 1472.78248,195.634031 Z" id="Shape" fill="#73DEEC" fill-rule="nonzero"></path>
                    <path d="M487.064706,337.816857 C529.04662,353.573581 553.485512,390.169894 551.262801,429.295841 C549.026425,434.709068 553.826206,458.406294 543.382196,454.591392 C504.224218,445.665309 470.870796,474.354157 454.15947,501.925277 C446.294351,515.789495 416.448987,508.508932 401.058534,510.650783 C398.454136,510.279519 397.770015,509.213706 398.798474,507.094666 L405.475826,496.325331 C424.157662,466.162905 442.600557,435.88286 457.905285,404.275592 C467.787584,383.959626 476.318587,363.268858 480.87164,341.501259 L481.210604,339.861241 C481.97523,336.399453 483.084808,336.083782 487.064706,337.816857 Z M328.022933,270.652917 C355.533635,314.98833 421.615722,312.906874 469.700811,330.793287 C493.13734,334.461511 399.581971,508.735465 382.480305,509.068655 C364.748894,506.853923 346.928042,505.115848 329.529756,501.265741 C319.145363,500.929416 325.691054,482.872879 323.969753,475.704202 C324.259983,439.383376 318.715495,396.960865 284.059477,371.707429 L283.236677,371.082386 C279.600573,368.293665 279.805867,367.9254 282.256034,363.655995 C300.513145,333.761421 314.484342,302.106036 328.022933,270.652917 Z M534.595481,459.479949 C557.297197,459.715267 543.53811,474.484213 542.770003,486.822058 C518.644681,498.293432 487.907601,502.148911 460.135833,506.619178 C473.207377,482.688405 500.608367,456.610158 534.595481,459.479949 Z M278.305473,376.410631 C296.377848,389.586248 306.412264,407.271241 311.084245,426.914317 L311.231533,427.541886 C314.95494,443.294662 316.336305,459.222801 316.128691,475.712417 C314.506928,480.37644 320.926595,501.75813 310.199833,496.933685 C288.443993,490.532547 267.86828,481.430191 247.288923,472.64632 C241.523061,468.156086 217.584535,466.65174 224.733585,457.820685 C239.496086,433.859667 254.325971,409.93325 269.118521,385.988747 C271.913125,383.394477 273.145154,373.857253 278.305473,376.410631 Z M577.656978,475.252617 C581.071528,479.312072 559.492818,482.6868 555.783094,485.002882 C552.960716,485.905334 552.205471,485.274249 552.375834,482.658401 L552.612085,481.20662 C556.400956,458.113775 556.924108,465.194856 577.656978,475.252617 Z M187.171973,337.605282 L187.958433,337.797949 C202.200598,341.342191 283.741685,364.157287 265.430817,377.013882 C256.264842,391.936304 247.037281,406.830089 237.793017,421.715986 L216.532698,455.927463 C214.696756,458.835542 214.303976,458.877221 210.570552,457.793607 L209.890108,457.595157 C193.784961,452.889843 177.648351,448.263914 161.561182,443.512743 L153.522091,441.125774 C142.665968,437.884201 144.96384,438.230282 147.873992,431.082379 C161.43344,400.229495 172.058136,367.529541 187.171973,337.605282 Z M64.3732,294.960892 C93.5288466,318.64267 134.71221,323.092842 171.374704,333.525919 C190.827287,329.203409 141.097721,421.185383 138.944319,432.608431 L138.626714,433.337059 C137.196772,436.564673 136.764665,436.519142 132.055072,435.438935 C97.1679507,426.588716 53.1999202,428.111266 26.1138723,451.021587 C-1.97235972,472.099206 7.85458824,406.78772 2.89010288,395.081935 L3.29272744,395.054523 L3.29272744,395.054523 C3.89302027,382.616441 -2.6036233,368.598633 3.78279967,357.057321 C19.2646307,335.430115 37.7700218,315.609668 57.4545577,296.723554 L59.0150171,295.228546 C61.3996064,292.963092 62.0279827,293.015711 64.3732,294.960892 Z M190.979227,216.764428 C236.303424,223.454566 273.700762,246.038773 313.949081,263.39622 L316.056595,264.303049 C319.850625,265.954717 319.970211,266.330005 318.729549,270.239733 L318.660541,270.456525 C308.859153,301.289727 292.195247,329.908369 276.455998,358.700022 L276.265617,359.092939 C274.964643,361.727978 273.015694,364.576533 269.655426,361.737179 C247.794949,348.99374 223.719938,340.409068 198.792924,333.392201 L197.524721,333.03675 C187.496496,330.237092 188.202517,331.142262 190.988337,322.236046 C198.75092,289.012911 216.885171,246.727849 190.979227,216.764428 Z M52.3007359,226.562335 C43.8105995,244.987548 40.4123642,266.750154 54.2279169,283.946338 L54.7821211,284.690659 C56.7668923,287.390464 56.5557802,287.69441 53.7263584,290.386951 L49.483579,294.546013 C32.5295567,311.220658 15.8693758,328.393263 2.69468015,347.403189 L1.36082718,346.728166 L1.36082718,346.728166 C0.723885103,317.076673 -0.112043854,287.459757 0.0124361984,257.777617 C1.28722921,238.522575 34.9006813,231.733057 52.3007359,226.562335 Z M196.7599,254.152962 C196.616215,263.461595 188.065563,332.275799 177.007282,327.577641 C142.059709,317.03673 102.393399,313.514481 73.2335081,292.512514 L71.8861315,291.504803 C67.01607,287.82339 67.3941942,287.406681 72.566332,282.87898 L74.2519066,281.503074 C103.16837,257.839049 198.850549,177.279547 196.7599,254.152962 Z M341.299099,274.735378 C379.051032,287.362335 421.345766,291.007579 460.584866,281.4616 C464.360333,280.615594 468.331288,278.205424 469.724365,282.812685 C473.166407,288.219389 483.860672,327.520791 471.291919,324.360895 C430.153667,307.528373 367.780353,310.101116 341.299099,274.735378 Z M173.026284,213.845083 C129.599448,225.106449 96.7265426,253.562141 64.9521478,279.94047 L64.6361609,280.177402 C62.4869245,281.75731 61.6217208,281.68008 60.0176131,279.547626 L59.9017492,279.391807 C47.6021016,263.294808 51.7471459,242.53063 61.4323397,226.276983 C85.8696053,210.896315 142.463912,211.710257 173.026284,213.845083 Z" id="Shape" fill="#60D6E1" fill-rule="nonzero"></path>
                    <path d="M215.870995,112.14558 C216.024681,104.242092 202.905206,107.199241 203.524621,113.790047 C204.124476,121.274237 216.512762,120.190608 215.870995,112.14558 M223.656555,42.8543948 C235.30292,42.8590694 231.958221,31.0677699 223.210538,30.6065575 C215.625324,31.2259221 213.71165,43.1730365 223.656555,42.8543948 M227.370241,90.3126167 C226.56313,99.842004 239.343281,97.9153101 240.678537,90.5138445 C240.393251,83.1385921 227.488506,79.9644424 227.370241,90.3126167 M187.812606,85.3415301 C182.193215,85.5478311 178.560161,88.0306397 177.768329,92.2054362 C177.516996,108.832657 206.204875,86.9727475 187.812606,85.3415301 M156.796074,62.8948053 C157.067929,71.4246364 166.914234,68.0507 170.7852,63.8230581 C177.117516,55.8262917 157.60615,47.5786234 156.796074,62.8948053 M257.836314,62.4346083 C256.932614,54.5683309 241.994491,53.1847402 240.678537,61.9215562 C240.765851,71.466842 255.887591,71.0881413 257.836314,62.4346083 M207.539912,55.1409543 C194.957133,55.1122429 196.230002,69.1195261 209.020914,68.1363545 C219.908315,68.6042732 216.68657,54.4254971 207.539912,55.1409543 M178.876407,33.8415921 C189.959959,23.7925101 209.037138,3.35908947 226.20458,13.9765468 C250.685486,29.8076132 264.592045,53.8766042 285.761787,72.4154423 C290.166321,76.1617253 288.978793,85.3812457 281.786911,85.2775507 C276.450824,85.4015172 272.82244,88.6472561 276.242395,92.7825912 C277.795593,94.8502587 277.604532,95.9784314 275.467168,97.3163339 C272.501561,99.1150174 270.512298,102.592316 266.19095,101.043125 C257.896566,98.6277283 251.735885,103.423437 253.776345,110.709393 C251.445175,119.445522 238.867848,124.657572 232.666027,131.965358 C220.8109,143.61353 207.487591,157.266217 191.97025,140.218876 C188.76695,137.062018 188.841005,137.007442 191.259012,133.122379 C196.216628,126.623883 187.12782,121.505393 181.244142,125.614999 C176.392571,130.088708 167.410723,116.614564 162.557322,114.460354 C156.968004,111.352615 162.579265,108.286199 163.337124,104.129813 C165.341924,99.7005452 158.539485,95.7819566 154.247401,98.4998633 C150.846634,100.001495 149.866629,105.801411 145.803087,101.662178 C141.718516,96.7253489 117.393021,86.1421974 123.441251,80.727434 C141.46255,64.5346038 159.536857,48.1382812 179.289614,33.4868457 C171.608649,39.1565581 186.108505,47.4209908 189.780784,39.6984245 C191.85963,34.4372548 184.32219,30.2457846 178.876407,33.8415921" id="Fill-18" fill="#52DC82" fill-rule="nonzero"></path>
                    <path d="M878.105561,547.667482 C889.715199,574.699925 891.826625,604.003427 894.169515,632.509179 L894.134889,632.851971 C893.837799,635.494548 893.031811,635.763377 889.762589,635.132026 C880.781975,634.128807 871.785866,637.385962 862.96381,638.632787 C829.35964,631.563554 798.968614,616.094206 765.678828,605.741355 C801.502869,586.828062 839.034646,570.722071 870.259482,546.198843 L871.572248,545.215596 C875.553536,542.278608 875.783468,542.778388 878.105561,547.667482 Z M862.034765,515.727553 C864.369003,522.949534 872.724429,529.792271 869.737943,536.955068 C849.866859,553.190896 826.929234,566.548524 803.316624,578.545702 C786.97692,584.689916 770.666323,599.374506 753.114923,600.377515 C748.198092,597.130973 715.710626,589.201901 720.467352,584.488223 C734.208096,576.20327 770.79095,602.009743 764.539616,561.067793 C762.264502,550.832111 772.478409,555.540337 778.069313,558.907584 C797.933121,567.613832 818.531958,560.02974 812.397975,539.044412 C812.441643,534.145395 817.734164,538.412079 819.828258,539.887002 C833.418899,548.799615 852.416694,537.003349 856.593041,524.726605 L856.8483,523.955447 C857.769426,521.106811 858.608366,518.05467 862.034765,515.727553 Z M840.755108,486.520149 L842.222158,486.425643 L842.222158,486.425643 L842.499812,486.759253 C847.20772,492.331339 860.215679,503.859956 856.338059,510.092022 C847.684202,518.401537 848.795189,532.243178 834.298641,535.896116 C822.952914,540.913535 802.141049,510.888686 804.504164,548.063201 C799.124078,576.06671 747.87755,519.416112 757.331863,570.816541 C754.721956,590.718294 724.063281,566.534083 713.531676,581.059918 C710.751477,583.71312 708.254489,583.905257 704.917888,582.104172 C700.863697,579.837585 694.006543,579.431443 693.953726,574.296086 C691.330159,562.471879 697.212923,556.565633 710.655859,562.408615 C769.212133,576.647806 717.299923,518.500729 753.650126,526.553281 C764.048778,534.36449 793.940687,543.906491 794.41696,524.714706 C793.924298,517.20576 789.954802,509.469531 792.257821,501.998856 C797.82004,486.584195 831.642292,546.842431 840.755108,486.520149 Z M814.638472,461.389394 L816.759091,462.563445 C824.57617,466.921618 834.634916,473.04324 835.158977,480.742232 C829.596625,487.688146 835.065302,509.729398 819.578739,505.542051 C813.869964,502.977574 809.670003,498.569636 805.163549,494.761114 C793.118442,485.811946 780.482184,499.046675 784.142825,509.857233 L784.517828,511.200818 C788.447672,525.516949 788.583701,534.381554 767.73133,525.650203 C756.034558,516.591128 736.563585,514.02899 732.131708,530.329399 C726.963156,539.394709 743.138188,559.102989 723.60628,557.639912 L719.820148,556.661874 C704.867074,552.845732 685.555656,548.948969 685.922139,568.770834 C688.640563,579.74742 667.789005,564.309891 662.20755,563.857016 C655.66296,560.289352 635.572634,562.070455 645.701469,551.957529 C691.685489,517.145337 748.194875,493.821846 799.651213,465.486321 C804.210415,463.86579 809.624527,460.325409 814.638472,461.389394 Z" id="Shape" fill="#67C3CC" fill-rule="nonzero"></path>
                    <path d="M406.658459,142.750473 C408.028222,149.239396 396.195122,146.595559 391.602066,148 L391.577327,147.792915 L391.577327,147.792915 C378.291088,149.69872 382.866736,131.229228 379.259542,124.084017 C377.525121,117.404357 390.417381,118.004593 395.417244,115.616109 C403.333463,113.233852 403.626656,137.672219 406.658459,142.750473 Z M369.099214,123.589836 C373.74499,128.650096 372.62331,136.145764 375.059746,142.18597 C375.781482,144.081951 374.731516,145.283297 372.335535,144.504971 L371.664503,144.226709 C364.323333,141.155344 354.75965,136.236552 353.340535,129.518961 C358.461645,127.492118 363.659067,125.603745 369.099214,123.589836 Z M425.966721,112.068029 C427.271178,120.308679 428.426792,128.565662 429.639725,136.816422 L429.65405,137.215278 C429.750644,140.361845 429.310932,140.840693 425.64962,142.012325 L425.348273,142.085131 C421.177687,143.134589 414.929198,146.327209 414.094405,140.656771 C414.090707,135.040125 402.143506,111.976258 410.976095,111.702503 C415.445087,111.16977 425.306634,105.549235 425.966721,112.068029 Z M461.01458,107.16036 C459.268863,118.109002 453.742901,128.273099 441.984071,135.488737 L441.662258,135.683537 C439.062397,137.233381 438.484844,136.935992 438.01495,134.026171 C438.733775,127.38825 428.944376,106.712493 439.013419,105.462975 C445.853253,105.471528 462.830895,95.7731816 461.01458,107.16036 Z M369.403086,110.635757 C371.179726,119.770063 357.389619,119.167844 350.465139,122.979309 C342.880396,126.269368 342.535551,115.370366 339.983622,111.531704 C339.957952,105.34089 358.766239,104.880095 364.596412,101.785077 C370.180136,100.422119 368.218659,107.902847 369.403086,110.635757 Z M397.227448,106.119971 C396.645335,111.360043 386.291515,110.544887 381.832274,112.906192 C375.263098,114.095417 378.377675,104.946332 377.201662,101.642842 C376.838975,96.22041 386.908991,97.1119392 391.141554,95.2688741 C397.723423,93.8216972 395.747684,102.731536 397.227448,106.119971 Z M424.506887,96.2328885 L424.475632,96.2344231 L424.475632,96.2344231 C427.25924,104.028439 415.504289,103.198407 409.560165,105.321815 C404.193355,108.28523 401.694727,92.3450865 406.36012,92.1809209 L406.833713,92.1014658 C414.656806,90.7124868 426.654641,84.9989657 424.506887,96.2328885 Z M366.404096,80.1850015 C371.734733,99.3140264 359.309244,94.6406184 341.90244,100.807016 C341.345563,95.0584724 362.765401,73.2507582 366.404096,80.1850015 Z M454.708732,85.8329747 L455.338248,86.6378234 C460.147338,92.8476341 459.466936,93.6530287 450.375494,95.6052983 C442.804242,96.6023949 429.868682,103.136085 431.760349,91.7112091 L431.728532,90.6167403 C431.642568,86.41704 432.234675,86.1104386 437.718552,85.0175199 C443.47879,84.6240915 451.165522,79.9972523 454.708732,85.8329747 Z M393.342351,84.162112 C394.33062,90.1534151 384.423934,89.0509846 379.991946,91.0088701 C372.799079,91.7046094 375.768501,81.5606867 374.329928,77.6955561 C375.595024,73.3808831 383.135769,73.0380773 387.091615,70.7849118 C393.795422,69.6279432 391.332592,80.7815834 393.342351,84.162112 Z M421.598974,75.576308 C424.583367,83.9625012 411.419183,81.9507912 405.358219,84.4780113 C397.616139,85.4190467 400.556724,74.1510286 398.270515,70.0460104 C397.271154,65.2073821 404.945698,67.1931644 408.358128,66.8156824 L408.359953,66.8339851 L409.196908,66.7642795 C417.455372,66.1341832 422.355892,67.5632168 421.598974,75.576308 Z M429.988973,71.5148196 C435.199756,71.874671 439.454605,74.1855682 443.976552,76.0299912 L443.435793,77.1717425 L443.435793,77.1717425 L441.881368,77.5072976 C433.903447,79.2616479 428.222649,80.8204574 429.988973,71.5148196 Z" id="Shape" fill="#EBBF5E" fill-rule="nonzero"></path>
                    <rect id="Rectangle" fill-opacity="0.600982026" fill="#EBEDF8" x="47" y="0" width="1453" height="639"></rect>
                </g>
            </g>
            <g id="Master/Character/Standing" transform="translate(352.894737, 10.632787)" fill-rule="nonzero">
                <g>
                    <g id="Legs" transform="translate(0.000000, 130.226688)">
                        <g id="Group-20" transform="translate(0.000000, -0.000000)">
                            <path d="M245.282577,250.224658 L216.856119,259.003754 C215.326969,259.475441 213.710681,258.621502 213.246395,257.096123 C211.839685,252.515449 210.480341,247.925696 209.036988,243.351831 L204.684139,229.635685 C201.694655,220.511109 198.71679,211.38154 195.57895,202.292374 C188.660239,182.042525 181.382701,161.884381 173.816046,141.820664 C172.134964,137.405239 174.094438,132.514041 178.192578,130.894689 L196.443174,123.701805 C200.541314,122.082907 205.250309,124.41274 206.960437,128.905342 C214.651319,149.299103 222.057998,169.813169 229.116129,190.471147 C232.315189,199.739635 235.36053,209.071227 238.415702,218.398279 L242.871328,232.439476 C244.349536,237.12275 245.74731,241.837348 247.188876,246.53515 C247.665227,248.100932 246.811727,249.752971 245.282577,250.224658" id="SKIN-DARKER" fill="#8C6345"></path>
                            <path d="M113.25343,2.71525013 C112.032351,3.28284217 111.685835,5.18055805 112.479916,6.95269643 C119.703555,23.0696809 126.710789,39.3018159 133.576287,55.5924327 C137.028485,63.729581 140.376504,71.9111573 143.751351,80.0809464 C147.060919,88.2770298 150.40715,96.4586061 153.634449,104.684157 C156.916295,112.890668 160.072054,121.140246 163.270736,129.375771 C166.387149,137.637137 169.556322,145.882182 172.581522,154.171655 C175.669319,162.441634 178.622981,170.750601 181.609729,179.049141 L185.976284,191.526646 C186.697933,193.607514 187.43836,195.683849 188.145701,197.768345 L190.262358,204.022284 L193.205288,212.722491 L196.064608,221.439472 L198.914986,230.158719 L201.666997,238.895647 L247.320878,223.986382 L244.428918,214.986512 L241.443958,206.02699 L238.450056,197.072002 L235.37612,188.151921 L233.167804,181.73931 C232.429612,179.602226 231.660569,177.479196 230.908516,175.348459 L226.363562,162.579452 C223.261456,154.098666 220.189309,145.605186 216.989285,137.168374 C213.849175,128.705269 210.570012,120.304272 207.339583,111.881968 C204.031804,103.493665 200.763372,95.0885876 197.372876,86.7374592 C194.035587,78.363663 190.5816,70.0410956 187.162488,61.7031139 C183.678991,53.3936937 170.273324,20.2330808 163.270736,2.39776145e-05 C163.270736,2.39776145e-05 146.598301,0.905099363 113.25343,2.71525013 Z" id="Fill-3" fill="#5C1C8A"></path>
                            <path d="M243.723041,235.815961 C241.380785,236.561529 232.935243,239.251094 225.059716,241.75879 C225.100431,241.859225 225.144726,241.95785 225.176941,242.063261 C226.012725,244.797161 223.629307,247.972612 219.852616,249.155658 C216.076372,250.33961 212.345318,249.10906 211.519376,246.408186 C211.487609,246.304584 211.469265,246.198721 211.446894,246.093762 C210.416033,246.421306 209.820961,246.611316 209.820961,246.611316 L214.458493,261.773312 L263.838698,246.676011 L262.286591,241.600448 C261.042757,237.533301 247.277363,240.731825 243.723041,235.815961" id="Fill-5" fill="#0A1B45"></path>
                            <path d="M247.320878,224.321549 L201.521822,239.335602 L199.231757,232.103509 C198.473176,229.691293 197.658205,227.290922 196.874562,224.883261 L242.529062,209.418655 C243.336425,211.89875 244.172878,214.365634 244.956522,216.856208 L247.320878,224.321549 Z" id="Fill-8" fill="#D7DBE2"></path>
                            <path d="M14.4874023,99.8638331 L33.7311193,76.8247762 C34.7664334,75.5859655 36.4294542,75.2978807 37.5027164,76.1953583 C40.745272,78.9046309 44.1811398,81.5638415 47.6482591,84.0646734 C51.1225214,86.5682362 54.6566078,88.9261633 58.2045343,91.0874828 C61.7520143,93.2315081 65.3182452,95.2053222 68.8277767,96.857373 C72.33463,98.5258082 75.7901415,99.8874987 79.0152857,100.848237 C80.3832041,101.266938 81.6859409,101.568221 82.9426935,101.839012 C84.1909634,102.089778 85.3575332,102.244971 86.4468678,102.355107 C87.5201301,102.441124 88.4866909,102.445674 89.3487832,102.411996 C90.2014996,102.366485 90.908228,102.24042 91.5256659,102.111168 C92.1511404,101.991929 92.6109826,101.781668 93.0618955,101.595073 C93.5123619,101.413029 93.8918432,101.164539 94.3083798,100.861435 C95.1316306,100.296188 96.0776553,99.284022 97.1460065,97.7543957 C97.3719095,97.3921279 97.7759453,97.1541051 98.3375775,97.0439685 C98.9045673,96.8387136 99.6188849,96.729032 100.430975,96.7495119 C102.053815,96.7877413 104.080691,97.2587806 106.035243,98.2791381 L123.422181,107.406833 C125.377179,108.427191 126.75983,110.075146 127.349588,112.021654 C127.643352,112.992404 127.750945,114.029601 127.628619,115.073169 C127.445128,116.131756 127.05136,117.199445 126.4116,118.177933 C123.415484,122.583857 119.663084,126.855979 114.972249,130.245642 C112.65161,131.943204 110.138551,133.444158 107.502273,134.616978 C104.875816,135.795259 102.149802,136.752356 99.4202153,137.358563 C96.6937544,137.979789 93.9632752,138.365722 91.2939592,138.511813 C88.6295545,138.646526 86.0151518,138.594188 83.4735204,138.381651 C80.9439434,138.148635 78.4706186,137.790463 76.0740829,137.308501 C73.6882618,136.811975 71.3444072,136.241267 69.0844846,135.556781 C63.722638,133.955702 58.6853595,131.923179 53.8771086,129.642165 C49.0594827,127.368433 44.4833855,124.826186 40.0412227,122.14058 C35.6106676,119.44223 31.3323514,116.581861 27.1723441,113.584958 C23.0118903,110.582594 18.9759957,107.460537 15.0093006,104.147788 C13.683795,103.040049 13.448963,101.101733 14.4874023,99.8638331" id="SKIN" fill="#B18058"></path>
                            <path d="M71.0389048,0 C70.3681326,-0.0122942787 70.3838741,4.72512704 70.4755467,6.22631695 C70.632507,7.81151181 70.8185347,9.39716074 71.0327347,10.9755444 C71.2782373,12.4594793 71.5671166,13.8684909 71.8618092,15.3124667 C72.4892051,18.0328627 73.2069312,20.647912 73.9863688,22.951008 L74.5712822,24.7223758 L75.1754246,26.3557032 C75.5801237,27.4282412 75.989742,28.5738861 76.4047268,29.543802 L77.6559405,32.5507227 L78.9098377,35.363297 L79.2251008,36.0657594 L79.5358917,36.7269006 L80.1579215,38.0487287 L80.7817398,39.3701028 L81.3943782,40.6324465 L82.6151839,43.1267104 L83.8033451,45.5097246 C85.361326,48.6306196 86.8781655,51.6125658 88.2299955,54.3951706 C88.9414614,55.8268866 89.5460506,57.1450818 90.2020661,58.5141346 L91.0937463,60.4825733 L91.5382444,61.4633868 L91.9402609,62.4119608 C93.0720772,64.9761534 93.9346904,67.3423666 94.7235186,69.6263913 C95.0593522,70.7343474 95.4488473,71.860467 95.6880892,72.8866887 L95.9009476,73.6717939 L96.0073769,74.0613948 L96.081162,74.4323786 C96.1808832,74.9259642 96.2873124,75.4181873 96.3991081,75.9090483 C96.4666325,76.161063 96.4854142,76.3853785 96.520294,76.6169598 L96.6258291,77.3076159 L96.7416489,77.9960018 C96.7939693,78.2312154 96.7805537,78.431919 96.8064903,78.650332 C96.8409232,79.0798919 96.8847472,79.5067275 96.9375145,79.9340172 C96.9536132,80.3440518 96.9433279,80.7350153 96.9638984,81.1355144 L96.9960952,81.7330838 L96.9571904,82.2947816 C96.9339369,82.6680355 96.9290181,83.042652 96.9245463,83.415906 C96.8641767,83.7709972 96.8167755,84.1260881 96.7818952,84.482541 C96.7617721,84.6609947 96.7559587,84.8417186 96.7331525,85.0183562 L96.6119662,85.5364618 C96.53684,85.8829252 96.4787062,86.2316591 96.4250447,86.5826632 C96.3096717,86.9259479 96.2054782,87.2715031 96.1138061,87.6202371 L95.985018,88.1469702 C95.9318034,88.3226993 95.8441558,88.4975203 95.7797613,88.6746119 C95.6411353,89.0274321 95.5136887,89.3834315 95.3969742,89.7448793 C95.3544917,89.9256036 95.2426964,90.1076896 95.1568377,90.29023 L94.8956834,90.8414836 L94.6483924,91.3986406 C94.5607448,91.5857214 94.5111074,91.7732566 94.3814247,91.9639706 C94.1564926,92.3440359 93.9396096,92.727734 93.7303284,93.1159728 L93.4217733,93.7012825 C93.3967309,93.7475987 93.3703475,93.8043587 93.347094,93.8434095 L93.2804637,93.9378582 L93.1512283,94.1290262 C92.47822,95.1933906 91.9116413,95.8027667 91.5780439,96.1083626 C91.5391391,96.1692098 91.4939735,96.1751126 91.4577517,96.2032658 C91.4206357,96.2286943 91.3888858,96.2604798 91.3607136,96.2981685 C91.3262806,96.3077041 91.2967664,96.3199643 91.2712771,96.339944 C91.2462348,96.3594692 91.2283478,96.3967039 91.1997282,96.3908006 C91.1509855,96.4030609 91.1237074,96.4539179 91.0754115,96.4502852 C91.0530526,96.4521018 91.0499223,96.4893365 91.0208554,96.4838872 C90.9949188,96.4838872 90.9734542,96.4906986 90.9546725,96.505683 C90.9430457,96.5297494 90.9032467,96.5206679 90.8750745,96.5288414 C90.8433245,96.5333822 90.8258844,96.5583566 90.7901099,96.5678922 C90.6944128,96.5592647 90.6559553,96.6282849 90.5262726,96.6264687 C90.4712696,96.6346422 90.420738,96.6528053 90.3661818,96.6727846 C90.2928441,96.6755092 90.2208478,96.6832287 90.1506404,96.6986676 C90.1153128,96.7059325 90.0804325,96.7154681 90.0455526,96.7259122 L89.9100565,96.7331776 C89.8197259,96.7395346 89.7302895,96.7522488 89.6404062,96.7704119 C88.8399509,96.8335292 87.6164625,96.8235396 86.0799467,96.6260147 C84.5237547,96.4076016 82.66974,95.997113 80.6565289,95.3913696 C76.9552072,94.2861381 72.7445456,92.5043261 68.4623351,90.2834186 C64.1693924,88.0611491 59.7749392,85.4047784 55.4310177,82.4786841 L29.0177925,123.14068 C34.6902904,126.909548 40.5975587,130.460003 46.8961108,133.673076 C53.199582,136.876613 59.8849461,139.768652 67.2835645,141.946876 C71.3274274,143.125668 75.5841487,144.090589 80.1158864,144.669542 C84.6614865,145.223974 89.4937307,145.395163 94.5549314,144.863888 C99.6152376,144.292655 104.908526,143.036215 109.946473,140.766267 C114.970111,138.516752 119.707999,135.384959 123.591323,131.705999 C127.508634,128.044295 130.676468,123.963473 133.218248,119.854046 L133.698968,119.080747 L133.937763,118.693416 L134.144808,118.322432 L134.955101,116.842584 L136.552433,113.870173 C136.827003,113.385216 137.047463,112.843044 137.289389,112.325392 L137.995935,110.752457 L138.693091,109.175436 C138.920707,108.646432 139.165315,108.131959 139.353131,107.57344 L140.532796,104.270459 C140.721507,103.716481 140.925869,103.17113 141.096692,102.608524 L141.568021,100.899366 C141.877918,99.7582614 142.179766,98.6148868 142.473564,97.471058 C142.706993,96.3072501 142.925218,95.1393549 143.138523,93.9714602 L143.45155,92.2178014 C143.53249,91.6306756 143.591518,91.0412791 143.659043,90.4532448 C143.789172,89.27536 143.9117,88.0961132 144.024837,86.9173203 C144.081629,85.7439768 144.118298,84.5701788 144.154072,83.3959267 L144.196108,81.6359109 L144.139763,79.8995071 C144.09415,78.7443267 144.060611,77.5809723 143.984591,76.4344194 L143.638025,73.0419841 C143.535621,71.8995179 143.347804,70.8088168 143.166248,69.7122124 L142.891679,68.0670791 C142.797324,67.5203662 142.712359,66.9641173 142.587595,66.4410169 L141.881049,63.2610913 L141.69994,62.4669046 L141.494684,61.6976924 L141.075675,60.1647168 C140.537715,58.0918397 139.883936,56.1524621 139.247149,54.1844774 C137.911865,50.3447732 136.467916,46.6122319 134.915302,43.141695 L134.339779,41.8216832 L133.751288,40.5425385 L132.571176,37.9910605 C131.776087,36.3531923 130.978762,34.6640131 130.181885,33.0878999 C126.995269,26.6717432 123.821622,20.7469015 121.312486,15.3347166 L120.403366,13.3381249 L119.594862,11.4269003 C119.303747,10.7762031 119.1128,10.2008831 118.874452,9.59468571 L118.52744,8.69696867 L118.25287,7.8605525 C117.491767,5.62602263 115.158374,0.0149505481 114.487154,0 L71.0389048,0 Z" id="Fill-12" fill="#8F1EE0"></path>
                            <path d="M24.1310326,111.464891 C25.5786088,109.46297 30.8000634,102.24629 35.6683309,95.5168694 C35.579476,95.4626291 35.4883885,95.4115529 35.4031056,95.3482724 C33.1790535,93.6952973 33.3844468,89.7511191 35.8121062,86.6047261 C38.2415516,83.4547175 41.8247715,82.1782608 43.8635232,83.692471 C43.9421085,83.7512314 44.0113171,83.8194838 44.0840977,83.8845721 C44.720817,83.0036183 45.0891853,82.4951151 45.0891853,82.4951151 C43.1866184,81.0826054 41.3005722,79.633032 39.4645347,78.1549822 C38.546516,77.4173134 37.6374275,76.6728641 36.7555758,75.9324834 L35.4638306,74.8323079 L34.4131993,73.9124819 L0,112.674903 L1.40694404,113.922884 L2.60045766,114.953903 L4.92140186,116.907008 C6.76904846,118.43297 10.1151731,116.573881 13.7077696,114.584616 C17.3097428,112.595803 21.1443462,110.472745 24.1310326,111.464891" id="Fill-14" fill="#0A1B45"></path>
                            <path d="M29.0177925,123.110906 L55.3514741,82.2716289 C58.9207407,84.6819172 62.5206925,86.8965061 66.0712815,88.8439427 L43.515437,131.986556 C38.4666101,129.217637 33.6579282,126.242551 29.0177925,123.110906" id="Fill-16" fill="#D7DBE2"></path>
                            <path d="M114.731887,44.8754449 C90.3230132,44.8754449 70.5355572,24.7839483 70.5355572,2.39776145e-05 L163.392493,2.39776145e-05 C163.392493,24.7839483 143.605037,44.8754449 119.196163,44.8754449 L114.731887,44.8754449 Z" id="Fill-18" fill="#8F1EE0"></path>
                        </g>
                    </g>
                    <g id="Body/Sweats-Grab-Up" transform="translate(35.714206, 18.343138)">
                        <g id="Right-Arm" transform="translate(98.718226, 0.000000)">
                            <path d="M157.04491,32.6147504 C150.264122,35.1462521 141.462356,35.2931971 134.957906,38.6381757 C117.719105,48.6665124 100.077626,57.6213587 81.1133829,64.9004159 C73.5772389,67.8762723 64.9710081,70.5802363 57.1478112,72.758894 C51.2469315,74.337453 44.4473931,75.7989838 38.4023172,76.8605955 C32.8286689,77.934086 26.2514514,79.0682902 21.7536936,74.7642094 C12.1300543,67.9616236 16.6804906,50.9648379 28.0469832,49.0312352 C33.1898289,48.3849412 39.0621372,47.2859333 44.090251,46.0430601 C52.9018385,44.0034283 62.0571753,41.085646 70.4781387,37.8211791 C93.5981765,29.67849 114.774022,15.5022565 136.862812,4.86062243 C145.211454,0.531904135 161.142223,-1.42721596 166.911406,1.16103994 C169.405597,1.61639347 170.587737,5.61250571 168.099796,6.74758988 C167.280602,7.12111177 164.156502,7.79688281 160.506063,8.90556968 C162.258291,9.69220941 163.573467,10.7832981 164.517661,11.8070736 C166.645335,14.0992397 163.899359,18.0883127 160.526599,17.1256909 C157.571695,16.2664586 154.54313,13.4432666 148.511894,14.4089681 C141.877087,20.2150556 146.839576,27.4699154 154.431523,25.5490714 C158.782853,25.0550018 160.644456,31.2297717 157.04491,32.6147504" id="SKIN" fill="#B18058"></path>
                            <path d="M157.04491,32.6147504 C150.264122,35.1462521 141.462356,35.2931971 134.957906,38.6381757 C117.719105,48.6665124 100.077626,57.6213587 81.1133829,64.9004159 C73.5772389,67.8762723 64.9710081,70.5802363 57.1478112,72.758894 C51.2469315,74.337453 44.4473931,75.7989838 38.4023172,76.8605955 C32.8286689,77.934086 26.2514514,79.0682902 21.7536936,74.7642094 C12.1300543,67.9616236 16.6804906,50.9648379 28.0469832,49.0312352 C33.1898289,48.3849412 39.0621372,47.2859333 44.090251,46.0430601 C52.9018385,44.0034283 62.0571753,41.085646 70.4781387,37.8211791 C93.5981765,29.67849 114.774022,15.5022565 136.862812,4.86062243 C145.211454,0.531904135 161.142223,-1.42721596 166.911406,1.16103994 C169.405597,1.61639347 170.587737,5.61250571 168.099796,6.74758988 C167.280602,7.12111177 164.156502,7.79688281 160.506063,8.90556968 C162.258291,9.69220941 163.573467,10.7832981 164.517661,11.8070736 C166.645335,14.0992397 163.899359,18.0883127 160.526599,17.1256909 C157.571695,16.2664586 154.54313,13.4432666 148.511894,14.4089681 C141.877087,20.2150556 146.839576,27.4699154 154.431523,25.5490714 C158.782853,25.0550018 160.644456,31.2297717 157.04491,32.6147504" id="SHADOW" fill="#000000" opacity="0.12"></path>
                            <path d="M121.624498,9.61649314 C118.427184,11.4541856 113.55398,14.3578893 110.330773,16.065795 C100.114278,15.4063023 34.3884496,48.0897441 1.40002037,48.0900833 C-4.08702099,56.2283728 7.72073377,75.0510161 16.6461603,80.3423562 C22.9064142,84.5993618 30.508183,83.4457995 37.720667,83.1910655 C59.4317794,81.520556 80.5888751,74.3026525 99.6803505,64.2109623 C109.049972,58.8047939 119.923163,52.9674696 126.709755,44.8454583 C130.232515,42.996327 135.341878,39.9126817 138.813299,37.9328837 L121.624498,9.61649314 Z" id="Fill-4" fill="#374D9F"></path>
                            <path d="M110.783451,16.5744271 L127.171807,45.3479311 C130.578496,43.535316 135.777592,40.4450714 139.157941,38.5000298 L121.96914,10.1831993 C118.801736,12.0037335 113.974515,14.8792801 110.783451,16.5744271" id="Fill-6" fill="#25996F"></path>
                        </g>
                        <g id="Body" transform="translate(17.857245, 48.089744)">
                            <path d="M124.154362,84.6031109 C91.7580092,86.8382104 0.643226022,76.6138601 1.67445227,70.9234077 C3.71974658,59.6371839 7.26066895,42.0012541 12.2972194,18.0156177 C12.2972194,8.0662009 21.2961538,0 32.3965423,0 L94.5958944,0 C105.696283,0 114.694744,8.0662009 114.694744,18.0156177 C119.138323,41.0196203 122.366985,58.0776891 124.380731,69.1898245 C125.099764,73.1575477 125.024307,78.29531 124.154362,84.6031109 Z" id="Sweat-Body" fill="#1B2B67"></path>
                            <path d="M0,85.875066 C44.9331844,101.561466 93.6502166,86.7229796 126.992058,85.875066 L124.853712,68.7658679 C92.1920162,69.9169105 45.4548823,83.9715004 1.64029773,69.1249592 L0,85.875066 Z" id="Bottom" fill="#2DB386"></path>
                        </g>
                        <g id="Left-Arm" transform="translate(0.000000, 48.090083)">
                            <path d="M79.2738637,99.6148808 C57.1355201,99.0539381 35.4605684,82.8917473 36.8583332,59.8420593 C37.1842253,49.2391412 41.1007344,39.4426607 47.0038462,30.1314508 C50.947141,23.995397 48.9315205,15.1905754 43.294926,10.588205 C20.6985477,-5.43583986 7.46688074,43.310306 7.40259517,59.1082141 C7.06598878,70.2254397 9.59053673,81.7368651 14.9155249,91.6428943 C25.507912,111.923505 47.1658995,124.653606 69.4332606,127.740771 C74.5207493,128.782585 111.168436,131.628214 98.4796245,120.477992 C100.073817,119.71203 100.991672,118.04196 100.69212,116.346374 C100.452834,114.986032 99.5238186,113.908582 98.3434641,113.385476 C101.080958,112.086728 100.970244,107.85172 98.4037318,106.464102 C100.30596,106.161413 102.486758,105.743015 104.366665,105.31054 C107.120677,105.082643 109.866653,103.223833 108.910405,100.090912 C106.724695,94.0696867 99.4171224,99.201323 94.9559716,98.9751861 C93.9403489,93.0353522 86.6943829,96.526396 82.6564454,95.7947506 C80.9452885,95.7459156 79.4359169,97.4489818 79.2738637,99.6148808" id="SKIN" fill="#B18058"></path>
                            <path d="M69.0306722,130.35142 C63.548988,129.523425 58.0525716,128.241836 52.6722265,126.323631 C38.4552939,126.598603 24.3651467,116.14615 15.0973102,105.2709 C0.220111168,87.4725158 -3.59461248,61.8398514 3.35537204,40.0990297 C6.52188285,29.2347783 13.2919571,17.3053956 20.3522092,9.20758192 C27.4124613,1.10976823 39.6353851,0 55.3293634,0 C71.0233419,0 56.8534672,18.0190028 55.3293634,25.3257772 C53.457939,31.1595819 49.7619651,36.4834787 48.0387547,42.3630387 C39.8253801,65.3630119 45.5338495,80.1529827 63.93738,95.2509221 C67.133355,96.4005248 70.5471867,97.1968436 74.0623574,97.7296292 L69.0306722,130.35142 Z" id="Fill-12" fill="#1B2B67"></path>
                            <path d="M53.0724042,125.764273 L64.2656828,94.6660458 C67.386658,95.7830918 70.7268291,96.5525733 74.1629822,97.0765598 L69.1317434,129.697911 C63.7491661,128.881794 58.353196,127.634962 53.0724042,125.764273" id="Fill-15" fill="#2DB386"></path>
                        </g>
                    </g>
                    <g id="Head/Bun-Loose" transform="translate(91.517653, 0.000000)">
                        <path d="M7.98846735,39.5707576 C14.7628967,35.5186 13.8215879,19.4425833 27.6326644,19.3585152 C41.4437409,19.2754398 38.7363466,29.7564643 45.4216815,42.1858367 C52.1070161,54.6152086 52.0301087,69.5129068 34.977099,69.5129068 C27.9771278,69.5129068 24.4483341,69.5129068 14.9470454,69.5129068 C-3.95494456,69.5129068 -3.35276515,46.3545706 7.98846735,39.5707576 Z" id="Path-2" fill="#000000"></path>
                        <g id="Head" transform="translate(8.928552, 19.358069)">
                            <g id="head" fill="#B18058">
                                <path d="M5.80355851,27.2772166 L25.8927995,27.2772166 L25.8927995,49.9934186 C25.8927995,56.1109944 21.3954881,61.0701684 15.848179,61.0701684 C10.3008699,61.0701684 5.80355851,56.1109944 5.80355851,49.9934186 L5.80355851,27.2772166 Z" id="SKIN"></path>
                                <path d="M26.8090921,41.35578 L24.5827578,41.35578 C14.2113523,41.35578 5.80378172,33.0701055 5.80378172,22.8490685 L5.80378172,14.1678743 C5.80378172,6.34327273 12.2399281,0 20.180089,0 L22.6769584,0 C30.6171193,0 37.0537121,6.34327273 37.0537121,14.1678743 L37.0537121,31.2596902 C37.0537121,36.8356813 32.4671152,41.35578 26.8090921,41.35578" id="SKIN"></path>
                                <path d="M11.1606894,25.7373737 C11.1606894,28.7743838 8.66248071,31.2368126 5.58034472,31.2368126 C2.49820872,31.2368126 0,28.7743838 0,25.7373737 C0,22.7003636 2.49820872,20.2379349 5.58034472,20.2379349 C8.66248071,20.2379349 11.1606894,22.7003636 11.1606894,25.7373737" id="SKIN"></path>
                            </g>
                            <path d="M4.49418642,23.3917091 C4.89812789,23.3917091 5.45712513,23.4835246 6.03070997,23.7661589 C6.98900221,24.2383582 7.59508688,25.1017389 7.63574639,26.3541928 L7.63792942,26.489873 L6.29864669,26.489873 C6.29864669,25.6823857 5.98556105,25.2195661 5.43176451,24.9466824 C5.22611078,24.8453463 4.99895418,24.7781874 4.77067643,24.7406927 C4.65835132,24.7222432 4.57078139,24.7143218 4.52008355,24.7121939 L4.49418642,24.7115744 L4.49418642,23.3917091 Z" id="ear-line" fill="#000000"></path>
                            <path d="M15.5136932,42.3816129 C11.3641677,40.9349935 9.29398922,37.2812124 8.47418747,32.3666596 C11.7201579,37.6910298 17.6073816,41.273608 24.3499202,41.3543427 L24.5827578,41.355736 L25.8927995,41.355736 C22.3495978,43.2166753 18.8898957,43.5586343 15.5136932,42.3816129 Z" id="SHADOW" fill="#000000" opacity="0.12"></path>
                        </g>
                        <path d="M43.2871096,25.5945048 C40.7050505,21.8318841 36.3324604,19.3580247 31.3726939,19.3580247 L28.876748,19.3580247 C20.9413893,19.3580247 14.5083276,25.69114 14.5083276,33.5032118 C14.5083276,33.5032118 14.2923752,38.0946986 14.2856825,39.5635525 C14.2856825,39.6364685 16.7392409,39.5635525 16.7392409,39.5635525 L20.085611,27.0967271 C36.1594238,27.0967271 44.1963302,27.0967271 44.1963302,27.0967271 C44.0240578,26.7447992 43.7209843,26.2440585 43.2871096,25.5945048 Z" id="Fill-10" fill="#000000"></path>
                        <ellipse id="Oval" fill="#000000" cx="23.6606616" cy="10.9988777" rx="11.1606894" ry="10.9988777"></ellipse>
                        <path d="M31.6109227,19.3580247 C39.1020591,19.3580247 45.260889,24.9534537 45.9819963,32.1162819 L14.7321544,32.1162819 C15.4532137,24.9534537 21.6116478,19.3580247 29.1027842,19.3580247 L31.6109227,19.3580247 Z" id="Combined-Shape" fill="#000000"></path>
                    </g>
                    <g id="Expression/Happy" transform="translate(115.624760, 33.436588)" fill="#000000">
                        <path d="M5.16099751,5.71941639 C5.16099751,4.99041077 4.56144528,4.39955107 3.82171478,4.39955107 C3.08198429,4.39955107 2.48243205,4.99041077 2.48243205,5.71941639 C2.48243205,6.448422 3.08198429,7.03928171 3.82171478,7.03928171 C4.56144528,7.03928171 5.16099751,6.448422 5.16099751,5.71941639" id="Fill-1"></path>
                        <path d="M16.7681145,5.71941639 C16.7681145,4.99041077 16.1685623,4.39955107 15.4288318,4.39955107 C14.6891013,4.39955107 14.0895491,4.99041077 14.0895491,5.71941639 C14.0895491,6.448422 14.6891013,7.03928171 15.4288318,7.03928171 C16.1685623,7.03928171 16.7681145,6.448422 16.7681145,5.71941639" id="Fill-3"></path>
                        <polygon id="Stroke-5" points="10.8025398 4.57411029 12.1194272 4.33374874 14.0334425 14.5183425 9.62527329 14.5183425 9.62527329 13.1984772 12.4231688 13.1982132"></polygon>
                        <path d="M5.76867473,14.3363771 C5.76867473,15.9528877 7.4392432,17.4478247 9.23279358,17.5058282 L9.34054178,17.5075735 L9.34054178,18.8274388 C6.8415873,18.8274388 4.50716053,16.818611 4.43129351,14.4548531 L4.429392,14.3363771 L5.76867473,14.3363771 Z" id="Stroke-7"></path>
                        <path d="M6.27706646,0 L6.27706646,1.31986532 C4.83670074,1.31986532 3.52291808,1.70066974 2.36121107,2.33670536 C2.01268711,2.52752255 1.70027834,2.72965518 1.42661382,2.93251914 L1.29302238,3.03396302 C1.13777969,3.15474618 1.02905502,3.24884026 0.969514301,3.30475741 L0.947015914,3.32635106 L0,2.39306532 C0.320156899,2.0775502 0.898126826,1.62787362 1.71079787,1.1829355 C3.00157433,0.476234201 4.45955037,0.0391754989 6.0581994,0.00250630985 L6.27706646,0 Z" id="Stroke-9"></path>
                        <path d="M12.5270525,0 C14.2116799,0 15.743873,0.444111407 17.0933211,1.1829355 C17.8552002,1.60006498 18.410799,2.02135913 18.741074,2.33236797 L18.804119,2.39306532 L17.8571031,3.32635106 L17.7715869,3.24774688 C17.7216279,3.20386418 17.6558576,3.14858729 17.5747734,3.08405974 L17.5110966,3.03396302 C17.2069737,2.79734702 16.8495192,2.55932541 16.4429079,2.33670536 C15.3392863,1.7324715 14.0984163,1.35858383 12.7421548,1.32270567 L12.5270525,1.31986532 L12.5270525,0 Z" id="Stroke-11"></path>
                    </g>
                </g>
            </g>
            <g id="Master/Character/Standing" transform="translate(158.234450, 18.632787)" fill-rule="nonzero">
                <g>
                    <g id="Legs/Pants-Jump" transform="translate(12.071848, 127.435180)">
                        <g id="Right-Leg" transform="translate(51.392260, 0.121402)">
                            <path d="M14.7356187,96.6931651 C14.736076,96.6931651 34.4430278,73.6464928 34.4430278,73.6464928 C35.5027922,72.4076398 37.2047271,72.1168142 38.3015397,73.011592 C51.0900644,83.2109665 66.4852342,93.637904 82.1173303,97.6320902 C103.272368,102.405452 91.9589141,86.2398303 107.567683,92.0804627 C111.268397,94.3124008 129.198403,99.202275 130.452099,104.002489 C132.619653,108.784499 127.59755,113.723981 125.083754,117.482412 C113.56219,133.121453 91.8244425,137.716861 73.7933546,132.825166 C58.6008069,129.131818 45.4696999,122.065987 32.7914054,113.82775 C26.7173136,109.820821 20.9190258,105.569943 15.2744199,100.979087 C13.91461,99.8704 13.6726526,97.9315631 14.7356187,96.6931651" id="SKIN-DARKER" fill="#DCB284"></path>
                            <path d="M72.5476627,0.748682332 C69.6226765,1.80548499 70.2890885,5.69817799 70.6453925,8.33517825 C72.4232536,22.2119711 80.0721269,36.6399217 86.1059687,48.3885452 C92.8629384,62.3390685 102.85546,78.9470727 91.6170178,92.3355154 C82.2950249,95.1559314 64.9463576,84.5392064 56.5720694,79.2433598 L29.6800342,120.079088 C61.2021923,141.425865 108.218316,155.6704 133.38143,117.396576 C139.69382,107.686917 143.840943,96.4102588 144.794136,84.8573395 C147.807856,55.8348623 129.577347,31.304024 119.109601,6.38951444 C118.723567,5.33089128 118.09832,1.08866148 117.891581,0 L72.5476627,0.748682332 Z" id="Fill-3" fill="#051026"></path>
                            <path d="M18.4590186,103.521376 L40.9198941,75.1014853 C43.9802667,77.4936277 47.1426365,79.8088539 50.3388529,81.9961896 L29.7651538,111.797843 C25.9011533,109.153105 22.1418942,106.400048 18.4590186,103.521376" id="Fill-6" fill="#FFFFFF"></path>
                            <path d="M24.7418616,108.257963 C26.2219641,106.239934 31.5578342,98.9642896 36.5332838,92.180636 C30.5415216,88.5469097 40.1054718,76.1829558 45.1339783,80.4534034 C45.7857539,79.5649974 46.1612682,79.0525254 46.1612682,79.0525254 C42.4207619,76.3267756 38.7401733,73.4690392 35.251687,70.4465472 L0,109.476791 C1.59307694,110.877214 3.42582437,112.426918 5.05549222,113.746783 C9.6911037,116.523052 19.4887784,105.929994 24.7418616,108.257963" id="Fill-8" fill="#0A1B45"></path>
                        </g>
                        <path d="M74.5538053,0.000111013513 C74.5538053,25.136028 95.8508089,45.5127148 122.121994,45.5127148 C148.393179,45.5127148 169.690183,25.136028 169.690183,0.000111013513" id="Waist" fill="#0A1B45"></path>
                        <g id="Left-Leg">
                            <path d="M14.7264252,104.21214 C48.8643762,65.7844836 23.6843384,79.9794096 73.7448259,103.196754 C82.8070233,106.771314 92.2291838,111.153723 100.98356,107.157261 C102.743583,106.059952 104.075035,103.597265 106.861433,104.540286 C111.073047,104.521171 125.628456,115.172941 129.431167,117.061259 C131.344871,118.234118 132.58942,120.08011 132.927428,122.247875 C133.565483,130.659059 120.56839,137.978851 113.761107,141.167919 C88.2769076,151.294019 60.7738041,138.748925 39.2299885,125.649032 C30.8218537,120.428281 22.910898,114.738295 15.2496753,108.491235 C13.897641,107.385734 13.6611722,105.448718 14.7264252,104.21214" id="SKIN" fill="#FFDBB4"></path>
                            <path d="M121.460934,0.781425891 L78.7570494,0 C78.0709698,-0.0141344219 77.4406913,0.701778835 77.0038872,1.91150384 C74.7755005,22.7571866 91.7939349,46.0614602 99.4396064,64.3602577 C105.101136,76.479809 108.837525,91.7360889 98.4516518,102.250866 C87.2749569,106.355647 66.7465391,93.4755806 56.7430405,87.0328164 L29.4389001,127.59729 C50.7101135,141.459064 76.5611372,154.51845 103.073542,150.97757 C135.281779,146.869147 154.74037,113.041904 153.30372,82.7837597 C152.790989,69.5814636 148.632432,56.6431406 143.340013,44.9659719 C137.040888,30.0373827 127.698312,17.6834415 124.13207,2.97149238 C124.132528,2.97149238 124.057516,2.47768063 124.057059,2.47768063 C124.032817,2.31656602 124.028244,2.17684232 124.007661,2.0261956 C123.727741,0.977130087 122.516581,0.884284376 121.460934,0.781425891" id="Fill-14" fill="#0A1B45"></path>
                            <path d="M17.6565341,110.433668 L40.3323812,82.1830844 C43.6058959,84.7809438 47.0024476,87.3073484 50.4419935,89.6990357 L29.6272518,119.334568 C25.5391319,116.490485 21.5598699,113.531256 17.6565341,110.433668" id="Fill-17" fill="#FFFFFF"></path>
                            <path d="M24.6531286,115.777849 C26.1442084,113.768922 31.5221581,106.523771 36.5360281,99.7678801 C30.5470102,96.0900066 40.1594434,83.7606422 45.2048732,88.0902562 C45.8607653,87.2059463 46.2394813,86.6952949 46.2394813,86.6952949 C42.4742762,83.9235774 38.7749347,81.0257899 35.251687,77.9718942 L0,117.001683 C0.656349529,117.574686 1.97819631,118.72661 2.64140664,119.279588 L5.0024354,121.237086 C9.60237074,123.99788 19.4284034,113.43395 24.6531286,115.777849" id="Fill-19" fill="#0A1B45"></path>
                            <path d="M100.567659,0.690309659 L99.6528857,0.681662264 C101.255568,28.7515606 124.757455,50.4064575 128.195171,77.888333 C130.57724,92.9256973 125.56154,109.580124 114.2458,119.987491 C92.7911745,136.944122 62.9439655,119.286142 43.3138547,106.916272 L42.8047836,107.672236 C62.7303661,120.28742 93.0811575,137.998649 114.844976,120.675642 C126.403589,110.058917 131.524487,93.1045618 129.101711,77.7572567 C125.704702,50.2667338 102.262733,28.6213946 100.567659,0.690309659" id="Fill-21" fill="#FFFFFF"></path>
                        </g>
                    </g>
                    <g id="Body/Tee-Open-Arms" transform="translate(0.000000, 35.938239)">
                        <g id="Right-Arm" transform="translate(240.722395, 61.772461) rotate(-10.000000) translate(-240.722395, -61.772461) translate(156.009612, 13.984210)">
                            <path d="M23.2906121,9.94119511 L23.5206148,9.94270381 C29.7266682,10.026261 35.5935075,13.5737927 37.8097369,19.4630099 C45.3067579,38.6825273 56.2671089,60.9086074 77.9531718,64.9187229 C87.1201106,66.4147222 96.6561603,65.0356903 105.721102,62.9316426 C111.357937,61.7234163 117.07177,59.1704533 122.448735,57.9590206 C132.472417,54.2251853 143.958177,50.6954685 153.668053,50.6693192 L154.107235,50.6705471 L154.107235,50.6705471 L154.367109,50.669768 L154.367109,50.669768 L154.628226,50.6706778 C163.177091,50.7279786 173.531952,53.4859113 167.748328,58.5906504 C166.887913,58.9411951 163.73549,59.4400963 159.982182,60.2382873 L159.843542,60.267865 C163.313259,62.0070003 165.385254,64.7997038 163.362358,67.6170286 C159.302183,71.8410543 154.929149,64.4074589 147.265754,64.537614 C147.247831,64.5492402 147.23029,64.5603129 147.212789,64.5714112 C144.917212,66.0272101 143.341097,67.9179402 143.189421,70.4762669 C143.019273,73.4209324 144.14856,75.022976 145.838146,75.8813437 C148.949746,77.6171944 155.073235,75.4826533 155.751539,80.2432717 C156.672258,84.9715761 151.141084,84.9092238 147.58399,85.3775485 C142.056034,85.9989052 134.184511,85.8771304 129.502105,87.4322687 L129.240507,87.5221024 L129.240507,87.5221024 C129.172412,87.524145 129.104746,87.5234368 129.037507,87.5200302 L128.75113,87.6157186 C127.693356,87.9651266 126.607836,88.2631386 125.507639,88.5088157 C119.308681,90.5327611 112.727347,92.3045668 106.263105,93.5270353 C99.8713674,94.7679319 93.2362792,95.5343628 86.607154,95.5748176 L86.0972372,95.576503 C75.8993054,95.5812012 65.7306171,93.8523594 56.4990038,89.474138 C37.8179698,80.6929362 24.8844537,63.4049737 16.1044638,45.433867 C10.3317896,33.5145712 1.43562353,16.4996842 19.1401375,10.4701745 C20.5141355,10.1138927 21.9097401,9.94119511 23.2906121,9.94119511 Z" id="SKIN-DARKER" fill="#DCB284"></path>
                            <path d="M19.1401375,10.4701745 C26.7734597,8.49083136 35.0736512,12.1923714 37.8097369,19.4630099 C45.3067579,38.6825273 56.2671089,60.9086074 77.9531718,64.9187229 C87.1201106,66.4147222 96.6561603,65.0356903 105.721102,62.9316426 C111.357617,61.723485 117.071122,59.1707427 122.447819,57.9592272 C132.62327,54.1689503 144.305523,50.588781 154.107235,50.6705471 C162.747722,50.6163871 173.649985,53.3817329 167.748328,58.5906504 C166.877322,58.9455127 163.657538,59.4524007 159.843317,60.2678978 C163.313259,62.0070003 165.385254,64.7997038 163.362358,67.6170286 C159.302183,71.8410543 154.929149,64.4074589 147.265754,64.537614 C144.941326,65.9984211 143.342253,67.8984371 143.189421,70.4762669 C143.019273,73.4209324 144.14856,75.022976 145.838146,75.8813437 C148.949746,77.6171944 155.073235,75.4826533 155.751539,80.2432717 C156.672258,84.9715761 151.141084,84.9092238 147.58399,85.3775485 C141.951733,86.0106288 133.886638,85.8722705 129.240507,87.5221024 C129.172412,87.524145 129.104746,87.5234368 129.037507,87.5200302 C127.889947,87.9106931 126.707522,88.2408784 125.507639,88.5088157 C119.308681,90.5327611 112.727347,92.3045668 106.263105,93.5270353 C89.8740343,96.7088215 71.885026,96.7711737 56.4990038,89.474138 C37.8179698,80.6929362 24.8844537,63.4049737 16.1044638,45.433867 C10.3317896,33.5145712 1.43562353,16.4996842 19.1401375,10.4701745 Z" id="SKIN-DARKER" fill="#DCB284"></path>
                            <path d="M49.2165885,38.5897271 C45.1029371,31.5997769 42.8648669,24.9238633 39.3344102,17.112476 C34.5722391,6.57583262 26.2552558,0.457886732 13.50397,0 C-16.3487276,3.74477704 11.4854097,40.510359 19.2413114,56.1052527 L49.2165885,38.5897271 Z" id="Fill-6" fill="#3F8FD4"></path>
                        </g>
                        <path d="M103.091565,25.5037761 L165.29612,25.5037761 C175.400422,25.5037761 183.591577,33.6544508 183.591577,43.7088176 L183.591577,94.2278078 L183.591577,94.2278078 L84.7961077,94.2278078 L84.7961077,43.7088176 C84.7961077,33.6544508 92.9872629,25.5037761 103.091565,25.5037761 Z" id="body" fill="#55B0EB"></path>
                        <g id="Left-Arm" transform="translate(0.000000, 25.502943)">
                            <path d="M7.99191337,137.589756 C8.1831009,142.486457 11.2992747,147.253447 15.5131758,148.892356 C18.6343808,150.236343 21.3485119,146.172068 19.5020429,143.59742 C16.281585,140.122532 12.5525135,135.229017 13.5642523,129.739287 C13.9402239,119.993673 6.7469075,133.338879 7.99191337,137.589756" id="SKIN" fill="#FFDBB4"></path>
                            <path d="M7.99191337,137.589756 C8.1831009,142.486457 11.2992747,147.253447 15.5131758,148.892356 C18.6343808,150.236343 21.3485119,146.172068 19.5020429,143.59742 C16.281585,140.122532 12.5525135,135.229017 13.5642523,129.739287 C13.9402239,119.993673 6.7469075,133.338879 7.99191337,137.589756" id="SKIN-DARKER" fill="#DCB284"></path>
                            <path d="M15.4834,124.576883 C7.45626812,121.751461 3.97052614,111.971713 7.49926244,104.456216 C18.9773749,79.0629142 34.0221868,55.3144376 51.5528942,33.920328 C55.8354033,28.6786414 60.4746739,23.3195323 65.0082882,18.3108703 C67.7073255,15.6843379 71.9921216,9.90651288 75.7207358,8.73365308 C81.2798105,6.26778021 87.9645132,7.45110791 92.2186644,11.8499011 C96.4074093,16.0661887 97.7384038,22.5603821 95.6486052,28.0432855 C94.6418977,31.4549103 89.6902322,35.8382291 87.3635074,38.4970754 C83.1994614,43.1106881 78.9210687,48.0278697 74.9866306,52.8572121 C58.9648413,72.4126125 45.4069925,93.8463182 35.0590819,116.713671 C31.9502263,123.992502 22.8308556,127.434165 15.4834,124.576883" id="SKIN" fill="#FFDBB4"></path>
                            <path d="M51.1228137,30.8642477 C54.2275528,26.9710996 59.3095734,21.2902164 62.6452927,17.5067536 C68.3397538,12.0702731 75.7065024,6.13921462 83.3155831,3.00294108 C90.9246637,-0.13333244 104.727977,0.000833397743 104.727977,0.000833397743 C109.719892,5.27938518 105.235745,20.7704624 101.403761,26.6971137 C97.4729825,31.656167 92.5986153,35.9052237 88.4455465,40.6881432 C85.3819722,44.099768 80.8392102,49.3009483 77.980545,52.8236238 L51.1228137,30.8642477 Z" id="Fill-17" fill="#55B0EB"></path>
                            <path d="M35.6142118,115.535031 C35.9631976,109.556495 12.0743617,104.178271 7.90985824,103.580235 C2.27348526,115.750306 -1.62939316,129.324895 0.672175365,142.520819 C2.23552219,150.16193 5.20258796,153.604048 5.84201419,154.720472 C7.12909961,156.93102 11.4879923,156.599688 11.7596798,153.89988 C11.7217168,150.820497 10.9844098,144.486053 11.5648332,140.708507 C12.0437168,135.945158 13.3875181,129.121908 18.9690048,128.317701 C24.3940652,127.595416 25.709966,131.884979 26.2016564,135.86369 C26.5451536,139.63623 33.1905211,140.754475 33.9250837,136.935057 C34.6907486,130.122276 33.0157995,122.090666 35.6142118,115.535031" id="SKIN" fill="#FFDBB4"></path>
                        </g>
                        <path d="M113.154066,25.5037761 C113.154066,33.7986288 122.573895,40.5229354 134.193842,40.5229354 C145.813789,40.5229354 155.233618,33.7986288 155.233618,25.5037761" id="SKIN" fill="#FFDBB4"></path>
                    </g>
                    <g id="Head/Afro" transform="translate(103.091565, 0.000000)">
                        <path d="M31.5596638,0 C10.54858,0 0,10.6306387 0,31.8824855 C0,53.1343319 10.54858,58.2561328 31.5596638,58.2561328 C52.5707477,58.2561328 63.1193275,53.1343319 63.1193275,31.8824855 C63.1193275,10.6306387 52.5707477,0 31.5596638,0 Z" id="Fill-3" fill="#000000"></path>
                        <g id="head" transform="translate(14.178979, 12.743529)">
                            <g id="SKIN" fill="#FFDBB4">
                                <path d="M5.94602361,28.2178143 L26.528413,28.2178143 L26.528413,51.717337 C26.528413,58.0458646 21.9207021,63.1760453 16.2372183,63.1760453 C10.5537345,63.1760453 5.94602361,58.0458646 5.94602361,51.717337 L5.94602361,28.2178143 Z" id="Path"></path>
                                <path d="M27.4671987,42.7818475 L25.1862125,42.7818475 C14.560211,42.7818475 5.9462523,34.2104589 5.9462523,23.6369708 L5.9462523,14.6564238 C5.9462523,6.56200721 12.5403925,0 20.6754675,0 L23.2336299,0 C31.3687049,0 37.9633025,6.56200721 37.9633025,14.6564238 L37.9633025,32.3376152 C37.9633025,38.1058826 33.2641143,42.7818475 27.4671987,42.7818475" id="Path"></path>
                                <path d="M11.4346608,26.6248732 C11.4346608,29.7666082 8.87512631,32.3139487 5.71733039,32.3139487 C2.55953447,32.3139487 0,29.7666082 0,26.6248732 C0,23.4831382 2.55953447,20.9357977 5.71733039,20.9357977 C8.87512631,20.9357977 11.4346608,23.4831382 11.4346608,26.6248732" id="Path"></path>
                            </g>
                            <path d="M4.6045092,24.1983687 C5.01836658,24.1983687 5.59108602,24.2933503 6.17875115,24.5857307 C7.16056744,25.0742128 7.78153022,25.9673654 7.82318783,27.2630075 L7.82542445,27.4033663 L6.45326516,27.4033663 C6.45326516,26.5680345 6.13249392,26.0892555 5.56510285,25.806962 C5.35440075,25.7021316 5.12166794,25.6326568 4.88778646,25.5938692 C4.77270401,25.5747836 4.68298441,25.566589 4.63104205,25.5643877 L4.6045092,25.5637468 L4.6045092,24.1983687 Z" id="ear-line" fill="#000000"></path>
                            <path d="M15.8945216,43.8430541 C11.643134,42.346551 9.52213701,38.566777 8.68221087,33.4827561 C12.007863,38.9907261 18.0396056,42.696842 24.9476592,42.7803607 L25.1862125,42.781802 L26.528413,42.781802 C22.8982332,44.7069119 19.3536027,45.0606626 15.8945216,43.8430541 Z" id="SHADOW" fill="#000000" opacity="0.12"></path>
                        </g>
                        <path d="M12.8175864,21.0711939 C12.3927028,15.3202675 24.6443527,10.4678989 31.7137029,10.4678989 L47.2599316,10.4678989 L54.4289853,22.7672018 L31.5732946,22.7672018 C28.475623,29.5052039 23.9391099,33.6793268 19.8229067,33.6793268 C15.7067036,33.6793268 13.1276737,25.2673479 12.8175864,21.0711939 Z" id="Fill-17" fill="#000000"></path>
                    </g>
                    <g id="Expression/Happy" transform="translate(132.821701, 27.307562)" fill="#000000">
                        <path d="M5.2876891,5.91663849 C5.2876891,5.16249464 4.67341912,4.55126038 3.9155298,4.55126038 C3.15764049,4.55126038 2.54337051,5.16249464 2.54337051,5.91663849 C2.54337051,6.67078233 3.15764049,7.2820166 3.9155298,7.2820166 C4.67341912,7.2820166 5.2876891,6.67078233 5.2876891,5.91663849" id="Fill-1"></path>
                        <path d="M17.1797363,5.91663849 C17.1797363,5.16249464 16.5654663,4.55126038 15.807577,4.55126038 C15.0496877,4.55126038 14.4354177,5.16249464 14.4354177,5.91663849 C14.4354177,6.67078233 15.0496877,7.2820166 15.807577,7.2820166 C16.5654663,7.2820166 17.1797363,6.67078233 17.1797363,5.91663849" id="Fill-3"></path>
                        <polygon id="Stroke-5" points="11.0677193 4.73183891 12.4169335 4.48318899 14.3779339 15.0189772 9.86155341 15.0189772 9.86155341 13.6535991 12.7281314 13.653326"></polygon>
                        <path d="M5.91028351,14.8307371 C5.91028351,16.5029896 7.6218609,18.0494764 9.45943916,18.10948 L9.56983234,18.1112855 L9.56983234,19.4766637 C7.00953381,19.4766637 4.6178018,17.3985656 4.54007241,14.9532985 L4.53812421,14.8307371 L5.91028351,14.8307371 Z" id="Stroke-7"></path>
                        <path d="M6.43115518,0 L6.43115518,1.36537811 C4.95543152,1.36537811 3.60939828,1.75931377 2.41917381,2.41728175 C2.06209433,2.61467888 1.74201658,2.82378162 1.46163417,3.03364092 L1.32476334,3.13858288 C1.16570977,3.263531 1.05431614,3.36086971 0.993313829,3.41871505 L0.970263153,3.44105332 L0,2.47558517 C0.328016074,2.14919017 0.920173942,1.68400744 1.75279435,1.22372655 C3.07525664,0.49265614 4.56902291,0.040526384 6.20691539,0.0025927347 L6.43115518,0 Z" id="Stroke-9"></path>
                        <path d="M12.8345652,0 C14.5605466,0 16.1303518,0.459425659 17.512926,1.22372655 C18.2935077,1.65523988 18.8627453,2.09106147 19.2011277,2.4127948 L19.2657204,2.47558517 L18.2954572,3.44105332 L18.2078418,3.35973863 C18.1566565,3.31434272 18.0892716,3.25715973 18.006197,3.19040708 L17.940957,3.13858288 C17.6293685,2.89380768 17.2631393,2.64757839 16.8465466,2.41728175 C15.7158333,1.79221215 14.4445027,1.40543175 13.0549478,1.36831641 L12.8345652,1.36537811 L12.8345652,0 Z" id="Stroke-11"></path>
                    </g>
                </g>
            </g>
            <g id="Master/Character/Standing" transform="translate(1356.984279, 216.132787) scale(-1, 1) translate(-1356.984279, -216.132787) translate(1280.510595, 40.632787)" fill-rule="nonzero">
                <g>
                    <g id="Legs/Loose-Pants-Leg-Back" transform="translate(0.000000, 107.464641)">
                        <g id="Group-15">
                            <path d="M7.35566003,162.205529 L1.36209308,135.909023 C1.28582159,135.551484 1.22609577,135.211106 1.23105038,134.882987 C1.23900946,134.55446 1.28541804,134.247998 1.36572506,133.98158 C1.40567679,133.847962 1.45450669,133.72456 1.51100409,133.612599 C1.57355478,133.497778 1.66112575,133.38786 1.74869672,133.294287 C1.93554169,133.101829 2.12400087,132.980878 2.4044701,132.895886 C3.99406478,132.436193 5.82861604,131.840839 7.67769521,131.209935 C9.53565254,130.575354 11.4396149,129.895416 13.3544732,129.194639 C17.1910501,127.785321 21.0748428,126.291011 24.9610567,124.756657 C32.7375202,121.680593 40.5297222,118.443942 48.274305,115.117397 C58.9728946,110.509021 69.6367787,105.724124 79.9532038,100.723885 L83.7901843,98.837712 L85.6864792,97.8868617 L85.9060119,97.7753094 L86.0069001,97.719329 L86.2110979,97.6098198 C86.3479023,97.5387205 86.4863209,97.4708902 86.6271609,97.4063288 C87.6679237,96.8759448 88.6909301,96.3288075 89.7050585,95.7559273 C90.7131335,95.1769179 91.7232263,94.5893276 92.6396948,93.8668939 C92.8628595,93.6809734 93.0896562,93.4917841 93.2571307,93.2498832 C93.4250086,93.0030789 93.4197625,92.6888529 93.4379223,92.401187 C93.4472041,91.813188 93.3963564,91.2268235 93.3354199,90.6429108 C93.2087043,89.4750852 93.0262984,88.3142061 92.831786,87.1561873 L92.5246822,85.4216108 L91.9383199,82.3332883 C90.8370242,76.6506605 89.6275763,70.8916215 88.3765625,65.125636 C85.8664637,53.5854926 83.1796089,41.9918204 80.4189038,30.4116326 L111.408131,22.8313904 C114.206366,34.57053 116.933173,46.3309176 119.512683,58.1914162 C120.80042,64.1253431 122.051837,70.0792922 123.222948,76.1198679 L123.657574,78.3913663 L124.229408,81.4935817 C124.614801,83.6081714 124.969928,85.7264386 125.300438,87.8430714 C125.939665,92.0693905 126.468723,96.3214524 126.371063,100.366346 C126.346043,102.398804 126.053467,104.315214 125.746767,106.263497 C125.649914,106.746073 125.534902,107.220477 125.385184,107.697741 C125.321019,107.936373 125.225377,108.172553 125.136999,108.40955 L125.103907,108.49822 C124.948136,108.440197 125.048217,108.506801 125.007862,108.504758 L124.986474,108.547663 L124.89971,108.718464 C124.840387,108.830834 124.787522,108.948924 124.722146,109.056799 C124.205599,109.930829 123.654346,110.726405 123.035296,111.479485 C120.476367,114.418254 117.253997,116.904276 113.715242,119.145945 C110.176084,121.380668 106.423446,123.416395 102.650227,125.376528 L101.248284,126.101413 L99.921806,126.770727 L97.860458,127.804526 L93.7434118,129.828403 C82.7744418,135.143276 71.7982078,140.063426 60.7335957,144.830753 C52.729932,148.268851 44.6915627,151.608472 36.5510946,154.828369 C32.4776321,156.436683 28.3799565,158.01476 24.2096413,159.546254 C22.1208518,160.310367 20.0143059,161.063447 17.8589301,161.800182 C15.6966939,162.5361 13.5086304,163.254856 11.1107193,163.949504 C10.7184659,164.066777 10.2757685,164.105595 9.88391865,164.076175 C9.68294933,164.061465 9.49408659,164.029184 9.30199544,163.981376 C9.10465809,163.933568 8.91740957,163.869415 8.74186408,163.790552 C8.39036955,163.632418 8.08810846,163.414217 7.85404781,163.146573 C7.61918005,162.878929 7.43314218,162.561843 7.35566003,162.205529" id="Fill-1" fill="#D29863"></path>
                            <path d="M19.7210037,164.269369 C22.0725061,163.456222 24.3654934,162.626322 26.6362853,161.782938 L13.8384138,126.405751 C10.9082165,127.490627 7.97963345,128.542406 5.22740301,129.449534 C3.86379792,129.899012 2.51754561,130.321521 1.4049504,130.633295 L1.00825794,130.741987 L0.810113493,130.797151 L0.651517223,130.836378 L0.334728234,130.916875 C0.272984648,130.934037 0.245946607,130.938532 0.216487249,130.943844 L0.125687857,130.963866 L0.0352920186,130.985523 C0.0247996445,130.987974 -0.00587037226,130.996555 0.000990026216,130.994104 L0.0163250346,130.988792 L0.0243960916,130.986749 C0.026010303,130.991243 0.0235889859,130.975716 0.0284316201,130.996555 L0.0724188809,131.223338 L0.158375638,131.676084 L0.486060554,133.492793 C0.695100931,134.705566 0.884770771,135.923243 1.05466652,137.144189 C1.44046305,139.168883 1.72093228,141.173963 1.8867925,143.219905 C1.90979501,143.465075 1.92230515,143.752333 1.94853609,143.963996 L2.02924666,144.55935 C2.077673,144.956525 2.11560697,145.35656 2.14304856,145.757413 C2.19712464,146.559118 2.20842412,147.366953 2.17654345,148.176013 C2.21326676,147.251314 2.19308912,146.328659 2.11681763,145.413767 C2.07888366,144.956525 2.02682534,144.501735 1.96104623,144.048988 L1.9364295,143.876143 L1.92432292,143.693492 L1.9356224,143.699621 L1.95862491,143.712288 L2.05467049,143.769494 C2.07161971,143.779301 2.08574406,143.790742 2.10632525,143.800141 L2.21044189,143.815259 C2.35531736,143.83283 2.47920809,143.863068 2.64668252,143.875326 L3.18300426,143.898209 C3.14305253,144.505412 3.09059066,145.116294 3.02440799,145.730036 C2.96710348,146.339691 2.92069491,146.938314 2.83554526,147.550422 L2.77138035,148.008889 L2.72053269,148.457141 C2.68259872,148.756249 2.63578659,149.057399 2.57969275,149.360592 L2.41423608,150.255871 C2.35289604,150.5513 2.27379969,150.84959 2.17654345,151.148697 L2.17654345,168.510398 L2.17654345,183.137638 C2.79882195,183.132326 3.42190755,183.113121 4.0445896,183.080432 L4.97760379,183.021182 L5.44330378,182.98359 L5.81618662,182.94804 C6.54782794,182.867951 7.2790657,182.772744 8.0074786,182.663643 L8.45098318,182.591318 L8.82709444,182.525122 L9.57850985,182.38701 L10.32024,182.242768 L10.8977241,182.117732 L12.0502711,181.857852 L13.0212192,181.617177 L13.9623045,181.375684 L14.8033086,181.146042 C15.092656,181.065545 15.3807927,180.945411 15.6075895,180.796675 C15.833579,180.648347 16.0397946,180.46733 16.2278502,180.256076 C16.6039614,179.834383 16.9155042,179.293375 17.1301944,178.669827 C17.3557804,178.04587 17.5309223,177.333243 17.6741836,176.562184 C17.8166378,175.791124 17.9042087,174.964085 17.9950081,174.106399 C18.356995,170.675656 18.4776573,166.782359 19.7210037,164.269369" id="Fill-3" fill="#0A1B45"></path>
                            <path d="M68.0582414,10.3710021 C69.5525976,17.0294058 71.0308117,23.7723931 72.4759344,30.4835083 C73.9214608,37.2011613 75.3391419,43.9200402 76.71445,50.6238003 C78.0893546,57.3275604 79.4239039,64.0202878 80.6817781,70.6627555 C81.3105135,73.9835807 81.9194747,77.2909215 82.494134,80.5647559 L83.3298919,85.4456783 L83.4287624,86.0487961 L83.4767852,86.3434085 L83.4743639,86.3756892 L83.4687141,86.5019516 L83.4529756,86.7463042 C83.4291659,87.0654336 83.3972853,87.3592288 83.3484554,87.628507 C83.3230315,87.7629417 83.296397,87.8916559 83.2528133,88.0138322 C83.2277931,88.072673 83.2112474,88.1392774 83.1462754,88.183408 C83.0837247,88.2267213 83.0114887,88.2585934 82.9400599,88.2876052 C82.6499054,88.3999747 82.3629793,88.4682136 82.1002664,88.5233768 C81.9687082,88.5507541 81.841589,88.5724108 81.7205232,88.5912071 C81.6555512,88.6018311 81.6164065,88.6051001 81.5086579,88.6161327 C81.456196,88.6283912 81.4436859,88.6308429 81.3690286,88.6704787 L80.2903319,89.1787975 C74.5235616,91.893236 68.4839896,94.5643611 62.400834,97.1725594 C56.3092037,99.7815749 50.1437232,102.332975 43.9564509,104.820632 C37.2925826,107.513414 30.5952195,110.136322 23.9297371,112.640732 C20.5984083,113.892324 17.2735363,115.113678 13.9894232,116.278643 C10.7077314,117.444426 7.45065638,118.559131 4.37195167,119.540219 L9.42443337,134.572398 C11.8142734,135.32793 14.2698925,136.03075 16.7485141,136.709462 C15.2436655,138.74192 13.7230783,140.764162 12.1778745,142.765156 L22.5322335,173.572378 C26.3845491,172.157749 30.041545,170.724322 33.6517288,169.266788 C37.2611055,167.810888 40.8099493,166.332514 44.3349834,164.834526 C51.3834376,161.839368 58.3362496,158.769842 65.2596024,155.624722 C71.6752856,152.691674 78.0598952,149.695698 84.44168,146.603698 C90.8275004,143.505569 97.1943537,140.33348 103.65241,136.917447 L106.847741,135.237626 L110.849372,133.060109 C113.505556,131.573563 116.156092,130.076801 118.6787,128.462766 C121.199292,126.853635 123.661367,125.181985 125.827236,123.319921 C128.004807,121.464802 129.934193,119.473206 131.54114,117.30141 L132.124678,116.473145 C132.321208,116.198555 132.461241,115.887189 132.632347,115.595845 C132.959629,115.001717 133.285699,114.404729 133.606524,113.778729 C133.687235,113.623863 133.767945,113.469406 133.845024,113.307185 L133.96165,113.067327 L134.019762,112.947194 L134.048414,112.887536 C134.029851,112.853212 134.318795,112.969259 134.208221,112.891622 C134.341797,112.565955 134.481427,112.239471 134.592807,111.916255 C134.715891,111.592631 134.825254,111.269007 134.924528,110.945791 L135.079492,110.460355 L135.189258,109.961843 C135.472149,108.628119 135.782077,107.32259 136.008067,105.969661 L136.161013,104.949755 C136.21509,104.61142 136.226389,104.254698 136.261095,103.907374 L136.348666,102.860908 L136.384985,101.791559 C136.541967,96.0697038 135.55972,89.9882665 134.508061,84.0273709 C134.238488,82.5326523 133.960843,81.0399767 133.667057,79.5501614 L133.229202,77.317073 L132.902728,75.749212 L131.743724,70.450275 C130.960428,66.9390345 130.155744,63.466204 129.336531,60.0105354 C127.699317,53.1008327 115.478203,13.5687521 111.784081,0.00146289552 C111.784081,0.00146289552 67.9581603,9.96892362 68.0582414,10.3710021 Z" id="Fill-5" fill="#CC2935"></path>
                            <path d="M102.279281,237.497875 L75.6766735,239.165847 C74.9619814,239.229592 74.2896624,239.028552 73.7828,238.661615 C73.2767447,238.298355 72.938971,237.778595 72.8897375,237.178746 L72.8352579,236.509841 C72.8187122,236.290005 72.8001488,236.066084 72.7690752,235.812333 L72.6048292,234.342131 L72.4417939,232.871521 C72.3873142,232.38159 72.3376772,231.896971 72.2662484,231.379663 L71.870363,228.323212 L71.6714115,226.793353 L71.4494574,225.236116 C70.8719733,221.098058 70.2319385,216.897073 69.5697082,212.685464 C68.2452478,204.258569 66.8106174,195.763843 65.3461241,187.262171 C60.8206824,161.034312 56.0042791,134.705117 51.3093452,108.305639 C48.9598605,95.1016099 46.6301499,81.8755154 44.378325,68.5926232 C42.1325534,55.2995156 39.9561929,41.976579 38.0340706,28.3798695 L69.6015889,23.8658845 C71.4405792,36.8766382 73.5814271,50.0087509 75.8005643,63.1375948 C78.0269653,76.2717506 80.3429552,89.4214339 82.6843688,102.579289 C87.3651783,128.901538 92.1827923,155.233594 96.7538354,181.719698 C98.2336637,190.313309 99.6880682,198.921222 101.052884,207.604728 C101.735695,211.947503 102.400347,216.303762 103.016572,220.718453 L103.25144,222.368855 L103.469762,224.042956 L103.903178,227.394836 C104.049264,228.509133 104.164276,229.683087 104.295835,230.824353 L104.486312,232.547488 C104.552898,233.112605 104.593657,233.752498 104.647733,234.351121 C104.783326,236.001931 103.728036,237.385097 102.279281,237.497875" id="Fill-8" fill="#EDB98A"></path>
                            <path d="M106.663358,228.418108 L106.188376,224.709425 L105.679093,221.061459 L68.850456,226.493343 C69.0752349,228.097176 69.3121204,229.715879 69.5017903,231.272212 L69.8036478,233.629429 L69.9513482,234.801222 L70.0744318,235.928821 L70.3230203,238.183604 L70.385571,238.747403 C70.4057487,238.933684 70.4138197,239.088987 70.4287512,239.261225 L70.5106724,240.271933 L70.5954185,241.282641 L70.6390022,241.787788 L70.6498981,241.913765 L70.6519159,242.001743 L70.6551443,242.172328 C70.6652332,242.626672 70.6854108,243.081015 70.7160808,243.535359 L72.0292418,243.535359 L83.2948232,243.535359 L83.758909,241.146337 C86.0894267,241.796875 88.4332617,242.592802 90.7783073,243.535359 L107.924864,243.535359 L122.370846,243.535359 C122.34179,242.200828 122.299417,240.866297 122.243727,239.532179 L122.199336,238.533449 L122.138803,237.763956 L122.015316,236.223731 C121.926131,235.151893 121.196103,234.284923 120.079069,233.614146 C118.956385,232.995826 117.453554,232.498527 115.828851,232.013618 C112.574197,231.05454 108.858282,230.097114 106.663358,228.418108" id="Fill-10" fill="#0A1B45"></path>
                            <path d="M27.8446821,0 C27.8446821,0 27.8446821,0.137541961 27.8446821,0.412615829 L28.0734581,4.03356031 C28.0819327,4.3665869 28.084354,4.74648387 28.103321,5.01619429 L28.2946051,8.52818563 C28.3293106,9.10502053 28.3571558,9.71844727 28.3995288,10.2656798 L28.5298764,11.891754 L28.7942035,15.1447247 C28.836173,15.6964798 28.8886349,16.2116431 28.9402896,16.7313291 L29.0948504,18.2920314 L29.404779,21.4138471 L30.0831513,27.5250903 C31.0270614,35.594612 32.0678242,43.5004982 33.1570134,51.3570476 C35.3430592,67.0545222 37.6965794,82.5719158 40.0835945,98.0568293 L47.3362464,144.344234 C49.7563528,159.729239 52.170406,175.086287 54.4621826,190.353294 C55.5735672,197.737028 56.6409645,205.088692 57.6526715,212.382385 L58.3968229,217.837031 L59.0937587,223.23494 C59.5376668,226.802436 59.962608,230.350197 60.3044172,233.728566 L75.8629939,231.727529 C77.0591245,229.45267 78.2629227,227.15273 79.4098199,224.794409 C81.08295,226.739531 82.7052325,228.669851 84.3424464,230.636353 L116.228771,226.535603 C115.648059,222.49447 115.017306,218.61286 114.373639,214.752219 L113.389374,209.008949 L112.373631,203.323651 C111.006394,195.766415 109.600416,188.272494 108.162557,180.818044 C105.202093,165.38658 102.152848,150.065301 99.1076381,134.767458 L90.0192244,88.9750715 C87.0361617,73.7438336 84.0950685,58.5253416 81.3609979,43.3952456 C79.9990071,35.8351312 78.6975491,28.2980409 77.5224032,20.8637366 L76.6793813,15.3272726 C76.4311963,13.5207062 76.1587981,11.6783703 75.9279659,9.89976171 L75.6079485,7.27296323 L75.4469309,5.95935841 C75.394469,5.5247793 75.3666239,5.14118202 75.3246544,4.72962697 L75.0869617,2.29976641 L74.9614568,0.310652139 C74.9493502,-0.00510638929 27.8446821,0 27.8446821,0 Z" id="Fill-13" fill="#FA3239"></path>
                        </g>
                        <path d="M27.8450875,0.00146289552 C27.8450875,22.5687216 46.6354712,40.8630994 69.8145841,40.8630994 C92.993697,40.8630994 111.784081,22.5687216 111.784081,0.00146289552" id="Waist" fill="#FA3239"></path>
                    </g>
                    <g id="Body" transform="translate(18.966826, 48.171114)">
                        <g id="Body/Short-Tee-Shake-Hand" transform="translate(0.000000, 0.000000)">
                            <g id="body" transform="translate(7.264050, 0.045617)">
                                <rect id="SKIN" fill="#EDB98A" x="7.26395133" y="41.2702529" width="72.6395133" height="19.6135855"></rect>
                                <path d="M16.1421141,0 L71.0253019,0 C79.9403453,0 87.1674159,7.31775113 87.1674159,16.3446546 L87.1674159,47.8081148 L87.1674159,47.8081148 L0,47.8081148 L0,16.3446546 C0,7.31775113 7.22707063,0 16.1421141,0 Z" id="Path" fill="#0A1B45"></path>
                            </g>
                            <g id="Arm">
                                <path d="M121.281815,92.9452423 C122.449697,107.397595 110.258769,108.660628 99.1082,108.891905 C90.8866177,109.308693 82.676335,109.246584 74.4277147,108.455911 C59.0438764,106.919105 43.1447012,102.6413 30.8803265,92.5860685 C21.4250832,84.8154111 14.8491894,73.8187275 10.9520796,62.4457082 C6.54649307,49.7197601 4.89636546,36.0445962 4.69902812,22.9030852 C4.55092422,15.0449839 10.7285113,8.63175006 18.4052972,9.24304014 C25.3932183,9.80815657 31.1846053,15.5136669 31.3314986,22.5320616 C31.4364223,29.853241 32.0877566,37.1041384 33.4872779,43.9259886 C36.2580718,57.4757073 42.062776,70.4026946 54.7900258,76.0771501 C65.9833713,81.2465558 78.767522,82.202718 91.0137369,82.1773838 C103.07916,82.5226647 117.400847,76.4154845 121.281815,92.9452423" id="SKIN" fill="#EDB98A"></path>
                                <path d="M130.703039,101.206158 C131.096906,103.19898 129.705053,105.157887 127.602542,105.536674 C118.472562,107.175634 109.309491,108.316082 99.9692607,108.84238 C97.8203417,108.961288 96.0152498,107.372996 95.9506814,105.34871 C95.8844987,103.312984 97.505167,101.61314 99.5644972,101.498727 C108.5722,100.99286 117.479822,99.8851009 126.324894,98.2959919 C128.348711,97.9315061 130.307961,99.2161959 130.703039,101.206158" id="SKIN" fill="#EDB98A"></path>
                                <path d="M133.890864,93.8470586 C134.346072,95.8247618 133.021611,97.8212614 130.976809,98.2364156 C126.758875,98.3602264 115.943658,103.412359 114.905317,97.1776906 C114.126863,91.2735927 125.581307,92.6183492 129.542582,91.0255626 C131.495778,90.6292047 133.433235,91.8689468 133.890864,93.8470586" id="SKIN" fill="#EDB98A"></path>
                                <path d="M133.1953,87.2988179 C134.546799,93.4546235 122.812289,92.440029 118.948271,93.7230844 C116.954316,94.0168796 115.126222,92.608379 114.867544,90.5922658 C114.023312,84.7302554 125.138368,86.0316986 129.026196,84.4585256 C130.909577,84.0691142 132.749778,85.3202975 133.1953,87.2988179" id="SKIN" fill="#EDB98A"></path>
                                <path d="M118.052222,79.8064691 C118.80283,86.0276533 107.990439,84.1610937 104.050149,85.2059257 C102.748691,85.5585617 99.6534402,82.5209076 99.2349559,81.8683473 C101.490009,81.7265574 100.495251,78.1217438 104.548536,77.7813664 C108.630473,78.1793587 116.806858,73.9109522 118.052222,79.8064691" id="SKIN" fill="#EDB98A"></path>
                                <path d="M128.828334,81.5797824 C129.246818,83.5660665 128.045441,85.5061771 126.123319,85.8706629 C119.7036,87.0830276 113.200346,88.0342865 106.696688,88.6549748 C104.750353,88.8584657 103.049781,87.3147131 102.900063,85.2981913 C102.750345,83.2640991 104.137356,81.5295226 106.004192,81.3333867 C112.277421,80.735581 118.58697,79.812108 124.777067,78.6430566 C126.616461,78.2945068 128.411464,79.5934982 128.828334,81.5797824" id="SKIN" fill="#EDB98A"></path>
                                <path d="M2.77835868,48.9004434 C1.30902274,35.7107157 -4.15831129,15.8519604 6.06126112,6.05293131 C12.9047104,-0.921741428 23.5289976,0.0456169556 28.5483466,0.0456169556 C33.5676957,0.0456169556 35.7756647,15.5577566 35.7587155,19.9426188 C35.7260277,27.5330764 36.2954408,35.053252 37.6356398,42.02343 L2.77835868,48.9004434 Z" id="Fill-18" fill="#0A1B45"></path>
                            </g>
                            <path d="M32.2843272,0.0456169556 C32.2843272,7.49281244 40.5954586,13.529957 50.8477584,13.529957 C61.1000581,13.529957 69.4111895,7.49281244 69.4111895,0.0456169556" id="SKIN" fill="#EDB98A"></path>
                        </g>
                    </g>
                    <g id="Head/Layered" transform="translate(48.829836, 0.000000)">
                        <path d="M49.6370007,26.3557556 L49.6370007,19.3549314 C49.6370007,17.8058667 48.6434536,16.5505973 47.4174601,16.5505973 C46.1914665,16.5505973 45.1979194,15.2949192 45.1979194,13.7462632 L45.1979194,10.4021468 C45.1979194,4.65700072 38.2729524,0 33.783427,0 L29.0558053,0 L29.0558053,45.7650329 L46.0340809,45.7650329 C50.9211059,45.7650329 54.8831878,40.519216 54.8831878,34.04755 L54.8831878,31.6677683 C54.8831878,30.2008356 53.9852827,29.0117619 52.8771266,29.0117619 L51.643062,29.0117619 C50.5349058,29.0117619 49.6370007,27.8226883 49.6370007,26.3557556" id="Fill-1" fill="#000000"></path>
                        <path d="M20.5008884,45.7650329 L28.2486996,45.7650329 L28.2486996,0 L20.5008884,0 C9.17840605,0 0,9.29357062 0,20.75812 L0,25.006913 C0,36.4714623 9.17840605,45.7650329 20.5008884,45.7650329" id="Fill-4" fill="#000000"></path>
                        <g id="head" transform="translate(6.053293, 4.494780)">
                            <g id="SKIN" fill="#EDB98A">
                                <path d="M5.24618707,25.3342147 L23.4060654,25.3342147 L23.4060654,46.4323035 C23.4060654,52.114114 19.340674,56.7200377 14.3261262,56.7200377 C9.3115785,56.7200377 5.24618707,52.114114 5.24618707,46.4323035 L5.24618707,25.3342147 Z" id="Path"></path>
                                <path d="M24.2343576,38.4099384 L22.2218395,38.4099384 C12.8464997,38.4099384 5.24638885,30.7144663 5.24638885,21.2214909 L5.24638885,13.1586728 C5.24638885,5.89143076 11.0644103,0 18.2420013,0 L20.4990724,0 C27.6766634,0 33.4950885,5.89143076 33.4950885,13.1586728 L33.4950885,29.03301 C33.4950885,34.2118138 29.3489865,38.4099384 24.2343576,38.4099384" id="Path"></path>
                                <path d="M10.0888213,23.9040574 C10.0888213,26.7247362 7.83053953,29.0117619 5.04441064,29.0117619 C2.25828176,29.0117619 0,26.7247362 0,23.9040574 C0,21.0833786 2.25828176,18.7963528 5.04441064,18.7963528 C7.83053953,18.7963528 10.0888213,21.0833786 10.0888213,23.9040574" id="Path"></path>
                            </g>
                            <path d="M4.06256656,21.7255192 C4.42771365,21.7255192 4.93302501,21.8107945 5.45152299,22.0732964 C6.31778123,22.5118601 6.86565778,23.3137408 6.90241236,24.4769802 L6.90438574,24.6029957 L5.69372718,24.6029957 C5.69372718,23.8530271 5.41071016,23.4231749 4.91010002,23.1697292 C4.72419719,23.0756114 4.51885662,23.0132363 4.31250258,22.9784124 C4.21096513,22.9612772 4.13180537,22.9539201 4.08597654,22.9519437 L4.06256656,22.9513683 L4.06256656,21.7255192 Z" id="ear-line" fill="#000000"></path>
                            <path d="M14.0237643,39.3627403 C10.2727576,38.019166 8.40139821,34.6256499 7.6603299,30.0611689 C10.5945586,35.0062753 15.9163757,38.3336605 22.0113636,38.4086443 L22.2218395,38.4099384 L23.4060654,38.4099384 C20.2031514,40.1383198 17.0757177,40.4559205 14.0237643,39.3627403 Z" id="SHADOW" fill="#000000" opacity="0.12"></path>
                        </g>
                        <path d="M11.0327511,23.2911328 L10.4129833,23.2911328 C8.05092572,20.9652885 7.14346622,16.2253386 6.86989686,11.624727 C6.49505034,5.32018508 17.3038649,0 23.5406817,0 L30.7975329,0 L39.1446266,10.6240255 L23.8223209,10.6240255 C21.0882412,18.0138525 15.8746869,23.2911328 11.0327511,23.2911328" id="Fill-15" fill="#000000"></path>
                    </g>
                    <g id="Expression/Happy" transform="translate(68.603942, 17.570504)" fill="#000000">
                        <path d="M4.66533738,5.31201275 C4.66533738,4.63493543 4.1233659,4.08616365 3.45467882,4.08616365 C2.78599175,4.08616365 2.24402027,4.63493543 2.24402027,5.31201275 C2.24402027,5.98909007 2.78599175,6.53786185 3.45467882,6.53786185 C4.1233659,6.53786185 4.66533738,5.98909007 4.66533738,5.31201275" id="Fill-1"></path>
                        <path d="M15.1577115,5.31201275 C15.1577115,4.63493543 14.61574,4.08616365 13.947053,4.08616365 C13.2783659,4.08616365 12.7363944,4.63493543 12.7363944,5.31201275 C12.7363944,5.98909007 13.2783659,6.53786185 13.947053,6.53786185 C14.61574,6.53786185 15.1577115,5.98909007 15.1577115,5.31201275" id="Fill-3"></path>
                        <polygon id="Stroke-5" points="9.76506822 4.24828874 10.9554822 4.02504854 12.6856763 13.4841766 8.70086589 13.4841766 8.70086589 12.2583275 11.2300527 12.2580823"></polygon>
                        <path d="M5.21465352,13.3151729 C5.21465352,14.8165367 6.72478126,16.2049868 8.34607978,16.2588586 L8.44347988,16.2604796 L8.44347988,17.4863287 C6.18452399,17.4863287 4.07429464,15.6205931 4.00571386,13.4252096 L4.00399496,13.3151729 L5.21465352,13.3151729 Z" id="Stroke-7"></path>
                        <path d="M5.67421951,0 L5.67421951,1.2258491 C4.37218593,1.2258491 3.18457844,1.57952818 2.1344413,2.17025791 C1.81938945,2.34748288 1.53698429,2.53521725 1.2896024,2.72363087 L1.16884102,2.81784873 C1.02850778,2.93002831 0.930224985,3.01741991 0.876402536,3.06935399 L0.856064884,3.08940949 L0,2.22260326 C0.289409158,1.92956281 0.811871085,1.51191745 1.54649353,1.09867301 C2.71330433,0.442311239 4.03125694,0.0363849623 5.47637235,0.00232778119 L5.67421951,0 Z" id="Stroke-9"></path>
                        <path d="M11.3239594,0 C12.8467958,0 14.2318377,0.412476605 15.4516854,1.09867301 C16.1403939,1.48608967 16.6426333,1.87737433 16.9411887,2.16622948 L16.9981789,2.22260326 L16.142114,3.08940949 L16.0648108,3.01640442 C16.0196499,2.97564755 15.9601961,2.92430813 15.8868992,2.86437698 L15.8293379,2.81784873 C15.5544228,2.59808729 15.2312981,2.37702036 14.8637376,2.17025791 C13.8661074,1.60906464 12.7444101,1.26180962 11.5184034,1.22848712 L11.3239594,1.2258491 L11.3239594,0 Z" id="Stroke-11"></path>
                    </g>
                    <g id="Glasses/Thick" transform="translate(56.497340, 18.387787)" fill="#000000">
                        <path d="M17.5728164,0 C19.8908986,0.0100123963 22.2040538,0.552248937 23.0371356,1.62381162 C23.4439407,2.14707017 23.6793602,2.86628655 23.7720411,3.67736213 L25.0664419,3.67736213 C25.1591228,2.86628655 25.3945424,2.14707017 25.8013474,1.62381162 C26.6154956,0.576602635 28.8432056,0.0349329236 31.1076405,0.00158979143 L31.2656666,0 L31.4354442,0 L32.6130001,0.0154245977 C36.7565103,0.0845709451 38.3293057,0.298607054 38.6982314,1.10060986 C39.106135,1.98734625 39.3352899,3.20702916 38.971076,3.83994752 L38.9164282,3.92585269 C38.8463109,4.03727257 38.6679453,4.37323825 38.4713851,4.77158155 L38.4290194,4.8578365 L38.2554396,5.21986284 C38.0054989,5.75112214 37.7813082,6.27151555 37.6157882,6.71433633 L37.5884859,6.81861445 L37.5884859,6.81861445 C37.2289957,8.15748381 36.5157974,9.47871014 35.7945464,10.3528883 C34.4429177,11.9911033 28.6979265,12.0983855 27.0513487,10.4023437 C25.9903501,9.30947227 25.2251885,7.24952681 25.0556494,5.31188096 L23.7828336,5.31188096 C23.6132945,7.24952681 22.8481329,9.30947227 21.7871343,10.4023437 C20.1405565,12.0983855 14.3955654,11.9911033 13.0439367,10.3528883 C12.3226856,9.47871014 11.6094873,8.15748381 11.2499972,6.81861445 L11.2226948,6.71433633 C11.0667535,6.29714176 10.8587357,5.81109305 10.6261709,5.31197326 L0,5.31196231 L0,3.67749685 L9.79134008,3.67768657 C9.5409041,3.01449011 9.76489841,1.91658548 10.1402517,1.10060986 C10.5315365,0.250000821 12.2770365,0.0607868329 17.0074801,0.00435048124 L17.4030388,0 L17.5728164,0 Z M13.2584461,2.68796219 C12.563943,3.65272599 12.4284689,4.86415612 12.6739438,6.0692891 L12.7657554,6.31975704 L12.7336795,6.33283669 C12.9923754,7.36971919 13.5244856,8.38821023 14.2159458,9.22628096 C14.9657415,10.1350561 19.6877671,10.2232353 20.7036591,9.17682551 C21.9960556,7.84560488 22.752484,4.06942994 21.8848264,2.78168729 L21.8349454,2.71273747 L21.7841548,2.65300435 C20.587321,1.35878308 14.2012092,1.37832983 13.2584461,2.68796219 Z M35.580037,2.68796219 C34.6515581,1.39817275 28.443431,1.35967157 27.1122667,2.59508083 L27.0543283,2.65300435 L27.0035376,2.71273747 L26.9536567,2.78168729 C26.0859991,4.06942994 26.8424275,7.84560488 28.1348239,9.17682551 C29.1507159,10.2232353 33.8727416,10.1350561 34.6225372,9.22628096 C35.2733233,8.43750849 35.7829551,7.48891736 36.0563363,6.51559204 L36.1048035,6.33283669 L36.0727276,6.31975704 L36.1645392,6.0692891 L36.1645392,6.0692891 C36.4100141,4.86415612 36.27454,3.65272599 35.580037,2.68796219 Z" id="Shape"></path>
                    </g>
                </g>
            </g>
        </g>
    </g>
</svg>
