<svg width="1753" height="750" viewBox="0 0 1753 750" fill="none" xmlns="http://www.w3.org/2000/svg">
<g opacity="0.4">
<path fill-rule="evenodd" clip-rule="evenodd" d="M629.134 278.684C662.815 260.719 696.521 242.741 734.716 233.118C839.585 204.182 952.002 229.493 1050.94 263.722C1077.08 272.311 1101.47 283.955 1125.85 295.6C1148.39 306.359 1170.92 317.119 1194.84 325.471C1198.05 326.438 1197 328.74 1196.05 330.809L1196.05 330.809C1195.9 331.119 1195.76 331.424 1195.64 331.719L1195.53 331.992C1189 347.73 1185.84 363.849 1187.92 380.594C1188.61 386.119 1188.47 386.769 1183.36 389.017L1181.95 389.627C1134.04 407.935 1099.1 448.019 1100.32 493.999C1099.37 497.059 1100.14 503.947 1100.97 511.459C1102.41 524.357 1104.05 539.095 1097.58 539.466C1091.85 540.381 1086.26 544.134 1080.92 547.726C1074 552.371 1067.49 556.747 1061.58 554.371C1053.49 551.73 1053.27 544.18 1053.05 536.698C1052.94 532.609 1052.82 528.54 1051.42 525.304C1037.61 466.816 1006.29 382.854 924.508 378.646C851.632 374.971 806.58 432.484 795.627 488.177C791.663 494.592 780.956 494.94 770.53 495.279C764.219 495.484 758.01 495.686 753.462 497.228C718.943 502.824 687.087 515.187 655.227 527.552C639.409 533.691 623.591 539.83 607.445 545.142C556.377 563.072 501.643 573.098 446.523 574.732C443.143 574.333 438.456 574.626 433.411 574.943C420.418 575.758 405.053 576.721 403.535 566.37C378.476 495.324 350.904 425.053 323.32 354.748C312.937 328.284 302.552 301.816 292.298 275.3C294.612 276.216 296.924 277.131 299.233 278.046C391.156 314.464 479.424 349.433 578.517 304.373C595.746 296.493 612.437 287.59 629.134 278.684ZM804.669 490.257C807.711 478.792 811.752 467.437 815.976 456.262C831.802 411.916 884.166 378.431 938.953 388.212C1010.15 404.282 1036.69 488.764 1045.36 544.331C1050.44 552.406 1014.93 538.868 987.593 528.442C973.467 523.055 961.519 518.499 958.471 518.183C914.687 502.921 867.863 494.262 820.646 493.286C819.167 492.928 816.886 493.123 814.507 493.326C809.735 493.733 804.566 494.175 804.669 490.257ZM509.897 432.117C505.419 434.853 503.189 432.186 501.248 428.988C502.538 419.565 515.376 427.867 509.897 432.117ZM466.309 416.533C468.18 418.181 469.027 418.927 472.733 418.942C481.193 414.708 469.126 410.154 465.682 415.984C465.905 416.177 466.113 416.36 466.309 416.533ZM600.165 404.708C599.872 411.811 577.974 403.264 593.495 401.784C596.097 401.639 599.393 402.536 600.165 404.708ZM448.966 394.136C454.855 394.593 451.972 398.358 448.42 400.815C444.024 398.25 442.38 394.457 448.966 394.136ZM513.474 395.842C512.121 398.84 510.086 398.074 507.251 397.007C506.429 396.697 505.541 396.363 504.582 396.088C507.879 392.952 512.669 391.639 513.474 395.842ZM555.432 392.532L555.708 392.247C552.608 389.863 547.739 387.135 547.934 392.337C548.99 396.577 552.642 395.336 555.432 392.532ZM484.574 381.698C484.766 386.432 474.355 384.687 474.577 381.294C475.414 377.943 484.609 378.059 484.574 381.698ZM435.644 368.376C441.225 368.383 443.274 372.81 438.764 374.943C431.585 375.999 430.243 369.252 435.644 368.376ZM521.254 367.13C520.066 371.983 515.666 370.644 512.362 367.095L512.791 366.698C516.269 363.569 520.843 361.511 521.254 367.13ZM627.636 367.422C632.328 364.585 632.998 360.322 626.664 359.79C619.845 361.606 622.066 365.19 627.238 367.267L627.636 367.422ZM476.76 357.881C485.148 359.65 475.794 368.873 471.221 365.873C468.112 362.674 472.301 360.359 475.471 358.608C475.931 358.354 476.368 358.112 476.76 357.881ZM598.493 359.79C601.781 361.993 599.946 366.842 595.39 366.445C589.784 364.996 592.716 359.754 598.493 359.79ZM553.957 357.915C558.036 360.273 554.239 365.15 550.194 364.501C545.672 362.217 548.43 357.435 553.957 357.915ZM402.759 359.109C404.476 357.164 405.857 355.598 402.488 354.066C398.024 353.998 398.036 357.955 401.406 360.744C401.825 360.168 402.304 359.625 402.759 359.109ZM443.436 351.162C439.482 349.575 438.13 345.042 444.681 344.528C450.939 344.336 450.316 351.82 443.436 351.162ZM528.135 337.869L527.938 337.852C523.705 337.607 521.451 344.479 525.917 345.451C530.42 345.998 534.133 338.244 528.135 337.869ZM497.485 336.849C491.117 337.463 490.701 331.202 496.117 331.228C501.838 330.592 500.657 335.157 497.485 336.849ZM459.366 334.254C462.728 336.686 464.88 338.243 467.85 335.24C468.522 331.249 462.901 331.375 459.013 333.999C459.132 334.085 459.25 334.17 459.366 334.254ZM593.41 331.596C594.264 336.222 588.579 337.282 585.735 334.144C585.344 329.141 591.323 327.451 593.41 331.596ZM617.948 331.819C622.005 334.774 627.074 337.057 627.951 332.006C626.742 327.756 623.472 329.273 619.72 331.014C619.554 331.092 619.386 331.169 619.217 331.247C619.077 331.312 618.935 331.377 618.794 331.442L617.948 331.819ZM417.886 329.113C418.045 332.472 413.231 333.092 411.221 330.599C411.466 325.546 416.967 325.049 417.886 329.113ZM554.768 323.535C558.69 326.516 559.19 328.348 554.991 330.195C549.148 330.535 551.036 326.061 554.768 323.535ZM594.608 309.798C594.304 313.584 588.982 313.996 586.828 311.336C587 306.769 593.439 305.868 594.608 309.798ZM635.147 293.096C638.133 295.1 637.031 299.033 632.974 298.71C628.07 298.42 630.125 292.182 635.147 293.096Z" fill="#4833E3"/>
<path fill-rule="evenodd" clip-rule="evenodd" d="M21.1445 224.385C25.46 223.209 29.677 222.06 32.9543 220.474C58.4385 212.195 86.2586 212.099 112.9 215.817C118.321 216.672 120.428 218.45 121.806 222.774C127.796 240.709 133.867 258.622 139.937 276.533C166.284 354.276 192.618 431.979 212.258 511.271C209.397 509.833 206.545 508.394 203.698 506.957C167.122 488.506 131.456 470.513 90.4887 460.296L89.5424 460.059C69.008 455.048 46.4102 457.525 25.5596 460.272L21.731 460.781C11.1269 463.761 11.4634 448.565 11.7373 436.203C11.8602 430.65 11.9706 425.669 11.0713 423.164C10.4099 394.384 8.04258 365.708 5.6753 337.032C3.04597 305.182 0.416666 273.332 0.124795 241.34C-1.33132 230.51 10.222 227.361 21.1445 224.385ZM134.045 238.773L134.046 238.777C138.464 252.726 142.883 266.677 147.952 280.45C174.794 351.83 195.255 424.65 215.725 497.497C217.011 502.074 218.297 506.651 219.585 511.228C221.591 520.854 267.992 540.852 278.372 543.971C269.674 520.849 260.837 497.759 251.999 474.666C221.882 395.974 191.753 317.252 167.098 237.159L165.562 232.145C164.081 227.176 161.606 224.584 155.249 224.023C153.222 224.357 148.955 223.158 144.426 221.885C136.188 219.571 127.083 217.012 129.007 222.989C130.71 228.244 132.377 233.509 134.045 238.773ZM179.019 249.967L179.017 249.962C177.071 243.777 175.124 237.593 173.137 231.42C170.897 224.56 181.077 228.156 189.156 231.01C192.467 232.179 195.426 233.224 197.031 233.374C200.007 234.919 203.707 235.854 207.419 236.791C214.568 238.597 221.761 240.414 223.906 246.629L225.276 250.398C242.138 296.537 261.817 341.816 281.493 387.09C307.329 446.536 333.161 505.972 352.604 567.328C347.781 565.828 341.751 564.4 335.282 562.867C315.619 558.21 291.903 552.593 285.731 541.074C254.635 459.762 223.903 378.342 194.405 296.59C188.838 281.166 183.929 265.567 179.019 249.968L179.019 249.968L179.019 249.967ZM279.559 363.904L279.559 363.904L279.559 363.903C262.678 324.972 245.861 286.187 230.816 246.165C234.511 247.65 239.299 249.126 244.46 250.718C259.356 255.311 277.356 260.861 281.134 270.328C295.466 307.515 309.953 344.659 324.666 381.736C349.681 444.732 374.685 507.754 396.295 571.689C397.364 575.004 396.241 575.903 392.459 575.352C388.869 574.301 384.71 573.943 380.551 573.585C370.922 572.756 361.292 571.926 358.732 562.497C342.943 515.918 324.999 469.936 305.477 424.407C296.977 404.074 288.26 383.97 279.559 363.904Z" fill="#73DEEC"/>
<path fill-rule="evenodd" clip-rule="evenodd" d="M1672.33 325.958C1636.69 296.313 1599.43 265.33 1550.89 252.742C1586.59 250.249 1652.68 249.298 1681.22 267.261C1692.53 286.243 1697.37 310.493 1683.01 329.292L1682.87 329.474C1681 331.964 1679.99 332.054 1677.48 330.209L1677.11 329.933C1675.52 328.612 1673.92 327.286 1672.33 325.958ZM1421.25 294.598C1455.81 278.279 1490.27 262.005 1529.93 256.152C1504.59 285.453 1515.32 324.843 1524.8 359.661C1526.65 366.425 1528.44 373.017 1529.92 379.328C1530.19 380.199 1530.44 380.989 1530.68 381.708C1531.8 385.181 1532.38 386.998 1531.77 388.202C1531.1 389.523 1528.97 390.105 1524.52 391.325C1523.83 391.514 1523.09 391.718 1522.28 391.942L1520.8 392.357C1491.69 400.552 1463.57 410.577 1438.04 425.46C1434.12 428.776 1431.84 425.449 1430.32 422.372L1430.1 421.913C1428.04 418.145 1425.97 414.38 1423.89 410.613C1407.46 380.766 1390.98 350.831 1380.81 318.857L1380.73 318.604C1379.28 314.037 1379.42 313.599 1383.85 311.67L1386.31 310.611C1398.1 305.528 1409.68 300.06 1421.25 294.598ZM1259.52 374.577C1303.28 364.914 1347.5 355.147 1369.88 319.086C1385.69 355.819 1402.01 392.788 1423.33 427.701C1426.19 432.687 1426.43 433.117 1422.18 436.374L1421.22 437.104C1380.75 466.596 1374.27 516.14 1374.61 558.558C1373.96 561.256 1374.32 565.274 1374.69 569.495C1375.48 578.372 1376.34 588.144 1368.12 588.41C1351.54 592.08 1334.63 594.107 1317.71 596.134C1313.9 596.591 1310.09 597.048 1306.28 597.523C1286.31 597.134 1177.05 393.606 1204.42 389.322C1221.46 382.981 1240.45 378.789 1259.52 374.577ZM1109.16 504.359C1106.57 458.666 1135.11 415.926 1184.14 397.524C1188.79 395.5 1190.08 395.869 1190.98 399.912L1191.37 401.827C1196.69 427.249 1206.65 451.413 1218.19 475.139C1236.07 512.052 1257.61 547.415 1279.42 582.641L1287.22 595.218C1288.42 597.693 1287.62 598.937 1284.58 599.371C1279.11 598.61 1272.08 598.867 1264.69 599.138C1247.78 599.757 1228.96 600.447 1222.57 589.181C1203.05 556.981 1164.1 523.477 1118.37 533.901C1110.03 536.949 1110.01 524.964 1110 515.062V515.061C1109.99 510.487 1109.99 506.357 1109.16 504.359ZM1128.63 539.61C1109.5 539.809 1112.54 548.848 1116.05 559.28C1117.41 563.302 1118.83 567.532 1119.08 571.542C1144.13 583.453 1175.29 588.334 1204.68 592.939C1208.35 593.513 1211.99 594.083 1215.59 594.663C1200.32 566.715 1168.32 536.259 1128.63 539.61ZM1389.66 501.578C1395.12 478.638 1406.84 457.984 1427.94 442.597C1431.96 440.61 1433.93 444.888 1435.77 448.862C1436.69 450.854 1437.58 452.771 1438.67 453.783C1444.77 463.663 1450.88 473.542 1456.99 483.42C1468.18 501.498 1479.36 519.577 1490.51 537.673C1496.05 544.522 1485.58 547.597 1475.95 550.427C1471.08 551.857 1466.43 553.225 1464.16 554.987C1461.98 555.918 1459.8 556.852 1457.62 557.786C1435.76 567.149 1413.8 576.554 1390.69 583.351C1382.01 587.255 1382.95 576.466 1383.71 567.658C1384.05 563.755 1384.35 560.24 1383.77 558.568C1383.53 539.31 1385.14 520.708 1389.49 502.311L1389.66 501.578ZM1078.34 558.031C1075.7 561.171 1085.86 563.96 1094.29 566.272C1098.58 567.45 1102.42 568.504 1103.89 569.418C1107.18 570.471 1108.06 569.734 1107.86 566.68L1107.59 564.984C1104.1 543.722 1102.98 544.362 1090.8 551.341C1087.53 553.215 1083.46 555.545 1078.34 558.031ZM1533.45 397.502L1534.37 397.277C1545.03 418.38 1553.78 440.665 1562.52 462.943L1562.52 462.943L1562.52 462.943L1562.52 462.943L1562.52 462.943L1562.52 462.944L1562.52 462.944C1568.26 477.559 1573.99 492.172 1580.27 506.446C1580.83 507.829 1581.37 508.972 1581.83 509.934C1584.13 514.775 1584.25 515.017 1573.67 518.175L1564.28 520.963C1552.79 524.357 1541.27 527.697 1529.76 531.037L1529.76 531.037L1529.75 531.038L1529.75 531.039L1529.75 531.04L1529.75 531.04L1529.74 531.041L1529.71 531.052C1522.42 533.166 1515.13 535.281 1507.84 537.409L1507.05 537.641C1502.69 538.906 1502.23 538.858 1500.08 535.461L1475.25 495.507C1464.46 478.122 1453.68 460.728 1442.98 443.301C1421.59 428.286 1516.82 401.641 1533.45 397.502ZM1677.79 347.474C1651.98 368.435 1618.11 376.495 1584.58 384.473C1573.87 387.022 1563.19 389.563 1552.82 392.513C1536.84 388.963 1560.83 441.045 1577.35 476.903C1584.31 492.03 1589.95 504.27 1590.7 508.228L1591.07 509.079C1592.74 512.848 1593.24 512.795 1598.74 511.534C1639.49 501.198 1690.83 502.976 1722.47 529.732C1745.84 547.275 1746.73 513.576 1747.41 487.814C1747.68 477.427 1747.92 468.33 1749.59 464.402L1749.12 464.37C1748.87 459.226 1749.66 453.85 1750.46 448.453C1751.9 438.612 1753.36 428.7 1748.55 419.995C1730.47 394.737 1708.85 371.589 1685.87 349.533L1684.04 347.787C1681.26 345.141 1680.52 345.203 1677.79 347.474ZM1691.88 267.594C1701.8 289.112 1705.77 314.528 1689.63 334.611L1688.99 335.48C1686.67 338.633 1686.91 338.988 1690.22 342.133L1695.17 346.99C1714.97 366.464 1734.43 386.519 1749.82 408.72L1751.38 407.931C1751.5 401.976 1751.64 396.023 1751.77 390.069L1751.77 390.069C1752.42 361.404 1753.07 332.753 1752.95 304.049C1751.64 284.226 1720.98 275.716 1699.81 269.841L1699.81 269.841C1696.96 269.051 1694.29 268.309 1691.88 267.594ZM1546.24 385.566C1533.33 391.053 1523.34 310.687 1523.18 299.816C1520.8 212.443 1626.57 299.212 1663.37 329.398L1663.37 329.401L1663.38 329.407C1664.39 330.234 1665.35 331.02 1666.25 331.757L1668.22 333.364C1674.26 338.652 1674.7 339.139 1669.01 343.438L1667.44 344.615C1643.24 362.042 1612.85 369.164 1582.64 376.242C1570.33 379.126 1558.06 382.003 1546.24 385.566ZM1354.37 323.854C1310.28 338.6 1260.89 342.857 1215.06 331.709C1214.21 331.517 1213.34 331.256 1212.49 331C1208.97 329.937 1205.7 328.952 1204.39 333.287C1200.37 339.601 1187.88 385.5 1202.56 381.81C1219.09 375.044 1238.57 370.963 1258.26 366.836C1295.78 358.972 1334.09 350.942 1354.37 323.854Z" fill="#60D6E1"/>
<path fill-rule="evenodd" clip-rule="evenodd" d="M1543.73 42.2255C1543.84 42.3253 1543.95 42.4243 1544.06 42.5224C1537.7 38.323 1528.9 43.2181 1531.33 49.3624C1535.59 58.3282 1552.35 48.8427 1543.73 42.2255ZM1543.72 42.2164C1565.68 58.5173 1585.87 76.6614 1605.92 94.6844C1606.88 95.5495 1607.84 96.4144 1608.8 97.2787C1613.49 101.473 1602.57 108.322 1593.29 114.141C1588.58 117.096 1584.29 119.786 1582.69 121.728C1579.58 124.896 1578.01 123.078 1576.19 120.956C1575.23 119.84 1574.19 118.639 1572.82 118.035C1567.81 114.86 1559.87 119.437 1562.21 124.61C1562.5 126.212 1563.41 127.675 1564.26 129.047C1565.99 131.833 1567.49 134.243 1563.12 136.674C1561.17 137.541 1558.64 139.976 1555.94 142.583C1550.8 147.544 1545.01 153.126 1541.3 149.701C1534.42 144.902 1523.81 150.88 1529.6 158.469L1529.66 158.573C1532.42 163.007 1532.48 163.098 1528.77 166.757C1510.95 186.332 1495.61 171.246 1481.94 157.804C1481.71 157.575 1481.47 157.346 1481.24 157.118C1478.49 153.872 1474.66 150.981 1470.82 148.082C1464.56 143.359 1458.28 138.616 1456.59 132.294C1458.97 123.785 1451.78 118.184 1442.09 121.005C1438.37 122.338 1436.13 120.485 1433.83 118.577C1433 117.895 1432.17 117.205 1431.26 116.652C1428.76 115.09 1428.54 113.772 1430.35 111.358C1434.34 106.528 1430.11 102.737 1423.88 102.593C1415.48 102.714 1414.09 91.9466 1419.23 87.5715C1429.25 78.8038 1437.87 68.977 1446.48 59.1589C1459.14 44.7322 1471.78 30.3242 1488.79 19.3228C1507.01 8.05572 1527.07 26.7293 1540.29 39.0395C1541.49 40.1604 1542.64 41.2285 1543.72 42.2164ZM1491.76 53.0482C1478.16 53.0536 1482.07 39.283 1492.28 38.7444C1501.14 39.4677 1503.38 53.4203 1491.76 53.0482ZM1500.86 133.971C1500.68 124.741 1516 128.194 1515.28 135.891C1514.57 144.632 1500.11 143.366 1500.86 133.971ZM1487.43 108.473C1488.37 119.602 1473.44 117.352 1471.88 108.708C1472.22 100.095 1487.29 96.3876 1487.43 108.473ZM1533.62 102.667C1540.19 102.908 1544.43 105.808 1545.36 110.683C1545.65 130.102 1512.15 104.572 1533.62 102.667ZM1569.85 76.4527C1569.53 86.4144 1558.03 82.4741 1553.51 77.5368C1546.12 68.1976 1568.9 58.5655 1569.85 76.4527ZM1451.85 75.915C1452.9 66.7283 1470.35 65.1124 1471.88 75.3158C1471.78 86.4634 1454.12 86.0212 1451.85 75.915ZM1510.59 67.3971C1525.28 67.3635 1523.79 83.7221 1508.86 82.5739C1496.14 83.1204 1499.9 66.5615 1510.59 67.3971Z" fill="#52DC82"/>
<path fill-rule="evenodd" clip-rule="evenodd" d="M799.101 543.211L801.577 541.84C805.921 540.918 810.521 542.955 814.781 544.841C816.264 545.498 817.705 546.136 819.08 546.625C837.734 556.897 856.956 566.605 876.202 576.325C918.96 597.92 961.839 619.575 998.873 647.611C1007.03 655.761 998.394 657.297 989.742 658.835C985.855 659.526 981.965 660.217 979.596 661.508C977.423 661.685 973.27 663.805 968.815 666.079C959.903 670.628 949.784 675.794 951.9 667.247C952.328 644.098 929.775 648.649 912.312 653.106L907.89 654.248C893.743 655.308 895.637 646.856 897.675 637.758C898.924 632.187 900.226 626.373 897.934 622.353C892.758 603.316 870.019 606.308 856.358 616.888C832.006 627.085 832.165 616.732 836.754 600.013L837.192 598.444C841.467 585.819 826.71 570.362 812.643 580.814C811.511 581.77 810.396 582.759 809.277 583.751C805.189 587.375 801.041 591.053 795.808 593.404C784.016 596.593 782.627 586.76 781.288 577.282C780.573 572.223 779.873 567.265 777.612 564.442C778.224 555.45 789.971 548.301 799.101 543.211ZM771.076 571.189L769.363 571.079L769.039 571.469C768.016 572.679 766.659 574.13 765.155 575.736L765.154 575.737C758.572 582.77 749.191 592.794 752.878 598.718C756.691 602.38 758.881 606.962 761.039 611.477C764.6 618.928 768.075 626.198 778.617 628.854C783.291 630.921 789.341 627.895 795.093 625.019C805.647 619.741 815.199 614.964 813.413 643.063C816.187 657.504 829.405 652.669 842.352 647.934C858.727 641.944 874.67 636.113 868.503 669.636C870.108 681.868 880.785 679.84 892.333 677.646C902.728 675.672 913.83 673.563 919.656 681.599C922.903 684.698 925.819 684.922 929.716 682.819C931.068 682.063 932.687 681.484 934.312 680.903C938.376 679.45 942.476 677.985 942.521 673.7C945.585 659.891 938.714 652.993 923.015 659.817C884.788 669.113 886.873 651.993 888.732 636.728C890.199 624.685 891.525 613.795 872.803 617.943C860.659 627.065 825.749 638.209 825.193 615.796C825.398 612.679 826.115 609.529 826.834 606.371C828.138 600.643 829.448 594.89 827.715 589.267C825.44 582.964 819.121 587.494 811.41 593.02C797.098 603.279 777.993 616.973 771.076 571.189ZM741.623 614.068C743.438 611.176 745.266 608.265 746.225 605.3C750.027 607.883 751.101 611.23 752.122 614.411L752.125 614.421C752.177 614.584 752.229 614.747 752.282 614.909L752.58 615.81C757.457 630.147 779.644 643.924 795.516 633.515C795.715 633.375 795.939 633.213 796.182 633.037L796.187 633.034L796.187 633.034C798.933 631.048 804.147 627.278 804.194 632.531C797.03 657.039 821.087 665.896 844.285 655.728C850.814 651.796 862.743 646.297 860.086 658.251C855.246 689.951 872.393 687.388 889.177 684.879C897.709 683.603 906.148 682.342 911.556 685.603C915.266 689.279 899.583 694.629 887.041 698.907C880.8 701.036 875.336 702.9 873.428 704.16C860.574 703.425 848.29 696.407 836.21 689.505C829.026 685.401 821.915 681.339 814.8 678.663C787.223 664.652 760.435 649.052 737.228 630.091C734.967 624.667 738.274 619.4 741.623 614.068ZM708.939 738.713C711.588 706.362 714.301 673.233 727.456 642.602L727.467 642.578C730.169 636.89 730.443 636.313 735.086 639.738L736.619 640.886C764.322 662.644 796.276 678.728 828.377 694.886C838.532 699.997 848.701 705.116 858.755 710.424C843.488 715.172 828.742 720.842 814.086 726.477L814.086 726.477L814.085 726.477C791.422 735.191 768.973 743.823 745.14 748.837C741.876 748.375 738.593 747.679 735.296 746.979C728.183 745.47 721.009 743.948 713.842 744.748C710.024 745.486 709.083 745.172 708.736 742.085L708.696 741.685L708.782 740.635L708.939 738.713Z" fill="#67C3CC"/>
<path fill-rule="evenodd" clip-rule="evenodd" d="M1260.59 11.2629C1258.17 18.0779 1264.87 19.0132 1271.56 19.9461C1274.49 20.3539 1277.41 20.7612 1279.56 21.6589C1285.6 22.3926 1286.07 16.7712 1286.52 11.5266C1286.74 8.91549 1286.95 6.39779 1287.84 4.8043C1288.71 0.576989 1283.92 0.809898 1279.78 1.01096C1278.38 1.07867 1277.06 1.14277 1276.06 1.03171L1276.06 1.05309L1275.08 0.971681C1265.43 0.235814 1259.71 1.90473 1260.59 11.2629ZM1303.13 27.8427C1298.08 27.0058 1292.8 26.1294 1293.59 21.29C1294.38 19.9692 1294.58 17.6323 1294.79 15.1576C1295.21 10.2354 1295.68 4.76809 1300.89 5.66723C1302.46 6.5568 1304.5 7.1914 1306.57 7.83643C1310.63 9.09943 1314.82 10.4025 1315.8 13.7379C1315.29 15.1093 1315.25 17.1575 1315.21 19.3219C1315.13 24.2817 1315.03 29.8517 1309.19 29.2861C1307.59 28.581 1305.39 28.2158 1303.13 27.8427ZM1339.09 36.9345C1327.14 34.4743 1320.47 33.1024 1325.05 16.6452C1329.3 8.54699 1354.32 34.0154 1353.67 40.729C1348.32 38.8325 1343.37 37.814 1339.09 36.9345ZM1257.2 35.3872L1257.23 35.389C1254.84 42.1025 1261.68 43.3371 1268.22 44.5177C1270.54 44.9378 1272.83 45.351 1274.65 46.0018C1280.92 49.4627 1283.84 30.8467 1278.39 30.655L1277.84 30.5622C1276.04 30.2439 1274.06 29.7311 1272.06 29.2115L1272.06 29.2115C1263.84 27.0834 1255.18 24.8421 1257.2 35.3872ZM1299.78 52.8561C1294.73 51.8958 1289.5 50.8998 1289.06 46.9339C1289.56 45.7697 1289.72 44.0475 1289.89 42.2393C1290.29 37.9012 1290.74 33.0684 1296.16 34.2613C1297.72 34.9392 1299.95 35.3003 1302.27 35.6748C1307.31 36.4893 1312.73 37.367 1312.44 41.7052C1312.02 42.8831 1312.07 44.6975 1312.12 46.6104V46.6104C1312.24 50.9625 1312.37 55.8241 1307.04 54.8593C1305.2 53.8887 1302.52 53.3777 1299.78 52.8561ZM1321.55 52.2078C1320.12 59.5667 1327.34 61.5145 1334.61 63.476C1337.88 64.358 1341.16 65.2427 1343.67 66.6233C1350.08 69.405 1352.06 63.5019 1353.8 58.3299C1354.46 56.3576 1355.09 54.4917 1355.91 53.2541C1355.93 48.5969 1346.82 46.7164 1338.52 45.0016H1338.52C1333.93 44.0543 1329.59 43.1576 1327.17 41.8714C1322.59 40.7541 1322.35 44.7249 1322.14 48.2954C1322.05 49.8119 1321.96 51.2562 1321.55 52.2078ZM1236.79 81.2327C1223.05 72.8058 1216.6 60.9355 1214.56 48.149C1213.08 38.8631 1222.3 41.5834 1230.72 44.0671C1234.36 45.1405 1237.85 46.1697 1240.26 46.1666C1248.25 47.1589 1245.52 58.6418 1243.22 68.3267C1242.14 72.8844 1241.15 77.0439 1241.42 79.5246C1240.87 82.9229 1240.2 83.2702 1237.16 81.4602L1236.79 81.2327ZM1252.37 74.7438L1252.37 74.7466C1251.99 77.4256 1251.6 80.1046 1251.2 82.7831L1251.19 83.2489C1251.07 86.9237 1251.59 87.4829 1255.86 88.8512L1256.22 88.9362C1257.05 89.1472 1257.96 89.4323 1258.9 89.7259L1258.9 89.7262L1258.9 89.7264L1258.9 89.7269L1258.9 89.727C1263.41 91.1395 1268.55 92.7492 1269.36 87.2681C1269.36 85.1963 1270.75 81.0919 1272.33 76.4354L1272.33 76.4353C1275.76 66.3488 1280.06 53.6722 1273 53.4534C1271.6 53.2869 1269.75 52.6945 1267.78 52.0623C1262.38 50.3329 1256.06 48.3053 1255.49 53.8803C1254.39 60.8282 1253.38 67.7859 1252.37 74.7438ZM1288.94 95.2238C1283.2 95.0937 1276.94 94.9519 1278.04 89.7133C1279.22 87.7326 1280.05 83.2301 1280.97 78.2148L1280.97 78.2147L1280.97 78.2146L1280.97 78.2145L1280.97 78.2144L1280.97 78.2143C1282.8 68.2124 1285.01 56.1711 1291.17 58.024C1292.97 58.8859 1295.66 59.4146 1298.45 59.9637L1298.45 59.9637C1304.68 61.1919 1311.44 62.5228 1310.04 67.9134C1308.7 70.5717 1308.33 74.5721 1307.94 78.7179C1307.12 87.586 1306.23 97.1189 1295.65 95.6022L1295.63 95.844C1293.97 95.3377 1291.51 95.2819 1288.94 95.2238ZM1316.99 80.5007C1317.77 75.7413 1318.55 70.994 1321.91 67.3363C1323.03 67.7538 1324.15 68.1668 1325.26 68.5768L1325.26 68.5769C1330.41 70.4765 1335.39 72.3139 1340.31 74.2607C1338.65 82.1059 1327.48 87.8504 1318.91 91.4373L1318.13 91.7623C1315.33 92.6713 1314.1 91.2683 1314.95 89.054C1316.03 86.3659 1316.51 83.431 1316.99 80.5007ZM1221.93 23.2414L1221.19 24.1814C1215.57 31.4336 1216.37 32.3742 1226.99 34.6542C1229 34.9187 1231.33 35.5169 1233.71 36.1271C1241.8 38.2031 1250.43 40.4182 1248.73 30.1064L1248.76 28.8282C1248.86 23.9235 1248.17 23.5655 1241.77 22.2891C1239.85 22.1583 1237.76 21.6269 1235.64 21.0908C1230.32 19.7435 1224.89 18.366 1221.93 23.2414ZM1237.56 10.4744C1241.75 8.66158 1245.91 6.85704 1250.8 6.51979C1252.79 17.0311 1246.65 15.6728 1237.81 13.7186C1237.51 13.6523 1237.21 13.5854 1236.91 13.5182L1235.09 13.1263L1234.46 11.7929C1235.5 11.3674 1236.53 10.9207 1237.56 10.4744Z" fill="#EBBF5E"/>
<rect width="1751.62" height="746.265" transform="matrix(-1 0 0 1 1753 3)" fill="#EBEDF8" fill-opacity="0.600982"/>
</g>
<path d="M1079.82 443.084L1108.25 451.863C1109.78 452.335 1111.39 451.481 1111.86 449.956C1113.27 445.375 1114.62 440.785 1116.07 436.211L1120.42 422.495C1123.41 413.371 1126.39 404.241 1129.53 395.152C1136.44 374.902 1143.72 354.744 1151.29 334.68C1152.97 330.265 1151.01 325.374 1146.91 323.754L1128.66 316.561C1124.56 314.942 1119.85 317.272 1118.14 321.765C1110.45 342.159 1103.05 362.673 1095.99 383.331C1092.79 392.599 1089.74 401.931 1086.69 411.258L1082.23 425.299C1080.76 429.982 1079.36 434.697 1077.92 439.395C1077.44 440.96 1078.29 442.613 1079.82 443.084" fill="#8C6345"/>
<path d="M1211.85 195.575C1213.07 196.142 1213.42 198.04 1212.62 199.812C1205.4 215.929 1198.39 232.161 1191.53 248.452C1188.08 256.589 1184.73 264.771 1181.35 272.94C1178.04 281.137 1174.7 289.318 1171.47 297.544C1168.19 305.75 1165.03 314 1161.83 322.235C1158.72 330.497 1155.55 338.742 1152.52 347.031C1149.44 355.301 1146.48 363.61 1143.5 371.909L1139.13 384.386C1138.41 386.467 1137.67 388.543 1136.96 390.628L1134.84 396.882L1131.9 405.582L1129.04 414.299L1126.19 423.018L1123.44 431.755L1077.78 416.846L1080.68 407.846L1083.66 398.886L1086.65 389.931L1089.73 381.011L1091.94 374.599C1092.68 372.462 1093.44 370.339 1094.2 368.208L1098.74 355.439C1101.84 346.958 1104.92 338.465 1108.12 330.028C1111.26 321.565 1114.53 313.164 1117.77 304.741C1121.07 296.353 1124.34 287.948 1127.73 279.597C1131.07 271.223 1134.52 262.901 1137.94 254.563C1141.43 246.253 1154.83 213.093 1161.83 192.859C1161.83 192.859 1178.51 193.765 1211.85 195.575Z" fill="#5C1C8A"/>
<path d="M1081.38 428.675C1083.72 429.421 1092.17 432.111 1100.05 434.618C1100 434.719 1099.96 434.817 1099.93 434.923C1099.09 437.657 1101.48 440.832 1105.25 442.015C1109.03 443.199 1112.76 441.969 1113.59 439.268C1113.62 439.164 1113.64 439.058 1113.66 438.953C1114.69 439.281 1115.28 439.471 1115.28 439.471L1110.65 454.633L1061.27 439.535L1062.82 434.46C1064.06 430.393 1077.83 433.591 1081.38 428.675" fill="#0A1B45"/>
<path d="M1077.78 417.181L1123.58 432.195L1125.87 424.963C1126.63 422.551 1127.45 420.15 1128.23 417.743L1082.58 402.278C1081.77 404.758 1080.93 407.225 1080.15 409.716L1077.78 417.181Z" fill="#D7DBE2"/>
<path d="M1310.62 292.723L1291.37 269.684C1290.34 268.445 1288.68 268.157 1287.6 269.055C1284.36 271.764 1280.92 274.423 1277.46 276.924C1273.98 279.428 1270.45 281.786 1266.9 283.947C1263.35 286.091 1259.79 288.065 1256.28 289.717C1252.77 291.385 1249.31 292.747 1246.09 293.708C1244.72 294.126 1243.42 294.428 1242.16 294.698C1240.91 294.949 1239.75 295.104 1238.66 295.215C1237.58 295.301 1236.62 295.305 1235.76 295.271C1234.9 295.226 1234.2 295.1 1233.58 294.971C1232.95 294.851 1232.49 294.641 1232.04 294.455C1231.59 294.272 1231.21 294.024 1230.8 293.721C1229.97 293.156 1229.03 292.143 1227.96 290.614C1227.73 290.252 1227.33 290.014 1226.77 289.903C1226.2 289.698 1225.49 289.588 1224.67 289.609C1223.05 289.647 1221.02 290.118 1219.07 291.139L1201.68 300.266C1199.73 301.287 1198.35 302.935 1197.76 304.881C1197.46 305.852 1197.35 306.889 1197.48 307.933C1197.66 308.991 1198.05 310.059 1198.69 311.037C1201.69 315.443 1205.44 319.715 1210.13 323.105C1212.45 324.803 1214.97 326.304 1217.6 327.476C1220.23 328.655 1222.96 329.612 1225.68 330.218C1228.41 330.839 1231.14 331.225 1233.81 331.371C1236.48 331.506 1239.09 331.454 1241.63 331.241C1244.16 331.008 1246.63 330.65 1249.03 330.168C1251.42 329.671 1253.76 329.101 1256.02 328.416C1261.38 326.815 1266.42 324.783 1271.23 322.502C1276.05 320.228 1280.62 317.686 1285.06 315C1289.49 312.302 1293.77 309.441 1297.93 306.444C1302.09 303.442 1306.13 300.32 1310.1 297.007C1311.42 295.899 1311.66 293.961 1310.62 292.723" fill="#B18058"/>
<path d="M1254.07 192.86C1254.74 192.847 1254.72 197.585 1254.63 199.086C1254.47 200.671 1254.29 202.257 1254.07 203.835C1253.83 205.319 1253.54 206.728 1253.24 208.172C1252.62 210.892 1251.9 213.507 1251.12 215.811L1250.53 217.582L1249.93 219.215C1249.52 220.288 1249.12 221.433 1248.7 222.403L1247.45 225.41L1246.19 228.223L1245.88 228.925L1245.57 229.586L1244.95 230.908L1244.32 232.23L1243.71 233.492L1242.49 235.986L1241.3 238.369C1239.74 241.49 1238.23 244.472 1236.87 247.255C1236.16 248.686 1235.56 250.005 1234.9 251.374L1234.01 253.342L1233.57 254.323L1233.16 255.271C1232.03 257.836 1231.17 260.202 1230.38 262.486C1230.05 263.594 1229.66 264.72 1229.42 265.746L1229.2 266.531L1229.1 266.921L1229.02 267.292C1228.92 267.785 1228.82 268.278 1228.71 268.769C1228.64 269.021 1228.62 269.245 1228.58 269.476L1228.48 270.167L1228.36 270.855C1228.31 271.091 1228.32 271.291 1228.3 271.51C1228.26 271.939 1228.22 272.366 1228.17 272.794C1228.15 273.204 1228.16 273.595 1228.14 273.995L1228.11 274.593L1228.15 275.154C1228.17 275.528 1228.18 275.902 1228.18 276.275C1228.24 276.63 1228.29 276.986 1228.32 277.342C1228.34 277.52 1228.35 277.701 1228.37 277.878L1228.49 278.396C1228.57 278.742 1228.63 279.091 1228.68 279.442C1228.8 279.785 1228.9 280.131 1228.99 280.48L1229.12 281.006C1229.17 281.182 1229.26 281.357 1229.33 281.534C1229.46 281.887 1229.59 282.243 1229.71 282.604C1229.75 282.785 1229.86 282.967 1229.95 283.15L1230.21 283.701L1230.46 284.258C1230.54 284.445 1230.59 284.633 1230.72 284.823C1230.95 285.204 1231.17 285.587 1231.37 285.975L1231.68 286.561C1231.71 286.607 1231.73 286.664 1231.76 286.703L1231.82 286.797L1231.95 286.989C1232.63 288.053 1233.19 288.662 1233.53 288.968C1233.57 289.029 1233.61 289.035 1233.65 289.063C1233.68 289.088 1233.72 289.12 1233.74 289.158C1233.78 289.167 1233.81 289.179 1233.83 289.199C1233.86 289.219 1233.88 289.256 1233.91 289.25C1233.95 289.263 1233.98 289.313 1234.03 289.31C1234.05 289.312 1234.05 289.349 1234.08 289.343C1234.11 289.343 1234.13 289.35 1234.15 289.365C1234.16 289.389 1234.2 289.38 1234.23 289.388C1234.26 289.393 1234.28 289.418 1234.31 289.427C1234.41 289.419 1234.45 289.488 1234.58 289.486C1234.63 289.494 1234.68 289.512 1234.74 289.532C1234.81 289.535 1234.88 289.543 1234.95 289.558C1234.99 289.565 1235.02 289.575 1235.06 289.585L1235.19 289.593C1235.29 289.599 1235.37 289.612 1235.46 289.63C1236.26 289.693 1237.49 289.683 1239.02 289.486C1240.58 289.267 1242.44 288.857 1244.45 288.251C1248.15 287.146 1252.36 285.364 1256.64 283.143C1260.94 280.921 1265.33 278.264 1269.67 275.338L1296.09 316C1290.41 319.769 1284.51 323.32 1278.21 326.533C1271.91 329.736 1265.22 332.628 1257.82 334.806C1253.78 335.985 1249.52 336.95 1244.99 337.529C1240.44 338.083 1235.61 338.255 1230.55 337.723C1225.49 337.152 1220.2 335.896 1215.16 333.626C1210.13 331.376 1205.4 328.244 1201.51 324.565C1197.6 320.904 1194.43 316.823 1191.89 312.714L1191.41 311.94L1191.17 311.553L1190.96 311.182L1190.15 309.702L1188.55 306.73C1188.28 306.245 1188.06 305.703 1187.82 305.185L1187.11 303.612L1186.41 302.035C1186.18 301.506 1185.94 300.991 1185.75 300.433L1184.57 297.13C1184.38 296.576 1184.18 296.031 1184.01 295.468L1183.54 293.759C1183.23 292.618 1182.93 291.474 1182.63 290.331C1182.4 289.167 1182.18 287.999 1181.97 286.831L1181.65 285.077C1181.57 284.49 1181.51 283.901 1181.45 283.313C1181.32 282.135 1181.19 280.956 1181.08 279.777C1181.02 278.603 1180.99 277.43 1180.95 276.255L1180.91 274.495L1180.97 272.759C1181.01 271.604 1181.04 270.44 1181.12 269.294L1181.47 265.901C1181.57 264.759 1181.76 263.668 1181.94 262.572L1182.21 260.927C1182.31 260.38 1182.39 259.824 1182.52 259.301L1183.22 256.121L1183.4 255.326L1183.61 254.557L1184.03 253.024C1184.57 250.951 1185.22 249.012 1185.86 247.044C1187.19 243.204 1188.64 239.472 1190.19 236.001L1190.77 234.681L1191.35 233.402L1192.53 230.851C1193.33 229.213 1194.13 227.524 1194.92 225.947C1198.11 219.531 1201.28 213.606 1203.79 208.194L1204.7 206.198L1205.51 204.286C1205.8 203.636 1205.99 203.06 1206.23 202.454L1206.58 201.556L1206.85 200.72C1207.61 198.486 1209.95 192.874 1210.62 192.86H1254.07Z" fill="#8F1EE0"/>
<path d="M1300.97 304.324C1299.53 302.322 1294.3 295.106 1289.44 288.376C1289.53 288.322 1289.62 288.271 1289.7 288.208C1291.93 286.555 1291.72 282.611 1289.29 279.464C1286.86 276.314 1283.28 275.038 1281.24 276.552C1281.16 276.611 1281.09 276.679 1281.02 276.744C1280.38 275.863 1280.02 275.355 1280.02 275.355C1281.92 273.942 1283.8 272.493 1285.64 271.014C1286.56 270.277 1287.47 269.532 1288.35 268.792L1289.64 267.692L1290.69 266.772L1325.1 305.534L1323.7 306.782L1322.5 307.813L1320.18 309.766C1318.34 311.292 1314.99 309.433 1311.4 307.444C1307.8 305.455 1303.96 303.332 1300.97 304.324" fill="#0A1B45"/>
<path d="M1296.09 315.97L1269.75 275.131C1266.18 277.541 1262.58 279.756 1259.03 281.703L1281.59 324.846C1286.64 322.077 1291.45 319.102 1296.09 315.97" fill="#D7DBE2"/>
<path d="M1210.37 237.735C1234.78 237.735 1254.57 217.643 1254.57 192.859H1161.71C1161.71 217.643 1181.5 237.735 1205.91 237.735H1210.37Z" fill="#8F1EE0"/>
<path d="M1033.63 113.591C1040.41 116.122 1049.21 116.269 1055.71 119.614C1072.95 129.642 1090.59 138.597 1109.56 145.876C1117.1 148.852 1125.7 151.556 1133.52 153.735C1139.43 155.313 1146.23 156.775 1152.27 157.837C1157.84 158.91 1164.42 160.044 1168.92 155.74C1178.54 148.938 1173.99 131.941 1162.63 130.007C1157.48 129.361 1151.61 128.262 1146.58 127.019C1137.77 124.979 1128.62 122.062 1120.19 118.797C1097.07 110.654 1075.9 96.4782 1053.81 85.8366C1045.46 81.5079 1029.53 79.5487 1023.76 82.137C1021.27 82.5923 1020.08 86.5885 1022.57 87.7235C1023.39 88.0971 1026.52 88.7728 1030.17 89.8815C1028.41 90.6682 1027.1 91.7593 1026.15 92.783C1024.03 95.0752 1026.77 99.0643 1030.15 98.1016C1033.1 97.2424 1036.13 94.4192 1042.16 95.3849C1048.8 101.191 1043.83 108.446 1036.24 106.525C1031.89 106.031 1030.03 112.206 1033.63 113.591" fill="#B18058"/>
<path opacity="0.12" d="M1033.63 113.591C1040.41 116.122 1049.21 116.269 1055.71 119.614C1072.95 129.642 1090.59 138.597 1109.56 145.876C1117.1 148.852 1125.7 151.556 1133.52 153.735C1139.43 155.313 1146.23 156.775 1152.27 157.837C1157.84 158.91 1164.42 160.044 1168.92 155.74C1178.54 148.938 1173.99 131.941 1162.63 130.007C1157.48 129.361 1151.61 128.262 1146.58 127.019C1137.77 124.979 1128.62 122.062 1120.19 118.797C1097.07 110.654 1075.9 96.4782 1053.81 85.8366C1045.46 81.5079 1029.53 79.5487 1023.76 82.137C1021.27 82.5923 1020.08 86.5885 1022.57 87.7235C1023.39 88.0971 1026.52 88.7728 1030.17 89.8815C1028.41 90.6682 1027.1 91.7593 1026.15 92.783C1024.03 95.0752 1026.77 99.0643 1030.15 98.1016C1033.1 97.2424 1036.13 94.4192 1042.16 95.3849C1048.8 101.191 1043.83 108.446 1036.24 106.525C1031.89 106.031 1030.03 112.206 1033.63 113.591" fill="black"/>
<path d="M1069.05 90.5924C1072.25 92.4301 1077.12 95.3338 1080.34 97.0417C1090.56 96.3822 1156.28 129.066 1189.27 129.066C1194.76 137.204 1182.95 156.027 1174.03 161.318C1167.77 165.575 1160.16 164.422 1152.95 164.167C1131.24 162.496 1110.08 155.279 1090.99 145.187C1081.62 139.781 1070.75 133.943 1063.96 125.821C1060.44 123.972 1055.33 120.889 1051.86 118.909L1069.05 90.5924Z" fill="#374D9F"/>
<path d="M1079.89 97.5504L1063.5 126.324C1060.09 124.511 1054.89 121.421 1051.51 119.476L1068.7 91.1592C1071.87 92.9797 1076.7 95.8553 1079.89 97.5504" fill="#25996F"/>
<path d="M1147.38 213.669C1179.78 215.904 1270.89 205.68 1269.86 199.989C1267.81 188.703 1264.27 171.067 1259.24 147.081C1259.24 137.132 1250.24 129.066 1239.14 129.066H1176.94C1165.84 129.066 1156.84 137.132 1156.84 147.081C1152.39 170.085 1149.17 187.143 1147.15 198.256C1146.43 202.223 1146.51 207.361 1147.38 213.669Z" fill="#1B2B67"/>
<path d="M1271.53 214.941C1226.6 230.627 1177.88 215.789 1144.54 214.941L1146.68 197.832C1179.34 198.983 1226.08 213.037 1269.89 198.191L1271.53 214.941Z" fill="#2DB386"/>
<path d="M1210.12 228.681C1232.26 228.12 1253.93 211.958 1252.53 188.908C1252.21 178.305 1248.29 168.509 1242.39 159.198C1238.44 153.061 1240.46 144.257 1246.1 139.654C1268.69 123.63 1281.92 172.376 1281.99 188.174C1282.32 199.292 1279.8 210.803 1274.48 220.709C1263.88 240.99 1242.22 253.72 1219.96 256.807C1214.87 257.849 1178.22 260.694 1190.91 249.544C1189.32 248.778 1188.4 247.108 1188.7 245.412C1188.94 244.052 1189.87 242.975 1191.05 242.452C1188.31 241.153 1188.42 236.918 1190.99 235.53C1189.08 235.228 1186.9 234.809 1185.02 234.377C1182.27 234.149 1179.52 232.29 1180.48 229.157C1182.67 223.136 1189.97 228.267 1194.43 228.041C1195.45 222.101 1202.7 225.592 1206.73 224.861C1208.45 224.812 1209.95 226.515 1210.12 228.681" fill="#B18058"/>
<path d="M1220.36 259.417C1225.84 258.589 1231.34 257.308 1236.72 255.39C1250.94 255.665 1265.03 245.212 1274.29 234.337C1289.17 216.539 1292.99 190.906 1286.04 169.165C1282.87 158.301 1276.1 146.371 1269.04 138.274C1261.98 130.176 1249.76 129.066 1234.06 129.066C1218.37 129.066 1232.54 147.085 1234.06 154.392C1235.93 160.226 1239.63 165.55 1241.35 171.429C1249.57 194.429 1243.86 209.219 1225.45 224.317C1222.26 225.467 1218.84 226.263 1215.33 226.796L1220.36 259.417Z" fill="#1B2B67"/>
<path d="M1236.32 254.83L1225.12 223.732C1222 224.849 1218.66 225.619 1215.23 226.143L1220.26 258.764C1225.64 257.948 1231.04 256.701 1236.32 254.83" fill="#2DB386"/>
<path d="M1225.6 102.204C1218.82 98.1514 1219.77 82.0754 1205.95 81.9918C1192.14 81.9083 1194.85 92.3893 1188.17 104.819C1181.48 117.248 1181.56 132.146 1198.61 132.146C1205.61 132.146 1209.14 132.146 1218.64 132.146C1237.54 132.146 1236.94 108.987 1225.6 102.204Z" fill="black"/>
<path d="M1218.85 109.268H1198.77V131.984C1198.77 138.102 1203.26 143.061 1208.81 143.061C1214.36 143.061 1218.85 138.102 1218.85 131.984V109.268Z" fill="#B18058"/>
<path d="M1197.85 123.347H1200.08C1210.45 123.347 1218.85 115.061 1218.85 104.84V96.1587C1218.85 88.3341 1212.42 81.9908 1204.48 81.9908H1201.98C1194.04 81.9908 1187.6 88.3341 1187.6 96.1587V113.251C1187.6 118.827 1192.19 123.347 1197.85 123.347" fill="#B18058"/>
<path d="M1213.5 107.728C1213.5 110.765 1216 113.228 1219.08 113.228C1222.16 113.228 1224.66 110.765 1224.66 107.728C1224.66 104.691 1222.16 102.229 1219.08 102.229C1216 102.229 1213.5 104.691 1213.5 107.728" fill="#B18058"/>
<path d="M1220.16 105.383C1219.76 105.383 1219.2 105.474 1218.63 105.757C1217.67 106.229 1217.06 107.093 1217.02 108.345L1217.02 108.481H1218.36C1218.36 107.673 1218.67 107.21 1219.23 106.938C1219.43 106.836 1219.66 106.769 1219.89 106.732C1220 106.713 1220.09 106.705 1220.14 106.703L1220.16 106.702V105.383Z" fill="black"/>
<path opacity="0.12" d="M1209.14 124.372C1213.29 122.926 1215.36 119.272 1216.18 114.358C1212.94 119.682 1207.05 123.264 1200.31 123.345L1200.08 123.347H1198.77C1202.31 125.208 1205.77 125.55 1209.14 124.372Z" fill="black"/>
<path d="M1190.3 88.2273C1192.88 84.4647 1197.25 81.9908 1202.21 81.9908H1204.71C1212.65 81.9908 1219.08 88.324 1219.08 96.136C1219.08 96.136 1219.29 100.728 1219.3 102.196C1219.3 102.269 1216.85 102.196 1216.85 102.196L1213.5 89.7295C1197.43 89.7295 1189.39 89.7295 1189.39 89.7295C1189.56 89.3776 1189.87 88.8769 1190.3 88.2273Z" fill="black"/>
<ellipse rx="11.1607" ry="10.9989" transform="matrix(-1 0 0 1 1209.93 73.6317)" fill="black"/>
<path d="M1201.98 81.9908C1194.49 81.9908 1188.33 87.5863 1187.61 94.7491H1218.85C1218.13 87.5863 1211.98 81.9908 1204.48 81.9908H1201.98Z" fill="black"/>
<path d="M1204.32 101.789C1204.32 101.06 1204.92 100.469 1205.66 100.469C1206.4 100.469 1207 101.06 1207 101.789C1207 102.518 1206.4 103.109 1205.66 103.109C1204.92 103.109 1204.32 102.518 1204.32 101.789" fill="black"/>
<path d="M1192.71 101.789C1192.71 101.06 1193.31 100.469 1194.05 100.469C1194.79 100.469 1195.39 101.06 1195.39 101.789C1195.39 102.518 1194.79 103.109 1194.05 103.109C1193.31 103.109 1192.71 102.518 1192.71 101.789" fill="black"/>
<path d="M1198.68 100.644L1197.36 100.403L1195.45 110.588H1199.85V109.268L1197.06 109.268L1198.68 100.644Z" fill="black"/>
<path d="M1203.71 110.406C1203.71 112.022 1202.04 113.517 1200.25 113.575L1200.14 113.577V114.897C1202.64 114.897 1204.97 112.888 1205.05 110.524L1205.05 110.406H1203.71Z" fill="black"/>
<path d="M1203.2 96.0695V97.3893C1204.64 97.3893 1205.96 97.7701 1207.12 98.4062C1207.47 98.597 1207.78 98.7991 1208.05 99.002L1208.19 99.1034C1208.34 99.2242 1208.45 99.3183 1208.51 99.3742L1208.53 99.3958L1209.48 98.4625C1209.16 98.147 1208.58 97.6973 1207.77 97.2524C1206.48 96.5457 1205.02 96.1086 1203.42 96.072L1203.2 96.0695Z" fill="black"/>
<path d="M1196.95 96.0695C1195.27 96.0695 1193.74 96.5136 1192.39 97.2524C1191.62 97.6695 1191.07 98.0908 1190.74 98.4018L1190.68 98.4625L1191.62 99.3958L1191.71 99.3172C1191.76 99.2733 1191.82 99.218 1191.91 99.1535L1191.97 99.1034C1192.27 98.8668 1192.63 98.6288 1193.04 98.4062C1194.14 97.8019 1195.38 97.428 1196.74 97.3922L1196.95 97.3893V96.0695Z" fill="black"/>
<path d="M1441.57 294.883C1441.57 294.883 1421.86 271.836 1421.86 271.836C1420.8 270.597 1419.1 270.306 1418 271.201C1405.21 281.4 1389.82 291.827 1374.18 295.822C1353.03 300.595 1364.34 284.429 1348.73 290.27C1345.03 292.502 1327.1 297.392 1325.85 302.192C1323.68 306.974 1328.7 311.913 1331.22 315.672C1342.74 331.311 1364.48 335.906 1382.51 331.015C1397.7 327.321 1410.83 320.255 1423.51 312.017C1429.58 308.01 1435.38 303.759 1441.03 299.169C1442.39 298.06 1442.63 296.121 1441.57 294.883" fill="#DCB284"/>
<path d="M1383.75 198.938C1386.68 199.995 1386.01 203.888 1385.66 206.525C1383.88 220.401 1376.23 234.829 1370.2 246.578C1363.44 260.529 1353.45 277.137 1364.68 290.525C1374.01 293.345 1391.35 282.729 1399.73 277.433L1426.62 318.269C1395.1 339.615 1348.08 353.86 1322.92 315.586C1316.61 305.876 1312.46 294.6 1311.51 283.047C1308.49 254.024 1326.72 229.493 1337.19 204.579C1337.58 203.52 1338.2 199.278 1338.41 198.189L1383.75 198.938Z" fill="#051026"/>
<path d="M1437.84 301.711L1415.38 273.291C1412.32 275.683 1409.16 277.998 1405.96 280.186L1426.54 309.987C1430.4 307.343 1434.16 304.589 1437.84 301.711" fill="white"/>
<path d="M1431.56 306.447C1430.08 304.429 1424.74 297.154 1419.77 290.37C1425.76 286.736 1416.2 274.372 1411.17 278.643C1410.52 277.754 1410.14 277.242 1410.14 277.242C1413.88 274.516 1417.56 271.658 1421.05 268.636L1456.3 307.666C1454.71 309.067 1452.88 310.616 1451.25 311.936C1446.61 314.712 1436.81 304.119 1431.56 306.447" fill="#0A1B45"/>
<path d="M1433.14 198.068C1433.14 223.204 1411.84 243.581 1385.57 243.581C1359.3 243.581 1338 223.204 1338 198.068" fill="#0A1B45"/>
<path d="M1492.97 302.28C1458.83 263.852 1484.01 278.047 1433.95 301.265C1424.89 304.839 1415.46 309.222 1406.71 305.225C1404.95 304.128 1403.62 301.665 1400.83 302.608C1396.62 302.589 1382.06 313.241 1378.26 315.129C1376.35 316.302 1375.1 318.148 1374.77 320.316C1374.13 328.727 1387.12 336.047 1393.93 339.236C1419.42 349.362 1446.92 336.817 1468.46 323.717C1476.87 318.496 1484.78 312.806 1492.44 306.559C1493.8 305.454 1494.03 303.517 1492.97 302.28" fill="#FFDBB4"/>
<path d="M1386.23 198.849L1428.94 198.068C1429.62 198.054 1430.25 198.77 1430.69 199.979C1432.92 220.825 1415.9 244.129 1408.25 262.428C1402.59 274.548 1398.86 289.804 1409.24 300.319C1420.42 304.424 1440.95 291.544 1450.95 285.101L1478.25 325.665C1456.98 339.527 1431.13 352.586 1404.62 349.046C1372.41 344.937 1352.95 311.11 1354.39 280.852C1354.9 267.649 1359.06 254.711 1364.35 243.034C1370.65 228.105 1380 215.751 1383.56 201.039C1383.56 201.039 1383.64 200.546 1383.64 200.546C1383.66 200.385 1383.67 200.245 1383.69 200.094C1383.97 199.045 1385.18 198.952 1386.23 198.849" fill="#0A1B45"/>
<path d="M1490.04 308.502L1467.36 280.251C1464.09 282.849 1460.69 285.375 1457.25 287.767L1478.07 317.403C1482.15 314.558 1486.13 311.599 1490.04 308.502" fill="white"/>
<path d="M1483.04 313.846C1481.55 311.837 1476.17 304.592 1471.16 297.836C1477.15 294.158 1467.53 281.829 1462.49 286.158C1461.83 285.274 1461.45 284.763 1461.45 284.763C1465.22 281.992 1468.92 279.094 1472.44 276.04L1507.69 315.07C1507.04 315.643 1505.72 316.795 1505.05 317.348L1502.69 319.305C1498.09 322.066 1488.26 311.502 1483.04 313.846" fill="#0A1B45"/>
<path d="M1407.13 198.758L1408.04 198.75C1406.44 226.82 1382.94 248.474 1379.5 275.956C1377.12 290.994 1382.13 307.648 1393.45 318.055C1414.9 335.012 1444.75 317.354 1464.38 304.984L1464.89 305.74C1444.96 318.355 1414.61 336.067 1392.85 318.744C1381.29 308.127 1376.17 291.173 1378.59 275.825C1381.99 248.335 1405.43 226.689 1407.13 198.758" fill="white"/>
<path d="M1346.1 141.737L1345.88 141.699C1339.75 140.703 1333.36 143.178 1330.15 148.593C1319.43 166.219 1304.78 186.204 1282.73 186.388C1273.44 186.269 1264.29 183.255 1255.72 179.609C1250.38 177.44 1245.2 173.934 1240.11 171.807C1230.89 166.389 1220.19 160.919 1210.63 159.207L1210.2 159.132V159.132L1209.95 159.086V159.086L1209.69 159.041C1201.26 157.613 1190.58 158.531 1195.39 164.563C1196.18 165.057 1199.2 166.096 1202.75 167.534L1202.89 167.587C1199.17 168.697 1196.64 171.088 1198.14 174.214C1201.41 179.079 1207.01 172.517 1214.53 173.976C1214.55 173.991 1214.56 174.005 1214.58 174.019C1216.59 175.851 1217.81 177.987 1217.51 180.532C1217.17 183.462 1215.78 184.844 1213.97 185.396C1210.6 186.565 1204.94 183.399 1203.45 187.97C1201.72 192.466 1207.18 193.365 1210.6 194.444C1215.94 196.016 1223.71 197.263 1228.05 199.608L1228.29 199.742V199.742C1228.36 199.755 1228.43 199.766 1228.49 199.775L1228.76 199.919C1229.74 200.447 1230.76 200.929 1231.8 201.361C1237.55 204.431 1243.72 207.319 1249.88 209.645C1255.96 211.977 1262.36 213.884 1268.88 215.075L1269.38 215.165C1279.42 216.941 1289.74 217.004 1299.59 214.295C1319.51 208.892 1335.25 194.112 1347.02 177.939C1354.77 167.203 1366.49 151.991 1350.1 142.979C1348.81 142.39 1347.46 141.978 1346.1 141.737Z" fill="#DCB284"/>
<path d="M1350.1 142.979C1342.93 139.704 1334.11 141.908 1330.15 148.593C1319.43 166.219 1304.78 186.204 1282.73 186.388C1273.44 186.269 1264.29 183.255 1255.72 179.609C1250.38 177.44 1245.2 173.934 1240.11 171.807C1230.75 166.308 1219.87 160.753 1210.2 159.132C1201.7 157.578 1190.49 158.408 1195.39 164.563C1196.19 165.064 1199.27 166.122 1202.89 167.587C1199.17 168.697 1196.64 171.088 1198.14 174.214C1201.41 179.079 1207.01 172.517 1214.53 173.976C1216.57 175.818 1217.81 177.967 1217.51 180.532C1217.17 183.462 1215.78 184.844 1213.97 185.396C1210.6 186.565 1204.94 183.399 1203.45 187.97C1201.72 192.466 1207.18 193.365 1210.6 194.444C1216.04 196.046 1224 197.31 1228.29 199.742C1228.36 199.755 1228.43 199.766 1228.49 199.775C1229.55 200.359 1230.66 200.889 1231.8 201.361C1237.55 204.431 1243.72 207.319 1249.88 209.645C1265.47 215.625 1283.17 218.81 1299.59 214.295C1319.51 208.892 1335.25 194.112 1347.02 177.939C1354.77 167.203 1366.49 151.991 1350.1 142.979Z" fill="#DCB284"/>
<path d="M1315.6 165.449C1320.86 159.279 1324.23 153.093 1329.06 146.014C1335.58 136.464 1344.83 131.883 1357.47 133.647C1386.22 142.518 1352.42 173.892 1342.08 187.903L1315.6 165.449Z" fill="#3F8FD4"/>
<path d="M1416.67 132.075H1354.47C1344.36 132.075 1336.17 140.226 1336.17 150.28V200.799V200.799H1434.97V150.28C1434.97 140.226 1426.78 132.075 1416.67 132.075Z" fill="#55B0EB"/>
<path d="M1511.77 269.664C1511.58 274.56 1508.47 279.327 1504.25 280.966C1501.13 282.31 1498.42 278.246 1500.26 275.671C1503.48 272.197 1507.21 267.303 1506.2 261.813C1505.83 252.068 1513.02 265.413 1511.77 269.664" fill="#FFDBB4"/>
<path d="M1511.77 269.664C1511.58 274.56 1508.47 279.327 1504.25 280.966C1501.13 282.31 1498.42 278.246 1500.26 275.671C1503.48 272.197 1507.21 267.303 1506.2 261.813C1505.83 252.068 1513.02 265.413 1511.77 269.664" fill="#DCB284"/>
<path d="M1504.28 256.651C1512.31 253.825 1515.79 244.046 1512.27 236.53C1500.79 211.137 1485.74 187.388 1468.21 165.994C1463.93 160.753 1459.29 155.393 1454.76 150.385C1452.06 147.758 1447.77 141.98 1444.04 140.808C1438.49 138.342 1431.8 139.525 1427.55 143.924C1423.36 148.14 1422.03 154.634 1424.12 160.117C1425.12 163.529 1430.08 167.912 1432.4 170.571C1436.57 175.185 1440.84 180.102 1444.78 184.931C1460.8 204.487 1474.36 225.92 1484.71 248.788C1487.82 256.066 1496.93 259.508 1504.28 256.651" fill="#FFDBB4"/>
<path d="M1468.64 162.938C1465.54 159.045 1460.46 153.364 1457.12 149.581C1451.43 144.144 1444.06 138.213 1436.45 135.077C1428.84 131.941 1415.04 132.075 1415.04 132.075C1410.05 137.353 1414.53 152.844 1418.36 158.771C1422.29 163.73 1427.17 167.979 1431.32 172.762C1434.38 176.174 1438.93 181.375 1441.78 184.898L1468.64 162.938Z" fill="#55B0EB"/>
<path d="M1484.15 247.609C1483.8 241.63 1507.69 236.252 1511.86 235.654C1517.49 247.824 1521.39 261.399 1519.09 274.595C1517.53 282.236 1514.56 285.678 1513.92 286.794C1512.64 289.005 1508.28 288.674 1508.01 285.974C1508.04 282.894 1508.78 276.56 1508.2 272.782C1507.72 268.019 1506.38 261.196 1500.8 260.392C1495.37 259.669 1494.06 263.959 1493.56 267.938C1493.22 271.71 1486.57 272.828 1485.84 269.009C1485.07 262.196 1486.75 254.165 1484.15 247.609" fill="#FFDBB4"/>
<path d="M1406.61 132.075C1406.61 140.37 1397.19 147.094 1385.57 147.094C1373.95 147.094 1364.53 140.37 1364.53 132.075" fill="#FFDBB4"/>
<path d="M1385.11 70.6328C1406.13 70.6328 1416.67 81.2635 1416.67 102.515C1416.67 123.767 1406.13 128.889 1385.11 128.889C1364.1 128.889 1353.55 123.767 1353.55 102.515C1353.55 81.2635 1364.1 70.6328 1385.11 70.6328Z" fill="black"/>
<path d="M1396.55 111.594H1375.97V135.094C1375.97 141.422 1380.57 146.552 1386.26 146.552C1391.94 146.552 1396.55 141.422 1396.55 135.094V111.594Z" fill="#FFDBB4"/>
<path d="M1375.03 126.158H1377.31C1387.93 126.158 1396.55 117.587 1396.55 107.013V98.0328C1396.55 89.9383 1389.95 83.3763 1381.82 83.3763H1379.26C1371.13 83.3763 1364.53 89.9383 1364.53 98.0328V115.714C1364.53 121.482 1369.23 126.158 1375.03 126.158" fill="#FFDBB4"/>
<path d="M1391.06 110.001C1391.06 113.143 1393.62 115.69 1396.78 115.69C1399.94 115.69 1402.49 113.143 1402.49 110.001C1402.49 106.859 1399.94 104.312 1396.78 104.312C1393.62 104.312 1391.06 106.859 1391.06 110.001" fill="#FFDBB4"/>
<path d="M1397.89 107.575C1397.48 107.575 1396.9 107.67 1396.32 107.962C1395.33 108.451 1394.71 109.344 1394.67 110.639L1394.67 110.78H1396.04C1396.04 109.944 1396.36 109.466 1396.93 109.183C1397.14 109.078 1397.37 109.009 1397.61 108.97C1397.72 108.951 1397.81 108.943 1397.86 108.941L1397.89 108.94V107.575Z" fill="black"/>
<path opacity="0.12" d="M1386.6 127.219C1390.85 125.723 1392.97 121.943 1393.81 116.859C1390.49 122.367 1384.46 126.073 1377.55 126.157L1377.31 126.158H1375.97C1379.6 128.083 1383.14 128.437 1386.6 127.219Z" fill="black"/>
<path d="M1403.86 91.704C1404.28 85.9531 1392.03 81.1007 1384.96 81.1007H1369.41L1362.24 93.4H1385.1C1388.2 100.138 1392.73 104.312 1396.85 104.312C1400.97 104.312 1403.55 95.9002 1403.86 91.704Z" fill="black"/>
<path d="M1381.66 103.857C1381.66 103.103 1382.27 102.492 1383.03 102.492C1383.79 102.492 1384.4 103.103 1384.4 103.857C1384.4 104.611 1383.79 105.222 1383.03 105.222C1382.27 105.222 1381.66 104.611 1381.66 103.857" fill="black"/>
<path d="M1369.76 103.857C1369.76 103.103 1370.38 102.492 1371.14 102.492C1371.89 102.492 1372.51 103.103 1372.51 103.857C1372.51 104.611 1371.89 105.222 1371.14 105.222C1370.38 105.222 1369.76 104.611 1369.76 103.857" fill="black"/>
<path d="M1375.88 102.672L1374.53 102.424L1372.57 112.959H1377.08V111.594L1374.22 111.594L1375.88 102.672Z" fill="black"/>
<path d="M1381.03 112.771C1381.03 114.443 1379.32 115.99 1377.48 116.05L1377.37 116.052V117.417C1379.93 117.417 1382.33 115.339 1382.4 112.894L1382.41 112.771H1381.03Z" fill="black"/>
<path d="M1380.51 97.9404V99.3058C1381.99 99.3058 1383.33 99.6997 1384.52 100.358C1384.88 100.555 1385.2 100.764 1385.48 100.974L1385.62 101.079C1385.78 101.204 1385.89 101.301 1385.95 101.359L1385.97 101.381L1386.94 100.416C1386.62 100.09 1386.02 99.6244 1385.19 99.1642C1383.87 98.4331 1382.37 97.981 1380.74 97.943L1380.51 97.9404Z" fill="black"/>
<path d="M1374.11 97.9404C1372.38 97.9404 1370.81 98.3999 1369.43 99.1642C1368.65 99.5957 1368.08 100.031 1367.74 100.353L1367.68 100.416L1368.65 101.381L1368.74 101.3C1368.79 101.255 1368.85 101.198 1368.94 101.131L1369 101.079C1369.31 100.834 1369.68 100.588 1370.1 100.358C1371.23 99.7326 1372.5 99.3459 1373.89 99.3087L1374.11 99.3058V97.9404Z" fill="black"/>
<path d="M251.898 362.303L245.904 336.006C245.828 335.649 245.768 335.309 245.773 334.98C245.781 334.652 245.827 334.345 245.908 334.079C245.948 333.945 245.996 333.822 246.053 333.71C246.116 333.595 246.203 333.485 246.291 333.392C246.478 333.199 246.666 333.078 246.946 332.993C248.536 332.534 250.371 331.938 252.22 331.307C254.078 330.673 255.982 329.993 257.896 329.292C261.733 327.883 265.617 326.388 269.503 324.854C277.28 321.778 285.072 318.541 292.816 315.215C303.515 310.606 314.179 305.822 324.495 300.821L328.332 298.935L330.228 297.984L330.448 297.873L330.549 297.817L330.753 297.707C330.89 297.636 331.028 297.568 331.169 297.504C332.21 296.973 333.233 296.426 334.247 295.853C335.255 295.274 336.265 294.687 337.182 293.964C337.405 293.778 337.632 293.589 337.799 293.347C337.967 293.101 337.962 292.786 337.98 292.499C337.989 291.911 337.938 291.324 337.877 290.74C337.751 289.573 337.568 288.412 337.374 287.254L337.067 285.519L336.48 282.431C335.379 276.748 334.17 270.989 332.919 265.223C330.408 253.683 327.722 242.089 324.961 230.509L355.95 222.929C358.748 234.668 361.475 246.428 364.055 258.289C365.342 264.223 366.594 270.177 367.765 276.217L368.2 278.489L368.771 281.591C369.157 283.706 369.512 285.824 369.842 287.941C370.482 292.167 371.011 296.419 370.913 300.464C370.888 302.496 370.595 304.413 370.289 306.361C370.192 306.844 370.077 307.318 369.927 307.795C369.863 308.034 369.767 308.27 369.679 308.507L369.646 308.596C369.49 308.538 369.59 308.604 369.55 308.602L369.528 308.645L369.442 308.816C369.382 308.928 369.33 309.046 369.264 309.154C368.748 310.028 368.196 310.824 367.577 311.577C365.018 314.516 361.796 317.002 358.257 319.243C354.718 321.478 350.965 323.514 347.192 325.474L345.79 326.199L344.464 326.868L342.402 327.902L338.285 329.926C327.316 335.241 316.34 340.161 305.276 344.928C297.272 348.366 289.234 351.706 281.093 354.926C277.02 356.534 272.922 358.112 268.752 359.644C266.663 360.408 264.556 361.161 262.401 361.898C260.239 362.634 258.051 363.352 255.653 364.047C255.26 364.164 254.818 364.203 254.426 364.174C254.225 364.159 254.036 364.127 253.844 364.079C253.647 364.031 253.459 363.967 253.284 363.888C252.932 363.73 252.63 363.512 252.396 363.244C252.161 362.976 251.975 362.659 251.898 362.303" fill="#D29863"/>
<path d="M264.263 364.367C266.614 363.554 268.907 362.724 271.178 361.88L258.38 326.503C255.45 327.588 252.522 328.64 249.769 329.547C248.406 329.996 247.06 330.419 245.947 330.731L245.55 330.839L245.352 330.895L245.194 330.934L244.877 331.014C244.815 331.031 244.788 331.036 244.758 331.041L244.668 331.061L244.577 331.083C244.567 331.085 244.536 331.094 244.543 331.092L244.558 331.086L244.566 331.084C244.568 331.089 244.566 331.073 244.57 331.094L244.614 331.321L244.7 331.774L245.028 333.59C245.237 334.803 245.427 336.021 245.597 337.242C245.982 339.266 246.263 341.271 246.429 343.317C246.452 343.562 246.464 343.85 246.491 344.061L246.571 344.657C246.62 345.054 246.658 345.454 246.685 345.855C246.739 346.657 246.75 347.464 246.719 348.273C246.755 347.349 246.735 346.426 246.659 345.511C246.621 345.054 246.569 344.599 246.503 344.146L246.478 343.974L246.466 343.791L246.478 343.797L246.501 343.81L246.597 343.867C246.614 343.877 246.628 343.888 246.648 343.898L246.752 343.913C246.897 343.93 247.021 343.96 247.189 343.973L247.725 343.996C247.685 344.603 247.633 345.214 247.566 345.827C247.509 346.437 247.463 347.036 247.378 347.648L247.313 348.106L247.263 348.555C247.225 348.854 247.178 349.155 247.122 349.458L246.956 350.353C246.895 350.649 246.816 350.947 246.719 351.246V368.608V383.235C247.341 383.23 247.964 383.211 248.587 383.178L249.52 383.119L249.985 383.081L250.358 383.045C251.09 382.965 251.821 382.87 252.549 382.761L252.993 382.689L253.369 382.623L254.121 382.484L254.862 382.34L255.44 382.215L256.592 381.955L257.563 381.715L258.504 381.473L259.345 381.243C259.635 381.163 259.923 381.043 260.15 380.894C260.376 380.746 260.582 380.565 260.77 380.354C261.146 379.932 261.457 379.391 261.672 378.767C261.898 378.143 262.073 377.431 262.216 376.66C262.359 375.889 262.446 375.062 262.537 374.204C262.899 370.773 263.02 366.88 264.263 364.367" fill="#0A1B45"/>
<path d="M312.6 210.468C314.095 217.127 315.573 223.87 317.018 230.581C318.463 237.299 319.881 244.017 321.256 250.721C322.631 257.425 323.966 264.118 325.224 270.76C325.853 274.081 326.461 277.388 327.036 280.662L327.872 285.543L327.971 286.146L328.019 286.441L328.016 286.473L328.011 286.599L327.995 286.844C327.971 287.163 327.939 287.457 327.89 287.726C327.865 287.86 327.838 287.989 327.795 288.111C327.77 288.17 327.753 288.237 327.688 288.281C327.626 288.324 327.553 288.356 327.482 288.385C327.192 288.497 326.905 288.566 326.642 288.621C326.511 288.648 326.384 288.67 326.263 288.689C326.198 288.699 326.158 288.703 326.051 288.714C325.998 288.726 325.986 288.728 325.911 288.768L324.832 289.276C319.066 291.991 313.026 294.662 306.943 297.27C300.851 299.879 294.686 302.43 288.498 304.918C281.835 307.611 275.137 310.234 268.472 312.738C265.14 313.99 261.816 315.211 258.531 316.376C255.25 317.542 251.993 318.657 248.914 319.638L253.966 334.67C256.356 335.425 258.812 336.128 261.291 336.807C259.786 338.839 258.265 340.862 256.72 342.863L267.074 373.67C270.927 372.255 274.584 370.822 278.194 369.364C281.803 367.908 285.352 366.43 288.877 364.932C295.925 361.937 302.878 358.867 309.802 355.722C316.217 352.789 322.602 349.793 328.984 346.701C335.369 343.603 341.736 340.431 348.194 337.015L351.39 335.335L355.391 333.158C358.048 331.671 360.698 330.174 363.221 328.56C365.741 326.951 368.203 325.279 370.369 323.417C372.547 321.562 374.476 319.571 376.083 317.399L376.667 316.571C376.863 316.296 377.003 315.985 377.174 315.693C377.502 315.099 377.828 314.502 378.149 313.876C378.229 313.721 378.31 313.567 378.387 313.405L378.504 313.165L378.562 313.045L378.59 312.985C378.572 312.951 378.861 313.067 378.75 312.989C378.884 312.663 379.023 312.337 379.135 312.014C379.258 311.69 379.367 311.366 379.467 311.043L379.621 310.558L379.731 310.059C380.014 308.726 380.324 307.42 380.55 306.067L380.703 305.047C380.757 304.709 380.768 304.352 380.803 304.005L380.891 302.958L380.927 301.889C381.084 296.167 380.102 290.086 379.05 284.125C378.78 282.63 378.503 281.137 378.209 279.648L377.771 277.414L377.445 275.847L376.286 270.548C375.502 267.036 374.698 263.564 373.879 260.108C372.241 253.198 360.02 213.666 356.326 200.099C356.326 200.099 312.5 210.066 312.6 210.468Z" fill="#CC2935"/>
<path d="M346.821 437.595L320.219 439.263C319.504 439.327 318.832 439.126 318.325 438.759C317.819 438.396 317.481 437.876 317.432 437.276L317.377 436.607C317.361 436.387 317.342 436.163 317.311 435.91L317.147 434.439L316.984 432.969C316.929 432.479 316.88 431.994 316.808 431.477L316.412 428.421L316.213 426.891L315.991 425.333C315.414 421.195 314.774 416.994 314.112 412.783C312.787 404.356 311.353 395.861 309.888 387.36C305.363 361.132 300.546 334.802 295.851 308.403C293.502 295.199 291.172 281.973 288.92 268.69C286.675 255.397 284.498 242.074 282.576 228.477L314.144 223.963C315.983 236.974 318.123 250.106 320.343 263.235C322.569 276.369 324.885 289.519 327.226 302.677C331.907 328.999 336.725 355.331 341.296 381.817C342.776 390.411 344.23 399.019 345.595 407.702C346.278 412.045 346.942 416.401 347.559 420.816L347.793 422.466L348.012 424.14L348.445 427.492C348.591 428.606 348.706 429.78 348.838 430.922L349.028 432.645C349.095 433.21 349.136 433.85 349.19 434.448C349.325 436.099 348.27 437.482 346.821 437.595" fill="#EDB98A"/>
<path d="M351.205 428.516L350.73 424.807L350.221 421.159L313.392 426.591C313.617 428.195 313.854 429.813 314.044 431.37L314.346 433.727L314.493 434.899L314.616 436.026L314.865 438.281L314.928 438.845C314.948 439.031 314.956 439.186 314.971 439.359L315.053 440.369L315.137 441.38L315.181 441.885L315.192 442.011L315.194 442.099L315.197 442.27C315.207 442.724 315.227 443.178 315.258 443.633H316.571H327.837L328.301 441.244C330.631 441.894 332.975 442.69 335.32 443.633H352.467H366.913C366.884 442.298 366.841 440.964 366.786 439.63L366.741 438.631L366.681 437.861L366.557 436.321C366.468 435.249 365.738 434.382 364.621 433.712C363.498 433.093 361.996 432.596 360.371 432.111C357.116 431.152 353.4 430.195 351.205 428.516" fill="#0A1B45"/>
<path d="M272.387 200.097C272.387 200.097 272.387 200.235 272.387 200.51L272.615 204.131C272.624 204.464 272.626 204.844 272.645 205.114L272.837 208.626C272.871 209.202 272.899 209.816 272.942 210.363L273.072 211.989L273.336 215.242C273.378 215.794 273.431 216.309 273.482 216.829L273.637 218.389L273.947 221.511L274.625 227.623C275.569 235.692 276.61 243.598 277.699 251.454C279.885 267.152 282.239 282.669 284.626 298.154L291.878 344.442C294.298 359.827 296.712 375.184 299.004 390.451C300.116 397.834 301.183 405.186 302.195 412.48L302.939 417.934L303.636 423.332C304.08 426.9 304.505 430.448 304.846 433.826L320.405 431.825C321.601 429.55 322.805 427.25 323.952 424.892C325.625 426.837 327.247 428.767 328.884 430.734L360.771 426.633C360.19 422.592 359.559 418.71 358.916 414.85L357.931 409.106L356.916 403.421C355.548 395.864 354.142 388.37 352.705 380.915C349.744 365.484 346.695 350.163 343.65 334.865L334.561 289.072C331.578 273.841 328.637 258.623 325.903 243.493C324.541 235.933 323.24 228.395 322.064 220.961L321.221 215.425C320.973 213.618 320.701 211.776 320.47 209.997L320.15 207.37L319.989 206.057C319.936 205.622 319.909 205.239 319.867 204.827L319.629 202.397L319.503 200.408C319.491 200.092 272.387 200.097 272.387 200.097Z" fill="#FA3239"/>
<path d="M272.387 200.099C272.387 222.666 291.177 240.961 314.357 240.961C337.536 240.961 356.326 222.666 356.326 200.099" fill="#FA3239"/>
<rect x="278.037" y="182.12" width="72.6395" height="19.6136" fill="#EDB98A"/>
<path d="M286.915 140.85H341.798C350.713 140.85 357.94 148.167 357.94 157.194V188.658V188.658H270.773V157.194C270.773 148.167 278 140.85 286.915 140.85Z" fill="#0A1B45"/>
<path d="M384.791 233.749C385.959 248.202 373.768 249.465 362.617 249.696C354.395 250.113 346.185 250.051 337.937 249.26C322.553 247.723 306.654 243.445 294.389 233.39C284.934 225.619 278.358 214.623 274.461 203.25C270.055 190.524 268.405 176.849 268.208 163.707C268.06 155.849 274.237 149.436 281.914 150.047C288.902 150.612 294.693 156.318 294.84 163.336C294.945 170.657 295.597 177.908 296.996 184.73C299.767 198.28 305.572 211.207 318.299 216.881C329.492 222.05 342.276 223.007 354.523 222.981C366.588 223.327 380.91 217.219 384.791 233.749" fill="#EDB98A"/>
<path d="M394.212 242.01C394.606 244.003 393.214 245.962 391.111 246.341C381.981 247.98 372.818 249.12 363.478 249.646C361.329 249.765 359.524 248.177 359.46 246.153C359.393 244.117 361.014 242.417 363.073 242.303C372.081 241.797 380.989 240.689 389.834 239.1C391.858 238.735 393.817 240.02 394.212 242.01" fill="#EDB98A"/>
<path d="M397.4 234.651C397.855 236.629 396.53 238.625 394.486 239.04C390.268 239.164 379.452 244.216 378.414 237.982C377.636 232.078 389.09 233.422 393.051 231.83C395.005 231.433 396.942 232.673 397.4 234.651" fill="#EDB98A"/>
<path d="M396.704 228.103C398.056 234.259 386.321 233.244 382.457 234.527C380.463 234.821 378.635 233.412 378.376 231.396C377.532 225.534 388.647 226.836 392.535 225.262C394.418 224.873 396.259 226.124 396.704 228.103" fill="#EDB98A"/>
<path d="M381.561 220.61C382.312 226.832 371.499 224.965 367.559 226.01C366.258 226.362 363.162 223.325 362.744 222.672C364.999 222.53 364.004 218.926 368.057 218.585C372.139 218.983 380.316 214.715 381.561 220.61" fill="#EDB98A"/>
<path d="M392.337 222.384C392.756 224.37 391.554 226.31 389.632 226.675C383.212 227.887 376.709 228.838 370.206 229.459C368.259 229.662 366.559 228.119 366.409 226.102C366.259 224.068 367.646 222.333 369.513 222.137C375.786 221.54 382.096 220.616 388.286 219.447C390.125 219.098 391.92 220.397 392.337 222.384" fill="#EDB98A"/>
<path d="M266.287 189.704C264.818 176.515 259.351 156.656 269.57 146.857C276.414 139.882 287.038 140.85 292.057 140.85C297.077 140.85 299.284 156.362 299.268 160.747C299.235 168.337 299.804 175.857 301.144 182.827L266.287 189.704Z" fill="#0A1B45"/>
<path d="M295.793 140.85C295.793 148.297 304.104 154.334 314.357 154.334C324.609 154.334 332.92 148.297 332.92 140.85" fill="#EDB98A"/>
<path d="M343.009 118.989V111.988C343.009 110.439 342.015 109.183 340.789 109.183C339.563 109.183 338.57 107.928 338.57 106.379V103.035C338.57 97.2898 331.645 92.6328 327.155 92.6328H322.428V138.398H339.406C344.293 138.398 348.255 133.152 348.255 126.68V124.301C348.255 122.834 347.357 121.645 346.249 121.645H345.015C343.907 121.645 343.009 120.456 343.009 118.989" fill="black"/>
<path d="M313.873 138.398H321.621V92.6328H313.873C302.55 92.6328 293.372 101.926 293.372 113.391V117.64C293.372 129.104 302.55 138.398 313.873 138.398" fill="black"/>
<path d="M304.671 122.462H322.831V143.56C322.831 149.242 318.766 153.848 313.751 153.848C308.737 153.848 304.671 149.242 304.671 143.56V122.462Z" fill="#EDB98A"/>
<path d="M323.659 135.538H321.647C312.272 135.538 304.672 127.842 304.672 118.349V110.286C304.672 103.019 310.49 97.1276 317.667 97.1276H319.924C327.102 97.1276 332.92 103.019 332.92 110.286V126.161C332.92 131.339 328.774 135.538 323.659 135.538" fill="#EDB98A"/>
<path d="M309.514 121.032C309.514 123.852 307.256 126.139 304.47 126.139C301.683 126.139 299.425 123.852 299.425 121.032C299.425 118.211 301.683 115.924 304.47 115.924C307.256 115.924 309.514 118.211 309.514 121.032" fill="#EDB98A"/>
<path d="M303.488 118.853C303.853 118.853 304.358 118.938 304.877 119.201C305.743 119.639 306.291 120.441 306.328 121.604L306.33 121.731H305.119C305.119 120.981 304.836 120.551 304.335 120.297C304.149 120.203 303.944 120.141 303.738 120.106C303.636 120.089 303.557 120.081 303.511 120.079L303.488 120.079V118.853Z" fill="black"/>
<path opacity="0.12" d="M313.449 136.49C309.698 135.147 307.827 131.753 307.085 127.189C310.02 132.134 315.341 135.461 321.436 135.536L321.647 135.537H322.831C319.628 137.266 316.501 137.583 313.449 136.49Z" fill="black"/>
<path d="M304.405 115.924H303.785C301.423 113.598 300.515 108.858 300.242 104.258C299.867 97.953 310.676 92.6328 316.913 92.6328H324.169L332.516 103.257H317.194C314.46 110.647 309.247 115.924 304.405 115.924" fill="black"/>
<path d="M317.811 115.515C317.811 114.838 317.269 114.29 316.601 114.29C315.932 114.29 315.39 114.838 315.39 115.515C315.39 116.192 315.932 116.741 316.601 116.741C317.269 116.741 317.811 116.192 317.811 115.515" fill="black"/>
<path d="M328.304 115.515C328.304 114.838 327.762 114.29 327.093 114.29C326.424 114.29 325.882 114.838 325.882 115.515C325.882 116.192 326.424 116.741 327.093 116.741C327.762 116.741 328.304 116.192 328.304 115.515" fill="black"/>
<path d="M322.911 114.452L324.101 114.228L325.832 123.688H321.847V122.462L324.376 122.461L322.911 114.452Z" fill="black"/>
<path d="M318.361 123.519C318.361 125.02 319.871 126.408 321.492 126.462L321.589 126.464V127.69C319.33 127.69 317.22 125.824 317.152 123.629L317.15 123.519H318.361Z" fill="black"/>
<path d="M318.82 110.203V111.429C317.518 111.429 316.331 111.783 315.28 112.374C314.965 112.551 314.683 112.739 314.436 112.927L314.315 113.021C314.174 113.133 314.076 113.221 314.022 113.273L314.002 113.293L313.146 112.426C313.435 112.133 313.958 111.715 314.692 111.302C315.859 110.646 317.177 110.24 318.622 110.206L318.82 110.203Z" fill="black"/>
<path d="M324.47 110.203C325.993 110.203 327.378 110.616 328.598 111.302C329.286 111.689 329.789 112.081 330.087 112.37L330.144 112.426L329.288 113.293L329.211 113.22C329.166 113.179 329.106 113.128 329.033 113.068L328.975 113.021C328.7 112.801 328.377 112.58 328.01 112.374C327.012 111.812 325.89 111.465 324.664 111.432L324.47 111.429V110.203Z" fill="black"/>
<path fill-rule="evenodd" clip-rule="evenodd" d="M318.612 111.021C320.93 111.031 323.243 111.573 324.076 112.644C324.483 113.168 324.719 113.887 324.811 114.698H326.106C326.198 113.887 326.434 113.168 326.841 112.644C327.655 111.597 329.883 111.056 332.147 111.022L332.305 111.021H332.475L333.652 111.036C337.796 111.105 339.369 111.319 339.738 112.121C340.145 113.008 340.375 114.228 340.01 114.861L339.956 114.946C339.886 115.058 339.707 115.394 339.511 115.792L339.468 115.878L339.295 116.24C339.045 116.772 338.821 117.292 338.655 117.735L338.628 117.839C338.268 119.178 337.555 120.499 336.834 121.374C335.482 123.012 329.737 123.119 328.091 121.423C327.03 120.33 326.265 118.27 326.095 116.333H324.822C324.653 118.27 323.887 120.33 322.826 121.423C321.18 123.119 315.435 123.012 314.083 121.374C313.362 120.499 312.649 119.178 312.289 117.839L312.262 117.735C312.106 117.318 311.898 116.832 311.666 116.333L301.039 116.333V114.698L310.831 114.698C310.58 114.035 310.804 112.937 311.18 112.121C311.571 111.271 313.316 111.081 318.047 111.025L318.442 111.021H318.612ZM314.298 113.709C313.603 114.673 313.468 115.885 313.713 117.09L313.805 117.34L313.773 117.353C314.032 118.39 314.564 119.409 315.255 120.247C316.005 121.156 320.727 121.244 321.743 120.197C323.035 118.866 323.792 115.09 322.924 113.802L322.874 113.733L322.823 113.674C321.627 112.379 315.241 112.399 314.298 113.709ZM328.152 113.616C329.483 112.38 335.691 112.419 336.619 113.709C337.314 114.673 337.449 115.885 337.204 117.09L337.112 117.34L337.144 117.353L337.096 117.536C336.822 118.51 336.313 119.458 335.662 120.247C334.912 121.156 330.19 121.244 329.174 120.197C327.882 118.866 327.125 115.09 327.993 113.802L328.043 113.733L328.094 113.674L328.152 113.616Z" fill="black"/>
</svg>
