<svg width="79" height="72" viewBox="0 0 79 72" fill="none" xmlns="http://www.w3.org/2000/svg">
<g id="Group 13">
<g id="Group 8">
<g id="Group 12">
<path id="BG" d="M0 0H75C77.2091 0 79 1.79086 79 4V68C79 70.2091 77.2091 72 75 72H0V0Z" fill="#39DA8A"/>
</g>
</g>
<g id="chevron-down">
<path id="Shape" d="M25.5857 33.6096C25.5857 33.3654 25.6799 33.1491 25.8683 32.9607L27.2783 31.5507C27.4667 31.3623 27.6831 31.2681 27.9273 31.2681C28.1715 31.2681 28.3878 31.3623 28.5762 31.5507L39.6573 42.6318L50.7383 31.5507C50.9267 31.3623 51.1431 31.2681 51.3873 31.2681C51.6315 31.2681 51.8478 31.3623 52.0362 31.5507L53.4462 32.9607C53.6346 33.1491 53.7289 33.3654 53.7289 33.6096C53.7289 33.8539 53.6346 34.0702 53.4462 34.2586L40.3078 47.397C40.1194 47.5854 39.9031 47.6796 39.6589 47.6796C39.4146 47.6796 39.1983 47.5854 39.0099 47.397L25.8715 34.2586C25.6831 34.0702 25.5889 33.8539 25.5889 33.6096H25.5857Z" fill="#1B2B67"/>
</g>
</g>
</svg>
