<?xml version="1.0" encoding="UTF-8"?>
<svg height="30px" version="1.1" viewBox="0 0 30 30" width="30px" xmlns="http://www.w3.org/2000/svg">
    <title>bx_bxl-facebook-circle</title>
    <g fill="none" fill-rule="evenodd" id="Prototype-DE" stroke="none" stroke-width="1">
        <g fill="#1B2B67" fill-rule="nonzero" id="Confirmation_sur_place"
           transform="translate(-850.000000, -702.000000)">
            <g id="Group-6" transform="translate(561.000000, 701.000000)">
                <g id="bx_bxl-facebook-circle" transform="translate(289.000000, 1.000000)">
                    <path d="M14.99851,4.4408921e-16 C6.7155,4.4408921e-16 3.10862447e-15,6.7155 3.10862447e-15,14.99849 C3.10862447e-15,22.48349 5.484,28.68749 12.65551,29.81699 L12.65551,19.33499 L8.84551,19.33499 L8.84551,14.99849 L12.65551,14.99849 L12.65551,11.69399 C12.65551,7.93199 14.89501,5.8575 18.31951,5.8575 C19.96051,5.8575 21.67951,6.15 21.67951,6.15 L21.67951,9.83849 L19.78351,9.83849 C17.92351,9.83849 17.34151,10.99649 17.34151,12.18299 L17.34151,14.99549 L21.49801,14.99549 L20.83351,19.33199 L17.34151,19.33199 L17.34151,29.81399 C24.51301,28.69049 29.99701,22.48499 29.99701,14.99849 C29.99701,6.7155 23.28151,4.4408921e-16 14.99851,4.4408921e-16 Z"
                          id="Path"></path>
                </g>
            </g>
        </g>
    </g>
</svg>