<?xml version="1.0" encoding="UTF-8"?>
<svg height="20px" version="1.1" viewBox="0 0 20 20" width="20px" xmlns="http://www.w3.org/2000/svg">
    <title>calendar</title>
    <g fill="none" fill-rule="evenodd" id="Prototype-DE" stroke="none" stroke-width="1">
        <g fill="#4833E3" fill-rule="nonzero" id="Confirmation_sur_place"
           transform="translate(-478.000000, -580.000000)">
            <g id="Group-7" transform="translate(477.000000, 498.000000)">
                <g id="calendar" transform="translate(1.000000, 82.000000)">
                    <path d="M1.44125,19.06 C0.646875,19.06 0,18.414375 0,17.61875 L0,3.06 C0,2.265625 0.646875,1.61875 1.44125,1.61875 L17.6175,1.61875 C18.4125,1.61875 19.05875,2.265625 19.05875,3.06 L19.05875,17.61875 C19.05875,18.41375 18.413125,19.06 17.6175,19.06 L1.44125,19.06 Z M1.264375,17.795 L17.79,17.795 L17.79375,2.883125 L1.264375,2.883125 L1.264375,17.795 Z"
                          id="Shape"></path>
                    <path d="M6.294375,4.50125 C5.945,4.50125 5.66125,4.2175 5.66125,3.868125 L5.66125,0.633125 C5.66125,0.28375 5.945,0 6.294375,0 C6.64375,0 6.9275,0.28375 6.9275,0.633125 L6.9275,3.868125 C6.9275,4.2175 6.64375,4.50125 6.294375,4.50125 Z"
                          id="Shape"></path>
                    <path d="M12.765,4.50125 C12.416875,4.50125 12.133125,4.2175 12.133125,3.868125 L12.133125,0.633125 C12.133125,0.28375 12.416875,0 12.765,0 C13.113125,0 13.396875,0.28375 13.396875,0.633125 L13.396875,3.868125 C13.396875,4.2175 13.113125,4.50125 12.765,4.50125 Z"
                          id="Shape"></path>
                    <path d="M13.574375,9.354375 C13.225,9.354375 12.94125,9.070625 12.94125,8.72125 L12.94125,7.105 C12.94125,6.755625 13.225,6.471875 13.574375,6.471875 L15.191875,6.471875 C15.54,6.471875 15.82375,6.755625 15.82375,7.105 L15.82375,8.7225 C15.82375,9.070625 15.54,9.354375 15.191875,9.354375 L13.574375,9.354375 L13.574375,9.354375 Z"
                          id="Shape"></path>
                    <path d="M13.574375,14.206875 C13.225,14.206875 12.94125,13.923125 12.94125,13.575 L12.94125,11.9575 C12.94125,11.608125 13.225,11.324375 13.574375,11.324375 L15.191875,11.324375 C15.54,11.324375 15.82375,11.608125 15.82375,11.9575 L15.82375,13.575 C15.82375,13.923125 15.54,14.206875 15.191875,14.206875 L13.574375,14.206875 Z"
                          id="Shape"></path>
                    <path d="M3.868125,9.354375 C3.51875,9.354375 3.235,9.070625 3.235,8.72125 L3.235,7.105 C3.235,6.755625 3.51875,6.471875 3.868125,6.471875 L5.485625,6.471875 C5.835,6.471875 6.11875,6.755625 6.11875,7.105 L6.11875,8.7225 C6.1175,9.070625 5.833125,9.354375 5.484375,9.354375 L3.868125,9.354375 L3.868125,9.354375 Z"
                          id="Shape"></path>
                    <path d="M3.868125,14.206875 C3.51875,14.206875 3.235,13.923125 3.235,13.575 L3.235,11.9575 C3.235,11.609375 3.51875,11.325625 3.868125,11.325625 L5.485625,11.325625 C5.835,11.325625 6.11875,11.609375 6.11875,11.9575 L6.11875,13.575 C6.1175,13.923125 5.833125,14.206875 5.484375,14.206875 L3.868125,14.206875 Z"
                          id="Shape"></path>
                    <path d="M8.72,9.354375 C8.370625,9.354375 8.086875,9.070625 8.086875,8.72125 L8.086875,7.105 C8.086875,6.755625 8.370625,6.471875 8.72,6.471875 L10.3375,6.471875 C10.685625,6.471875 10.969375,6.755625 10.969375,7.105 L10.969375,8.7225 C10.969375,9.070625 10.685625,9.354375 10.3375,9.354375 L8.72,9.354375 L8.72,9.354375 Z"
                          id="Shape"></path>
                    <path d="M8.72,14.206875 C8.370625,14.206875 8.086875,13.923125 8.086875,13.575 L8.086875,11.9575 C8.086875,11.608125 8.370625,11.324375 8.72,11.324375 L10.3375,11.324375 C10.685625,11.324375 10.969375,11.608125 10.969375,11.9575 L10.969375,13.575 C10.969375,13.923125 10.685625,14.206875 10.3375,14.206875 L8.72,14.206875 L8.72,14.206875 Z"
                          id="Shape"></path>
                </g>
            </g>
        </g>
    </g>
</svg>