<svg width="29" height="17" viewBox="0 0 29 17" fill="none" xmlns="http://www.w3.org/2000/svg">
<path d="M0.585815 2.60965C0.585815 2.36543 0.680026 2.14912 0.868447 1.9607L2.27845 0.550698C2.46687 0.362277 2.68318 0.268066 2.92739 0.268066C3.1716 0.268066 3.38792 0.362277 3.57634 0.550698L14.6574 11.6318L25.7384 0.550698C25.9269 0.362277 26.1432 0.268066 26.3874 0.268066C26.6316 0.268066 26.8479 0.362277 27.0363 0.550698L28.4463 1.9607C28.6348 2.14912 28.729 2.36543 28.729 2.60965C28.729 2.85386 28.6348 3.07017 28.4463 3.25859L15.3079 16.397C15.1195 16.5854 14.9032 16.6796 14.659 16.6796C14.4148 16.6796 14.1984 16.5854 14.01 16.397L0.871605 3.25859C0.683184 3.07017 0.588973 2.85386 0.588973 2.60965H0.585815Z" fill="#1B2B67"/>
</svg>
