<?xml version="1.0" encoding="UTF-8"?>
<svg height="20px" version="1.1" viewBox="0 0 20 20" width="20px" xmlns="http://www.w3.org/2000/svg">
    <title>circle-arrow-right</title>
    <g fill="none" fill-rule="evenodd" id="Prototype-DE" stroke="none" stroke-width="1">
        <g fill="#4833E3" fill-rule="nonzero" id="Fiche_evenement" transform="translate(-256.000000, -1258.000000)">
            <g id="circle-arrow-right" transform="translate(256.000000, 1258.000000)">
                <path d="M9.59375,19.1875 C4.30375,19.1875 0,14.88375 0,9.59375 C0,4.30375 4.30375,0 9.59375,0 C14.88375,0 19.1875,4.30375 19.1875,9.59375 C19.1875,14.88375 14.88375,19.1875 9.59375,19.1875 Z M9.59375,1.140625 C4.9325,1.140625 1.140625,4.9325 1.140625,9.59375 C1.140625,14.255 4.9325,18.046875 9.59375,18.046875 C14.255,18.046875 18.046875,14.255 18.046875,9.59375 C18.046875,4.9325 14.255,1.140625 9.59375,1.140625 Z"
                      id="Shape"></path>
                <path d="M11.234375,12.625625 C11.0825,12.625625 10.93875,12.56625 10.83125,12.458125 C10.723125,12.350625 10.663125,12.2075 10.663125,12.055 C10.663125,11.9025 10.723125,11.759375 10.83125,11.65125 L12.7125,9.770625 C12.81,9.673125 12.81,9.515 12.7125,9.4175 L10.831875,7.53625 C10.61,7.31375 10.61,6.951875 10.831875,6.729375 C10.939375,6.621875 11.081875,6.5625 11.235,6.5625 C11.235625,6.5625 11.23625,6.5625 11.236875,6.5625 C11.388125,6.5625 11.530625,6.621875 11.6375,6.72875 L14.09875,9.190625 C14.320625,9.4125 14.320625,9.775 14.09875,9.998125 L11.6375,12.458125 C11.53,12.56625 11.38625,12.625625 11.234375,12.625625 L11.234375,12.625625 Z"
                      id="Shape"></path>
                <path d="M5.4925,10.165 C5.178125,10.165 4.9225,9.909375 4.9225,9.594375 C4.9225,9.28 5.178125,9.02375 5.4925,9.02375 L13.695625,9.02375 C14.010625,9.02375 14.26625,9.28 14.26625,9.594375 C14.26625,9.909375 14.010625,10.165 13.695625,10.165 L5.4925,10.165 Z"
                      id="Shape"></path>
            </g>
        </g>
    </g>
</svg>