<?xml version="1.0" encoding="UTF-8"?>
<svg height="20px" version="1.1" viewBox="0 0 20 20" width="20px" xmlns="http://www.w3.org/2000/svg">
    <title>clock</title>
    <g fill="none" fill-rule="evenodd" id="Prototype-DE" stroke="none" stroke-width="1">
        <g fill="#4833E3" fill-rule="nonzero" id="Confirmation_sur_place"
           transform="translate(-477.000000, -629.000000)">
            <g id="Group-7" transform="translate(477.000000, 498.000000)">
                <g id="clock" transform="translate(0.000000, 131.000000)">
                    <path d="M10,20 C4.4858168,20 0,15.5141832 0,10 C0,4.4858168 4.48717081,0 10,0 C15.5141832,0 20,4.48717081 20,10 C20,15.5141832 15.5141832,20 10,20 Z M10,1.31676935 C5.2122402,1.31676935 1.31676935,5.2122402 1.31676935,10 C1.31676935,14.7904678 5.2122402,18.6859387 10,18.6859387 C14.7904678,18.6859387 18.6859387,14.7891138 18.6859387,10 C18.6859387,5.2122402 14.7904678,1.31676935 10,1.31676935 Z"
                          id="Shape"></path>
                    <path d="M10.0007349,10.7142857 C9.60684891,10.7142857 9.28571429,10.4245754 9.28571429,10.0675991 L9.28571429,4.21811522 C9.28571429,3.86113886 9.60684891,3.57142857 10.0007349,3.57142857 C10.3946208,3.57142857 10.7142857,3.86113886 10.7142857,4.21811522 L10.7142857,10.0675991 C10.7142857,10.4245754 10.3946208,10.7142857 10.0007349,10.7142857 Z"
                          id="Shape"></path>
                    <path d="M13.5861022,14.2857143 C13.3993474,14.2857143 13.2240852,14.2124174 13.0926386,14.0816327 L9.48827139,10.4771486 C9.21819525,10.2040816 9.21819525,9.7599885 9.48827139,9.48835872 C9.61971802,9.35685542 9.79641677,9.28571429 9.98317155,9.28571429 C10.1699263,9.28571429 10.3451885,9.35757402 10.4766351,9.48835872 L14.0788475,13.0971544 C14.2138855,13.2286577 14.2857143,13.4025582 14.2857143,13.5865191 C14.2857143,13.7733544 14.212449,13.9479736 14.080284,14.0787583 C13.9466825,14.2152918 13.7757301,14.2857143 13.5868204,14.2857143 L13.5861022,14.2857143 Z"
                          id="Shape"></path>
                </g>
            </g>
        </g>
    </g>
</svg>