<?xml version="1.0" encoding="UTF-8"?>
<svg height="186px" version="1.1" viewBox="0 0 228 186" width="228px" xmlns="http://www.w3.org/2000/svg">
    <title>Group 9</title>
    <g fill="none" fill-rule="evenodd" id="Prototype-DE" stroke="none" stroke-width="1">
        <g fill-rule="nonzero" id="Confirmation_enligne" transform="translate(-599.000000, -79.000000)">
            <g id="Group-9" transform="translate(599.000000, 79.000000)">
                <g id="undraw_Celebrating_rtuv">
                    <circle cx="194" cy="132" fill="#6C63FF" id="Oval" r="5"></circle>
                    <circle cx="67" cy="40" fill="#39DA8A" id="Oval" r="4"></circle>
                    <circle cx="41" cy="114" fill="#39DA8A" id="Oval" r="4"></circle>
                    <circle cx="175" cy="101" fill="#39DA8A" id="Oval" r="4"></circle>
                    <circle cx="59" cy="153" fill="#4833E3" id="Oval" r="4"></circle>
                    <circle cx="180" cy="163" fill="#9C91F0" id="Oval" r="4"></circle>
                    <circle cx="146" cy="27" fill="#39DA8A" id="Oval" r="4"></circle>
                    <path d="M0.785812973,72.6461725 C8.99392807,73.1677535 16.4566888,77.626661 20.8543765,84.6368917 C21.4619441,85.6165941 22.255072,86.6932073 21.834487,87.8991077 C21.5327397,88.8512958 20.6188621,89.4669545 19.6312885,89.3833527 C18.4021538,89.1164536 17.5024621,88.0523594 17.4351971,86.7859652 C17.3679321,85.5195709 18.1497576,84.3646046 19.3435845,83.9667643 C22.1500301,82.759258 24.9814782,84.625385 27.267506,86.1147129 C32.4763826,89.5082663 38.2056692,92.5773078 44.5173816,92.9640466 C50.3571667,93.3218315 56.6194458,91.0122116 59.8676378,85.9040132 C60.4359122,85.0103229 59.0249529,84.1845037 58.4594531,85.0737503 C55.2380414,90.1398119 48.7257438,91.9593194 43.0633807,91.1763074 C39.68903,90.6391944 36.4307395,89.5233685 33.4296896,87.8771778 C31.8733364,87.0624677 30.3638892,86.1593366 28.8849398,85.2099602 C27.4776251,84.2194468 25.9859259,83.356887 24.4274016,82.6324344 C21.8282112,81.5554469 18.3873019,81.6395802 16.5717253,84.1191818 C14.8779156,86.4324892 16.18694,90.2837553 19.0199339,90.9341045 C20.2823119,91.1851319 21.585272,90.7796749 22.4880334,89.8548964 C23.3907948,88.9301179 23.7725839,87.6097368 23.5042446,86.3404275 C23.2215798,84.9781726 22.2046262,83.6450666 21.4174726,82.5316022 C16.6269719,75.7340331 9.03953769,71.4936746 0.785727956,71.0012229 C-0.263276867,70.9488812 -0.260540877,72.5939244 0.785727956,72.6461569 L0.785812973,72.6461725 Z"
                          fill="#EBEDF8" id="Path"></path>
                    <path d="M227.695564,121.787298 C222.281037,118.30571 218.865647,112.442623 218.511034,106.020518 C218.46628,105.125686 218.331319,104.094511 219.075074,103.438419 C219.641602,102.908793 220.499329,102.84031 221.142899,103.273319 C221.882273,103.922492 222.094822,104.985795 221.661719,105.868783 C221.228616,106.75177 220.257154,107.2357 219.290435,107.050028 C216.914865,106.797852 215.684997,104.455284 214.685486,102.575704 C212.408037,98.2929029 209.651999,94.0314796 205.483,91.3639702 C201.625724,88.8959412 196.470469,88.0727279 192.317204,90.2929736 C191.590584,90.6814016 192.24283,91.7782671 192.965852,91.3917465 C197.084878,89.1898309 202.225647,90.4401464 205.80075,93.1284254 C207.90458,94.7781704 209.710125,96.7754702 211.139152,99.0337827 C211.895004,100.178533 212.58534,101.365278 213.237328,102.571699 C213.824778,103.77867 214.518327,104.93118 215.309809,106.015662 C216.679455,107.735439 219.06379,108.98998 221.243158,108.003277 C222.227818,107.494275 222.91329,106.549943 223.091491,105.45694 C223.269693,104.363937 222.919608,103.25117 222.147508,102.456429 C221.379391,101.805337 220.335175,101.583219 219.368107,101.865214 C218.401038,102.147209 217.640492,102.895592 217.343754,103.857193 C217.119489,104.970233 217.114664,106.116271 217.329549,107.231156 C218.03318,113.659026 221.616502,119.421688 227.073311,122.900974 C227.770707,123.33623 228.391195,122.22146 227.695618,121.787336 L227.695564,121.787298 Z"
                          fill="#DDDDFF" id="Path"></path>
                    <path d="M94.3844471,15.7279778 C87.9547576,15.3249384 82.1089294,11.87941 78.6640784,6.46239977 C78.1881513,5.70535983 77.5668649,4.87342634 77.8963288,3.9415969 C78.1326934,3.20581141 78.8485674,2.73007402 79.6221668,2.79468329 C80.5849875,3.00092352 81.289745,3.82317834 81.3424362,4.80175625 C81.3951274,5.78033416 80.7826989,6.67280892 79.8475363,6.98023175 C77.6491814,7.91331093 75.4311875,6.47129944 73.6404645,5.32045482 C69.5601794,2.69814271 65.0722394,0.326627053 60.1280419,0.0277799513 C55.5535456,-0.248677855 50.6480933,1.53602013 48.1036878,5.48326953 C47.6585286,6.17385356 48.763788,6.81198634 49.2067322,6.12480313 C51.7301665,2.21011515 56.8314611,0.80412649 61.266977,1.40919038 C63.9102166,1.82423029 66.4625425,2.68645945 68.8133629,3.95851763 C70.032506,4.58806886 71.2149057,5.28593925 72.3734114,6.01955223 C73.4758099,6.7849479 74.6443073,7.4514733 75.8651494,8.01128303 C77.9012158,8.84349677 80.5965602,8.77848752 82.0187542,6.86242285 C82.6304687,5.94172784 82.7683,4.78732639 82.390408,3.74964802 C82.0125159,2.71196965 81.1634684,1.91339573 80.1010017,1.59634095 C79.1121404,1.40236987 78.0914919,1.71567959 77.3843304,2.43028095 C76.6771688,3.14488231 76.3780989,4.16517528 76.5882925,5.14600616 C76.9357218,6.22347184 77.4909643,7.22319023 78.2229383,8.08919868 C81.9755051,13.3418903 87.9190151,16.6185396 94.3845156,16.9990551 C95.2062344,17.0395012 95.2040878,15.7683028 94.3845156,15.7279627 L94.3844471,15.7279778 Z"
                          fill="#DDDDFF" id="Path"></path>
                    <rect fill="#7540EE" height="12" id="Rectangle" width="4" x="95" y="57"></rect>
                    <polygon fill="#DDDDFF" id="Rectangle"
                             points="31.2548033 35.9594126 35.0259409 35.9594126 35.0259409 48.3503011 31.2548033 48.3503011"
                             transform="translate(33.140372, 42.154857) rotate(135.000000) translate(-33.140372, -42.154857) "></polygon>
                    <polygon fill="#7540EE" id="Rectangle"
                             points="147.898766 65.1204007 151.669904 65.1204007 151.669904 77.5112891 147.898766 77.5112891"
                             transform="translate(149.784335, 71.315845) rotate(-135.000000) translate(-149.784335, -71.315845) "></polygon>
                    <polygon fill="#39DA8A" id="Rectangle"
                             points="38.928747 174.090417 42.6998846 174.090417 42.6998846 186.481305 38.928747 186.481305"
                             transform="translate(40.814316, 180.285861) rotate(-135.000000) translate(-40.814316, -180.285861) "></polygon>
                </g>
                <g id="Hands---Checkmark" transform="translate(78.000000, 88.000000)">
                    <path d="M71.689581,30.1117092 C69.7436765,14.6022702 59.894865,3.13778921 46.4748342,0.900633603 C39.9959415,-0.184047906 30.3857083,-0.831843807 21.3942877,2.23388796 C12.5519785,5.24689215 6.37876432,11.1071853 3.04612334,19.6490522 C-2.21751097,33.1322459 -0.56237384,48.7998677 7.2585219,59.5713577 C12.2612112,66.4485398 24.1603052,72 35.9326544,72 C42.0760463,72 48.1896159,70.4934979 53.2668609,66.8552953 C68.3345733,60.0383734 73.3745404,43.5271104 71.689581,30.1117092 Z"
                          fill="#36D1A1" id="Path"></path>
                    <path d="M33.766752,52 C33.5051926,51.9987862 33.2479764,51.9377958 33.0178045,51.8224116 C29.5280279,50.0983246 26.5322379,47.3827026 23.6320582,44.7558748 C22.0355506,43.2518353 20.3575374,41.8243437 18.604549,40.4789551 C18.1576448,40.1498278 17.9337544,39.6242784 18.0172149,39.1002762 C18.1006754,38.576274 18.4788073,38.1334273 19.0091719,37.9385524 C19.5395365,37.7436773 20.1415589,37.8263801 20.5884631,38.1555073 C22.3970916,39.4948195 24.157915,41.1153133 25.8629657,42.6396134 C28.1477324,44.8653708 30.6735137,46.8664205 33.4002458,48.6110221 C37.8301906,43.5127562 41.2163893,37.3489602 44.4990103,31.3775515 C46.8892683,27.1080313 49.2795262,22.6979204 52.076128,18.6651847 C52.557409,17.9875892 53.5365832,17.796504 54.270819,18.2368922 C55.0050548,18.6772805 55.2202794,19.5847558 54.753217,20.2708794 C52.0478668,24.3026673 49.5641287,28.4591194 47.3115472,32.7242633 C43.7341277,39.2210375 40.0371954,45.9471967 34.9459459,51.4820339 C34.6504637,51.8030359 34.2213896,51.9915085 33.766752,52 Z"
                          fill="#FFFFFF" id="Path"></path>
                </g>
            </g>
        </g>
    </g>
</svg>
