<?xml version="1.0" encoding="UTF-8"?>
<svg height="80px" version="1.1" viewBox="0 0 69 80" width="69px" xmlns="http://www.w3.org/2000/svg">
    <title>Group 11</title>
    <g fill="none" fill-rule="evenodd" id="Prototype-DE" stroke="none" stroke-width="1">
        <g fill-rule="nonzero" id="HP_departement" transform="translate(-280.000000, -52.000000)">
            <g id="Group-11" transform="translate(280.000000, 52.000000)">
                <path d="M67.5846318,46.2076841 C67.5846318,64.8705198 52.4551516,80 33.7923159,80 C15.1294802,80 0,64.8705198 0,46.2076841 C0,27.5448484 15.1294802,12.4153682 33.7923159,12.4153682 C52.4551516,12.4153682 67.5846318,27.5448484 67.5846318,46.2076841"
                      fill="#23333B" id="Path"></path>
                <g fill="#8F1EE0" id="Group" transform="translate(5.593252, 0.000000)">
                    <path d="M62.362692,15.8868383 C61.384315,13.6353925 58.7674513,12.6010241 56.5130585,13.579401 C54.2616127,14.557778 53.2272443,17.1746418 54.2056212,19.4290345 C54.2645596,19.5616459 54.3264449,19.6913103 54.397171,19.8150809 L40.635061,32.9259218 L42.2146093,34.5820901 L55.988507,21.4594615 C57.1790621,22.1785096 58.6849376,22.3317494 60.0552547,21.7364718 C62.3067006,20.7580948 63.341069,18.1382842 62.362692,15.8868383 Z"
                          id="Path"></path>
                    <path d="M36.7922791,8.52838251 L40.6586363,28.0517184 L42.9041883,27.6067337 L39.0466718,8.1305485 C40.6910524,7.3407743 41.6988986,5.54315394 41.4042067,3.64533834 C41.0446827,1.32611338 38.8698567,-0.265222677 36.5506317,0.0972483147 C34.2314068,0.456772387 32.6400707,2.63159833 33.0025417,4.9508233 C33.3060743,6.9134711 34.9062512,8.34862047 36.7922791,8.52838251 Z"
                          id="Path"></path>
                    <path d="M49.2459572,49.1929127 C49.1162928,49.2105942 48.9866284,49.2371164 48.8628578,49.2695325 L40.885549,36.865952 L41.3806314,37.2019008 L42.5800273,35.4366965 L37.9327366,32.2775997 L37.4582827,31.5408701 L37.1459093,31.7412605 L25.3729694,23.7374296 C26.1155929,21.3003278 24.8307364,18.6805172 22.4054223,17.8052824 C19.9034884,16.9005783 17.1422257,18.1972225 16.2375216,20.6991564 C15.3328176,23.2010904 16.6294618,25.9623531 19.1313957,26.8670571 C21.0115298,27.5448484 23.0390098,26.981987 24.3150256,25.5998821 L36.3561351,33.7864221 L37.6557262,35.8050613 L25.9977161,55.9973478 C25.1607912,55.7262313 24.2442996,55.664346 23.3248609,55.8765241 C20.6195896,56.4983239 18.9310053,59.1947545 19.5528051,61.9000258 C20.1746049,64.6052971 22.8710355,66.2938815 25.5763068,65.6720816 C28.2815781,65.0502818 29.9701624,62.3538513 29.3483626,59.64858 C29.1126091,58.6201054 28.573323,57.7389767 27.851328,57.07592 L38.9582643,37.8354883 L47.0239806,50.3775739 C46.3314547,51.1526135 45.9689837,52.2164512 46.1251704,53.3274395 C46.4051276,55.3313442 48.2587395,56.7281836 50.2626441,56.4452794 C52.2665488,56.1653221 53.6633882,54.3117103 53.380484,52.3078057 C53.0975798,50.303901 51.2498619,48.9100085 49.2459572,49.1929127 Z"
                          id="Path"></path>
                    <path d="M35.0182341,37.9504181 L34.1724684,35.9789295 L9.44192728,46.5996243 C8.92621652,45.739124 8.15117693,45.0230228 7.16395919,44.5868788 C4.62371533,43.4670498 1.65911519,44.616348 0.539286109,47.1565919 C-0.58054297,49.6968357 0.568755295,52.6614359 3.10899915,53.781265 C5.64924301,54.901094 8.61384315,53.7517958 9.73367223,51.2115519 C10.104984,50.3716801 10.2199138,49.4876045 10.1285593,48.638892 L35.0182341,37.9504181 Z"
                          id="Path"></path>
                </g>
                <g fill="#8F1EE0" id="g4588_1_" transform="translate(34.178362, 22.691273)">
                    <g id="g110_1_" transform="translate(9.424380, 3.747986)">
                        <path d="M5.16917946,9.19387734 L12.2652215,9.19387734 C13.2286528,9.19387734 13.9512263,9.045589 14.4329419,8.80462044 C14.8776025,8.58218792 15.1184604,8.08171476 15.1184604,7.17344865 C15.1184604,6.19103837 14.8776025,5.24570018 14.3588318,4.28182594 C13.8585887,3.33648774 13.0989601,2.57650998 12.0984738,1.9833566 C11.0979874,1.39020323 9.8751708,1.09362654 8.44855138,1.09362654 C7.35542741,1.09362654 6.35494106,1.27898697 5.46561986,1.61263574 L5.46561986,1.61263574 C4.57629866,1.96482056 3.81667014,2.46529372 3.22378934,3.11405523 C2.61238102,3.76281673 2.14919289,4.54133054 1.83422497,5.46813269 C1.51925705,6.39493484 1.35250932,7.39588117 1.35250932,8.47097166 C1.35250932,10.769441 2.0009727,12.5674372 3.29789944,13.9020323 C4.57629866,15.2180913 6.37346859,15.8853889 8.74499178,15.8853889 C9.74547813,15.8853889 10.6347993,15.7556366 11.4129554,15.496132 C12.8210473,14.9956588 14.3958869,13.6054556 14.6737998,12.2708605 C14.8405475,11.3996665 14.3217768,11.214306 14.0438639,11.1772339 C13.9882813,11.1772339 13.9326988,11.1586979 13.8771162,11.1586979 C13.5436207,11.1586979 13.3027629,11.2699142 13.1360152,11.4182025 C12.9322124,11.6035629 12.3578591,12.1411082 12.0614187,12.4006128 C11.7649783,12.6601174 11.4314829,12.9010859 11.0794599,13.1420545 C10.7089094,13.3830231 10.3383589,13.5498475 9.9492809,13.6610637 C9.56020288,13.77228 9.1340698,13.8278881 8.67088168,13.8278881 C7.96683573,13.8278881 7.31837236,13.6610637 6.72549156,13.3088789 C6.13261076,12.9566941 5.66942264,12.4376849 5.31739966,11.7518513 C4.98390421,11.1216258 4.81715649,10.3987201 4.78010144,9.62020633 C4.74304639,9.36070173 4.94684916,9.19387734 5.16917946,9.19387734 Z M4.76157391,7.09930448 C4.90979411,5.89446168 5.28034461,4.94912349 5.89175294,4.28182594 C6.52168878,3.59599235 7.37395493,3.24380753 8.33738623,3.24380753 C9.3564001,3.24380753 10.2271938,3.5774563 10.8571296,4.2632899 C11.4685379,4.93058744 11.8205609,5.87592564 11.9317261,7.11784052 C11.9502536,7.32173699 11.7279233,7.50709743 11.505593,7.50709743 L5.18770699,7.50709743 C4.96537669,7.50709743 4.72451886,7.32173699 4.76157391,7.09930448 Z"
                              id="Shape"></path>
                    </g>
                    <g id="g142_1_" transform="translate(0.160618, 0.040777)">
                        <path d="M0.704045948,12.1967163 C0.704045948,18.3877547 5.70647769,23.3924863 11.894671,23.3924863 L11.894671,23.3924863 C18.0643368,23.3924863 23.0852961,18.3877547 23.0852961,12.1967163 L23.0852961,12.1967163 C23.0852961,6.00567794 18.0828644,1.00094632 11.894671,1.00094632 L11.894671,1.00094632 C5.70647769,1.00094632 0.704045948,6.00567794 0.704045948,12.1967163"
                              id="path158_1_"></path>
                    </g>
                </g>
                <g fill="#FFFFFF" id="path214_1_" transform="translate(44.787269, 27.406343)">
                    <path d="M2.04221461,2.14535676 C1.43514937,2.79662578 0.969536229,3.58050613 0.651269017,4.49994475 C0.333001805,5.41938336 0.17092128,6.42133569 0.17092128,7.50285483 L0.17092128,7.50285483 C0.173868199,9.81029211 0.822190297,11.6020186 2.10704682,12.9251851 L2.10704682,12.9251851 C3.39190334,14.2454046 5.1895237,14.9114083 7.55000553,14.9143552 L7.55000553,14.9143552 C8.52248867,14.9143552 9.37709507,14.7935315 10.1256124,14.557778 L10.1256124,14.557778 C11.1305117,13.3200722 11.8731352,11.8613475 12.276863,10.2670645 L12.276863,10.2670645 C12.1265702,10.3112683 12.0027996,10.3819943 11.8584006,10.5146057 C11.7140015,10.647217 11.1393524,11.1865031 10.8417136,11.4487789 C10.5440749,11.7081077 10.2169669,11.9556489 9.85744281,12.1884554 C9.49791874,12.421262 9.12071315,12.5951302 8.72877298,12.7071131 C8.3368328,12.819096 7.9095296,12.8721406 7.32603971,12.8721406 C6.74254982,12.8721406 6.0912808,12.6953255 5.50189708,12.3475891 C4.91251335,11.9998527 4.44100637,11.4723542 4.10505765,10.8210852 C3.76910893,10.1668693 3.59524073,9.45076804 3.56282462,8.65510001 L3.56282462,8.65510001 C3.55398387,8.38987733 3.75437433,8.23074373 3.87225108,8.23074373 L11.083361,8.23074373 C11.6815854,8.23074373 12.1884554,8.17769919 12.603971,8.07455704 L12.603971,8.07455704 C12.6128117,7.88890117 12.6187056,7.70619221 12.6187056,7.51758942 L12.6187056,7.51758942 C12.6187056,4.94787638 11.7523115,2.58150072 10.2994806,0.692525878 L10.2994806,0.692525878 C9.42719269,0.309426456 8.42229344,0.117876745 7.30246436,0.117876745 C6.17968836,0.117876745 5.18657679,0.294691863 4.29071352,0.642428261 C3.39485026,0.993111578 2.64927985,1.49408774 2.04221461,2.14535676 L2.04221461,2.14535676 Z M10.7533061,6.15611301 L10.7533061,6.15611301 C10.7680407,6.36239732 10.5499687,6.54215935 10.3289498,6.54215935 L10.3289498,6.54215935 L4.0019155,6.54215935 C3.77205584,6.53921244 3.54219619,6.35650348 3.57755921,6.12959075 L3.57755921,6.12959075 C3.72195823,4.92724795 4.08737614,3.98128707 4.71212289,3.3064427 C5.33686964,2.63159833 6.17379453,2.28386194 7.17574686,2.28386194 C8.17769919,2.28386194 9.03819943,2.6257045 9.67473386,3.3064427 C10.2965337,3.96360555 10.6442701,4.92430103 10.7533061,6.15611301 Z"
                          id="Shape"></path>
                </g>
            </g>
        </g>
    </g>
</svg>
