<?xml version="1.0" encoding="UTF-8"?>
<svg height="57px" version="1.1" viewBox="0 0 57 57" width="57px" xmlns="http://www.w3.org/2000/svg">
    <title>Hands - Denied</title>
    <g fill="none" fill-rule="evenodd" id="Prototype-DE" stroke="none" stroke-width="1">
        <g fill-rule="nonzero" id="Page_KO" transform="translate(-450.000000, -300.000000)">
            <g id="Hands---Denied" transform="translate(450.000000, 300.000000)">
                <path d="M50.4108417,8.87270835 C46.7108417,4.2472673 39.6341427,0.818368917 32.3179616,0.139732779 C24.0953715,-0.659230207 15.9108704,1.99297088 9.74077723,7.45590659 C1.35890027,14.6351626 -2.16747511,28.2912266 1.35890027,39.8994764 C4.20275138,49.2991822 11.2315539,55.3771427 20.6432043,56.5677324 C22.8491583,56.8493453 25.0707641,56.9924996 27.2948224,56.9963447 C31.8926265,57.0597641 36.4641901,56.2974717 40.7896443,54.7461301 C47.8124598,52.0851621 52.6021038,47.2513679 55.0268611,40.3816652 C58.8406151,29.517534 57.0325245,17.1770716 50.4108417,8.87270835 Z"
                      fill="#FC6E47" id="Path"></path>
                <path d="M40.3931716,39.1875 C40.1687828,39.1889476 39.9490017,39.1221253 39.7616263,38.9954363 C36.6097473,36.8892681 16.7336128,20.6519717 15.8915524,19.9619166 C15.5580176,19.6972163 15.3891587,19.2687797 15.4496016,18.8405788 C15.5100444,18.4123779 15.7904305,18.0507128 16.1834499,17.8940006 C16.5764694,17.7372884 17.0212693,17.8097935 17.3476152,18.0837666 C17.5522826,18.25178 37.9780955,34.9391124 41.0364122,36.9852758 C41.4676675,37.2768929 41.6614522,37.8242541 41.5131683,38.3319134 C41.3648845,38.8395728 40.909645,39.1875 40.3931716,39.1875 Z"
                      fill="#FFFFFF" id="Path"></path>
                <path d="M17.8274501,41.562185 C17.3633544,41.561467 16.9409759,41.3020104 16.7416949,40.8952325 C16.542414,40.4884546 16.6016918,40.0067403 16.894073,39.65695 C16.9843998,39.5459087 25.9267541,28.8041231 28.3715997,25.8235407 C30.2985717,23.4566075 32.3640448,21.1481171 34.3933871,18.8746925 C35.2906334,17.8636321 36.1999233,16.8525718 37.0610389,15.8532 C37.3385666,15.5337421 37.7706179,15.3822457 38.1944434,15.455778 C38.6182687,15.5293102 38.9694791,15.8166999 39.1157768,16.20969 C39.2620745,16.6026802 39.1812335,17.0415662 38.9037059,17.3610241 C38.0245249,18.3720844 37.0971696,19.3831448 36.2179887,20.4000494 C34.2307989,22.6384084 32.1773694,24.9468987 30.2805063,27.2729219 C27.8717914,30.265193 18.8812629,41.0186671 18.790936,41.1297084 C18.5560886,41.4108679 18.2002826,41.5705773 17.8274501,41.562185 Z"
                      fill="#FFFFFF" id="Path"></path>
            </g>
        </g>
    </g>
</svg>