<?xml version="1.0" encoding="UTF-8"?>
<svg height="152px" version="1.1" viewBox="0 0 165 152" width="165px" xmlns="http://www.w3.org/2000/svg">
    <title>Happy Bunch - Desk</title>
    <g fill="none" fill-rule="evenodd" id="Prototype-DE" stroke="none" stroke-width="1">
        <g fill-rule="nonzero" id="Finalisation_modalite_ko" transform="translate(-638.000000, -158.000000)">
            <g id="Happy-Bunch---Desk" transform="translate(638.000000, 158.000000)">
                <g fill="#CCA4FF" id="Blob" opacity="0.288" transform="translate(0.000000, 7.641022)">
                    <g id="Blob/6">
                        <path d="M127.219723,32.6216896 C141.460763,40.6232397 155.268946,55.1990363 156.437663,70.9426265 C157.649667,86.6862168 146.135634,103.640853 131.937879,114.150997 C117.740124,124.661141 100.772076,128.813297 83.8040278,128.857232 C66.7926936,128.8998 49.7813594,124.877399 35.8433199,114.367255 C21.9052801,103.813859 11.1271065,86.8159718 4.80737423,63.4600959 C-1.55564391,40.1042203 -3.37364908,10.4336075 10.5643906,2.43205748 C24.4591445,-5.56949256 54.153229,8.09801996 76.3155778,15.6670538 C98.4346408,23.1928361 113.021968,24.6201395 127.219723,32.6216896 Z"
                              id="blobs-burgers"></path>
                    </g>
                </g>
                <g id="Group-13" transform="translate(30.451129, 80.269663)">
                    <path d="M5.76408764,71.7303371 L2.56184045,71.7303371 C1.15285169,71.7303371 4.26966292e-05,70.5226629 4.26966292e-05,69.0466404 L12.8090315,13.3578539 C12.8090315,11.8818315 13.9618404,10.6741573 15.3708292,10.6741573 L18.5730764,10.6741573 C19.9820652,10.6741573 21.1348742,11.8818315 21.1348742,13.3578539 L8.32588539,69.0466404 C8.32588539,70.5226629 7.1730764,71.7303371 5.76408764,71.7303371"
                          fill="#DBAE84" id="Fill-1"></path>
                    <path d="M27.8595933,71.7303371 L24.6573461,71.7303371 C23.2483573,71.7303371 22.0955483,70.5226629 22.0955483,69.0466404 L22.0955483,13.3578539 C22.0955483,11.8818315 23.2483573,10.6741573 24.6573461,10.6741573 L27.8595933,10.6741573 C29.268582,10.6741573 30.421391,11.8818315 30.421391,13.3578539 L30.421391,69.0466404 C30.421391,70.5226629 29.268582,71.7303371 27.8595933,71.7303371"
                          fill="#C99F79" id="Fill-3"></path>
                    <path d="M49.9550989,71.7303371 L46.7528517,71.7303371 C45.3438629,71.7303371 44.1910539,70.5226629 44.1910539,69.0466404 L31.3820652,13.3578539 C31.3820652,11.8818315 32.5348742,10.6741573 33.9438629,10.6741573 L37.1461101,10.6741573 C38.5550989,10.6741573 39.7079079,11.8818315 39.7079079,13.3578539 L52.5168966,69.0466404 C52.5168966,70.5226629 51.3640876,71.7303371 49.9550989,71.7303371"
                          fill="#DBAE84" id="Fill-5"></path>
                    <g fill="#55B0EB" id="Group-9">
                        <path d="M46.594191,14.9438202 L5.92266292,14.9438202 C2.66533708,14.9438202 1.41737902e-15,12.2786966 1.41737902e-15,9.0211573 L1.41737902e-15,5.92266292 C1.41737902e-15,2.6651236 2.66533708,0 5.92266292,0 L46.594191,0 C49.8517303,0 52.5168539,2.6651236 52.5168539,5.92266292 L52.5168539,9.0211573 C52.5168539,12.2786966 49.8517303,14.9438202 46.594191,14.9438202"
                              id="Fill-7"></path>
                    </g>
                    <g fill="#55B0EB" id="Group-12" transform="translate(0.000107, 40.324618)">
                        <path d="M49.3026517,6.42819101 L3.21398876,6.42819101 C1.44634831,6.42819101 9.07700759e-16,4.9818427 9.07700759e-16,3.21398876 C9.07700759e-16,1.44634831 1.44634831,1.42208342e-16 3.21398876,1.42208342e-16 L49.3026517,1.42208342e-16 C51.0705056,1.42208342e-16 52.5168539,1.44634831 52.5168539,3.21398876 C52.5168539,4.9818427 51.0705056,6.42819101 49.3026517,6.42819101"
                              id="Fill-10"></path>
                    </g>
                </g>
                <g id="Master/Character/Sitting" transform="translate(1.844430, 0.000000)">
                    <g id="Legs-Sitting/Red-Shorts-Cool" transform="translate(34.584270, 60.202247)">
                        <g id="Group-15" transform="translate(0.000000, 0.000000)">
                            <path d="M32.8855224,75.7823324 C32.8855224,75.7823324 22.9141539,66.3276828 22.9139503,66.3276828 C22.3735597,65.816292 21.9239807,65.4149879 22.4095993,64.8523941 C28.1745129,58.180632 33.8032091,51.3968635 39.117526,44.3916414 C43.2219702,38.9393664 47.2384533,33.3733777 50.5543019,27.4365935 C52.6305504,23.9345158 51.5636148,22.7865 48.1832208,21.4545797 C43.4544969,19.5310505 38.3077543,18.0753895 33.2595606,16.8559027 L36.8513057,0.426966292 C47.0242517,3.20068005 72.0094812,8.61305944 69.15665,23.606176 C66.7248921,35.5290276 58.4667289,45.3982087 51.7148998,54.8729129 C46.1352744,62.2250359 40.2893226,69.2727136 34.3391203,76.1584617 C33.8488187,76.7261759 33.4257094,76.2939366 32.8855224,75.7823324"
                                  fill="#DCB284" id="Fill-1"></path>
                            <path d="M29.4329672,0.0692039528 L22.9328732,17.1669033 C22.7931162,17.8661255 22.8209459,18.4563669 22.980813,18.4840378 C30.2613681,19.9163258 38.1639222,21.9030958 44.954313,24.5505618 L48.3031936,14.7603871 C47.7390883,13.7216643 47.1430908,12.6846444 46.5208888,11.6546486 C47.5855184,11.2553364 48.6615234,10.8756066 49.7549981,10.5167364 L53.1573034,0.570327534 C49.6093034,0.057663936 41.7011915,-0.109377258 29.4329672,0.0692039528 Z"
                                  fill="#CC2935" id="Fill-3"></path>
                            <path d="M38.2432792,73.8584799 C43.5705477,67.6324801 48.8400907,61.188405 53.7977528,54.615487 L39.009825,42.4831461 C32.9739402,50.5059225 26.426277,58.2722904 19.8539326,65.8376203 C20.0038557,65.9762597 24.338572,69.9795554 24.6159807,70.2359638 C25.0439246,69.8796752 25.4255656,69.5859979 25.8180174,69.2778393 L27.449018,72.8524384 C30.4166799,75.592858 36.4635795,81.1786885 39.40962,83.8988764 L40.8896773,82.1864335 C42.0190984,80.8818167 38.4564353,76.6989925 38.2432792,73.8584799"
                                  fill="#0A1B45" id="Fill-5"></path>
                            <path d="M74.9199911,88.8020745 C74.1912658,88.8191627 73.6038468,88.8569704 73.5843001,88.1732266 C73.1624172,76.7580562 71.5261957,65.0919019 67.9469104,54.3282215 C60.200921,29.5152155 42.3110712,22.2232599 22.4157303,20.0389216 L28.1414873,4.26966292 C42.4512984,9.35769194 58.1643994,13.1760633 69.3691364,24.7104244 C81.5919303,37.517647 86.1837752,55.8907292 88.5244922,73.2737602 C89.1174087,78.0401028 89.5083427,82.7976876 89.6623094,87.6428497 C89.6846702,88.4504835 89.0913465,88.4442891 88.3640463,88.462018 L74.9199911,88.8020745 Z"
                                  fill="#FFDBB4" id="Fill-7"></path>
                            <path d="M21.2646297,-9.46225755e-23 C21.1936082,0.717905718 4.80061756,21.0931225 14.7103987,21.1483987 C24.6201799,21.2036748 32.8769137,21.675704 37.8572227,23.9101124 L39.960315,18.9860606 C39.3007135,17.9872818 38.5947845,16.9955622 37.8572227,16.0119715 C38.9198914,15.5242406 39.9966421,15.0555482 41.097883,14.615093 L43.7640449,5.86780967 C39.1053363,4.48248267 31.6055314,2.52654611 21.2646297,-9.46225755e-23 Z"
                                  fill="#FA3239" id="Fill-12"></path>
                            <path d="M91.0132356,82.92486 C90.4493696,74.1078457 89.2314269,65.3743038 87.1327618,56.7865169 L68.9550562,61.7278545 C71.1738661,70.8971642 72.3500633,80.5925624 72.4966807,90.1030376 C72.6966506,90.1045358 78.4737831,90.1488404 78.8437883,90.1518368 C78.9370533,89.8044641 79.0370381,89.1752125 79.1076996,88.8096471 C80.2826751,89.2503374 81.4550033,89.7179955 82.619797,90.1807309 C86.5748012,90.2109093 94.6350924,90.2734065 98.5611802,90.3033708 C98.5603658,89.8945713 98.556293,89.0684109 98.5473331,88.6632498 C99.365336,84.8293094 93.8523184,85.3660997 91.0132356,82.92486"
                                  fill="#0A1B45" id="Fill-11"></path>
                            <path d="M20.2203436,21.1348315 C9.05299503,21.1348315 -4.69474177e-21,11.6724045 -4.69474177e-21,-9.46225755e-23 L42.4831461,-9.46225755e-23 C42.4831461,11.6724045 33.430151,21.1348315 22.2628025,21.1348315 L20.2203436,21.1348315 Z"
                                  fill="#FA3239" id="Fill-13"></path>
                        </g>
                        <path d="M11.9550562,21.1348315 C5.35246097,21.1348315 -4.69474177e-21,15.7823705 -4.69474177e-21,9.17977528 L-4.69474177e-21,0 L42.4831461,0 C42.4831461,11.6724045 33.430151,21.1348315 22.2628025,21.1348315 L11.9550562,21.1348315 Z"
                              fill="#FA3239" id="PELVIS-PLUS"></path>
                    </g>
                    <g id="Body/Tee-Stride" transform="translate(0.000000, 28.606742)">
                        <g id="Right-Arm" transform="translate(63.525260, 1.735088)">
                            <path d="M72.7380874,1.26480449 C73.3907426,1.56676115 73.7005651,2.02112368 73.7595889,2.57314316 C73.8436545,2.40672306 73.9262352,2.23914314 74.0069886,2.07066067 C74.4469312,1.19600767 75.5069683,0.864911805 76.4296948,1.20089143 L76.4848874,1.22185168 C77.2662144,1.52712054 77.7253673,2.30731126 77.652437,3.09726672 C78.1829772,2.75627052 78.8538689,2.65872958 79.4761492,2.91169889 C80.5260594,3.35275507 80.860374,4.62746293 80.3399021,5.64236181 C80.119089,5.99995312 79.8936783,6.40697025 79.6597823,6.8403294 C80.2142894,6.54271622 80.8716619,6.46575889 81.4535796,6.76398091 C84.2323181,8.48777043 79.4979973,13.9845789 75.2386409,17.9106609 C74.3422628,18.8603391 73.2607279,19.7691347 72.0724575,20.6248285 C71.2350273,21.2833166 70.5537691,21.7634328 70.1436695,21.9876776 C69.9432295,22.1229918 69.726054,22.2301938 69.5019212,22.3065704 C65.3167141,24.8117778 60.575002,26.6775653 57.8759245,27.4924473 C49.0742279,30.1464698 39.8500481,30.6107956 30.8256886,28.9548068 C23.7756212,27.6510653 16.7140257,24.8559304 10.8880706,20.3986157 C8.0380706,17.9939416 4.54377846,15.3574247 3.34848633,11.6310764 C2.48814925,8.71895282 3.74001442,5.39032361 6.62630655,4.19759327 C9.3211043,3.0622899 12.6932841,3.25677304 15.0533403,4.99409889 C16.5214639,6.38899776 17.742374,7.99353709 19.4611268,9.217009 C23.5164526,12.2871101 28.319183,14.1482562 33.4156661,15.1048742 C43.2896886,16.9103011 54.3252728,15.3856045 62.7495313,9.84080675 C62.8280248,9.79266976 62.9056434,9.74353644 62.982474,9.69351265 C61.4148803,7.28455617 65.3252024,6.01124098 66.3209762,4.19494608 C66.9206993,3.55132552 67.946977,3.72683701 68.6718964,4.23066057 L68.7166794,4.26225499 C69.3078891,3.46322303 69.8442788,2.63015183 70.3218852,1.76584944 C70.8087314,0.977443109 71.8417302,0.879614656 72.6855986,1.24158475"
                                  fill="#DCB284" id="SKIN-DARKER"></path>
                            <path d="M72.7380874,1.26480449 C73.3907426,1.56676115 73.7005651,2.02112368 73.7595889,2.57314316 C73.8436545,2.40672306 73.9262352,2.23914314 74.0069886,2.07066067 C74.4469312,1.19600767 75.5069683,0.864911805 76.4296948,1.20089143 L76.4848874,1.22185168 C77.2662144,1.52712054 77.7253673,2.30731126 77.652437,3.09726672 C78.1829772,2.75627052 78.8538689,2.65872958 79.4761492,2.91169889 C80.5260594,3.35275507 80.860374,4.62746293 80.3399021,5.64236181 C80.119089,5.99995312 79.8936783,6.40697025 79.6597823,6.8403294 C80.2142894,6.54271622 80.8716619,6.46575889 81.4535796,6.76398091 C84.2323181,8.48777043 79.4979973,13.9845789 75.2386409,17.9106609 C74.3422628,18.8603391 73.2607279,19.7691347 72.0724575,20.6248285 C71.2350273,21.2833166 70.5537691,21.7634328 70.1436695,21.9876776 C69.9432295,22.1229918 69.726054,22.2301938 69.5019212,22.3065704 C65.3167141,24.8117778 60.575002,26.6775653 57.8759245,27.4924473 C49.0742279,30.1464698 39.8500481,30.6107956 30.8256886,28.9548068 C23.7756212,27.6510653 16.7140257,24.8559304 10.8880706,20.3986157 C8.0380706,17.9939416 4.54377846,15.3574247 3.34848633,11.6310764 C2.48814925,8.71895282 3.74001442,5.39032361 6.62630655,4.19759327 C9.3211043,3.0622899 12.6932841,3.25677304 15.0533403,4.99409889 C16.5214639,6.38899776 17.742374,7.99353709 19.4611268,9.217009 C23.5164526,12.2871101 28.319183,14.1482562 33.4156661,15.1048742 C43.2896886,16.9103011 54.3252728,15.3856045 62.7495313,9.84080675 C62.8280248,9.79266976 62.9056434,9.74353644 62.982474,9.69351265 C61.4148803,7.28455617 65.3252024,6.01124098 66.3209762,4.19494608 C66.9206993,3.55132552 67.946977,3.72683701 68.6718964,4.23066057 L68.7166794,4.26225499 C69.3078891,3.46322303 69.8442788,2.63015183 70.3218852,1.76584944 C70.8087314,0.977443109 71.8417302,0.879614656 72.6855986,1.24158475"
                                  fill="#DCB284" id="SKIN-DARKER"></path>
                            <path d="M15.9663223,24.9339799 C9.85856947,21.5370361 -0.136497942,13.9197438 0.0014121701,6.22858653 C0.225996439,1.23542921 6.17235599,-0.569997754 10.3489403,0.153283145 C12.1863897,0.517912358 13.8908256,0.501664163 14.9210953,2.13673158 C16.8392414,5.26447316 20.0111874,8.69154158 23.6448841,10.6410697 L15.9663223,24.9339799 Z"
                                  fill="#34D1A1" id="Fill-14"></path>
                        </g>
                        <path d="M42.2696629,0 L71.3033708,0 C76.0195102,0 79.8426966,3.8231864 79.8426966,8.53932584 L79.8426966,32.2359551 L79.8426966,32.2359551 L33.7303371,32.2359551 L33.7303371,8.53932584 C33.7303371,3.8231864 37.5535235,0 42.2696629,0 Z"
                              fill="#34D1A1" id="body"></path>
                        <path d="M46.9662921,0 C46.9662921,3.89081509 51.3629566,7.04494382 56.7865169,7.04494382 C62.2100771,7.04494382 66.6067416,3.89081509 66.6067416,0"
                              fill="#FFDBB4" id="SKIN"></path>
                        <g id="Left-Arm">
                            <path d="M15.871159,74.1940229 C18.4372264,76.2867982 20.7279006,75.9379667 22.1230129,75.3816296 C23.5691478,74.7642364 23.1902152,72.5858543 21.646732,72.3204948 C19.2219905,72.1166184 17.1738332,72.2532476 15.067822,69.7516521 C14.4026085,68.9967757 13.9732939,68.7478543 13.7209568,68.8511802 C12.8512264,70.2437308 14.50935,72.9588094 15.871159,74.1940229"
                                  fill="#FFDBB4" id="SKIN"></path>
                            <path d="M15.871159,74.1940229 C18.4372264,76.2867982 20.7279006,75.9379667 22.1230129,75.3816296 C23.5691478,74.7642364 23.1902152,72.5858543 21.646732,72.3204948 C19.2219905,72.1166184 17.1738332,72.2532476 15.067822,69.7516521 C14.4026085,68.9967757 13.9732939,68.7478543 13.7209568,68.8511802 C12.8512264,70.2437308 14.50935,72.9588094 15.871159,74.1940229"
                                  fill="#DCB284" id="SKIN-DARKER"></path>
                            <path d="M13.9687894,67.4128161 L13.9687894,67.4128161 C8.28394667,69.7686027 4.67885678,65.1740184 3.48463207,59.99876 C2.5013287,57.0403105 1.63351971,53.873715 1.03469948,50.7788499 C-1.20431175,40.3382431 -0.0598286053,28.4064566 6.9460478,19.9390746 C11.5566433,14.0456589 17.9363736,9.67245662 24.5317219,6.43541167 C30.135014,3.726951 38.3974522,-0.657565853 41.2937781,7.6612319 C42.2456994,11.270378 40.3918118,15.1450971 36.9389354,16.4432881 C27.3151152,20.1564004 16.2944748,25.91276 14.397677,36.8063779 C13.6607332,41.3623218 14.3396096,46.084569 15.4059579,50.5702768 C16.7195197,56.7040746 21.6488455,63.291524 13.9687894,67.4128161"
                                  fill="#FFDBB4" id="SKIN"></path>
                            <path d="M19.3931826,7.99170381 C24.9454147,5.2317475 30.4349818,0 43.2676947,0 C47.1743976,0 47.1797753,2.09291757 47.1797753,5.93937978 C47.1797753,9.78584202 44.0872051,15.1809622 40.509014,16.3485016 C35.9645983,17.7918611 31.560868,19.6510858 27.6577556,21.9539285 L19.3931826,7.99170381 Z"
                                  fill="#34D1A1" id="Fill-23"></path>
                            <path d="M17.6390557,57.8187768 C15.6568647,55.8570802 6.82143768,61.218069 4.48465117,62.8665858 C6.48007813,68.7081251 10.3599208,75.1348218 15.1611568,78.2489004 C17.1913815,79.7957993 23.9148197,82.3674173 22.5831118,78.2649117 C21.0716512,77.0852038 13.5087972,70.6975746 16.3575163,67.487642 C17.9001455,65.4454622 19.7450669,66.4262038 21.2563141,67.5514734 C22.6409657,68.6539004 25.1852579,66.8365184 24.1355612,65.3385072 C22.2564826,63.054451 18.6682579,60.4713049 17.6390557,57.8187768"
                                  fill="#FFDBB4" id="SKIN"></path>
                        </g>
                    </g>
                    <g id="Head/Bun" transform="translate(45.044944, 0.000000)">
                        <circle cx="5.33707865" cy="5.33707865" fill="#000000" id="Oval" r="5.33707865"></circle>
                        <g id="Head" transform="translate(3.842697, 5.764066)">
                            <g fill="#FFDBB4" id="head" transform="translate(0.000000, -0.000000)">
                                <path d="M2.7752809,13.2359551 L12.3820225,13.2359551 L12.3820225,24.2587303 C12.3820225,27.2272135 10.2313933,29.6335955 7.57865169,29.6335955 C4.92591011,29.6335955 2.7752809,27.2272135 2.7752809,24.2587303 L2.7752809,13.2359551 Z"
                                      id="SKIN"></path>
                                <path d="M12.8201966,20.0674157 L11.7555562,20.0674157 C6.79591573,20.0674157 2.77538764,16.0468876 2.77538764,11.0872472 L2.77538764,6.87479775 C2.77538764,3.078 5.85317416,0 9.65018539,0 L10.8441966,0 C14.6412079,0 17.7192079,3.078 17.7192079,6.87479775 L17.7192079,15.1684045 C17.7192079,17.8740899 15.525882,20.0674157 12.8201966,20.0674157"
                                      id="SKIN"></path>
                                <path d="M5.33707865,12.488764 C5.33707865,13.9624382 4.14242697,15.1573034 2.66853933,15.1573034 C1.19465169,15.1573034 0,13.9624382 0,12.488764 C0,11.0150899 1.19465169,9.82022472 2.66853933,9.82022472 C4.14242697,9.82022472 5.33707865,11.0150899 5.33707865,12.488764"
                                      id="SKIN"></path>
                            </g>
                            <path d="M2.14913483,11.3505573 C2.34230098,11.3505573 2.60961531,11.3951097 2.88390548,11.5322548 C3.342164,11.761384 3.6319957,12.1803296 3.65143921,12.7880684 L3.65248315,12.8539056 L3.01203371,12.8539056 C3.01203371,12.4620817 2.86231512,12.2375038 2.59748778,12.1050902 C2.49914348,12.055918 2.39051645,12.0233299 2.28135327,12.005136 C2.22763903,11.9961837 2.1857628,11.9923399 2.16151892,11.9913073 L2.14913483,11.9910067 L2.14913483,11.3505573 Z"
                                  fill="#000000" id="ear-line"></path>
                            <path d="M7.41869946,20.5651893 C5.43438265,19.8632339 4.44441642,18.0902788 4.05238451,15.7055486 C5.60461833,18.2891379 8.4199082,20.0275427 11.6442125,20.0667183 L11.7555562,20.0673944 L12.3820225,20.0673944 C10.6876517,20.9703937 9.03321069,21.1363254 7.41869946,20.5651893 Z"
                                  fill="#000000" id="SHADOW" opacity="0.12"></path>
                        </g>
                        <path d="M14.6894816,5.76404494 C18.2717679,5.76404494 21.2169407,8.47916239 21.5617766,11.9548423 L8.5335618,11.9546292 L7.57779417,15.5685445 L7.17565246,15.5785146 C6.85350772,15.5850771 6.44872183,15.5895246 6.40786018,15.5716575 L6.40449438,15.5685445 L6.40734035,15.3569703 C6.42445647,14.4941797 6.51096402,12.627834 6.51096402,12.627834 C6.51096402,8.87502333 9.52605683,5.82557813 13.2683667,5.7649645 L13.3819903,5.76404494 L14.6894816,5.76404494 Z"
                              fill="#000000" id="Path"></path>
                    </g>
                    <g fill="#000000" id="Expression/Happy" transform="translate(56.146076, 12.595506)">
                        <path d="M2.4680061,2.7752809 C2.4680061,2.42153933 2.18129824,2.13483146 1.82755667,2.13483146 C1.47381509,2.13483146 1.18710723,2.42153933 1.18710723,2.7752809 C1.18710723,3.12902247 1.47381509,3.41573034 1.82755667,3.41573034 C2.18129824,3.41573034 2.4680061,3.12902247 2.4680061,2.7752809"
                              id="Fill-1"></path>
                        <path d="M8.0185679,2.7752809 C8.0185679,2.42153933 7.73186004,2.13483146 7.37811846,2.13483146 C7.02437689,2.13483146 6.73766903,2.42153933 6.73766903,2.7752809 C6.73766903,3.12902247 7.02437689,3.41573034 7.37811846,3.41573034 C7.73186004,3.41573034 8.0185679,3.12902247 8.0185679,2.7752809"
                              id="Fill-3"></path>
                        <polygon id="Stroke-5"
                                 points="5.16581032 2.21953431 5.7955502 2.10290164 6.7108387 7.04485843 4.60283756 7.04485843 4.60283756 6.40440899 5.94080049 6.4042809"></polygon>
                        <path d="M2.75859936,6.9565618 C2.75859936,7.74095492 3.55747074,8.46635587 4.41515247,8.49450141 L4.46667801,8.49534831 L4.46667801,9.13579775 C3.2716697,9.13579775 2.15533909,8.16103719 2.11905923,7.01405091 L2.11814992,6.9565618 L2.75859936,6.9565618 Z"
                              id="Stroke-7"></path>
                        <path d="M3.00171397,0 L3.00171397,0.640449438 C2.31292631,0.640449438 1.68467109,0.825230394 1.12913895,1.13385935 C0.962473643,1.2264512 0.813078735,1.32453372 0.682211453,1.42297112 L0.618327582,1.47219559 C0.544090014,1.53080423 0.492097517,1.5764623 0.46362495,1.60359545 L0.452866146,1.61407353 L-3.79222247e-16,1.16120737 C0.153100089,1.00810729 0.429487223,0.789906918 0.818109209,0.574005819 C1.43536279,0.231087158 2.13257176,0.0190094594 2.89705102,0.00121615798 L3.00171397,0 Z"
                              id="Stroke-9"></path>
                        <path d="M5.99047801,0 C6.79607238,0 7.52877222,0.215499943 8.17408277,0.574005819 C8.53841589,0.776413097 8.80410508,0.980841227 8.96204364,1.13175468 L8.99219199,1.16120737 L8.53932584,1.61407353 L8.49843173,1.57593175 C8.47454117,1.55463817 8.4430896,1.5278157 8.40431485,1.49650445 L8.3738644,1.47219559 C8.2284318,1.35738041 8.05749589,1.24188317 7.86305303,1.13385935 C7.3352975,0.840661831 6.74190938,0.659237151 6.09334064,0.641827685 L5.99047801,0.640449438 L5.99047801,0 Z"
                              id="Stroke-11"></path>
                    </g>
                </g>
                <g id="Desk" transform="translate(28.956790, 2.561798)">
                    <rect fill="#BE6FFB" height="46.3258427" id="Rectangle" width="54.8651685" x="61.9101124"
                          y="0"></rect>
                    <rect fill="#CCA4FF" height="46.3258427" id="Rectangle" width="5.5505618" x="61.9101124"
                          y="0"></rect>
                    <g id="keyboard" transform="translate(39.494382, 55.078652)">
                        <rect fill="#C67BFF" height="3.20224719" id="Rectangle" width="43.3370787" x="0" y="0"></rect>
                        <rect fill="#F2E7FF" height="3.20224719" id="Rectangle" width="14.5168539" x="0" y="0"></rect>
                    </g>
                    <rect fill="#BE6FFB" height="8.11235955" id="Rectangle" width="111.011236" x="11.9550562"
                          y="58.0674157"></rect>
                    <rect fill="#CCA4FF" height="8.11235955" id="Rectangle" width="37.1460674" x="11.9550562"
                          y="58.0674157"></rect>
                    <rect fill="#E4CEFF" height="8.11235955" id="Rectangle" width="54.8651685" x="11.9550562"
                          y="58.0674157"></rect>
                    <polygon fill="#CCA4FF" id="Rectangle"
                             points="15.3707865 66.1797753 22.6292135 66.1797753 3.84269663 149.438202 4.14781551e-17 149.438202"></polygon>
                    <polygon fill="#CCA4FF" id="Rectangle"
                             points="74.505618 66.1797753 81.7640449 66.1797753 62.9775281 149.438202 59.1348315 149.438202"
                             transform="translate(70.449438, 107.808989) scale(-1, 1) translate(-70.449438, -107.808989) "></polygon>
                    <polygon fill="#CCA4FF" id="Rectangle"
                             points="128.730337 66.1797753 135.988764 66.1797753 117.202247 149.438202 113.359551 149.438202"
                             transform="translate(124.674157, 107.808989) scale(-1, 1) translate(-124.674157, -107.808989) "></polygon>
                    <rect fill="#870CF7" height="40.3483146" id="Rectangle" width="13.4494382" x="90.7303371"
                          y="17.7191011"></rect>
                    <rect fill="#CCA4FF" height="40.3483146" id="Rectangle" width="3.84269663" x="90.7303371"
                          y="17.7191011"></rect>
                </g>
            </g>
        </g>
    </g>
</svg>