<?xml version="1.0" encoding="UTF-8"?>
<svg height="299px" version="1.1" viewBox="0 0 537 299" width="537px" xmlns="http://www.w3.org/2000/svg">
    <title>Happy Bunch - Party of Three (1)</title>
    <g fill="none" fill-rule="evenodd" id="Prototype-DE" stroke="none" stroke-width="1">
        <g fill-rule="nonzero" id="Filtre_Diplome_dpt" transform="translate(-732.000000, -135.000000)">
            <g id="Happy-Bunch---Party-of-Three-(1)" transform="translate(732.000000, 135.000000)">
                <g id="Background" opacity="0.4">
                    <g id="Background/Abstract">
                        <path d="M314.772374,68.8968902 C332.398412,74.062124 346.926158,85.9351936 362.964568,94.4673291 C394.305956,111.043806 422.137596,97.4397876 451.27203,84.0343062 C439.704101,118.829129 427.593808,153.394845 416.952076,188.487144 C416.301829,193.643831 407.417109,190.975094 403.688968,191.487871 C386.68259,190.901465 369.795603,187.303485 354.039395,180.86913 C339.023551,175.123407 324.926012,166.679693 308.988576,163.675022 C305.267341,162.207364 297.942949,164.122386 295.979384,160.426782 C292.60021,140.441001 278.700341,119.802089 256.215715,121.120844 C230.982757,122.630904 221.318861,152.761106 217.060852,173.750088 C215.837324,177.036128 217.782799,182.715453 213.925727,184.181139 C210.689627,185.693171 206.873668,179.585875 202.817936,178.83216 C199.65913,178.62179 202.765969,165.499979 201.972979,162.516016 C202.349575,146.015799 191.568388,131.631441 176.787711,125.061332 L176.35274,124.842465 C174.775053,124.035739 174.732911,123.802369 174.944855,121.819994 C175.587207,115.810652 174.613318,110.026471 172.597128,104.378701 L172.563211,104.280679 C172.272345,103.470597 171.669422,102.437841 172.808943,102.038338 C188.177702,95.7979177 201.689791,85.8093005 217.207544,79.879504 C247.732918,67.5962137 282.416972,58.5131723 314.772374,68.8968902 Z M289.701309,148.974059 C291.004425,152.984158 292.25126,157.059106 293.190125,161.173226 C293.237402,163.279993 289.632517,161.874055 288.260276,162.260186 C273.692617,162.610436 259.245756,165.717917 245.736982,171.194853 C242.976703,171.526998 216.554593,184.973107 218.928445,180.578194 C221.603144,160.637647 229.792145,130.320285 251.759168,124.553669 C268.662498,121.043598 284.818322,133.060069 289.701309,148.974059 Z M384.136071,140.309434 C385.517529,141.291216 386.205534,140.334143 386.804598,139.186281 C386.406583,135.804935 382.44554,138.78406 384.136071,140.309434 Z M395.602201,135.581395 C396.865793,135.5755 397.052032,135.249301 397.777778,134.519611 C396.715008,132.427811 392.992171,134.061753 395.602201,135.581395 Z M356.28544,130.473197 C356.376024,133.022333 363.132194,129.955003 358.343481,129.423984 C357.540759,129.372073 356.523785,129.693922 356.28544,130.473197 Z M402.934991,126.679587 C401.118291,126.843462 402.007719,128.194357 403.103497,129.076227 C404.459957,128.155798 404.967097,126.794599 402.934991,126.679587 Z M383.032567,127.291635 C383.570606,128.67946 384.459677,127.819754 385.775862,127.379867 C384.758624,126.254508 383.280791,125.783406 383.032567,127.291635 Z M370.001916,126.001586 L370.087078,126.103999 C370.947958,127.109972 372.074475,127.555565 372.400557,126.033838 C372.460508,124.167169 370.958359,125.145919 370.001916,126.001586 Z M391.949085,122.215874 C391.889857,123.91495 395.101875,123.288558 395.033402,122.070908 C394.775265,120.868452 391.938129,120.910232 391.949085,122.215874 Z M407.045235,117.435401 C405.323492,117.437786 404.691303,119.02651 406.082812,119.791905 C408.297848,120.170854 408.711677,117.749601 407.045235,117.435401 Z M380.632184,116.988213 C380.998609,118.729875 382.35607,118.249382 383.375479,116.975525 L383.243211,116.833335 C382.170041,115.710445 380.758969,114.971626 380.632184,116.988213 Z M348.109883,114.354005 C346.15558,114.545207 346.362215,116.074823 347.809917,117.093023 L347.932831,117.037474 C349.528523,116.292132 350.213815,115.006043 348.109883,114.354005 Z M394.359944,113.669251 C391.77182,114.304088 394.657869,117.613581 396.068804,116.536954 C397.166949,115.22286 395.313853,114.324589 394.359944,113.669251 Z M356.801533,114.35407 C355.787131,115.144677 356.353121,116.884821 357.758659,116.742406 C359.488292,116.222294 358.583722,114.341293 356.801533,114.35407 Z M370.542005,113.681297 C369.283597,114.52766 370.455142,116.277531 371.703125,116.044773 C373.0983,115.225239 372.247361,113.509167 370.542005,113.681297 Z M417.274903,112.30005 C415.959878,112.995453 416.990846,113.710612 417.608999,114.696382 C418.648509,113.695794 418.652168,112.275706 417.274903,112.30005 Z M404.641275,111.257917 C405.861363,110.688318 406.27844,109.0616 404.257077,108.877276 C402.326397,108.808288 402.518497,111.493894 404.641275,111.257917 Z M378.569843,106.481625 L378.509134,106.487515 C376.658421,106.622265 377.8041,109.404602 379.19323,109.208447 C380.571289,108.859708 379.875916,106.393665 378.569843,106.481625 L378.569843,106.481625 Z M387.965594,106.121747 C389.930397,106.342053 390.058766,104.095184 388.387575,104.104324 C386.622494,103.876139 386.986776,105.514408 387.965594,106.121747 Z M397.108997,105.544269 C398.056908,106.659264 398.73479,106.022708 399.835249,105.098836 C398.635894,104.157361 396.901391,104.112094 397.108997,105.544269 Z M358.36958,104.236363 C358.106124,105.89675 359.860252,106.276967 360.737654,105.15077 C360.858208,103.355579 359.013665,102.749117 358.36958,104.236363 Z M347.712644,104.38354 C347.983273,106.196395 349.547143,105.377131 350.79885,104.31641 L350.538011,104.181104 C349.263264,103.5055 348.116247,102.734172 347.712644,104.38354 Z M412.524165,103.345442 C412.4753,104.550787 413.960509,104.773517 414.58046,103.878789 C414.504878,102.065536 412.807917,101.887225 412.524165,103.345442 Z M370.292084,101.343669 C369.081808,102.413612 368.927638,103.070935 370.223173,103.733719 C372.025768,103.855901 371.443383,102.250134 370.292084,101.343669 Z M358,96.4141605 C358.093742,97.7727734 359.736022,97.9207242 360.400383,96.966236 C360.347468,95.3271329 358.360596,95.0038329 358,96.4141605 Z M345.492406,90.4203655 C344.571317,91.139719 344.911218,92.5508488 346.162908,92.4351602 C347.676038,92.330906 347.041819,90.0924698 345.492406,90.4203655 Z"
                              fill="#4833E3" id="Shape"></path>
                        <path d="M468.417624,76.6925065 C461.630178,97.688426 453.630685,117.701279 446.190244,138.396835 C440.378344,154.158367 435.036151,170.076638 430.335786,186.201491 C429.244287,190.875813 423.837716,189.445481 420.29487,190.651852 C419.168881,190.842694 418.834504,190.531183 419.152788,189.383834 C425.586477,167.250403 433.030202,145.433075 440.477542,123.624929 C444.857651,110.789316 449.170756,97.9307497 453.437546,85.0571 C454.95178,80.6444481 464.142624,78.6897913 468.417624,76.6925065 Z M485.46962,71.8951256 C483.386462,79.4319194 481.454609,87.0153908 479.141377,94.4805247 C470.36402,122.812532 461.219719,151.029488 451.967113,179.208643 C449.52653,184.514443 437.865836,186.207 432.068965,188.307494 C442.260485,150.849555 458.350503,115.457353 469.955646,78.4721109 L470.363361,77.166082 C471.332571,73.8940459 475.769333,74.1395965 478.359905,72.57228 C480.002933,72.3944448 486.409292,68.5435401 485.46962,71.8951256 Z M498.516289,68.7227934 C496.664942,75.3570667 494.952245,82.0356186 492.871901,88.5980619 C484.372467,114.838979 478.020069,141.642728 471.530009,168.422534 C470.932386,171.751971 457.107911,178.6693 454.015326,179.748062 C465.436925,144.497384 477.666427,109.457316 487.167782,73.624038 L487.625384,71.8895462 C488.066616,70.1708736 488.803869,69.2744745 490.697926,69.0803038 C492.400113,69.4059987 499.405,65.51865 498.516289,68.7227934 Z M527.204043,67.8193961 C530.643919,69.7567707 537.566782,69.811599 536.962921,75.0399826 C536.798052,96.0782764 534.123943,116.939281 533.708975,137.960174 C532.846456,140.757729 535.108224,152.471935 530.54026,150.977454 L529.40217,150.801469 C523.204134,149.850814 516.48674,148.993586 510.382693,150.727796 L510.101409,150.809686 C496.97571,154.620415 485.680353,161.557339 473.904214,168.449612 C481.087382,134.689192 491.282947,101.761045 500.792055,68.6152267 C501.201759,67.1191045 501.827998,66.5035177 503.439506,66.2077079 C511.358822,64.9210494 519.628612,64.9545373 527.204043,67.8193961 Z"
                              fill="#73DEEC" id="Shape"></path>
                        <path d="M175.682497,128.137815 C190.825223,134.745035 199.640244,150.090858 198.83852,166.497424 C198.031867,168.767337 199.763131,178.704224 195.996014,177.104532 C181.871872,173.361584 169.841411,185.391593 163.813696,196.952909 C160.976776,202.76655 150.21166,199.713614 144.660378,200.61175 C143.720981,200.456068 143.474221,200.009144 143.845183,199.120573 L146.25368,194.6047 C152.992151,181.95678 159.644437,169.259539 165.164798,156.005758 C168.729308,147.486724 171.80641,138.810527 173.44868,129.682784 L173.570943,128.99508 C173.846741,127.543459 174.246962,127.41109 175.682497,128.137815 Z M118.316698,99.9741602 C128.23971,118.565197 152.075283,117.692386 169.419402,125.192642 C177.872874,126.730827 144.127787,199.808605 137.959277,199.94832 C131.563621,199.019623 125.135703,198.290802 118.860204,196.676348 C115.114591,196.535318 117.475598,188.963724 116.854731,185.957704 C116.959416,170.7274 114.959539,152.938495 102.459237,142.349047 L102.162456,142.08695 C100.850926,140.917564 100.924975,140.76314 101.808742,138.972863 C108.394016,126.437261 113.433377,113.163303 118.316698,99.9741602 Z M192.826677,179.154436 C201.015105,179.253112 196.052252,185.44613 195.775198,190.619721 C187.073281,195.429978 175.986526,197.046685 165.969349,198.921189 C170.684208,188.886369 180.567647,177.951055 192.826677,179.154436 Z M100.383788,144.321227 C106.902429,149.846119 110.521807,157.261915 112.206974,165.498787 L112.2601,165.761943 C113.60312,172.367508 114.101374,179.046607 114.026488,185.961149 C113.441524,187.9169 115.757075,196.88282 111.88797,194.8598 C104.040716,192.175629 96.6191301,188.358766 89.1962298,184.675451 C87.1165039,182.792575 78.4819633,182.161762 81.0605999,178.458662 C86.3853812,168.41116 91.7344676,158.378167 97.0700876,148.33759 C98.0780912,147.249742 98.5224799,143.250527 100.383788,144.321227 Z M208.358805,185.768342 C209.590421,187.470581 201.807058,188.885696 200.468974,189.856892 C199.450952,190.235314 199.178538,189.970683 199.239987,188.873788 L199.325202,188.265017 C200.691834,178.581563 200.880533,181.550851 208.358805,185.768342 Z M67.512261,128.049096 L67.7959342,128.129886 C72.9330322,129.616083 102.344611,139.183069 95.7399462,144.574186 C92.4338117,150.831561 89.1054634,157.076928 85.7710905,163.318986 L78.1025694,177.664783 C77.4403517,178.884219 77.2986773,178.901696 75.9520449,178.447307 L75.7066108,178.364092 C69.897542,176.391027 64.0771245,174.45125 58.2745401,172.458956 L55.3748691,171.458035 C51.4591042,170.098756 52.2879383,170.243877 53.3376197,167.246568 C58.2284641,154.30912 62.060754,140.597146 67.512261,128.049096 Z M23.2191829,110.167151 C33.7355203,120.09756 48.5902122,121.963637 61.8142425,126.338509 C68.8307195,124.525963 50.8934433,163.09649 50.1167187,167.886483 L50.0021597,168.192016 C49.486385,169.545442 49.3305253,169.52635 47.631792,169.07339 C35.0481321,165.362254 19.1890209,166.0007 9.41918032,175.607616 C-0.711423093,184.446032 2.83312187,157.059161 1.04244977,152.150609 L1.18767501,152.139114 L1.18767501,152.139114 C1.40419848,146.923491 -0.939117608,141.045445 1.36444231,136.205861 C6.94868336,127.136989 13.6235117,118.825741 20.7236534,110.906283 L21.2865055,110.279385 C22.1466183,109.329419 22.3732714,109.351484 23.2191829,110.167151 Z M68.885524,77.377261 C85.2337997,80.1826164 98.7228855,89.6527845 113.24031,96.931231 L114.000483,97.3114892 C115.368976,98.004078 115.41211,98.1614462 114.964608,99.8009009 L114.939717,99.8918079 C111.404392,112.821002 105.39378,124.821572 99.7166894,136.89469 L99.6480196,137.059451 C99.1787628,138.164394 98.4757839,139.35887 97.2637475,138.168252 C89.3787515,132.824584 80.6949811,129.224799 71.7038965,126.282437 L71.2464603,126.133387 C67.6293154,124.959415 67.8839744,125.338977 68.8888098,121.60436 C71.6887456,107.673002 78.2297053,89.9417327 68.885524,77.377261 Z M18.8646883,81.4857882 C15.8023265,89.2119775 14.5765952,98.3376264 19.5598156,105.548451 L19.7597151,105.860565 C20.4756149,106.992666 20.3994676,107.120119 19.3789053,108.249174 L17.8485499,109.993181 C11.7332947,116.98531 5.72402708,124.186247 0.971961489,132.157623 L0.490845495,131.874568 L0.490845495,131.874568 C0.261102767,119.440896 -0.0404138173,107.021722 0.00448569225,94.5751992 C0.464298972,86.5010398 12.5885509,83.6540113 18.8646883,81.4857882 Z M70.9705918,93.0552831 C70.9187651,96.9586444 67.8345756,125.8143 63.8458932,123.844235 C51.2404286,119.424146 36.9329325,117.947172 26.4150643,109.14048 L25.9290704,108.717919 C24.1724567,107.174203 24.3088447,106.999466 26.1744163,105.100879 L26.782397,104.523924 C37.212462,94.6009593 71.7246814,60.8201836 70.9705918,93.0552831 Z M123.105364,101.686047 C136.722351,106.98087 151.97791,108.50942 166.131313,104.506533 C167.493111,104.15178 168.92542,103.14113 169.427898,105.073079 C170.66943,107.340257 174.526813,123.820396 169.993309,122.495366 C155.154889,115.437035 132.657057,116.515856 123.105364,101.686047 Z M62.4099617,76.1531007 C46.7460572,80.8752956 34.8889178,92.8075362 23.4280073,103.868682 L23.314032,103.968034 C22.5388101,104.630532 22.2267342,104.598148 21.6481383,103.703952 L21.6063466,103.638613 C17.1699077,96.8887064 18.6650104,88.1817256 22.1584251,81.3661321 C30.9728594,74.9166025 51.3862234,75.2579105 62.4099617,76.1531007 Z"
                              fill="#60D6E1" id="Shape"></path>
                        <path d="M400.855319,42.3898342 C400.910607,39.0775043 396.190949,40.3168374 396.41378,43.0790259 C396.629575,46.2156296 401.086191,45.7614836 400.855319,42.3898342 M403.656131,13.3500893 C407.845845,13.3520483 406.642609,8.41034717 403.495679,8.21705432 C400.76694,8.47662833 400.078507,13.4836311 403.656131,13.3500893 M404.992109,33.2396995 C404.701755,37.2334395 409.299342,36.4259674 409.779693,33.3240335 C409.677063,30.2330855 405.034654,28.9028081 404.992109,33.2396995 M390.761471,31.1563308 C388.739927,31.242791 387.432956,32.2833292 387.148099,34.032975 C387.057684,41.0013975 397.377987,31.8399695 390.761471,31.1563308 M379.603448,21.7489702 C379.701247,25.3237989 383.243399,23.9097915 384.635958,22.1379984 C386.913973,18.7865756 379.894868,15.3300005 379.603448,21.7489702 M415.952107,21.5561029 C415.627006,18.2593676 410.2531,17.6795086 409.779693,21.3410841 C409.811104,25.3414872 415.251065,25.1827748 415.952107,21.5561029 M397.858259,18.4993525 C393.331675,18.4873197 393.789582,24.3577336 398.391041,23.945689 C402.307722,24.1417924 401.148718,18.1995064 397.858259,18.4993525 M387.546724,9.57284842 C391.53397,5.36130579 398.396878,-3.20228459 404.572769,1.24746257 C413.379637,7.88221895 418.382444,17.9694669 425.998139,25.739043 C427.582646,27.3090998 427.155439,31.1729755 424.5682,31.1295172 C422.648573,31.1814712 421.343282,32.5417515 422.573591,34.274859 C423.132346,35.1414128 423.063613,35.6142269 422.294708,36.1749381 C421.227848,36.9287614 420.512221,38.3860878 418.957641,37.7368262 C415.973783,36.7245399 413.757512,38.7344084 414.491556,41.7879322 C413.652931,45.4492202 409.128308,47.6335758 406.897238,50.6962489 C402.632422,55.5779656 397.839437,61.2997692 392.25716,54.1552754 C391.104791,52.8322451 391.131432,52.8093723 392.001297,51.181153 C393.784771,48.4576515 390.515124,46.3125063 388.398503,48.034831 C386.653178,49.9097501 383.422009,44.2627734 381.676025,43.3599499 C379.665299,42.057505 381.683919,40.7723783 381.956554,39.0304484 C382.67777,37.1741545 380.230631,35.5318848 378.686577,36.670952 C377.463171,37.3002818 377.110619,39.7310108 375.648783,37.9962694 C374.179381,35.927258 365.428421,31.4918883 367.604238,29.2225758 C374.087299,22.4362052 380.58943,15.5645515 387.695373,9.4241752 C384.932189,11.800336 390.148431,15.2639371 391.469512,12.0274308 C392.217366,9.82248903 389.505814,8.06585539 387.546724,9.57284842"
                              fill="#52DC82" id="Fill-18"></path>
                        <path d="M317.235407,226.736273 C321.418171,238.107224 322.178883,250.433476 323.022988,262.42416 L323.010513,262.568352 C322.903477,263.679929 322.613092,263.793009 321.435245,263.527437 C318.199676,263.105442 314.958524,264.475535 311.780081,265 C299.673045,262.026392 288.723653,255.519351 276.729885,251.164519 C289.636704,243.208815 303.158793,236.433976 314.408593,226.118504 L314.881561,225.70491 C316.315954,224.469493 316.398795,224.679721 317.235407,226.736273 Z M311.445361,213.301034 C312.286349,216.338894 315.296673,219.217229 314.220691,222.230194 C307.061462,229.059648 298.79741,234.678412 290.290171,239.724916 C284.403241,242.309423 278.526798,248.486362 272.203314,248.908269 C270.431861,247.54264 258.727155,244.207348 260.440926,242.224583 C265.391492,238.739593 278.571699,249.59485 276.319446,232.372992 C275.499759,228.067446 279.179664,230.047918 281.193975,231.46432 C288.350582,235.126524 295.772008,231.936345 293.562033,223.109058 C293.577766,221.048331 295.484576,222.843073 296.239044,223.463486 C301.13553,227.212495 307.980127,222.250503 309.484797,217.086403 L309.576762,216.762022 C309.908629,215.563769 310.210885,214.279914 311.445361,213.301034 Z M303.778647,201.015205 L304.307201,200.975452 L304.307201,200.975452 L304.407235,201.115782 C306.103418,203.459629 310.789974,208.309037 309.392931,210.930499 C306.275087,214.425821 306.675357,220.248181 301.452487,221.784756 C297.364806,223.895287 289.86663,211.265608 290.718022,226.902729 C288.779664,238.68215 270.316374,214.852592 273.72261,236.473714 C272.782302,244.845205 261.736481,234.672337 257.942115,240.782497 C256.940455,241.898543 256.04083,241.979363 254.838707,241.221753 C253.378048,240.268334 250.907527,240.097494 250.888498,237.937353 C249.94327,232.963608 252.062734,230.4792 256.906005,232.936997 C278.002877,238.926583 259.299753,214.467545 272.39614,217.854778 C276.142604,221.140491 286.912173,225.154247 287.083766,217.081398 C286.906268,213.922828 285.476123,210.668654 286.305864,207.526182 C288.309841,201.042146 300.495447,226.389223 303.778647,201.015205 Z M294.369248,190.444182 L295.133273,190.938036 C297.949639,192.771262 301.573641,195.346266 301.762452,198.584777 C299.758427,201.506513 301.728703,210.777964 296.149146,209.016595 C294.092367,207.937871 292.57919,206.083712 290.955588,204.481692 C286.615932,200.717306 282.063294,206.284374 283.382163,210.831737 L283.51727,211.396904 C284.933129,217.418854 284.982138,221.147669 277.469368,217.474906 C273.255212,213.664289 266.240137,212.586548 264.643404,219.443167 C262.781259,223.256407 268.608859,231.546515 261.571831,230.931085 L260.207749,230.519683 C254.8204,228.914457 247.86281,227.275319 247.994848,235.613206 C248.974252,240.230407 241.461775,233.736751 239.450868,233.546253 C237.092958,232.045548 229.854741,232.794753 233.503995,228.540843 C250.071289,213.897411 270.430701,204.086597 288.969583,192.167517 C290.612189,191.485856 292.562805,189.996626 294.369248,190.444182 Z"
                              fill="#67C3CC" id="Shape"></path>
                        <path d="M147.069794,46.0662959 C147.562118,48.7967073 143.309035,47.6842325 141.658187,48.2751938 L141.649296,48.1880564 L141.649296,48.1880564 C136.873922,48.9899817 138.518513,41.2183822 137.222006,38.2118178 C136.598616,35.4011481 141.232385,35.6537153 143.029448,34.6486881 C145.874716,33.6462814 145.980096,43.9294664 147.069794,46.0662959 Z M133.570155,38.003876 C135.239952,40.1331342 134.836795,43.2871642 135.712504,45.8287642 C135.971913,46.6265556 135.594531,47.1320585 134.733362,46.8045541 L134.492178,46.6874669 C131.853596,45.3950972 128.416192,43.325366 127.90613,40.4987353 C129.746773,39.6458797 131.614844,38.8512895 133.570155,38.003876 Z M154.009619,33.1557257 C154.47847,36.6232294 154.893824,40.0976058 155.32978,43.5693639 L155.334928,43.7371945 C155.369647,45.0612081 155.211604,45.2626978 153.895646,45.7556978 L153.787335,45.786333 C152.288332,46.2279244 150.042485,47.5713162 149.742441,45.1853072 C149.741112,42.8219328 145.447019,33.1171103 148.62165,33.0019195 C150.227907,32.7777559 153.772369,30.4127453 154.009619,33.1557257 Z M166.60661,31.0906752 C165.97916,35.6976488 163.993004,39.9745013 159.766616,43.0107001 L159.650949,43.0926679 C158.7165,43.7448117 158.508915,43.6196766 158.340024,42.3952811 C158.598386,39.6021742 155.079856,30.9022215 158.698897,30.3764488 C161.157287,30.3800475 167.259435,26.2991739 166.60661,31.0906752 Z M133.679373,32.5530537 C134.317938,36.3965904 129.361462,36.1431885 126.872648,37.746978 C124.146521,39.1313706 124.022575,34.5452843 123.105355,32.9300508 C123.096128,30.3250778 129.856251,30.1311845 131.951746,28.8288615 C133.958663,28.2553553 133.253664,31.4030989 133.679373,32.5530537 Z M143.680077,30.6528996 C143.470852,32.8578191 139.749456,32.5148174 138.146704,33.5084085 C135.785594,34.008811 136.905043,30.1590553 136.482357,28.7690115 C136.351999,26.4873588 139.97139,26.8624968 141.492669,26.0869712 C143.858341,25.4780276 143.148216,29.2271127 143.680077,30.6528996 Z M153.484922,26.4926095 L153.473688,26.4932552 L153.473688,26.4932552 C154.47418,29.772824 150.249185,29.4235629 148.112733,30.3170515 C146.18378,31.563998 145.285717,24.8566988 146.962565,24.7876211 L147.132785,24.7541879 C149.944581,24.1697328 154.256873,21.7655953 153.484922,26.4926095 Z M132.601469,19.7399737 C134.51742,27.7890919 130.051419,25.8226135 123.795021,28.4173127 C123.594867,25.9984383 131.29364,16.8221802 132.601469,19.7399737 Z M164.340146,22.1165299 L164.566408,22.4551945 C166.294904,25.0681609 166.050352,25.4070551 162.782683,26.2285319 C160.061404,26.6480905 155.412072,29.3973392 156.09198,24.5899756 L156.080544,24.1294446 C156.049647,22.3622931 156.262463,22.2332813 158.233492,21.7734025 C160.303852,21.6078556 163.066637,19.6609725 164.340146,22.1165299 Z M142.283685,21.4134637 C142.638891,23.9344864 139.078205,23.4706053 137.485248,24.2944451 C134.89997,24.5871986 135.967247,20.318835 135.450192,18.6924639 C135.904895,16.8769342 138.615209,16.7326883 140.03703,15.7846004 C142.446529,15.2977708 141.561332,19.9910036 142.283685,21.4134637 Z M152.439753,17.8007259 C153.51241,21.3294714 148.780906,20.4829833 146.602459,21.5463879 C143.819781,21.9423572 144.876693,17.2009963 144.054978,15.4736852 C143.695785,13.4376855 146.454189,14.2732637 147.680694,14.1144266 L147.68135,14.1221281 L147.98217,14.0927973 C150.950449,13.8276651 152.711806,14.4289744 152.439753,17.8007259 Z M155.455307,16.0917313 C157.32818,16.2431497 158.857469,17.2155299 160.482759,17.9916269 L160.288398,18.4720534 L160.288398,18.4720534 L159.729702,18.6132484 C156.862258,19.3514446 154.820451,20.0073611 155.455307,16.0917313 Z"
                              fill="#EBBF5E" id="Shape"></path>
                    </g>
                </g>
                <g id="Master/Character/Standing"
                   transform="translate(437.500000, 157.000000) scale(-1, 1) translate(-437.500000, -157.000000) translate(375.000000, 15.000000)">
                    <g id="Legs/Loose-Pants-Leg-Back" transform="translate(0.000000, 86.951448)">
                        <g id="Group-15">
                            <path d="M6.01159414,131.24322 L1.11320409,109.966275 C1.05086934,109.676984 1.00205694,109.401579 1.00610621,109.136092 C1.01261097,108.870275 1.05053952,108.622311 1.11617241,108.406748 C1.14882394,108.298636 1.18873138,108.198789 1.23490527,108.1082 C1.28602636,108.015296 1.35759589,107.92636 1.42916542,107.850648 C1.58186907,107.694927 1.73589197,107.597064 1.96511235,107.528295 C3.26424771,107.15635 4.76357987,106.674639 6.27478531,106.164164 C7.79324665,105.650714 9.34930673,105.100565 10.9142718,104.533554 C14.0498087,103.393251 17.2239338,102.18418 20.4000378,100.942708 C26.7555439,98.4538128 33.1239127,95.8349847 39.4533635,93.1434206 C48.1970491,89.4147066 56.9123708,85.5431655 65.343723,81.4973885 L68.4795897,79.9712541 L70.0293834,79.2019052 L70.2088019,79.1116464 L70.2912553,79.0663516 L70.4581409,78.9777459 C70.5699477,78.9202183 70.6830737,78.8653357 70.7981786,78.813098 C71.6487676,78.3839553 72.4848448,77.9412573 73.3136662,77.4777304 C74.1375403,77.0092441 74.9630635,76.5338149 75.7120699,75.9492817 C75.8944568,75.7988503 76.079812,75.645774 76.2166846,75.4500479 C76.353887,75.2503544 76.3495994,74.9961089 76.364441,74.7633536 C76.3720267,74.2875937 76.3304702,73.8131564 76.2806684,73.3407027 C76.1771069,72.3957954 76.0280312,71.4565086 75.8690611,70.5195362 L75.6180731,69.1160612 L75.138854,66.6172475 C74.238793,62.0193379 73.250342,57.3596026 72.2279201,52.6942468 C70.1764802,43.3569228 67.9805819,33.9762878 65.7243278,24.6065632 L91.051036,18.4732618 C93.3379628,27.9715969 95.5665126,37.4871242 97.6746805,47.083653 C98.7271154,51.884893 99.749867,56.7023333 100.706986,61.5898646 L101.062195,63.4277721 L101.529541,65.9378268 C101.844513,67.6487769 102.134748,69.3627025 102.404866,71.0753056 C102.92729,74.4948914 103.359676,77.9353062 103.279861,81.2080974 C103.259412,82.8525932 103.020298,84.4031934 102.769639,85.9795818 C102.690484,86.3700421 102.596487,86.75389 102.474126,87.1400522 C102.421686,87.3331334 102.34352,87.5242308 102.271291,87.7159894 L102.244246,87.7877336 C102.116938,87.7407858 102.198732,87.7946766 102.165751,87.7930235 L102.148271,87.8277384 L102.077361,87.9659369 C102.028878,88.056857 101.985673,88.1524057 101.932243,88.2396889 C101.510082,88.9468816 101.059556,89.5905956 100.553623,90.1999252 C98.4622751,92.5777326 95.8287143,94.5892147 92.9365798,96.4029871 C90.0441154,98.211139 86.9771797,99.8582797 83.8934235,101.444256 L82.7476514,102.030773 L81.6635545,102.572326 L79.9788671,103.40879 L76.6141098,105.046343 C67.6494492,109.346696 58.6788519,113.327672 49.6360254,117.184997 C43.0948343,119.96682 36.5252793,122.668963 29.8722814,125.274236 C26.543144,126.57555 23.1942177,127.852398 19.785925,129.091556 C18.0788104,129.709812 16.3571839,130.319142 14.59565,130.915247 C12.8285093,131.510691 11.0402605,132.092248 9.08050873,132.654299 C8.75993001,132.749187 8.39812461,132.780596 8.0778757,132.756791 C7.91362858,132.744889 7.75927586,132.71877 7.60228464,132.680088 C7.44100584,132.641405 7.28797238,132.589498 7.14450351,132.525689 C6.85723595,132.39774 6.61020564,132.221189 6.41891381,132.004634 C6.22696236,131.788079 6.07491833,131.53152 6.01159414,131.24322"
                                  fill="#D29863" id="Fill-1"></path>
                            <path d="M16.1174755,132.913108 C18.0392987,132.255177 19.913299,131.583691 21.7691596,130.901295 L11.3097841,102.277018 C8.91500832,103.154809 6.52155177,104.005821 4.27222372,104.739794 C3.15778392,105.103474 2.05752609,105.445333 1.14823028,105.697595 L0.824023612,105.78554 L0.662085185,105.830173 L0.53246848,105.861913 L0.273564885,105.927044 C0.22310342,105.94093 0.201005916,105.944567 0.176929531,105.948865 L0.102721494,105.965065 L0.0288432705,105.982588 C0.0202681196,105.984572 -0.00479770617,105.991515 0.000809123284,105.989531 L0.0133420362,105.985233 L0.0199383061,105.98358 C0.0212575601,105.987217 0.0192786791,105.974653 0.0232364411,105.991515 L0.0591861123,106.175008 L0.129436387,106.541333 L0.397244947,108.011263 C0.568088338,108.992538 0.723100682,109.977781 0.861952164,110.965668 C1.17725387,112.603882 1.40647425,114.226227 1.54202759,115.881633 C1.56082696,116.080004 1.57105118,116.312429 1.59248906,116.483689 L1.65845176,116.9654 C1.69802938,117.286761 1.72903185,117.610436 1.75145917,117.934773 C1.79565417,118.583446 1.80488895,119.237079 1.77883369,119.891703 C1.80884671,119.143514 1.79235604,118.396977 1.73002129,117.656723 C1.69901882,117.286761 1.65647288,116.918783 1.60271328,116.552458 L1.58259465,116.412606 L1.57270025,116.26482 L1.58193503,116.269779 L1.6007344,116.280028 L1.67923001,116.326315 C1.69308218,116.334249 1.70462565,116.343507 1.72144614,116.351111 L1.80653802,116.363344 C1.92494106,116.37756 2.02619381,116.402026 2.16306641,116.411945 L2.60138855,116.430459 C2.56873701,116.921758 2.52586126,117.416033 2.47177184,117.912621 C2.42493833,118.405904 2.38700977,118.89026 2.31741913,119.385526 L2.26497878,119.75648 L2.22342228,120.119168 C2.19241981,120.361181 2.15416145,120.604847 2.10831737,120.850166 L1.97309384,121.574551 C1.92296218,121.813588 1.85831874,122.054939 1.77883369,122.296952 L1.77883369,136.344596 L1.77883369,148.179741 C2.2874061,148.175443 2.79663814,148.159904 3.30554036,148.133455 L4.06806917,148.085515 L4.44867394,148.055098 L4.75342162,148.026334 C5.35137349,147.961533 5.94899554,147.884499 6.5443089,147.796224 L6.90677394,147.737705 L7.21416012,147.684144 L7.82827285,147.572395 L8.43447006,147.455687 L8.90643317,147.354518 L9.84838052,147.144245 L10.6419118,146.94951 L11.4110369,146.754115 L12.0983682,146.568307 C12.3348445,146.503176 12.5703313,146.405974 12.7556865,146.285629 C12.9403821,146.165614 13.1089167,146.01915 13.2626098,145.848221 C13.569996,145.507022 13.824612,145.069284 14.0000728,144.56476 C14.1844386,144.059906 14.3275776,143.483307 14.4446614,142.859431 C14.5610856,142.235554 14.6326551,141.566382 14.7068631,140.872414 C15.0027058,138.096542 15.1013201,134.946411 16.1174755,132.913108"
                                  fill="#0A1B45" id="Fill-3"></path>
                            <path d="M55.6222723,8.39135215 C56.8435717,13.7787785 58.0516785,19.2346428 59.2327406,24.6647189 C60.4141326,30.1000849 61.5727674,35.5364428 62.6967718,40.9605678 C63.8204464,46.3846927 64.9111396,51.799891 65.9391683,57.1744232 C66.4530177,59.8613587 66.9507063,62.5373838 67.4203607,65.1862982 L68.1034045,69.1355346 L68.1842088,69.6235273 L68.2234566,69.8619032 L68.2214777,69.888022 L68.2168603,69.9901831 L68.2039976,70.1878929 C68.1845386,70.4461058 68.1584833,70.6838204 68.1185759,70.9016979 C68.0977976,71.0104714 68.0760299,71.1146162 68.0404101,71.2134711 C68.0199616,71.2610801 68.0064393,71.3149709 67.9533393,71.3506777 C67.9022182,71.3857232 67.8431816,71.4115115 67.7848046,71.4349854 C67.5476687,71.5259054 67.3131713,71.5811187 67.0984627,71.6257522 C66.9909435,71.6479036 66.8870523,71.6654264 66.7881082,71.6806348 C66.7350083,71.6892309 66.7030163,71.6918758 66.6149561,71.7008025 C66.5720804,71.7107211 66.5618562,71.7127048 66.5008407,71.7447748 L65.6192492,72.156064 C60.9062143,74.3523619 55.9702255,76.5136141 50.9986169,78.6239512 C46.0200821,80.7349495 40.9811915,82.7993306 35.924491,84.8121352 C30.4782807,86.9909103 25.0046959,89.1131496 19.5571664,91.1395096 C16.834556,92.1521937 14.1172226,93.140412 11.4332003,94.0830049 C8.75115698,95.0262591 6.08923224,95.9281861 3.57308507,96.7220008 L7.70235005,108.884789 C9.65550558,109.496103 11.6624207,110.064766 13.6881352,110.613923 C12.4582607,112.258419 11.2155234,113.89465 9.95266754,115.513688 L18.4150223,140.440329 C21.5634219,139.295728 24.5521918,138.135919 27.5027033,136.956603 C30.4525553,135.77861 33.3529352,134.582433 36.2338561,133.370386 C41.9943786,130.946953 47.6767353,128.463348 53.3350157,125.918578 C58.5783907,123.5454 63.79637,121.121306 69.0120406,118.619517 C74.2310094,116.112768 79.434477,113.546178 84.7124824,110.782208 L87.3239456,109.423036 L90.5943763,107.661171 C92.7652087,106.458381 94.9314237,105.247326 96.9930879,103.941383 C99.053103,102.639408 101.065295,101.286849 102.835404,99.7802207 C104.615078,98.2792133 106.191916,96.6677794 107.505234,94.9105427 L107.982144,94.2403793 C108.142763,94.0182037 108.257208,93.7662725 108.397049,93.5305416 C108.664528,93.0498225 108.931017,92.5667891 109.193219,92.0602818 C109.259182,91.9349774 109.325144,91.8100036 109.388139,91.6787482 L109.483455,91.4846752 L109.530948,91.3874734 L109.554365,91.3392031 C109.539193,91.3114311 109.77534,91.4053268 109.684971,91.3425093 C109.794139,91.0790064 109.908255,90.8148424 109.999283,90.5533232 C110.099876,90.2914735 110.189256,90.0296237 110.27039,89.7681046 L110.397038,89.37533 L110.486748,88.9719756 C110.717947,87.8928372 110.971244,86.8365115 111.155939,85.7418341 L111.280938,84.9166106 C111.325133,84.6428586 111.334368,84.3542288 111.362732,84.0732032 L111.434302,83.2264895 L111.463985,82.3612613 C111.592282,77.7316122 110.789516,72.811019 109.930022,67.9879582 C109.709707,66.7785563 109.482795,65.5708073 109.242691,64.3653728 L108.884843,62.5585434 L108.618024,61.2899607 L107.6708,57.0025017 C107.030632,54.161498 106.372984,51.3515725 105.703462,48.5555329 C104.365409,42.9647763 94.377403,10.9787054 91.3582903,0.00118365336 C91.3582903,0.00118365336 55.5404785,8.06602367 55.6222723,8.39135215 Z"
                                  fill="#CC2935" id="Fill-5"></path>
                            <path d="M83.5902589,192.163523 L61.8486234,193.513107 C61.2645237,193.564684 60.7150544,193.40202 60.3008087,193.105124 C59.8872225,192.811205 59.6111686,192.390658 59.5709314,191.90531 L59.5264066,191.364088 C59.5128842,191.186215 59.4977128,191.005036 59.4723172,190.799722 L59.3380831,189.610157 L59.2048384,188.420262 C59.1603136,188.023851 59.1197465,187.631737 59.0613695,187.213174 L58.7378225,184.740149 L58.5752245,183.502314 L58.393827,182.242327 C57.9218639,178.894155 57.3987797,175.495067 56.8575558,172.087384 C55.7751079,165.269041 54.6026209,158.395816 53.4057277,151.51697 C49.7071991,130.295569 45.7708751,108.992174 41.9338248,87.6319132 C40.0136507,76.9483112 38.1096373,66.2468558 36.269278,55.4994444 C34.4338659,44.7437676 32.6551817,33.9639557 31.08428,22.9626294 L56.883611,19.3102883 C58.3865711,29.8375078 60.1362317,40.462921 61.9498762,51.0856892 C63.7694572,61.7127555 65.6622569,72.3523852 67.5758348,82.9986273 C71.4013415,104.296401 75.3386551,125.60211 79.0744525,147.032463 C80.2838786,153.985698 81.4725265,160.950504 82.5879557,167.976475 C83.1460002,171.490287 83.689203,175.01501 84.1928282,178.58701 L84.3847797,179.922378 L84.5632088,181.276921 L84.9174285,183.988984 C85.0368209,184.89058 85.1308178,185.840447 85.238337,186.763864 L85.394009,188.158082 C85.4484282,188.615327 85.4817394,189.133075 85.5259344,189.617431 C85.6367517,190.953129 84.7742894,192.072272 83.5902589,192.163523"
                                  fill="#EDB98A" id="Fill-8"></path>
                            <path d="M87.1732538,184.816931 L86.7850633,181.816173 L86.3688387,178.864542 L56.2697292,183.259571 C56.4534353,184.557259 56.6470358,185.866979 56.8020481,187.126234 L57.0487486,189.033498 L57.1694604,189.981616 L57.2700535,190.893975 L57.4732186,192.718358 L57.5243397,193.174537 C57.5408304,193.32526 57.5474267,193.450918 57.5596298,193.590279 L57.6265819,194.40806 L57.6958427,195.22584 L57.7314626,195.634564 L57.7403675,195.736494 L57.7420166,195.807678 L57.7446551,195.945701 C57.7529005,196.313318 57.7693911,196.680936 57.794457,197.048552 L58.8676701,197.048552 L68.0747437,197.048552 L68.4540292,195.115555 C70.3587021,195.641916 72.2742589,196.285914 74.1908052,197.048552 L88.2042508,197.048552 L100.010585,197.048552 C99.986838,195.968761 99.9522076,194.888969 99.9066933,193.809512 L99.8704138,193.001423 L99.8209418,192.378813 L99.7200189,191.132592 C99.6471301,190.26535 99.0504975,189.563869 98.1375737,189.021133 C97.2200326,188.520839 95.9918071,188.118466 94.663978,187.726118 C92.0040321,186.950112 88.9671094,186.175443 87.1732538,184.816931"
                                  fill="#0A1B45" id="Fill-10"></path>
                            <path d="M22.7567516,0 C22.7567516,0 22.7567516,0.111287513 22.7567516,0.333854403 L22.9437244,3.26362145 C22.9506504,3.53307886 22.9526293,3.84045988 22.9681306,4.05868712 L23.1244622,6.90029834 C23.1528261,7.36702516 23.1755832,7.86335904 23.2102137,8.30613411 L23.3167434,9.62181807 L23.5327713,12.2538513 C23.5670719,12.7002857 23.6099476,13.117113 23.6521638,13.5375996 L23.7784823,14.80039 L24.0317791,17.3263037 L24.5861956,22.2710133 C25.3576293,28.8001989 26.2082184,35.1969843 27.098385,41.5538505 C28.8849847,54.254941 30.808457,66.810325 32.7593038,79.3394289 L38.686712,116.791346 C40.6646036,129.239612 42.6375479,141.665258 44.5105587,154.01805 C45.4188651,159.992353 46.2912218,165.940708 47.1180642,171.842158 L47.7262403,176.255604 L48.2958282,180.623142 C48.6586231,183.509663 49.0059167,186.380216 49.2852687,189.113712 L62.0008983,187.494639 C62.9784655,185.654012 63.9622992,183.793092 64.8996291,181.884935 C66.2670359,183.458766 67.5928861,185.02062 68.9309395,186.61175 L94.9908232,183.293764 C94.5162215,180.024015 94.000723,176.88334 93.4746705,173.75963 L92.6702554,169.112654 L91.8401148,164.512584 C90.7227067,158.397897 89.5736365,152.33444 88.398511,146.302919 C85.9789992,133.817061 83.4869284,121.420358 80.9981557,109.042616 L73.570426,71.991226 C71.1324446,59.6673753 68.7287638,47.3538377 66.4942774,35.1118227 C65.3811568,28.994807 64.3175083,22.8964206 63.3570914,16.8812 L62.668111,12.4015539 C62.4652757,10.9398306 62.2426516,9.44916572 62.0539983,8.0100636 L61.7924562,5.8846768 L61.6608606,4.82181706 C61.6179848,4.4701918 61.5952277,4.1598168 61.5609271,3.82682068 L61.3666669,1.86077966 L61.2640949,0.251353868 C61.2542005,-0.00413166541 22.7567516,0 22.7567516,0 Z"
                                  fill="#FA3239" id="Fill-13"></path>
                        </g>
                        <path d="M22.7570829,0.00118365336 C22.7570829,18.260732 38.1139863,33.0630206 57.0576866,33.0630206 C76.0013869,33.0630206 91.3582903,18.260732 91.3582903,0.00118365336"
                              fill="#FA3239" id="Waist"></path>
                    </g>
                    <g id="Body/Short-Tee-Shake-Hand" transform="translate(15.501105, 38.976058)">
                        <g id="body" transform="translate(5.936724, 0.036909)">
                            <rect fill="#EDB98A" height="15.8696817" id="SKIN" width="59.3664295" x="5.93664295"
                                  y="33.3924553"></rect>
                            <path d="M13.1925399,0 L58.0471755,0 C65.3332141,0 71.2397154,5.92091544 71.2397154,13.2247348 L71.2397154,38.6823493 L71.2397154,38.6823493 L0,38.6823493 L0,13.2247348 C0,5.92091544 5.90650129,0 13.1925399,0 Z"
                                  fill="#0A1B45" id="Path"></path>
                        </g>
                        <g id="Arm">
                            <path d="M99.1205473,75.2035579 C100.075028,86.897199 90.1116916,87.9191404 80.9986149,88.1062704 C74.2793245,88.4435011 67.5692689,88.3932471 60.8278811,87.7535006 C48.2550607,86.5100449 35.2610686,83.0488012 25.2377066,74.9129443 C17.5101764,68.6255748 12.1358654,59.7279732 8.95085648,50.5258721 C5.35028253,40.2290936 4.00167515,29.1642886 3.84039635,18.5312712 C3.71935479,12.1731494 8.7681398,6.98409406 15.042182,7.47869915 C20.7532325,7.93594435 25.486386,12.5523686 25.6064381,18.2310698 C25.6921896,24.1547591 26.2245086,30.0215821 27.3683018,35.5412558 C29.6328013,46.5045609 34.3768386,56.9640036 44.7784967,61.5553009 C53.9265336,65.7379539 64.3746954,66.5116009 74.3832158,66.4911026 C84.2439797,66.7704751 95.9487309,61.829053 99.1205473,75.2035579"
                                  fill="#EDB98A" id="SKIN"></path>
                            <path d="M106.820274,81.8876033 C107.142172,83.5000291 106.004645,85.0850136 104.286317,85.3914968 C96.8246166,86.7176071 89.3358713,87.640363 81.702338,88.0661994 C79.9460811,88.1624094 78.4708253,86.8772958 78.4180552,85.2394124 C78.3639657,83.5922716 79.6884967,82.2168992 81.371535,82.1243261 C88.7333021,81.7150205 96.0132754,80.8187141 103.242128,79.5329393 C104.896142,79.2380277 106.497387,80.2774919 106.820274,81.8876033"
                                  fill="#EDB98A" id="SKIN"></path>
                            <path d="M109.425603,75.9332326 C109.797633,77.5334255 108.715185,79.1488269 107.04402,79.4847351 C103.596809,79.5849125 94.7578074,83.672678 93.9091972,78.6281029 C93.272987,73.8509981 102.634413,74.9390632 105.871863,73.6503128 C107.46816,73.3296129 109.051594,74.3327091 109.425603,75.9332326"
                                  fill="#EDB98A" id="SKIN"></path>
                            <path d="M108.857136,70.634941 C109.961682,75.6157067 100.371365,74.7947813 97.2134008,75.832923 C95.5837923,76.0706376 94.0897371,74.9309961 93.8783267,73.299725 C93.1883568,68.5566739 102.27241,69.6096934 105.449833,68.3368127 C106.989073,68.0217334 108.493022,69.0340868 108.857136,70.634941"
                                  fill="#EDB98A" id="SKIN"></path>
                            <path d="M96.4810829,64.5727556 C97.094536,69.6064203 88.257843,68.0961556 85.037544,68.9415468 C83.9738954,69.2268704 81.4442259,66.7690535 81.1022093,66.2410559 C82.9452071,66.1263313 82.1322169,63.2096161 85.4448636,62.934211 C88.7809272,63.2562333 95.4632784,59.8025938 96.4810829,64.5727556"
                                  fill="#EDB98A" id="SKIN"></path>
                            <path d="M105.288126,66.0075732 C105.630142,67.6147091 104.648287,69.1844851 103.077386,69.4793967 C97.8307127,70.4603414 92.5157682,71.230021 87.2004939,71.7322303 C85.6098034,71.8968782 84.2199693,70.647802 84.0976085,69.0162004 C83.9752477,67.3703821 85.1088167,65.9669072 86.6345339,65.8082103 C91.7614847,65.3245157 96.9181187,64.5773182 101.977128,63.631419 C103.480418,63.3494015 104.947428,64.4004373 105.288126,66.0075732"
                                  fill="#EDB98A" id="SKIN"></path>
                            <path d="M2.27068199,39.5661707 C1.06983105,28.8941404 -3.39848221,12.8260876 4.95371479,4.89752847 C10.5466921,-0.745796483 19.2296522,0.0369094456 23.3318387,0.0369094456 C27.4340252,0.0369094456 29.2385422,12.5880424 29.22469,16.1359081 C29.1979751,22.2774749 29.663342,28.3621754 30.7586526,34.0018636 L2.27068199,39.5661707 Z"
                                  fill="#0A1B45" id="Fill-18"></path>
                        </g>
                        <path d="M26.3851607,0.0369094456 C26.3851607,6.06256049 33.1776374,10.9473156 41.5565816,10.9473156 C49.9355258,10.9473156 56.7280025,6.06256049 56.7280025,0.0369094456"
                              fill="#EDB98A" id="SKIN"></path>
                    </g>
                    <g id="Head/Layered" transform="translate(39.907385, 0.000000)">
                        <path d="M40.5670601,21.3248849 L40.5670601,15.6604003 C40.5670601,14.4070261 39.7550593,13.3913664 38.7530859,13.3913664 C37.7511125,13.3913664 36.9391117,12.3753762 36.9391117,11.1223326 L36.9391117,8.41655184 C36.9391117,3.76805756 31.2795121,0 27.6103369,0 L23.7465718,0 L23.7465718,37.0292574 L37.6224852,37.0292574 C41.6165267,37.0292574 44.8546356,32.7847788 44.8546356,27.548445 L44.8546356,25.6229237 C44.8546356,24.4360037 44.1208006,23.4739043 43.2151327,23.4739043 L42.206563,23.4739043 C41.3008952,23.4739043 40.5670601,22.5118048 40.5670601,21.3248849"
                              fill="#000000" id="Fill-1"></path>
                        <path d="M16.7548555,37.0292574 L23.0869448,37.0292574 L23.0869448,0 L16.7548555,0 C7.50127818,0 0,7.5195842 0,16.7957438 L0,20.2335136 C0,29.5096732 7.50127818,37.0292574 16.7548555,37.0292574"
                              fill="#000000" id="Fill-4"></path>
                        <g id="head" transform="translate(4.947202, 3.636802)">
                            <g fill="#EDB98A" id="SKIN">
                                <path d="M4.28757546,20.4983389 L19.1291828,20.4983389 L19.1291828,37.5691572 C19.1291828,42.1664056 15.8066417,45.8931359 11.7083791,45.8931359 C7.61011663,45.8931359 4.28757546,42.1664056 4.28757546,37.5691572 L4.28757546,20.4983389 Z"
                                      id="Path"></path>
                                <path d="M19.806125,31.0781268 L18.1613451,31.0781268 C10.499118,31.0781268 4.28774037,24.851591 4.28774037,17.170665 L4.28774037,10.6469034 C4.28774037,4.76685566 9.04266155,0 14.9087244,0 L16.7533713,0 C22.6194342,0 27.3746852,4.76685566 27.3746852,10.6469034 L27.3746852,23.4910964 C27.3746852,27.6813536 23.9861813,31.0781268 19.806125,31.0781268"
                                      id="Path"></path>
                                <path d="M8.24533743,19.3411746 C8.24533743,21.6234332 6.3997011,23.4739043 4.12266871,23.4739043 C1.84563633,23.4739043 0,21.6234332 0,19.3411746 C0,17.058916 1.84563633,15.208445 4.12266871,15.208445 C6.3997011,15.208445 8.24533743,17.058916 8.24533743,19.3411746"
                                      id="Path"></path>
                            </g>
                            <path d="M3.32023247,17.5784828 C3.61865792,17.5784828 4.03163606,17.6474805 4.4553913,17.8598751 C5.16336216,18.2147244 5.61112774,18.8635395 5.64116633,19.8047361 L5.64277912,19.9066974 L4.65333863,19.9066974 C4.65333863,19.2998852 4.422036,18.9520845 4.01290005,18.7470173 C3.86096639,18.6708651 3.69314676,18.6203963 3.52449884,18.5922197 C3.44151486,18.5783553 3.3768196,18.5724025 3.33936486,18.5708034 L3.32023247,18.5703379 L3.32023247,17.5784828 Z"
                                  fill="#000000" id="ear-line"></path>
                            <path d="M11.4612664,31.8490548 C8.39566391,30.7619463 6.8662494,28.0161954 6.26059308,24.3229971 C8.65866372,28.3241658 13.0080497,31.016409 17.9893284,31.0770797 L18.1613451,31.0781268 L19.1291828,31.0781268 C16.5115226,32.4765893 13.9555504,32.7335653 11.4612664,31.8490548 Z"
                                  fill="#000000" id="SHADOW" opacity="0.12"></path>
                        </g>
                        <path d="M9.01678732,18.8452471 L8.51026684,18.8452471 C6.57981713,16.9633673 5.83817353,13.1281942 5.61459224,9.405762 C5.30823969,4.30465117 14.1420094,0 19.2392013,0 L25.1700415,0 L31.9919092,8.59607761 L19.4693779,8.59607761 C17.234884,14.5753108 12.9739784,18.8452471 9.01678732,18.8452471"
                              fill="#000000" id="Fill-15"></path>
                    </g>
                    <g fill="#000000" id="Expression/Happy" transform="translate(56.068259, 14.216590)">
                        <path d="M3.81286176,4.29803881 C3.81286176,3.75020417 3.36992223,3.3061837 2.82342127,3.3061837 C2.2769203,3.3061837 1.83398078,3.75020417 1.83398078,4.29803881 C1.83398078,4.84587345 2.2769203,5.28989392 2.82342127,5.28989392 C3.36992223,5.28989392 3.81286176,4.84587345 3.81286176,4.29803881"
                              id="Fill-1"></path>
                        <path d="M12.3880127,4.29803881 C12.3880127,3.75020417 11.9450732,3.3061837 11.3985722,3.3061837 C10.8520712,3.3061837 10.4091317,3.75020417 10.4091317,4.29803881 C10.4091317,4.84587345 10.8520712,5.28989392 11.3985722,5.28989392 C11.9450732,5.28989392 12.3880127,4.84587345 12.3880127,4.29803881"
                              id="Fill-3"></path>
                        <polygon id="Stroke-5"
                                 points="7.98074226 3.43736183 8.95363739 3.25673443 10.3676811 10.910274 7.11099673 10.910274 7.11099673 9.91841885 9.17803686 9.91822048"></polygon>
                        <path d="M4.26180389,10.7735302 C4.26180389,11.9883089 5.49599294,13.1117272 6.82103905,13.1553158 L6.90064168,13.1566274 L6.90064168,14.1484825 C5.0544544,14.1484825 3.32981754,12.6388844 3.27376821,10.8625628 L3.2723634,10.7735302 L4.26180389,10.7735302 Z"
                              id="Stroke-7"></path>
                        <path d="M4.6373955,0 L4.6373955,0.991855109 C3.57327653,0.991855109 2.60267508,1.2780228 1.74442467,1.75599215 C1.48694079,1.89938785 1.25613823,2.05128689 1.05395929,2.20373552 L0.955264085,2.27996878 C0.840573289,2.37073516 0.760249256,2.44144517 0.716261535,2.4834659 L0.699640089,2.49969315 L0,1.79834566 C0.236526755,1.5612417 0.66352162,1.22331782 1.26390989,0.888954803 C2.21751472,0.357881458 3.29464392,0.0294396846 4.47570005,0.00188344689 L4.6373955,0 Z"
                              id="Stroke-9"></path>
                        <path d="M9.25478446,0 C10.49936,0 11.6313196,0.333741755 12.6282701,0.888954803 C13.1911341,1.20242013 13.6016015,1.51901512 13.8456033,1.75273269 L13.89218,1.79834566 L13.1925399,2.49969315 L13.1293619,2.44062352 C13.092453,2.40764645 13.043863,2.36610686 12.9839593,2.31761556 L12.9369159,2.27996878 C12.7122348,2.1021561 12.4481531,1.92328713 12.1477553,1.75599215 C11.3324174,1.30192125 10.4156827,1.02095138 9.41369856,0.993989582 L9.25478446,0.991855109 L9.25478446,0 Z"
                              id="Stroke-11"></path>
                    </g>
                    <g fill="#000000" id="Glasses/Thick" transform="translate(46.173841, 14.877867)">
                        <path d="M14.3618166,0 C16.2563263,0.00810119812 18.1468092,0.446833897 18.8276659,1.31385328 C19.1601374,1.73723056 19.3525397,2.31916063 19.4282855,2.97541551 L20.4861664,2.97541551 C20.5619121,2.31916063 20.7543146,1.73723056 21.086786,1.31385328 C21.7521686,0.466538884 23.5728194,0.0282648157 25.4234846,0.00128632697 L25.5526353,0 L25.6913902,0 L26.6537768,0.0124803012 C30.0401624,0.0684277732 31.3255681,0.241607986 31.6270817,0.890521938 C31.960451,1.60799526 32.1477335,2.5948612 31.8500707,3.10696608 L31.8054084,3.1764734 C31.7481034,3.2666251 31.6023297,3.53846058 31.4416861,3.86076684 L31.4070616,3.93055717 L31.2651992,4.22347876 C31.0609291,4.65332959 30.8777037,5.07438865 30.7424285,5.43268239 L30.7201149,5.51705557 L30.7201149,5.51705557 C30.4263127,6.60035727 29.8434339,7.6693837 29.2539737,8.37669595 C28.1493219,9.70220321 23.4540865,9.78900703 22.1083803,8.41671115 C21.2412531,7.5324505 20.615906,5.865714 20.477346,4.29793217 L19.4371059,4.29793217 C19.2985459,5.865714 18.6731988,7.5324505 17.8060716,8.41671115 C16.4603654,9.78900703 11.76513,9.70220321 10.6604782,8.37669595 C10.071018,7.6693837 9.48813916,6.60035727 9.19433698,5.51705557 L9.17202344,5.43268239 C9.04457662,5.09512325 8.87456891,4.70185306 8.6844996,4.29800686 L0,4.297998 L0,2.97552452 L8.00221359,2.97567802 C7.79753862,2.43907462 7.98060349,1.55074153 8.28737018,0.890521938 C8.60715731,0.202279867 10.0337101,0.0491836483 13.8997816,0.0035200475 L14.2230617,0 L14.3618166,0 Z M10.8357913,2.17487539 C10.2681916,2.955482 10.157472,3.93567048 10.3580924,4.91076383 L10.4331277,5.11342165 L10.4069129,5.12400462 C10.6183385,5.96296367 11.0532186,6.78704189 11.6183315,7.46513901 C12.2311204,8.20044422 16.0903121,8.27179157 16.9205748,7.42512378 C17.9768176,6.34801079 18.5950273,3.29264417 17.8859128,2.25070994 L17.8451464,2.19492149 L17.8036365,2.14659042 C16.8254946,1.09941423 11.6062876,1.11522984 10.8357913,2.17487539 Z M29.0786606,2.17487539 C28.3198385,1.13128507 23.2460938,1.10013312 22.1581671,2.09972352 L22.1108154,2.14659042 L22.0693055,2.19492149 L22.0285391,2.25070994 C21.3194246,3.29264417 21.9376343,6.34801079 22.9938771,7.42512378 C23.8241398,8.27179157 27.6833315,8.20044422 28.2961204,7.46513901 C28.8279913,6.82692994 29.2445004,6.05940892 29.467928,5.27187504 L29.507539,5.12400462 L29.4813242,5.11342165 L29.5563595,4.91076383 L29.5563595,4.91076383 C29.7569799,3.93567048 29.6462603,2.955482 29.0786606,2.17487539 Z"
                              id="Shape"></path>
                    </g>
                </g>
                <g id="Master/Character/Standing" transform="translate(121.000000, 4.000000)">
                    <g id="Group-20" transform="translate(0.000000, 97.670016)">
                        <path d="M181.596094,187.668494 L160.550434,194.252816 C159.418321,194.606581 158.221695,193.966126 157.877959,192.822092 C156.836494,189.386587 155.830098,185.944272 154.761504,182.513873 L151.538852,172.226764 C149.325574,165.383332 147.120898,158.536155 144.797783,151.719281 C139.675484,136.531894 134.287525,121.413285 128.685516,106.365498 C127.440919,103.053929 128.891625,99.3855311 131.925702,98.1710171 L145.437616,92.7763537 C148.471692,91.5621799 151.958019,93.3095552 153.22412,96.6790064 C158.9181,111.974327 164.40167,127.359877 169.62719,142.85336 C171.995629,149.804727 174.250261,156.80342 176.512171,163.798709 L179.810915,174.329607 C180.905313,177.842062 181.940162,181.378011 183.007431,184.901362 C183.3601,186.075699 182.728208,187.314728 181.596094,187.668494"
                              fill="#8C6345" id="SKIN-DARKER"></path>
                        <path d="M83.8477029,2.0364376 C82.9436711,2.46213163 82.6871262,3.88541854 83.275028,5.21452232 C88.6230828,17.3022607 93.8109207,29.4763619 98.8938237,41.6943245 C101.449675,47.7971858 103.928397,53.933368 106.42698,60.0607098 C108.877234,66.2077723 111.354632,72.3439545 113.743977,78.5131179 C116.173707,84.6680006 118.510088,90.8551848 120.878247,97.0318281 C123.185498,103.227852 125.53181,109.411636 127.771531,115.628741 C130.057596,121.831225 132.244353,128.062951 134.455606,134.286856 L137.688405,143.644984 C138.222681,145.205636 138.77086,146.762887 139.294543,148.326259 L140.86162,153.016713 L143.040432,159.541868 L145.157343,166.079604 L147.267633,172.619039 L149.305097,179.171735 L183.10516,167.989787 L180.964084,161.239884 L178.754155,154.520243 L176.537606,147.804001 L174.261803,141.113941 L172.626866,136.304482 C172.080342,134.70167 171.510978,133.109397 170.954192,131.511344 L167.589314,121.934589 C165.292656,115.573999 163.018177,109.203889 160.649024,102.876281 C158.324229,96.5289515 155.896485,90.2282039 153.504823,83.9114759 C151.055893,77.6202485 148.636094,71.3164407 146.125925,65.0530944 C143.655147,58.7727473 141.097972,52.5308217 138.566617,46.2773355 C135.987594,40.0452703 126.062646,15.1748106 120.878247,1.79832105e-05 C120.878247,1.79832105e-05 108.534732,0.678824523 83.8477029,2.0364376 Z"
                              fill="#3E36B9" id="Fill-3"></path>
                        <path d="M180.441485,176.861971 C178.707385,177.421147 172.454688,179.43832 166.624006,181.319093 C166.654149,181.394419 166.686943,181.468387 166.710793,181.547446 C167.32957,183.597871 165.564995,185.979459 162.768905,186.866744 C159.973145,187.754707 157.210842,186.831795 156.599352,184.806139 C156.575833,184.728438 156.562252,184.649041 156.545689,184.570322 C155.782487,184.815979 155.341923,184.958487 155.341923,184.958487 L158.775341,196.329984 L195.334205,185.007008 L194.185095,181.200336 C193.264217,178.149976 183.072944,180.548868 180.441485,176.861971"
                              fill="#D7DBE2" id="Fill-5"></path>
                        <path d="M183.10516,168.241162 L149.197617,179.501701 L147.502156,174.077632 C146.940537,172.26847 146.33717,170.468191 145.756996,168.662446 L179.557517,157.063991 C180.155252,158.924062 180.774524,160.774226 181.354698,162.642156 L183.10516,168.241162 Z"
                              fill="#D7DBE2" id="Fill-8"></path>
                        <path d="M10.7258155,74.8978748 L24.9729908,57.6185821 C25.7394904,56.6894741 26.9707155,56.4734105 27.7653102,57.1465188 C30.1659513,59.1784732 32.709712,61.1728811 35.2766098,63.0485051 C37.848796,64.9261772 40.4652733,66.6946225 43.0919971,68.3156121 C45.7183904,69.9236311 48.358666,71.4039917 50.9569639,72.6430298 C53.5532791,73.8943561 56.1115831,74.915624 58.4993335,75.6361778 C59.5120782,75.9502038 60.4765655,76.176166 61.4070081,76.3792593 C62.3311706,76.5673335 63.1948459,76.6837281 64.0013398,76.7663306 C64.7959346,76.8308426 65.5115323,76.8342558 66.1497864,76.8089972 C66.7810989,76.7748639 67.3043285,76.6803146 67.7614515,76.5833761 C68.2245245,76.493947 68.5649709,76.3362512 68.8988063,76.1963049 C69.2323112,76.0597717 69.5132619,75.8734041 69.8216467,75.6460764 C70.4311443,75.222141 71.131538,74.4630165 71.9224968,73.3157968 C72.0897452,73.0440959 72.3888749,72.8655789 72.8046819,72.7829764 C73.2244555,72.6290352 73.7533038,72.546774 74.3545382,72.5621339 C75.5560158,72.590806 77.056623,72.9440854 78.5036843,73.7093536 L91.3761842,80.5551251 C92.8235763,81.3203936 93.8472284,82.5563597 94.2838588,84.0162403 C94.5013478,84.744303 94.5810054,85.5222006 94.4904401,86.3048768 C94.3545923,87.0988171 94.0630644,87.899584 93.5894147,88.6334495 C91.3712262,91.9378927 88.5931197,95.1419843 85.1202385,97.6842313 C83.4021423,98.9574028 81.5415876,100.083119 79.5898066,100.962733 C77.6452972,101.846444 75.6270797,102.564267 73.6062178,103.018922 C71.5876698,103.484842 69.5661469,103.774292 67.5899065,103.88386 C65.617302,103.984894 63.6817169,103.945641 61.8000083,103.786239 C59.9272242,103.611476 58.0960867,103.342847 56.3218003,102.981376 C54.5554467,102.608981 52.820163,102.18095 51.1470188,101.667585 C47.1773508,100.466777 43.4479783,98.942384 39.8881674,97.2316241 C36.3214158,95.5263251 32.9334809,93.6196397 29.6447051,91.6054348 C26.364523,89.5816721 23.1970518,87.4363954 20.1171711,85.1887185 C17.0369598,82.9369458 14.0489665,80.5954024 11.1122054,78.1108408 C10.1308611,77.2800367 9.95700222,75.8263001 10.7258155,74.8978748"
                              fill="#B18058" id="SKIN"></path>
                        <path d="M52.5939829,0 C52.0973736,-0.00922070905 52.1090279,3.54384528 52.1768981,4.66973772 C52.2931044,5.85863386 52.4308309,7.04787055 52.5894148,8.23165829 C52.7711738,9.34460944 52.9850469,10.4013682 53.203224,11.48435 C53.6677195,13.524647 54.1990913,15.485934 54.7761515,17.213256 L55.2091949,18.5417818 L55.6564745,19.7667774 C55.9560954,20.5711809 56.2593582,21.4304146 56.5665941,22.1578515 L57.492936,24.413042 L58.4212646,26.5224727 L58.6546711,27.0493196 L58.8847666,27.5451754 L59.3452893,28.5365465 L59.807136,29.5275771 L60.2607057,30.4743349 L61.1645349,32.3450328 L62.0441955,34.1322935 C63.1976539,36.4729647 64.3206531,38.7094244 65.3214867,40.7963779 C65.8482237,41.8701649 66.2958342,42.8588114 66.7815183,43.8856009 L67.4416779,45.36193 L67.7707641,46.0975401 L68.0683989,46.8089706 C68.9063443,48.732115 69.544984,50.5067749 70.1289966,52.2197935 C70.3776326,53.0507605 70.6659971,53.8953503 70.843121,54.6650165 L71.0007117,55.2538454 L71.0795071,55.5460461 L71.1341342,55.8242839 C71.2079633,56.1944732 71.2867587,56.5636405 71.3695272,56.9317862 C71.4195192,57.1207972 71.4334242,57.2890339 71.4592477,57.4627199 L71.537381,57.9807119 L71.6231288,58.4970013 C71.6618645,58.6734116 71.6519322,58.8239392 71.6711344,58.987749 C71.696627,59.3099189 71.7290723,59.6300456 71.7681388,59.9505129 C71.7800575,60.2580389 71.7724428,60.5512615 71.7876722,60.8516358 L71.8115093,61.2998129 L71.7827059,61.7210862 C71.7654901,62.0010266 71.7618485,62.281989 71.7585377,62.5619295 C71.7138429,62.8282479 71.6787491,63.0945661 71.6529254,63.3619058 C71.6380271,63.4957461 71.6337231,63.631289 71.6168384,63.7637671 L71.5271176,64.1523464 C71.4714976,64.4121939 71.4284579,64.6737443 71.3887294,64.9369974 C71.3033125,65.1944609 71.2261723,65.4536273 71.1583025,65.7151778 L71.0629536,66.1102277 C71.0235559,66.2420245 70.9586656,66.3731402 70.9109908,66.5059589 C70.8083584,66.7705741 70.7140027,67.0375736 70.6275926,67.3086594 C70.5961405,67.4442027 70.5133724,67.5807672 70.4498065,67.7176725 L70.2564596,68.1311127 L70.0733766,68.5489804 C70.0084863,68.689291 69.9717371,68.8299425 69.8757258,68.9729779 C69.7091963,69.2580269 69.548626,69.5458005 69.3936837,69.8369796 L69.1652434,70.2759618 C69.1467032,70.3106991 69.1271701,70.353269 69.1099543,70.3825571 L69.0606243,70.4533937 L68.9649442,70.5967696 C68.4666794,71.395043 68.0472103,71.8520751 67.8002298,72.081272 C67.7714265,72.1269073 67.737988,72.1313345 67.711171,72.1524494 C67.683692,72.1715207 67.6601858,72.1953598 67.6393283,72.2236264 C67.6138357,72.2307781 67.5919847,72.2399732 67.5731137,72.254958 C67.5545734,72.2696019 67.5413307,72.297528 67.5201421,72.2931005 C67.4840552,72.3022956 67.4638597,72.3404384 67.4281036,72.3377139 C67.4115501,72.3390763 67.4092326,72.3670024 67.3877128,72.3629154 C67.3685105,72.3629154 67.352619,72.3680239 67.3387139,72.3792623 C67.330106,72.3973121 67.3006406,72.3905009 67.2797832,72.396631 C67.256277,72.4000366 67.2433651,72.4187675 67.2168793,72.4259192 C67.1460295,72.4194485 67.1175573,72.4712137 67.0215461,72.4698516 C66.9808243,72.4759817 66.943413,72.489604 66.9030222,72.5045884 C66.8487262,72.5066319 66.7954234,72.5124215 66.743445,72.5240007 C66.7172901,72.5294494 66.6914663,72.5366011 66.6656428,72.5444342 L66.5653277,72.5498832 C66.498451,72.5546509 66.4322363,72.5641866 66.3656908,72.5778089 C65.77307,72.6251469 64.8672547,72.6176547 63.7296881,72.469511 C62.5775541,72.3057012 61.2049258,71.9978347 59.7144355,71.5435272 C56.9741449,70.7146036 53.856762,69.3782446 50.6864075,67.712564 C47.5081075,66.0458618 44.2546537,64.0535838 41.0386112,61.8590131 L21.4834574,92.35551 C25.6831175,95.1821606 30.056591,97.8450021 34.7197533,100.254807 C39.3865575,102.65746 44.3360978,104.826489 49.8136993,106.460157 C52.8075919,107.344251 55.9590753,108.067942 59.3141683,108.502157 C62.6795245,108.917981 66.2570989,109.046372 70.0041824,108.647916 C73.7506035,108.219491 77.669514,107.277161 81.3993817,105.5747 C85.118655,103.887564 88.6263724,101.538719 91.50141,98.7794994 C94.401609,96.033221 96.7469296,92.9726051 98.6287479,89.8905342 L98.9846515,89.3105599 L99.1614445,89.0200622 L99.3147313,88.7418243 L99.9146353,87.6319381 L101.097228,85.4026301 C101.300507,85.0389118 101.463725,84.6322828 101.642836,84.2440437 L102.165931,83.0643428 L102.682074,81.8815769 C102.85059,81.484824 103.031687,81.0989693 103.170738,80.68008 L104.044108,78.202844 C104.183821,77.7873606 104.335121,77.3783475 104.461591,76.9563932 L104.810542,75.6745241 C105.039975,74.8186961 105.26345,73.9611651 105.480964,73.1032935 C105.653785,72.2304376 105.815348,71.3545162 105.97327,70.4785952 L106.205021,69.163351 C106.264945,68.7230067 106.308647,68.2809594 106.358639,67.8399336 C106.454981,66.95652 106.545695,66.0720849 106.629457,65.1879903 C106.671503,64.3079826 106.698651,63.4276341 106.725137,62.546945 L106.756257,61.2269332 L106.714542,59.9246303 C106.680773,59.058245 106.655942,58.1857292 106.59966,57.3258145 L106.343078,54.7814881 C106.267263,53.9246384 106.128212,53.1066126 105.993796,52.2841593 L105.790518,51.0503093 C105.720661,50.6402747 105.657757,50.223088 105.565388,49.8307627 L105.042293,47.4458185 L104.908209,46.8501785 L104.756246,46.2732693 L104.446031,45.1235376 C104.04775,43.5688798 103.563721,42.1143466 103.092273,40.638358 C102.10369,37.7585799 101.034655,34.9591739 99.8851699,32.3562713 L99.4590789,31.3662624 L99.0233872,30.4069039 L98.1496857,28.4932954 C97.561038,27.2648943 96.9707347,25.9980098 96.3807629,24.8159249 C94.0215372,20.0038074 91.6719126,15.5601761 89.8142622,11.5010375 L89.1411911,10.0035937 L88.5426111,8.57017523 C88.3270828,8.08215229 88.1857147,7.65066235 88.0092525,7.19601428 L87.7523401,6.5227265 L87.5490613,5.89541438 C86.985575,4.21951697 85.2580367,0.0112129111 84.7610962,0 L52.5939829,0 Z"
                              fill="#694FD9" id="Fill-12"></path>
                        <path d="M17.865522,83.5986685 C18.9372417,82.0972277 22.8029699,76.6847177 26.4072143,71.6376521 C26.3414302,71.5969718 26.2739932,71.5586647 26.2108536,71.5112043 C24.5642663,70.271473 24.7163302,67.3133394 26.5136591,64.9535446 C28.3123103,62.5910381 30.9651637,61.6336956 32.474563,62.7693532 C32.532744,62.8134235 32.5839829,62.8646129 32.6378664,62.9134291 C33.1092644,62.2527137 33.3819876,61.8713363 33.3819876,61.8713363 C31.9734134,60.811954 30.5770703,59.724774 29.2177515,58.6162366 C28.538092,58.0629851 27.8650441,57.504648 27.2121611,56.9493626 L26.2558116,56.1242309 L25.4779718,55.4343614 L0,84.5061776 L1.04163755,85.442163 L1.9252609,86.2154272 L3.64358271,87.6802557 C5.01149644,88.8247274 7.48881532,87.4304111 10.1486109,85.9384621 C12.8153484,84.4468523 15.6543149,82.8545588 17.865522,83.5986685"
                              fill="#D7DBE2" id="Fill-14"></path>
                        <path d="M21.4834574,92.3331795 L40.9797208,61.7037217 C43.6222439,63.5114379 46.2874849,65.1723796 48.9161799,66.632957 L32.2168558,98.989917 C28.4789333,96.913228 24.9188034,94.6819135 21.4834574,92.3331795"
                              fill="#D7DBE2" id="Fill-16"></path>
                        <path d="M84.9422854,33.6565836 C66.871062,33.6565836 52.2213272,18.5879613 52.2213272,1.79832105e-05 L120.968391,1.79832105e-05 C120.968391,18.5879613 106.318656,33.6565836 88.2474327,33.6565836 L84.9422854,33.6565836 Z"
                              fill="#694FD9" id="Fill-18"></path>
                    </g>
                    <g id="Body/Sweats-Grab-Up" transform="translate(26.441178, 13.757353)">
                        <g id="Right-Arm" transform="translate(73.086497, 0.000000)">
                            <path d="M116.268928,24.4610628 C111.24874,26.359689 104.732312,26.4698978 99.916712,28.9786318 C87.1538857,36.4998843 74.0929352,43.216019 60.0526695,48.6753119 C54.4732504,50.9072042 48.1015874,52.9351773 42.3096473,54.5691705 C37.9409036,55.7530897 32.9068338,56.8492379 28.4313338,57.6454466 C24.3048574,58.4505645 19.4353839,59.3012177 16.105448,56.0731571 C8.98054201,50.9712177 12.3494786,38.2236284 20.7647142,36.7734264 C24.5722438,36.2887059 28.9198346,35.46445 32.642422,34.5322951 C39.1661217,33.0025712 45.9443178,30.8142345 52.1788171,28.3658843 C69.2958444,22.2588675 84.9734801,11.6266924 101.327018,3.64546682 C107.507974,0.398928101 119.302392,-1.07041197 123.573634,0.870779953 C125.42022,1.2122951 126.295423,4.20937928 124.453464,5.06069241 C123.84697,5.34083382 121.534028,5.84766211 118.831409,6.67917726 C120.128679,7.26915706 121.102376,8.08747356 121.801414,8.85530521 C123.376647,10.5744298 121.343651,13.5662345 118.846613,12.8442682 C116.658936,12.1998439 114.416724,10.08245 109.95147,10.8067261 C105.03936,15.1612917 108.713362,20.6024365 114.334095,19.1618035 C117.555622,18.7912513 118.933868,23.4223288 116.268928,24.4610628"
                                  fill="#B18058" id="SKIN"></path>
                            <path d="M116.268928,24.4610628 C111.24874,26.359689 104.732312,26.4698978 99.916712,28.9786318 C87.1538857,36.4998843 74.0929352,43.216019 60.0526695,48.6753119 C54.4732504,50.9072042 48.1015874,52.9351773 42.3096473,54.5691705 C37.9409036,55.7530897 32.9068338,56.8492379 28.4313338,57.6454466 C24.3048574,58.4505645 19.4353839,59.3012177 16.105448,56.0731571 C8.98054201,50.9712177 12.3494786,38.2236284 20.7647142,36.7734264 C24.5722438,36.2887059 28.9198346,35.46445 32.642422,34.5322951 C39.1661217,33.0025712 45.9443178,30.8142345 52.1788171,28.3658843 C69.2958444,22.2588675 84.9734801,11.6266924 101.327018,3.64546682 C107.507974,0.398928101 119.302392,-1.07041197 123.573634,0.870779953 C125.42022,1.2122951 126.295423,4.20937928 124.453464,5.06069241 C123.84697,5.34083382 121.534028,5.84766211 118.831409,6.67917726 C120.128679,7.26915706 121.102376,8.08747356 121.801414,8.85530521 C123.376647,10.5744298 121.343651,13.5662345 118.846613,12.8442682 C116.658936,12.1998439 114.416724,10.08245 109.95147,10.8067261 C105.03936,15.1612917 108.713362,20.6024365 114.334095,19.1618035 C117.555622,18.7912513 118.933868,23.4223288 116.268928,24.4610628"
                                  fill="#000000" id="SHADOW" opacity="0.12"></path>
                            <path d="M90.0452616,7.21236985 C87.6781151,8.59063921 84.0702164,10.768417 81.6839,12.0493463 C74.1200704,11.5547268 25.4596483,36.067308 1.03651158,36.0675624 C-3.02584496,42.1712796 5.71608108,56.2882621 12.3240621,60.2567672 C16.9588701,63.4495214 22.5868749,62.5843496 27.9266709,62.3932991 C44.0005937,61.140417 59.6643477,55.7269894 73.7988101,48.1582217 C80.7356533,44.1035954 88.78567,39.7256022 93.8101549,33.6340938 C96.4182466,32.2472453 100.200988,29.9345113 102.77107,28.4496628 L90.0452616,7.21236985 Z"
                                  fill="#2DB386" id="Fill-4"></path>
                            <path d="M82.019042,12.4308204 L94.1522377,34.0109483 C96.6743956,32.651487 100.52357,30.3338035 103.026228,28.8750224 L90.300419,7.63739948 C87.955417,9.00280015 84.3815612,11.1594601 82.019042,12.4308204"
                                  fill="#25996F" id="Fill-6"></path>
                        </g>
                        <g id="Body" transform="translate(13.220694, 36.067308)">
                            <path d="M91.9182582,63.4523332 C67.933468,65.1286578 0.476215371,57.4603951 1.23968851,53.1925558 C2.75393165,44.7278879 5.37546996,31.5009406 9.10430345,13.5117132 C9.10430345,6.04965067 15.7667063,0 23.9849305,0 L70.0345095,0 C78.2527337,0 84.9147863,6.04965067 84.9147863,13.5117132 C88.2046102,30.7647152 90.5949651,43.5582669 92.0858513,51.8923683 C92.6181906,54.8681608 92.562326,58.7214825 91.9182582,63.4523332 Z"
                                  fill="#34D1A1" id="Sweat-Body"></path>
                            <path d="M0,64.4062995 C33.2664916,76.1710992 69.3343725,65.0422347 94.0191599,64.4062995 L92.4360251,51.5744009 C68.2547871,52.4376829 33.6527331,62.9786253 1.21440204,51.8437194 L0,64.4062995 Z"
                                  fill="#2DB386" id="Bottom"></path>
                        </g>
                        <g id="Left-Arm" transform="translate(0.000000, 36.067562)">
                            <path d="M58.6907729,74.7111606 C42.3005475,74.2904535 26.2533964,62.1688104 27.288238,44.8815444 C27.5295138,36.9293559 30.4291195,29.5819955 34.7995157,22.5985881 C37.7189523,17.9965477 36.2266783,11.3929316 32.0535994,7.94115378 C15.3242659,-4.07687989 5.52813982,32.4827295 5.48054569,44.3311606 C5.23133759,52.6690798 7.10039838,61.3026488 11.0427781,68.7321707 C18.884901,83.9426286 34.9194926,93.4902044 51.4052368,95.8055781 C55.1717826,96.5869384 82.3040672,98.7211606 72.9098471,90.3584939 C74.0901152,89.7840226 74.7696535,88.5314704 74.5478781,87.2597801 C74.3707222,86.2395242 73.682921,85.4314367 72.8090401,85.0391067 C74.8357564,84.0650461 74.7537888,80.8887902 72.8536596,79.8480764 C74.2619828,79.6210596 75.8765473,79.3072616 77.2683448,78.9829047 C79.3072902,78.8119822 81.3402863,77.4178744 80.6323237,75.0681842 C79.0141236,70.552265 73.603928,74.4009923 70.3010943,74.2313896 C69.5491733,69.7765141 64.1845888,72.394797 61.195083,71.846063 C59.9282201,71.8094367 58.8107498,73.0867364 58.6907729,74.7111606"
                                  fill="#B18058" id="SKIN"></path>
                            <path d="M51.1071786,97.7635653 C47.0487882,97.1425687 42.9794909,96.1813768 38.9961274,94.7427236 C28.4705553,94.9489525 18.0388494,87.1096125 11.1773637,78.9531748 C0.162960325,65.6043869 -2.66128804,46.3798886 2.48416527,30.0742723 C4.82850624,21.9260837 9.8407621,12.9790467 15.0678525,6.90568644 C20.294943,0.832326175 29.3442413,0 40.963351,0 C52.5824608,0 42.0917283,13.5142521 40.963351,18.9943329 C39.5778333,23.3696864 36.8415018,27.362609 35.565715,31.772279 C29.484905,49.0222589 33.7111968,60.114737 47.336336,71.4381916 C49.702491,72.3003936 52.2299371,72.8976327 54.8324101,73.2972219 L51.1071786,97.7635653 Z"
                                  fill="#34D1A1" id="Fill-12"></path>
                            <path d="M39.2924008,94.3232044 L47.5793966,70.9995343 C49.890025,71.8373189 52.3629362,72.41443 54.9069081,72.8074199 L51.1820071,97.2734333 C47.196991,96.6613458 43.2020595,95.7262212 39.2924008,94.3232044"
                                  fill="#2DB386" id="Fill-15"></path>
                        </g>
                    </g>
                    <g id="Head/Bun-Loose" transform="translate(67.755519, 0.000000)">
                        <path d="M5.91429888,29.6780682 C10.9297791,26.63895 10.2328767,14.5819375 20.4579714,14.5188864 C30.6830659,14.4565799 28.678634,22.3173483 33.6281527,31.6393775 C38.5776712,40.9614065 38.5207325,52.1346801 25.8954576,52.1346801 C20.7129964,52.1346801 18.1004377,52.1346801 11.0661145,52.1346801 C-2.92806157,52.1346801 -2.48223524,34.765928 5.91429888,29.6780682 Z"
                              fill="#000000" id="Path-2"></path>
                        <g id="Head" transform="translate(6.610295, 14.518552)">
                            <g fill="#B18058" id="head">
                                <path d="M4.29669148,20.4579125 L19.1698543,20.4579125 L19.1698543,37.495064 C19.1698543,42.0832458 15.8402489,45.8026263 11.7332729,45.8026263 C7.62629686,45.8026263 4.29669148,42.0832458 4.29669148,37.495064 L4.29669148,20.4579125 Z"
                                      id="SKIN"></path>
                                <path d="M19.8482358,31.016835 L18.1999588,31.016835 C10.5214406,31.016835 4.29685674,24.8025791 4.29685674,17.1368013 L4.29685674,10.6259057 C4.29685674,4.75745455 9.06188758,0 14.9404226,0 L16.7889914,0 C22.6675264,0 27.4328878,4.75745455 27.4328878,10.6259057 L27.4328878,23.4447677 C27.4328878,27.6267609 24.0371794,31.016835 19.8482358,31.016835"
                                      id="SKIN"></path>
                                <path d="M8.26286823,19.3030303 C8.26286823,21.5807879 6.4133078,23.4276094 4.13143411,23.4276094 C1.84956042,23.4276094 0,21.5807879 0,19.3030303 C0,17.0252727 1.84956042,15.1784512 4.13143411,15.1784512 C6.4133078,15.1784512 8.26286823,17.0252727 8.26286823,19.3030303"
                                      id="SKIN"></path>
                            </g>
                            <path d="M3.32729178,17.5437818 C3.62635172,17.5437818 4.04020792,17.6126434 4.46486411,17.8246192 C5.17434022,18.1787687 5.62305783,18.8263042 5.65316028,19.7656446 L5.6547765,19.8674047 L4.66323231,19.8674047 C4.66323231,19.2617893 4.4314379,18.9146746 4.02143207,18.7100118 C3.86917537,18.6340097 3.70099893,18.5836405 3.53199244,18.5555195 C3.44883203,18.5416824 3.38399921,18.5357414 3.34646484,18.5341454 L3.32729178,18.5336808 L3.32729178,17.5437818 Z"
                                  fill="#000000" id="ear-line"></path>
                            <path d="M11.4856348,31.7862097 C8.41351433,30.7012451 6.88084806,27.9609093 6.27390403,24.2749947 C8.67707332,28.2682724 13.0357067,30.955206 18.0275764,31.015757 L18.1999588,31.016802 L19.1698543,31.016802 C16.5466285,32.4125065 13.985222,32.6689757 11.4856348,31.7862097 Z"
                                  fill="#000000" id="SHADOW" opacity="0.12"></path>
                        </g>
                        <path d="M32.0478125,19.1958786 C30.1361731,16.3739131 26.8989057,14.5185185 23.2269195,14.5185185 L21.3790344,14.5185185 C15.5040548,14.5185185 10.7413077,19.268355 10.7413077,25.1274089 C10.7413077,25.1274089 10.5814263,28.5710239 10.5764713,29.6726644 C10.5764713,29.7273513 12.3929747,29.6726644 12.3929747,29.6726644 L14.8704753,20.3225454 C26.7707972,20.3225454 32.7209582,20.3225454 32.7209582,20.3225454 C32.5934155,20.0585994 32.3690337,19.6830438 32.0478125,19.1958786 Z"
                              fill="#000000" id="Fill-10"></path>
                        <ellipse cx="17.5172806" cy="8.24915825" fill="#000000" id="Oval" rx="8.26286823"
                                 ry="8.24915825"></ellipse>
                        <path d="M23.4032933,14.5185185 C28.9493909,14.5185185 33.5091092,18.7150903 34.0429844,24.0872115 L10.9070189,24.0872115 C11.4408585,18.7150903 16.0002837,14.5185185 21.5463813,14.5185185 L23.4032933,14.5185185 Z"
                              fill="#000000" id="Combined-Shape"></path>
                    </g>
                    <g fill="#000000" id="Expression/Happy" transform="translate(85.603328, 25.077441)">
                        <path d="M3.82096846,4.28956229 C3.82096846,3.74280808 3.37708718,3.2996633 2.82942428,3.2996633 C2.28176137,3.2996633 1.83788009,3.74280808 1.83788009,4.28956229 C1.83788009,4.8363165 2.28176137,5.27946128 2.82942428,5.27946128 C3.37708718,5.27946128 3.82096846,4.8363165 3.82096846,4.28956229"
                              id="Fill-1"></path>
                        <path d="M12.4143514,4.28956229 C12.4143514,3.74280808 11.9704701,3.2996633 11.4228072,3.2996633 C10.8751443,3.2996633 10.431263,3.74280808 10.431263,4.28956229 C10.431263,4.8363165 10.8751443,5.27946128 11.4228072,5.27946128 C11.9704701,5.27946128 12.4143514,4.8363165 12.4143514,4.28956229"
                              id="Fill-3"></path>
                        <polygon id="Stroke-5"
                                 points="7.9977105 3.43058272 8.97267415 3.25031156 10.3897243 10.8887569 7.12611576 10.8887569 7.12611576 9.89885791 9.19755072 9.89865993"></polygon>
                        <path d="M4.27086511,10.7522828 C4.27086511,11.9646657 5.50767823,13.0858685 6.83554158,13.1293711 L6.91531346,13.1306801 L6.91531346,14.1205791 C5.06520091,14.1205791 3.33689722,12.6139582 3.28072872,10.8411398 L3.27932093,10.7522828 L4.27086511,10.7522828 Z"
                              id="Stroke-7"></path>
                        <path d="M4.64725529,0 L4.64725529,0.98989899 C3.58087384,0.98989899 2.60820875,1.2755023 1.74813357,1.75252902 C1.49010225,1.89564192 1.25880896,2.04724138 1.05620016,2.19938935 L0.957295117,2.27547226 C0.842360471,2.36605963 0.761865658,2.43663019 0.717784413,2.47856806 L0.701127627,2.4947633 L0,1.79479899 C0.237029646,1.55816265 0.664932365,1.22090522 1.26659715,0.887201622 C2.22222949,0.357175651 3.30164882,0.0293816242 4.48521605,0.00187973239 L4.64725529,0 Z"
                              id="Stroke-9"></path>
                        <path d="M9.27446149,0 C10.5216832,0 11.6560495,0.333083555 12.6551196,0.887201622 C13.2191804,1.20004874 13.6305205,1.51601935 13.8750411,1.74927598 L13.9217168,1.79479899 L13.2205892,2.4947633 L13.1572769,2.43581016 C13.1202895,2.40289813 13.0715962,2.36144047 13.0115651,2.3130448 L12.9644217,2.27547226 C12.7392628,2.09801027 12.4746198,1.91949406 12.1735832,1.75252902 C11.3565118,1.29935362 10.437828,1.01893787 9.43371347,0.992029253 L9.27446149,0.98989899 L9.27446149,0 Z"
                              id="Stroke-11"></path>
                    </g>
                </g>
                <g id="Master/Character/Standing" transform="translate(6.000000, 9.000000)">
                    <g id="Legs/Pants-Jump" transform="translate(8.713470, 92.721654)">
                        <g id="Right-Leg" transform="translate(37.094977, 0.088332)">
                            <path d="M10.6361823,70.3538083 C10.6365124,70.3538083 24.8610073,53.5850826 24.8610073,53.5850826 C25.6259461,52.6836949 26.8544042,52.4720906 27.6460845,53.1231297 C36.8768527,60.5441799 47.9890996,68.1308047 59.2723601,71.0369688 C74.5420843,74.5100601 66.3760238,62.7479769 77.6424471,66.9976127 C80.3136254,68.6215676 93.2555188,72.1794331 94.1604379,75.6720621 C95.7249804,79.1514452 92.1000221,82.7454059 90.2855621,85.4800347 C81.9692871,96.8589785 66.2789621,100.20259 53.2641073,96.6434004 C42.2981132,93.9561259 32.8200687,88.8150368 23.6688648,82.8209079 C19.2845801,79.9054716 15.0993709,76.8125394 11.0250895,73.472239 C10.0435776,72.6655599 9.86893247,71.2548649 10.6361823,70.3538083"
                                  fill="#DCB284" id="SKIN-DARKER"></path>
                            <path d="M52.3649657,0.544740191 C50.2537082,1.31366829 50.7347249,4.14598614 50.9919055,6.06466375 C52.2751671,16.1613984 57.7961305,26.6591545 62.1513627,35.2074361 C67.0285493,45.3578169 74.2411599,57.4417769 66.1292428,67.1831886 C59.4006202,69.2353193 46.8783371,61.5106053 40.8337687,57.657355 L21.4230744,87.3693725 C44.1757954,102.901257 78.112074,113.26556 96.2748318,85.41758 C100.83112,78.3528461 103.824517,70.1479661 104.512533,61.7420785 C106.687838,40.6253658 93.5290414,22.776763 85.9734134,4.64900155 C85.6947736,3.87874885 85.2434696,0.792108533 85.0942455,0 L52.3649657,0.544740191 Z"
                                  fill="#051026" id="Fill-3"></path>
                            <path d="M13.3237356,75.3220044 L29.536015,54.643733 C31.7449946,56.3842524 34.0275958,58.0688077 36.3346276,59.66031 L21.4845138,81.34395 C18.6954748,79.4196428 15.9820384,77.4165222 13.3237356,75.3220044"
                                  fill="#FFFFFF" id="Fill-6"></path>
                            <path d="M17.8586971,78.7683389 C18.9270364,77.300024 22.778472,72.0062752 26.3697559,67.0704986 C22.0448967,64.4266046 28.9481643,55.4306094 32.5777446,58.537781 C33.0481968,57.891378 33.3192433,57.5185042 33.3192433,57.5185042 C30.6193427,55.5352525 27.9626907,53.4559676 25.4446982,51.2568067 L0,79.655156 C1.14988431,80.6741017 2.472763,81.8016642 3.64905866,82.7619964 C6.99504704,84.7820057 14.0670172,77.0745115 17.8586971,78.7683389"
                                  fill="#0A1B45" id="Fill-8"></path>
                        </g>
                        <path d="M53.8130012,8.07732722e-05 C53.8130012,18.2889379 69.1851968,33.114986 88.1477611,33.114986 C107.110325,33.114986 122.482521,18.2889379 122.482521,8.07732722e-05"
                              fill="#0A1B45" id="Waist"></path>
                        <g id="Left-Leg">
                            <path d="M10.6295464,75.8246039 C35.2703491,47.864696 17.095376,58.1929038 53.2290792,75.0858104 C59.7701811,77.686655 66.5711047,80.8752893 72.8900211,77.9674694 C74.1604072,77.1690691 75.1214503,75.3772215 77.1326749,76.0633624 C80.1726217,76.0494541 90.6787281,83.7996665 93.4235281,85.173604 C94.8048419,86.0269751 95.703158,87.3701156 95.9471329,88.9473786 C96.4076809,95.0673442 87.026368,100.393214 82.1128658,102.713576 C63.7183484,110.081311 43.8665844,100.953519 28.3162396,91.4220554 C22.2472407,87.6234446 16.537106,83.4834192 11.0072288,78.9380673 C10.0313293,78.1337062 9.86064591,76.7243359 10.6295464,75.8246039"
                                  fill="#FFDBB4" id="SKIN"></path>
                            <path d="M87.670607,0.568564358 L56.8469064,0 C56.3516936,-0.0102841851 55.896758,0.510613274 55.5814725,1.39080746 C53.973021,16.5580963 66.2569416,33.5142524 71.775594,46.8284312 C75.8620907,55.6465993 78.5590201,66.7470467 71.0624875,74.3975833 C62.9951395,77.3842166 48.1777097,68.0126984 40.9571757,63.3249524 L21.2490236,92.8396052 C36.6026038,102.925412 55.2618951,112.427403 74.3985716,109.851063 C97.6465054,106.861781 111.691733,82.2491273 110.654757,60.2333449 C110.284668,50.6273732 107.283018,41.2134679 103.462946,32.7171767 C98.9162313,21.8551566 92.1727524,12.8664467 89.5986358,2.1620536 C89.598966,2.1620536 89.5448227,1.80275688 89.5444925,1.80275688 C89.526995,1.68553011 89.5236936,1.58386735 89.5088372,1.47425702 C89.3067904,0.710958451 88.4325745,0.643404044 87.670607,0.568564358"
                                  fill="#0A1B45" id="Fill-14"></path>
                            <path d="M12.7445016,80.3513783 L29.1119477,59.7962944 C31.4747734,61.6864931 33.9264073,63.5247015 36.4090746,65.2648898 L21.384976,86.8276604 C18.4341675,84.7583099 15.5619328,82.6051788 12.7445016,80.3513783"
                                  fill="#FFFFFF" id="Fill-17"></path>
                            <path d="M17.7946496,84.2397967 C18.8709123,82.7781048 22.752721,77.5065431 26.3717367,72.5909665 C22.0488584,69.914951 28.987121,60.9441232 32.6289166,64.0943441 C33.1023401,63.4509215 33.3756976,63.0793723 33.3756976,63.0793723 C30.6579693,61.0626746 27.9877814,58.9542485 25.4446982,56.7322384 L0,85.1302565 C0.473753658,85.5471732 1.42786381,86.3853115 1.9065696,86.7876575 L3.6107622,88.2119296 C6.93099951,90.2206798 14.0234384,82.5343791 17.7946496,84.2397967"
                                  fill="#0A1B45" id="Fill-19"></path>
                            <path d="M72.589823,0.502268318 L71.9295392,0.495976486 C73.0863565,20.9195943 90.0500389,36.6756662 92.5313856,56.6714394 C94.2507647,67.6126041 90.6304284,79.7303414 82.4627172,87.3027268 C66.9767501,99.640347 45.4330088,86.7924261 31.2639778,77.792126 L30.8965299,78.3421646 C45.2788325,87.520954 67.1860601,100.407619 82.8952031,87.8034242 C91.2382196,80.0787102 94.9344886,67.7427457 93.1857268,56.5760685 C90.7337628,36.5740034 73.813329,20.8248857 72.589823,0.502268318"
                                  fill="#FFFFFF" id="Fill-21"></path>
                        </g>
                    </g>
                    <g id="Body/Tee-Open-Arms" transform="translate(0.000000, 26.233897)">
                        <g id="Right-Arm"
                           transform="translate(173.753633, 44.860269) rotate(-10.000000) translate(-173.753633, -44.860269) translate(112.607873, 10.089605)">
                            <path d="M16.811184,7.23319931 L16.9772001,7.23429703 C21.4567349,7.29509315 25.6914245,9.87627213 27.2911008,14.1612581 C32.702457,28.1453514 40.6136479,44.3170154 56.2666669,47.2347697 C62.8833713,48.3232566 69.7665002,47.319875 76.3095829,45.7889729 C80.3782553,44.9098692 84.5025051,43.052337 88.3836026,42.1709003 C95.6187055,39.4541671 103.909137,36.8859502 110.917734,36.866924 L111.234736,36.8678175 L111.234736,36.8678175 L111.422313,36.8672505 L111.422313,36.8672505 L111.610787,36.8679125 C117.781365,36.9096045 125.255513,38.9162724 121.080888,42.6304733 C120.45984,42.8855312 118.184418,43.2485289 115.475278,43.8292914 L115.375207,43.8508122 C117.879652,45.1162046 119.37522,47.1481716 117.915091,49.1980531 C114.984454,52.2714481 111.827994,46.8627747 106.296549,46.9574754 C106.283612,46.9659346 106.27095,46.9739911 106.258319,46.9820662 C104.601369,48.0413034 103.463728,49.4169959 103.354248,51.2784308 C103.231435,53.4209651 104.046556,54.5866098 105.2661,55.2111569 C107.512055,56.4741594 111.931995,54.9210703 112.421596,58.3848894 C113.086172,61.8251969 109.093765,61.7798295 106.526252,62.1205819 C102.536168,62.5726802 96.8544963,62.4840769 93.4747318,63.6155934 L93.2859098,63.6809562 L93.2859098,63.6809562 C93.2367589,63.6824424 93.1879177,63.6819272 93.1393842,63.6794485 L92.9326771,63.7490713 C92.169175,64.0033 91.3856459,64.2201331 90.5915225,64.3988874 C86.117109,65.8715072 81.3666969,67.1606705 76.7008011,68.0501368 C72.0872394,68.9530114 67.2980271,69.5106654 62.5131187,69.5401003 L62.1450604,69.5413265 C54.7841844,69.544745 47.4444163,68.2868422 40.7810299,65.1012545 C27.2970434,58.7120647 17.9616202,46.1333679 11.6242159,33.0576165 C7.45749469,24.3851539 1.03623431,12.0051466 13.8153678,7.61808395 C14.8071208,7.35885385 15.8144693,7.23319931 16.811184,7.23319931 Z"
                                  fill="#DCB284" id="SKIN-DARKER"></path>
                            <path d="M13.8153678,7.61808395 C19.3251064,6.17791672 25.3161918,8.87115197 27.2911008,14.1612581 C32.702457,28.1453514 40.6136479,44.3170154 56.2666669,47.2347697 C62.8833713,48.3232566 69.7665002,47.319875 76.3095829,45.7889729 C80.3780245,44.9099192 84.5020372,43.0525476 88.382942,42.1710506 C95.7275909,39.4132506 104.159851,36.8083245 111.234736,36.8678175 C117.471447,36.8284107 125.34071,38.8404724 121.080888,42.6304733 C120.452196,42.8886705 118.128153,43.2574815 115.375045,43.850836 C117.879652,45.1162046 119.37522,47.1481716 117.915091,49.1980531 C114.984454,52.2714481 111.827994,46.8627747 106.296549,46.9574754 C104.618774,48.0203566 103.464562,49.4028055 103.354248,51.2784308 C103.231435,53.4209651 104.046556,54.5866098 105.2661,55.2111569 C107.512055,56.4741594 111.931995,54.9210703 112.421596,58.3848894 C113.086172,61.8251969 109.093765,61.7798295 106.526252,62.1205819 C102.460884,62.5812102 96.6394914,62.4805409 93.2859098,63.6809562 C93.2367589,63.6824424 93.1879177,63.6819272 93.1393842,63.6794485 C92.3110743,63.9636943 91.457599,64.2039366 90.5915225,64.3988874 C86.117109,65.8715072 81.3666969,67.1606705 76.7008011,68.0501368 C64.8711558,70.3651999 51.886674,70.4105673 40.7810299,65.1012545 C27.2970434,58.7120647 17.9616202,46.1333679 11.6242159,33.0576165 C7.45749469,24.3851539 1.03623431,12.0051466 13.8153678,7.61808395 Z"
                                  fill="#DCB284" id="SKIN-DARKER"></path>
                            <path d="M35.5245762,28.0778301 C32.5553391,22.9919524 30.9398981,18.1345672 28.3916113,12.451013 C24.9542721,4.78456639 18.9510664,0.33315773 9.74717722,1.8189894e-12 C-11.8005257,2.7246944 8.29017865,29.4752791 13.8883952,40.8221014 L35.5245762,28.0778301 Z"
                                  fill="#3F8FD4" id="Fill-6"></path>
                        </g>
                        <path d="M74.4115809,18.4712255 L119.310882,18.4712255 C126.604176,18.4712255 132.516559,24.4016447 132.516559,31.7171876 L132.516559,68.4747324 L132.516559,68.4747324 L61.205904,68.4747324 L61.205904,31.7171876 C61.205904,24.4016447 67.1182869,18.4712255 74.4115809,18.4712255 Z"
                              fill="#55B0EB" id="body"></path>
                        <g id="Left-Arm" transform="translate(0.000000, 18.470619)">
                            <path d="M5.76856999,100.110109 C5.90656931,103.672942 8.15582623,107.141397 11.1974238,108.333865 C13.4503122,109.311748 15.4093744,106.354587 14.0765915,104.481277 C11.7520622,101.952954 9.06041509,98.3924391 9.79068902,94.3981192 C10.0620657,87.3072245 4.86992368,97.017177 5.76856999,100.110109"
                                  fill="#FFDBB4" id="SKIN"></path>
                            <path d="M5.76856999,100.110109 C5.90656931,103.672942 8.15582623,107.141397 11.1974238,108.333865 C13.4503122,109.311748 15.4093744,106.354587 14.0765915,104.481277 C11.7520622,101.952954 9.06041509,98.3924391 9.79068902,94.3981192 C10.0620657,87.3072245 4.86992368,97.017177 5.76856999,100.110109"
                                  fill="#DCB284" id="SKIN-DARKER"></path>
                            <path d="M11.1759315,90.6419617 C5.38194078,88.5861884 2.8659292,81.4704576 5.41297412,76.0021933 C13.6978857,57.526063 24.5572439,40.2467055 37.2109236,24.680382 C40.3020425,20.8665384 43.650672,16.9672583 46.9230387,13.322963 C48.8712062,11.4119018 51.9639757,7.20796457 54.6552927,6.35459346 C58.6678376,4.5604279 63.4928618,5.42141543 66.5635118,8.62197102 C69.5869515,11.6897358 70.5476645,16.4149017 69.0392461,20.4042543 C68.3126037,22.8865476 64.7384872,26.0758441 63.0590553,28.0104169 C60.0534432,31.3672748 56.9652957,34.9450091 54.1254149,38.4588317 C42.5608735,52.6873131 32.7748065,68.2824465 25.3056756,84.9206995 C23.061701,90.2167663 16.4793313,92.7209155 11.1759315,90.6419617"
                                  fill="#FFDBB4" id="SKIN"></path>
                            <path d="M36.9004912,22.4567824 C39.1414946,19.6241334 42.8097015,15.4907309 45.2174265,12.7378888 C49.3276934,8.7823134 54.645019,4.46688375 60.13726,2.18493563 C65.629501,-0.0970124925 75.5927441,0.000606379003 75.5927441,0.000606379003 C79.1959131,3.84127309 75.9592518,15.1125587 73.1933228,19.4247816 C70.3560831,23.0329817 66.8377607,26.1245893 63.840072,29.6046347 C61.6287814,32.086928 58.3498119,35.8712993 56.2864249,38.4343929 L36.9004912,22.4567824 Z"
                                  fill="#55B0EB" id="Fill-17"></path>
                            <path d="M25.7063689,84.0631228 C25.9582672,79.7131489 8.71528473,75.7999605 5.70934253,75.3648307 C1.64100363,84.2197563 -1.17609739,94.096608 0.485176761,103.697944 C1.61360185,109.257605 3.75523249,111.762085 4.2167709,112.574394 C5.14579027,114.182785 8.29204278,113.941708 8.48814708,111.977332 C8.46074531,109.736778 7.92855653,105.127845 8.34750663,102.379308 C8.69316522,98.9135021 9.66312219,93.9489155 13.6918441,93.3637751 C17.6076574,92.8382416 18.5574757,95.9593214 18.9123783,98.8542264 C19.1603149,101.599121 23.9569468,102.412754 24.4871548,99.6337513 C25.0398123,94.6767811 23.8308326,88.8329938 25.7063689,84.0631228"
                                  fill="#FFDBB4" id="SKIN"></path>
                        </g>
                        <path d="M81.6747031,18.4712255 C81.6747031,24.5065484 88.4739437,29.3991442 96.8612315,29.3991442 C105.248519,29.3991442 112.04776,24.5065484 112.04776,18.4712255"
                              fill="#FFDBB4" id="SKIN"></path>
                    </g>
                    <g id="Head/Afro" transform="translate(74.411581, 0.000000)">
                        <path d="M22.7797926,0 C7.61397414,0 0,7.7348375 0,23.1976508 C0,38.6604637 7.61397414,42.3870787 22.7797926,42.3870787 C37.9456112,42.3870787 45.5595852,38.6604637 45.5595852,23.1976508 C45.5595852,7.7348375 37.9456112,0 22.7797926,0 Z"
                              fill="#000000" id="Fill-3"></path>
                        <g id="head" transform="translate(10.234400, 9.272173)">
                            <g fill="#FFDBB4" id="SKIN">
                                <path d="M4.29184499,20.5312413 L19.1482315,20.5312413 L19.1482315,37.6294603 C19.1482315,42.2340878 15.8223818,45.9668 11.7200382,45.9668 C7.61769471,45.9668 4.29184499,42.2340878 4.29184499,37.6294603 L4.29184499,20.5312413 Z"
                                      id="Path"></path>
                                <path d="M19.8258478,31.1280109 L18.17943,31.1280109 C10.5095729,31.1280109 4.29201006,24.8914808 4.29201006,17.198226 L4.29201006,10.6639929 C4.29201006,4.77450704 9.05166615,0 14.9235704,0 L16.7700541,0 C22.6419584,0 27.4019446,4.77450704 27.4019446,10.6639929 L27.4019446,23.5288025 C27.4019446,27.7257856 24.0100665,31.1280109 19.8258478,31.1280109"
                                      id="Path"></path>
                                <path d="M8.25354805,19.3722196 C8.25354805,21.6581415 6.40607385,23.5115827 4.12677402,23.5115827 C1.8474742,23.5115827 0,21.6581415 0,19.3722196 C0,17.0862977 1.8474742,15.2328564 4.12677402,15.2328564 C6.40607385,15.2328564 8.25354805,17.0862977 8.25354805,19.3722196"
                                      id="Path"></path>
                            </g>
                            <path d="M3.32353873,17.6066984 C3.62226134,17.6066984 4.03565073,17.6758068 4.45982793,17.8885424 C5.16850378,18.2439613 5.61671525,18.8938178 5.64678375,19.8365251 L5.64839814,19.93865 L4.65797238,19.93865 C4.65797238,19.3308638 4.42643942,18.9825049 4.01689606,18.7771086 C3.8648111,18.7008341 3.69682436,18.6502843 3.5280085,18.6220625 C3.44494188,18.6081758 3.3801822,18.6022135 3.34269016,18.6006118 L3.32353873,18.6001456 L3.32353873,17.6066984 Z"
                                  fill="#000000" id="ear-line"></path>
                            <path d="M11.4726794,31.9001433 C8.40402423,30.8112898 6.87308674,28.0611317 6.26682732,24.3620053 C8.66728593,28.3695964 13.0210029,31.066161 18.007242,31.1269291 L18.17943,31.1279778 L19.1482315,31.1279778 C16.5279646,32.528685 13.9694472,32.7860735 11.4726794,31.9001433 Z"
                                  fill="#000000" id="SHADOW" opacity="0.12"></path>
                        </g>
                        <path d="M9.25174496,15.3313704 C8.94506358,11.1470047 17.7883151,7.61642821 22.8909782,7.61642821 L34.1122595,7.61642821 L39.2868887,16.5653834 L22.7896313,16.5653834 C20.5537294,21.467944 17.2792702,24.5050299 14.3081912,24.5050299 C11.3371123,24.5050299 9.47556623,18.3844861 9.25174496,15.3313704 Z"
                              fill="#000000" id="Fill-17"></path>
                    </g>
                    <g fill="#000000" id="Expression/Happy" transform="translate(95.870819, 19.868943)">
                        <path d="M3.81665857,4.30493768 C3.81665857,3.7562237 3.37327797,3.31149052 2.8262328,3.31149052 C2.27918764,3.31149052 1.83580704,3.7562237 1.83580704,4.30493768 C1.83580704,4.85365166 2.27918764,5.29838484 2.8262328,5.29838484 C3.37327797,5.29838484 3.81665857,4.85365166 3.81665857,4.30493768"
                              id="Fill-1"></path>
                        <path d="M12.4003485,4.30493768 C12.4003485,3.7562237 11.9569679,3.31149052 11.4099228,3.31149052 C10.8628776,3.31149052 10.419497,3.7562237 10.419497,4.30493768 C10.419497,4.85365166 10.8628776,5.29838484 11.4099228,5.29838484 C11.9569679,5.29838484 12.4003485,4.85365166 12.4003485,4.30493768"
                              id="Fill-3"></path>
                        <polygon id="Stroke-5"
                                 points="7.9886894 3.44287921 8.96255334 3.26196189 10.3780051 10.9277863 7.11807779 10.9277863 7.11807779 9.93433911 9.18717626 9.93414042"></polygon>
                        <path d="M4.26604775,10.790823 C4.26604775,12.0075516 5.5014658,13.1327731 6.82783137,13.1764317 L6.90751327,13.1777454 L6.90751327,14.1711925 C5.05948757,14.1711925 3.33313334,12.6591714 3.27702819,10.8799985 L3.27562199,10.790823 L4.26604775,10.790823 Z"
                              id="Stroke-7"></path>
                        <path d="M4.64201337,0 L4.64201337,0.993447157 C3.57683476,0.993447157 2.6052668,1.28007418 1.74616175,1.75881074 C1.48842147,1.9024366 1.25738908,2.05457946 1.05500881,2.20727278 L0.956215328,2.2836284 C0.841410323,2.37454048 0.761006305,2.44536399 0.716974781,2.48745217 L0.700336784,2.50370546 L0,1.80123222 C0.236762286,1.56374768 0.664182348,1.2252814 1.26516848,0.890381684 C2.2197229,0.358455901 3.29792469,0.0294869389 4.4801569,0.00188647005 L4.64201337,0 Z"
                              id="Stroke-9"></path>
                        <path d="M9.26400028,0 C10.5098151,0 11.6429019,0.334277451 12.6408452,0.890381684 C13.2042697,1.20435016 13.6151459,1.52145333 13.8593906,1.75554604 L13.9060137,1.80123222 L13.2056769,2.50370546 L13.142436,2.44454101 C13.1054904,2.41151101 13.0568519,2.36990475 12.9968885,2.32133562 L12.9497983,2.2836284 C12.7248935,2.10553032 12.4605489,1.92637424 12.1598519,1.75881074 C11.3437021,1.30401099 10.4260545,1.02259013 9.42307263,0.995585056 L9.26400028,0.993447157 L9.26400028,0 Z"
                              id="Stroke-11"></path>
                    </g>
                </g>
            </g>
        </g>
    </g>
</svg>
