<?xml version="1.0" encoding="UTF-8"?>
<svg height="152px" version="1.1" viewBox="0 0 160 152" width="160px" xmlns="http://www.w3.org/2000/svg">
    <title>Inscription</title>
    <g fill="none" fill-rule="evenodd" id="Prototype-DE" stroke="none" stroke-width="1">
        <g fill-rule="nonzero" id="Finalisation_modalite" transform="translate(-640.000000, -176.000000)">
            <g id="Inscription" transform="translate(640.000000, 176.000000)">
                <g fill="#7540EE" id="Blob" opacity="0.288" transform="translate(10.343900, 13.695852)">
                    <g id="Blob/5">
                        <path d="M85.5076406,25.2999927 C93.5224925,37.7248368 94.8345323,53.0781915 91.0980711,66.412864 C87.3616101,79.7191045 78.5196028,91.0066634 64.4009135,101.86774 C50.253702,112.728817 30.7727633,123.134979 22.6152985,116.709316 C14.4578335,110.283653 17.6523653,86.9692997 13.1457939,65.8442212 C8.63922237,44.7191427 -3.53992969,25.7549068 0.995164375,14.0977303 C5.53025846,2.46898586 26.8081212,-1.88113125 44.7773619,0.73462544 C62.7751251,3.32194999 77.492789,12.8467162 85.5076406,25.2999927 Z"
                              id="blobs-burgers"></path>
                    </g>
                </g>
                <g id="body" transform="translate(14.699227, 8.251694)">
                    <path d="M32.4675346,2.99796548 L32.4675346,2.99796548 C32.869976,2.84877113 33.2834439,2.78870229 33.6891783,2.81500305 C33.8920159,2.82796758 34.0928578,2.862582 34.2891401,2.91772669 C34.4838989,2.97349264 34.6726827,3.05048836 34.8544363,3.1468801 C35.5826492,3.52978164 36.1754044,4.24235862 36.4187367,5.15548706 C36.952475,7.15471527 37.3194683,9.22091247 37.4292389,11.3575861 C37.484012,12.4675154 37.478532,13.593996 37.3657056,14.7391218 C37.2556024,15.8827702 37.0545617,17.0432379 36.7069386,18.2042511 C36.6265204,18.4941955 36.5210917,18.7840842 36.4234635,19.0732191 L36.2566822,19.5059381 L36.1712577,19.7218089 L36.0769141,19.9368003 C35.8321672,20.5104934 35.5324581,21.075806 35.1953825,21.6257724 C34.5189911,22.72482 33.6396826,23.7570066 32.5935395,24.6030125 C32.0756554,25.0325313 31.5086978,25.3994984 30.9282958,25.7275349 L30.4874453,25.9622222 C30.338738,26.0352042 30.1882723,26.1031297 30.0382145,26.1724196 C29.9629964,26.2064753 29.888,26.2419248 29.8124229,26.2743227 L29.5842993,26.3651639 C29.4319642,26.424336 29.2796026,26.4869409 29.1264695,26.5410957 C27.8994643,26.9687332 26.6490007,27.2134839 25.4418252,27.2948229 C24.2319888,27.3816297 23.0564393,27.3348276 21.9225882,27.2040141 C20.7881533,27.0725306 19.6937901,26.8570062 18.6320178,26.5890045 C18.1389195,26.4699978 17.7067904,26.2477484 17.3378986,25.9797126 C16.975867,25.7002132 16.6793481,25.3712348 16.4712588,25.0030693 C16.2636924,24.6333926 16.1375621,24.2351563 16.1019262,23.8293144 C16.0660214,23.4241817 16.1230755,23.0053399 16.2711255,22.6042442 C16.4199187,22.2012214 16.6458867,21.8538419 16.9230396,21.5564894 C17.2001097,21.2598168 17.5265665,21.0192649 17.8780054,20.8445882 C18.2300604,20.6683854 18.6079841,20.5456313 18.9919929,20.5037336 C19.3765244,20.448324 19.7679731,20.4784018 20.1537062,20.5703384 C21.8242318,20.9945389 23.4878214,21.21134 24.9775903,21.1032413 C25.0722782,21.1004035 25.162406,21.0880933 25.2533836,21.0781257 L25.5263073,21.049367 L25.7905999,21.00654 C25.8790314,20.993164 25.9675811,20.9805314 26.0512972,20.959708 L26.3066869,20.9059031 C26.3913755,20.8875932 26.4709172,20.861523 26.5534868,20.84069 C26.7209563,20.8022756 26.8728834,20.7417393 27.0319362,20.693604 C27.6473336,20.4691999 28.1927355,20.1724951 28.6660345,19.7854398 C29.1408496,19.400717 29.5521484,18.9274325 29.9004626,18.3629306 C30.0727541,18.0794501 30.2361589,17.7808936 30.373016,17.4546168 L30.4270032,17.3344737 L30.4754194,17.2093041 L30.5730307,16.9584609 C30.6291281,16.78379 30.6948303,16.6155097 30.7430475,16.4338907 C30.8532002,16.0801088 30.9347618,15.7043579 31.0099546,15.3245635 C31.0416191,15.1312682 31.079862,14.9409357 31.1029324,14.7428048 C31.1155951,14.6442283 31.1313312,14.5469767 31.142234,14.4475348 L31.1726283,14.1478596 C31.2529913,13.3475962 31.2578495,12.5141901 31.2165759,11.6727253 C31.1347112,10.0498835 30.8461754,8.38877487 30.408491,6.75347583 C30.2103572,6.00932841 30.3315655,5.24148324 30.6915342,4.56246737 C30.7820547,4.39303488 30.8895,4.22921939 31.0104822,4.07431743 C31.1300192,3.91992911 31.2648026,3.77380367 31.4135514,3.63928628 C31.7112646,3.37040798 32.0649853,3.1470816 32.4675346,2.99796548"
                          fill="#8C6345" id="SKIN-DARKER"></path>
                    <path d="M33.8763414,0.445586605 C34.0910273,0.353054868 34.3273539,0.361785246 34.5337573,0.454765452 C34.7385293,0.548288681 34.9146224,0.725484526 35.011931,0.961110043 C35.8449278,3.02095763 36.4989571,5.16332209 36.933715,7.38198775 C36.9858351,7.63588416 36.9289487,7.88659042 36.8083649,8.07819452 C36.6869388,8.27050291 36.4944818,8.40619921 36.2626334,8.44362353 C35.8005562,8.5154546 35.3596564,8.18286497 35.2680921,7.70317064 C34.8567142,5.60330372 34.234301,3.56072329 33.4385543,1.59348491 C33.3455475,1.3687057 33.3492422,1.12915093 33.4291066,0.920919591 C33.5075068,0.713681172 33.6610186,0.538314035 33.8763414,0.445586605"
                          fill="#8C6345" id="SKIN-DARKER"></path>
                    <path d="M32.0578718,0.0772082457 C32.270019,-0.021685548 32.5029661,-0.0228039523 32.7093397,0.0579894765 C32.9165703,0.138171508 33.0950672,0.301082321 33.1918081,0.525939329 C33.5742496,1.39693535 33.9232407,2.28320796 34.2361249,3.18365228 C34.398856,3.64821711 34.1551847,4.14287691 33.7081437,4.28224697 C33.2610096,4.42163171 32.7867779,4.17525823 32.6332175,3.73715404 C32.3353693,2.88024682 32.0027009,2.0354034 31.6379091,1.20457957 C31.5457195,0.990338995 31.5450068,0.759670536 31.6189902,0.556462302 C31.693983,0.352999648 31.8456315,0.176116722 32.0578718,0.0772082457"
                          fill="#8C6345" id="SKIN-DARKER"></path>
                    <path d="M30.6142154,0.546083328 C31.0357629,0.344823912 31.5419677,0.526435404 31.7348594,0.956240833 C32.1063273,1.78944056 32.4457308,2.63703157 32.750187,3.4970874 C32.9039545,3.94249287 32.6637183,4.41975235 32.2152101,4.56249694 C31.7711451,4.70377877 31.2948437,4.47859058 31.1503254,4.05953817 C30.8611546,3.24278954 30.5384314,2.43647608 30.1846769,1.64324804 C30.0026004,1.23764371 30.1907233,0.748316158 30.6142154,0.546083328"
                          fill="#8C6345" id="SKIN-DARKER"></path>
                    <path d="M29.6402122,4.31877192 C29.8603776,4.23909138 30.0895702,4.24856595 30.2832879,4.33078398 C30.4744286,4.41359895 30.6276549,4.5700184 30.6986596,4.77645648 C30.9676456,5.58029208 31.2028576,6.39316909 31.4005291,7.21120503 C31.4534652,7.42163582 31.2998396,7.72407901 31.1385288,7.9662054 C30.9736763,8.20946188 30.7933547,8.39505796 30.7933547,8.39505796 C30.7444057,8.14790009 30.5197016,8.10904859 30.2819725,8.02310446 C30.0433023,7.93664208 29.8032509,7.8042985 29.6917306,7.36832636 C29.5183644,6.67970603 29.3167018,5.99316748 29.0894305,5.31181089 C29.0222723,5.1169576 29.0523865,4.90971516 29.1524093,4.72983084 C29.2499779,4.5507146 29.4201253,4.39834483 29.6402122,4.31877192"
                          fill="#8C6345" id="SKIN-DARKER"></path>
                    <path d="M29.5465267,1.8297136 C29.9718157,1.63757915 30.4686967,1.81456549 30.6436762,2.23014699 C31.2277162,3.61748723 31.7130556,5.04363451 32.0948874,6.49096453 C32.2046182,6.92588543 31.9197123,7.36228151 31.4603855,7.46520518 C31.0058211,7.56747297 30.5552434,7.32222634 30.4530934,6.91696946 C30.0929359,5.55251378 29.6336442,4.20074091 29.0790152,2.88372054 C28.9144444,2.49278519 29.1183474,2.02287538 29.5465267,1.8297136"
                          fill="#8C6345" id="SKIN-DARKER"></path>
                    <path d="M37.6040873,7.90304157 C37.7875226,8.96515224 37.9223487,10.0450256 37.9852589,11.1467186 C38.0325976,11.2091629 38.0788224,11.2814026 38.1245674,11.3776248 C38.1703953,11.4731672 38.2152069,11.5839187 38.2592074,11.7093708 C38.3422853,11.9617181 38.4221536,12.2724812 38.4859966,12.639681 L38.5119568,12.7946775 C38.6251902,13.5065104 38.6883121,14.4114012 38.6334191,15.4828557 C38.570906,16.6323327 38.3840295,17.9772484 37.9116211,19.4504429 C37.6737768,20.1857274 37.3667431,20.9509736 36.9650097,21.7225835 C36.5650153,22.4937289 36.0631222,23.2703733 35.4566222,24.0078926 C34.8513621,24.7454069 34.1383521,25.4414346 33.3441429,26.0451176 C32.5508558,26.6497979 31.6789788,27.1593408 30.7837056,27.5541832 C29.8880023,27.950522 28.9717117,28.233622 28.0767812,28.4236315 C27.1804352,28.6143405 26.310668,28.7003732 25.4780384,28.7331158 C24.6422217,28.7692186 23.8575557,28.7213429 23.1075606,28.6526643 L22.6350924,28.5969929 C22.4787666,28.5780849 22.3242243,28.5579533 22.1733251,28.5339808 L21.5051076,28.421268 L21.5051076,28.421268 C21.3361236,28.3889628 21.1713064,28.3528575 21.0072354,28.318444 C19.6974469,28.0384123 18.5718964,27.6676032 17.6306302,27.2963027 C16.9663734,27.1115216 16.3821647,26.8030585 15.9003202,26.4188266 C15.6611822,26.2244292 15.4446988,26.0140766 15.2561438,25.7891279 C15.0705794,25.5601834 14.911098,25.3188388 14.779746,25.0689619 C14.7141557,24.9439623 14.6554777,24.8168248 14.6041878,24.6881412 C14.55395,24.5576724 14.511149,24.4253639 14.4754377,24.2920324 C14.4041082,24.0253549 14.3621318,23.7542383 14.3504571,23.4822476 C14.3267693,22.9379386 15.9425879,18.8573583 16.1946521,18.8348422 C17.5882352,18.6150465 21.7722083,19.5572845 22.7857506,19.6058643 L22.8183529,19.6071498 C23.7732653,19.6442709 24.6718487,19.5972208 25.4269092,19.4595598 C25.5189416,19.439425 25.6172687,19.4288696 25.7046435,19.40585 C25.7925385,19.3837008 25.8811117,19.3640163 25.9692446,19.3451632 C26.051619,19.3195035 26.1343628,19.2961665 26.2176033,19.2747515 C26.299431,19.2516543 26.373275,19.2209584 26.4523588,19.1980083 C26.7566716,19.0918168 27.0246965,18.9710613 27.268154,18.8350361 C27.751722,18.5629423 28.1597891,18.2271311 28.5454969,17.7627403 C28.9235638,17.2965068 29.270514,16.7180285 29.5417017,16.0855892 C29.8201271,15.4590567 30.030953,14.7950867 30.1987116,14.1837227 C30.5346674,12.9583536 30.7134167,11.9433183 30.9280889,11.5537167 C30.8823831,10.7443821 30.7803499,9.92288213 30.6383702,9.10101525 L37.6040873,7.90304157 Z"
                          fill="#CC2935" id="Fill-13"></path>
                    <path d="M37.9832357,11.1105395 L30.7855302,11.5357025 C30.7382436,10.7404279 30.6387802,9.93328569 30.4988798,9.12509203 L37.6039075,7.90305088 C37.7856669,8.95342489 37.9182733,10.0217426 37.9832357,11.1105395"
                          fill="#B52935" id="Fill-16"></path>
                    <path d="M21.7728111,32.1574135 L1.80668198,35.3064693 L0.224486477,25.3587939 C-0.12233092,23.1782625 1.36754243,21.131131 3.5522818,20.7865541 L15.6068413,18.8853101 C17.7915807,18.5407332 19.8437983,20.0292066 20.1906157,22.2097381 L21.7728111,32.1574135 Z"
                          fill="#D7DBE2" id="Fill-18"></path>
                    <path d="M13.1876581,19.266892 C13.4323278,20.8051943 12.9979488,22.8738689 10.5310524,23.2629476 C7.59870373,23.7254373 6.12371554,22.2513605 5.83351385,20.4267869 L13.1876581,19.266892 Z"
                          fill="#B18058" id="SKIN"></path>
                    <path d="M16.9843376,38.8569683 C19.4008409,38.5320327 21.4192738,38.0231939 23.4859511,36.9501287 C23.6766845,36.8509929 23.8276064,36.6959407 23.7754606,36.4874805 L22.9483624,33.1807908 C20.7221245,33.6316352 18.4502044,34.4354274 16.0475091,35.2095557 C16.1920858,36.4173303 16.3210419,37.5328943 16.4304799,38.5011434 C16.4606825,38.7678307 16.7177901,38.8928171 16.9843376,38.8569683"
                          fill="#CC2935" id="Fill-22"></path>
                    <path d="M0.852400306,36.7754489 L1.06956615,39.8579299 C1.09503206,40.2202292 1.36522335,40.5210715 1.72448693,40.5791798 C4.13268061,40.9687564 7.47203799,40.8369628 9.64785732,40.6480912 C9.99244463,40.6181259 10.2538358,40.3290694 10.2516197,39.983776 C10.2454394,39.0049514 10.1817894,37.9268055 10.0743632,36.7864156 C7.76016117,37.0597848 3.52379585,37.3175291 0.852400306,36.7754489"
                          fill="#CC2935" id="Fill-24"></path>
                    <path d="M2.26344905,21.1615666 C0.712889443,21.9073999 -0.233721281,23.6017787 0.0501109552,25.3863059 L0.852358195,36.7754841 C3.52375373,37.3175644 7.76021215,37.0598052 10.0743994,36.7863433 C9.65055646,32.2904358 8.57838853,23.2851647 5.6570913,22.3172225 C5.6570913,22.3172225 3.37706936,20.5814171 2.26344905,21.1615666"
                          fill="#FA3239" id="Fill-26"></path>
                    <path d="M16.0474856,35.2095879 C18.6383754,34.9377262 20.7498989,34.414205 22.9483389,33.180823 L20.2035626,22.2077436 C19.8873806,20.2198254 18.1537611,18.8079702 16.1946521,18.8348422 C16.0995424,19.8369717 15.24751,20.2810939 14.0500331,21.0887727 C14.766993,25.204708 15.5476682,31.0321644 16.0474856,35.2095879"
                          fill="#FA3239" id="Fill-28"></path>
                    <path d="M4.21182065,16.8304055 C0.469004447,17.8969517 0.619984224,21.1842685 2.27819795,21.2544768 C3.58835689,21.3100507 4.63891083,22.6690542 5.84314425,23.0647898 C6.11178537,23.1530972 6.37322627,22.911751 6.30953889,22.6367247 C6.29151455,22.558799 6.2735641,22.4813379 6.25571709,22.404527 C6.05754695,21.5527574 6.01132909,20.4306208 6.87756084,20.3007612 C8.43055923,20.0676331 10.7529778,19.6995317 12.2432268,19.4510601 C13.0516033,19.316229 13.8352326,19.9455542 13.9833574,20.7502601 C14.0077042,20.882336 14.032116,21.0160208 14.0563624,21.1510653 C14.1051951,21.4232912 14.428564,21.5443036 14.6444466,21.3711004 C15.5591686,20.6371629 16.1278623,19.7867395 16.2093913,18.9278112 C16.2271159,18.7416673 16.223505,18.5551738 16.1939631,18.3694364 C15.8511654,16.214178 8.01562423,15.7465254 4.21182065,16.8304055"
                          fill="#CC2935" id="Fill-30"></path>
                    <g id="Group-20"
                       transform="translate(8.342951, 15.630435) rotate(-9.000000) translate(-8.342951, -15.630435) translate(2.308183, 8.296730)">
                        <path d="M5.42186975,12.0750799 L2.31018798,12.0750799 C1.03430416,12.0750799 0,11.0525959 0,9.7912931 C0,8.52999028 1.03430416,7.5075063 2.31018798,7.5075063 L5.42186975,7.5075063 C6.69775356,7.5075063 7.73205772,8.52999028 7.73205772,9.7912931 C7.73205772,11.0525959 6.69775356,12.0750799 5.42186975,12.0750799"
                              fill="#000000" id="Fill-1"></path>
                        <path d="M6.90220049,7.69393788 L6.03479562,7.69393788 L6.03479562,0.702753821 L6.90220049,0.702753821 C9.54769575,0.702753821 11.6923988,1.89069582 11.6923988,4.50605116 L11.6923988,5.75495628 C11.6923988,7.69393788 9.54769575,7.69393788 6.90220049,7.69393788"
                              fill="#000000" id="Fill-3"></path>
                        <path d="M6.39316707,10.4904115 L8.2035058,10.4904115 L8.2035058,0.702753821 L6.39316707,0.702753821 C3.7476718,0.702753821 1.60296872,2.82285369 1.60296872,5.43820904 L1.60296872,5.75495628 C1.60296872,8.37031163 3.7476718,10.4904115 6.39316707,10.4904115"
                              fill="#000000" id="Fill-5"></path>
                        <path d="M4.14890902,7.5075063 L8.39211143,7.5075063 L8.39211143,12.3205171 C8.39211143,13.6166826 7.44229415,14.6674109 6.27051023,14.6674109 C5.0988206,14.6674109 4.14890902,13.6166826 4.14890902,12.3205171 L4.14890902,7.5075063 Z"
                              fill="#B18058" id="Skin"></path>
                        <path d="M8.58564861,10.4904115 L8.11540749,10.4904115 C5.92478352,10.4904115 4.14895617,8.73487858 4.14895617,6.5692894 L4.14895617,4.72995549 C4.14895617,3.07211271 5.50838393,1.72812748 7.18548611,1.72812748 L7.71286902,1.72812748 C9.3899712,1.72812748 10.7494933,3.07211271 10.7494933,4.72995549 L10.7494933,8.35129561 C10.7494933,9.5327125 9.78072299,10.4904115 8.58564861,10.4904115"
                              fill="#B18058" id="Skin"></path>
                        <path d="M6.19986092,10.7508355 C5.32340787,10.444332 4.88614962,9.67018472 4.71299302,8.62891051 C5.39859929,9.75701504 6.64208488,10.5160762 8.06622808,10.533182 L8.11540749,10.5334772 L8.39211143,10.5334772 C7.64372468,10.927765 6.9129745,11.0002178 6.19986092,10.7508355 Z"
                              fill="#000000" id="SHADOW" opacity="0.12"></path>
                        <path d="M5.28042967,7.18125105 C5.28042967,7.82471963 4.75276387,8.34644839 4.10176233,8.34644839 C3.45076079,8.34644839 2.92309499,7.82471963 2.92309499,7.18125105 C2.92309499,6.53778247 3.45076079,6.01605371 4.10176233,6.01605371 C4.75276387,6.01605371 5.28042967,6.53778247 5.28042967,7.18125105"
                              fill="#B18058" id="Skin"></path>
                        <path d="M3.87234652,6.68427108 C3.95766609,6.68427108 4.07573618,6.70372454 4.19688742,6.76360789 C4.39929566,6.86365544 4.52731145,7.04658481 4.53589945,7.31194932 L4.53636055,7.34069665 L4.25348039,7.34069665 C4.25348039,7.16960974 4.18735117,7.07154952 4.07037957,7.0137321 C4.02694187,6.99226145 3.97896238,6.9780321 3.93074609,6.97008789 C3.90702105,6.9661789 3.88852473,6.96450055 3.87781645,6.96404969 L3.87234652,6.96391844 L3.87234652,6.68427108 Z"
                              fill="#000000" id="Stroke-13"></path>
                        <path d="M4.14890902,6.01605371 L4.00407438,6.01605371 C3.45208089,5.48546944 3.24001507,4.40416631 3.17608415,3.35464976 C3.08848559,1.91642337 5.61441684,0.702753821 7.07190972,0.702753821 L8.76777629,0.702753821 L10.3722726,3.12636429 L6.66625957,3.12636429 C6.66625957,4.71103268 5.28042967,6.01605371 4.14890902,6.01605371"
                              fill="#000000" id="Fill-15"></path>
                        <path d="M11.1960007,3.12636429 L6.12905129,3.12636429 L6.12905129,0.668543627 C6.12905129,0.299315893 6.43182735,0 6.80532346,0 L9.78065699,0 C11.0447541,0 12.0695347,1.01316239 12.0695347,2.26281324 C12.0695347,2.73979842 11.6784057,3.12636429 11.1960007,3.12636429"
                              fill="#000000" id="Fill-17"></path>
                    </g>
                    <g fill="#000000" id="Expression"
                       transform="translate(10.498523, 14.718963) rotate(-9.000000) translate(-10.498523, -14.718963) translate(8.565492, 12.763302)">
                        <path d="M1.06108343,1.18818544 C1.06108343,1.03673749 0.937817533,0.913988804 0.78573148,0.913988804 C0.633645422,0.913988804 0.510379534,1.03673749 0.510379534,1.18818544 C0.510379534,1.33963338 0.633645422,1.46238208 0.78573148,1.46238208 C0.937817533,1.46238208 1.06108343,1.33963338 1.06108343,1.18818544"
                              id="Fill-1"></path>
                        <path d="M3.44746697,1.18818544 C3.44746697,1.03673749 3.32420107,0.913988804 3.17211502,0.913988804 C3.02002897,0.913988804 2.89676307,1.03673749 2.89676307,1.18818544 C2.89676307,1.33963338 3.02002897,1.46238208 3.17211502,1.46238208 C3.32420107,1.46238208 3.44746697,1.33963338 3.44746697,1.18818544"
                              id="Fill-3"></path>
                        <polygon id="Stroke-5"
                                 points="2.22096523 0.950252759 2.49171275 0.900318633 2.88522776 3.01612647 1.97892326 3.01612647 1.97892326 2.74192984 2.55416101 2.741875"></polygon>
                        <path d="M1.18601979,2.9783239 C1.18601979,3.31414737 1.52948294,3.62471444 1.89823077,3.63676444 L1.92038343,3.63712702 L1.92038343,3.91132366 C1.40660694,3.91132366 0.926656777,3.49399786 0.911058783,3.0029368 L0.910667845,2.9783239 L1.18601979,2.9783239 Z"
                              id="Stroke-7"></path>
                        <path d="M1.29054338,0 L1.29054338,0.274196639 C0.994409129,0.274196639 0.724299898,0.353307202 0.485456915,0.485441012 C0.413801587,0.525082501 0.349571411,0.567074732 0.293306916,0.609218891 L0.265840979,0.630293452 C0.233923607,0.655385653 0.21157019,0.674933314 0.199328824,0.686549878 L0.194703229,0.691035869 L0,0.497149566 C0.065823162,0.431602582 0.184651802,0.338184108 0.351734188,0.245750025 C0.617113413,0.0989357146 0.916868293,0.00813855013 1.24554506,0.000520675578 L1.29054338,0 Z"
                              id="Stroke-9"></path>
                        <path d="M2.57551913,9.90286581e-13 C2.92187275,9.90286581e-13 3.23688642,0.0922623369 3.51432833,0.245750025 C3.67096807,0.332406978 3.78519728,0.419929118 3.85310068,0.484539933 L3.86606253,0.497149566 L3.67135929,0.691035869 L3.65377746,0.674706177 C3.64350607,0.665589721 3.62998391,0.65410617 3.61331326,0.640700833 L3.60022153,0.630293452 C3.53769491,0.581137439 3.46420348,0.531689416 3.38060561,0.485441012 C3.15370477,0.359913892 2.89858616,0.282240253 2.61974343,0.274786707 L2.57551913,0.274196639 L2.57551913,9.90286581e-13 Z"
                              id="Stroke-11"></path>
                    </g>
                </g>
                <g id="Opened-Mail" transform="translate(7.621821, 0.000000)">
                    <polygon fill="#BE6FFB" id="Rectangle"
                             points="28.2638909 29.0616353 87.6666286 15.3724183 68.6855094 67.8756596 14.5763698 86.8584747"
                             transform="translate(51.121499, 51.115446) rotate(45.000000) translate(-51.121499, -51.115446) "></polygon>
                    <g id="Paper" transform="translate(9.600167, 38.230221)">
                        <rect fill="#E6D3FF" height="63.8425888" id="Rectangle" width="83.304678" x="0" y="0"></rect>
                        <path d="M0,0 L83.304678,0 L83.304678,48.3843349 C83.304678,56.9216928 76.372192,63.8425888 67.8205371,63.8425888 L0,63.8425888 L0,63.8425888 L0,0 Z"
                              fill="#FFFFFF" id="Rectangle-Copy-38"></path>
                        <g fill="#CCA4FF" id="Writing" transform="translate(7.183286, 7.378792)">
                            <rect height="1.01777144" id="Rectangle-Copy-11" width="69.1524829" x="0" y="0"></rect>
                            <rect height="1.01777144" id="Rectangle-Copy-42" width="69.1524829" x="0"
                                  y="22.5777074"></rect>
                            <rect height="1.01777144" id="Rectangle-Copy-39" width="69.1524829" x="0"
                                  y="5.64442685"></rect>
                            <rect height="1.01777144" id="Rectangle-Copy-43" width="69.1524829" x="0"
                                  y="28.2221342"></rect>
                            <rect height="1.01777144" id="Rectangle-Copy-40" width="69.1524829" x="0"
                                  y="11.2888537"></rect>
                            <rect height="1.01777144" id="Rectangle-Copy-44" width="69.1524829" x="0"
                                  y="33.8665611"></rect>
                            <rect height="1.01777144" id="Rectangle-Copy-41" width="69.1524829" x="0"
                                  y="16.9332805"></rect>
                            <rect height="1.01777144" id="Rectangle-Copy-45" width="69.1524829" x="0"
                                  y="39.5109879"></rect>
                            <rect height="1.01777144" id="Rectangle-Copy-46" width="32.4559981" x="36.6964849"
                                  y="47.7463727"></rect>
                        </g>
                    </g>
                    <polygon fill="#E6D3FF" id="Combined-Shape"
                             points="102.350171 50.5968804 102.350171 106.246539 0 106.246539 0 50.5968804 0.0401039249 50.5968244 0.00605270938 50.6179168 51.6898634 75.4249217 102.236946 51.7508151 100.389415 50.5968244"></polygon>
                    <polygon fill="#F4ECFF" id="Path-5"
                             points="0 106.246539 51.7170306 75.4248775 0 50.5968244"></polygon>
                </g>
                <g id="Master/Character/Standing"
                   transform="translate(103.646862, 99.811201) scale(-1, 1) rotate(-4.000000) translate(-103.646862, -99.811201) translate(50.745215, 51.194206)">
                    <g transform="translate(-0.000000, 0.000000)">
                        <g id="Legs" transform="translate(0.000000, 45.790376)">
                            <g id="Legs/Jeans-Jump" transform="translate(0.000000, 0.000000)">
                                <g id="Group-21" transform="translate(0.000000, 0.000000)">
                                    <path d="M21.7213116,32.834765 L28.3787841,25.0104154 C28.7367891,24.5898329 29.311884,24.4910995 29.68225,24.7950252 C30.8026189,25.7120559 31.9900461,26.6111631 33.1878256,27.4554184 C34.3879228,28.3001373 35.6088792,29.0934036 36.8327713,29.8163667 C38.056509,30.5414931 39.2853455,31.1861185 40.4903871,31.7369549 C41.693111,32.2816109 42.8754393,32.7249067 43.9633606,33.0209523 C44.8524245,33.26091 45.679838,33.405997 46.3583016,33.4415349 C47.0437183,33.4838712 47.5607165,33.418049 47.918258,33.3250326 C48.0947111,33.2726529 48.2431974,33.2216638 48.37546,33.1583138 C48.5038597,33.0870836 48.6287057,33.0144628 48.7622043,32.9160385 C49.0202399,32.7012663 49.3476515,32.3913146 49.6923685,31.8448045 C49.729915,31.7846992 49.7836853,31.7371094 49.8525978,31.7003355 C49.8699032,31.6912193 49.8879811,31.6825666 49.9069861,31.6746864 L49.9680185,31.6391486 C50.0102004,31.6161263 50.055936,31.5958852 50.1047619,31.5781162 C50.30022,31.5078131 50.5469762,31.4783013 50.8283431,31.4858724 C51.1097101,31.493289 51.4258423,31.537634 51.7574257,31.6210707 C52.0873095,31.7041983 52.4239919,31.8245634 52.7663912,31.9934454 L58.832545,34.9960834 C59.1720086,35.1635747 59.4728441,35.3877721 59.7080119,35.6470438 C59.941789,35.9053884 60.117006,36.2029791 60.2248556,36.5240557 C60.3327052,36.8446688 60.3730329,37.1886132 60.3404308,37.5331757 C60.3203442,37.7065385 60.2987125,37.8751115 60.2264007,38.0498649 C60.1602694,38.2227642 60.0748241,38.3927278 59.9700648,38.5554292 C59.0216681,40.03164 57.7738266,41.454853 56.2549704,42.6384174 C55.4890529,43.2247917 54.657004,43.7408628 53.7854,44.1762786 C52.9096241,44.6052048 51.9952202,44.9367882 51.0752538,45.1866346 C49.2299131,45.6752026 47.3833363,45.7980399 45.655425,45.6957527 C43.9202516,45.5970194 42.2903011,45.2821233 40.7423967,44.865249 C38.8581189,44.350723 37.0976055,43.6734955 35.4155843,42.9134493 C33.738044,42.1473772 32.1354422,41.2992591 30.5946453,40.3874819 C29.0526123,39.4766317 27.5658947,38.508612 26.1219771,37.4923845 C24.6780594,36.4741482 23.2783323,35.4148118 21.9034816,34.2898075 C21.4439619,33.913261 21.3622249,33.255193 21.7213116,32.834765"
                                          fill="#D29863" id="Fill-1"></path>
                                    <path d="M40.6731906,3.19427962 C40.6895689,3.33164108 40.715218,3.44119032 40.7368497,3.56418213 L40.8062257,3.92404133 L40.9519308,4.64236912 C41.0002932,4.8903614 41.0582353,5.10034365 41.1154049,5.31805151 L41.2903128,5.96916644 C41.4069696,6.41895182 41.5376871,6.7936442 41.6670139,7.19244051 L41.8638626,7.78345015 L42.0672008,8.32841512 L42.2730112,8.87028984 L42.3768435,9.14084091 L42.4811393,9.39176893 L42.9023399,10.3923907 L43.3243131,11.3264177 C43.4666189,11.6454857 43.6047529,11.9265436 43.7445866,12.2205806 C43.8838022,12.5104457 44.02549,12.8109721 44.1606883,13.0799781 L44.571382,13.9077006 L44.9706419,14.6969496 L45.7422764,16.213797 L46.4602952,17.6410274 C47.3927771,19.5022828 48.1336636,21.1703979 48.6568424,22.6714851 C49.1486551,24.1527948 49.4264683,25.4366377 49.4365116,26.4508565 L49.4440827,26.6433789 C49.4482545,26.707656 49.4535079,26.7722422 49.4448552,26.8306478 C49.4352755,26.9505494 49.4298675,27.070451 49.4283224,27.190507 L49.4278589,27.2807422 C49.4263137,27.3104086 49.4190517,27.3377573 49.4151889,27.3664966 L49.3912394,27.5372327 L49.373625,27.7087414 L49.3671355,27.7946502 C49.3632727,27.8230805 49.3538475,27.8502747 49.3478215,27.8779324 C49.2904974,28.0979579 49.2755097,28.3243185 49.190837,28.544344 C49.1548356,28.6551294 49.1379937,28.7676143 49.097357,28.8808719 C49.0494582,28.9933568 49.0054222,29.1070779 48.9649399,29.2221896 L48.9068433,29.3957069 L48.8187713,29.571851 C48.7609837,29.6900529 48.7064408,29.8093364 48.6548337,29.9304741 C48.6407731,29.960604 48.6322749,29.9907339 48.6140425,30.0214818 L48.558418,30.1135712 L48.4504139,30.2994495 C48.3798018,30.4232139 48.3113528,30.5514591 48.2463031,30.675687 C48.0228783,31.0400271 47.830356,31.252327 47.71818,31.3526055 C47.7036558,31.3635759 47.6909858,31.3762459 47.6797064,31.390461 C47.6685815,31.4057577 47.6556025,31.402822 47.6463318,31.4127108 C47.636134,31.4182732 47.6294899,31.433879 47.6206827,31.4366602 C47.611721,31.4378963 47.604768,31.4412956 47.599051,31.446858 C47.5962698,31.4496392 47.5939521,31.4535021 47.5917889,31.4569013 C47.5880806,31.4562833 47.5849904,31.4561288 47.5822092,31.4565923 C47.5766467,31.4573649 47.5727839,31.4607641 47.5703117,31.4664811 C47.5661399,31.4686443 47.5594958,31.4643179 47.5564056,31.4677172 C47.5522338,31.4684897 47.5531608,31.478224 47.5451262,31.4737432 C47.5077342,31.4766789 47.4556636,31.5180882 47.2308481,31.5377113 C46.8192273,31.6049241 45.7668439,31.5455914 44.4653866,31.1752254 C43.2312966,30.8329806 41.7978858,30.2577312 40.3324909,29.5239522 C38.8629242,28.7912547 37.3508666,27.8975554 35.8553418,26.9114578 L26.7707898,40.7749215 C28.7397403,42.0553651 30.7915095,43.2610248 32.9908379,44.3435381 C35.1914024,45.4221887 37.5324186,46.3908264 40.1351787,47.0988019 C41.5135831,47.4717947 42.9777419,47.7602692 44.5313633,47.9157086 C46.0806584,48.0731566 47.7438291,48.0765559 49.4695772,47.8375253 C51.1897629,47.6096196 52.98396,47.087059 54.6624274,46.2803501 C56.3467662,45.4773496 57.8759747,44.3583713 59.1505468,43.1162468 C60.4292908,41.8701049 61.4537075,40.5015892 62.273859,39.131683 L62.8199055,38.1477485 L63.0884479,37.6540816 C63.1786831,37.4902985 63.2672187,37.3252794 63.3444748,37.1483628 L63.8196002,36.1030869 L64.0515232,35.5778995 L64.2536254,35.0304623 L64.6463957,33.9314162 C64.7686149,33.5612047 64.863949,33.1769325 64.96979,32.7989954 C65.1941419,32.0459023 65.3250138,31.2642245 65.4680922,30.4882636 C65.4847796,30.3910753 65.5047116,30.2941961 65.5181542,30.1966988 L65.5526105,29.9035889 L65.6181237,29.3164421 L65.6793106,28.7289862 C65.6884268,28.6311799 65.7004788,28.5332191 65.7066592,28.4354128 L65.7185567,28.1430755 L65.7561032,26.9729537 C65.7650649,26.7768775 65.7581119,26.5851278 65.7510043,26.3930689 L65.7299906,25.8165835 C65.7154665,25.0404681 65.6187417,24.2984999 65.5385498,23.5467974 C65.4921961,23.1744227 65.4235927,22.8156451 65.3644145,22.4499144 L65.270471,21.9038679 C65.2384869,21.7226249 65.1946054,21.5503437 65.1567499,21.3732726 L64.9166377,20.318726 C64.8260935,19.9767902 64.7301414,19.6396443 64.6355798,19.3004897 L64.4920379,18.7932258 L64.3328902,18.3037307 L64.0101139,17.3279854 C63.1045172,14.7862577 62.0193772,12.483406 60.9486068,10.3761669 C60.412449,9.31358569 59.8821627,8.30477473 59.3789161,7.32841136 C58.8688709,6.34648554 58.4050249,5.42234733 57.9850604,4.53204732 L57.6820617,3.87614251 L57.4135193,3.24928601 L57.3461519,3.09307405 L57.2897549,2.94536027 L57.1757248,2.65039624 L57.0615402,2.35713185 L56.971305,2.08457211 C56.7208405,1.35651004 40.6008788,2.66770162 40.6731906,3.19427962 Z"
                                          fill="#3E36B9" id="Fill-3"></path>
                                    <path d="M25.1021803,36.761263 C25.6020276,36.0761554 27.4047229,33.6061214 29.085508,31.3031152 C29.05476,31.2845737 29.0232395,31.2669593 28.9938822,31.2454821 C28.2241018,30.6816666 28.2936323,29.3340102 29.1329433,28.2573683 C29.9722542,27.1801084 31.210825,26.7406753 31.9149377,27.2561284 C31.9422863,27.276215 31.9660812,27.2995464 31.9909577,27.3217962 C32.2111378,27.0203426 32.3379924,26.8462072 32.3379924,26.8462072 C31.681006,26.3655194 31.029273,25.872007 30.3949999,25.3687604 C30.0777861,25.1173688 29.7638171,24.8636596 29.4592733,24.6111865 L29.0131962,24.2364941 L28.6516374,23.9239156 L16.7430636,37.174429 L17.2319406,37.6025826 L17.6458791,37.9554888 C17.9178208,38.1854031 18.1842,38.4057377 18.4511973,38.6243726 C19.0924234,39.1467788 20.2509568,38.5104971 21.494163,37.8304883 C22.7406139,37.1501706 24.0672567,36.4227265 25.1021803,36.761263"
                                          fill="#D7DBE2" id="Fill-6"></path>
                                    <path d="M26.7499151,40.7800822 L35.8574896,26.8875702 C37.0931246,27.6975238 38.338803,28.4428912 39.5631586,29.0859715 L31.81931,43.7825657 C30.0481352,42.8503929 28.3699769,41.8414274 26.7499151,40.7800822"
                                          fill="#D7DBE2" id="Fill-8"></path>
                                    <path d="M4.9749878,35.3461928 L11.6415765,27.5297234 C12.0006632,27.1096044 12.5774577,27.0133432 12.9510685,27.3206682 C14.0782359,28.2471241 15.2706075,29.1593649 16.4759581,30.0206166 C17.6826994,30.8843405 18.9121539,31.6989294 20.1482525,32.4558853 C21.3848146,33.2086693 22.6303385,33.9055199 23.8656645,34.508427 C24.4830957,34.8125073 25.0980548,35.0941832 25.7051337,35.3461928 C26.3120581,35.599593 26.9137291,35.8333702 27.4987128,36.0263561 C28.0313168,36.2038907 28.5555771,36.364429 29.0557335,36.4840216 C29.1822791,36.5173962 29.307434,36.5484532 29.4285717,36.5724026 L29.7939933,36.6516675 C30.0307062,36.6930768 30.2691187,36.7419026 30.4922345,36.7690968 C30.9444921,36.833992 31.3703281,36.8735471 31.7468746,36.8740107 C32.1238847,36.8758648 32.47231,36.8661306 32.7580032,36.8168411 C33.0477139,36.771878 33.2953971,36.7126998 33.5107873,36.6434783 C33.719997,36.5652951 33.9026305,36.4778411 34.0829464,36.3763265 C34.2623352,36.275739 34.4329168,36.1317335 34.623585,35.9702681 C34.6691662,35.9234509 34.7166015,35.8787968 34.7661999,35.8359969 C34.8151803,35.7910338 34.8607615,35.7289199 34.910978,35.6788579 L34.9868435,35.6014472 C35.012029,35.5744075 35.0355149,35.5390242 35.0605459,35.5088943 C35.1101444,35.4460078 35.1612879,35.3848209 35.2144402,35.3250246 C35.3012761,35.1967794 35.4513076,35.1277124 35.6498559,35.0889298 C35.8439234,35.0377862 36.0894435,35.0294426 36.3700378,35.0569458 C36.936789,35.079041 37.6396656,35.2320082 38.3017509,35.6077822 L44.1985592,38.9313423 C44.8590994,39.304026 45.3186191,39.8971988 45.4780758,40.5996118 C45.5483789,40.9537541 45.5443616,41.3350905 45.4629336,41.7171995 C45.3703807,42.0966817 45.1886742,42.475855 44.9328018,42.8228897 L44.4613847,43.4012293 C44.3813473,43.4968724 44.3051727,43.5939062 44.2214271,43.6876951 L43.9646276,43.9672079 C43.7908012,44.1518502 43.624855,44.3402007 43.4417579,44.5192805 L42.8833503,45.0500303 C42.114188,45.7380737 41.280594,46.3823901 40.3680442,46.9194749 C39.4581211,47.4570233 38.4931917,47.904491 37.5035402,48.2504441 C36.5121892,48.5868174 35.5043053,48.8195129 34.5058467,48.9661451 C33.5050703,49.1180308 32.5222174,49.1572769 31.5602237,49.1470791 C30.5960668,49.1373448 29.6617308,49.0497363 28.7519622,48.9197914 C27.8392579,48.7927823 26.9574561,48.6106123 26.097595,48.3967672 C25.2344892,48.186785 24.4016678,47.9332303 23.584143,47.6600525 C22.6848813,47.3610711 21.8157495,47.0239252 20.962687,46.6676198 C20.1086974,46.3122415 19.277112,45.930596 18.4626776,45.5297911 C16.8304094,44.7318894 15.2685988,43.8554955 13.7514423,42.9318209 C12.237067,42.0047469 10.7678093,41.0293106 9.33918838,40.0072116 C7.90902232,38.9848035 6.51980201,37.9228403 5.15205892,36.7989177 C4.69501147,36.4236073 4.61528311,35.7656938 4.9749878,35.3461928"
                                          fill="#EDB98A" id="SKIN"></path>
                                    <path d="M26.0298723,0.525990853 C25.8767506,0.890794449 25.8087651,1.37240936 25.8464661,1.90006895 C25.9407187,3.08147018 26.1287602,4.15826656 26.3565113,5.14575482 C26.5854986,6.13417016 26.8549681,7.03698566 27.1395798,7.87907783 C27.4248095,8.72147902 27.7262631,9.50315686 28.0318884,10.2355453 C28.3373593,10.9691698 28.6474655,11.6660204 28.9558721,12.3270241 C29.2641242,12.9864827 29.5714492,13.6193652 29.8738299,14.2296888 L30.7633573,15.9940651 C31.3424695,17.1306577 31.893924,18.2040548 32.3984067,19.228008 C33.4084538,21.2726696 34.2363308,23.1458225 34.7701709,24.8142466 C35.0340779,25.6453683 35.2347894,26.4255011 35.354382,27.1370303 C35.3905379,27.3179643 35.4070707,27.4874643 35.436119,27.6612906 C35.4509522,27.8283185 35.4793825,27.9999817 35.4872626,28.1599019 C35.5195557,28.4879316 35.5226459,28.7951021 35.5224914,29.0953195 C35.5217188,29.3947644 35.4951427,29.6793761 35.4690301,29.9612066 C35.4270028,30.2391742 35.3939371,30.5154423 35.3248701,30.7866114 C35.2091404,31.3318854 35.0121372,31.8751507 34.759664,32.4473099 C34.6992497,32.5900793 34.6184398,32.7340847 34.5535446,32.8799444 C34.470108,33.025804 34.3998048,33.1728997 34.3128144,33.3216951 L34.1811699,33.546047 L34.1175108,33.6565233 L34.0643586,33.7328524 C33.99421,33.8309677 33.9327141,33.953805 33.8653467,34.0271984 C33.6068476,34.3841218 33.398874,34.5754081 33.2641393,34.6849573 C33.1896643,34.7226583 33.141302,34.7742655 33.0810422,34.7921889 C33.029126,34.8274177 32.9637673,34.8403967 32.8868202,34.8714537 C32.7219555,34.9137901 32.4659286,34.9828571 32.0274226,34.9844022 C31.9724162,34.9837842 31.9214272,34.9888831 31.863176,34.988265 C31.8021437,34.9844022 31.7412658,34.9820845 31.6802334,34.981003 L31.5881441,34.9797669 L31.486784,34.9708051 C31.4194166,34.9652427 31.3518947,34.9607618 31.2842183,34.9576716 C30.9954348,34.9225973 30.6918181,34.8904587 30.3511184,34.8207737 C29.6791443,34.6950006 28.9178621,34.4942891 28.1086811,34.2136948 C26.7329033,33.7447498 25.2373786,33.0747844 23.7276386,32.2725564 C22.2154265,31.4698649 20.6825098,30.5344473 19.1698341,29.5145114 L9.94606644,43.2858858 C11.883342,44.5746731 13.8949379,45.7923848 16.0241177,46.9073457 C18.1546882,48.0195254 20.4003703,49.0343623 22.8458368,49.8537412 C24.2817198,50.3356651 25.794859,50.7432686 27.4011691,51.0318977 C28.1993798,51.1811566 29.0346734,51.2845253 29.8810919,51.3628631 C30.7404895,51.4238954 31.6088487,51.4668498 32.5162996,51.4299214 C34.3129689,51.3824861 36.2261405,51.0762427 38.1033107,50.4498497 C39.980481,49.8222207 41.7956917,48.8341144 43.354103,47.6185659 C44.9063338,46.3942103 46.1945031,44.9660528 47.2275725,43.5000399 C47.4998232,43.1333822 47.7218574,42.7631706 47.9605789,42.3915685 L48.1361049,42.1128283 L48.2898447,41.8481487 L48.5926889,41.3197165 C48.7923188,40.9654198 48.9785061,40.5962898 49.1687108,40.2334949 C49.3465545,39.8584935 49.5315057,39.4902906 49.6976065,39.106173 C50.3680355,37.5783551 50.9228892,35.9575208 51.277495,34.2779719 C51.4663091,33.4414422 51.5893009,32.5906973 51.6895794,31.741034 C51.7740976,30.8907527 51.8280224,30.0383082 51.8280224,29.1943619 C51.8275589,28.3518062 51.7955748,27.5124953 51.7144558,26.6932709 C51.6816992,26.2794869 51.6246842,25.8776004 51.5755493,25.4709239 C51.5138988,25.0716641 51.4581199,24.6676144 51.3824089,24.2763892 C51.0988787,22.6966552 50.6914297,21.1985037 50.2248025,19.7706553 C49.2822774,16.9194394 48.0905238,14.3712221 46.9097406,12.0088832 C45.7283394,9.65195223 44.5334956,7.46529382 43.5830903,5.46049642 C43.1124458,4.46420096 42.6977347,3.50916029 42.4081786,2.66505946 C42.1144507,1.82250376 41.9417059,1.08146266 41.9024597,0.58702322 C41.8996785,0.483499963 41.793374,0.393573791 41.6458148,0.336558744 C41.4939292,0.276298937 26.1788221,0.166595187 26.0298723,0.525990853 Z"
                                          fill="#694FD9" id="Fill-12"></path>
                                    <path d="M8.32898681,39.2729845 C8.8328515,38.5909671 10.6496074,36.1312854 12.3433715,33.8377045 C12.312469,33.819163 12.2809485,33.8017031 12.2515912,33.7799169 C11.4832014,33.210848 11.5567493,31.8619554 12.399614,30.7884038 C13.2427877,29.7140796 14.4870755,29.2831447 15.1950509,29.807096 C15.2223996,29.8271826 15.2466581,29.850823 15.2716891,29.8732273 C15.4934142,29.5730098 15.6213504,29.399647 15.6213504,29.399647 C14.9595742,28.9118516 14.3067596,28.4093775 13.6673876,27.9008774 C13.3487832,27.6463956 13.0331145,27.3900597 12.7265621,27.1349599 L12.2766222,26.7562502 L11.9085738,26.4376457 L0,39.6880046 L0.482541987,40.1110593 L0.892617694,40.4613388 L1.69021031,41.1262053 C2.32556498,41.6470663 3.48208973,41.0107846 4.72560491,40.3324755 C5.97159229,39.6547844 7.29869864,38.9322848 8.32898681,39.2729845"
                                          fill="#D7DBE2" id="Fill-15"></path>
                                    <path d="M9.92542359,43.291062 L19.1723681,29.4907938 C20.4217548,30.3294867 21.684584,31.1062202 22.9381425,31.8012166 L14.8860417,46.331092 C13.1660106,45.3768239 11.5186002,44.3598237 9.92542359,43.291062"
                                          fill="#D7DBE2" id="Fill-17"></path>
                                    <path d="M41.8970982,15.2967201 L40.3519749,15.2967201 C31.9038591,15.2967201 25.0552549,8.44811581 25.0552549,0 L57.1938182,0 C57.1938182,8.44811581 50.345214,15.2967201 41.8970982,15.2967201"
                                          fill="#694FD9" id="Fill-19"></path>
                                </g>
                            </g>
                        </g>
                        <g id="Body/Sweats-Grab-Up" transform="translate(12.979035, 6.442114)">
                            <g id="Right-Arm" transform="translate(34.167205, 0.000000)">
                                <path d="M54.3545588,11.454307 C52.0076711,12.3433709 48.9613061,12.3949781 46.7100616,13.5697353 C40.7435682,17.0916892 34.6377047,20.236633 28.0740212,22.7930394 C25.4656987,23.8381608 22.4870101,24.7877935 19.7793361,25.5529385 C17.7369922,26.1073287 15.383615,26.6206187 13.2913636,26.9934569 C11.3622773,27.370467 9.08584722,27.7687998 7.52913556,26.2572057 C4.1983134,23.8681361 5.77325751,17.8988615 9.70729579,17.2197799 C11.4872778,16.9928013 13.5197329,16.6068295 15.2600052,16.1703322 C18.3097694,15.454013 21.4785081,14.4292873 24.3930741,13.2828059 C32.3951128,10.4230918 39.7242504,5.44439568 47.3693657,1.70705159 C50.2589006,0.186804841 55.7726729,-0.501238536 57.7694357,0.407757464 C58.632696,0.567677719 59.0418447,1.97111316 58.1807475,2.36975495 C57.8972174,2.50093591 56.8159401,2.73826684 55.5524929,3.1276379 C56.1589537,3.40390593 56.614147,3.7870965 56.9409406,4.14664667 C57.6773463,4.95165588 56.726941,6.35261912 55.5596004,6.01454616 C54.5368834,5.71278359 53.4886717,4.72127801 51.4012103,5.06043256 C49.1048481,7.09953169 50.8224071,9.64743991 53.4500437,8.97283911 C54.9560753,8.79932177 55.6003917,10.9679022 54.3545588,11.454307"
                                      fill="#EDB98A" id="SKIN"></path>
                                <path d="M54.3545588,11.454307 C52.0076711,12.3433709 48.9613061,12.3949781 46.7100616,13.5697353 C40.7435682,17.0916892 34.6377047,20.236633 28.0740212,22.7930394 C25.4656987,23.8381608 22.4870101,24.7877935 19.7793361,25.5529385 C17.7369922,26.1073287 15.383615,26.6206187 13.2913636,26.9934569 C11.3622773,27.370467 9.08584722,27.7687998 7.52913556,26.2572057 C4.1983134,23.8681361 5.77325751,17.8988615 9.70729579,17.2197799 C11.4872778,16.9928013 13.5197329,16.6068295 15.2600052,16.1703322 C18.3097694,15.454013 21.4785081,14.4292873 24.3930741,13.2828059 C32.3951128,10.4230918 39.7242504,5.44439568 47.3693657,1.70705159 C50.2589006,0.186804841 55.7726729,-0.501238536 57.7694357,0.407757464 C58.632696,0.567677719 59.0418447,1.97111316 58.1807475,2.36975495 C57.8972174,2.50093591 56.8159401,2.73826684 55.5524929,3.1276379 C56.1589537,3.40390593 56.614147,3.7870965 56.9409406,4.14664667 C57.6773463,4.95165588 56.726941,6.35261912 55.5596004,6.01454616 C54.5368834,5.71278359 53.4886717,4.72127801 51.4012103,5.06043256 C49.1048481,7.09953169 50.8224071,9.64743991 53.4500437,8.97283911 C54.9560753,8.79932177 55.6003917,10.9679022 54.3545588,11.454307"
                                      fill="#000000" id="SHADOW" opacity="0.12"></path>
                                <path d="M42.0952575,3.37731436 C40.9886402,4.02271234 39.3019837,5.04249368 38.1864047,5.64231052 C34.6503902,5.41069654 11.9021304,16.889128 0.484558776,16.8892471 C-1.4145522,19.7474161 2.67221063,26.3579323 5.76137551,28.216252 C7.92810183,29.7113132 10.5591377,29.3061819 13.0554388,29.2167193 C20.5698366,28.630036 27.8924847,26.0951068 34.5002042,22.5509031 C37.7431088,20.6522557 41.506411,18.6021862 43.8553073,15.7497342 C45.0745641,15.1003189 46.8429576,14.017342 48.0444455,13.3220365 L42.0952575,3.37731436 Z"
                                      fill="#2DB386" id="Fill-4"></path>
                                <path d="M38.3430802,5.82094221 L44.0152276,15.9262027 C45.1943111,15.2896119 46.9937617,14.2043174 48.163729,13.5212184 L42.214541,3.57634169 C41.118276,4.21571368 39.4475343,5.22560623 38.3430802,5.82094221"
                                      fill="#25996F" id="Fill-6"></path>
                            </g>
                            <g id="Body" transform="translate(6.180542, 16.889128)">
                                <path d="M42.9708646,29.7126299 C31.7582155,30.4975973 0.222625914,26.9068034 0.579541954,24.9083153 C1.28743545,20.9445912 2.51297834,14.7508491 4.25617063,6.32708862 C4.25617063,2.83285141 7.37077721,0 11.2127146,0 L32.7404314,0 C36.5823689,0 39.6968116,2.83285141 39.6968116,6.32708862 C41.2347714,14.4060991 42.3522383,20.3968963 43.0492127,24.2994806 C43.298076,25.6929458 43.2719598,27.4973289 42.9708646,29.7126299 Z"
                                      fill="#34D1A1" id="Sweat-Body"></path>
                                <path d="M0,30.1593408 C15.5517515,35.6684076 32.4131243,30.4571282 43.9530151,30.1593408 L43.2129154,24.1505869 C31.908429,24.5548333 15.7323155,29.4908082 0.567720783,24.2766999 L0,30.1593408 Z"
                                      fill="#2DB386" id="Bottom"></path>
                            </g>
                            <g id="Left-Arm" transform="translate(0.000000, 16.889247)">
                                <path d="M27.4373482,34.9847666 C19.7750821,34.7877634 12.2731997,29.1115987 12.7569778,21.0165435 C12.8697718,17.2927965 14.2253084,13.8522705 16.2684249,10.5821717 C17.6332322,8.42718834 16.9356091,5.3349332 14.9847365,3.71857978 C7.16394073,-1.90906807 2.58434997,15.2105884 2.56210019,20.7588169 C2.4455979,24.6631889 3.31936509,28.7060038 5.16238809,32.1850033 C8.82850199,39.3075579 16.3245129,43.778372 24.031433,44.8625849 C25.7922555,45.2284701 38.4763267,46.2278558 34.0846229,42.3118955 C34.6363864,42.0428895 34.9540637,41.4563608 34.850386,40.8608703 C34.7675674,40.3831182 34.4460272,40.0047175 34.0374966,39.8210023 C34.9849662,39.3648819 34.9466471,37.8775463 34.0583558,37.3902144 C34.7167328,37.28391 35.4715255,37.1369687 36.1221769,36.9850831 C37.0753634,36.9050457 38.0257687,36.2522312 37.6948033,35.1519489 C36.938311,33.0372933 34.4090988,34.839525 32.8650571,34.7601057 C32.5135416,32.6740348 30.005652,33.9000901 28.6080881,33.6431361 C28.0158423,33.6259852 27.4934362,34.2241024 27.4373482,34.9847666"
                                      fill="#EDB98A" id="SKIN"></path>
                                <path d="M23.8920938,45.7794456 C21.994837,45.4886534 20.0924813,45.038559 18.2302988,44.3648853 C13.3096993,44.4614555 8.43298135,40.7905517 5.22530551,36.9711616 C0.0761823188,30.7203655 -1.24412549,21.7181685 1.16132237,14.0827875 C2.25727828,10.2672601 4.60045767,6.07765849 7.04407007,3.23370466 C9.48768247,0.389750831 13.7181388,0 19.1499561,0 C24.5817735,0 19.6774612,6.32827748 19.1499561,8.89441815 C18.5022404,10.9432516 17.2230329,12.8130052 16.6266153,14.8779079 C13.7838976,22.9555032 15.7596467,28.149744 22.1292627,33.4521434 C23.2354165,33.8558841 24.4169722,34.1355514 25.6336022,34.3226658 L23.8920938,45.7794456 Z"
                                      fill="#34D1A1" id="Fill-12"></path>
                                <path d="M18.3688036,44.1684383 L22.2428911,33.2467347 C23.3230868,33.6390415 24.479148,33.9092836 25.6684293,34.0933077 L23.9270754,45.549933 C22.0641203,45.2633126 20.1965299,44.8254247 18.3688036,44.1684383"
                                      fill="#2DB386" id="Fill-15"></path>
                            </g>
                        </g>
                        <g id="Head/Bun-Loose" transform="translate(32.293076, 0.000000)">
                            <path d="M2.76487546,13.8972582 C5.10956219,12.4741396 4.78376733,6.82823924 9.5638966,6.79871451 C14.3440258,6.76953843 13.406974,10.4504764 15.7208244,14.8156745 C18.0346747,19.1808725 18.0080564,24.4129472 12.1058669,24.4129472 C9.68311825,24.4129472 8.46177322,24.4129472 5.17329762,24.4129472 C-1.36883944,24.4129472 -1.1604201,16.2797347 2.76487546,13.8972582 Z"
                                  fill="#000000" id="Path-2"></path>
                            <g id="Head" transform="translate(3.090246, 6.798558)">
                                <g fill="#EDB98A" id="head">
                                    <path d="M2.00866021,9.57976407 L8.96171478,9.57976407 L8.96171478,17.5576989 C8.96171478,19.7061927 7.40515763,21.4478557 5.48518749,21.4478557 C3.56521736,21.4478557 2.00866021,19.7061927 2.00866021,17.5576989 L2.00866021,9.57976407 Z"
                                          id="SKIN"></path>
                                    <path d="M9.27885132,14.5241584 L8.50829836,14.5241584 C4.91866806,14.5241584 2.00873746,11.6142278 2.00873746,8.02459753 L2.00873746,4.97576036 C2.00873746,2.22775868 4.23634164,-4.9514329e-13 6.98449783,-4.9514329e-13 L7.84868525,-4.9514329e-13 C10.5968414,-4.9514329e-13 12.8246001,2.22775868 12.8246001,4.97576036 L12.8246001,10.9784096 C12.8246001,12.9366988 11.2371405,14.5241584 9.27885132,14.5241584"
                                          id="SKIN"></path>
                                    <path d="M3.86280809,9.03897094 C3.86280809,10.1055695 2.99815713,10.970375 1.93140405,10.970375 C0.864650964,10.970375 0,10.1055695 0,9.03897094 C0,7.97237237 0.864650964,7.10756689 1.93140405,7.10756689 C2.99815713,7.10756689 3.86280809,7.97237237 3.86280809,9.03897094"
                                          id="SKIN"></path>
                                </g>
                                <path d="M1.55547556,8.21517303 C1.69528309,8.21517303 1.88875671,8.24741864 2.08727923,8.34667989 C2.4189522,8.51251638 2.62872319,8.81573586 2.64279578,9.25559791 L2.64355135,9.30324882 L2.18001438,9.30324882 C2.18001438,9.01965912 2.07165281,8.85711678 1.87997919,8.76127997 C1.80880071,8.72569073 1.73017991,8.70210448 1.65117107,8.68893634 C1.61229441,8.6824569 1.58198572,8.6796749 1.56443878,8.67892756 L1.55547556,8.67871001 L1.55547556,8.21517303 Z"
                                      fill="#000000" id="ear-line"></path>
                                <path d="M5.36941915,14.8844311 C3.93323364,14.3763781 3.21672751,13.0931695 2.93298726,11.3671775 C4.05644482,13.2370974 6.09406225,14.4952996 8.42771132,14.5236537 L8.50829836,14.524143 L8.96171478,14.524143 C7.735383,15.1777053 6.53795112,15.2978013 5.36941915,14.8844311 Z"
                                      fill="#000000" id="SHADOW" opacity="0.12"></path>
                            </g>
                            <path d="M14.9820312,8.98879535 C14.0883589,7.66736218 12.5749689,6.79854225 10.8583521,6.79854225 L9.99448436,6.79854225 C7.24799024,6.79854225 5.0214537,9.02273363 5.0214537,11.7663349 C5.0214537,11.7663349 4.94671078,13.378866 4.94439436,13.8947278 C4.94439436,13.9203359 5.7935915,13.8947278 5.7935915,13.8947278 L6.95179818,9.51637613 C12.5150794,9.51637613 15.2967201,9.51637613 15.2967201,9.51637613 C15.2370951,9.39277898 15.1321989,9.21691872 14.9820312,8.98879535 Z"
                                  fill="#000000" id="Fill-10"></path>
                            <circle cx="8.18915316" cy="3.86280809" fill="#000000" id="Oval" r="3.86280809"></circle>
                            <path d="M10.9408051,6.79854225 C13.5335502,6.79854225 15.6651728,8.76365805 15.914754,11.2792448 L5.09892204,11.2792448 C5.3484867,8.76365805 7.47997231,6.79854225 10.0727174,6.79854225 L10.9408051,6.79854225 Z"
                                  fill="#000000" id="Combined-Shape"></path>
                        </g>
                        <g fill="#000000" id="Expression/Happy" transform="translate(40.636747, 11.742937)">
                            <path d="M1.78626447,2.00866021 C1.78626447,1.75263329 1.57875442,1.54512324 1.3227275,1.54512324 C1.06670058,1.54512324 0.859190524,1.75263329 0.859190524,2.00866021 C0.859190524,2.26468713 1.06670058,2.47219718 1.3227275,2.47219718 C1.57875442,2.47219718 1.78626447,2.26468713 1.78626447,2.00866021"
                                  id="Fill-1"></path>
                            <path d="M5.80358488,2.00866021 C5.80358488,1.75263329 5.59607483,1.54512324 5.34004791,1.54512324 C5.08402099,1.54512324 4.87651094,1.75263329 4.87651094,2.00866021 C4.87651094,2.26468713 5.08402099,2.47219718 5.34004791,2.47219718 C5.59607483,2.47219718 5.80358488,2.26468713 5.80358488,2.00866021"
                                  id="Fill-3"></path>
                            <polygon id="Stroke-5"
                                     points="3.73884951 1.60642847 4.19463525 1.52201345 4.857092 5.09884488 3.3313877 5.09884488 3.3313877 4.63530791 4.29976279 4.6352152"></polygon>
                            <path d="M1.99658664,5.03493858 C1.99658664,5.60265742 2.57478438,6.1276796 3.19554719,6.14805045 L3.23283974,6.14866341 L3.23283974,6.61220038 C2.36793067,6.61220038 1.55996601,5.90669963 1.5337078,5.07654738 L1.53304967,5.03493858 L1.99658664,5.03493858 Z"
                                  id="Stroke-7"></path>
                            <path d="M2.17254528,0 L2.17254528,0.463536971 C1.67402264,0.463536971 1.21931145,0.597275561 0.817234928,0.820651401 C0.696607868,0.88766644 0.588480576,0.958655458 0.493762992,1.02990132 L0.447525874,1.06552843 C0.393795079,1.10794751 0.356164561,1.14099337 0.33555702,1.16063148 L0.32777014,1.16821518 L0,0.840445032 C0.110808984,0.729636056 0.310849217,0.57170955 0.592121474,0.415447189 C1.03887002,0.167253549 1.54348774,0.0137584433 2.09679355,0.000880216535 L2.17254528,0 Z"
                                  id="Stroke-9"></path>
                            <path d="M4.33571781,-4.9514329e-13 C4.91878143,-4.9514329e-13 5.44908632,0.155972017 5.91614161,0.415447189 C6.17983435,0.561943151 6.37213175,0.709901742 6.48644267,0.81912811 L6.50826309,0.840445032 L6.18049295,1.16821518 L6.15089509,1.14060937 C6.13360386,1.12519776 6.11084021,1.1057845 6.08277628,1.08312241 L6.06073721,1.06552843 C5.95547771,0.982428848 5.83175973,0.89883561 5.69102816,0.820651401 C5.30905546,0.608444345 4.87957997,0.477134921 4.41016651,0.464534503 L4.33571781,0.463536971 L4.33571781,-4.9514329e-13 Z"
                                  id="Stroke-11"></path>
                        </g>
                    </g>
                </g>
                <g id="arm" transform="translate(0.000000, 29.483910)">
                    <path d="M18.4345032,24.7111895 L18.4344104,24.711204 C18.0225282,24.8334709 17.6111925,24.8671289 17.2201481,24.8757691 C17.0232771,24.8805862 16.8345535,24.8773837 16.6560739,24.8709551 C16.4710668,24.8689702 16.3043022,24.8589888 16.1424451,24.8541171 C15.8228927,24.8400179 15.5476654,24.8376295 15.3292193,24.8115929 C15.1082215,24.7856733 14.9361903,24.7330663 14.770138,24.5990598 C14.4076725,24.3048021 13.8289429,23.9922289 13.1092607,23.7103927 C12.3914329,23.424659 11.5531386,23.1614072 10.6457028,22.8728949 C9.61331173,22.5416303 8.48325852,22.1847576 7.27193938,21.6272983 C6.66813062,21.3491311 6.03933643,21.0073442 5.41465767,20.5772405 C4.79054797,20.1495138 4.16884457,19.6066037 3.62219149,18.9646797 C3.07532165,18.3207976 2.62183605,17.5680881 2.29957827,16.7947125 C1.97316331,16.0191452 1.78755544,15.23165 1.68543744,14.481198 L1.65173947,14.2009167 C1.64039823,14.1082025 1.63018026,14.0141728 1.62489031,13.9146231 C1.61406278,13.7175551 1.59539895,13.524395 1.59648524,13.3239154 C1.59062719,12.926153 1.60817573,12.5223325 1.6561067,12.1179969 C1.74986648,11.3092771 1.96152668,10.5020096 2.2716945,9.75494277 C2.58097633,9.00649746 2.98394679,8.31967595 3.43535101,7.71099827 C3.88809524,7.10296349 4.38661081,6.56950686 4.90252128,6.09564683 C5.93767237,5.1491102 7.03551706,4.43179746 8.13519368,3.82938027 C9.23706241,3.22936939 10.3481516,2.74641132 11.4600221,2.3323078 C12.5722405,1.91919318 13.6863061,1.57504992 14.8023864,1.27821903 C15.8339123,1.00400228 16.8510694,1.13623632 17.6270189,1.55077211 C18.4060241,1.96596518 18.9428162,2.65953851 19.0910803,3.50006994 C19.2394137,4.34163413 18.9876833,5.16868498 18.4990977,5.83739449 C18.0079029,6.50765346 17.2796346,7.02178768 16.4047447,7.25435335 C15.4552464,7.50682827 14.5254114,7.79548679 13.6343152,8.12652817 C12.743962,8.45745253 11.8923006,8.83285451 11.1181486,9.25497039 C10.3453351,9.67592668 9.6505824,10.148254 9.11072173,10.6444822 C8.84082751,10.8919265 8.61058385,11.1438479 8.42588872,11.3912527 C8.2426412,11.6393784 8.1065785,11.8813067 8.00897502,12.1178425 C7.91138189,12.3550407 7.85049377,12.5877869 7.82079925,12.8370634 C7.80559744,12.9615678 7.80052913,13.0911178 7.80182046,13.2259284 C7.79843425,13.2919288 7.81117109,13.3641189 7.81198188,13.4331586 C7.81198556,13.4666506 7.8169602,13.5050525 7.82256139,13.5443995 L7.83626917,13.6609354 C7.87813155,13.9649792 7.94273188,14.2235053 8.03275889,14.4306821 C8.12337413,14.6397587 8.22472342,14.8122292 8.36824545,14.982897 C8.51613093,15.1510749 8.6978559,15.325499 8.95563868,15.5004694 C9.21142695,15.6754691 9.52104128,15.8530931 9.88833339,16.0210647 C10.6191468,16.3608273 11.5287706,16.6642707 12.5319995,16.9821956 C13.4155937,17.2650695 14.3753667,17.5588125 15.4061305,17.966522 C15.9212418,18.1713682 16.4553071,18.4061527 17.00422,18.7000811 C17.5520376,18.9937075 18.1157728,19.3460247 18.6661247,19.787644 C19.1680111,20.1891714 19.5724437,20.7199968 19.8109128,21.2751559 C20.0508739,21.8313136 20.1300176,22.3980909 20.0597373,22.8856453 C20.0278329,23.128818 19.9541164,23.3551401 19.863712,23.5543929 C19.7656728,23.7553225 19.6422954,23.9322528 19.5008278,24.0834733 C19.2143741,24.3871325 18.843272,24.5896974 18.4345032,24.7111895"
                          fill="#B18058" id="SKIN"></path>
                    <path d="M16.4390046,26.5153546 C16.2045013,26.5205952 15.9961995,26.4542498 15.8345191,26.3686076 C15.7548708,26.3246025 15.6898577,26.273264 15.644448,26.215897 C15.5940556,26.1631099 15.5630277,26.1051858 15.5566918,26.0409064 C15.5195297,25.768761 15.4600883,25.546805 15.3816636,25.3706295 C15.302372,25.192598 15.2148171,25.0475577 15.08567,24.8972075 C14.952873,24.749045 14.7794921,24.5911442 14.5397047,24.4281411 C14.2980701,24.2660931 13.9985467,24.101017 13.6528158,23.9416998 C13.3388151,23.7975001 13.1776764,23.3321584 13.3458274,22.8972198 C13.4299162,22.6810293 13.588578,22.5134383 13.7719793,22.4252558 C13.9573884,22.3353339 14.1708215,22.3239235 14.3600642,22.4098743 C14.7693718,22.5983646 15.1510348,22.8051559 15.4912362,23.0337522 C15.8299427,23.2637227 16.1211272,23.5174963 16.3646025,23.7932999 C16.6054199,24.0709454 16.7931446,24.3750742 16.9387016,24.7103226 C17.0848836,25.0447135 17.1796787,25.4168944 17.2338316,25.8148313 C17.2441556,25.9071364 17.2310082,25.9979195 17.1980108,26.0806328 C17.1598776,26.1657679 17.1024372,26.242653 17.0297477,26.3062842 C16.8867834,26.4331665 16.6717685,26.5111469 16.4390046,26.5153546"
                          fill="#B18058" id="SKIN"></path>
                    <path d="M17.9094042,27.4315234 C17.6766001,27.4109736 17.4727642,27.3069219 17.3311725,27.164509 C17.2598363,27.0931978 17.1984417,27.0137743 17.159612,26.9271918 C17.119712,26.8410625 17.1020391,26.7474478 17.0985286,26.6536901 C17.1034569,25.9088666 16.9777143,25.2366157 16.7198377,24.6821409 C16.6533648,24.5397578 16.6687661,24.373475 16.7383221,24.1993278 C16.813841,24.0237672 16.9378568,23.8442695 17.1304146,23.709577 C17.3200064,23.576585 17.5477305,23.520418 17.7532104,23.5678522 C17.9626997,23.6105751 18.1535462,23.7550039 18.2541254,23.9710506 C18.6448357,24.8107834 18.7961916,25.7412483 18.791214,26.6543015 C18.7946616,26.7721685 18.7644555,26.8837601 18.7181557,26.9833696 C18.6710053,27.0830183 18.6076095,27.170329 18.5256714,27.2404455 C18.3603237,27.3810049 18.1422085,27.452073 17.9094042,27.4315234"
                          fill="#B18058" id="SKIN"></path>
                    <path d="M19.3917451,27.7608681 C19.159436,27.7362554 18.9571359,27.6155477 18.8170885,27.4493613 C18.7462166,27.3660222 18.6950994,27.2710328 18.6562413,27.1681354 C18.6171827,27.0651747 18.5976138,26.9548752 18.6019999,26.8395697 C18.617788,25.9459722 18.5084212,25.0394459 18.1591571,24.2178549 C18.1109514,24.1142473 18.0922523,24.0034313 18.0836407,23.8955807 C18.0747656,23.7878667 18.0864547,23.677768 18.115794,23.5702977 C18.1665434,23.3611604 18.2891066,23.1576022 18.4852645,23.0311666 C18.6812513,22.9048529 18.9194884,22.886595 19.1546456,22.978693 C19.2674715,23.0265815 19.3779835,23.1017804 19.477941,23.2003689 C19.5776834,23.2988016 19.6556943,23.4245663 19.7194473,23.5648159 C19.9522806,24.1150748 20.1026485,24.683729 20.1896639,25.2401582 C20.2768268,25.797513 20.3031317,26.3439579 20.2942555,26.8757338 C20.2895101,27.011495 20.2608581,27.1400152 20.2135003,27.2544977 C20.1658638,27.3690241 20.0925131,27.4661572 20.0101137,27.5459291 C19.8433395,27.705025 19.6241322,27.7853735 19.3917451,27.7608681"
                          fill="#B18058" id="SKIN"></path>
                    <path d="M21.2690418,23.4047583 C21.0483411,23.4823059 20.7996238,23.4144503 20.5752886,23.2623918 C20.458538,23.1862778 20.3469802,23.0883776 20.246524,22.9723148 C20.1454958,22.8562473 20.0448949,22.7249318 19.9648786,22.5746244 C19.6406217,21.9936951 19.2239918,21.4627983 18.7681084,21.0100019 C18.3116174,20.5557833 17.8175829,20.1784471 17.3226562,19.862449 C17.1950703,19.778079 17.0830462,19.6545399 16.9809352,19.5005961 C16.8801644,19.3532726 16.7898993,19.1828518 16.7129255,19.0229567 C16.6368584,18.8657654 16.5736003,18.7154755 16.5290842,18.6045505 C16.4852979,18.4952183 16.4609285,18.4259038 16.4609285,18.4259038 C16.6209222,18.4997618 16.755733,18.5135421 16.8822537,18.4878294 C17.0091856,18.462906 17.1318008,18.4084906 17.2753065,18.3674841 C17.4193267,18.3279148 17.5792752,18.2897271 17.7922302,18.3261165 C17.8983038,18.3435684 18.0149179,18.3734026 18.1477644,18.4292392 C18.2819394,18.489231 18.4291271,18.5657701 18.5949829,18.6812111 C19.1167226,19.0424191 19.6444915,19.4755451 20.1358903,19.9917259 C20.6272244,20.506304 21.077496,21.1049603 21.4398584,21.7482021 C21.5398694,21.9337869 21.6168039,22.1227213 21.654144,22.3039438 C21.6909415,22.4853467 21.6994747,22.6572534 21.6817187,22.808157 C21.636753,23.1109786 21.4888138,23.327357 21.2690418,23.4047583"
                          fill="#B18058" id="SKIN"></path>
                    <path d="M20.9483028,27.005387 L20.9482098,27.0054015 C20.7127466,26.996846 20.5116802,26.8785056 20.3559166,26.6955336 C20.2015606,26.512435 20.1068466,26.2716498 20.0850953,25.995844 C20.0508392,25.5339558 19.989209,25.06338 19.864793,24.5913064 C19.7436776,24.120231 19.5715888,23.6494979 19.3412121,23.201322 C19.1118084,22.7532778 18.8241288,22.3302559 18.4961907,21.9533286 C18.1686138,21.5756804 17.8030076,21.2437757 17.4228568,20.9574268 C17.3091691,20.8730504 17.2137654,20.7773503 17.1377259,20.6705356 C17.0607814,20.5687974 17.0027575,20.457343 16.965326,20.3418865 C16.8904957,20.1147638 16.8962885,19.8756084 17.0148006,19.6741112 C17.133422,19.4744945 17.3461363,19.352188 17.6053315,19.3346145 C17.7349868,19.3273843 17.8757017,19.3453583 18.0185251,19.3885227 C18.1621655,19.4380104 18.3079379,19.5116413 18.4453406,19.6140104 C18.9064301,19.9614294 19.3620591,20.3731828 19.7752161,20.8494066 C20.1885528,21.3243687 20.5560933,21.8638503 20.8472536,22.4324389 C21.139729,23.0009154 21.3556885,23.5940607 21.5052517,24.176789 C21.6583809,24.7621815 21.7331847,25.3304013 21.7736446,25.8796457 C21.7825165,26.0417264 21.7726491,26.2021091 21.7302374,26.3386787 C21.6894254,26.4763248 21.6286898,26.5994607 21.5527564,26.7007008 C21.4020545,26.9045158 21.1798728,27.0116143 20.9483028,27.005387"
                          fill="#B18058" id="SKIN"></path>
                    <path d="M15.7210229,17.7910735 L13.0350972,24.2876032 C12.3593126,24.0088162 11.5350435,23.7451586 10.6260436,23.4569875 C10.5936963,23.469672 10.5566937,23.4806229 10.5177982,23.4904485 C10.478795,23.5001964 10.4380362,23.509082 10.3851596,23.513614 C10.2844482,23.5244458 10.1695154,23.529073 10.0389917,23.5266674 C9.78227257,23.523926 9.46303808,23.4926985 9.08898339,23.4334806 C8.71090269,23.3711015 8.27365889,23.2785697 7.76713435,23.1348021 C7.26084859,22.990143 6.6840851,22.795101 6.03329897,22.5023199 C5.38466213,22.2074923 4.65649233,21.8197786 3.89141567,21.2368267 C3.51070914,20.952368 3.12343097,20.6081263 2.74897566,20.2230594 C2.37313017,19.8358395 2.01718163,19.3906455 1.69111801,18.9113324 C1.37164967,18.426806 1.08616143,17.906377 0.854358733,17.3667719 C0.628253732,16.8300648 0.438145798,16.2725079 0.312339547,15.7283549 C0.240233859,15.4508013 0.19578368,15.1854964 0.146203244,14.911891 C0.121337103,14.7749105 0.107926833,14.6458986 0.0895794867,14.5115918 C0.0736364727,14.3762422 0.0541025886,14.249428 0.0435253419,14.1059277 C0.0238184895,13.8196478 -0.00255736116,13.5381185 0.000394858076,13.24049 C-0.000320339441,13.0931594 -0.000214434561,12.9456047 0.00198329039,12.7974358 C0.00928303987,12.6472301 0.0180687378,12.4967903 0.0283256405,12.346024 L0.0449330714,12.1197769 L0.0722988849,11.8917406 C0.0915496063,11.739463 0.111650917,11.5871464 0.134626844,11.4349463 C0.192834873,11.1309879 0.245961415,10.8244142 0.330747159,10.5241453 C0.483336213,9.91859672 0.70377095,9.33196608 0.960093273,8.77459951 C1.02569042,8.63656082 1.09278386,8.49895067 1.16113919,8.36209057 C1.2319417,8.22864028 1.30544493,8.09780082 1.37933879,7.96642544 C1.45250292,7.83345716 1.53023415,7.70764464 1.60969756,7.58374159 C1.68920519,7.4601162 1.7678194,7.33207728 1.85097865,7.21404401 C2.18110056,6.73329343 2.5373308,6.29691479 2.90508081,5.89221455 C3.64355011,5.09667331 4.42590964,4.44099913 5.20162026,3.90136636 C5.97884769,3.35750976 6.75304495,2.91356441 7.50832726,2.5385393 C9.0208849,1.78665714 10.4612319,1.2902727 11.7849578,0.918804168 C13.1087546,0.550170877 14.3173118,0.315723919 15.3686531,0.165905027 C16.7756549,-0.178828568 18.1488839,0.0330081335 19.178969,0.622329591 C20.2118446,1.2106423 20.9066327,2.1723227 21.0278728,3.30459573 C21.1521779,4.43638612 20.7894162,5.51309345 20.12473,6.37737825 C19.4573257,7.24133209 18.4933406,7.89353991 17.3514195,8.17337701 C16.2734279,8.57664213 15.168871,9.0085698 14.1159814,9.48036993 C13.5912239,9.71700053 13.0784263,9.96237415 12.5956871,10.2171512 C12.1156132,10.4731214 11.6594798,10.7359479 11.2584299,11.0027187 C10.8586213,11.2689146 10.5034665,11.5363327 10.2307876,11.7860182 C9.94930357,12.0348132 9.75790351,12.2616414 9.62276961,12.4394745 C9.56144794,12.5284511 9.50918031,12.6061344 9.4695711,12.6742339 C9.4358438,12.7433995 9.39548845,12.8020335 9.37550607,12.8630571 C9.37184589,12.8705598 9.36787761,12.8779212 9.36361596,12.8852339 C9.36055724,12.8929264 9.35927342,12.9010036 9.35652282,12.9088374 C9.35157882,12.9244173 9.34516802,12.9397537 9.33722705,12.9550465 C9.33331057,12.971698 9.32980981,12.9885686 9.32388403,13.005157 C9.3173568,13.0215555 9.31060994,13.038368 9.3091303,13.0577668 C9.30580205,13.0763181 9.30106597,13.0949962 9.29498547,13.1136014 C9.28975114,13.1327375 9.29058157,13.1552831 9.28615511,13.1759049 C9.27493025,13.2160041 9.27593965,13.2653724 9.27032414,13.3137915 C9.26928365,13.3263846 9.26631049,13.337005 9.26602924,13.3513761 L9.26730541,13.3982355 C9.26772769,13.4295742 9.26729939,13.460952 9.26614284,13.4925394 C9.26568947,13.5231621 9.26927808,13.5468861 9.26923299,13.574693 C9.27097009,13.5999421 9.26713501,13.6320462 9.27076485,13.652443 C9.27609043,13.6954387 9.27217914,13.7473847 9.27817083,13.7802183 C9.28002425,13.798428 9.2791225,13.819064 9.2800855,13.8364651 C9.28265971,13.8514303 9.2839632,13.8667853 9.28433356,13.8828565 C9.28323865,13.9004868 9.28530274,13.9134449 9.28718551,13.9258623 C9.28875577,13.9387084 9.2880249,13.9532453 9.28807531,13.9667103 C9.29464313,13.9870239 9.28836681,14.0169507 9.29478719,14.0363387 C9.2945391,14.084387 9.30907815,14.1254574 9.32069571,14.1804608 C9.35805315,14.2834996 9.43071463,14.4252875 9.58531182,14.58719 C9.73558235,14.7488252 9.9456496,14.9266608 10.1852545,15.0992755 C10.4248844,15.2726453 10.6919263,15.4417931 10.9552059,15.6016658 C11.2175082,15.7619771 11.4805164,15.9129739 11.7195279,16.0543716 C11.8408809,16.1271042 11.9545696,16.195351 12.060227,16.2586005 C12.1654658,16.3240032 12.2671046,16.3871266 12.3576384,16.4468751 C12.4472923,16.5064777 12.530501,16.5638694 12.6029321,16.6175503 C12.6755002,16.6714943 12.7191688,16.7161368 12.7649498,16.7614904 C13.667145,17.0499742 14.6530567,17.3542122 15.7210229,17.7910735"
                          fill="#FA3239" id="jacket"></path>
                    <path d="M10.6556813,23.466201 L12.8376419,16.6369745 C13.7317101,16.9228479 14.7106445,17.2257178 15.7747425,17.6610061 L13.0351558,24.2874327 C12.3669071,24.0117285 11.5528525,23.7506369 10.6556813,23.466201"
                          fill="#B52935" id="jacket"></path>
                </g>
            </g>
        </g>
    </g>
</svg>
