<?xml version="1.0" encoding="UTF-8"?>
<svg height="182px" version="1.1" viewBox="0 0 222 182" width="222px" xmlns="http://www.w3.org/2000/svg">
    <title>Group 2</title>
    <g fill="none" fill-rule="evenodd" id="Prototype-DE" stroke="none" stroke-width="1">
        <g fill-rule="nonzero" id="Page_KO_complet" transform="translate(-611.000000, -108.000000)">
            <g id="Group-2" transform="translate(611.000000, 108.000000)">
                <g id="undraw_feeling_blue_4b7q" transform="translate(0.000000, 18.000000)">
                    <path d="M2,78 C5.51756785,91.6919466 12.95772,103.527842 24.7153475,109.265284 C49.15809,121.188883 104.282854,115.039438 145.424424,107.980325 C166.706014,104.329411 185.411698,94.2537051 199,80.0742901 L2,78 Z"
                          fill="#6C63FF" id="Path" opacity="0.1"></path>
                    <path d="M218.07908,14.7698899 L195.503412,14.7698899 C194.432045,14.7698899 193.553078,13.9770462 193.553078,13.0082398 C193.553078,12.0394334 194.432045,11.2445672 195.503412,11.2445672 L199.408129,11.2445672 C198.334737,11.2445672 197.457796,10.4517236 197.457796,9.48089464 C197.457796,8.51006569 198.334737,7.7192446 199.408129,7.7192446 L196.62136,7.7192446 C195.547968,7.7192446 194.669001,6.92640095 194.669001,5.955572 C194.669001,4.98474304 195.547968,4.19392196 196.62136,4.19392196 L208.404372,4.19392196 C205.789751,3.0956717 202.73362,2.31496342 199.211678,1.90438367 C167.080793,-1.823195 155.609672,0.642306029 151.563186,3.17657411 C146.519439,6.37473914 140.916773,8.59387025 135.049146,9.7175342 C115.225817,13.4127519 78.1532769,17.8583395 44.5520466,8.30174197 C27.8516822,3.54265753 15.4388113,11.5742446 8,25 L222,25 C221.720513,21.0984811 220.884077,17.4942786 219.348923,14.3411071 C218.985357,14.6214373 218.538395,14.7723613 218.07908,14.7698899 L218.07908,14.7698899 Z"
                          fill="#6C63FF" id="Path" opacity="0.1"></path>
                    <path d="M0.485068085,50 C-0.38067091,57.8339287 -0.0863806052,65.7514192 1.35858331,73.5007692 L199.250223,80 C204.697638,74.3934238 209.325954,68.0565688 213,61.1745034 L0.485068085,50 Z M78.7536502,66.7647649 L74.8572062,66.7647649 C75.9288799,66.7647649 76.8064392,67.5533409 76.8064392,68.5144806 C76.8064392,69.4756204 75.9288799,70.2621898 74.8572062,70.2621898 L52.3176824,70.2621898 C51.2480307,70.2621898 50.3704714,69.4756204 50.3704714,68.5144806 C50.3704714,67.5533409 51.2480307,66.7647649 52.3176824,66.7647649 L56.2161485,66.7647649 C55.1444747,66.7647649 54.2689375,65.9781954 54.2689375,65.0170557 C54.2689375,64.055916 55.1444747,63.26734 56.2161485,63.26734 L53.4318187,63.26734 C52.3601449,63.26734 51.4825857,62.4807705 51.4825857,61.5196308 C51.4825857,60.5584911 52.3601449,59.7699151 53.4318187,59.7699151 L75.9713425,59.7699151 C77.0430163,59.7699151 77.9185535,60.5564845 77.9185535,61.5196308 C77.9185535,62.4827771 77.0430163,63.26734 75.9713425,63.26734 L78.7536502,63.26734 C79.825324,63.26734 80.7008613,64.0539094 80.7008613,65.0170557 C80.7008613,65.980202 79.825324,66.7647649 78.7536502,66.7647649 Z"
                          fill="#6C63FF" id="Shape" opacity="0.1"></path>
                    <path d="M221.899349,25 L5.19016548,29.7636423 C2.55350463,35.8915106 0.805195661,42.8200762 0,50 L218.102558,50 C219.521962,45.7993136 220.575143,41.483788 221.250325,37.1016784 C221.901378,32.8833212 222.160987,28.8028055 221.899349,25 Z M43.9997851,40.6186654 L40.0914424,40.6186654 C41.1663888,40.6186654 42.0466278,41.4153085 42.0466278,42.3862807 C42.0466278,43.3572529 41.1663888,44.1538961 40.0914424,44.1538961 L17.4830897,44.1538961 C16.4101715,44.1538961 15.5299324,43.3572529 15.5299324,42.3862807 C15.5299324,41.4153085 16.4101715,40.6186654 17.4830897,40.6186654 L21.3934605,40.6186654 C20.3185142,40.6186654 19.4403033,39.8240493 19.4403033,38.8530771 C19.4403033,37.8821049 20.3185142,37.0854618 21.3934605,37.0854618 L18.6006282,37.0854618 C17.5256819,37.0854618 16.6454428,36.2908457 16.6454428,35.3198735 C16.6454428,34.3489013 17.5256819,33.5522582 18.6006282,33.5522582 L41.208981,33.5522582 C42.2839273,33.5522582 43.1621382,34.3468742 43.1621382,35.3198735 C43.1621382,36.2928728 42.2839273,37.0854618 41.208981,37.0854618 L43.9997851,37.0854618 C45.0747314,37.0854618 45.9529423,37.8821049 45.9529423,38.8530771 C45.9529423,39.8240493 45.0747314,40.6186654 43.9997851,40.6186654 Z"
                          fill="#6C63FF" id="Shape" opacity="0.1"></path>
                    <ellipse cx="109" cy="149" fill="#6C63FF" id="Oval" opacity="0.1" rx="90" ry="8"></ellipse>
                    <path d="M171,153.981671 C170.421759,154.022911 167.135122,153.981671 167.135122,153.981671 C167.087026,153.88674 167.041909,153.786593 167,153.68174 C167.840537,153.141864 169.656731,152.332051 171,153.981671 Z"
                          fill="#000000" id="Path" opacity="0.1"></path>
                    <path d="M181,153.981671 C180.421759,154.022911 177.135122,153.981671 177.135122,153.981671 C177.087026,153.88674 177.041909,153.786593 177,153.68174 C177.836562,153.141864 179.652757,152.332051 181,153.981671 Z"
                          fill="#000000" id="Path" opacity="0.1"></path>
                    <path d="M184,88 C184,88 185.815609,85.1408318 185.99,86.2596367 C186.164392,87.3784417 184,88 184,88 Z"
                          fill="#000000" id="Path" opacity="0.1"></path>
                    <ellipse cx="163.5" cy="86" fill="#575A89" id="Oval" rx="1.5" ry="1"></ellipse>
                    <path d="M125,104 C116.237196,102.648496 100.388632,101.000771 85,103.463101 C90.7441253,99.1144253 97.7977506,96 104.883511,96 C112.168106,96 119.306086,99.3715608 125,104 Z"
                          fill="#F6F8FB" id="Path"></path>
                    <path d="M71,48 C71,48 52.8524915,59.9942024 53.0009054,78.7557111 C53.1493193,97.5172198 71,48 71,48 Z"
                          fill="#000000" id="Path" opacity="0.05"></path>
                    <path d="M166.687445,14.0220624 C166.687445,14.0220624 150.216789,12.9963258 152.159231,24.9329059 C152.159231,24.9329059 151.768004,27.0410273 153.62242,28 C153.62242,28 153.651762,27.1158838 155.310564,27.4153099 C155.901733,27.5176009 156.502497,27.5474798 157.100428,27.5043285 C157.908405,27.4475112 158.676329,27.1193045 159.287386,26.5696335 L159.287386,26.5696335 C159.287386,26.5696335 163.917558,24.5930168 165.719158,16.7654527 C165.719158,16.7654527 167.051286,15.0579148 166.99847,14.6209146 L164.218802,15.846943 C164.218802,15.846943 165.167528,17.9206709 164.414416,19.6443939 C164.414416,19.6443939 164.324434,15.9238226 163.790409,16.0027254 C163.682821,16.0209338 162.346781,16.7209434 162.346781,16.7209434 C162.346781,16.7209434 163.980154,20.3342878 162.738008,22.9583123 C162.738008,22.9583123 163.205524,18.5073841 161.826449,16.9819296 L159.870315,18.1634488 C159.870315,18.1634488 161.779502,21.8941358 160.484541,24.9389753 C160.484541,24.9389753 160.817084,20.269547 159.459526,18.4507359 L157.685312,19.8811024 C157.685312,19.8811024 159.479088,23.5591876 158.385608,26.0840777 C158.385608,26.0840777 158.24281,20.6478759 157.301909,20.2371767 C157.301909,20.2371767 155.750695,21.6533811 155.514002,22.2340249 C155.514002,22.2340249 156.742455,24.9025586 155.981518,26.3106704 C155.981518,26.3106704 155.514002,22.6892334 155.1306,22.6690019 C155.1306,22.6690019 153.585253,25.0684569 153.422894,26.7153003 C153.422894,26.7153003 153.491359,24.2672898 154.755022,22.4403861 C154.755022,22.4403861 153.260535,22.7054186 152.390055,23.7089006 C152.390055,23.7089006 152.630659,22.0114785 155.128644,21.8637886 C155.128644,21.8637886 156.406,20.0429543 156.748323,19.9337043 C156.748323,19.9337043 154.254251,19.7172273 152.742159,20.4111675 C152.742159,20.4111675 154.072331,18.8108565 157.204103,19.537167 L158.964624,18.0602681 C158.964624,18.0602681 155.68223,17.5949438 154.289462,18.1088237 C154.289462,18.1088237 155.891536,16.6926193 159.436053,17.7244254 L161.343284,16.5449294 C161.343284,16.5449294 158.544055,15.9217995 156.875472,16.1402996 C156.875472,16.1402996 158.635993,15.1590722 161.900783,16.2232487 L163.270077,15.590003 C163.270077,15.590003 161.218091,15.1732343 160.617558,15.1084935 C160.017025,15.0437527 159.985727,14.8697619 159.985727,14.8697619 C161.28885,14.6506282 162.62523,14.8110515 163.845181,15.3330631 C163.845181,15.3330631 166.736348,14.2102153 166.687445,14.0220624 Z"
                          fill="#6C63FF" id="Path"></path>
                    <path d="M148.846299,8.01115263 C148.846299,8.01115263 141.176697,7.49611422 142.07283,13.4660812 C142.07283,13.4660812 141.8932,14.5207903 142.755021,15 C142.755021,15 142.767131,14.5521405 143.542164,14.7088913 C143.817557,14.7591771 144.097245,14.7742042 144.375729,14.7536773 C144.752708,14.7238275 145.110913,14.5596739 145.396997,14.2856641 L145.396997,14.2856641 C145.396997,14.2856641 147.554576,13.2958946 148.394196,9.38160268 C148.394196,9.38160268 149.015837,8.52843034 148.999691,8.30897919 L147.703932,8.9225467 C147.703932,8.9225467 148.147961,9.95934142 147.798793,10.8214709 C147.798793,10.8214709 147.756408,8.96061475 147.508155,9.0054007 C147.457697,9.0054007 146.834038,9.3636883 146.834038,9.3636883 C146.834038,9.3636883 147.596961,11.1708013 147.021741,12.4830297 C147.021741,12.4830297 147.239719,10.257168 146.597895,9.49356755 L145.685616,10.0847421 C145.685616,10.0847421 146.575693,11.9523162 145.972217,13.4750384 C145.972217,13.4750384 146.125609,11.1394512 145.493876,10.2302964 L144.666366,10.9446323 C144.666366,10.9446323 145.501949,12.7830955 144.993333,14.0460593 C144.993333,14.0460593 144.926729,11.3275522 144.486736,11.1215368 C144.486736,11.1215368 143.764179,11.8291548 143.653171,12.1202635 C143.653171,12.1202635 144.226373,13.4638419 143.87115,14.1602635 C143.87115,14.1602635 143.653171,12.3486718 143.467486,12.3419539 C143.467486,12.3419539 142.746947,13.5399781 142.67227,14.3573216 C142.707004,13.5966878 142.920628,12.8593986 143.291893,12.2187926 C142.876619,12.3059632 142.493488,12.5262884 142.189892,12.8525137 C142.189892,12.8525137 142.3009,12.00382 143.469505,11.9299232 C143.469505,11.9299232 144.064908,11.0207684 144.224355,10.964786 C144.224355,10.964786 143.061805,10.8572997 142.357412,11.2043908 C142.357412,11.2043908 142.977035,10.4027223 144.438296,10.7565313 L145.245623,10.0198025 C145.245623,10.0198025 143.715739,9.79587271 143.065841,10.0421954 C143.065841,10.0421954 143.812618,9.33457743 145.465619,9.85185514 L146.353678,9.26068061 C146.353678,9.26068061 145.049846,8.94941827 144.270776,9.06138314 C144.270776,9.06138314 145.092231,8.570977 146.614041,9.10392979 L147.249811,8.78594955 C147.249811,8.78594955 146.293129,8.57769489 146.014601,8.54634472 C145.736074,8.51499456 145.717909,8.42766196 145.717909,8.42766196 C146.323802,8.31583403 146.945792,8.39337231 147.51421,8.6515917 C147.51421,8.6515917 148.8685,8.10520312 148.846299,8.01115263 Z"
                          fill="#6C63FF" id="Path"></path>
                    <ellipse cx="216.5" cy="147" fill="#6C63FF" id="Oval" opacity="0.1" rx="5.5" ry="1"></ellipse>
                    <ellipse cx="8.5" cy="162" fill="#6C63FF" id="Oval" opacity="0.1" rx="5.5" ry="1"></ellipse>
                    <ellipse cx="40.5" cy="163" fill="#6C63FF" id="Oval" opacity="0.1" rx="5.5" ry="1"></ellipse>
                    <ellipse cx="204" cy="156.5" fill="#6C63FF" id="Oval" rx="8" ry="1.5"></ellipse>
                    <path d="M207.22937,154.739096 C207.586192,154.436892 207.84647,154.029658 207.975944,153.570994 C208.07121,153.108999 207.880678,152.552183 207.454898,152.382718 C206.976624,152.193078 206.465299,152.538061 206.078402,152.885062 C205.691506,153.232063 205.246284,153.627482 204.738847,153.554854 C205.269703,153.056062 205.508915,152.304496 205.368768,151.575739 C205.346645,151.427308 205.286177,151.287871 205.19379,151.17225 C204.927435,150.877702 204.447216,151.002784 204.128367,151.23479 C203.117382,151.973176 202.835473,153.397494 202.82964,154.68059 C202.728541,154.218594 202.814086,153.736425 202.812142,153.268377 C202.810198,152.800329 202.683825,152.259653 202.298873,152.011507 C202.059978,151.879114 201.791909,151.813744 201.521192,151.821867 C201.066248,151.80371 200.560755,151.850112 200.249683,152.195095 C199.860843,152.624811 199.963885,153.343022 200.300232,153.809053 C200.636579,154.275083 201.14596,154.5777 201.614513,154.902509 C201.991598,155.135135 202.313247,155.453042 202.555507,155.832552 C202.583835,155.885973 202.607268,155.942035 202.625499,156 L205.473755,156 C206.111084,155.663782 206.701645,155.239634 207.22937,154.739096 L207.22937,154.739096 Z"
                          fill="#6C63FF" id="Path"></path>
                    <path d="M11.7546239,137 C11.7546239,137 12.7539227,138.604111 11.292289,141.021448 C9.83065527,143.438785 8.62567207,145.489723 9.10802939,147 C9.10802939,147 11.3123114,142.500447 13.1125053,142.435657 C14.9126993,142.370867 13.7277384,139.705541 11.7546239,137 Z"
                          fill="#6C63FF" id="Path"></path>
                    <path d="M11.7256823,137 C11.813422,137.154928 11.8828079,137.324025 11.9318108,137.502344 C13.702308,140.025229 14.64461,142.380665 12.9440493,142.438714 C11.3575955,142.49453 9.44722538,145.932797 9,146.801295 C9.01563384,146.868616 9.03406167,146.934935 9.05521301,147 C9.05521301,147 11.2839782,142.503461 13.1041671,142.438714 C14.924356,142.373967 13.7207123,139.703729 11.7256823,137 Z"
                          fill="#000000" id="Path" opacity="0.1"></path>
                    <path d="M13.05,139.263413 C13.05,139.670305 13.0271654,140 12.9996063,140 C12.9720472,140 12.95,139.678346 12.95,139.263413 C12.95,138.84848 12.9775591,139.047905 13.0059055,139.047905 C13.034252,139.047905 13.05,138.856521 13.05,139.263413 Z"
                          fill="#FFD037" id="Path"></path>
                    <path d="M13.7598664,139.504023 C13.3704531,139.856777 13.0319091,140.069595 13.0020892,139.97922 C12.9722693,139.888845 13.2652063,139.533177 13.6546196,139.180423 C14.0440329,138.82767 13.8896708,139.084218 13.9194908,139.180423 C13.9493107,139.276629 14.1562962,139.15127 13.7598664,139.504023 Z"
                          fill="#FFD037" id="Path"></path>
                    <path d="M4.24675846,137 C4.24675846,137 3.24726156,138.604111 4.7073645,141.021448 C6.16746744,143.438785 7.37451014,145.489723 6.89205718,147 C6.89205718,147 4.68551757,142.500447 2.88678727,142.435657 C1.08805696,142.370867 2.27143216,139.705541 4.24675846,137 Z"
                          fill="#6C63FF" id="Path"></path>
                    <path d="M5.27494427,137 C5.1863559,137.154348 5.11687913,137.323591 5.06872384,137.502344 C3.29743762,140.025229 2.35287438,142.380665 4.05603421,142.438714 C5.64135379,142.49453 7.55441656,145.932797 8,146.801295 C7.98498125,146.868581 7.9671596,146.934901 7.94660364,147 C7.94660364,147 5.71500395,142.503461 3.89584513,142.438714 C2.0766863,142.373967 3.27718383,139.703729 5.27494427,137 Z"
                          fill="#000000" id="Path" opacity="0.1"></path>
                    <path d="M2.95,139.263413 C2.95,139.670305 2.97222222,140 3,140 C3.02777778,140 3.05,139.678346 3.05,139.263413 C3.05,138.84848 3.02222222,139.047905 2.99444444,139.047905 C2.96666667,139.047905 2.95,138.856521 2.95,139.263413 Z"
                          fill="#FFD037" id="Path"></path>
                    <path d="M2.23651874,139.504023 C2.62688342,139.856777 2.96801291,140.069595 2.9979057,139.97922 C3.02779849,139.888845 2.73414578,139.533177 2.34378111,139.180423 C1.95341643,138.82767 2.10639718,139.084218 2.07826279,139.180423 C2.0501284,139.276629 1.84615407,139.15127 2.23651874,139.504023 Z"
                          fill="#FFD037" id="Path"></path>
                    <path d="M3,147.434116 C3,147.434116 6.22420273,147.353053 7.19818063,146.78389 C8.17215854,146.214727 12.158331,145.536906 12.3997264,146.438943 C12.6411218,147.34098 17.2444269,150.974999 13.6046043,150.999145 C9.96478167,151.023292 5.14736939,150.531742 4.17758967,150.047091 C3.20780994,149.56244 3,147.434116 3,147.434116 Z"
                          fill="#A8A8A8" id="Path"></path>
                    <path d="M13.6700143,150.647776 C10.0286435,150.674797 5.20918225,150.124735 4.23899004,149.582394 C3.49979598,149.169365 3.20579835,147.685164 3.10709914,147 L3,147 C3,147 3.20999831,149.39132 4.17389057,149.933661 C5.13778282,150.476003 9.96354404,151.026064 13.6049148,150.999043 C14.6549063,150.999043 15.0182034,150.645846 14.9993036,150.138246 C14.8523048,150.448982 14.453308,150.641986 13.6700143,150.647776 Z"
                          fill="#000000" id="Path" opacity="0.2"></path>
                </g>
                <g id="Happy-Bunch---Standing" transform="translate(58.000000, 0.000000)">
                    <g id="Group-21" transform="translate(8.000000, 54.000000)">
                        <path d="M16.7423744,118.791978 L3.46577676,118.675517 C2.75147444,118.6707 2.18454566,118.027068 2.20032142,117.23793 L2.21849348,116.350853 L2.24585144,115.520171 L2.30296368,113.875065 L2.42018354,110.59007 L2.6859751,104.085506 L3.26648302,91.1271557 L4.55110892,64.2125932 C4.64835948,62.2357357 6.31799372,60.7122509 8.28057778,60.80999 L17.0179509,61.2442966 C18.980535,61.3418349 20.492811,63.0218626 20.3955604,64.9963118 L19.1131312,91.8637107 L18.5352193,104.768676 L18.2720237,111.209017 L18.1577993,114.412329 L18.1020849,116.012279 L18.0757254,116.808039 L18.0605487,117.573293 C18.0471693,118.251044 17.4566767,118.796537 16.7423744,118.791978"
                              fill="#EDB98A" id="SKIN"></path>
                        <path d="M5.4387273,1.49704572 C3.82980038,31.1925303 2.23861972,60.8646855 0.775850122,90.6052196 L0.37785556,98.9130369 L0,107.244586 L21.3722682,108.120839 L21.6994772,99.8665183 L22.0484202,91.597717 C23.338114,61.9456732 24.7612038,32.258032 26.2000634,2.58788795 C26.241919,1.77277299 5.48079988,0.680522971 5.4387273,1.49704572 Z"
                              fill="#694FD9" id="Fill-3"></path>
                        <path d="M18.1546892,113.128353 C17.0533152,113.088457 13.0812194,112.944355 9.37763876,112.810177 C9.3802496,112.85841 9.38446712,112.906047 9.38286044,112.954875 C9.33807444,114.220234 7.8637517,115.200963 6.08998538,115.145584 C4.31621908,115.090206 2.91499992,114.005868 2.96038842,112.723637 C2.96219592,112.674412 2.96982762,112.626576 2.9756518,112.578145 C2.49083842,112.560678 2.21107658,112.550357 2.21107658,112.550357 L2.0837478,116.151521 L2.06768108,116.601691 L2.05763938,117.086993 L2.0377568,118.058194 L2,120 L25.1563666,120 L25.2000519,117.99448 C25.210391,117.223156 23.6591488,116.566757 21.9904186,115.879592 C20.3236968,115.181312 18.5501314,114.387758 18.1546892,113.128353"
                              fill="#D7DBE2" id="Fill-5"></path>
                        <polygon fill="#D7DBE2" id="Fill-7"
                                 points="21.5114374 108.120839 0 107.254319 0.291366212 100.469854 21.8 101.405458"></polygon>
                        <path d="M52.379107,116.225654 C52.188823,115.212449 51.9795504,114.170077 51.773476,113.132332 C51.3585286,111.054628 50.92959,108.959625 50.4926562,106.861605 C49.621187,102.665967 48.7273314,98.4566504 47.823482,94.2459258 C45.8772674,85.1693231 43.8888786,76.0832663 41.8910956,66.999221 C41.4509636,64.9965471 42.6480344,63.025253 44.5684646,62.5961948 L53.1166578,60.6870566 C55.0362884,60.2581996 56.9525212,61.5363224 57.3936526,63.5434217 C59.395833,72.6463753 61.3884192,81.7515416 63.3446276,90.8750128 C64.2532742,95.1074617 65.1527264,99.3437327 66.0355886,103.593481 C66.4779192,105.718254 66.9138536,107.846649 67.3413932,109.987916 C67.5542634,111.059456 67.7689328,112.127776 67.9734082,113.216212 C68.0757458,113.761939 68.1824808,114.290568 68.2812206,114.850174 L68.5790392,116.519538 C68.7073612,117.329981 68.23305,118.071228 67.5242818,118.163758 L52.379107,116.225654 Z"
                              fill="#D29863" id="SKIN-DARKER"></path>
                        <path d="M26.3785682,2.57466288 C25.7914102,2.70784259 25.4661688,3.4831819 25.6525364,4.30780978 C29.0001382,19.3201009 32.3277006,34.3458708 35.62841,49.3682208 C38.925913,64.3901685 42.206182,79.4199621 45.3922652,94.4234013 C46.5327144,99.8081268 47.6645464,105.197077 48.7416706,110.53694 L69.8,106.199546 C68.6639596,100.730929 67.4930504,95.3109979 66.3127228,89.8912675 C63.0226342,74.8073571 59.6541914,59.772534 56.267312,44.7391193 C52.8776272,29.7073139 48.3732682,9.42354276 46.2954464,0 C46.2909782,-0.019687078 39.6520188,0.838419666 26.3785682,2.57466288 Z"
                              fill="#3E36B9" id="Fill-11"></path>
                        <path d="M58.9863724,113.232415 C58.9999336,113.278256 59.0148906,113.3235 59.0244632,113.370936 C59.2667686,114.604874 58.0504554,115.864124 56.319617,116.189002 C54.5859868,116.51089 53.000133,115.810908 52.7634116,114.604674 C52.753839,114.557836 52.7506482,114.510998 52.745463,114.463961 C52.272818,114.557438 52,114.611252 52,114.611252 L52.3276608,116.297427 C52.433956,116.853905 52.5484278,117.427922 52.6389682,117.950517 L52.783155,118.751151 L52.855348,119.151568 L53.045555,120 L76,120 C75.9820514,119.398478 75.94416,118.429662 75.8863258,117.828538 L75.8392608,117.378493 L75.8129362,117.153869 L75.7987768,117.060192 L75.7417404,116.685686 L75.625673,115.936673 L75.5668418,115.562366 L75.5086086,115.212176 C75.3291232,114.21801 73.6730706,113.85048 71.8953666,113.490722 C70.1152696,113.131563 68.2191052,112.711415 67.542445,111.543648 C66.468723,111.755317 62.596623,112.519477 58.9863724,113.232415 Z"
                              fill="#D7DBE2" id="Fill-14"></path>
                        <polygon fill="#D7DBE2" id="Fill-17"
                                 points="69.6 106.197918 48.5711352 110.53694 47.8914578 107.237436 47.2 103.926685 68.2031074 99.4631459 68.9053474 102.82531"></polygon>
                        <path d="M26.4,19.9331716 L24.4,19.9331716 C13.4648,19.9331716 4.6,11.0089018 4.6,0.000342648869 L46.2,0.000342648869 C46.2,11.0089018 37.3352,19.9331716 26.4,19.9331716"
                              fill="#694FD9" id="Fill-19"></path>
                    </g>
                    <g id="Body/Sweats-Holding-Hands" transform="translate(0.000000, 25.000000)">
                        <g id="Body" transform="translate(5.644314, 0.006062)">
                            <path d="M56.0617253,38.7533731 C41.4331983,39.7771847 0.290447794,35.0938101 0.756096535,32.4872366 C1.67964627,27.3174593 3.27854472,19.2391303 5.5527919,8.25224919 C5.5527919,3.69481086 9.61624792,0 14.6286125,0 L42.7146413,0 C47.727006,0 51.7902484,3.69481086 51.7902484,8.25224919 C53.7967399,18.7894822 55.2546377,26.6031158 56.1639418,31.69315 C56.48862,33.5106087 56.4545477,35.8640165 56.0617253,38.7533731 Z"
                                  fill="#34D1A1" id="Sweat-Body"></path>
                            <path d="M0,39.336006 C20.2895154,46.5213315 42.2876219,39.724402 57.3430831,39.336006 L56.3775157,31.4989521 C41.6291736,32.0261997 20.5250874,38.4640571 0.740674103,31.6634378 L0,39.336006 Z"
                                  fill="#2DB386" id="Bottom"></path>
                        </g>
                        <g id="Left-Arm" transform="translate(0.000000, 0.002334)">
                            <path d="M33.6673929,37.7875287 C24.7650519,36.9475675 12.7105461,32.8507411 17.9648262,21.6847783 C19.0457182,18.8327794 21.2976101,16.0083895 23.1598406,13.2003233 C24.2397247,10.5792734 23.500114,7.41813324 21.3965877,5.35067584 C19.449692,3.47345918 16.4966918,3.12663257 14.1200196,4.26586024 C11.5943769,5.71443065 10.3135139,8.52068314 8.64258626,10.876323 C6.33929049,14.6198739 4.50568482,18.6439493 3.74692363,23.1643838 C1.85304443,32.861422 7.42461732,42.2970807 16.1193271,46.516435 C21.0103533,49.0631218 26.4849644,50.3659887 31.8309651,50.9647231 C36.6048711,51.4973569 41.3769629,51.4961477 46.1464341,51.1432753 C47.9191615,51.0701213 48.5708817,48.7263715 47.0882333,47.8356256 L48.2015803,47.7298243 C50.0214783,47.6133422 50.4562944,45.0563776 48.8698304,44.3157688 C50.893328,43.3045103 49.5868638,40.3084201 47.4611633,40.9172308 C48.6055541,39.8590166 47.6470235,37.6045429 46.0946271,37.8078829 C44.9790627,37.897562 43.8645062,37.9757542 42.7551909,38.0206945 C42.4401155,35.0745828 38.4086424,36.6829635 36.4478374,36.1886197 C34.7549372,35.9582753 34.8918125,37.6726588 33.6673929,37.7875287"
                                  fill="#EDB98A" id="SKIN"></path>
                            <path d="M30.3218689,51.9976658 C28.0044623,51.6820758 25.6477468,51.2348891 23.2986915,50.5871839 C18.9158579,51.3973192 13.7373733,48.9262048 9.84237234,46.2759336 C3.08568866,41.6230965 -0.905669327,32.8605353 0.17582742,24.6600307 C1.15411329,16.1673131 5.75546367,9.07439656 11.4570581,3.51690823 C14.5481431,-0.257879231 19.3208453,0.00388316494 23.8008116,0.00388316494 C26.8128758,3.1495058 27.7690125,11.2506781 25.1778551,14.7578388 C23.0477198,18.5050171 20.3620196,23.0431859 20.1231429,27.1629862 C19.8675347,31.559079 24.7615847,33.4270255 27.3186744,36.0168388 C28.9019131,36.4541507 30.6052956,36.7820338 32.3425443,37.0188271 L30.3218689,51.9976658 Z"
                                  fill="#34D1A1" id="Fill-5"></path>
                            <path d="M23.4478433,50.3152243 L27.4448457,35.7384303 C29.0107481,36.1652629 30.6730076,36.4864956 32.3828409,36.7188554 L30.3621655,51.6976941 C28.0782218,51.3869406 25.7721038,50.9490242 23.4478433,50.3152243"
                                  fill="#2DB386" id="Fill-8"></path>
                        </g>
                        <g id="Right-Arm" transform="translate(42.130906, 0.000000)">
                            <path d="M14.90642,37.20828 C22.0690934,35.3181657 12.7035129,23.4712458 10.2826938,20.1396145 C8.64341485,18.0570426 6.87471915,16.018605 5.0185361,14.0315565 C4.60024985,13.5857806 4.33274823,13.0376293 4.19345387,12.4280125 C3.89591627,10.090913 4.34827018,7.49344167 6.15667788,5.6684203 C7.95359531,3.80692268 10.6945294,3.37666422 13.0568892,3.90990258 C16.2580389,5.55355036 18.2871808,9.25699754 20.7489215,11.9276229 C24.9809705,17.4069191 29.0279656,23.4964366 30.5354087,30.4990694 C32.6125276,39.3466746 27.6269586,47.5213839 18.8923352,49.8995947 C14.0654126,51.382223 8.53516439,51.4535633 3.75742824,51.1250756 C2.00647191,51.0873902 1.26585326,48.7244953 2.78861681,47.8172243 L1.66740806,47.7104154 C-0.162165931,47.5925226 -0.588515534,45.0321321 1.00218173,44.2951507 C-1.0140588,43.2814739 0.297848156,40.2892127 2.41387264,40.898628 C1.28278629,39.8446459 2.23768845,37.5919859 3.76589476,37.7862572 C4.81755712,37.8715028 5.95166722,37.9440522 7.00635333,37.9678323 C7.15270312,35.1754851 10.9033701,36.4674696 12.550914,35.8727658 C13.736428,35.5049805 14.0283212,37.2544295 14.90642,37.20828"
                                  fill="#EDB98A" id="SKIN"></path>
                            <path d="M21.6032132,50.193702 C24.9075738,48.8001483 27.8458584,46.5190731 29.7504215,43.4683693 C33.72021,40.6953686 34.3656812,34.5272559 33.5728523,29.6408498 C31.782184,18.947063 23.3205051,8.90984849 15.476277,2.79050508 C12.0943067,-0.265035334 7.33763392,0.00606197735 3.32529224,0.00621733572 C-0.687049457,0.00637269429 0.0279073743,11.6221898 2.60918712,14.9991645 C5.20236031,18.9724553 8.35089669,23.0676694 11.0053513,26.9992443 C12.5144072,29.2275196 13.662225,31.0745073 14.8279837,33.3076193 C14.9130521,33.4355884 14.9495387,33.6536398 15.0956869,33.7177251 C15.8088902,34.0319045 16.1864565,34.7962934 16.6410279,35.3958339 C16.3418776,35.8754662 15.8435626,36.2214867 15.318437,36.4322832 L21.6032132,50.193702 Z"
                                  fill="#34D1A1" id="Fill-12"></path>
                            <path d="M29.4474008,43.3786297 L16.3654226,35.2405982 C16.0953004,35.6706552 15.6570573,35.9683094 15.1924068,36.1565348 L21.4773846,49.9183568 C24.6994991,48.559667 27.5777117,46.3434833 29.4474008,43.3786297"
                                  fill="#2DB386" id="Fill-14"></path>
                        </g>
                    </g>
                    <g id="Group-19" transform="translate(24.000000, 0.000000)">
                        <path d="M10.0686395,22.8870091 L13.8738364,22.8870091 L13.8738364,1.53320326 L10.0686395,1.53320326 C4.50780764,1.53320326 0,6.15864098 0,11.8645813 L0,12.5556311 C0,18.2615714 4.50780764,22.8870091 10.0686395,22.8870091"
                              fill="#000000" id="Fill-1"></path>
                        <path d="M11.1385501,16.7859217 L9.31532978,16.7859217 L9.31532978,1.53320326 L11.1385501,1.53320326 C16.6993819,1.53320326 21.2071895,4.12494519 21.2071895,9.83088548 L21.2071895,12.5556311 C21.2071895,16.7859217 16.6993819,16.7859217 11.1385501,16.7859217"
                              fill="#000000" id="Fill-4"></path>
                        <path d="M5.54955437,16.3791826 L14.4684492,16.3791826 L14.4684492,26.8797641 C14.4684492,29.7076181 12.4718059,32 10.0090018,32 C7.54619762,32 5.54955437,29.7076181 5.54955437,26.8797641 L5.54955437,16.3791826 Z"
                              fill="#EDB98A" id="SKIN"></path>
                        <path d="M14.8752499,22.8870091 L13.8868381,22.8870091 C9.28231005,22.8870091 5.54965347,19.0569498 5.54965347,14.3322678 L5.54965347,10.3193792 C5.54965347,6.70245124 8.40706917,3.77026864 11.9322128,3.77026864 L13.0407323,3.77026864 C16.5658759,3.77026864 19.4234898,6.70245124 19.4234898,10.3193792 L19.4234898,18.220084 C19.4234898,20.7975901 17.3872071,22.8870091 14.8752499,22.8870091"
                              fill="#EDB98A" id="SKIN"></path>
                        <path d="M9.8605022,23.4551782 C8.01826331,22.7864772 7.09917909,21.0975142 6.73521683,18.8257585 C8.17631005,21.2869526 10.790024,22.9430021 13.7834667,22.9803218 L13.8868381,22.9809659 L14.4684492,22.9809659 C12.8953961,23.8411865 11.3594137,23.9992573 9.8605022,23.4551782 Z"
                              fill="#000000" id="SHADOW" opacity="0.12"></path>
                        <path d="M7.92792632,15.6673891 C7.92792632,17.0712493 6.8188122,18.2095088 5.45045554,18.2095088 C4.08209888,18.2095088 2.97298476,17.0712493 2.97298476,15.6673891 C2.97298476,14.2635288 4.08209888,13.1252693 5.45045554,13.1252693 C6.8188122,13.1252693 7.92792632,14.2635288 7.92792632,15.6673891"
                              fill="#EDB98A" id="SKIN"></path>
                        <path d="M4.96824063,14.5831241 C5.147576,14.5831241 5.39575051,14.6255659 5.65040138,14.7562139 C6.0758484,14.9744883 6.34492803,15.3735867 6.36297938,15.9525345 L6.36394857,16.0152527 L5.76935558,16.0152527 C5.76935558,15.6419911 5.6303569,15.4280524 5.38449131,15.3019117 C5.29318851,15.255069 5.19233922,15.2240248 5.09099217,15.2066928 C5.04112389,15.1981645 5.00224601,15.1945029 4.97973801,15.1935192 L4.96824063,15.1932329 L4.96824063,14.5831241 Z"
                              fill="#000000" id="SKIN"></path>
                        <path d="M5.35135671,13.1252693 L5.0469251,13.1252693 C3.88667598,11.9676897 3.44092944,9.60860253 3.30655142,7.31886444 C3.1224258,4.18107519 8.43174478,1.53320326 11.495286,1.53320326 L15.059871,1.53320326 L18.4324024,6.82081233 L10.6426397,6.82081233 C10.6426397,10.2780952 7.72972866,13.1252693 5.35135671,13.1252693"
                              fill="#000000" id="Fill-14"></path>
                        <path d="M11.3496504,6.82081233 L18.3470189,6.82081233 C20.3644729,6.82081233 22,5.14260656 22,3.07250761 L22,1.45856663 C22,0.65301972 21.3635873,0 20.5785264,0 L14.3245973,0 C11.6675595,0 9.51354726,2.21042396 9.51354726,4.93679655 C9.51354726,5.97743869 10.3356712,6.82081233 11.3496504,6.82081233"
                              fill="#000000" id="Fill-16"></path>
                    </g>
                    <g fill="#000000" id="Expression/Sad" transform="translate(33.000000, 10.000000)">
                        <path d="M2.30432822,2.51038243 C2.30432822,2.16374009 2.01129194,1.88278616 1.64974234,1.88278616 C1.28819274,1.88278616 0.995156457,2.16374009 0.995156457,2.51038243 C0.995156457,2.85702477 1.28819274,3.1379787 1.64974234,3.1379787 C2.01129194,3.1379787 2.30432822,2.85702477 2.30432822,2.51038243"
                              id="Fill-1"></path>
                        <path d="M7.97740587,2.51038243 C7.97740587,2.16374009 7.68436959,1.88278616 7.32281999,1.88278616 C6.96127038,1.88278616 6.6682341,2.16374009 6.6682341,2.51038243 C6.6682341,2.85702477 6.96127038,3.1379787 7.32281999,3.1379787 C7.68436959,3.1379787 7.97740587,2.85702477 7.97740587,2.51038243"
                              id="Fill-3"></path>
                        <polygon id="Stroke-5"
                                 points="5.06168024 1.96578911 5.70532018 1.85149714 6.64081156 6.69427389 4.48628116 6.69427389 4.48628116 6.06667762 5.85377653 6.0665521"></polygon>
                        <path d="M2.66584226,0.00146895183 L3.25761539,0.269731003 C2.84750996,1.10133951 1.01967377,1.82693093 0.0486258381,1.48960211 L0,1.4715291 L0.250380008,0.891658428 C0.867764443,1.13670668 2.33661475,0.572148455 2.64853165,0.0337356426 L2.66584226,0.00146895183 Z"
                              id="Stroke-7"></path>
                        <path d="M6.31162023,0 C6.6196647,0.616360394 7.98158935,1.20240289 8.66721107,0.918572141 L8.70600353,0.901226216 L9,1.46196131 C7.99255192,1.94751194 6.24124981,1.22042126 5.74470544,0.315826757 L5.72130565,0.271199955 L6.31162023,0 Z"
                              id="Stroke-9"></path>
                        <path d="M2.39358834,8.42549804 C4.17768926,7.67329408 5.69585498,7.62172039 6.99702565,8.40613226 L7.06908997,8.45057164 L6.70939826,8.9749264 C5.62568551,8.29157071 4.34008927,8.31069005 2.75091961,8.96101792 L2.65708813,9 L2.39358834,8.42549804 Z"
                              id="Stroke-11"></path>
                    </g>
                </g>
            </g>
        </g>
    </g>
</svg>