<svg width="168" height="75" viewBox="0 0 168 75" fill="none" xmlns="http://www.w3.org/2000/svg">
<path fill-rule="evenodd" clip-rule="evenodd" d="M82.0673 8.6769C81.4402 8.47275 80.697 8.37207 79.8378 8.37207H75.666V21.3679H78.0558V16.7927H79.8405C80.6749 16.7927 81.4043 16.6892 82.0287 16.4794C82.653 16.2697 83.1724 15.9761 83.5869 15.5985C83.9985 15.221 84.3107 14.7707 84.5179 14.245C84.7224 13.7192 84.8273 13.1431 84.8273 12.5138C84.8273 11.907 84.7279 11.3505 84.529 10.8415C84.3328 10.3325 84.0289 9.89622 83.62 9.52987C83.2139 9.16631 82.6945 8.88105 82.0673 8.6769ZM80.9843 14.74C80.6583 14.849 80.2771 14.905 79.8378 14.905V14.9105H78.053V10.2458H79.8378C80.2826 10.2458 80.6666 10.2989 80.9926 10.4024C81.3159 10.5059 81.5866 10.6569 81.7993 10.8555C82.0148 11.054 82.1751 11.2917 82.2801 11.5742C82.3878 11.8539 82.4403 12.1699 82.4403 12.5166C82.4403 12.883 82.3878 13.213 82.2801 13.5094C82.1751 13.8059 82.0121 14.0576 81.7966 14.2645C81.5811 14.4715 81.3103 14.6281 80.9843 14.74Z" fill="#23333B"/>
<path fill-rule="evenodd" clip-rule="evenodd" d="M92.9856 10.8693H91.5214C91.4385 10.8693 91.3528 10.8525 91.2672 10.819C91.1816 10.7854 91.0959 10.7267 91.013 10.6428L90.1428 9.70872C90.0764 9.64999 90.0157 9.57728 89.9577 9.49338C89.8913 9.57728 89.8306 9.64999 89.7725 9.70872L88.8857 10.6428C88.8139 10.7211 88.7337 10.777 88.6453 10.8134C88.5569 10.8497 88.4685 10.8665 88.3801 10.8665H86.8606L88.894 8.36914H90.955L92.9856 10.8693ZM89.9217 12.0019C90.5958 12.0019 91.2119 12.1138 91.7645 12.3347C92.3171 12.5557 92.7922 12.8717 93.1846 13.2772C93.5769 13.6855 93.8808 14.1833 94.0935 14.7678C94.3062 15.3551 94.414 16.0123 94.414 16.7366C94.414 17.4665 94.3062 18.1265 94.0935 18.7138C93.8808 19.3011 93.5769 19.8017 93.1846 20.2156C92.7895 20.6295 92.3171 20.9455 91.7645 21.1692C91.2119 21.3902 90.5958 21.502 89.9217 21.502C89.2421 21.502 88.6232 21.3902 88.0652 21.1692C87.5098 20.9483 87.0346 20.6295 86.6396 20.2156C86.2445 19.8017 85.9406 19.3011 85.7251 18.7138C85.5096 18.1265 85.4019 17.4665 85.4019 16.7366C85.4019 16.0123 85.5096 15.3551 85.7251 14.7678C85.9406 14.1805 86.2445 13.6827 86.6396 13.2772C87.0319 12.8689 87.5071 12.5557 88.0652 12.3347C88.6232 12.1138 89.2421 12.0019 89.9217 12.0019ZM91.6043 19.0242C91.2396 19.5388 90.6787 19.7961 89.9217 19.7961C89.1537 19.7961 88.5846 19.536 88.2116 19.0158C87.8414 18.4985 87.6563 17.7434 87.6563 16.7562C87.6563 15.769 87.8414 15.0139 88.2116 14.4881C88.5818 13.9652 89.1509 13.7023 89.9217 13.7023C90.6787 13.7023 91.2396 13.9652 91.6043 14.4853C91.9689 15.0055 92.1513 15.7634 92.1513 16.759C92.1513 17.7546 91.9689 18.5096 91.6043 19.0242Z" fill="#23333B"/>
<path d="M98.3123 8.01123V21.3678H96.1187V8.01123H98.3123Z" fill="#23333B"/>
<path fill-rule="evenodd" clip-rule="evenodd" d="M102.443 18.2634C102.313 17.9167 102.23 17.5083 102.194 17.0357H107.83C108.032 17.0357 108.167 16.977 108.239 16.8595C108.311 16.7421 108.347 16.5155 108.347 16.18C108.347 15.5144 108.247 14.9215 108.048 14.4041C107.849 13.8867 107.576 13.4477 107.228 13.0925C106.88 12.7345 106.463 12.4633 105.976 12.2787C105.493 12.0913 104.962 11.999 104.388 11.999C103.705 11.999 103.095 12.1193 102.553 12.3598C102.012 12.6003 101.553 12.9247 101.177 13.3358C100.802 13.7441 100.514 14.2279 100.313 14.7817C100.111 15.3354 100.011 15.9283 100.011 16.5575C100.011 17.3657 100.128 18.0761 100.357 18.6913C100.589 19.3066 100.904 19.8211 101.307 20.2378C101.708 20.6517 102.183 20.9678 102.727 21.1803C103.274 21.3928 103.863 21.4991 104.495 21.4991C104.813 21.4991 105.145 21.4739 105.485 21.4264C105.824 21.3789 106.159 21.2978 106.487 21.1803C106.816 21.0628 107.131 20.909 107.432 20.7133C107.736 20.5175 108.007 20.277 108.25 19.9889L107.62 19.1807C107.532 19.0437 107.394 18.9738 107.211 18.9738C107.073 18.9738 106.932 19.0157 106.789 19.0996C106.645 19.1835 106.476 19.2786 106.283 19.3793C106.092 19.4828 105.866 19.575 105.609 19.6589C105.349 19.7428 105.045 19.7848 104.689 19.7848C104.332 19.7848 104.009 19.7317 103.716 19.6198C103.423 19.5079 103.169 19.3401 102.957 19.1164C102.744 18.8927 102.573 18.6074 102.443 18.2634ZM106.258 14.8823C106.338 15.1368 106.377 15.4081 106.377 15.6961V15.6989H102.241C102.34 15.0278 102.573 14.5104 102.937 14.144C103.302 13.7777 103.802 13.5959 104.435 13.5959C104.761 13.5959 105.045 13.649 105.291 13.7609C105.537 13.87 105.739 14.021 105.899 14.2139C106.059 14.4041 106.178 14.6278 106.258 14.8823Z" fill="#23333B"/>
<path fill-rule="evenodd" clip-rule="evenodd" d="M116.24 18.2634C116.11 17.9167 116.027 17.5083 115.991 17.0357H121.627C121.829 17.0357 121.964 16.977 122.036 16.8595C122.108 16.7421 122.144 16.5155 122.144 16.18C122.144 15.5144 122.044 14.9215 121.845 14.4041C121.647 13.8867 121.373 13.4477 121.025 13.0925C120.677 12.7345 120.26 12.4633 119.773 12.2787C119.29 12.0913 118.759 11.999 118.185 11.999C117.502 11.999 116.892 12.1193 116.35 12.3598C115.809 12.6003 115.35 12.9247 114.974 13.3358C114.599 13.7441 114.311 14.2279 114.11 14.7817C113.908 15.3354 113.809 15.9283 113.809 16.5575C113.809 17.3657 113.925 18.0761 114.154 18.6913C114.386 19.3066 114.701 19.8211 115.104 20.2378C115.505 20.6517 115.98 20.9678 116.524 21.1803C117.071 21.3928 117.66 21.4991 118.293 21.4991C118.61 21.4991 118.942 21.4739 119.282 21.4264C119.621 21.3789 119.956 21.2978 120.285 21.1803C120.613 21.0628 120.928 20.909 121.229 20.7133C121.533 20.5175 121.804 20.277 122.047 19.9889L121.417 19.1807C121.329 19.0437 121.191 18.9738 121.008 18.9738C120.87 18.9738 120.729 19.0157 120.586 19.0996C120.442 19.1835 120.273 19.2786 120.08 19.3793C119.889 19.4828 119.663 19.575 119.406 19.6589C119.146 19.7428 118.842 19.7848 118.486 19.7848C118.13 19.7848 117.806 19.7317 117.513 19.6198C117.221 19.5079 116.966 19.3401 116.754 19.1164C116.541 18.8927 116.37 18.6074 116.24 18.2634ZM120.055 14.8823C120.135 15.1368 120.174 15.4081 120.174 15.6961V15.6989H116.038C116.138 15.0278 116.37 14.5104 116.734 14.144C117.099 13.7777 117.599 13.5959 118.232 13.5959C118.558 13.5959 118.842 13.649 119.088 13.7609C119.334 13.87 119.536 14.021 119.696 14.2139C119.856 14.4041 119.975 14.6278 120.055 14.8823Z" fill="#23333B"/>
<path d="M123.788 21.3678V12.1474H125.128C125.412 12.1474 125.597 12.2816 125.686 12.5529L125.827 13.2353C125.987 13.0563 126.153 12.8913 126.33 12.7403C126.504 12.5892 126.692 12.4606 126.89 12.3543C127.089 12.2453 127.302 12.1614 127.529 12.097C127.755 12.0327 128.007 12.002 128.28 12.002C128.855 12.002 129.327 12.1586 129.697 12.4746C130.068 12.7878 130.344 13.2073 130.526 13.7275C130.667 13.4226 130.847 13.1597 131.059 12.9416C131.272 12.7235 131.507 12.5445 131.761 12.4075C132.015 12.2704 132.286 12.167 132.573 12.1026C132.861 12.0355 133.148 12.0047 133.438 12.0047C133.941 12.0047 134.389 12.0831 134.778 12.2397C135.168 12.3963 135.496 12.6228 135.764 12.922C136.03 13.2213 136.234 13.5876 136.372 14.0183C136.51 14.449 136.582 14.944 136.582 15.5005V21.3678H134.389V15.4977C134.389 14.9104 134.261 14.4686 134.007 14.1721C133.753 13.8757 133.38 13.7275 132.888 13.7275C132.665 13.7275 132.455 13.7666 132.261 13.8449C132.068 13.9232 131.899 14.0351 131.756 14.1833C131.609 14.3287 131.496 14.5133 131.413 14.737C131.33 14.958 131.289 15.2125 131.289 15.5005V21.3678H129.087V15.4977C129.087 14.8797 128.965 14.4322 128.719 14.1497C128.473 13.8673 128.114 13.7275 127.639 13.7275C127.319 13.7275 127.023 13.8058 126.747 13.9652C126.47 14.1246 126.216 14.3399 125.979 14.6168V21.3678H123.788Z" fill="#23333B"/>
<path fill-rule="evenodd" clip-rule="evenodd" d="M142.008 12.3714C141.533 12.6371 141.11 12.981 140.737 13.4061L140.558 12.5532C140.469 12.2819 140.284 12.1476 140 12.1476H138.66V24.38H140.853V20.6046C141.138 20.8871 141.461 21.1052 141.82 21.2646C142.179 21.424 142.616 21.5023 143.124 21.5023C143.724 21.5023 144.263 21.3821 144.746 21.1387C145.23 20.8954 145.641 20.5571 145.981 20.1264C146.321 19.6957 146.581 19.1867 146.766 18.5994C146.951 18.0121 147.042 17.3717 147.042 16.6837C147.042 15.9287 146.962 15.2603 146.799 14.6758C146.636 14.0913 146.406 13.5991 146.105 13.202C145.804 12.8048 145.451 12.5 145.039 12.2903C144.627 12.0833 144.174 11.9771 143.677 11.9771C143.039 11.9771 142.481 12.1085 142.008 12.3714ZM141.663 19.623C141.37 19.4971 141.099 19.2818 140.851 18.977H140.853V14.838C141.138 14.4856 141.439 14.2115 141.759 14.0158C142.08 13.8228 142.467 13.7249 142.923 13.7249C143.213 13.7249 143.47 13.7781 143.699 13.8871C143.925 13.9934 144.119 14.164 144.279 14.3989C144.439 14.631 144.561 14.9359 144.647 15.3106C144.732 15.6854 144.776 16.1412 144.776 16.6809C144.776 17.2151 144.724 17.6793 144.624 18.0709C144.522 18.4652 144.379 18.7896 144.193 19.0469C144.006 19.3042 143.779 19.4971 143.514 19.623C143.246 19.7488 142.947 19.8132 142.616 19.8132C142.273 19.8132 141.956 19.7488 141.663 19.623Z" fill="#23333B"/>
<path d="M150.965 8.01123V21.3678H148.771V8.01123H150.965Z" fill="#23333B"/>
<path fill-rule="evenodd" clip-rule="evenodd" d="M159.03 12.3347C158.477 12.1138 157.861 12.002 157.187 12.002C156.507 12.002 155.888 12.1138 155.33 12.3347C154.772 12.5557 154.297 12.8689 153.905 13.2772C153.51 13.6827 153.206 14.1805 152.99 14.7678C152.775 15.3551 152.667 16.0123 152.667 16.7366C152.667 17.4665 152.775 18.1265 152.99 18.7138C153.206 19.3011 153.51 19.8017 153.905 20.2156C154.3 20.6295 154.775 20.9483 155.33 21.1692C155.888 21.3902 156.507 21.502 157.187 21.502C157.861 21.502 158.477 21.3902 159.03 21.1692C159.582 20.9455 160.055 20.6295 160.45 20.2156C160.842 19.8017 161.146 19.3011 161.359 18.7138C161.571 18.1265 161.679 17.4665 161.679 16.7366C161.679 16.0123 161.571 15.3551 161.359 14.7678C161.146 14.1833 160.842 13.6855 160.45 13.2772C160.057 12.8717 159.582 12.5557 159.03 12.3347ZM158.869 19.0242C158.505 19.5388 157.944 19.7961 157.187 19.7961C156.419 19.7961 155.85 19.536 155.477 19.0159C155.107 18.4985 154.921 17.7434 154.921 16.7562C154.921 15.769 155.107 15.0139 155.477 14.4881C155.847 13.9652 156.416 13.7023 157.187 13.7023C157.944 13.7023 158.505 13.9652 158.869 14.4853C159.234 15.0055 159.416 15.7634 159.416 16.759C159.416 17.7546 159.234 18.5097 158.869 19.0242Z" fill="#23333B"/>
<path fill-rule="evenodd" clip-rule="evenodd" d="M165.818 9.99949C165.895 9.83169 165.934 9.65271 165.934 9.45974C165.934 9.26118 165.895 9.0766 165.818 8.90322C165.74 8.72983 165.638 8.57881 165.511 8.45296C165.384 8.32711 165.235 8.22644 165.064 8.15093C164.892 8.07542 164.71 8.03906 164.514 8.03906C164.326 8.03906 164.146 8.07542 163.978 8.15093C163.809 8.22644 163.663 8.32711 163.539 8.45296C163.414 8.57881 163.315 8.72983 163.24 8.90322C163.166 9.0766 163.13 9.26118 163.13 9.45974C163.13 9.65271 163.166 9.83169 163.24 9.99949C163.315 10.1673 163.414 10.3127 163.539 10.4386C163.663 10.5644 163.809 10.6651 163.978 10.7406C164.146 10.8161 164.323 10.8525 164.514 10.8525C164.707 10.8525 164.892 10.8161 165.064 10.7406C165.235 10.6651 165.384 10.5644 165.511 10.4386C165.638 10.3127 165.74 10.1673 165.818 9.99949ZM165.633 21.3677V12.1473H163.431V21.3677H165.633Z" fill="#23333B"/>
<path fill-rule="evenodd" clip-rule="evenodd" d="M84.819 40.8098H86.6645L81.6253 27.814H79.1913L74.1382 40.8098H76.003C76.2047 40.8098 76.3733 40.7539 76.5086 40.6392C76.6468 40.5246 76.7379 40.3987 76.7849 40.2617L77.7436 37.6105H83.0619L84.0206 40.2617C84.0841 40.4183 84.1836 40.5497 84.3134 40.6532C84.4433 40.7567 84.6118 40.8098 84.819 40.8098ZM80.8849 31.581L82.4486 35.9046H78.3624L79.9151 31.6006C79.9925 31.402 80.0726 31.1699 80.1555 30.9042C80.2384 30.6385 80.3185 30.3505 80.3958 30.0457C80.4787 30.3505 80.5616 30.6357 80.6445 30.8986C80.7274 31.1615 80.8075 31.388 80.8849 31.581Z" fill="#23333B"/>
<path d="M93.9362 33.5387C93.8699 33.6226 93.8064 33.6897 93.7456 33.7373C93.6848 33.7848 93.5936 33.81 93.4748 33.81C93.3616 33.81 93.2538 33.7764 93.1461 33.7065C93.0383 33.6366 92.9112 33.5611 92.7648 33.4716C92.6156 33.3849 92.4416 33.3066 92.2371 33.2367C92.0327 33.1668 91.7785 33.1332 91.4773 33.1332C91.0933 33.1332 90.7563 33.2031 90.4662 33.343C90.1761 33.4828 89.9357 33.687 89.7423 33.9498C89.5489 34.2127 89.4053 34.5315 89.3113 34.9063C89.2174 35.281 89.1704 35.7033 89.1704 36.1787C89.1704 36.6709 89.2229 37.1072 89.3252 37.4903C89.4274 37.8735 89.5793 38.1951 89.7727 38.458C89.9689 38.7181 90.2037 38.9166 90.4828 39.0508C90.7618 39.1851 91.074 39.2522 91.4249 39.2522C91.773 39.2522 92.0575 39.2075 92.273 39.1208C92.4885 39.0341 92.6709 38.939 92.8201 38.8327C92.9692 38.7292 93.0963 38.6314 93.2068 38.5447C93.3173 38.458 93.4389 38.4132 93.5743 38.4132C93.7511 38.4132 93.8837 38.4831 93.9749 38.6202L94.6048 39.4284C94.3617 39.7164 94.0992 39.957 93.8146 40.1527C93.5301 40.3485 93.2372 40.5023 92.9306 40.6197C92.6267 40.7372 92.3117 40.8183 91.9885 40.8658C91.6652 40.9134 91.3447 40.9386 91.0243 40.9386C90.4607 40.9386 89.933 40.8323 89.4357 40.6197C88.9384 40.4072 88.5046 40.0968 88.1316 39.6885C87.7587 39.2802 87.4631 38.7824 87.2476 38.1923C87.0321 37.6022 86.9243 36.9282 86.9243 36.1759C86.9243 35.4992 87.021 34.8699 87.2116 34.2938C87.405 33.7149 87.6868 33.2143 88.0598 32.792C88.4328 32.3697 88.8942 32.0397 89.444 31.7992C89.9937 31.5587 90.6292 31.4385 91.3447 31.4385C92.0244 31.4385 92.6211 31.5503 93.135 31.7713C93.6461 31.9922 94.1075 32.311 94.5164 32.7249L93.9362 33.5387Z" fill="#23333B"/>
<path fill-rule="evenodd" clip-rule="evenodd" d="M105.426 29.408C105.504 29.2375 105.542 29.0585 105.542 28.8655C105.542 28.6669 105.504 28.4852 105.426 28.3118C105.349 28.1412 105.247 27.9902 105.12 27.8615C104.993 27.7329 104.841 27.6322 104.667 27.5567C104.493 27.4812 104.307 27.4448 104.111 27.4448C103.921 27.4448 103.744 27.4812 103.578 27.5567C103.41 27.6322 103.266 27.7329 103.142 27.8615C103.017 27.9902 102.918 28.1412 102.843 28.3118C102.769 28.4824 102.733 28.6669 102.733 28.8655C102.733 29.0557 102.769 29.2375 102.843 29.408C102.918 29.5786 103.017 29.7269 103.142 29.8527C103.269 29.9786 103.412 30.0792 103.578 30.1547C103.744 30.2302 103.921 30.2666 104.111 30.2666C104.307 30.2666 104.493 30.2302 104.667 30.1547C104.841 30.0792 104.993 29.9786 105.12 29.8527C105.247 29.7269 105.349 29.5786 105.426 29.408ZM102.968 40.8098H105.161H105.164V31.6677H98.7433V28.7648H97.6078C97.4779 28.7648 97.3702 28.7956 97.2873 28.8627C97.2044 28.9298 97.1492 29.0221 97.1188 29.1424L96.6574 31.6509L95.1931 31.9026V32.7836C95.1931 32.9374 95.2346 33.0548 95.3174 33.1331C95.4003 33.2114 95.4998 33.2506 95.6186 33.2506H96.5496V38.4019C96.5496 39.199 96.7624 39.8226 97.1851 40.2757C97.6078 40.7287 98.2156 40.9552 99.0085 40.9552C99.4533 40.9552 99.8815 40.8853 100.296 40.7483C100.71 40.6085 101.078 40.4043 101.398 40.1358L100.741 39.0563C100.694 38.9892 100.65 38.9417 100.608 38.9081C100.567 38.8746 100.514 38.8578 100.448 38.8578C100.393 38.8578 100.34 38.8746 100.288 38.9081C100.235 38.9417 100.174 38.9752 100.105 39.0116C100.036 39.048 99.9561 39.0815 99.8649 39.1151C99.7738 39.1486 99.6577 39.1654 99.5224 39.1654C99.2792 39.1654 99.0886 39.0843 98.9505 38.9221C98.8096 38.7599 98.7405 38.5362 98.7405 38.2481V33.2506H102.968V40.8098Z" fill="#23333B"/>
<path fill-rule="evenodd" clip-rule="evenodd" d="M113.27 31.7796C112.717 31.5586 112.101 31.4468 111.427 31.4468C110.747 31.4468 110.129 31.5558 109.571 31.7796C109.012 32.0005 108.537 32.3137 108.145 32.722C107.75 33.1275 107.446 33.6253 107.23 34.2126C107.015 34.7999 106.907 35.4571 106.907 36.1814C106.907 36.9114 107.015 37.5714 107.23 38.1586C107.446 38.7459 107.75 39.2465 108.145 39.6604C108.54 40.0743 109.015 40.3931 109.571 40.6141C110.129 40.835 110.747 40.9469 111.427 40.9469C112.101 40.9469 112.717 40.835 113.27 40.6141C113.822 40.3903 114.295 40.0743 114.69 39.6604C115.082 39.2465 115.386 38.7459 115.599 38.1586C115.812 37.5714 115.919 36.9114 115.919 36.1814C115.919 35.4571 115.812 34.7999 115.599 34.2126C115.386 33.6281 115.082 33.1303 114.69 32.722C114.298 32.3165 113.822 32.0005 113.27 31.7796ZM113.11 38.4663C112.745 38.9808 112.184 39.2381 111.427 39.2381C110.659 39.2381 110.087 38.978 109.717 38.4579C109.347 37.9405 109.162 37.1854 109.162 36.1982C109.162 35.211 109.347 34.4559 109.717 33.9302C110.087 33.4072 110.656 33.1443 111.427 33.1443C112.184 33.1443 112.745 33.4072 113.11 33.9274C113.474 34.4475 113.657 35.2054 113.657 36.201C113.657 37.1966 113.474 37.9517 113.11 38.4663Z" fill="#23333B"/>
<path d="M119.649 32.7219C119.832 32.5373 120.028 32.3639 120.229 32.2045C120.431 32.0451 120.649 31.9109 120.879 31.799C121.105 31.6872 121.351 31.6005 121.611 31.5389C121.871 31.4746 122.155 31.4438 122.462 31.4438C122.959 31.4438 123.401 31.5305 123.785 31.7011C124.169 31.8717 124.492 32.1122 124.749 32.4199C125.006 32.7275 125.202 33.0966 125.335 33.5245C125.468 33.9524 125.534 34.425 125.534 34.9396V40.8097H123.34V34.9396C123.34 34.3775 123.213 33.9412 122.959 33.6308C122.705 33.3232 122.315 33.1666 121.796 33.1666C121.417 33.1666 121.061 33.2533 120.729 33.4266C120.398 33.6 120.083 33.8377 119.787 34.137V40.8069H117.594V31.5865H118.934C119.218 31.5865 119.403 31.7207 119.492 31.992L119.649 32.7219Z" fill="#23333B"/>
<path d="M128.849 26.9414C129.134 27.414 129.324 27.909 129.426 28.4208C129.526 28.9326 129.537 29.4388 129.454 29.9394C129.371 30.44 129.197 30.9182 128.935 31.3768C128.672 31.8355 128.319 32.2466 127.874 32.6129L127.18 32.1906C127.122 32.1543 127.078 32.1123 127.056 32.0592C127.031 32.0089 127.023 31.9585 127.026 31.9054C127.028 31.8551 127.039 31.8047 127.062 31.7572C127.084 31.7096 127.111 31.6677 127.147 31.6313C127.272 31.4803 127.39 31.2845 127.504 31.0384C127.617 30.7923 127.694 30.5183 127.738 30.2106C127.783 29.9058 127.777 29.5786 127.722 29.2318C127.667 28.8851 127.531 28.5355 127.319 28.1887C127.219 28.0153 127.189 27.8643 127.236 27.7356C127.28 27.607 127.377 27.5147 127.523 27.4616L128.849 26.9414Z" fill="#23333B"/>
<path d="M136.422 33.3878C136.364 33.4829 136.3 33.5501 136.237 33.5892C136.171 33.6284 136.088 33.6479 135.988 33.6479C135.88 33.6479 135.767 33.6172 135.646 33.5584C135.524 33.4997 135.383 33.4298 135.223 33.3571C135.063 33.2816 134.88 33.2145 134.676 33.1557C134.471 33.097 134.231 33.0662 133.952 33.0662C133.521 33.0662 133.181 33.1585 132.935 33.3459C132.689 33.5305 132.568 33.7738 132.568 34.073C132.568 34.2716 132.631 34.4366 132.759 34.5708C132.886 34.7051 133.054 34.8253 133.264 34.926C133.474 35.0267 133.712 35.1189 133.98 35.2001C134.245 35.2812 134.516 35.3706 134.792 35.4657C135.068 35.5608 135.339 35.6699 135.604 35.7929C135.869 35.916 136.11 36.0726 136.32 36.26C136.53 36.4501 136.698 36.6739 136.825 36.9395C136.952 37.2052 137.016 37.5212 137.016 37.8932C137.016 38.3378 136.939 38.7462 136.781 39.1209C136.624 39.4956 136.392 39.8201 136.085 40.0913C135.778 40.3654 135.397 40.5779 134.944 40.7289C134.491 40.8828 133.969 40.9583 133.377 40.9583C133.062 40.9583 132.759 40.9303 132.457 40.8716C132.159 40.8156 131.872 40.7345 131.595 40.6339C131.319 40.5332 131.065 40.4129 130.833 40.2731C130.598 40.1361 130.394 39.9851 130.217 39.8228L130.722 38.9783C130.789 38.8776 130.863 38.7993 130.954 38.7434C131.046 38.6874 131.156 38.6623 131.292 38.6623C131.427 38.6623 131.557 38.7014 131.678 38.7797C131.8 38.858 131.941 38.9419 132.101 39.0314C132.261 39.1209 132.449 39.2048 132.665 39.2831C132.88 39.3614 133.154 39.4006 133.485 39.4006C133.745 39.4006 133.969 39.3698 134.156 39.3055C134.342 39.2412 134.496 39.1601 134.618 39.0594C134.739 38.9587 134.828 38.8384 134.883 38.7042C134.938 38.57 134.969 38.4301 134.969 38.2875C134.969 38.0722 134.905 37.896 134.778 37.7562C134.651 37.6191 134.483 37.4989 134.273 37.3954C134.063 37.2947 133.822 37.2024 133.554 37.1213C133.283 37.0402 133.01 36.9535 132.728 36.8556C132.446 36.7606 132.173 36.6487 131.902 36.5173C131.631 36.3886 131.394 36.2264 131.184 36.0278C130.974 35.8293 130.805 35.5888 130.678 35.3007C130.551 35.0127 130.488 34.6659 130.488 34.2576C130.488 33.8801 130.562 33.5193 130.709 33.1781C130.858 32.8369 131.073 32.5377 131.361 32.2832C131.648 32.0287 132.004 31.8245 132.435 31.6707C132.866 31.5169 133.361 31.4414 133.922 31.4414C134.549 31.4414 135.121 31.5477 135.635 31.7546C136.148 31.9616 136.579 32.2412 136.922 32.5824L136.422 33.3878Z" fill="#23333B"/>
<path d="M79.1711 53.3954V54.4291H75.1743V47.7036H76.4448V53.3954H79.1711Z" fill="#8F1EE0"/>
<path fill-rule="evenodd" clip-rule="evenodd" d="M80.6795 52.8201C80.6103 52.6401 80.566 52.4301 80.5466 52.1846H83.5359C83.6438 52.1846 83.7158 52.1546 83.7546 52.0946C83.7905 52.0346 83.8099 51.9174 83.8099 51.7428C83.8099 51.3992 83.7573 51.091 83.6522 50.8237C83.547 50.5564 83.4003 50.3301 83.2148 50.1446C83.0294 49.9619 82.808 49.8201 82.5505 49.7246C82.2931 49.6292 82.0108 49.5801 81.7063 49.5801C81.3438 49.5801 81.0199 49.6428 80.7321 49.7655C80.4442 49.8883 80.2006 50.0574 80.0013 50.2701C79.8021 50.4828 79.6498 50.7337 79.5419 51.0201C79.4339 51.3064 79.3813 51.6146 79.3813 51.9392C79.3813 52.3564 79.445 52.7246 79.5668 53.0437C79.6913 53.3601 79.8602 53.6274 80.0733 53.8428C80.2864 54.0583 80.5411 54.2192 80.8289 54.331C81.1168 54.4428 81.4296 54.4974 81.7672 54.4974C81.9361 54.4974 82.1132 54.4837 82.2931 54.4592C82.4758 54.4346 82.653 54.391 82.8273 54.331C83.0017 54.271 83.1705 54.1892 83.3311 54.0883C83.4916 53.9874 83.6355 53.8646 83.7656 53.7146L83.4307 53.2974C83.3837 53.2264 83.3117 53.191 83.2148 53.191C83.1429 53.191 83.0681 53.2128 82.9906 53.2564C82.9294 53.2909 82.8612 53.3271 82.7847 53.3678C82.7644 53.3785 82.7436 53.3896 82.7222 53.401C82.6197 53.4555 82.5007 53.5019 82.3623 53.5455C82.2267 53.5892 82.0634 53.611 81.8752 53.611C81.6842 53.611 81.5126 53.581 81.3576 53.5237C81.2026 53.4637 81.067 53.3792 80.9535 53.2619C80.84 53.1446 80.7487 53.0001 80.6795 52.8201ZM82.7055 51.0719C82.7471 51.2028 82.7692 51.3419 82.7692 51.4919H80.5688C80.6213 51.1455 80.7459 50.8755 80.9397 50.6874C81.1334 50.4992 81.3963 50.4037 81.734 50.4037C81.9084 50.4037 82.0606 50.4337 82.1907 50.491C82.3208 50.5483 82.4288 50.6274 82.5146 50.7255C82.6004 50.8237 82.664 50.941 82.7055 51.0719Z" fill="#8F1EE0"/>
<path d="M86.9819 54.4264V49.6537H87.696C87.8483 49.6537 87.9451 49.7246 87.9922 49.8637L88.0669 50.2183C88.1527 50.1255 88.2413 50.041 88.3326 49.9619C88.424 49.8828 88.5236 49.8174 88.6288 49.7628C88.734 49.7055 88.8475 49.6619 88.9693 49.6292C89.091 49.5964 89.2239 49.5801 89.3678 49.5801C89.6723 49.5801 89.9242 49.6619 90.1207 49.8255C90.3172 49.9892 90.4639 50.2046 90.5608 50.4746C90.6355 50.3164 90.7296 50.1801 90.8431 50.0683C90.9566 49.9564 91.0811 49.8637 91.2168 49.7928C91.3524 49.7219 91.4963 49.6674 91.6485 49.6346C91.8008 49.6019 91.9558 49.5828 92.108 49.5828C92.3765 49.5828 92.6145 49.6237 92.8221 49.7028C93.0297 49.7819 93.2041 49.9019 93.3452 50.0574C93.4864 50.2128 93.5943 50.401 93.6691 50.6246C93.7438 50.8483 93.7798 51.1046 93.7798 51.391V54.4292H92.6145V51.391C92.6145 51.0883 92.5453 50.8592 92.4125 50.7064C92.2768 50.5537 92.0776 50.4774 91.8174 50.4774C91.6984 50.4774 91.5876 50.4964 91.4852 50.5374C91.3828 50.5783 91.2943 50.6355 91.2168 50.7119C91.1393 50.7883 91.0784 50.8837 91.0341 50.9983C90.9898 51.1128 90.9676 51.2437 90.9676 51.3937V54.4319H89.7968V51.391C89.7968 51.0719 89.7304 50.8401 89.6003 50.6928C89.4702 50.5455 89.2793 50.4746 89.0274 50.4746C88.8585 50.4746 88.698 50.5155 88.5541 50.5974C88.4074 50.6792 88.2718 50.791 88.1444 50.9355V54.4292H86.9819V54.4264Z" fill="#8F1EE0"/>
<path fill-rule="evenodd" clip-rule="evenodd" d="M95.9195 52.8201C95.8503 52.6401 95.806 52.4301 95.7866 52.1846H98.7759C98.8838 52.1846 98.9558 52.1546 98.9946 52.0946C99.0305 52.0346 99.0499 51.9174 99.0499 51.7428C99.0499 51.3992 98.9973 51.091 98.8921 50.8237C98.787 50.5564 98.6403 50.3301 98.4548 50.1446C98.2694 49.9619 98.0479 49.8201 97.7905 49.7246C97.5331 49.6292 97.2508 49.5801 96.9463 49.5801C96.5837 49.5801 96.2599 49.6428 95.9721 49.7655C95.6842 49.8883 95.4406 50.0574 95.2413 50.2701C95.0421 50.4828 94.8898 50.7337 94.7819 51.0201C94.6739 51.3064 94.6213 51.6146 94.6213 51.9392C94.6213 52.3564 94.685 52.7246 94.8068 53.0437C94.9313 53.3601 95.1002 53.6274 95.3133 53.8428C95.5264 54.0583 95.7811 54.2192 96.0689 54.331C96.3568 54.4428 96.6696 54.4974 97.0072 54.4974C97.1761 54.4974 97.3532 54.4837 97.5331 54.4592C97.7158 54.4346 97.8929 54.391 98.0673 54.331C98.2417 54.271 98.4105 54.1892 98.5711 54.0883C98.7316 53.9874 98.8755 53.8646 99.0056 53.7146L98.6707 53.2974C98.6237 53.2264 98.5517 53.191 98.4548 53.191C98.3829 53.191 98.3081 53.2128 98.2306 53.2564C98.1693 53.2909 98.1012 53.3271 98.0247 53.3678C98.0044 53.3785 97.9836 53.3896 97.9621 53.401C97.8597 53.4555 97.7407 53.5019 97.6023 53.5455C97.4667 53.5892 97.3034 53.611 97.1152 53.611C96.9242 53.611 96.7526 53.581 96.5976 53.5237C96.4426 53.4637 96.307 53.3792 96.1935 53.2619C96.08 53.1446 95.9887 53.0001 95.9195 52.8201ZM97.9455 51.0719C97.9871 51.2028 98.0092 51.3419 98.0092 51.4919H95.8087C95.8613 51.1455 95.9859 50.8755 96.1796 50.6874C96.3734 50.4992 96.6363 50.4037 96.974 50.4037C97.1484 50.4037 97.3006 50.4337 97.4307 50.491C97.5608 50.5483 97.6687 50.6274 97.7546 50.7255C97.8404 50.8237 97.904 50.941 97.9455 51.0719Z" fill="#8F1EE0"/>
<path fill-rule="evenodd" clip-rule="evenodd" d="M100.96 52.8201C100.891 52.6401 100.846 52.4301 100.827 52.1846H103.816C103.924 52.1846 103.996 52.1546 104.035 52.0946C104.071 52.0346 104.09 51.9174 104.09 51.7428C104.09 51.3992 104.038 51.091 103.932 50.8237C103.827 50.5564 103.681 50.3301 103.495 50.1446C103.31 49.9619 103.088 49.8201 102.831 49.7246C102.573 49.6292 102.291 49.5801 101.987 49.5801C101.624 49.5801 101.3 49.6428 101.012 49.7655C100.724 49.8883 100.481 50.0574 100.282 50.2701C100.082 50.4828 99.9301 50.7337 99.8222 51.0201C99.7142 51.3064 99.6616 51.6146 99.6616 51.9392C99.6616 52.3564 99.7253 52.7246 99.8471 53.0437C99.9716 53.3601 100.14 53.6274 100.354 53.8428C100.567 54.0583 100.821 54.2192 101.109 54.331C101.397 54.4428 101.71 54.4974 102.048 54.4974C102.216 54.4974 102.393 54.4837 102.573 54.4592C102.756 54.4346 102.933 54.391 103.108 54.331C103.282 54.271 103.451 54.1892 103.611 54.0883C103.772 53.9874 103.916 53.8646 104.046 53.7146L103.711 53.2974C103.664 53.2264 103.592 53.191 103.495 53.191C103.423 53.191 103.348 53.2128 103.271 53.2564C103.21 53.2909 103.141 53.3271 103.065 53.3678C103.045 53.3785 103.024 53.3896 103.002 53.401C102.9 53.4555 102.781 53.5019 102.643 53.5455C102.507 53.5892 102.344 53.611 102.155 53.611C101.964 53.611 101.793 53.581 101.638 53.5237C101.483 53.4637 101.347 53.3792 101.234 53.2619C101.12 53.1446 101.029 53.0001 100.96 52.8201ZM102.986 51.0719C103.027 51.2028 103.049 51.3419 103.049 51.4919H100.849C100.902 51.1455 101.026 50.8755 101.22 50.6874C101.414 50.4992 101.677 50.4037 102.014 50.4037C102.189 50.4037 102.341 50.4337 102.471 50.491C102.601 50.5483 102.709 50.6274 102.795 50.7255C102.881 50.8237 102.944 50.941 102.986 51.0719Z" fill="#8F1EE0"/>
<path d="M106.537 54.5001C106.116 54.5001 105.792 54.3828 105.568 54.1483C105.344 53.9137 105.23 53.5919 105.23 53.1773V50.5128H104.735C104.671 50.5128 104.619 50.4937 104.574 50.4528C104.53 50.4119 104.508 50.3519 104.508 50.2701V49.8146L105.286 49.6892L105.532 48.3883C105.549 48.3255 105.579 48.2792 105.621 48.2437C105.662 48.2083 105.72 48.1919 105.79 48.1919H106.393V49.6946H107.686V50.5128H106.393V53.0983C106.393 53.2483 106.429 53.3628 106.504 53.4473C106.578 53.5319 106.678 53.5728 106.808 53.5728C106.88 53.5728 106.941 53.5646 106.991 53.5483C107.041 53.5319 107.082 53.5128 107.118 53.4937C107.154 53.4746 107.187 53.4583 107.215 53.4392C107.243 53.4201 107.27 53.4146 107.301 53.4146C107.334 53.4146 107.364 53.4228 107.387 53.4392C107.409 53.4555 107.434 53.4828 107.459 53.5155L107.807 54.0746C107.639 54.2137 107.442 54.3201 107.221 54.391C107.002 54.4646 106.772 54.5001 106.537 54.5001Z" fill="#8F1EE0"/>
<path d="M114.901 49.6565V54.4293H114.187C114.032 54.4293 113.935 54.3584 113.894 54.2193L113.814 53.8374C113.614 54.0365 113.396 54.1974 113.158 54.3202C112.92 54.4429 112.637 54.5029 112.313 54.5029C112.048 54.5029 111.815 54.4593 111.613 54.3693C111.411 54.282 111.239 54.1565 111.101 53.9956C110.963 53.8347 110.857 53.6438 110.788 53.4202C110.716 53.1993 110.683 52.9538 110.683 52.6865V49.6538H111.848V52.6865C111.848 52.9784 111.918 53.2047 112.053 53.3629C112.192 53.5238 112.396 53.6029 112.67 53.6029C112.872 53.6029 113.061 53.5593 113.238 53.4693C113.415 53.382 113.581 53.2593 113.739 53.1038V49.6538H114.901V49.6565Z" fill="#8F1EE0"/>
<path fill-rule="evenodd" clip-rule="evenodd" d="M117.833 49.771C117.581 49.9073 117.357 50.0846 117.157 50.3055L117.066 49.8664C117.019 49.7273 116.922 49.6564 116.77 49.6564H116.056V55.9864H117.221V54.0337C117.373 54.1782 117.542 54.2928 117.736 54.3746C117.93 54.4564 118.159 54.4973 118.43 54.4973C118.749 54.4973 119.034 54.4346 119.291 54.3091C119.549 54.1837 119.767 54.0091 119.947 53.7855C120.127 53.5619 120.268 53.2973 120.365 52.9946C120.462 52.6919 120.512 52.3619 120.512 52.0046C120.512 51.6146 120.468 51.2682 120.382 50.9655C120.296 50.6628 120.174 50.4091 120.014 50.2019C119.853 49.9946 119.665 49.8391 119.446 49.73C119.228 49.621 118.987 49.5664 118.721 49.5664C118.381 49.5664 118.085 49.6346 117.833 49.771ZM117.65 53.5264C117.495 53.461 117.351 53.3491 117.218 53.191H117.215V51.0528C117.368 50.87 117.528 50.7282 117.697 50.6273C117.866 50.5291 118.071 50.4773 118.314 50.4773C118.466 50.4773 118.605 50.5046 118.727 50.5619C118.848 50.6164 118.951 50.7064 119.037 50.8264C119.122 50.9464 119.186 51.1046 119.233 51.2982C119.28 51.4919 119.302 51.7291 119.302 52.0073C119.302 52.2828 119.275 52.5228 119.222 52.7246C119.167 52.9264 119.089 53.0955 118.992 53.2291C118.895 53.3628 118.774 53.461 118.633 53.5264C118.491 53.5919 118.334 53.6246 118.156 53.6246C117.974 53.6246 117.805 53.5919 117.65 53.5264Z" fill="#8F1EE0"/>
<path fill-rule="evenodd" clip-rule="evenodd" d="M127.913 54.4265V47.5156H126.745V50.0329C126.593 49.8884 126.424 49.7765 126.23 49.692C126.037 49.6074 125.807 49.5665 125.536 49.5665C125.22 49.5665 124.932 49.6293 124.677 49.7547C124.423 49.8802 124.204 50.0547 124.022 50.2784C123.839 50.502 123.698 50.7665 123.601 51.0693C123.504 51.372 123.454 51.6993 123.454 52.0538C123.454 52.4438 123.498 52.7929 123.584 53.0956C123.67 53.3984 123.795 53.652 123.952 53.8593C124.11 54.0665 124.298 54.222 124.52 54.3311C124.741 54.4402 124.985 54.4947 125.248 54.4947C125.585 54.4947 125.879 54.4265 126.133 54.2902C126.385 54.1538 126.609 53.9765 126.806 53.7556L126.906 54.2165C126.947 54.3556 127.044 54.4265 127.199 54.4265H127.913ZM126.316 50.5374C126.471 50.6029 126.615 50.7147 126.748 50.8729H126.745V53.0111C126.593 53.1938 126.432 53.3356 126.263 53.4338C126.095 53.532 125.89 53.5811 125.646 53.5811C125.497 53.5811 125.358 53.5538 125.237 53.4993C125.115 53.4447 125.012 53.3574 124.927 53.2347C124.841 53.112 124.774 52.9538 124.73 52.7602C124.683 52.5665 124.661 52.3293 124.661 52.0511C124.661 51.7756 124.689 51.5356 124.741 51.3338C124.797 51.132 124.874 50.9629 124.974 50.832C125.073 50.7011 125.195 50.6029 125.336 50.5374C125.477 50.472 125.635 50.4393 125.812 50.4393C125.992 50.4393 126.161 50.472 126.316 50.5374Z" fill="#8F1EE0"/>
<path fill-rule="evenodd" clip-rule="evenodd" d="M130.094 52.8201C130.025 52.6401 129.981 52.4301 129.961 52.1846H132.95C133.058 52.1846 133.13 52.1546 133.169 52.0946C133.205 52.0346 133.224 51.9174 133.224 51.7428C133.224 51.3992 133.172 51.091 133.067 50.8237C132.962 50.5564 132.815 50.3301 132.629 50.1446C132.444 49.9619 132.223 49.8201 131.965 49.7246C131.708 49.6292 131.425 49.5801 131.121 49.5801C130.758 49.5801 130.434 49.6428 130.147 49.7655C129.859 49.8883 129.615 50.0574 129.416 50.2701C129.217 50.4828 129.064 50.7337 128.956 51.0201C128.848 51.3064 128.796 51.6146 128.796 51.9392C128.796 52.3564 128.86 52.7246 128.981 53.0437C129.106 53.3601 129.275 53.6274 129.488 53.8428C129.701 54.0583 129.956 54.2192 130.243 54.331C130.531 54.4428 130.844 54.4974 131.182 54.4974C131.351 54.4974 131.528 54.4837 131.708 54.4592C131.89 54.4346 132.068 54.391 132.242 54.331C132.416 54.271 132.585 54.1892 132.746 54.0883C132.906 53.9874 133.05 53.8646 133.18 53.7146L132.845 53.2974C132.798 53.2264 132.726 53.191 132.629 53.191C132.557 53.191 132.483 53.2128 132.405 53.2564C132.344 53.2909 132.276 53.3271 132.199 53.3678C132.179 53.3785 132.158 53.3896 132.137 53.401C132.034 53.4555 131.915 53.5019 131.777 53.5455C131.641 53.5892 131.478 53.611 131.29 53.611C131.099 53.611 130.927 53.581 130.772 53.5237C130.617 53.4637 130.482 53.3792 130.368 53.2619C130.255 53.1446 130.163 53.0001 130.094 52.8201ZM132.12 51.0719C132.162 51.2028 132.184 51.3419 132.184 51.4919H129.983C130.036 51.1455 130.16 50.8755 130.354 50.6874C130.548 50.4992 130.811 50.4037 131.149 50.4037C131.323 50.4037 131.475 50.4337 131.605 50.491C131.735 50.5483 131.843 50.6274 131.929 50.7255C132.015 50.8237 132.079 50.941 132.12 51.0719Z" fill="#8F1EE0"/>
<path d="M137.578 47.5156V54.4265H136.413V47.5156H137.578Z" fill="#8F1EE0"/>
<path d="M139.538 47.251C139.69 47.4964 139.793 47.7501 139.845 48.0173C139.898 48.2846 139.903 48.5437 139.859 48.8028C139.815 49.0619 139.724 49.3101 139.582 49.5473C139.441 49.7846 139.253 49.9973 139.018 50.1855L138.65 49.9673C138.619 49.9482 138.597 49.9264 138.583 49.8992C138.569 49.8719 138.564 49.8473 138.567 49.8201C138.567 49.7928 138.575 49.7682 138.586 49.7437C138.597 49.7192 138.611 49.6973 138.63 49.6782C138.697 49.6019 138.76 49.4982 138.818 49.3728C138.879 49.2446 138.921 49.1028 138.943 48.9446C138.968 48.7864 138.962 48.6173 138.935 48.4373C138.904 48.2573 138.832 48.0773 138.719 47.8973C138.666 47.8073 138.65 47.7282 138.675 47.6628C138.699 47.5973 138.749 47.5482 138.827 47.521L139.538 47.251Z" fill="#8F1EE0"/>
<path fill-rule="evenodd" clip-rule="evenodd" d="M141.545 52.8201C141.476 52.6401 141.431 52.4301 141.412 52.1846H144.401C144.509 52.1846 144.581 52.1546 144.62 52.0946C144.656 52.0346 144.675 51.9174 144.675 51.7428C144.675 51.3992 144.623 51.091 144.517 50.8237C144.412 50.5564 144.266 50.3301 144.08 50.1446C143.895 49.9619 143.673 49.8201 143.416 49.7246C143.158 49.6292 142.876 49.5801 142.572 49.5801C142.209 49.5801 141.885 49.6428 141.597 49.7655C141.309 49.8883 141.066 50.0574 140.867 50.2701C140.667 50.4828 140.515 50.7337 140.407 51.0201C140.299 51.3064 140.247 51.6146 140.247 51.9392C140.247 52.3564 140.31 52.7246 140.432 53.0437C140.557 53.3601 140.725 53.6274 140.939 53.8428C141.152 54.0583 141.406 54.2192 141.694 54.331C141.982 54.4428 142.295 54.4974 142.632 54.4974C142.801 54.4974 142.978 54.4837 143.158 54.4592C143.341 54.4346 143.518 54.391 143.693 54.331C143.867 54.271 144.036 54.1892 144.196 54.0883C144.357 53.9874 144.501 53.8646 144.631 53.7146L144.296 53.2974C144.249 53.2264 144.177 53.191 144.08 53.191C144.008 53.191 143.933 53.2128 143.856 53.2564C143.795 53.2909 143.726 53.3271 143.65 53.3678C143.63 53.3785 143.609 53.3896 143.587 53.401C143.485 53.4555 143.366 53.5019 143.228 53.5455C143.092 53.5892 142.929 53.611 142.74 53.611C142.549 53.611 142.378 53.581 142.223 53.5237C142.068 53.4637 141.932 53.3792 141.819 53.2619C141.705 53.1446 141.614 53.0001 141.545 52.8201ZM143.571 51.0719C143.612 51.2028 143.634 51.3419 143.634 51.4919H141.434C141.487 51.1455 141.611 50.8755 141.805 50.6874C141.999 50.4992 142.262 50.4037 142.599 50.4037C142.774 50.4037 142.926 50.4337 143.056 50.491C143.186 50.5483 143.294 50.6274 143.38 50.7255C143.466 50.8237 143.529 50.941 143.571 51.0719Z" fill="#8F1EE0"/>
<path d="M145.555 54.4264V49.6537H146.27C146.422 49.6537 146.519 49.7246 146.566 49.8637L146.64 50.2183C146.726 50.1255 146.815 50.041 146.906 49.9619C146.997 49.8828 147.097 49.8174 147.202 49.7628C147.307 49.7055 147.421 49.6619 147.543 49.6292C147.665 49.5964 147.797 49.5801 147.941 49.5801C148.246 49.5801 148.498 49.6619 148.694 49.8255C148.891 49.9892 149.037 50.2046 149.134 50.4746C149.209 50.3164 149.303 50.1801 149.417 50.0683C149.53 49.9564 149.655 49.8637 149.79 49.7928C149.926 49.7219 150.07 49.6674 150.222 49.6346C150.374 49.6019 150.529 49.5828 150.681 49.5828C150.95 49.5828 151.188 49.6237 151.396 49.7028C151.603 49.7819 151.778 49.9019 151.919 50.0574C152.06 50.2128 152.168 50.401 152.243 50.6246C152.317 50.8483 152.353 51.1046 152.353 51.391V54.4292H151.188V51.391C151.188 51.0883 151.119 50.8592 150.986 50.7064C150.85 50.5537 150.651 50.4774 150.391 50.4774C150.272 50.4774 150.161 50.4964 150.059 50.5374C149.956 50.5783 149.868 50.6355 149.79 50.7119C149.713 50.7883 149.652 50.8837 149.608 50.9983C149.563 51.1128 149.541 51.2437 149.541 51.3937V54.4319H148.37V51.391C148.37 51.0719 148.304 50.8401 148.174 50.6928C148.044 50.5455 147.853 50.4746 147.601 50.4746C147.432 50.4746 147.271 50.5155 147.128 50.5974C146.981 50.6792 146.845 50.791 146.718 50.9355V54.4292H145.555V54.4264Z" fill="#8F1EE0"/>
<path fill-rule="evenodd" clip-rule="evenodd" d="M155.24 49.771C154.988 49.9073 154.764 50.0846 154.565 50.3055L154.473 49.8664C154.426 49.7273 154.329 49.6564 154.177 49.6564H153.463V55.9864H154.628V54.0337C154.781 54.1782 154.949 54.2928 155.143 54.3746C155.337 54.4564 155.567 54.4973 155.838 54.4973C156.156 54.4973 156.441 54.4346 156.699 54.3091C156.956 54.1837 157.175 54.0091 157.355 53.7855C157.535 53.5619 157.676 53.2973 157.773 52.9946C157.87 52.6919 157.919 52.3619 157.919 52.0046C157.919 51.6146 157.875 51.2682 157.789 50.9655C157.703 50.6628 157.582 50.4091 157.421 50.2019C157.261 49.9946 157.072 49.8391 156.854 49.73C156.635 49.621 156.394 49.5664 156.129 49.5664C155.788 49.5664 155.492 49.6346 155.24 49.771ZM155.06 53.5264C154.905 53.461 154.761 53.3491 154.628 53.191H154.626V51.0528C154.778 50.87 154.938 50.7282 155.107 50.6273C155.276 50.5291 155.481 50.4773 155.724 50.4773C155.877 50.4773 156.015 50.5046 156.137 50.5619C156.259 50.6164 156.361 50.7064 156.447 50.8264C156.533 50.9464 156.596 51.1046 156.643 51.2982C156.69 51.4919 156.713 51.7291 156.713 52.0073C156.713 52.2828 156.685 52.5228 156.632 52.7246C156.577 52.9264 156.499 53.0955 156.403 53.2291C156.306 53.3628 156.184 53.461 156.043 53.5264C155.902 53.5919 155.744 53.6246 155.567 53.6246C155.384 53.6246 155.215 53.5919 155.06 53.5264Z" fill="#8F1EE0"/>
<path d="M160.004 47.5156V54.4265H158.838V47.5156H160.004Z" fill="#8F1EE0"/>
<path fill-rule="evenodd" clip-rule="evenodd" d="M164.291 49.7519C163.998 49.6374 163.671 49.5801 163.311 49.5801C162.949 49.5801 162.622 49.6374 162.326 49.7519C162.03 49.8664 161.778 50.0301 161.567 50.2401C161.357 50.4501 161.194 50.7092 161.08 51.0119C160.967 51.3146 160.909 51.6528 160.909 52.0292C160.909 52.4083 160.964 52.7464 161.08 53.0519C161.197 53.3574 161.357 53.6137 161.567 53.8292C161.778 54.0446 162.03 54.2083 162.326 54.3228C162.619 54.4374 162.949 54.4946 163.311 54.4946C163.671 54.4946 163.998 54.4374 164.291 54.3228C164.584 54.2083 164.836 54.0446 165.047 53.8292C165.257 53.6137 165.42 53.3546 165.531 53.0519C165.642 52.7492 165.7 52.4083 165.7 52.0292C165.7 51.6555 165.644 51.3146 165.531 51.0119C165.418 50.7092 165.257 50.4501 165.047 50.2401C164.836 50.0301 164.584 49.8664 164.291 49.7519ZM164.205 53.2128C164.011 53.4801 163.715 53.6137 163.311 53.6137C162.902 53.6137 162.6 53.4801 162.403 53.2128C162.207 52.9455 162.107 52.5555 162.107 52.0428C162.107 51.5301 162.207 51.1401 162.403 50.8674C162.6 50.5974 162.902 50.461 163.311 50.461C163.713 50.461 164.011 50.5974 164.205 50.8646C164.399 51.1319 164.496 51.5246 164.496 52.0401C164.496 52.5555 164.399 52.9455 164.205 53.2128Z" fill="#8F1EE0"/>
<path fill-rule="evenodd" clip-rule="evenodd" d="M167.9 48.5436C167.942 48.459 167.961 48.3636 167.961 48.2654C167.961 48.1617 167.939 48.0663 167.9 47.9763C167.859 47.8863 167.804 47.8099 167.737 47.7445C167.671 47.679 167.59 47.6272 167.499 47.589C167.408 47.5508 167.311 47.5317 167.206 47.5317C167.106 47.5317 167.009 47.5508 166.921 47.589C166.832 47.6272 166.754 47.679 166.688 47.7445C166.622 47.8099 166.569 47.8863 166.53 47.9763C166.492 48.0663 166.472 48.1617 166.472 48.2654C166.472 48.3636 166.492 48.4563 166.53 48.5436C166.569 48.6281 166.622 48.7045 166.688 48.7699C166.752 48.8354 166.832 48.8872 166.921 48.9254C167.009 48.9636 167.106 48.9826 167.206 48.9826C167.311 48.9826 167.408 48.9636 167.499 48.9254C167.59 48.8872 167.668 48.8354 167.737 48.7699C167.806 48.7072 167.859 48.6281 167.9 48.5436ZM167.801 54.429V49.6563H166.63V54.429H167.801Z" fill="#8F1EE0"/>
<path d="M75.1023 60.063H124.89V71.8573H75.1023V60.063Z" fill="#8F1EE0"/>
<path fill-rule="evenodd" clip-rule="evenodd" d="M80.5442 66.1545C82.0332 66.1545 82.6298 65.1516 82.6298 64.2259V64.1488C82.6298 62.9145 81.8122 62.1431 80.6188 62.1431H79.3508V68.3888H80.0967V66.1545H80.5442ZM80.5414 62.9916C81.3619 62.9916 81.8094 63.4545 81.8094 64.2259C81.8094 64.9202 81.4365 65.4602 80.5414 65.4574H80.0939V62.9916H80.5414Z" fill="black"/>
<path fill-rule="evenodd" clip-rule="evenodd" d="M82.6298 64.2259C82.6298 65.1516 82.0332 66.1545 80.5442 66.1545H80.0967V68.3888H79.3508V62.1431H80.6188C81.8122 62.1431 82.6298 62.9145 82.6298 64.1488V64.2259ZM81.8094 64.2259C81.8094 63.4545 81.3619 62.9916 80.5414 62.9916H80.0939V65.4574H80.5414C81.4365 65.4602 81.8094 64.9202 81.8094 64.2259Z" fill="white"/>
<path fill-rule="evenodd" clip-rule="evenodd" d="M86.5801 63.4545H85.8343L85.2376 62.6831L84.7155 63.4545H83.9696L84.9392 62.0659H85.6105L86.5801 63.4545ZM85.163 63.9173C85.7597 63.9173 86.2072 64.0716 86.5801 64.4573C86.953 64.9202 87.1768 65.4602 87.1768 66.1545C87.1768 66.9259 86.953 67.4659 86.5801 67.9288C86.2072 68.2373 85.7597 68.4688 85.0884 68.4688C84.5663 68.4688 84.1188 68.3145 83.7459 67.9288C83.3729 67.5431 83.1492 66.9259 83.1492 66.1545C83.1492 65.4602 83.3729 64.9202 83.7459 64.4573C84.1188 64.0716 84.5663 63.9173 85.163 63.9173ZM83.9696 66.1545C83.9696 65.2288 84.4171 64.5345 85.163 64.5345V64.4573C85.9088 64.4573 86.4309 65.2288 86.3564 66.2316C86.3564 67.1573 85.9088 67.7745 85.163 67.7745C84.4171 67.7745 83.9696 67.1573 83.9696 66.1545Z" fill="black"/>
<path fill-rule="evenodd" clip-rule="evenodd" d="M86.5801 63.4545H85.8343L85.2376 62.6831L84.7155 63.4545H83.9696L84.9392 62.0659H85.6105L86.5801 63.4545ZM85.163 63.9173C85.7597 63.9173 86.2072 64.0716 86.5801 64.4573C86.953 64.9202 87.1768 65.4602 87.1768 66.1545C87.1768 66.9259 86.953 67.4659 86.5801 67.9288C86.2072 68.2373 85.7597 68.4688 85.0884 68.4688C84.5663 68.4688 84.1188 68.3145 83.7459 67.9288C83.3729 67.5431 83.1492 66.9259 83.1492 66.1545C83.1492 65.4602 83.3729 64.9202 83.7459 64.4573C84.1188 64.0716 84.5663 63.9173 85.163 63.9173ZM85.163 64.5345C84.4171 64.5345 83.9696 65.2288 83.9696 66.1545C83.9696 67.1573 84.4171 67.7745 85.163 67.7745C85.9088 67.7745 86.3564 67.1573 86.3564 66.2316C86.4309 65.2288 85.9088 64.4573 85.163 64.4573V64.5345Z" fill="white"/>
<path d="M89.6355 68.3116L89.0388 68.4659C88.4421 68.4659 88.293 68.0802 88.293 67.6173V61.8345H89.0388V67.2316C89.0388 67.6173 89.1134 67.6945 89.3372 67.6945H89.6355V68.3116Z" fill="black"/>
<path fill-rule="evenodd" clip-rule="evenodd" d="M89.6355 68.3116L89.0388 68.4659C88.4421 68.4659 88.293 68.0802 88.293 67.6173V61.8345H89.0388V67.2316C89.0388 67.6173 89.1134 67.6945 89.3372 67.6945H89.6355V68.3116Z" fill="white"/>
<path fill-rule="evenodd" clip-rule="evenodd" d="M90.9781 66.3828H93.735H93.7405V66.1542C93.7405 64.7685 93.0692 63.8428 91.9505 63.8428C90.9063 63.8428 90.1604 64.8428 90.1604 66.1542C90.1604 67.3085 90.8289 68.4656 92.1715 68.4656C92.6935 68.4656 93.2156 68.3113 93.5886 68.0028L93.3648 67.4628C93.0665 67.6171 92.6935 67.7713 92.3206 67.7713C91.5002 67.7713 90.9781 67.1542 90.9781 66.3828ZM91.9449 64.5342C92.5416 64.5342 92.9145 65.1513 92.9145 65.6913H90.9753C90.9753 65.0742 91.3482 64.5342 91.9449 64.5342Z" fill="black"/>
<path fill-rule="evenodd" clip-rule="evenodd" d="M93.735 66.3828H90.9781C90.9781 67.1542 91.5002 67.7713 92.3206 67.7713C92.6935 67.7713 93.0665 67.6171 93.3648 67.4628L93.5886 68.0028C93.2156 68.3113 92.6935 68.4656 92.1715 68.4656C90.8289 68.4656 90.1604 67.3085 90.1604 66.1542C90.1604 64.8428 90.9063 63.8428 91.9505 63.8428C93.0692 63.8428 93.7405 64.7685 93.7405 66.1542V66.3828H93.735ZM92.9145 65.6913C92.9145 65.1513 92.5416 64.5342 91.9449 64.5342C91.3482 64.5342 90.9753 65.0742 90.9753 65.6913H92.9145Z" fill="white"/>
<path fill-rule="evenodd" clip-rule="evenodd" d="M97.5361 66.3828H100.218C100.218 66.3828 100.218 66.1513 100.224 66.1542C100.224 64.7685 99.5526 63.8428 98.4339 63.8428C97.3897 63.8428 96.6438 64.8428 96.6438 66.1542C96.6438 67.3085 97.3123 68.4656 98.6548 68.4656C99.1769 68.4656 99.699 68.3113 100.072 68.0028L99.8482 67.4628C99.5499 67.6171 99.1769 67.7713 98.804 67.7713C97.9836 67.7713 97.5361 67.1542 97.5361 66.3828ZM98.3537 64.5342C99.025 64.5342 99.3234 65.1513 99.3234 65.6913H97.3841C97.3841 65.0742 97.7571 64.5342 98.3537 64.5342Z" fill="black"/>
<path fill-rule="evenodd" clip-rule="evenodd" d="M100.218 66.3828H97.5361C97.5361 67.1542 97.9836 67.7713 98.804 67.7713C99.1769 67.7713 99.5499 67.6171 99.8482 67.4628L100.072 68.0028C99.699 68.3113 99.1769 68.4656 98.6548 68.4656C97.3123 68.4656 96.6438 67.3085 96.6438 66.1542C96.6438 64.8428 97.3897 63.8428 98.4339 63.8428C99.5526 63.8428 100.224 64.7685 100.224 66.1542C100.218 66.1513 100.218 66.3828 100.218 66.3828ZM99.3234 65.6913C99.3234 65.1513 99.025 64.5342 98.3537 64.5342C97.7571 64.5342 97.3841 65.0742 97.3841 65.6913H99.3234Z" fill="white"/>
<path d="M107.373 68.3118H106.627V65.6146C106.627 65.0746 106.478 64.6889 105.881 64.6889C105.434 64.6889 104.986 64.9975 104.688 65.3061V68.3118H103.942V65.6146C103.942 64.9975 103.793 64.6118 103.196 64.6118C102.749 64.6118 102.301 64.9203 102.003 65.2289V68.3118H101.257V64.0718H101.854L101.928 64.6118C102.525 64.1489 102.973 63.9946 103.42 63.9946C103.942 63.9946 104.39 64.2261 104.539 64.6889C104.986 64.2261 105.583 63.9175 106.031 63.9175C106.776 63.9175 107.373 64.3032 107.373 65.3832V68.4661V68.3118Z" fill="black"/>
<path fill-rule="evenodd" clip-rule="evenodd" d="M107.373 68.3118H106.627V65.6146C106.627 65.0746 106.478 64.6889 105.881 64.6889C105.434 64.6889 104.986 64.9975 104.688 65.3061V68.3118H103.942V65.6146C103.942 64.9975 103.793 64.6118 103.196 64.6118C102.749 64.6118 102.301 64.9203 102.003 65.2289V68.3118H101.257V64.0718H101.854L101.928 64.6118C102.525 64.1489 102.973 63.9946 103.42 63.9946C103.942 63.9946 104.39 64.2261 104.539 64.6889C104.986 64.2261 105.583 63.9175 106.031 63.9175C106.776 63.9175 107.373 64.3032 107.373 65.3832V68.4661V68.3118Z" fill="white"/>
<path fill-rule="evenodd" clip-rule="evenodd" d="M110.058 68.4631C111.174 68.4631 112.218 67.6174 112.218 66.1517V66.0717C112.218 64.6088 111.401 63.8374 110.133 63.8374C109.486 63.8374 109.063 63.9534 108.768 64.0346C108.723 64.047 108.68 64.0586 108.641 64.0688V70.6203H109.387V68.3088C109.61 68.4631 109.76 68.4631 110.058 68.4631ZM111.472 66.1517C111.472 66.1507 111.472 66.1498 111.472 66.1488V66.1517ZM109.981 64.6088C110.726 64.6088 111.471 65.0709 111.472 66.1488H111.398C111.398 67.1517 110.876 67.7688 110.055 67.7688L109.384 67.6145V64.686L109.981 64.6088Z" fill="black"/>
<path fill-rule="evenodd" clip-rule="evenodd" d="M112.218 66.1517C112.218 67.6174 111.174 68.4631 110.058 68.4631C109.76 68.4631 109.61 68.4631 109.387 68.3088V70.6203H108.641V64.0688C108.939 63.9917 109.387 63.8374 110.133 63.8374C111.401 63.8374 112.218 64.6088 112.218 66.0717V66.1517ZM111.472 66.1517C111.472 65.0717 110.727 64.6088 109.981 64.6088L109.384 64.686V67.6145L110.055 67.7688C110.876 67.7688 111.398 67.1517 111.398 66.1488H111.472V66.1517Z" fill="white"/>
<path d="M114.68 68.3116L114.008 68.4659C113.486 68.4659 113.262 68.0802 113.262 67.6173V61.8345H114.008V67.2316C114.008 67.6173 114.083 67.6945 114.307 67.6945H114.605L114.68 68.3116Z" fill="black"/>
<path fill-rule="evenodd" clip-rule="evenodd" d="M114.68 68.3116L114.008 68.4659C113.486 68.4659 113.262 68.0802 113.262 67.6173V61.8345H114.008V67.2316C114.008 67.6173 114.083 67.6945 114.307 67.6945H114.605L114.68 68.3116Z" fill="white"/>
<path fill-rule="evenodd" clip-rule="evenodd" d="M118.555 64.4575C118.257 64.0718 117.735 63.9175 117.213 63.9175H117.138C116.542 63.9175 116.094 64.0718 115.796 64.4575C115.348 64.9203 115.199 65.4603 115.199 66.1546C115.199 66.9261 115.348 67.5432 115.796 67.9289C116.094 68.3146 116.616 68.4689 117.138 68.4689C117.735 68.4689 118.182 68.2375 118.555 67.9289C118.928 67.4661 119.152 66.9261 119.152 66.1546C119.152 65.4603 118.928 64.9203 118.555 64.4575ZM115.945 66.1546C115.945 65.2289 116.392 64.5346 117.213 64.5346V64.4575C117.959 64.4575 118.332 65.2289 118.332 66.2318C118.332 67.1575 117.884 67.7746 117.138 67.7746C116.392 67.7746 115.945 67.1575 115.945 66.1546Z" fill="black"/>
<path fill-rule="evenodd" clip-rule="evenodd" d="M117.213 63.9175C117.735 63.9175 118.257 64.0718 118.555 64.4575C118.928 64.9203 119.152 65.4603 119.152 66.1546C119.152 66.9261 118.928 67.4661 118.555 67.9289C118.182 68.2375 117.735 68.4689 117.138 68.4689C116.616 68.4689 116.094 68.3146 115.796 67.9289C115.348 67.5432 115.199 66.9261 115.199 66.1546C115.199 65.4603 115.348 64.9203 115.796 64.4575C116.094 64.0718 116.542 63.9175 117.138 63.9175H117.213ZM117.213 64.5346C116.392 64.5346 115.945 65.2289 115.945 66.1546C115.945 67.1575 116.392 67.7746 117.138 67.7746C117.884 67.7746 118.332 67.1575 118.332 66.2318C118.332 65.2289 117.959 64.4575 117.213 64.4575V64.5346Z" fill="white"/>
<path fill-rule="evenodd" clip-rule="evenodd" d="M121.088 62.6059C121.088 62.2973 120.865 62.1431 120.566 62.1431V62.0659C120.279 62.0659 120.044 62.3088 120.044 62.6059C120.044 62.9031 120.279 63.1459 120.566 63.1459C120.865 63.1459 121.088 62.9145 121.088 62.6059ZM120.939 68.3116H121.014L120.939 68.4659V68.3116ZM120.939 68.3116V64.0716H120.193V68.3116H120.939Z" fill="black"/>
<path fill-rule="evenodd" clip-rule="evenodd" d="M120.566 62.1431C120.865 62.1431 121.088 62.2973 121.088 62.6059C121.088 62.9145 120.865 63.1459 120.566 63.1459C120.279 63.1459 120.044 62.9031 120.044 62.6059C120.044 62.3088 120.279 62.0659 120.566 62.0659V62.1431ZM121.014 68.3116H120.193V64.0716H120.939V68.4659L121.014 68.3116Z" fill="white"/>
<path d="M63.2717 43.3199C63.2717 60.8164 49.1077 75.0002 31.6358 75.0002C14.164 75.0002 0 60.8164 0 43.3199C0 25.8235 14.164 11.6396 31.6358 11.6396C49.1077 11.6396 63.2717 25.8235 63.2717 43.3199Z" fill="#23333B"/>
<path d="M63.6194 14.8939C62.7034 12.7832 60.2536 11.8135 58.1431 12.7307C56.0353 13.648 55.0669 16.1013 55.9829 18.2148C56.038 18.3391 56.096 18.4606 56.1622 18.5767L43.2783 30.8681L44.7571 32.4207L57.652 20.1183C58.7666 20.7924 60.1763 20.936 61.4592 20.378C63.567 19.4607 64.5353 17.0047 63.6194 14.8939Z" fill="#8F1EE0"/>
<path d="M39.6808 7.9954L43.3004 26.2985L45.4027 25.8814L41.7913 7.62243C43.3308 6.88202 44.2743 5.19675 43.9984 3.41755C43.6618 1.24327 41.6258 -0.248606 39.4546 0.0912108C37.2833 0.428265 35.7936 2.46716 36.1329 4.64144C36.4171 6.48142 37.9151 7.82687 39.6808 7.9954Z" fill="#8F1EE0"/>
<path d="M51.3397 46.1184C51.2183 46.135 51.0969 46.1599 50.9811 46.1903L43.5128 34.5619L43.9763 34.8769L45.0992 33.222L40.7485 30.2603L40.3043 29.5696L40.0118 29.7575L28.9902 22.2539C29.6854 19.9691 28.4826 17.5131 26.212 16.6925C23.8698 15.8444 21.2847 17.06 20.4377 19.4055C19.5908 21.7511 20.8047 24.3398 23.1469 25.1879C24.9071 25.8234 26.8052 25.2957 27.9998 24L39.2725 31.6748L40.4891 33.5673L29.5751 52.4976C28.7916 52.2434 27.9336 52.1854 27.0728 52.3843C24.5402 52.9673 22.9593 55.4951 23.5415 58.0313C24.1236 60.5675 26.6479 62.1506 29.1806 61.5676C31.7132 60.9847 33.294 58.4568 32.7119 55.9206C32.4912 54.9564 31.9863 54.1304 31.3104 53.5087L41.7085 35.4708L49.2595 47.229C48.6112 47.9556 48.2719 48.953 48.4181 49.9945C48.6802 51.8732 50.4155 53.1827 52.2915 52.9175C54.1675 52.6551 55.4753 50.9173 55.2104 49.0386C54.9455 47.16 53.2157 45.8532 51.3397 46.1184Z" fill="#8F1EE0"/>
<path d="M38.0199 35.5787L37.2281 33.7305L14.0757 43.6874C13.5929 42.8807 12.8673 42.2093 11.9431 41.8004C9.56498 40.7506 6.78957 41.828 5.74121 44.2095C4.69284 46.591 5.7688 49.3703 8.14693 50.4202C10.5251 51.47 13.3005 50.3925 14.3488 48.0111C14.6965 47.2237 14.8041 46.3949 14.7185 45.5992L38.0199 35.5787Z" fill="#8F1EE0"/>
<path fill-rule="evenodd" clip-rule="evenodd" d="M52.3027 33.406H45.6595C45.4514 33.406 45.2606 33.5624 45.2953 33.8057C45.33 34.5355 45.4861 35.2133 45.7983 35.8041C46.1279 36.4471 46.5615 36.9336 47.1165 37.2638C47.6716 37.594 48.2787 37.7504 48.9378 37.7504C49.3714 37.7504 49.7703 37.6982 50.1346 37.594C50.4988 37.4897 50.8457 37.3333 51.1926 37.1074C51.5222 36.8815 51.8344 36.6556 52.1119 36.4123C52.3024 36.2453 52.6156 35.9555 52.8549 35.7339C52.9642 35.6327 53.0581 35.5458 53.118 35.4913C53.2741 35.3523 53.4996 35.248 53.8118 35.248C53.8378 35.248 53.8638 35.2524 53.8898 35.2567C53.9158 35.261 53.9419 35.2654 53.9679 35.2654C54.228 35.3001 54.7137 35.4739 54.5576 36.2907C54.2974 37.5419 52.8231 38.8452 51.5049 39.3144C50.7764 39.5576 49.9438 39.6793 49.0072 39.6793C46.787 39.6793 45.1045 39.0537 43.9077 37.8199C42.6935 36.5687 42.0864 34.8831 42.0864 32.7283C42.0864 31.7204 42.2425 30.782 42.5374 29.9131C42.8323 29.0442 43.2659 28.3144 43.8383 27.7062C44.3933 27.0979 45.1045 26.6288 45.9371 26.2986C46.7696 25.9858 47.7063 25.812 48.7296 25.812C50.0652 25.812 51.21 26.0901 52.1466 26.6461C53.0833 27.2022 53.7944 27.9147 54.2627 28.8009C54.7484 29.7046 54.9739 30.5908 54.9739 31.5118C54.9739 32.3633 54.7484 32.8325 54.3321 33.0411C53.8811 33.267 53.2047 33.406 52.3027 33.406ZM46.336 28.8009C45.7636 29.4265 45.4167 30.3128 45.2779 31.4423C45.2432 31.6509 45.4687 31.8246 45.6769 31.8246H51.5916C51.7997 31.8246 52.0079 31.6509 51.9905 31.4597C51.8864 30.2954 51.5569 29.4092 50.9845 28.7836C50.3948 28.1406 49.5795 27.8278 48.6256 27.8278C47.7236 27.8278 46.9257 28.158 46.336 28.8009Z" fill="#8F1EE0"/>
<path d="M32.8066 32.7455C32.8066 38.5496 37.4898 43.2416 43.2831 43.2416C49.0591 43.2416 53.7596 38.5496 53.7596 32.7455C53.7596 26.9414 49.0764 22.2495 43.2831 22.2495C37.4898 22.2495 32.8066 26.9414 32.8066 32.7455Z" fill="#8F1EE0"/>
<path fill-rule="evenodd" clip-rule="evenodd" d="M42.5388 29.9124C42.8368 29.0504 43.2727 28.3155 43.841 27.705C44.4093 27.0944 45.1073 26.6247 45.946 26.296C46.7847 25.97 47.7144 25.8042 48.7655 25.8042C49.8139 25.8042 50.7547 25.9838 51.5713 26.3429C52.9314 28.1138 53.7425 30.3323 53.7425 32.7414C53.7425 32.9182 53.737 33.0895 53.7287 33.2636C53.3397 33.3603 52.8652 33.41 52.3052 33.41H45.5542C45.4439 33.41 45.2563 33.5592 45.2646 33.8078C45.2949 34.5538 45.4577 35.2251 45.7722 35.8385C46.0867 36.449 46.5281 36.9436 47.0799 37.2696C47.6317 37.5956 48.2414 37.7613 48.7876 37.7613C49.3339 37.7613 49.7339 37.7116 50.1008 37.6066C50.4678 37.5016 50.8209 37.3386 51.1575 37.1204C51.4941 36.9021 51.8003 36.67 52.0789 36.4269C52.287 36.2433 52.6398 35.9148 52.8613 35.7085C52.9365 35.6385 52.9965 35.5826 53.0307 35.5511C53.1659 35.4268 53.2818 35.3605 53.4225 35.3191C53.0445 36.8137 52.3493 38.1813 51.4085 39.3416C50.7078 39.5626 49.9077 39.6759 48.9973 39.6759C46.7874 39.6731 45.1045 39.0488 43.9017 37.8111C42.6988 36.5706 42.0919 34.8908 42.0891 32.7276C42.0891 31.7137 42.2408 30.7744 42.5388 29.9124ZM51.5989 31.827C51.8058 31.827 52.01 31.6584 51.9962 31.465C51.8941 30.3102 51.5685 29.4096 50.9864 28.7935C50.3905 28.1553 49.5849 27.8348 48.6469 27.8348C47.7089 27.8348 46.9254 28.1608 46.3405 28.7935C45.7556 29.4261 45.4135 30.313 45.2784 31.4402C45.2452 31.6529 45.4604 31.8242 45.6756 31.827H51.5989Z" fill="white"/>
</svg>
