<?xml version="1.0" encoding="UTF-8"?>
<svg height="100px" version="1.1" viewBox="0 0 109 100" width="109px" xmlns="http://www.w3.org/2000/svg">
    <title>header-logo2021-marianne 2</title>
    <g fill="none" fill-rule="evenodd" id="Prototype-DE" stroke="none" stroke-width="1">
        <g fill-rule="nonzero" id="HP_departement" transform="translate(-160.000000, -42.000000)">
            <g id="header-logo2021-marianne" transform="translate(160.000000, 42.000000)">
                <path d="M42.4477378,95.3894081 C42.7544411,95.3894081 43.0611444,95.7009346 42.938463,96.3862928 L41.2822652,96.7601246 C41.5276278,96.0124611 42.0183531,95.3894081 42.4477378,95.3894081 M43.306507,98.1308411 L42.9998037,98.1308411 C42.5704191,98.5669782 42.1410344,99.0031153 41.7116498,99.0031153 C41.2822652,99.0031153 41.0369025,98.6915888 41.0369025,98.1308411 C41.0369025,97.8816199 41.0369025,97.6323988 41.0982432,97.3831776 L43.7358916,96.5109034 C44.2879576,95.2647975 43.674551,94.7040498 42.938463,94.7040498 C42.2023751,94.7040498 40.2394739,96.8224299 40.2394739,98.6915888 C40.2394739,99.5015576 40.6688586,100 41.2209245,100 C41.7729905,100 42.6931004,99.2523364 43.306507,98.1308411 M42.8157817,94.2056075 L44.6560016,92.4610592 L44.6560016,92.211838 L43.674551,92.211838 L42.5090784,94.2056075 L42.8157817,94.2056075 Z M37.1111002,95.4517134 L37.9698695,95.4517134 L36.5590343,99.3146417 C36.4363529,99.5638629 36.5590343,99.8753894 36.8043969,99.9376947 C36.8657376,99.9376947 36.8657376,99.9376947 36.9270782,100 C38.0312101,99.8130841 39.0126607,99.1277259 39.503386,98.0685358 L39.1966827,98.0685358 C38.7672981,98.5669782 38.2152321,98.94081 37.6018255,99.0654206 L38.8899794,95.4517134 L40.1781333,95.4517134 L40.3621553,94.8909657 L39.0740014,94.8909657 L39.5647267,93.5202492 L39.0740014,93.5202492 L38.1538915,94.8909657 L37.1111002,95.0155763 C37.1111002,95.0155763 37.1111002,95.4517134 37.1111002,95.4517134 Z M35.884287,95.2647975 C36.0069683,94.8909657 35.7616057,94.7040498 35.5775837,94.7040498 C34.6574737,94.8286604 33.8600451,95.4517134 33.5533418,96.3862928 L33.7987045,96.3862928 C34.0440671,96.0124611 34.4121111,95.7009346 34.8414957,95.576324 L33.3693199,99.4392523 C33.3079792,99.6884735 33.4306605,99.9376947 33.6760232,100 L33.7373638,100 C34.4121111,100 35.2708804,99.2523364 35.6389243,98.317757 L35.3935617,98.317757 C35.148199,98.6915888 34.7801551,98.94081 34.3507704,99.1277259 L35.884287,95.2647975 Z M36.1909903,93.3333333 C36.5590343,93.271028 36.8043969,93.0218069 36.8043969,92.6479751 C36.8043969,92.3364486 36.4976936,92.0249221 36.1909903,92.0249221 C35.8229463,92.0249221 35.5775837,92.2741433 35.516243,92.6479751 C35.516243,93.0218069 35.8229463,93.3333333 36.1909903,93.3333333 L36.1909903,93.3333333 M27.725979,99.2523364 C27.6032977,99.5015576 27.6646383,99.8130841 27.910001,99.9376947 C27.9713416,100 28.094023,100 28.1553636,100 C28.4620669,100 28.5234076,99.9376947 28.6460889,99.6261682 L29.6888802,96.8847352 C30.1796055,96.3239875 30.7930121,95.8878505 31.4677593,95.7009346 C31.7744627,95.7009346 31.713122,95.9501558 31.5291,96.2616822 L29.9955835,99.3146417 C29.8729021,99.5015576 29.9342428,99.8130841 30.1182648,99.9376947 C30.1796055,100 30.3022868,100 30.3636274,100 C31.2837374,99.8753894 32.081166,99.1900312 32.3878693,98.317757 L32.1425066,98.317757 C31.897144,98.6915888 31.5291,98.94081 31.0997154,99.1277259 L32.4492099,96.3862928 C32.5718913,96.0747664 32.6945726,95.7632399 32.6945726,95.4517134 C32.7559132,95.0778816 32.4492099,94.7663551 32.081166,94.7040498 C32.0198253,94.7040498 32.0198253,94.7040498 31.9584846,94.7040498 C31.345078,94.7040498 30.6703307,95.4517134 29.8729021,96.3862928 L29.8729021,95.6386293 C29.8729021,95.1401869 29.6888802,94.7040498 29.2594955,94.7040498 C28.8914516,94.7663551 28.5847483,95.0155763 28.4007263,95.3271028 L28.4007263,95.3271028 C28.8914516,95.3271028 29.1368142,96.0747664 28.7687702,96.8847352 L27.725979,99.2523364 Z M27.725979,95.8878505 C27.910001,95.2647975 27.7873197,94.7040498 27.357935,94.7040498 C26.9285504,94.7040498 26.6218471,95.1401869 26.0697811,96.3862928 L26.0697811,95.6386293 C26.0697811,95.1401869 25.8857592,94.7040498 25.4563745,94.7040498 C25.0269899,94.7040498 24.4135833,95.5140187 24.0455393,96.3862928 L24.290902,96.3862928 C24.5362646,96.0124611 24.7816272,95.7632399 24.9656492,95.7632399 C25.1496712,95.7632399 25.3336932,96.1370717 24.9656492,96.9470405 L23.922858,99.2523364 C23.8001767,99.5015576 23.8615173,99.8130841 24.10688,99.9376947 C24.1682206,100 24.290902,100 24.3522426,100 C24.6589459,100 24.7202866,99.9376947 24.8429679,99.6261682 L25.8857592,96.8847352 C26.1311218,96.5109034 26.4378251,96.1993769 26.7445284,95.8878505 L27.725979,95.8878505 L27.725979,95.8878505 Z M21.8372755,95.3894081 C22.2053195,95.3894081 22.5120228,95.7009346 22.3893414,96.3862928 L20.7331436,96.7601246 C20.9785062,96.0124611 21.4692315,95.3894081 21.8372755,95.3894081 M22.7573854,98.1308411 L22.4506821,98.1308411 C22.0212975,98.5669782 21.5919128,99.0031153 21.1625282,99.0031153 C20.7331436,99.0031153 20.4877809,98.6915888 20.4877809,98.1308411 C20.4877809,97.8816199 20.4877809,97.6323988 20.5491216,97.3831776 L23.18677,96.5109034 C23.738836,95.2647975 23.1254294,94.7040498 22.3893414,94.7040498 C21.6532535,94.7040498 19.6903523,96.8224299 19.6903523,98.6915888 C19.6903523,99.5015576 20.0583963,100 20.6718029,100 C21.2852095,100 22.1439788,99.2523364 22.7573854,98.1308411 M16.5619786,95.4517134 L17.4207479,95.4517134 L16.0099127,99.3146417 C15.8872313,99.5638629 16.0099127,99.8753894 16.2552753,99.9376947 C16.316616,99.9376947 16.316616,99.9376947 16.3779566,100 C17.4820885,99.8753894 18.4635391,99.1277259 18.8929237,98.0685358 L18.6475611,98.0685358 C18.2181765,98.5669782 17.6661105,98.94081 17.0527039,99.0654206 L18.3408578,95.4517134 L19.6290117,95.4517134 L19.8130337,94.8909657 L18.5248798,94.8909657 L19.0156051,93.5202492 L18.5248798,93.5202492 L17.6047698,94.8909657 L16.5619786,95.0155763 C16.5619786,95.0155763 16.5619786,95.4517134 16.5619786,95.4517134 Z M11.7160663,98.4423676 C11.7160663,97.258567 13.0042202,95.6386293 13.7403082,95.6386293 L14.1696928,95.6386293 L13.4336049,97.694704 C13.0042202,98.2554517 12.329473,98.94081 12.0227697,98.94081 C11.7160663,98.94081 11.7160663,98.7538941 11.7160663,98.4423676 M15.7032093,94.3925234 L15.3351654,94.3925234 L14.9057807,94.8286604 L14.7830994,94.8286604 C12.5748356,94.8286604 10.7346158,97.3208723 10.7346158,99.1277259 C10.6732751,99.5638629 10.9799784,99.8753894 11.409363,99.9376947 C11.4707037,99.9376947 11.4707037,99.9376947 11.5320444,99.9376947 C12.0841103,99.9376947 12.6361763,99.1277259 13.2495829,98.2554517 L13.2495829,98.5046729 C13.1882422,99.4392523 13.4949455,99.9376947 13.9243302,99.9376947 C14.3537148,99.9376947 14.9671214,99.0654206 15.3351654,98.2554517 L15.0898027,98.2554517 C14.8444401,98.6292835 14.5990774,98.8161994 14.4150555,98.8161994 C14.2310335,98.8161994 14.0470115,98.4423676 14.4150555,97.694704 L15.7032093,94.3925234 Z M11.1026597,95.8255452 C11.2866817,95.2024922 11.1640004,94.6417445 10.6732751,94.6417445 C10.1825498,94.6417445 9.99852782,95.0778816 9.38512121,96.3239875 L9.38512121,95.576324 C9.38512121,95.0778816 9.26243989,94.6417445 8.77171459,94.6417445 C8.2809893,94.6417445 7.79026401,95.4517134 7.42222004,96.3239875 L7.66758269,96.3239875 C7.91294533,95.9501558 8.15830798,95.7009346 8.34232996,95.7009346 C8.52635195,95.7009346 8.71037393,96.0747664 8.34232996,96.8847352 L7.29953872,99.1900312 C7.11551673,99.6261682 7.29953872,99.9376947 7.72892335,99.9376947 C8.15830798,99.9376947 8.09696732,99.8753894 8.21964864,99.5638629 L9.20109922,96.8224299 C9.44646187,96.4485981 9.75316518,96.1370717 10.1212091,95.8255452 L11.1026597,95.8255452 Z M3.74178035,99.6884735 L3.86446167,99.4392523 C2.57630778,99.1900312 2.45362646,99.1900312 2.94435175,97.7570093 L3.43507704,96.3862928 L4.84591226,96.3862928 C5.45931887,96.3862928 5.52065953,96.635514 5.39797821,97.3208723 L5.76602218,97.3208723 L6.62479144,95.0155763 L6.25674747,95.0155763 C5.95004417,95.576324 5.70468152,95.9501558 4.96859358,95.9501558 L3.61909903,95.9501558 L4.35518697,93.894081 C4.53920895,93.271028 4.72323094,93.1464174 5.5820002,93.1464174 L6.19540681,93.1464174 C7.05417607,93.1464174 7.1768574,93.3956386 7.1768574,94.2679128 L7.54490136,94.2679128 L7.79026401,92.7102804 L2.51496712,92.7102804 L2.51496712,93.0218069 C3.55775837,93.2087227 3.61909903,93.3333333 3.12837374,94.6417445 L2.02424183,97.8193146 C1.53351654,99.1900312 1.34949455,99.2523364 0.122681323,99.5015576 L0.122681323,99.7507788 L3.74178035,99.6884735 Z M29.6275395,83.3021807 C29.9955835,83.3021807 30.3022868,83.5514019 30.1182648,84.2367601 L28.4620669,84.6105919 C28.7687702,83.8629283 29.2594955,83.3021807 29.6275395,83.3021807 M30.5476494,85.9813084 L30.1796055,85.9813084 C29.9342428,86.4797508 29.4435175,86.7912773 28.8914516,86.8535826 C28.4620669,86.8535826 28.2167043,86.6043614 28.2167043,85.9813084 C28.2167043,85.7320872 28.278045,85.482866 28.3393856,85.2336449 L30.9770341,84.3613707 C31.4677593,83.1152648 30.8543527,82.5545171 30.1182648,82.5545171 C29.3821769,82.5545171 27.4806164,84.6728972 27.4806164,86.5420561 C27.4806164,87.4143302 27.8486603,87.8504673 28.4620669,87.8504673 C29.0754735,87.8504673 29.9342428,87.165109 30.5476494,85.9813084 M29.9955835,82.0560748 L31.897144,80.3115265 L31.897144,80.1246106 L30.8543527,80.1246106 L29.6888802,82.0560748 L29.9955835,82.0560748 L29.9955835,82.0560748 Z M24.290902,83.3021807 L25.1496712,83.3021807 L23.8001767,87.165109 C23.6774953,87.5389408 23.8001767,87.8504673 24.1682206,87.8504673 C25.2723525,87.7258567 26.1924625,86.9781931 26.6831878,85.9813084 L26.4378251,85.9813084 C26.0084405,86.4174455 25.4563745,86.7912773 24.8429679,86.9781931 L26.0697811,83.3021807 L27.4192757,83.3021807 L27.541957,82.741433 L26.3151438,82.741433 L26.8058691,81.3707165 L26.2538031,81.3707165 L25.3950339,82.741433 L24.290902,82.9283489 L24.290902,83.3021807 Z M23.1254294,83.1152648 C23.18677,82.741433 23.0027481,82.5545171 22.8187261,82.5545171 C21.8372755,82.6791277 21.0398469,83.3021807 20.7331436,84.2367601 L20.9785062,84.2367601 C21.2238689,83.8006231 21.6532535,83.5514019 22.0826381,83.4267913 L20.6104623,87.2897196 C20.4877809,87.6635514 20.7331436,87.8504673 20.9171656,87.8504673 C21.8372755,87.7258567 22.5733634,87.0404984 22.8800667,86.1682243 L22.6347041,86.1682243 C22.3893414,86.6043614 21.9599568,86.8535826 21.5305722,86.9781931 L23.1254294,83.1152648 Z M23.370792,81.1838006 C23.6774953,81.2461059 23.922858,80.9968847 23.9841986,80.6853583 C23.9841986,80.623053 23.9841986,80.623053 23.9841986,80.5607477 C23.9841986,80.1869159 23.738836,79.9376947 23.370792,79.9376947 C23.0027481,79.9376947 22.7573854,80.1869159 22.7573854,80.5607477 C22.6960448,80.8722741 22.9414074,81.1214953 23.2481107,81.1838006 C23.3094514,81.1838006 23.3094514,81.1838006 23.370792,81.1838006 M18.2795171,86.9781931 L20.9785062,79.8753894 L20.8558249,79.8753894 L19.199627,80.0623053 L19.199627,80.2492212 L19.5063304,80.4984424 C19.8130337,80.7476636 19.751693,80.9345794 19.4449897,81.682243 L17.3594072,87.2274143 C17.2367259,87.4766355 17.3594072,87.788162 17.6047698,87.8504673 C17.6661105,87.8504673 17.6661105,87.8504673 17.7274512,87.9127726 C18.6475611,87.788162 19.4449897,87.165109 19.6903523,86.2305296 L19.4449897,86.2305296 C19.199627,86.6666667 18.7702424,86.9158879 18.2795171,87.0404984 M13.2495829,86.4174455 C13.2495829,85.1713396 14.5377368,83.5514019 15.2738247,83.5514019 L15.7032093,83.5514019 L14.9671214,85.6697819 C14.5377368,86.1682243 13.8629895,86.8535826 13.4949455,86.8535826 C13.1269016,86.8535826 13.2495829,86.6666667 13.2495829,86.3551402 M17.2367259,82.3676012 L16.8686819,82.3676012 L16.3779566,82.8037383 L16.316616,82.8037383 C14.1083521,82.8037383 12.2681323,85.2959502 12.2681323,87.1028037 C12.2067916,87.5389408 12.5134949,87.8504673 12.9428796,87.9127726 L13.0042202,87.9127726 C13.6176269,87.9127726 14.1696928,87.1028037 14.7830994,86.2305296 L14.7830994,86.5420561 C14.7217588,87.4143302 14.9671214,87.9127726 15.4578467,87.9127726 C15.948572,87.9127726 16.4392973,87.0404984 16.8686819,86.2305296 L16.6233193,86.2305296 C16.316616,86.6043614 16.0712533,86.8535826 15.8872313,86.8535826 C15.7032093,86.8535826 15.580528,86.4797508 15.8872313,85.6697819 L17.2367259,82.3676012 Z M7.54490136,88.7850467 C7.54490136,88.2866044 8.03562666,87.9750779 8.71037393,87.6635514 L9.75316518,88.0373832 C10.4892531,88.2866044 10.7346158,88.411215 10.7346158,88.6604361 C10.7346158,88.9096573 9.93718716,89.470405 8.89439592,89.470405 C7.85160467,89.470405 7.54490136,89.2834891 7.54490136,88.7850467 M9.50780253,85.6697819 C9.20109922,85.6697819 9.0784179,85.3582555 9.0784179,85.046729 C9.0784179,84.7352025 9.50780253,82.9283489 10.2438905,82.9283489 C10.9799784,82.9283489 10.6732751,83.1775701 10.6732751,83.4890966 C10.6732751,83.8006231 10.2438905,85.6697819 9.50780253,85.6697819 M11.593385,88.2866044 C11.593385,87.6635514 11.0413191,87.4766355 10.1212091,87.165109 C9.20109922,86.8535826 9.01707724,86.9158879 9.01707724,86.6666667 C9.01707724,86.3551402 9.20109922,86.105919 9.50780253,86.0436137 C10.6732751,85.9813084 11.5320444,85.046729 11.593385,83.8629283 C11.593385,83.6760125 11.5320444,83.4890966 11.4707037,83.3021807 L12.5134949,83.3021807 L12.6975169,82.741433 L11.0413191,82.741433 L10.3665718,82.5545171 C9.20109922,82.5545171 8.21964864,83.5514019 8.15830798,84.7352025 C8.09696732,85.3582555 8.52635195,85.8566978 9.13975856,85.9813084 C8.52635195,86.2928349 8.21964864,86.6043614 8.21964864,86.9781931 C8.21964864,87.165109 8.2809893,87.4143302 8.46501129,87.5389408 C7.05417607,87.9750779 6.44076946,88.411215 6.44076946,89.0965732 C6.44076946,89.7819315 7.29953872,90.0934579 8.34232996,90.0934579 C9.38512121,90.0934579 11.593385,89.0965732 11.593385,88.2866044 M4.90725292,84.1744548 C5.52065953,84.1744548 5.52065953,84.423676 5.45931887,85.1090343 L5.82736284,85.1090343 L6.62479144,82.8037383 L6.25674747,82.8037383 C5.95004417,83.3021807 5.70468152,83.7383178 5.02993424,83.7383178 L3.61909903,83.7383178 L4.35518697,81.8068536 C4.53920895,81.1214953 4.72323094,80.9968847 5.5820002,80.9968847 L6.19540681,80.9968847 C7.05417607,80.9968847 7.1768574,81.2461059 7.1768574,82.1806854 L7.54490136,82.1806854 L7.79026401,80.5607477 L2.51496712,80.5607477 L2.51496712,80.8722741 C3.55775837,81.05919 3.61909903,81.1838006 3.12837374,82.4922118 L2.02424183,85.6697819 C1.53351654,87.0404984 1.34949455,87.165109 0.122681323,87.3520249 L0.122681323,87.6635514 L5.8887035,87.6635514 L6.93149475,85.9813084 L6.50211012,85.9813084 C5.82736284,86.728972 4.84591226,87.165109 3.80312101,87.2274143 C2.26960448,87.2274143 2.3922858,87.165109 2.94435175,85.6697819 L3.49641771,84.1744548 L4.90725292,84.1744548 Z M5.64334086,80.0623053 L7.54490136,78.8161994 L7.54490136,78.5669782 L6.3794288,78.5669782 L5.33663755,80.0623053 L5.64334086,80.0623053 Z M29.0141329,71.152648 C29.3821769,71.152648 29.6888802,71.4018692 29.5048582,72.0872274 L27.8486603,72.5233645 C28.1553636,71.7133956 28.6460889,71.152648 29.0141329,71.152648 M29.9342428,73.8317757 L29.5661988,73.8317757 C29.2594955,74.3302181 28.8301109,74.6417445 28.278045,74.7040498 C27.8486603,74.7040498 27.6032977,74.4548287 27.6032977,73.8317757 C27.6032977,73.2087227 27.6646383,73.3333333 27.6646383,73.0841121 L30.3636274,72.211838 C30.8543527,70.9657321 30.2409461,70.4049844 29.5048582,70.4049844 C28.7687702,70.4049844 26.8058691,72.5856698 26.8058691,74.3925234 C26.8058691,76.1993769 27.2352537,75.7009346 27.8486603,75.7009346 C28.4620669,75.7009346 29.3208362,75.0155763 29.9342428,73.8317757 M29.3821769,69.9065421 L31.2223967,68.1619938 L31.2223967,67.9750779 L30.2409461,67.9750779 L29.0754735,69.9065421 C29.0754735,69.9065421 29.3821769,69.9065421 29.3821769,69.9065421 Z M23.922858,71.152648 L24.5976053,71.152648 L23.18677,75.0778816 C23.0640887,75.2647975 23.18677,75.576324 23.370792,75.6386293 C23.4321327,75.7009346 23.4934734,75.7009346 23.6161547,75.7009346 C24.7202866,75.5140187 25.6403965,74.8286604 26.1311218,73.8317757 L25.8857592,73.8317757 C25.4563745,74.3302181 24.8429679,74.6417445 24.2295613,74.8286604 L25.5177152,71.152648 L26.8672097,71.152648 L26.9898911,70.6542056 L25.7630778,70.6542056 L26.1924625,69.2211838 L25.7017372,69.2211838 L24.7816272,70.6542056 L23.922858,70.7788162 C23.922858,70.7788162 23.922858,71.152648 23.922858,71.152648 Z M23.2481107,71.588785 C23.4321327,70.9657321 23.3094514,70.4049844 22.8187261,70.4049844 C22.3280008,70.4049844 22.1439788,70.8411215 21.5305722,72.1495327 L21.5305722,71.4018692 C21.5305722,70.9034268 21.4078909,70.4049844 20.9171656,70.4049844 C20.4264403,70.4049844 19.8743743,71.2772586 19.5063304,72.0872274 L19.751693,72.0872274 C20.0583963,71.7133956 20.303759,71.5264798 20.4877809,71.5264798 C20.6718029,71.5264798 20.7944842,71.8380062 20.4877809,72.6479751 L19.4449897,75.0155763 C19.2609677,75.4517134 19.4449897,75.7009346 19.8743743,75.7009346 C20.119737,75.7632399 20.303759,75.576324 20.3650996,75.3894081 L21.3465502,72.6479751 L22.2053195,71.588785 L23.2481107,71.588785 Z M17.3594072,71.152648 C17.7274512,71.152648 18.0341545,71.4018692 17.8501325,72.0872274 L16.1939346,72.5233645 C16.5006379,71.7133956 16.9913632,71.152648 17.3594072,71.152648 M18.2795171,73.8317757 L17.9114732,73.8317757 C17.6661105,74.3302181 17.1753852,74.6417445 16.6233193,74.7040498 C16.1939346,74.7040498 15.948572,74.4548287 15.948572,73.8317757 C15.948572,73.5825545 16.0099127,73.3333333 16.0712533,73.0841121 L18.7089018,72.211838 C19.199627,70.9657321 18.5862204,70.4049844 17.8501325,70.4049844 C17.1140446,70.4049844 15.2124841,72.5856698 15.2124841,74.3925234 C15.2124841,76.1993769 15.580528,75.7009346 16.1939346,75.7009346 C16.8073413,75.7009346 17.6661105,75.0155763 18.2795171,73.8317757 M11.777407,74.953271 C11.5320444,74.953271 11.1640004,74.7040498 11.1640004,74.4548287 C11.1640004,74.2056075 11.2866817,74.0809969 11.409363,73.7071651 L11.8387477,72.5856698 C12.2681323,72.0249221 13.0042202,71.4018692 13.3722642,71.4018692 C13.7403082,71.4018692 13.8016488,71.588785 13.8016488,71.9626168 C13.8016488,72.3364486 12.8201983,74.953271 11.777407,74.953271 M14.7830994,71.5264798 C14.7830994,70.7165109 14.4763961,70.4049844 13.9856708,70.4049844 C13.4949455,70.4049844 12.6361763,71.152648 12.0227697,72.0249221 L13.6176269,67.788162 L13.6176269,67.6635514 L11.9000883,67.8504673 L11.9000883,68.0373832 L12.2681323,68.2866044 C12.5748356,68.5358255 12.4521543,68.7850467 12.2067916,69.470405 L10.4279125,73.9563863 C10.3052311,74.2679128 10.1825498,74.517134 10.1212091,74.8286604 C10.1212091,75.2647975 10.7346158,75.7009346 11.2866817,75.7009346 C11.8387477,75.7009346 14.7830994,73.3333333 14.7830994,71.5264798 M9.56914319,70.9657321 C9.69182452,70.7788162 9.63048386,70.529595 9.44646187,70.4672897 C9.38512121,70.4672897 9.32378055,70.4049844 9.26243989,70.4049844 C8.34232996,70.529595 7.54490136,71.2149533 7.23819806,72.0872274 L7.4835607,72.0872274 C7.72892335,71.7133956 8.09696732,71.4641745 8.52635195,71.2772586 L7.05417607,75.1401869 C6.99283541,75.3894081 7.11551673,75.6386293 7.36087938,75.7009346 L7.42222004,75.7009346 C8.34232996,75.576324 9.0784179,74.8909657 9.32378055,74.0186916 L9.0784179,74.0186916 C8.83305526,74.3925234 8.46501129,74.7040498 8.03562666,74.8286604 L9.56914319,70.9657321 Z M9.8758465,69.0342679 C10.2438905,69.0342679 10.4892531,68.7850467 10.4892531,68.411215 C10.4892531,68.0373832 10.2438905,67.788162 9.8758465,67.788162 C9.50780253,67.788162 9.26243989,68.0373832 9.26243989,68.411215 C9.26243989,68.7850467 9.50780253,69.0342679 9.8758465,69.0342679 M6.01138483,68.411215 L2.51496712,68.411215 L2.51496712,68.7227414 C3.49641771,68.9719626 3.61909903,69.0342679 3.12837374,70.4049844 L2.02424183,73.5825545 C1.53351654,74.8909657 1.34949455,75.0155763 0.122681323,75.2024922 L0.122681323,75.5140187 L5.27529689,75.5140187 L6.44076946,73.4579439 L6.01138483,73.4579439 C5.39797821,74.1433022 4.60054961,75.0778816 3.43507704,75.0778816 C2.26960448,75.0778816 2.45362646,74.953271 2.94435175,73.5825545 L4.04848366,70.4049844 C4.53920895,69.0342679 4.72323094,68.9719626 5.8887035,68.7227414 L6.01138483,68.411215 Z"
                      fill="#000000" id="Devise_Républicaine"></path>
                <path d="M0,39.376947 L0,26.5420561 L3.86446167,26.5420561 C5.02993424,26.4797508 6.19540681,26.7912773 7.1768574,27.5389408 C7.97428599,28.2242991 8.46501129,29.2834891 8.40367063,30.3426791 C8.40367063,31.0903427 8.21964864,31.7757009 7.85160467,32.3987539 C7.4835607,32.9595016 6.99283541,33.3956386 6.3794288,33.7071651 L10.3052311,39.376947 L7.23819806,39.376947 L3.86446167,34.2056075 L2.57630778,34.2056075 L2.57630778,39.376947 C2.57630778,39.376947 0,39.376947 0,39.376947 Z M3.987143,28.7227414 L2.57630778,28.7227414 L2.57630778,31.9626168 L3.987143,31.9626168 C4.47786829,32.0249221 4.90725292,31.8380062 5.27529689,31.5264798 C5.5820002,31.2149533 5.76602218,30.7788162 5.76602218,30.3426791 C5.76602218,29.9065421 5.5820002,29.470405 5.27529689,29.1588785 C4.90725292,28.847352 4.47786829,28.7227414 3.987143,28.7227414 Z"
                      fill="#000000" id="Shape"></path>
                <path d="M11.9000883,39.376947 L11.9000883,26.5420561 L19.3223084,26.5420561 L19.3223084,28.7227414 L14.4763961,28.7227414 L14.4763961,31.7133956 L18.5862204,31.7133956 L18.5862204,33.9563863 L14.4763961,33.9563863 L14.4763961,37.1339564 L19.3223084,37.1339564 L19.3223084,39.376947 C19.3223084,39.376947 11.9000883,39.376947 11.9000883,39.376947 Z M16.7460006,25.4205607 L14.4150555,25.4205607 L16.4392973,22.9283489 L19.1382864,22.9283489 L16.7460006,25.4205607 Z"
                      fill="#000000" id="Shape"></path>
                <path d="M22.2666601,39.376947 L22.2666601,26.5420561 L26.4991658,26.5420561 C27.6646383,26.4797508 28.8301109,26.8535826 29.7502208,27.5389408 C31.2837374,28.9719626 31.4064187,31.3395639 29.9955835,32.8971963 C29.9342428,32.9595016 29.8729021,33.0841121 29.7502208,33.1464174 C28.8301109,33.894081 27.6646383,34.2679128 26.4991658,34.2056075 L24.8429679,34.2056075 L24.8429679,39.376947 C24.8429679,39.376947 22.2666601,39.376947 22.2666601,39.376947 Z M26.5605064,28.7227414 L24.8429679,28.7227414 L24.8429679,31.9626168 L26.5605064,31.9626168 C27.0512317,32.0249221 27.4806164,31.8380062 27.8486603,31.5264798 C28.1553636,31.2149533 28.3393856,30.7788162 28.3393856,30.3426791 C28.3393856,29.9065421 28.1553636,29.470405 27.8486603,29.1588785 C27.4806164,28.847352 27.0512317,28.7227414 26.5605064,28.7227414 Z"
                      fill="#000000" id="Shape"></path>
                <path d="M40.5461772,34.5794393 L40.5461772,26.5420561 L43.122485,26.5420561 L43.122485,34.3302181 C43.1838257,35.8255452 42.6931004,37.1962617 41.7116498,38.317757 C39.5647267,40.2492212 36.3750123,40.2492212 34.2280891,38.317757 C33.3079792,37.1962617 32.8172539,35.7632399 32.8785946,34.3302181 L32.8785946,26.5420561 L35.4549023,26.5420561 L35.4549023,34.5794393 C35.3935617,35.3271028 35.6389243,36.0124611 36.1296496,36.5732087 C36.6203749,37.0716511 37.2951222,37.3831776 37.9698695,37.3208723 C38.7059574,37.3831776 39.3807047,37.0716511 39.87143,36.5732087 C40.3621553,36.0124611 40.6075179,35.3271028 40.5461772,34.5794393 Z"
                      fill="#000000" id="Path"></path>
                <path d="M46.3121994,39.376947 L46.3121994,26.5420561 L49.9312985,26.5420561 C51.0354304,26.4797508 52.1395623,26.7912773 52.9983315,27.4766355 C53.7957601,28.0996885 54.2251448,29.0342679 54.1638041,30.0311526 C54.1638041,30.529595 54.0411228,31.0280374 53.7957601,31.4641745 C53.5503975,31.9003115 53.2436942,32.2741433 52.8143095,32.5233645 C53.4277162,32.7725857 53.9797821,33.271028 54.3478261,33.8317757 C54.7158701,34.3302181 54.899892,34.953271 54.899892,35.576324 C54.9612327,36.6978193 54.4705074,37.694704 53.6117381,38.3800623 C52.6302876,39.1277259 51.4034743,39.4392523 50.1766611,39.376947 C50.1766611,39.376947 46.3121994,39.376947 46.3121994,39.376947 Z M49.9312985,28.7227414 L48.8885072,28.7227414 L48.8885072,31.588785 L49.9312985,31.588785 C50.3606831,31.588785 50.7900677,31.4641745 51.096771,31.2149533 C51.648837,30.6542056 51.648837,29.6573209 51.096771,29.0965732 L51.096771,29.0965732 C50.7900677,28.847352 50.3606831,28.7227414 49.9312985,28.7227414 Z M50.2993424,33.8317757 L48.8885072,33.8317757 L48.8885072,37.1339564 L50.2993424,37.1339564 C50.7900677,37.1962617 51.3421337,37.0093458 51.7101776,36.6978193 C52.0782216,36.3862928 52.2622436,35.9501558 52.2622436,35.4517134 C52.2622436,34.953271 52.0782216,34.517134 51.7101776,34.2056075 C51.280793,33.9563863 50.7900677,33.7694704 50.2993424,33.8317757 Z"
                      fill="#000000" id="Shape"></path>
                <path d="M57.4761998,39.376947 L57.4761998,26.5420561 L60.0525076,26.5420561 L60.0525076,37.0093458 L64.8984199,37.0093458 L64.8984199,39.376947 C64.8984199,39.376947 57.4761998,39.376947 57.4761998,39.376947 Z"
                      fill="#000000" id="Path"></path>
                <path d="M67.1680243,39.376947 L67.1680243,26.5420561 L69.7443321,26.5420561 L69.7443321,39.376947 C69.7443321,39.376947 67.1680243,39.376947 67.1680243,39.376947 Z"
                      fill="#000000" id="Path"></path>
                <path d="M83.9140249,39.0654206 C84.2820689,39.4392523 84.7727942,39.7507788 85.2635195,40 C85.6929041,40.1869159 86.1222887,40.3115265 86.5516734,40.3115265 L86.981058,40.3115265 L87.4717833,40.1869159 L87.4717833,42.4299065 L86.8583767,42.6168224 L86.1222887,42.6168224 C85.4475415,42.6168224 84.7114535,42.4299065 84.0980469,42.1806854 C83.361959,41.8691589 82.7485524,41.4330218 82.1351457,40.8722741 L80.6629699,39.5638629 L79.8042006,39.6884735 L78.8840907,39.6884735 C77.9639808,39.6884735 77.0438708,39.5015576 76.1851016,39.1277259 C75.387673,38.7538941 74.651585,38.317757 74.0381784,37.694704 C72.8727059,36.3862928 72.1979586,34.7040498 72.1979586,32.8971963 C72.1979586,31.0903427 72.8727059,29.4080997 74.0381784,28.0996885 C74.651585,27.4766355 75.387673,26.9781931 76.1851016,26.6666667 C77.0438708,26.2928349 77.9639808,26.105919 78.8840907,26.105919 C79.8042006,26.105919 80.7856512,26.2928349 81.6444205,26.6666667 C82.4418491,27.0404984 83.177937,27.4766355 83.7913436,28.0996885 C84.9568162,29.4080997 85.6315635,31.0903427 85.6315635,32.8971963 C85.6315635,33.9563863 85.3862008,34.953271 84.9568162,35.8878505 C84.5274315,36.8224299 83.9140249,37.6323988 83.1165963,38.2554517 L83.9140249,39.0654206 Z M78.8840907,37.3208723 C79.9882226,37.3208723 81.0310138,36.8224299 81.8284424,36.0747664 C82.1964864,35.6386293 82.4418491,35.2024922 82.6872117,34.7040498 C83.1165963,33.5825545 83.1165963,32.3364486 82.6872117,31.2149533 C82.5031897,30.7165109 82.1964864,30.2803738 81.8284424,29.8442368 C81.4603985,29.470405 81.0310138,29.1588785 80.5402885,28.9096573 C79.9882226,28.7227414 79.4361566,28.5981308 78.8840907,28.5981308 C78.3320247,28.5981308 77.7799588,28.7227414 77.2892335,28.9096573 C76.7985082,29.0965732 76.3691236,29.4080997 76.0010796,29.8442368 C75.6330356,30.2180685 75.3263323,30.7165109 75.1423103,31.2149533 C74.7129257,32.3364486 74.7129257,33.5825545 75.1423103,34.7040498 C75.3263323,35.2024922 75.6330356,35.7009346 76.0010796,36.0747664 C76.3691236,36.5109034 76.7985082,36.7601246 77.2892335,36.9470405 C77.7799588,37.1962617 78.3320247,37.3208723 78.8840907,37.3208723 Z"
                      fill="#000000" id="Shape"></path>
                <path d="M95.5687506,34.5794393 L95.5687506,26.5420561 L98.1450584,26.5420561 L98.1450584,34.3302181 C98.2063991,35.8255452 97.7156738,37.1962617 96.7342232,38.317757 C94.5873,40.2492212 91.3975856,40.2492212 89.2506625,38.317757 C88.2692119,37.1962617 87.7784866,35.8255452 87.8398273,34.3302181 L87.8398273,26.5420561 L90.416135,26.5420561 L90.416135,34.5794393 C90.3547944,35.3271028 90.6614977,36.0747664 91.152223,36.5732087 C91.6429483,37.0716511 92.3176956,37.3831776 92.9924428,37.3208723 C93.7285308,37.3831776 94.403278,37.0716511 94.8940033,36.5732087 C95.3847286,36.0124611 95.6300913,35.3271028 95.5687506,34.5794393 Z"
                      fill="#000000" id="Path"></path>
                <path d="M101.334773,39.376947 L101.334773,26.5420561 L108.695652,26.5420561 L108.695652,28.7227414 L103.911081,28.7227414 L103.911081,31.7133956 L107.959564,31.7133956 L107.959564,33.9563863 L103.911081,33.9563863 L103.911081,37.1339564 L108.695652,37.1339564 L108.695652,39.376947 C108.695652,39.376947 101.334773,39.376947 101.334773,39.376947 Z"
                      fill="#000000" id="Path"></path>
                <polygon fill="#000000" id="Path"
                         points="0 58.8161994 0 45.9813084 7.36087938 45.9813084 7.36087938 48.1619938 2.57630778 48.1619938 2.57630778 51.152648 6.6861321 51.152648 6.6861321 53.3956386 2.57630778 53.3956386 2.57630778 58.8161994 0 58.8161994"></polygon>
                <path d="M9.63048386,58.8161994 L9.63048386,45.9813084 L13.4949455,45.9813084 C14.6604181,45.9190031 15.8258907,46.2305296 16.8073413,46.9781931 C17.6047698,47.6635514 18.0954951,48.7227414 18.0341545,49.7819315 C18.0341545,50.529595 17.8501325,51.2149533 17.4820885,51.8380062 C17.1140446,52.3987539 16.6233193,52.834891 16.0099127,53.1464174 L19.9970556,58.8161994 L16.9300226,58.8161994 L13.5562862,53.6448598 L12.2067916,53.6448598 L12.2067916,58.8161994 L9.63048386,58.8161994 L9.63048386,58.8161994 Z M13.6789675,48.1619938 L12.2067916,48.1619938 L12.2067916,51.4018692 L13.6789675,51.4018692 C14.1083521,51.4641745 14.5990774,51.2772586 14.9057807,50.9657321 C15.2124841,50.6542056 15.396506,50.2180685 15.396506,49.7819315 C15.396506,49.3457944 15.2124841,48.9096573 14.9057807,48.5981308 C14.5377368,48.2866044 14.1083521,48.1619938 13.6789675,48.1619938 Z"
                      fill="#000000" id="Shape"></path>
                <path d="M20.5491216,58.8161994 L25.3336932,45.9813084 L28.7074296,45.9813084 L33.4920012,58.8161994 L30.7316714,58.8161994 L29.5048582,55.4517134 L24.4749239,55.4517134 L23.2481107,58.8161994 L20.5491216,58.8161994 Z M25.2723525,53.271028 L28.7074296,53.271028 L26.9898911,48.411215 L25.2723525,53.271028 Z"
                      fill="#000000" id="Shape"></path>
                <polygon fill="#000000" id="Path"
                         points="35.4549023 58.8161994 35.4549023 45.9813084 38.7059574 45.9813084 44.4106389 55.1401869 44.4106389 45.9813084 46.9869467 45.9813084 46.9869467 58.8161994 43.674551 58.8161994 37.9698695 49.5950156 37.9698695 58.8161994"></polygon>
                <path d="M56.1267053,56.7601246 C56.8014525,56.7601246 57.4761998,56.5732087 58.0896064,56.2616822 C58.6416724,55.9501558 59.071057,55.5140187 59.439101,55.0155763 L61.4633428,56.5732087 C60.9726175,57.258567 60.3592109,57.8193146 59.623123,58.2554517 C58.887035,58.6915888 58.0282658,59.0031153 57.1694965,59.1277259 L55.5746393,61.8068536 L53.3050348,61.8068536 L54.899892,59.0654206 C54.1024634,58.94081 53.3050348,58.6915888 52.6302876,58.2554517 C52.016881,57.8193146 51.4034743,57.3208723 50.912749,56.7601246 C50.4220238,56.1370717 50.0539798,55.4517134 49.8086171,54.7040498 C49.5632545,53.9563863 49.4405732,53.2087227 49.4405732,52.3987539 C49.4405732,50.5919003 50.1153204,48.9096573 51.280793,47.6012461 C51.8941996,46.9781931 52.6302876,46.4797508 53.4277162,46.1682243 C54.2864854,45.7943925 55.2065953,45.6074766 56.1267053,45.6074766 C57.2308372,45.6074766 58.2736284,45.8566978 59.255079,46.2928349 C60.1138483,46.728972 60.9112769,47.4143302 61.4633428,48.2242991 L59.439101,49.7819315 C59.071057,49.2834891 58.6416724,48.847352 58.0896064,48.5358255 C57.4761998,48.2242991 56.8014525,48.0373832 56.1267053,48.0373832 C55.5746393,48.0373832 55.0225734,48.1619938 54.5318481,48.3489097 C54.0411228,48.5981308 53.5503975,48.9096573 53.1823535,49.2834891 C52.8756502,49.7196262 52.5689469,50.1557632 52.3849249,50.6542056 C51.9555403,51.7757009 51.9555403,53.0218069 52.3849249,54.1433022 C52.5689469,54.6417445 52.8756502,55.0778816 53.1823535,55.5140187 C53.5503975,55.8878505 54.0411228,56.1993769 54.5318481,56.3862928 C55.0225734,56.635514 55.5746393,56.7601246 56.1267053,56.7601246 Z"
                      fill="#000000" id="Path"></path>
                <path d="M62.0154088,58.8161994 L66.7999804,45.9813084 L70.1737168,45.9813084 L74.9582884,58.8161994 L72.2592992,58.8161994 L71.032486,55.4517134 L66.0025518,55.4517134 L64.7757385,58.8161994 L62.0154088,58.8161994 Z M66.7999804,53.271028 L70.2350574,53.271028 L68.5175189,48.411215 L66.7999804,53.271028 Z"
                      fill="#000000" id="Shape"></path>
                <polygon fill="#000000" id="Path"
                         points="76.9211895 58.8161994 76.9211895 45.9813084 79.4974973 45.9813084 79.4974973 58.8161994"></polygon>
                <path d="M81.8897831,57.0716511 L83.7913436,55.3271028 C84.1593876,55.7632399 84.5887722,56.1370717 85.0794975,56.4485981 C85.5088821,56.7601246 86.0609481,56.8847352 86.613014,56.8847352 C87.0423987,56.8847352 87.4717833,56.7601246 87.7784866,56.5109034 C88.0851899,56.1993769 88.2078712,55.8255452 88.2078712,55.3894081 C88.2078712,54.8286604 87.8398273,54.2679128 87.2877613,54.0809969 L85.3248601,53.0841121 C84.5887722,52.7725857 83.9140249,52.2741433 83.3006183,51.7757009 C82.6872117,51.0903427 82.3805084,50.2180685 82.4418491,49.3457944 C82.4418491,48.847352 82.5031897,48.3489097 82.7485524,47.9127726 C82.9325743,47.4143302 83.177937,47.0404984 83.545981,46.6666667 C83.9140249,46.3551402 84.3434096,46.105919 84.8341349,45.9190031 C85.3248601,45.6697819 85.9382668,45.6074766 86.4903327,45.6074766 C87.349102,45.6074766 88.2078712,45.7943925 89.0052998,46.1682243 C89.7413878,46.6043614 90.3547944,47.1028037 90.9068603,47.788162 L89.0052998,49.470405 C88.6985965,49.0342679 88.2692119,48.5981308 87.8398273,48.2866044 C87.4104426,48.0373832 86.981058,47.8504673 86.4903327,47.8504673 C86.1222887,47.8504673 85.6929041,47.9750779 85.4475415,48.2866044 C85.1408382,48.5358255 85.0181568,48.847352 85.0181568,49.2211838 C85.0181568,49.7819315 85.3862008,50.3426791 85.9382668,50.529595 L87.9011679,51.5264798 C88.6372559,51.8380062 89.3120031,52.3364486 89.9254098,52.8971963 C90.5388164,53.5202492 90.9068603,54.3925234 90.8455197,55.3271028 C90.784179,55.8878505 90.6614977,56.4485981 90.4774757,56.9470405 C90.2321131,57.3831776 89.9254098,57.8193146 89.5573658,58.1931464 C89.1893218,58.5046729 88.7599372,58.7538941 88.2692119,58.94081 C87.7171459,59.1277259 87.16508,59.1900312 86.613014,59.1900312 C85.6929041,59.1900312 84.7727942,59.0031153 83.9140249,58.6292835 C83.1165963,58.2554517 82.4418491,57.694704 81.8897831,57.0716511 Z"
                      fill="#000000" id="Path"></path>
                <polygon fill="#000000" id="Path"
                         points="93.5445088 58.8161994 93.5445088 45.9813084 100.905388 45.9813084 100.905388 48.1619938 96.0594759 48.1619938 96.0594759 51.152648 100.1693 51.152648 100.1693 53.3956386 96.0594759 53.3956386 96.0594759 56.5732087 100.905388 56.5732087 100.905388 58.8161994 93.5445088 58.8161994"></polygon>
                <path d="M19.751693,15.576324 L20.303759,15.0155763 L20.303759,15.0155763 C20.6104623,14.6417445 21.0398469,14.2056075 21.4078909,13.894081 L21.7759348,13.5825545 C21.8372755,13.5202492 21.8372755,13.5202492 21.8372755,13.4579439 L21.4078909,13.7071651 C21.4078909,13.7071651 21.3465502,13.7071651 21.4078909,13.6448598 L21.7145942,13.3956386 L21.6532535,13.3956386 C21.2238689,13.3956386 20.8558249,13.5825545 20.6104623,13.894081 L20.4877809,13.894081 C19.9970556,14.0809969 19.6290117,14.517134 19.1382864,14.7040498 L19.1382864,14.7040498 L18.5248798,14.953271 C18.2795171,15.0155763 17.9728138,15.0155763 17.7274512,14.953271 L16.5006379,15.2024922 L16.5006379,15.2024922 L15.8872313,15.4517134 L15.8258907,15.4517134 C15.8258907,15.5140187 15.8258907,15.5140187 15.76455,15.5140187 L15.580528,15.7009346 C15.396506,15.8255452 15.2124841,15.9501558 15.0284621,16.1370717 L14.9671214,16.1370717 L14.4150555,16.6978193 L14.3537148,16.6978193 C14.4150555,16.6978193 14.4150555,16.635514 14.4763961,16.5732087 C14.4763961,16.5109034 14.4763961,16.5109034 14.5377368,16.4485981 C14.5990774,16.3862928 14.6604181,16.2616822 14.6604181,16.1993769 L14.6604181,16.1993769 L15.2124841,15.8255452 L15.2124841,15.8255452 C15.1511434,15.8255452 15.1511434,15.8255452 15.1511434,15.7632399 L15.0284621,15.7632399 C14.9671214,15.8878505 14.9057807,16.0124611 14.7830994,16.0124611 L14.7830994,16.0124611 C14.7830994,15.9501558 14.7830994,15.9501558 14.8444401,15.9501558 L14.8444401,15.9501558 L15.0898027,15.7632399 L15.0898027,15.7632399 L15.4578467,15.5140187 L15.5191874,15.5140187 L14.9671214,15.7632399 L14.9057807,15.7632399 C14.9057807,15.7632399 14.9057807,15.8255452 14.8444401,15.7632399 L14.8444401,15.7632399 L15.0284621,15.576324 L15.0898027,15.576324 C16.132594,14.7663551 17.6047698,14.953271 18.8315831,14.517134 L19.1382864,14.3302181 C19.2609677,14.2679128 19.383649,14.0809969 19.6290117,14.0186916 C19.8743743,13.8317757 20.0583963,13.5202492 20.1810776,13.2087227 L20.119737,13.2087227 C19.6903523,13.3956386 19.199627,13.5202492 18.7089018,13.5202492 C18.0341545,13.7694704 17.2367259,13.894081 16.5006379,13.894081 L16.6846599,13.894081 C16.6846599,13.8317757 16.7460006,13.7694704 16.8073413,13.7071651 L16.9300226,13.7071651 C16.9300226,13.6448598 16.9300226,13.6448598 16.9913632,13.6448598 L17.1140446,13.6448598 C16.9913632,13.5202492 16.8073413,13.7694704 16.6233193,13.6448598 C16.4392973,13.5202492 16.6846599,13.5202492 16.7460006,13.4579439 L16.8686819,13.4579439 C16.8686819,13.3956386 16.8686819,13.3956386 16.9300226,13.3333333 C17.4207479,13.0218069 17.9114732,12.834891 18.3408578,12.5233645 C18.7702424,12.211838 18.2181765,12.6479751 18.0954951,12.5856698 C17.9728138,12.5233645 18.0954951,12.4610592 18.1568358,12.4610592 C18.5248798,12.3364486 18.8929237,12.211838 19.199627,12.0249221 C19.0769457,12.0249221 18.9542644,12.1495327 18.8315831,12.0249221 L19.0156051,12.0249221 L19.0156051,11.9003115 C19.0156051,11.8380062 19.0156051,11.8380062 19.0769457,11.8380062 L19.0156051,11.8380062 L19.199627,11.7133956 L19.1382864,11.7133956 C19.2609677,11.588785 19.383649,11.5264798 19.567671,11.5264798 C19.5063304,11.4641745 19.383649,11.5264798 19.383649,11.4641745 C19.383649,11.4018692 19.4449897,11.4018692 19.5063304,11.4018692 L19.383649,11.4018692 C19.3223084,11.4018692 19.3223084,11.4018692 19.3223084,11.3395639 C19.3223084,11.2772586 19.3223084,11.2772586 19.383649,11.2772586 L19.383649,11.2772586 C19.5063304,11.0280374 19.6290117,10.7165109 19.6903523,10.4672897 L19.6290117,10.4672897 C19.2609677,10.7788162 18.7702424,11.0280374 18.2795171,11.152648 L18.0954951,11.152648 C17.9114732,11.2149533 17.7274512,11.2149533 17.5434292,11.0903427 L17.2367259,10.8411215 L16.3779566,10.4049844 C15.580528,10.0934579 14.7217588,9.84423676 13.8629895,9.78193146 C14.2310335,9.65732087 14.6604181,9.53271028 15.0284621,9.47040498 C15.580528,9.2211838 16.132594,9.1588785 16.6846599,9.1588785 C16.5619786,9.09657321 16.4392973,9.1588785 16.3779566,9.1588785 C15.8872313,9.1588785 15.396506,9.2211838 14.9671214,9.34579439 L13.9856708,9.59501558 C13.8016488,9.65732087 13.6789675,9.90654206 13.4949455,9.84423676 L13.4949455,9.71962617 C13.8016488,9.2834891 14.2310335,8.97196262 14.7217588,8.90965732 C15.2738247,8.84735202 15.8872313,8.84735202 16.4392973,8.97196262 L17.7274512,9.2211838 C17.8501325,9.2211838 17.9114732,9.47040498 18.0341545,9.53271028 C18.1568358,9.59501558 18.4021984,9.53271028 18.6475611,9.65732087 C18.8929237,9.78193146 18.5862204,9.53271028 18.6475611,9.47040498 C18.7089018,9.40809969 18.8929237,9.47040498 19.0769457,9.40809969 C19.2609677,9.34579439 18.8315831,8.97196262 18.7089018,8.72274143 L18.7089018,8.72274143 C18.9542644,8.97196262 19.199627,9.1588785 19.5063304,9.34579439 C19.6903523,9.47040498 20.0583963,9.53271028 19.9970556,9.34579439 C19.8130337,8.97196262 19.567671,8.66043614 19.2609677,8.34890966 L19.2609677,8.22429907 L19.1382864,8.22429907 L19.1382864,7.91277259 C19.0156051,7.85046729 19.0769457,7.7258567 18.9542644,7.6635514 C18.8315831,7.60124611 18.9542644,7.22741433 18.8929237,7.04049844 C18.8315831,6.85358255 18.7702424,6.66666667 18.7702424,6.47975078 C18.6475611,5.91900312 18.5248798,5.42056075 18.4635391,4.85981308 C18.4021984,4.23676012 18.8315831,3.73831776 19.1382864,3.17757009 C19.3223084,2.74143302 19.6290117,2.36760125 20.0583963,2.11838006 C20.1810776,1.74454829 20.3650996,1.37071651 20.6718029,1.05919003 C20.9171656,0.747663551 21.2852095,0.498442368 21.6532535,0.373831776 L22.5733634,0 L29.1368142,0 L29.2594955,0.124610592 L29.7502208,0.373831776 C29.9955835,0.498442368 30.1796055,0.685358255 30.3636274,0.872274143 C30.4249681,0.996884735 30.5476494,1.18380062 30.4863088,1.30841121 C30.4249681,1.43302181 30.3636274,1.74454829 30.2409461,1.80685358 C29.9955835,1.93146417 29.7502208,1.93146417 29.5048582,1.93146417 L29.1368142,1.80685358 C29.6275395,1.99376947 30.1182648,2.30529595 30.4249681,2.74143302 L30.7316714,2.86604361 L30.7316714,2.86604361 C30.6703307,2.92834891 30.6089901,2.99065421 30.6703307,3.0529595 L30.7316714,3.0529595 C30.9156934,2.99065421 30.8543527,2.67912773 31.0997154,2.80373832 C31.2837374,2.86604361 31.345078,3.0529595 31.2837374,3.17757009 C31.2837374,3.23987539 31.2223967,3.23987539 31.2223967,3.30218069 L30.8543527,3.61370717 C30.7930121,3.67601246 30.7930121,3.80062305 30.8543527,3.86292835 L31.0383747,4.23676012 L31.2223967,4.98442368 C31.4064187,5.48286604 31.4677593,5.98130841 31.4677593,6.47975078 C31.4677593,6.72897196 31.345078,6.97819315 31.4064187,7.22741433 C31.5291,7.47663551 31.6517813,7.7258567 31.7744627,7.97507788 C31.9584846,8.09968847 32.081166,8.28660436 32.1425066,8.47352025 C32.3265286,8.78504673 32.6945726,9.1588785 32.5718913,9.53271028 C32.4492099,9.90654206 32.081166,9.71962617 31.8358033,9.90654206 C31.5904407,10.0934579 31.8358033,10.3426791 31.9584846,10.4672897 C32.081166,10.5919003 31.713122,10.9657321 31.5291,11.0903427 C31.345078,11.2149533 31.713122,11.152648 31.713122,11.2149533 C31.713122,11.2772586 31.9584846,11.4641745 31.8358033,11.6510903 C31.713122,11.8380062 31.2837374,11.9626168 31.5291,12.2741433 C31.7744627,12.5856698 31.5291,12.7725857 31.4677593,12.9595016 C31.345078,13.2087227 31.161056,13.3956386 30.8543527,13.4579439 C30.6703307,13.5825545 30.4249681,13.5825545 30.2409461,13.5202492 L30.0569241,13.5202492 C29.5048582,13.3956386 28.9527922,13.3333333 28.4007263,13.271028 L27.910001,13.3956386 L27.541957,13.7694704 L27.357935,13.7694704 L27.1125724,14.1433022 L27.1125724,14.1433022 C27.1125724,14.2056075 27.1125724,14.2056075 27.0512317,14.2056075 L26.8058691,14.8286604 C26.6218471,15.576324 26.6831878,16.2616822 26.8672097,16.3862928 C27.0512317,16.5109034 27.9713416,16.7601246 28.6460889,17.1339564 L29.4435175,17.5077882 L15.948572,17.5077882 C16.6233193,17.0716511 17.3594072,16.6978193 18.0954951,16.3862928 C18.7089018,16.1370717 19.2609677,15.8255452 19.751693,15.3894081 M14.7217588,13.0218069 C14.6604181,13.0218069 14.5377368,13.0841121 14.5377368,13.0218069 C14.5377368,12.9595016 14.7830994,12.834891 14.9671214,12.7725857 C15.1511434,12.7102804 15.0898027,12.6479751 15.1511434,12.7102804 L15.396506,12.834891 C15.2124841,13.0218069 14.9671214,12.9595016 14.7217588,13.0218069 M9.69182452,12.2741433 L9.69182452,12.2741433 C10.0598685,11.7757009 10.4279125,11.2149533 10.7346158,10.5919003 C11.1026597,10.3426791 11.4707037,10.0934579 11.8387477,9.78193146 C12.329473,9.1588785 13.0042202,8.66043614 13.6789675,8.28660436 C13.9856708,8.22429907 14.2923741,8.22429907 14.5377368,8.34890966 C14.4150555,8.47352025 14.2310335,8.47352025 14.1083521,8.53582555 L14.0470115,8.53582555 L14.0470115,8.41121495 C13.7403082,8.78504673 13.2495829,8.97196262 13.0042202,9.40809969 C12.7588576,9.84423676 12.6975169,10.1557632 12.2681323,10.2180685 C11.8387477,10.2803738 12.2681323,10.1557632 12.2067916,10.1557632 C11.2866817,10.8411215 10.4279125,11.588785 9.69182452,12.4610592 M12.3908136,10.2803738 C12.3908136,10.3426791 12.329473,10.3426791 12.329473,10.4049844 C12.329473,10.4672897 12.2681323,10.529595 12.2067916,10.529595 L12.145451,10.529595 C12.145451,10.4049844 12.2681323,10.2180685 12.3908136,10.2803738 L12.3908136,10.2803738 M13.9243302,15.2024922 C13.9243302,15.2647975 13.8629895,15.2647975 13.8629895,15.3271028 C13.8629895,15.3894081 13.9243302,15.3271028 13.9243302,15.3894081 L13.6789675,15.5140187 C13.6176269,15.5140187 13.6176269,15.5140187 13.6176269,15.576324 L13.4949455,15.576324 C13.4336049,15.6386293 13.2495829,15.6386293 13.3109235,15.576324 L13.5562862,15.3271028 C13.6176269,15.2647975 13.6789675,15.2647975 13.6789675,15.2024922 L13.9243302,15.2024922 M13.3722642,14.953271 L13.3722642,14.953271 L12.9428796,15.2024922 L12.5134949,15.3894081 L12.4521543,15.3894081 L12.145451,15.6386293 L11.961429,15.6386293 C11.961429,15.7009346 11.961429,15.7009346 11.9000883,15.7009346 L11.8387477,15.7009346 C11.8387477,15.7632399 11.8387477,15.7632399 11.777407,15.7632399 L11.7160663,15.7632399 C11.6547257,15.8255452 11.593385,15.8255452 11.593385,15.8878505 L11.409363,16.0747664 L11.2253411,16.0747664 L11.3480224,15.9501558 L11.4707037,15.9501558 C11.4707037,15.8878505 11.5320444,15.8255452 11.593385,15.8255452 L11.593385,15.8255452 L11.593385,15.8255452 C11.593385,15.7632399 11.593385,15.7632399 11.6547257,15.7632399 L11.6547257,15.7632399 C11.7160663,15.7009346 11.7160663,15.7009346 11.7160663,15.6386293 L11.7160663,15.6386293 C11.777407,15.576324 11.8387477,15.5140187 11.8387477,15.4517134 L11.8387477,15.4517134 L11.7160663,15.576324 C11.6547257,15.576324 11.6547257,15.576324 11.6547257,15.5140187 C11.7160663,15.5140187 11.7160663,15.5140187 11.7160663,15.4517134 L11.777407,15.4517134 L11.9000883,15.2647975 L12.0227697,15.2647975 L12.0227697,15.1401869 L12.0227697,15.1401869 C12.3908136,14.8286604 12.8815389,14.8909657 13.3109235,14.6417445 C13.7403082,14.3925234 13.6789675,14.7040498 13.8016488,14.6417445 L14.1083521,14.6417445 L13.3109235,15.2024922 M13.9856708,12.8971963 C13.9243302,12.834891 14.0470115,12.8971963 14.1083521,12.7725857 L13.8629895,12.7725857 L13.3109235,12.9595016 L12.6361763,13.2087227 C12.329473,13.3956386 11.961429,13.5825545 11.593385,13.7694704 C11.5320444,13.7694704 11.5320444,13.7694704 11.5320444,13.7071651 L11.777407,13.5202492 L11.777407,13.5202492 C12.0227697,13.2087227 12.329473,12.8971963 12.6975169,12.6479751 L12.6975169,12.5233645 C12.8201983,12.3987539 12.9428796,12.2741433 13.0655609,12.1495327 C13.1269016,12.0249221 13.2495829,11.9003115 13.3722642,11.8380062 L13.2495829,11.8380062 C13.1269016,11.8380062 13.0042202,11.9003115 12.8815389,11.7757009 L13.0655609,11.6510903 L13.0042202,11.6510903 C12.9428796,11.5264798 13.0655609,11.4641745 13.1882422,11.4641745 L13.5562862,11.3395639 C13.3109235,11.2772586 13.0655609,11.4018692 12.8201983,11.2772586 C12.9428796,10.8411215 13.2495829,10.4672897 13.6789675,10.2803738 L13.7403082,10.2803738 C13.7403082,10.4672897 13.6789675,10.5919003 13.4949455,10.5919003 L14.2923741,10.8411215 C14.2923741,10.9034268 14.2923741,10.9034268 14.2310335,10.9034268 C14.1696928,10.9034268 14.1696928,10.9034268 14.1696928,10.8411215 C14.2923741,10.9657321 14.5377368,10.9034268 14.6604181,11.0280374 C14.7830994,11.152648 14.4763961,11.0280374 14.4150555,11.0280374 C15.396506,11.3395639 16.5006379,11.5264798 17.3594072,12.211838 C16.6233193,12.4610592 15.8872313,12.5233645 15.0898027,12.5233645 L14.7830994,12.5233645 C14.6604181,12.5233645 14.5377368,12.5233645 14.4763961,12.6479751 L14.0470115,12.6479751"
                      fill="#FFFFFF" id="Fond-2"></path>
                <path d="M19.751693,15.576324 L20.303759,15.0155763 L20.303759,15.0155763 C20.6104623,14.6417445 21.0398469,14.2056075 21.4078909,13.894081 L21.7759348,13.5825545 C21.8372755,13.5202492 21.8372755,13.5202492 21.8372755,13.4579439 L21.4078909,13.7071651 C21.4078909,13.7071651 21.3465502,13.7071651 21.4078909,13.6448598 L21.7145942,13.3956386 L21.6532535,13.3956386 C21.2238689,13.3956386 20.8558249,13.5825545 20.6104623,13.894081 L20.4877809,13.894081 C19.9970556,14.0809969 19.6290117,14.517134 19.1382864,14.7040498 L19.1382864,14.7040498 L18.5248798,14.953271 C18.2795171,15.0155763 17.9728138,15.0155763 17.7274512,14.953271 L16.5006379,15.2024922 L16.5006379,15.2024922 L15.8872313,15.4517134 L15.8258907,15.4517134 C15.8258907,15.5140187 15.8258907,15.5140187 15.76455,15.5140187 L15.580528,15.7009346 L15.0284621,16.1370717 C14.9671214,16.1370717 14.9671214,16.1370717 14.9671214,16.1993769 L14.4150555,16.6978193 L14.3537148,16.6978193 C14.4150555,16.6978193 14.4150555,16.635514 14.4763961,16.5732087 C14.4763961,16.5109034 14.4763961,16.5109034 14.5377368,16.4485981 C14.5990774,16.3862928 14.6604181,16.2616822 14.6604181,16.1993769 L14.6604181,16.1993769 L15.2124841,15.8255452 L15.2124841,15.8255452 C15.1511434,15.8255452 15.1511434,15.8255452 15.1511434,15.7632399 L15.0284621,15.7632399 C14.9671214,15.8878505 14.9057807,16.0124611 14.7830994,16.0124611 L14.7830994,16.0124611 C14.7830994,15.9501558 14.7830994,15.9501558 14.8444401,15.9501558 L14.8444401,15.9501558 L15.0898027,15.7632399 L15.0898027,15.7632399 L15.4578467,15.5140187 L15.5191874,15.5140187 L14.9671214,15.7632399 L14.9057807,15.7632399 C14.9057807,15.7632399 14.9057807,15.8255452 14.8444401,15.7632399 L14.8444401,15.7632399 L15.0284621,15.576324 L15.0898027,15.576324 C16.132594,14.7663551 17.6047698,14.953271 18.8315831,14.517134 L19.1382864,14.3302181 C19.2609677,14.2679128 19.383649,14.0809969 19.6290117,14.0186916 C19.8743743,13.8317757 20.0583963,13.5202492 20.1810776,13.2087227 L20.119737,13.2087227 C19.6903523,13.3956386 19.199627,13.5202492 18.7089018,13.5202492 C18.0341545,13.7694704 17.2367259,13.894081 16.5006379,13.894081 L16.6846599,13.894081 C16.6846599,13.8317757 16.7460006,13.7694704 16.8073413,13.7071651 L16.9300226,13.7071651 C16.9300226,13.6448598 16.9300226,13.6448598 16.9913632,13.6448598 L17.1140446,13.6448598 C16.9913632,13.5202492 16.8073413,13.7694704 16.6233193,13.6448598 C16.4392973,13.5202492 16.6846599,13.5202492 16.7460006,13.4579439 L16.8686819,13.4579439 C16.8686819,13.3956386 16.8686819,13.3956386 16.9300226,13.3333333 C17.4207479,13.0218069 17.9114732,12.834891 18.3408578,12.5233645 C18.7702424,12.211838 18.2181765,12.6479751 18.0954951,12.5856698 C17.9728138,12.5233645 18.0954951,12.4610592 18.1568358,12.4610592 C18.5248798,12.3364486 18.8929237,12.211838 19.199627,12.0249221 C19.0769457,12.0249221 18.9542644,12.1495327 18.8315831,12.0249221 L19.0156051,12.0249221 L19.0156051,11.9003115 C19.0156051,11.8380062 19.0156051,11.8380062 19.0769457,11.8380062 L19.0156051,11.8380062 L19.199627,11.7133956 L19.1382864,11.7133956 C19.2609677,11.588785 19.383649,11.5264798 19.567671,11.5264798 C19.5063304,11.4641745 19.383649,11.5264798 19.383649,11.4641745 C19.383649,11.4018692 19.4449897,11.4018692 19.5063304,11.4018692 L19.383649,11.4018692 C19.3223084,11.4018692 19.3223084,11.4018692 19.3223084,11.3395639 C19.3223084,11.2772586 19.3223084,11.2772586 19.383649,11.2772586 L19.383649,11.2772586 C19.5063304,11.0280374 19.6290117,10.7165109 19.6903523,10.4672897 L19.6290117,10.4672897 C19.2609677,10.7788162 18.7702424,11.0280374 18.2795171,11.152648 L18.0954951,11.152648 C17.9114732,11.2149533 17.7274512,11.2149533 17.5434292,11.0903427 L17.2367259,10.8411215 L16.3779566,10.4049844 C15.580528,10.0934579 14.7217588,9.84423676 13.8629895,9.78193146 C14.2310335,9.65732087 14.6604181,9.53271028 15.0284621,9.47040498 C15.580528,9.2211838 16.132594,9.1588785 16.6846599,9.1588785 C16.5619786,9.09657321 16.4392973,9.1588785 16.3779566,9.1588785 C15.8872313,9.1588785 15.396506,9.2211838 14.9671214,9.34579439 L13.9856708,9.59501558 C13.8016488,9.65732087 13.6789675,9.90654206 13.4949455,9.84423676 L13.4949455,9.71962617 C13.8016488,9.2834891 14.2310335,8.97196262 14.7217588,8.90965732 C15.2738247,8.84735202 15.8872313,8.84735202 16.4392973,8.97196262 L17.7274512,9.2211838 C17.8501325,9.2211838 17.9114732,9.47040498 18.0341545,9.53271028 C18.1568358,9.59501558 18.4021984,9.53271028 18.6475611,9.65732087 C18.8929237,9.78193146 18.5862204,9.53271028 18.6475611,9.47040498 C18.7089018,9.40809969 18.8929237,9.47040498 19.0769457,9.40809969 C19.2609677,9.34579439 18.8315831,8.97196262 18.7089018,8.72274143 L18.7089018,8.72274143 C19.0156051,8.90965732 19.199627,9.2211838 19.5063304,9.34579439 C19.8130337,9.47040498 20.0583963,9.53271028 19.9970556,9.34579439 C19.8130337,8.97196262 19.567671,8.66043614 19.2609677,8.34890966 L19.2609677,8.22429907 L19.1382864,8.22429907 L19.1382864,7.91277259 C19.0156051,7.85046729 19.0769457,7.7258567 19.0156051,7.6635514 C18.9542644,7.60124611 18.9542644,7.22741433 18.8929237,7.04049844 C18.8315831,6.85358255 18.7702424,6.66666667 18.7702424,6.47975078 C18.6475611,5.91900312 18.5248798,5.42056075 18.4635391,4.85981308 C18.4021984,4.23676012 18.8315831,3.73831776 19.1382864,3.17757009 C19.3223084,2.74143302 19.6290117,2.36760125 20.0583963,2.11838006 C20.1810776,1.74454829 20.3650996,1.37071651 20.6718029,1.05919003 C20.9171656,0.747663551 21.2852095,0.498442368 21.6532535,0.373831776 L22.5733634,0 L0,0 L0,17.694704 L15.948572,17.694704 C16.6233193,17.258567 17.3594072,16.8847352 18.0954951,16.5732087 C18.7089018,16.3239875 19.2609677,16.0124611 19.751693,15.576324 M14.7217588,13.2087227 C14.6604181,13.2087227 14.5377368,13.271028 14.5377368,13.2087227 C14.5377368,13.1464174 14.7830994,13.0218069 14.9671214,12.9595016 C15.1511434,12.8971963 15.0898027,12.834891 15.1511434,12.8971963 L15.396506,13.0218069 C15.2124841,13.2087227 14.9671214,13.1464174 14.7217588,13.2087227 M9.69182452,12.4610592 L9.69182452,12.4610592 C10.0598685,11.9626168 10.4279125,11.4018692 10.7346158,10.7788162 C11.1640004,10.529595 11.5320444,10.1557632 11.8387477,9.78193146 C12.329473,9.1588785 13.0042202,8.66043614 13.6789675,8.28660436 C13.9856708,8.22429907 14.2923741,8.22429907 14.5377368,8.34890966 C14.4150555,8.47352025 14.2310335,8.47352025 14.1083521,8.53582555 L14.0470115,8.53582555 L14.0470115,8.41121495 C13.7403082,8.78504673 13.2495829,8.97196262 13.0042202,9.40809969 C12.7588576,9.84423676 12.6975169,10.1557632 12.2681323,10.2180685 C11.8387477,10.2803738 12.2681323,10.1557632 12.2067916,10.1557632 C11.2866817,10.8411215 10.4279125,11.588785 9.69182452,12.4610592 M12.3908136,10.2803738 C12.3908136,10.3426791 12.329473,10.3426791 12.329473,10.4049844 C12.329473,10.4672897 12.2681323,10.529595 12.2067916,10.529595 L12.145451,10.529595 C12.145451,10.4049844 12.2681323,10.2180685 12.3908136,10.2803738 L12.3908136,10.2803738 M13.9243302,15.2024922 C13.9243302,15.2647975 13.8629895,15.2647975 13.8629895,15.3271028 C13.8629895,15.3894081 13.9243302,15.3271028 13.9243302,15.3894081 L13.6789675,15.5140187 L13.4949455,15.5140187 C13.4336049,15.576324 13.2495829,15.576324 13.3109235,15.5140187 L13.5562862,15.2647975 C13.6176269,15.2024922 13.6789675,15.2024922 13.6789675,15.1401869 C13.7403082,15.1401869 13.7403082,15.1401869 13.7403082,15.0778816 L13.9243302,15.0778816 M13.3722642,14.8286604 L13.3722642,14.8286604 L12.9428796,15.0778816 L12.5134949,15.2647975 L12.4521543,15.2647975 L12.145451,15.5140187 L11.961429,15.5140187 C11.961429,15.576324 11.961429,15.576324 11.9000883,15.576324 L11.8387477,15.576324 C11.8387477,15.6386293 11.8387477,15.6386293 11.777407,15.6386293 L11.7160663,15.6386293 C11.6547257,15.7009346 11.593385,15.7009346 11.593385,15.7632399 L11.409363,15.9501558 L11.2253411,15.9501558 L11.3480224,15.8255452 L11.4707037,15.8255452 C11.4707037,15.7632399 11.5320444,15.7009346 11.593385,15.7009346 L11.593385,15.7009346 L11.593385,15.7009346 C11.593385,15.6386293 11.593385,15.6386293 11.6547257,15.6386293 L11.6547257,15.6386293 C11.7160663,15.576324 11.7160663,15.576324 11.7160663,15.5140187 L11.7160663,15.5140187 C11.777407,15.4517134 11.8387477,15.3894081 11.8387477,15.3271028 L11.8387477,15.3271028 L11.7160663,15.4517134 C11.6547257,15.4517134 11.6547257,15.4517134 11.6547257,15.3894081 C11.7160663,15.3894081 11.7160663,15.3894081 11.7160663,15.3271028 L11.777407,15.3271028 L11.9000883,15.1401869 L12.0227697,15.1401869 L12.0227697,15.0155763 L12.0227697,15.0155763 C12.3908136,14.7040498 12.8815389,14.7663551 13.3109235,14.517134 C13.7403082,14.2679128 13.6789675,14.5794393 13.8016488,14.517134 L14.1083521,14.517134 L13.3109235,15.0778816 M13.9856708,12.7725857 C13.9243302,12.7102804 14.0470115,12.7725857 14.1083521,12.6479751 L13.8629895,12.6479751 L13.3109235,12.834891 L12.6361763,13.0841121 C12.329473,13.271028 11.961429,13.4579439 11.593385,13.6448598 C11.5320444,13.6448598 11.5320444,13.6448598 11.5320444,13.5825545 L11.777407,13.3956386 L11.777407,13.3956386 C12.0227697,13.0841121 12.329473,12.7725857 12.6975169,12.5233645 L12.6975169,12.3987539 C12.8201983,12.2741433 12.9428796,12.1495327 13.0655609,12.0249221 C13.1269016,11.9003115 13.2495829,11.7757009 13.3722642,11.7133956 L13.2495829,11.7133956 C13.1269016,11.7133956 13.0042202,11.7757009 12.8815389,11.6510903 L13.0655609,11.5264798 L13.0042202,11.5264798 C12.9428796,11.4018692 13.0655609,11.3395639 13.1882422,11.3395639 L13.5562862,11.2149533 C13.3109235,11.152648 13.0655609,11.2772586 12.8201983,11.152648 C12.9428796,10.7165109 13.2495829,10.3426791 13.6789675,10.1557632 L13.7403082,10.1557632 C13.7403082,10.3426791 13.6789675,10.4672897 13.4949455,10.4672897 L14.2923741,10.7165109 C14.2923741,10.7788162 14.2923741,10.7788162 14.2310335,10.7788162 C14.1696928,10.7788162 14.1696928,10.7788162 14.1696928,10.7165109 C14.2923741,10.8411215 14.5377368,10.7788162 14.6604181,10.9034268 C14.7830994,11.0280374 14.4763961,10.9034268 14.4150555,10.9034268 C15.396506,11.2149533 16.5006379,11.4018692 17.3594072,12.0872274 C16.6233193,12.3364486 15.8872313,12.5233645 15.0898027,12.5233645 L14.7830994,12.5233645 C14.6604181,12.5233645 14.5377368,12.5233645 14.4763961,12.6479751 L14.0470115,12.6479751"
                      fill="#000091" id="Rouge"></path>
                <path d="M47.7843753,0 L29.1368142,0 L29.2594955,0.124610592 L29.7502208,0.373831776 C29.9955835,0.498442368 30.1796055,0.685358255 30.3636274,0.872274143 C30.4249681,0.996884735 30.5476494,1.18380062 30.4863088,1.30841121 C30.4249681,1.43302181 30.3636274,1.74454829 30.2409461,1.80685358 C29.9955835,1.93146417 29.7502208,1.93146417 29.5048582,1.93146417 L29.1368142,1.80685358 C29.6275395,1.99376947 30.1182648,2.30529595 30.4249681,2.74143302 L30.7316714,2.86604361 L30.7316714,2.86604361 C30.6703307,2.92834891 30.6089901,2.99065421 30.6703307,3.0529595 L30.7316714,3.0529595 C30.9156934,2.99065421 30.8543527,2.67912773 31.0997154,2.80373832 C31.2837374,2.86604361 31.345078,3.0529595 31.2837374,3.17757009 C31.2837374,3.23987539 31.2223967,3.23987539 31.2223967,3.30218069 L30.8543527,3.61370717 C30.7930121,3.67601246 30.7930121,3.80062305 30.8543527,3.86292835 L31.0383747,4.23676012 L31.2223967,4.98442368 C31.4064187,5.48286604 31.4677593,5.98130841 31.4677593,6.47975078 C31.4677593,6.72897196 31.345078,6.97819315 31.4677593,7.22741433 C31.5291,7.47663551 31.6517813,7.7258567 31.7744627,7.97507788 C31.9584846,8.09968847 32.081166,8.28660436 32.1425066,8.47352025 C32.3878693,8.78504673 32.6945726,9.1588785 32.5718913,9.53271028 C32.4492099,9.90654206 32.081166,9.71962617 31.8358033,9.90654206 C31.5904407,10.0934579 31.8358033,10.3426791 31.9584846,10.4672897 C32.081166,10.5919003 31.713122,10.9657321 31.5291,11.0903427 C31.345078,11.2149533 31.713122,11.152648 31.713122,11.2149533 C31.713122,11.2772586 31.9584846,11.4641745 31.8358033,11.6510903 C31.713122,11.8380062 31.2837374,11.9626168 31.5291,12.2741433 C31.7744627,12.5856698 31.5291,12.7725857 31.4677593,12.9595016 C31.345078,13.2087227 31.161056,13.3956386 30.8543527,13.4579439 C30.6703307,13.5825545 30.4249681,13.5825545 30.2409461,13.5202492 L30.0569241,13.5202492 C29.5048582,13.3956386 28.9527922,13.3333333 28.4007263,13.271028 L27.910001,13.3956386 L27.541957,13.7694704 L27.357935,13.7694704 L27.1125724,14.1433022 L27.1125724,14.1433022 C27.1125724,14.2056075 27.1125724,14.2056075 27.0512317,14.2056075 L26.8058691,14.8286604 C26.6218471,15.576324 26.6831878,16.2616822 26.8672097,16.3862928 C27.0512317,16.5109034 27.9713416,16.7601246 28.6460889,17.1339564 L29.4435175,17.5077882 L47.7843753,17.5077882 L47.7843753,0 Z"
                      fill="#E1000F" id="Bleu"></path>
                <path d="M30.2409461,6.47975078 L30.5476494,6.47975078 C30.4863088,6.79127726 30.1182648,6.85358255 29.8729021,7.10280374 L29.8115615,7.10280374 C29.6888802,7.16510903 29.7502208,7.35202492 29.6275395,7.35202492 C29.5048582,7.35202492 29.4435175,7.35202492 29.3208362,7.35202492 C29.4435175,7.53894081 29.6275395,7.60124611 29.8115615,7.60124611 L29.9342428,7.7258567 L30.0569241,7.7258567 L30.0569241,7.91277259 C29.9342428,8.03738318 29.8115615,7.97507788 29.6888802,8.03738318 L30.4249681,8.03738318 C30.6089901,7.91277259 30.4249681,7.60124611 30.5476494,7.41433022 C30.6703307,7.22741433 30.5476494,7.35202492 30.4863088,7.35202492 C30.4249681,7.35202492 30.6089901,7.16510903 30.6703307,7.16510903 C30.7316714,7.16510903 30.8543527,7.10280374 30.8543527,7.04049844 C30.8543527,6.97819315 30.7316714,6.91588785 30.7930121,6.85358255 C30.8543527,6.79127726 31.161056,6.54205607 31.0997154,6.35514019 C31.0383747,6.1682243 30.7930121,6.2305296 30.6089901,6.1682243 C30.4249681,6.105919 30.2409461,6.1682243 30.0569241,6.2305296 L29.5661988,6.35514019 L28.9527922,6.66666667 C29.1981549,6.54205607 29.4435175,6.47975078 29.6888802,6.47975078 C29.8729021,6.41744548 30.0569241,6.41744548 30.2409461,6.47975078"
                      fill="#9C9B9B" id="Yeux"></path>
            </g>
        </g>
    </g>
</svg>
