<?xml version="1.0" encoding="UTF-8"?>
<svg height="152px" version="1.1" viewBox="0 0 187 152" width="187px" xmlns="http://www.w3.org/2000/svg">
    <title>Group 2</title>
    <g fill="none" fill-rule="evenodd" id="Prototype-DE" stroke="none" stroke-width="1">
        <g fill-rule="nonzero" id="Pre-requis" transform="translate(-635.000000, -143.000000)">
            <g id="Group-2" transform="translate(635.000000, 143.000000)">
                <g id="undraw_Done_checking_re_6vyx" transform="translate(59.881130, 0.000000)">
                    <path d="M37.2645161,95.826087 L4.59055633,95.826087 C2.05644467,95.8232295 0.00285276092,93.766282 0,91.2280296 L0,42.0473327 C0.00285127598,39.5090797 2.05644405,37.4521313 4.59055633,37.4492754 L37.2645161,37.4492754 C39.7986284,37.4521313 41.8522212,39.5090797 41.8550725,42.0473327 L41.8550725,91.2280296 C41.8522197,93.766282 39.7986278,95.8232295 37.2645161,95.826087 Z M4.59055633,37.9902233 C2.35458071,37.9927572 0.542595259,39.8077035 0.540065451,42.0473327 L0.540065451,91.2280296 C0.542595259,93.4676588 2.35458071,95.2826051 4.59055633,95.285139 L37.2645161,95.285139 C39.5004918,95.2826051 41.3124772,93.4676588 41.315007,91.2280296 L41.315007,42.0473327 C41.3124772,39.8077035 39.5004918,37.9927572 37.2645161,37.9902233 L4.59055633,37.9902233 Z"
                          fill="#3F3D56" id="Shape"></path>
                    <path d="M31.8275219,60.5797101 L8.92610131,60.5797101 C7.64682584,60.5782923 6.61012454,59.5495936 6.60869565,58.2801932 L6.60869565,47.4589372 C6.61012454,46.1895368 7.64682584,45.1608381 8.92610131,45.1594203 L31.8275219,45.1594203 C33.1067787,45.1608828 34.1434537,46.1895554 34.1449275,47.4589372 L34.1449275,58.2801932 C34.1434537,59.5495751 33.1067787,60.5782477 31.8275219,60.5797101 Z"
                          fill="#6C63FF" id="Path"></path>
                    <path d="M29.8392622,70.4927536 L10.914361,70.4927536 C9.75303497,70.4927536 8.8115942,69.5064823 8.8115942,68.2898551 C8.8115942,67.0732278 9.75303497,66.0869565 10.914361,66.0869565 L29.8392622,66.0869565 C31.0005882,66.0869565 31.942029,67.0732278 31.942029,68.2898551 C31.942029,69.5064823 31.0005882,70.4927536 29.8392622,70.4927536 Z"
                          fill="#EBEDF8" id="Path"></path>
                    <path d="M29.8392622,79.3043478 L10.914361,79.3043478 C9.75303497,79.3043478 8.8115942,78.3180766 8.8115942,77.1014493 C8.8115942,75.884822 9.75303497,74.8985507 10.914361,74.8985507 L29.8392622,74.8985507 C31.0005882,74.8985507 31.942029,75.884822 31.942029,77.1014493 C31.942029,78.3180766 31.0005882,79.3043478 29.8392622,79.3043478 Z"
                          fill="#EBEDF8" id="Path"></path>
                    <path d="M29.8392622,87.0144928 L10.914361,87.0144928 C9.75303497,87.0144928 8.8115942,86.0282215 8.8115942,84.8115942 C8.8115942,83.5949669 9.75303497,82.6086957 10.914361,82.6086957 L29.8392622,82.6086957 C31.0005882,82.6086957 31.942029,83.5949669 31.942029,84.8115942 C31.942029,86.0282215 31.0005882,87.0144928 29.8392622,87.0144928 Z"
                          fill="#EBEDF8" id="Path"></path>
                    <path d="M116.568864,123.362319 L83.8949042,123.362319 C81.3607925,123.359461 79.3072006,121.302514 79.3043478,118.764261 L79.3043478,69.5835646 C79.3071991,67.0453115 81.3607919,64.9883632 83.8949042,64.9855072 L116.568864,64.9855072 C119.102976,64.9883632 121.156569,67.0453115 121.15942,69.5835646 L121.15942,118.764261 C121.156568,121.302514 119.102976,123.359461 116.568864,123.362319 Z M83.8949042,65.5264552 C81.6589285,65.5289891 79.8469431,67.3439354 79.8444133,69.5835646 L79.8444133,118.764261 C79.8469431,121.003891 81.6589285,122.818837 83.8949042,122.821371 L116.568864,122.821371 C118.80484,122.818837 120.616825,121.003891 120.619355,118.764261 L120.619355,69.5835646 C120.616825,67.3439354 118.80484,65.5289891 116.568864,65.5264552 L83.8949042,65.5264552 Z"
                          fill="#3F3D56" id="Shape"></path>
                    <path d="M109.14361,77.1014493 L90.2187088,77.1014493 C89.0573828,77.1014493 88.115942,76.115178 88.115942,74.8985507 C88.115942,73.6819234 89.0573828,72.6956522 90.2187088,72.6956522 L109.14361,72.6956522 C110.304936,72.6956522 111.246377,73.6819234 111.246377,74.8985507 C111.246377,76.115178 110.304936,77.1014493 109.14361,77.1014493 Z"
                          fill="#9C91F0" id="Path"></path>
                    <path d="M109.14361,85.9130435 L90.2187088,85.9130435 C89.0573828,85.9130435 88.115942,84.9267722 88.115942,83.7101449 C88.115942,82.4935177 89.0573828,81.5072464 90.2187088,81.5072464 L109.14361,81.5072464 C110.304936,81.5072464 111.246377,82.4935177 111.246377,83.7101449 C111.246377,84.9267722 110.304936,85.9130435 109.14361,85.9130435 Z"
                          fill="#EBEDF8" id="Path"></path>
                    <path d="M111.13187,105.73913 L88.2304491,105.73913 C86.9512122,105.73762 85.9145653,104.708976 85.9130435,103.439614 L85.9130435,92.6183575 C85.9145668,91.348996 86.9512128,90.3203522 88.2304491,90.3188406 L111.13187,90.3188406 C112.411107,90.3203507 113.447754,91.3489954 113.449275,92.6183575 L113.449275,103.439614 C113.447755,104.708976 112.411107,105.737622 111.13187,105.73913 L111.13187,105.73913 Z"
                          fill="#EBEDF8" id="Path"></path>
                    <path d="M109.14361,115.652174 L90.2187088,115.652174 C89.0573828,115.652174 88.115942,114.665903 88.115942,113.449275 C88.115942,112.232648 89.0573828,111.246377 90.2187088,111.246377 L109.14361,111.246377 C110.304936,111.246377 111.246377,112.232648 111.246377,113.449275 C111.246377,114.665903 110.304936,115.652174 109.14361,115.652174 Z"
                          fill="#9C91F0" id="Path"></path>
                    <path d="M96.742777,45.1594203 L64.0688172,45.1594203 C61.5347055,45.1565673 59.4811136,43.1028276 59.4782609,40.5685336 L59.4782609,10.098133 C59.4811121,7.5638384 61.5347049,5.51009786 64.0688172,5.50724638 L96.742777,5.50724638 C99.2768893,5.51009786 101.330482,7.5638384 101.333333,10.098133 L101.333333,40.5685336 C101.330481,43.1028276 99.2768887,45.1565673 96.742777,45.1594203 L96.742777,45.1594203 Z M64.0688172,6.04735069 C61.8328416,6.04988068 60.0208561,7.86199651 60.0183263,10.098133 L60.0183263,40.5685336 C60.0208561,42.8046702 61.8328416,44.616786 64.0688172,44.619316 L96.742777,44.619316 C98.9787526,44.616786 100.790738,42.8046702 100.793268,40.5685336 L100.793268,10.098133 C100.790738,7.86199651 98.9787526,6.04988068 96.742777,6.04735069 L64.0688172,6.04735069 Z"
                          fill="#3F3D56" id="Shape"></path>
                    <path d="M89.3175231,35.2463768 L70.3926219,35.2463768 C69.2312958,35.2463768 68.2898551,34.2601055 68.2898551,33.0434783 C68.2898551,31.826851 69.2312958,30.8405797 70.3926219,30.8405797 L89.3175231,30.8405797 C90.4788491,30.8405797 91.4202899,31.826851 91.4202899,33.0434783 C91.4202899,34.2601055 90.4788491,35.2463768 89.3175231,35.2463768 Z"
                          fill="#EBEDF8" id="Path"></path>
                    <path d="M89.3175231,27.5362319 L70.3926219,27.5362319 C69.2312958,27.5362319 68.2898551,26.5499606 68.2898551,25.3333333 C68.2898551,24.1167061 69.2312958,23.1304348 70.3926219,23.1304348 L89.3175231,23.1304348 C90.4788491,23.1304348 91.4202899,24.1167061 91.4202899,25.3333333 C91.4202899,26.5499606 90.4788491,27.5362319 89.3175231,27.5362319 Z"
                          fill="#EBEDF8" id="Path"></path>
                    <path d="M89.3175231,19.826087 L70.3926219,19.826087 C69.2312958,19.826087 68.2898551,18.8398157 68.2898551,17.6231884 C68.2898551,16.4065611 69.2312958,15.4202899 70.3926219,15.4202899 L89.3175231,15.4202899 C90.4788491,15.4202899 91.4202899,16.4065611 91.4202899,17.6231884 C91.4202899,18.8398157 90.4788491,19.826087 89.3175231,19.826087 Z"
                          fill="#EBEDF8" id="Path"></path>
                    <circle cx="38.5507246" cy="38.5507246" fill="#6C63FF" id="Oval" r="6.60869565"></circle>
                    <path d="M38.5047664,40.7536232 C38.3619219,40.7538664 38.222864,40.7117208 38.1085697,40.6335418 L38.1014837,40.6286857 L36.6094285,39.5863536 C36.4204832,39.45523 36.3228069,39.2419282 36.3533455,39.0271294 C36.383884,38.8123306 36.537975,38.6288287 36.7573338,38.5460332 C36.9766926,38.4632376 37.2278289,38.493789 37.4157509,38.6261313 L38.3821921,39.3022919 L40.666047,36.5846377 C40.7730193,36.4573357 40.9310366,36.3740234 41.1053336,36.3530301 C41.2796307,36.3320368 41.4559286,36.3750824 41.5954405,36.4726965 L41.5812408,36.4902872 L41.5958104,36.4729509 C41.8859495,36.6764156 41.9408326,37.0557756 41.7184951,37.3209651 L39.0321498,40.5175681 C38.9062184,40.6668762 38.7112505,40.7541423 38.5047664,40.7536232 Z"
                          fill="#FFFFFF" id="Path"></path>
                    <circle cx="120.057971" cy="66.0869565" fill="#1B2B67" id="Oval" r="6.60869565"></circle>
                    <path d="M118.910563,68.2898551 C118.767719,68.2900983 118.628661,68.2479527 118.514367,68.1697736 L118.507281,68.1649176 L117.015226,67.1225855 C116.82628,66.9914619 116.728604,66.7781601 116.759143,66.5633613 C116.789681,66.3485624 116.943772,66.1650606 117.163131,66.0822651 C117.38249,65.9994695 117.633626,66.0300208 117.821548,66.1623632 L118.787989,66.8385238 L121.071844,64.1208696 C121.178816,63.9935676 121.336834,63.9102553 121.511131,63.889262 C121.685428,63.8682687 121.861726,63.9113143 122.001238,64.0089284 L121.987038,64.026519 L122.001608,64.0091828 C122.291747,64.2126474 122.34663,64.5920075 122.124292,64.857197 L119.437947,68.0538 C119.312016,68.2031081 119.117048,68.2903742 118.910563,68.2898551 Z"
                          fill="#FFFFFF" id="Path"></path>
                    <circle cx="100.231884" cy="6.60869565" fill="#1B2B67" id="Oval" r="6.60869565"></circle>
                    <path d="M99.0844765,8.8115942 C98.941632,8.81183746 98.8025741,8.76969183 98.6882799,8.69151276 L98.6811939,8.68665671 L97.1891387,7.64432466 C97.0001934,7.51320099 96.9025171,7.29989926 96.9330556,7.08510041 C96.9635942,6.87030156 97.1176852,6.68679976 97.337044,6.60400418 C97.5564028,6.52120861 97.807539,6.55175997 97.995461,6.6841023 L98.9619022,7.36026294 L101.245757,4.64260875 C101.352729,4.51530674 101.510747,4.43199439 101.685044,4.41100111 C101.859341,4.39000783 102.035639,4.43305344 102.175151,4.53066756 L102.160951,4.54825818 L102.175521,4.53092195 C102.46566,4.73438658 102.520543,5.11374661 102.298205,5.37893615 L99.6118599,8.57553913 C99.4859286,8.72484721 99.2909606,8.81211335 99.0844765,8.8115942 L99.0844765,8.8115942 Z"
                          fill="#FFFFFF" id="Path"></path>
                </g>
                <g id="Happy-Bunch---Sitting-(1)" transform="translate(0.000000, 47.362319)">
                    <g id="Legs-Sitting/Jeans-Bent" transform="translate(15.420290, 46.260870)">
                        <path d="M9.17958605,16.1708619 C4.10984066,16.1708619 0,12.1164947 0,7.11517925 L0,0.161708619 L31.4728665,0.161708619 C31.4728665,9.00328909 24.7661196,16.1708619 16.4929926,16.1708619 L9.17958605,16.1708619 Z"
                              fill="#694FD9" id="PELVIS-PLUS"></path>
                        <g id="Group-20">
                            <path d="M33.4796549,48.6133046 C28.5779656,31.3460697 28.5506375,40.9814787 42.2669129,31.3008687 C44.6482294,29.3593355 48.7113549,26.7224537 47.1110775,23.1715088 C46.9072493,20.5644368 52.963059,18.2034586 54.4469279,16.783599 C58.8721124,14.2194598 59.7419302,23.2889663 59.4534001,26.3653826 C58.1375762,37.2890987 48.0769209,43.2718203 39.6165429,47.2793105 C38.0259285,47.9997711 36.4241413,48.6580194 34.7805316,49.2579442 C34.2311014,49.4581889 33.6428685,49.1660841 33.4796549,48.6133046"
                                  fill="#D29863" id="Fill-1"></path>
                            <g fill="#3E36B9" id="Group-5" transform="translate(16.147401, 0.088549)">
                                <path d="M0.0233304678,12.2596665 C-0.247149216,13.6925665 1.90370765,14.2968717 2.87725339,14.8201607 C10.2066189,18.9366154 27.0115278,14.6974239 29.5448598,24.1664338 C29.5385204,24.1737107 29.5359544,24.1819578 29.54169,24.1908518 C29.5412373,24.1957031 29.534445,24.1992607 29.5355017,24.2036268 C29.5339923,24.2079929 29.5425957,24.2125208 29.534747,24.2172103 C27.9280191,27.7762553 23.1962849,30.2478099 19.713859,32.0764109 L26.5161514,47.8180982 C60.0773671,31.8443591 45.2983392,-1.22731752 12.5887117,0.0351416734 C11.3143479,-0.122039105 0.0233304678,12.2596665 0.0233304678,12.2596665 Z"
                                      id="Fill-3"></path>
                            </g>
                            <path d="M38.5214772,47.165862 C38.2103045,46.3428332 37.0881414,43.3749168 36.0418,40.6075025 C33.9635237,41.7231998 32.1434965,36.5306801 34.2332978,35.8237484 C34.0960602,35.461551 34.0172056,35.252479 34.0172056,35.252479 C32.5902388,35.8628786 31.1365827,36.4305907 29.6697335,36.9096937 L34.5276381,54.819222 C39.4976075,54.1184347 36.2389369,49.8930144 38.5214772,47.165862"
                                  fill="#D7DBE2" id="Fill-6"></path>
                            <path d="M42.5744251,47.8657513 L35.7348171,32.145255 C37.0491999,31.4982097 38.3154068,30.8066959 39.4852619,30.0778032 L47.7010632,45.0344444 C46.0071819,46.0881488 44.2973937,47.0169876 42.5744251,47.8657513"
                                  fill="#D7DBE2" id="Fill-8"></path>
                            <path d="M16.4929926,16.0091533 L14.9798739,16.0091533 C6.70674679,16.0091533 0,8.84158047 0,0 L31.4728665,0 C31.4728665,8.84158047 24.7661196,16.0091533 16.4929926,16.0091533"
                                  fill="#694FD9" id="Fill-10"></path>
                            <path d="M22.8282878,38.7678527 C22.8282878,38.7678527 24.3748629,38.7678527 35.0617302,33.2461914 C44.6408922,26.2220952 32.4467106,27.0166733 47.3383519,21.3331945 C52.5795441,19.8536352 51.4656249,29.7786468 50.4660968,32.8930817 C45.994897,44.9532889 32.9308004,49.2916106 22.2113446,52.2038747 C21.6479798,52.3377906 21.095014,51.9781957 20.9892135,51.4094588 C19.5048574,43.7310683 21.6960541,39.5514223 22.8282878,38.7678527 Z"
                                  fill="#EDB98A" id="Fill-12"></path>
                            <path d="M15.7119125,0.161708619 L6.73096408,10.7970632 C6.41333522,11.4639891 13.6182705,15.7803061 14.2071381,16.2220089 C23.8945225,16.2220089 36.4633233,18.1425561 37.3227696,25.2062719 C38.1822157,32.2699875 28.9754106,34.5402071 24.9879746,36.0463359 L30.0259129,52.5553013 C51.4980467,46.938163 63.5071979,23.2450508 42.4444154,7.37710496 C37.2918367,3.53163533 28.3810024,1.12650322 15.7119125,0.161708619 Z"
                                  fill="#694FD9" id="Fill-14"></path>
                            <path d="M25.8995464,51.2268228 C25.6788335,50.3688955 24.8829708,47.2756541 24.1407785,44.3914614 C21.9639529,45.2549028 20.7031458,39.8624486 22.8579605,39.4055902 C22.760871,39.0278751 22.7047883,38.8100686 22.7047883,38.8100686 C21.2161825,39.2521689 19.708129,39.6477235 18.1952509,39.9600805 L21.2059309,58.3768116 C21.4889077,58.3195624 22.0583287,58.2037666 22.3373857,58.1401923 C25.3581667,58.3492411 23.9337849,52.5276611 25.8995464,51.2268228"
                                  fill="#D7DBE2" id="Fill-16"></path>
                            <path d="M24.9160193,35.8910893 C26.3083135,35.4038931 27.6610642,34.8653449 28.9458541,34.2822273 L35.2430536,50.5949873 C33.4799821,51.3949774 31.7120991,51.9332027 29.9372999,52.3935927 L24.9160193,35.8910893 Z"
                                  fill="#D7DBE2" id="Fill-18"></path>
                        </g>
                    </g>
                    <g id="Body/Sweats-Point" transform="translate(0.000000, 20.927536)">
                        <g id="Right-Arm" transform="translate(39.501746, 0.000000)">
                            <path d="M56.1018823,1.53499047 C51.6970828,1.60573394 15.4185427,2.1229545 10.0703453,2.2058393 C3.03144646,2.48913695 3.15681007,12.8037615 10.2275783,12.8889127 C13.2289882,12.8536219 52.3214619,12.2695431 53.8204595,12.2538403 C55.9230237,12.2258343 60.3146527,12.1571954 62.4370539,12.1283799 C63.8490612,12.1568716 64.4118154,10.1474009 63.2038694,9.44433707 C64.3134432,9.10081843 64.4979927,7.42677215 63.4908562,6.84981625 C64.5394554,6.52442867 64.7888818,4.9714719 63.8918247,4.33575197 L67.0376222,4.28993869 C68.9366128,4.28993869 68.8928737,1.32081744 66.9946962,1.37650567 C66.9948588,1.37634378 62.9302158,1.43559346 62.9302158,1.43559346 C62.9185087,0.631028139 62.2538051,-0.0118146984 61.4455268,0.000164745012 L57.5436452,0.0568242749 C56.7355295,0.068641834 56.0900126,0.730425143 56.1018823,1.53499047"
                                  fill="#D29863" id="SKIN-DARKER"></path>
                            <path d="M56.1018823,1.53499047 C51.6970828,1.60573394 15.4185427,2.1229545 10.0703453,2.2058393 C3.03144646,2.48913695 3.15681007,12.8037615 10.2275783,12.8889127 C13.2289882,12.8536219 52.3214619,12.2695431 53.8204595,12.2538403 C55.9230237,12.2258343 60.3146527,12.1571954 62.4370539,12.1283799 C63.8490612,12.1568716 64.4118154,10.1474009 63.2038694,9.44433707 C64.3134432,9.10081843 64.4979927,7.42677215 63.4908562,6.84981625 C64.5394554,6.52442867 64.7888818,4.9714719 63.8918247,4.33575197 L67.0376222,4.28993869 C68.9366128,4.28993869 68.8928737,1.32081744 66.9946962,1.37650567 C66.9948588,1.37634378 62.9302158,1.43559346 62.9302158,1.43559346 C62.9185087,0.631028139 62.2538051,-0.0118146984 61.4455268,0.000164745012 L57.5436452,0.0568242749 C56.7355295,0.068641834 56.0900126,0.730425143 56.1018823,1.53499047"
                                  fill="#D29863" id="SKIN-DARKER"></path>
                            <path d="M53.834443,13.2252599 L48.9031488,13.2972984 C42.6834223,17.7857045 17.879637,17.8749398 6.32374547,15.9504585 C0.330031211,13.9296559 -2.87692866,1.39049248 3.46360869,1.38336957 C18.3602536,1.36653359 42.3582249,1.27349864 48.724778,1.15678001 C48.7249406,1.15678001 53.6560722,1.08522712 53.6560722,1.08522712 L53.834443,13.2252599 Z"
                                  fill="#2DB386" id="Fill-4"></path>
                            <polygon fill="#25996F" id="Fill-6"
                                     points="48.9534081 13.0532901 48.7748747 0.913257351 53.6523487 0.842190113 53.8308821 12.9822229"></polygon>
                        </g>
                        <g id="Body" transform="translate(9.268179, 1.383245)">
                            <path d="M45.2197449,31.1302703 C33.4202818,31.9526899 0.234277041,28.190573 0.609872284,26.0967337 C1.35481339,21.9438935 2.64449507,15.4546373 4.47891733,6.62896484 C4.47891733,2.9680116 7.75652686,0 11.7995321,0 L34.4539019,0 C38.4969072,0 41.7743444,2.9680116 41.7743444,6.62896484 C43.3927933,15.0934387 44.5687429,21.3700672 45.3021934,25.4588503 C45.5640809,26.9188002 45.536598,28.8092735 45.2197449,31.1302703 Z"
                                  fill="#34D1A1" id="Sweat-Body"></path>
                            <path d="M0,31.5982946 C16.3656524,37.3702083 34.1094653,31.9102899 46.2532963,31.5982946 L45.4744635,25.3028527 C33.5783567,25.7263864 16.5556663,30.8978651 0.597432452,25.4349828 L0,31.5982946 Z"
                                  fill="#2DB386" id="Bottom"></path>
                        </g>
                        <g id="Left-Arm" transform="translate(0.000000, 1.382548)">
                            <path d="M11.6168757,51.6099988 C13.3451376,37.532372 16.82849,23.582472 21.9552279,10.3628323 C24.2194151,3.91708231 14.7192594,-0.00391903777 11.9597964,6.47436972 C6.52964932,20.4783392 2.86386103,35.1003831 1.00584538,49.9851654 C0.542276415,53.5666952 0.231062452,57.205694 0.00505022244,60.8115065 C-0.107630695,62.1831527 1.69380059,62.9453043 2.55833802,61.8912752 L2.51687535,62.7725737 C2.39866607,64.2152872 4.37895597,64.855378 5.16056805,63.6953146 C5.72023286,65.4417232 8.28018722,64.7415733 8.04230528,62.9655399 C8.77123537,64.0260444 10.6687625,63.5033198 10.6824208,62.2032264 C10.7121764,61.3894337 10.7910368,60.2217617 10.8578648,59.3985797 C12.2280843,59.4939296 12.5241766,58.1792666 12.4970226,57.1100203 C12.5622247,56.4739766 12.7327907,54.7581642 12.799131,54.1002661 C13.0456307,52.5963603 11.6859801,52.6931671 11.6168757,51.6099988"
                                  fill="#EDB98A" id="SKIN"></path>
                            <path d="M0.162868546,48.866253 C0.325467273,47.4542975 0.677493516,45.2521844 0.887083275,43.8306777 C-1.12751495,33.1404814 5.04485595,16.3713519 9.57648246,8.06020832 C14.108109,-0.25093529 19.0133592,0.000821471643 21.6504611,0.000821471643 C24.2875632,0.000821471643 24.6365784,4.8202676 24.6290211,7.67606979 C24.6154406,9.40888009 23.8169182,11.0269144 23.467331,12.7469358 C22.6980764,15.5133778 21.8937005,18.318834 21.0727395,21.0862474 C19.4501668,26.5404556 17.8921458,31.7430955 16.2838818,36.8919898 C15.2910541,39.775798 14.4720443,43.2299248 12.9317466,45.7313621 C12.7454084,47.030808 12.4011869,49.1291532 12.256474,50.4277896 L0.162868546,48.866253 Z"
                                  fill="#34D1A1" id="Fill-12"></path>
                            <path d="M1.12021733,43.9223852 L13.1653684,45.8195082 C12.9720385,47.1351425 12.6481419,49.153193 12.4987136,50.4591142 L0.405108129,48.8972538 C0.565755671,47.50262 0.913066551,45.3267321 1.12021733,43.9223852"
                                  fill="#2DB386" id="Fill-14"></path>
                        </g>
                    </g>
                    <g id="Head/Bun" transform="translate(23.130435, 0.000000)">
                        <ellipse cx="4.08951914" cy="4.1517724" fill="#000000" id="Oval" rx="4.08951914"
                                 ry="4.1517724"></ellipse>
                        <g id="Head" transform="translate(2.944454, 4.483931)">
                            <g fill="#EDB98A" id="head">
                                <path d="M2.12654995,10.2963956 L9.48768441,10.2963956 L9.48768441,18.8711341 C9.48768441,21.1803499 7.83977178,23.0523011 5.80711718,23.0523011 C3.77446259,23.0523011 2.12654995,21.1803499 2.12654995,18.8711341 L2.12654995,10.2963956 Z"
                                      id="SKIN"></path>
                                <path d="M9.82343393,15.6106642 L9.00765666,15.6106642 C5.20734831,15.6106642 2.12663175,12.483051 2.12663175,8.62489199 L2.12663175,5.34798107 C2.12663175,2.39441018 4.48497564,0 7.39442314,0 L8.30933037,0 C11.2187779,0 13.5772853,2.39441018 13.5772853,5.34798107 L13.5772853,11.7996693 C13.5772853,13.9044518 11.8966566,15.6106642 9.82343393,15.6106642"
                                      id="SKIN"></path>
                                <path d="M4.08951914,9.71514742 C4.08951914,10.8615348 3.17412118,11.7910336 2.04475957,11.7910336 C0.915397965,11.7910336 0,10.8615348 0,9.71514742 C0,8.56876002 0.915397965,7.63926122 2.04475957,7.63926122 C3.17412118,7.63926122 4.08951914,8.56876002 4.08951914,9.71514742"
                                      id="SKIN"></path>
                            </g>
                            <path d="M1.64676757,8.82972383 C1.7947805,8.82972383 1.99960924,8.86438163 2.20978319,8.9710683 C2.56092229,9.14931048 2.78300488,9.47521284 2.79790341,9.94797956 L2.79870332,9.99919508 L2.30796102,9.99919508 C2.30796102,9.69439095 2.19323964,9.51968933 1.99031656,9.41668328 C1.91496056,9.37843172 1.83172545,9.35308106 1.74807952,9.33892785 C1.70692116,9.3319637 1.67483363,9.3289736 1.65625684,9.32817035 L1.64676757,9.32793652 L1.64676757,8.82972383 Z"
                                  fill="#000000" id="ear-line"></path>
                            <path d="M5.68455431,15.9978878 C4.16407801,15.4518289 3.40551962,14.0726276 3.10512644,12.2175196 C4.29452055,14.2273223 6.45172725,15.5796466 8.9223399,15.6101217 L9.00765666,15.6106476 L9.48768441,15.6106476 C8.18937833,16.3131008 6.92166829,16.4421808 5.68455431,15.9978878 Z"
                                  fill="#000000" id="SHADOW" opacity="0.12"></path>
                        </g>
                        <path d="M11.2557675,4.48391419 C14.0006826,4.48391419 16.2574118,6.59603403 16.5216411,9.29980378 L6.53881395,9.29963804 L5.80646011,12.1109426 L5.49832034,12.1186985 C5.25147798,12.1238035 4.94131211,12.1272632 4.910002,12.1133643 L4.90742297,12.1109426 L4.90960368,11.9463567 C4.92271885,11.2751824 4.98900499,9.82333148 4.98900499,9.82333148 C4.98900499,6.90397862 7.29931004,4.53178154 10.1668428,4.48462953 L10.2539065,4.48391419 L11.2557675,4.48391419 Z"
                              fill="#000000" id="Path"></path>
                    </g>
                    <g fill="#000000" id="Expression/Happy" transform="translate(31.942029, 9.913043)">
                        <path d="M1.81382929,2.00759554 C1.81382929,1.75170432 1.60311704,1.54430426 1.34313923,1.54430426 C1.08316141,1.54430426 0.872449163,1.75170432 0.872449163,2.00759554 C0.872449163,2.26348675 1.08316141,2.47088682 1.34313923,2.47088682 C1.60311704,2.47088682 1.81382929,2.26348675 1.81382929,2.00759554"
                              id="Fill-1"></path>
                        <path d="M5.89314317,2.00759554 C5.89314317,1.75170432 5.68243092,1.54430426 5.42245311,1.54430426 C5.1624753,1.54430426 4.95176305,1.75170432 4.95176305,2.00759554 C4.95176305,2.26348675 5.1624753,2.47088682 5.42245311,2.47088682 C5.68243092,2.47088682 5.89314317,2.26348675 5.89314317,2.00759554"
                              id="Fill-3"></path>
                        <polygon id="Stroke-5"
                                 points="3.79654574 1.605577 4.25936496 1.52120672 4.93204444 5.09614229 3.38279617 5.09614229 3.38279617 4.63285101 4.36611478 4.63275835"></polygon>
                        <path d="M2.02739706,5.03226986 C2.02739706,5.59968779 2.61451729,6.12443169 3.24485942,6.14479173 L3.28272746,6.14540437 L3.28272746,6.60869565 C2.4044715,6.60869565 1.5840387,5.90356884 1.55737528,5.0738566 L1.556707,5.03226986 L2.02739706,5.03226986 Z"
                              id="Stroke-7"></path>
                        <path d="M2.20607101,0 L2.20607101,0.463291278 C1.69985539,0.463291278 1.23812732,0.596958981 0.829846126,0.820216423 C0.707357604,0.887195941 0.597561741,0.958147332 0.501382518,1.02935543 L0.45443189,1.06496366 C0.399871946,1.10736025 0.36166073,1.14038859 0.340735184,1.1600163 L0.33282814,1.16759598 L0,0.839999563 C0.112518938,0.729249319 0.315646101,0.571406521 0.601258823,0.415226985 C1.05490139,0.167164898 1.56730614,0.0137511507 2.12915032,0.000879749985 L2.20607101,0 Z"
                              id="Stroke-9"></path>
                        <path d="M4.40262464,0 C4.99468584,0 5.53317414,0.155889346 6.00743682,0.415226985 C6.27519875,0.561645299 6.4704636,0.709525465 6.58653851,0.81869394 L6.60869565,0.839999563 L6.27586751,1.16759598 L6.24581291,1.1400048 C6.22825485,1.12460136 6.20513992,1.10519839 6.17664292,1.08254831 L6.15426376,1.06496366 C6.04737994,0.981908121 5.9217528,0.898359191 5.77884952,0.820216423 C5.39098239,0.608121846 4.95487944,0.47688202 4.4782222,0.464288281 L4.40262464,0.463291278 L4.40262464,0 Z"
                              id="Stroke-11"></path>
                    </g>
                    <g fill="#000000" id="Glasses/Round-Big" transform="translate(27.536232, 8.811594)">
                        <path d="M9.57681159,2.75362319 C9.57681159,4.27440727 8.34137704,5.50724638 6.8173913,5.50724638 C5.31092264,5.50724638 4.08640992,4.30258554 4.05845925,2.80594846 L4.05797101,2.75362319 L0,2.75362319 L0,2.42966752 L4.07685715,2.42974242 C4.23749565,1.06158636 5.4032091,0 6.8173913,0 C8.23157351,0 9.39728696,1.06158636 9.55792546,2.42974242 L9.92033541,2.42974242 C10.0809739,1.06158636 11.2466874,0 12.6608696,0 C14.1848553,0 15.4202899,1.23283909 15.4202899,2.75362319 C15.4202899,4.27440727 14.1848553,5.50724638 12.6608696,5.50724638 C11.1544009,5.50724638 9.92988819,4.30258554 9.90193751,2.80594846 L9.90144928,2.75362319 L9.57681159,2.75362319 Z M6.8173913,0.323955669 C5.47269801,0.323955669 4.3826087,1.41175487 4.3826087,2.75362319 C4.3826087,4.0954915 5.47269801,5.18329071 6.8173913,5.18329071 C8.1620846,5.18329071 9.25217391,4.0954915 9.25217391,2.75362319 C9.25217391,1.41175487 8.1620846,0.323955669 6.8173913,0.323955669 Z M12.6608696,0.323955669 C11.3161763,0.323955669 10.226087,1.41175487 10.226087,2.75362319 C10.226087,4.0954915 11.3161763,5.18329071 12.6608696,5.18329071 C14.0055629,5.18329071 15.0956522,4.0954915 15.0956522,2.75362319 C15.0956522,1.41175487 14.0055629,0.323955669 12.6608696,0.323955669 Z"
                              id="Shape"></path>
                    </g>
                </g>
            </g>
        </g>
    </g>
</svg>