<?xml version="1.0" encoding="UTF-8"?>
<svg height="25px" version="1.1" viewBox="0 0 25 25" width="25px" xmlns="http://www.w3.org/2000/svg">
    <title>wa-employeurparticulier</title>
    <g fill="none" fill-rule="evenodd" id="Prototype-DE" stroke="none" stroke-width="1">
        <g fill="#4833E3" fill-rule="nonzero" id="HP_departement" transform="translate(-352.000000, -752.000000)">
            <g id="wa-employeurparticulier" transform="translate(351.996000, 752.000000)">
                <path d="M12.5249929,13.2319337 C10.5755498,13.2319337 8.99028849,11.6466724 8.99028849,9.69722936 C8.99028849,7.74778635 10.5755498,6.16252499 12.5249929,6.16252499 C14.4744359,6.16252499 16.0596972,7.74778635 16.0596972,9.69722936 C16.0596972,11.6466724 14.4744359,13.2319337 12.5249929,13.2319337 Z M12.5249929,7.7299343 C11.4395887,7.7299343 10.5612682,8.61182519 10.5612682,9.69365895 C10.5612682,10.7754927 11.4431591,11.6573836 12.5249929,11.6573836 C13.6068266,11.6573836 14.4887175,10.7754927 14.4887175,9.69365895 C14.4887175,8.61182519 13.6068266,7.7299343 12.5249929,7.7299343 Z"
                      id="Shape"></path>
                <polygon id="Shape"
                         points="17.6021137 18.0412739 7.59782919 18.0412739 8.09054556 13.6068266 10.2470723 12.7427878 10.8290488 14.2030848 9.54727221 14.7136532 9.35447015 16.4702942 15.8454727 16.4702942 15.6491003 14.7136532 14.370894 14.2030848 14.956441 12.7427878 17.1058269 13.6068266"></polygon>
                <path d="M12.5821194,22.4685804 C9.94001714,22.4685804 7.45501285,21.4403028 5.58411882,19.5694087 C3.71322479,17.6985147 2.68494716,15.2170808 2.68494716,12.5714082 C2.68494716,9.9257355 3.71322479,7.44430163 5.58411882,5.5734076 C7.45501285,3.70251357 9.93644673,2.67423593 12.5821194,2.67423593 C15.2277921,2.67423593 17.7092259,3.70251357 19.58012,5.5734076 C21.451014,7.44430163 22.4792916,9.9257355 22.4792916,12.5714082 C22.4792916,15.2170808 21.451014,17.6985147 19.58012,19.5694087 C17.7092259,21.4403028 15.2242217,22.4685804 12.5821194,22.4685804 Z M12.5821194,4.25235647 C10.3577549,4.25235647 8.26906598,5.11639532 6.69808626,6.69094544 C5.12710654,8.26549557 4.25949729,10.3541845 4.25949729,12.5749786 C4.25949729,14.7957726 5.12353613,16.888032 6.69808626,18.4590117 C8.26906598,20.0299914 10.3613253,20.8976007 12.5821194,20.8976007 C14.8029135,20.8976007 16.8951728,20.0335618 18.4661525,18.4590117 C20.0371322,16.888032 20.9047415,14.7957726 20.9047415,12.5749786 C20.9047415,10.3541845 20.0371322,8.26192516 18.4661525,6.68737504 C16.8951728,5.11639532 14.8029135,4.25235647 12.5821194,4.25235647 Z"
                      id="Shape"></path>
                <polygon id="Shape"
                         points="11.8144816 0 13.3854613 0 13.3854613 3.84890031 11.8144816 3.84890031 11.8144816 0"></polygon>
                <polygon id="Shape"
                         points="11.7966295 21.1832334 13.3676093 21.1832334 13.3676093 24.9928592 11.7966295 24.9928592 11.7966295 21.1832334"></polygon>
                <polygon id="Shape"
                         points="21.2260783 11.7894887 25 11.7894887 25 13.3604684 21.2260783 13.3604684 21.2260783 11.7894887"></polygon>
                <polygon id="Shape"
                         points="0 11.7894887 3.83104827 11.7894887 3.83104827 13.3604684 3.96394967e-16 13.3604684"></polygon>
            </g>
        </g>
    </g>
</svg>
