<?xml version="1.0" encoding="UTF-8"?>
<svg height="30px" version="1.1" viewBox="0 0 30 30" width="30px" xmlns="http://www.w3.org/2000/svg">
    <title>875820A1-0128-47AB-A0E4-16D1EA626296</title>
    <g fill="none" fill-rule="evenodd" id="Prototype-DE" stroke="none" stroke-width="1">
        <g fill-rule="nonzero" id="Login_PEconnect" transform="translate(-940.000000, -295.000000)">
            <g id="Pop_in" transform="translate(381.000000, 268.000000)">
                <g id="remove" transform="translate(559.000000, 27.000000)">
                    <path d="M15,0 C6.72866824,0 0,6.72866824 0,15 C0,23.2713318 6.72866824,30 15,30 C23.2713318,30 30,23.2713318 30,15 C30,6.72866824 23.2713318,0 15,0 Z"
                          fill="#1B2B67" id="Path"></path>
                    <path d="M20.6266794,18.8263526 C21.1244402,19.3243587 21.1244402,20.1289556 20.6266794,20.6269617 C20.3783818,20.8752653 20.0524475,21 19.7262801,21 C19.4003458,21 19.0744116,20.8752653 18.826114,20.6269617 L15,16.8005216 L11.173886,20.6269617 C10.9255884,20.8752653 10.5996542,21 10.2737199,21 C9.94755246,21 9.62161822,20.8752653 9.37332061,20.6269617 C8.8755598,20.1289556 8.8755598,19.3243587 9.37332061,18.8263526 L13.1996678,15.0001457 L9.37332061,11.1739388 C8.8755598,10.6759327 8.8755598,9.87133576 9.37332061,9.37332967 C9.8713146,8.87555678 10.675892,8.87555678 11.173886,9.37332967 L15,13.1997698 L18.826114,9.37332967 C19.324108,8.87555678 20.1286854,8.87555678 20.6266794,9.37332967 C21.1244402,9.87133576 21.1244402,10.6759327 20.6266794,11.1739388 L16.8003322,15.0001457 L20.6266794,18.8263526 Z"
                          fill="#FAFAFA" id="Path"></path>
                </g>
            </g>
        </g>
    </g>
</svg>
