<?xml version="1.0" encoding="UTF-8"?>
<svg height="72px" version="1.1" viewBox="0 0 79 72" width="79px" xmlns="http://www.w3.org/2000/svg">
    <title>Group 13</title>
    <g fill="none" fill-rule="evenodd" id="Prototype-DE" stroke="none" stroke-width="1">
        <g id="HP_departement_listederoulante" transform="translate(-708.000000, -337.000000)">
            <g id="listederoulante" transform="translate(226.000000, 337.000000)">
                <g id="Group-13" transform="translate(482.000000, 0.000000)">
                    <g fill="#39DA8A" id="Group-12">
                        <path d="M0,0 L75,0 C77.209139,-4.05812251e-16 79,1.790861 79,4 L79,68 C79,70.209139 77.209139,72 75,72 L0,72 L0,72 L0,0 Z"
                              id="BG"></path>
                    </g>
                    <g fill="#1B2B67" fill-rule="nonzero" id="chevron-down" transform="translate(25.000000, 30.000000)">
                        <path d="M0.585789474,3.60947368 C0.585789474,3.36526316 0.68,3.14894737 0.868421053,2.96052632 L2.27842105,1.55052632 C2.46684211,1.36210526 2.68315789,1.26789474 2.92736842,1.26789474 C3.17157895,1.26789474 3.38789474,1.36210526 3.57631579,1.55052632 L14.6573684,12.6315789 L25.7384211,1.55052632 C25.9268421,1.36210526 26.1431579,1.26789474 26.3873684,1.26789474 C26.6315789,1.26789474 26.8478947,1.36210526 27.0363158,1.55052632 L28.4463158,2.96052632 C28.6347368,3.14894737 28.7289474,3.36526316 28.7289474,3.60947368 C28.7289474,3.85368421 28.6347368,4.07 28.4463158,4.25842105 L15.3078947,17.3968421 C15.1194737,17.5852632 14.9031579,17.6794737 14.6589474,17.6794737 C14.4147368,17.6794737 14.1984211,17.5852632 14.01,17.3968421 L0.871578947,4.25842105 C0.683157895,4.07 0.588947368,3.85368421 0.588947368,3.60947368 L0.585789474,3.60947368 Z"
                              id="Shape"></path>
                    </g>
                </g>
            </g>
        </g>
    </g>
</svg>
